<svg xmlns="http://www.w3.org/2000/svg" fill="none" viewBox="0 0 598 480">
  <path fill="#FFDE31" fill-rule="evenodd" d="M472 237.2s0-1.5-1.6-1.2c-1.4.4-1.7 1.1-1 1.7.7.5 1.8.4 2.6-.5z" clip-rule="evenodd"/>
  <path fill="#A25EFF" fill-rule="evenodd" d="M468 239.2s0-1.5-1-1.2c-1 .4-1.2 1.1-.8 1.7.5.5 1.3.4 1.8-.5z" clip-rule="evenodd"/>
  <path fill="#FFDE31" fill-rule="evenodd" d="M452 194s-.1-1.3-1.1-1c-1 .5-1.1 1.2-.6 1.7.5.5 1.2.4 1.7-.6z" clip-rule="evenodd"/>
  <path fill="#A25EFF" fill-rule="evenodd" d="M400 245.8s-1-1.6-1.6-.3c-.7 1.3-.4 2.3.3 2.5.8.1 1.4-.7 1.3-2.2z" clip-rule="evenodd"/>
  <path fill="#FF902A" fill-rule="evenodd" d="M388 158s-.1-1.3-1.1-1c-1 .5-1.1 1.2-.6 1.7.5.5 1.2.4 1.7-.6z" clip-rule="evenodd"/>
  <path fill="#FFDE31" fill-rule="evenodd" d="M363 99.7s0-2.1-1-1.6-1.2 1.6-.8 2.4c.5.8 1.3.7 1.8-.8z" clip-rule="evenodd"/>
  <path fill="#F1F68E" fill-rule="evenodd" d="M356 232.2s0-1.5-1-1.2c-1 .4-1.2 1.1-.8 1.7.5.5 1.3.4 1.8-.5z" clip-rule="evenodd"/>
  <path fill="#9DB4FF" fill-rule="evenodd" d="M316.2 347s3 .3 2.8-1.3c-.2-1.5-1.7-2-3-1.5-1.3.6-1.5 1.8.2 2.8z" clip-rule="evenodd"/>
  <path fill="#A6133B" fill-rule="evenodd" d="M366.2 327s3 .3 2.8-1.3c-.2-1.5-1.7-2-3-1.5-1.3.6-1.5 1.8.2 2.8z" clip-rule="evenodd"/>
  <path fill="#A25EFF" fill-rule="evenodd" d="M367 186.6s-.5-3.5-2.3-2.4c-2 1.2-2.1 3-1 4.2 1 1.2 2.5.6 3.3-1.8zM312 480s2.1.3 2-1.3c-.2-1.5-1.3-2-2.2-1.5-1 .6-1.1 1.8.1 2.8zM599 90.5s-.4-2-2.3-1.4c-2 .7-2.1 1.9-1 2.6 1 .6 2.5.3 3.3-1.2z" clip-rule="evenodd"/>
  <path fill="#FF902A" fill-rule="evenodd" d="M135 359.4s.3 2.1 1.7 1.5c1.4-.7 1.6-1.8.9-2.5-.8-.7-2-.4-2.6 1z" clip-rule="evenodd"/>
  <path fill="#9DB4FF" fill-rule="evenodd" d="M599 88s2.1.3 2-1.3c-.2-1.5-1.3-2-2.2-1.5-1 .6-1.1 1.8.1 2.8z" clip-rule="evenodd"/>
  <path fill="#00EB9B" fill-rule="evenodd" d="M437.2 454.5s-.7 2 .3 2.4c1 .4 1.6-.5 1.5-1.7-.1-1.1-.8-1.6-1.8-.7z" clip-rule="evenodd"/>
  <path fill="#FF902A" fill-rule="evenodd" d="M431.2 462.3s-.7 1.4.3 1.6c1 .3 1.6-.3 1.5-1-.1-.9-.8-1.2-1.8-.6z" clip-rule="evenodd"/>
  <path fill="#FFDE31" fill-rule="evenodd" d="M16.3 318.6s-1 2.2 1 2.4c2 .2 3-.8 2.6-2-.5-1-2-1.4-3.6-.4zM66.3 438.6s-1 2.2 1 2.4c2 .2 3-.8 2.6-2-.5-1-2-1.4-3.6-.4z" clip-rule="evenodd"/>
  <path fill="#FF902A" fill-rule="evenodd" d="M63 248.4s.4 2.1 2.3 1.5c1.9-.7 2.1-1.8 1.1-2.5s-2.5-.4-3.4 1z" clip-rule="evenodd"/>
  <path fill="#F2C0EA" fill-rule="evenodd" d="M112.5 147.9s1.5.6 1.5-1-.7-2.2-1.4-1.8c-.7.5-.9 1.6-.1 2.8z" clip-rule="evenodd"/>
  <path fill="#9DB4FF" fill-rule="evenodd" d="M38.1 84s1.3-.5.7-1.4c-.5-.8-1.3-.8-1.7-.1-.3.6 0 1.3 1 1.5z" clip-rule="evenodd"/>
  <path fill="#00EB9B" fill-rule="evenodd" d="M19 290s.2 1.3 1.1 1c1-.5 1.1-1.3.6-1.8-.5-.4-1.3-.2-1.7.7z" clip-rule="evenodd"/>
  <path fill="#FF902A" fill-rule="evenodd" d="M157.5 52s1.5.3 1.5-.7-.7-1.5-1.4-1.2c-.7.3-.9 1-.1 1.8zM157.5 44s1.5.3 1.5-.7-.7-1.5-1.4-1.2c-.7.3-.9 1-.1 1.8z" clip-rule="evenodd"/>
  <path fill="#A25EFF" fill-rule="evenodd" d="M129.7 83s2-.8 1-2c-.8-1.3-2-1.2-2.5-.3-.5 1 0 2 1.5 2.3z" clip-rule="evenodd"/>
  <path fill="#FFDE31" fill-rule="evenodd" d="M579.7 393s2-.8 1-2c-.8-1.3-2-1.2-2.5-.3-.5 1 0 2 1.5 2.3zM55.2 126.4s-.6 1.4.4 1.6c1 .1 1.5-.5 1.4-1.3-.2-.7-1-1-1.8-.3z" clip-rule="evenodd"/>
</svg>
