<svg xmlns="http://www.w3.org/2000/svg" fill="none" viewBox="0 0 214 214" aria-labelledby="title-gw-logomark">
  <title id="title-gw-logomark">The Groundwork Logomark</title>
  <circle cx="107" cy="107" r="107" fill="#3B6FD8"/>
  <path fill="#F8F8F8" fill-rule="evenodd" d="M107 6a101 101 0 100 202 101 101 0 000-202zm2.5 185v-48.7H105v27.1H82.2v8.1h2.9v-5.3h20V191h4.4zM101 164v-21.6h-4.4v17.1h-45v4.5h17.3v11.7h2.9v-11.7H101zm17-4.5v-17.1h-4.5v21.6h17.7v8.4H151v-2.8h-17v-5.6h28.7v-4.5h-44.8zm79.9-27.9a94.1 94.1 0 10-181.8 0h181.8zm-90.7-99.2l-42.8 74.3H150l-42.9-74.3zm31 67.4l-31-53.6-30.9 53.6h62z" clip-rule="evenodd"/>
</svg>

