<svg xmlns="http://www.w3.org/2000/svg" viewBox="0 0 927.3 193.1" aria-labelledby="title-jxa">
  <title id="title-jxa">Building OS X Apps with JavaScript</title>
  <path fill-rule="evenodd" d="M69.5 9.8s-9.2-3.3-11.2-3.3l-31-1.3-14 5.3-7.2 29.7-1.3 40.3S14 85.1 16 85.8s10.6 0 10.6 0l-1.4 29.7 4.7 27.8 19.1-.7L59.6 126l3.3 17.8 15.8.7L97.3 118l10-13.8 3.2 13.8-3.3 25.8 10 2 10.5-3.3 6.6-23.8 2-20.5 10.6 6 10 .7-4.7 29 2.6 10.6 14.6.6 6-23.8 5.2-14.5 20.5-2h4.6l-6 34.4 11.3 5.2 8.6-6.6 4-15.2 13.2-2 1.3 23.9 16.5-4 6.6-24.5 6.6-18.5 17.2-6 15.2 2 6.6 6.7-2 19.8L302 136h-13.8l-21.2-1.3-4.6 15.2 4 21s14.5 6.7 17.8 8.7 23.8-.7 23.8-.7l17.2-8.6 10.5 5.3L353 179l9.3-2 7.9-9.9 5.3-.7 6 15.2 29-3.3 5.3-7.2v-16.5l6 13.8 9.8 6.7s17.2 1.3 19.2 1.3 11.2-5.3 11.2-5.3l5.3-14.5.6 13.2 9.3 6h13.2l8-.7 6.5-11.9 7.3-3.3 6 8.6 4 11.9 23.7-2.6 2.7-13.2s8.5 9.8 10.5 9.8 15.2 1.3 15.2 1.3H594l7.3-8 2.6-5.8 11.9 9.8s7.3 7.3 9.9 7.3 25.8-1.3 25.8-1.3l11.9-6.6 7.2-14.5 6 10.5v8.6l15.8 2 9.3-3.3 2.6-5.3 6 10.6h11.9l8.5-.7 8-10.6 6.6 9.3 13.2 1.3 10.6.7 6-17.2 2-16.5 4 3.3-.7 22.4 2 9.3 22.5-2.7 6.6-9.9.6-13.8s7.3-2 10.6-2 17.8-6 17.8-6L847 134l5.3-13.9 8-2-4.7 29V173l6 8.6 8.5 1.3 16.5-4 1.4-19.1 5.3-36.4 15.2-2 5.3-2.6L913 99l-2-10-12.5-2 10.6-9.1 7.9-14.6-.7-12.5-5.9-7.3 8-2.6 2-13.3-4.7-13.2-21.1-4-21.2.7-7.9 5.3-12.6-4-24.4-1.3-21.1 1.4-3.3 4-11.3-6-25.7.7-16.5-.7-4.7 20.5-1.3 13.9L738 23l-4.6-14.5-23.1-1.3-14 15.2-11.8 23-8 25.2-5.2 9.9L660 67.3 651.5 50s14.5-18.5 17.1-19.8 8-19.8 8-19.8S656 7.8 654 7.2 641 12.5 641 12.5l-2 6.6-7.2-12s-17.9 1.4-21.2 1.4-9.9.7-9.9.7L608 31l6.6 15.2-8 13.2L596 73.2l-6 11.3-11.9 4-4-8 8-15.8 2-17.2 1.3-26.4s-10.5-10.6-13.2-11.3-27.7-1.3-27.7-1.3l-13.2 6-17.2-2s-12-5.3-15.9-5.3-25.7 11.2-25.7 11.2l-8 21.1-2 22.5 2.7 15.8 5.3 6.6-4 8-9.3 17.8L454 93l-4.6-7.9h-12.6l-9.2-.6V66l3.2-17.2 4-19.1-7.2-19.2-17.2-3.3-15.8 3.3-10.6 4-8 5.2-4.6-8.6-12.6-.6-10.5-.7-2.7 17.8-7.2-12.5-13.2-6.6h-12.6l-1.3 10-11.2-8-14.6-.7-6.6 13.9-2 9.9-4.6-17.8-16.5-10-29.7-.6-7.3 8-4.6 21.7-5.3 19.2-20.5 2.6 4.7-22.4.6-21.8s-4-6-6.6-6-15.8.7-15.8.7l-4.7 7.2-6-6.6-13.8-1.3-7.3.7-2.6 6.6-9.2-7.3-8-1.3-8.6 3.3-4.6 8-4.6-8-11.2-4.6-11.3 2.6-5.3 12.6z"/>
  <path fill="#fff" fill-rule="evenodd" d="M876.7 95.5h5.6l11.4-.7c.8 0 2 4.3 1.8 2.8a2.1 2.1 0 011-2.2l2.2.1h5l1.6-2.3-.2 2.8 2 1.3.7 4v3.1l-1.2 10.2h-8.7s-1.8-.5-1.6-1.9-1.7-3.5-1.4-2.7a4 4 0 01-.1 2.1l-1.4 1.7-1.4 1.2-4.2.1-.7 2.5-1.3 4.2-.1 3.8.9 6.2h-1.4l.4 5.1-1.3.3.4 10.7-2 .3.2 4.5-1.7.7-.4 5.6a64.9 64.9 0 00-.5 7c.1.6-.8 1.6-1.2 3l-.3.1.2.4a4.2 4.2 0 00.3 2.1l1 3-.7.2-.4-1.6-2.2.7.7 1.3-1.4.5-.4-1.7-2.2.8.8 1.7h.2l-1.3.4.9 1.7 1.8-.1-.5-2.1h.3l.6 1.2h.8l-.2.8-1.7.6.9 1.7h.3l-.1.6v.2l-.5.1.3.6-1.8.6.9 1.7h.7v3.7a4.8 4.8 0 01-2.3-4 11.9 11.9 0 00-.3-2.8h1.5l-.5-2.4-1.2.4v-.2h.5l-.5-2.3-.6.2a7 7 0 01-.3-.7h1.6l-.4-2.1-.6-2.4-2.2.8.9 1.7h.7l-1.2.3.1.2a2.9 2.9 0 00-.3-.3l-.1-.4-.7.2-2.8-1-4.3-.3-.9-1.6a6.3 6.3 0 01-.6-2.3c0-1.1-2.5-3.4-2.5-3.4l-.3-1.5 17.7.3-17.7-.6-.4-2.3 1-2 .8-4.5.6-4.4.6-2 .7-7 .8-5.7 1-5.2 1.7-7.4.7-6.2.7-3.3-1.5-.3h-4l-4.3-.1a30.6 30.6 0 01-5.8-1l1.1-7.9.4-5 .7-3.1 2.5-1h3.9l3.6-.3 2.7.1.5 6 1.2-6h2.5l.7 7.4 1.5-7.3h.5l1.1 11.2 2.4-11.2zm7 89l.4 1 .3.2-.3-.2-.9-.9h.5zm-5-5.2l1.8-.1-.4-1.7.7 1.3h1l.1.7h-.3l.8 1.5.4 1.3-1.8.7.1.2a4.3 4.3 0 01-.8-.7l1-.1-.3-2.6-2 .9-.3-.3v-1zm2.4-2.6l-1 .4v-.3l-1.7.6-.4-1.8h1l.7 1.2 1.4-.1zm-5-5.3l.5 2.3-1.8.1-1-1.7zm2.8-.8l.6 2.3-1.9.1-.9-1.6 2.2-.8zM731.4 172h-3.2l-3-.4-2.9-.4-2.8.5a8.4 8.4 0 01-2.1-.7c-1.1-.6.6-2 .6-2l-3.4 2c-.9.6-3.2 0-3.2 0l.8-9 19.4.2-.2 9.8zm25.3-2.5h-5.8c-1.9 0-4.3-.6-4-1.9s2.2-3.4 2.2-3.4l.9-1.6h5l-.5.2.8 1.3h.5l-.9.3.8 1.3h1.5l-.5-1.6-.4-1.4h.6l.7 1.2h1.5l-.3-1.2h.6l.5.8h1.5l-.3-.7h.8-.4l.8 1.4h1.5l-.4-1.4h1.7l-1.4.4.7 1.3h1.6l-.5-1.7h2.2l-.8.3.8 1.3h.4v.7l-1.2.3.8 1.3h.1l-.1.5-1.1.3.4.8-1.6.5-.2-.8h1.1l-.4-1.4h1l-.5-1.8-1.7.5.6 1-1.3.4.8 1.4h.2l-1.6.4.8 1.3h1.5l-.2-.6.6 1h.8a2.4 2.4 0 01-.6 1.1 1.9 1.9 0 01-1.1 0l-.2-.8-1.3.4-.6-.2h.2l-.4-2-1.9.7.4.7h-.5l-.2-.7-1.4.4-1.4-.2h.3l-.5-1.8-1.7.5.7 1.3zm28.8-6.5l20.1.3v1l-1.2.7s0 2-1.5 2-.7.1-2.3 2-.5 1-2 1-2.4.2-4 .2a22.1 22.1 0 00-4.9.9 14.3 14.3 0 01-3.8 0l-1.2-1.8.2-3.1.6-3.1zm-172.1-5.4l47.2 2a30.3 30.3 0 01-4.3 5.5c-3.6 3.5-11 5.3-12 5s-2 .8-4 .8a65.9 65.9 0 00-7.4.1 29.9 29.9 0 01-4.9 0c-1.5 0-2.6-.2-2.6-2.5a13 13 0 00-1.7-6c-.6-.7-2.5 0-2.5.8s.2.7 2 1.3.3 4.7.3 4.7l-3.7-1.5c-1.5-.6-2-1-4.4-3-1.4-1.2-1.9-4.5-2-7.2zm86.5 3.8v.2l-.4 3.9-1.2 2.3s0 3.8-1.3 2.7-5-1-7.7-2.4l-.8-.4a20 20 0 00-.9-6.9zM582.5 94.9c1.5-.5 3-.8 3.7-.6 1.4.5 6.5-.5 6.5-.5a35.2 35.2 0 018.6.4c2.7.7 2.2 2.9 4.3 3.4s1.3 0 3.5 1.4 4.7 6.8 5 9-3.3 6.4-4.5 7.9a8.6 8.6 0 01-4.4 2.5 4 4 0 00-2.8 2.7c-.7 1.4-2.5.4-4.7.4s-2.4-1-2.1-2.1 1.6-1.7 1.6-2.7-1.8-.6-2.6-2-2.1-4.7-4.2-4.8-4.2.5-6.9 2.2-1.5 5.7-.4 7.6 7.3 4.4 7.9 4.7.1 2 .5 2.6 1.7-1.4 1.7-1.4l.5 2.5s1.8-.2 2.4.5a5 5 0 01.8 2.4l1.5-1.2a6.4 6.4 0 012.4 2c.6 1 2 .4 2.8.9a5 5 0 012.2 2.3c.8 1.4.8 5.8.8 9.6s-3.5 8.7-4.7 10.7l-.8 1.1-44.3-1.2 43.8 1.9-5.3 6.6a33.8 33.8 0 00-1-4.5c-.3-1-1.2-.2-1 1.4a26 26 0 01.3 4.4c-.1 1.3-2.6 1.7-2.6 1.7a20.1 20.1 0 01-.9-4.4c0-1.6-1.4 1.1-1.4 1.1l.8 4c.3 1.5-4.8 2.2-4.8 2.2s-11.3-.3-13.7 0-5.5 0-6.8 0a7.4 7.4 0 01-3.8-1.4c-1.4-.9-2.4-3.2-3.4-5.2s-2.4-2.7-3.5-3.6-1.6-1-1.6-2.3l.5-9.6s.3-2.3 1.5-3 4 .2 7-.1 4.2-.5 7 .2l3.4.9.1 5.7c.1 1.8 4.1 3 6.8 3.4s5.8-3.3 7-4.5-.2-4.8-1.2-6a19 19 0 00-10.7-5.4c-2.3-.5-7.8-5.5-8.8-6.1-.6-.4-2.5-2-3.4-5.7a.3.3 0 000-.4.4.4 0 00-.2-.2v-.6h.3c.8-.2.7-.5.6-.7s-.3-.3-.9-.2h-.2v-1c.3 0 .2-.3.2-.4a.4.4 0 00-.3-.2.5.5 0 00.2-.1c.4-.3.2-.5.1-.6a.4.4 0 00-.3 0v-.4c0 .1.2.2.8.1v.1s0 .3.8.3.9-.2.9-.4-.3-.4-.8-.4h-.2a.4.4 0 000-.2c0-.2-.4-.3-.9-.2a2.7 2.7 0 00-.6.2c.3-.3.1-.5 0-.6v-.2a.5.5 0 00.4-.2.3.3 0 00.2 0s0 .2.2.2a1 1 0 00.8.2h.3v.1s0 .4.9.4h.1a.4.4 0 00.2.1.2.2 0 000 .2.3.3 0 00.2.2s0 .3.7.3v.3s0 .3.9.3.9-.3.9-.4-.3-.4-.8-.4a.3.3 0 000-.3l-.4-.3a.3.3 0 000-.3c-.1-.2-.4-.4-1-.2a.3.3 0 000-.3c0-.2-.3-.3-.8-.2h-.3s-.1-.2-.3-.2v-.1c-.1-.2-.4-.3-1-.2h-.3c0-.1-.3-.2-.8-.2v-.3a2.1 2.1 0 00.4-.2 1.7 1.7 0 00.3-.2c.6-.1.5-.4.4-.5s-.2-.3-.6-.2a.9.9 0 00-.3 0v-.2a1.9 1.9 0 00.5-.1c.8-.3.7-.6.6-.8s-.4-.2-.9 0l.1-.7a1.5 1.5 0 00.7 0c.5-.2.6-.4.6-.5a1.1 1.1 0 00.4 0c-.4.2-.7.5-.4.7-.4.1-.7.3-.3.6l.2.2c.2 0 .2.2.8.2.8 0 .9-.2.8-.4a.1.1 0 000-.1 1.7 1.7 0 00.5-.1 2.4 2.4 0 00.3-.1.3.3 0 00.1.1c-.3.1-.4.3-.1.5 0 0 0 .3.7.2l.2.2c.2 0 .1.2.5 0h.3c.8 0 .9-.3.9-.5s-.3-.4-.9-.4a.4.4 0 000-.2c0-.2-.2-.4-.8-.4a3.2 3.2 0 00-.6 0 .4.4 0 000-.1.3.3 0 00.1-.2h.2s.2.3.6 0a1 1 0 00.6 0v.3s0 .3.8.3 1-.2 1-.4a.3.3 0 00-.2-.3c.3-.3.1-.5 0-.7a.6.6 0 00-.8.1c-.1-.1-.4-.3-.9-.2a2.8 2.8 0 00-.4.1.6.6 0 00-.6.1 1.1 1.1 0 00-.4.4.6.6 0 00-.2-.2 1 1 0 00.6-.3h.1c.8-.2.7-.5.6-.7a.5.5 0 00-.4-.2.8.8 0 00.3-.2s.2.4 1 0a1.3 1.3 0 00.5-.2 1.8 1.8 0 00.6 0c.8 0 .9-.2.8-.4a.4.4 0 00.3-.1s.3.2.8 0c.8-.3.7-.6.6-.7s-.4-.3-.9-.1a.4.4 0 000-.3c-.2-.1-.5-.3-1 0s-1 .4-.6.7a1.6 1.6 0 00-.9.3 1.3 1.3 0 00-.6 0 2 2 0 00-.7.4.5.5 0 00-.4 0c-.3 0-.6.3-.3.5a.2.2 0 00.1 0c-.4.2-.8.3-.9.5h-.1a2 2 0 00.2-.2c.3-.6 0-.8-.2-.9s-.5 0-.7.4-.4.9.2.9a.3.3 0 00.1 0 .8.8 0 00-.2.2 1.3 1.3 0 00-.6-.2c-.4 0-1 0-1 .4a1.1 1.1 0 00-.7 0h-.2l.3-1.2a1.3 1.3 0 00.4-.1c.6-.4.5-.7.3-.8a.5.5 0 00-.4-.2 1.7 1.7 0 00.6 0c.9-.1.9-.4.8-.6a.4.4 0 000-.1 1.3 1.3 0 00.6 0l.3-.1a1 1 0 00.7.1.2.2 0 000 .2.7.7 0 00-.3 0c-.3 0-.7.2-.3.5 0 0 0 .3.5.2s.4-.3.4-.4a1.5 1.5 0 00.6 0 1.2 1.2 0 00.8-.3c.2.1.4.2.9 0 .8-.2.7-.5.6-.7s-.4-.2-1 0h-.1a.9.9 0 00-.3 0 .4.4 0 00-.1-.1h.1c.9-.1.9-.4.8-.6l.3-.1c0 .1 0 .3.3.3 0 0 .3.3.8-.2s.4-.7.2-.8a.7.7 0 00-.8 0c-.1-.1-.4-.2-1-.1a2.2 2.2 0 00-.3.1.5.5 0 00-.4-.1c.7-.2.6-.5.5-.7s-.3-.3-.9-.1-1 .4-.6.7c0 0 .1.2.6.2-.3 0-.7.3-.3.6a.3.3 0 00.1 0c-.2.2-.3.3-.1.5 0 0 0 .2.3.3h-.3c-.1-.1-.4-.3-1-.2a3.7 3.7 0 00-.4 0 .5.5 0 00-.2 0 .3.3 0 00.1-.4c0-.2-.3-.4-.8-.3h-.4c0-.1-.1-.2-.4-.3v-.1h.1s.4.1.7-.5 0-.7-.2-.8a22.9 22.9 0 011.8-3.2.4.4 0 00.2.1l.1.2a.4.4 0 00.3.1s.2.2.7 0a.6.6 0 00.3.1s.3.2.8-.3.2-.7 0-.8a.6.6 0 00-.7 0 .5.5 0 00-.2 0 1 1 0 00-.7 0 3 3 0 00-.4 0l1.3-1.4a1.3 1.3 0 00.5 0s0 .2.2.3 0 .3.9 0 .6-.5.5-.7-.3-.2-.7-.2c.4-.1.3-.3.2-.5a.4.4 0 00-.5-.1 29.2 29.2 0 0111-6.7l2.4-1a.6.6 0 00.4 0c.4 0 .5-.2.5-.3zm295.8 71.8l.5 2.3-1.9.1-.8-1.7zm-118.2.6l.6 1.7h-1.5l-.8-1.3zm7.1 1.5v.2l-.2-.7.3.4zM755 167l.5 1.8H754l-.7-1.3zm8.2-.8l.5-.2.5 1.8h-1.4l-.6-1 .4 1.2H761l-.8-1.3h.2-1.1l-.6-1h-.2l.5 1.6h-1.5l-.8-1.3 1-.3-.9-1.3 1.8-.5.3 1.3 1.1-.3-.5-1 1.7-.5.3 1.2 1.1-.3v.2l1.3-.4.5 1.8H763v.2zm-6.5-.2l.5 1.8h-1.5l-.8-1.3zm-77.2-5.5l4.6.2 1.5 2.7a17.3 17.3 0 011.4 3.8h-2c-1.3-.1-2.8-.3-2.4-1.2s.1-1-.1-2-.7-.7-1-1.2a12.2 12.2 0 00-2-2.2zm74 4.7l.5 1.8h-1.5l-.7-1.3 1.7-.5zm8.2 1l-.5-1h-.8l.4 1.4 1.2-.3v.2l1-.3zm-7-2.4l.5 1.8h-1.5l-.8-1.3zm124.7-1.7l.6 2.3-2 .1-.8-1.7 2.2-.7zm-69.7-16.4l-.3 1.4-1.8 5.1s-.6 5.6-1.3 6.4c-.4.5-.5 2.3-.6 3.8l-19.8-.6.7-1.5 1-4.3v-3.2l.5-3.4 1.8-8a48.7 48.7 0 00.8-5.1l1.2-6 1-3.7 1.7-9.9-.7-4.7 1.4-.4-.3-5.7 1.4-.3-.5-5.8 1.4-.6.2.2 1-1-.6-.4.8-.9.5.4-.8.5.9.8-.7.4 1 1 .9-1-.8-.5.6-.7-1-.6.8-.8-1-.6-1 .6.4.4-.8-.5v-1.3l.6.7 1-1.2-.9-.6.7-.1.7.6.8-.9h.7l-.7.3 1 1 1-1-.4-.2.4-.4 1.3-.3 1.3.1 1 1 .9-.9h.6l-.9.5 1 1 1-1-1-.5h2c2.5-.4 15.4.5 17.3.5a19.3 19.3 0 015.7.7 74 74 0 007.6 1.7c5.2 1 6 10 6 10v8.5l-.2 6c0 1.7-1.8 7.4-3.7 13s-9.3 9-13 11c-3.4 2-12.8 1-13.7.9l-12.8-6 6.8 6.2zm-59.1 15l.2-.8.5-1.6.2-2.8a33.3 33.3 0 01-1.3-4.8 7.9 7.9 0 01.7-2.4L753 136l2-8.1.8-2.7.1-4.5c.1-2.8 0-5.6 2.2-8.4s.6-12.7.6-12.7l.8-2v-4.6a6.8 6.8 0 002.3-1.1 17.9 17.9 0 013.3-1.7c4.6-.9 10.5.3 11.8.3s3 2.1 3 2.1v4.9s.3 5-1 5-1.3 2.2-1.3 2.2l1.3 1-1 2.1-.5 4v2.7l-.5 3-1.3 3.8-.5 7.2a67.6 67.6 0 01-1 7.4l-1.5 6v5l-1.6.6-1.4 8.8-.8 4.4-1.5.4.1.1h-2.6l-.2-1-1.8.4.3.5h-.3l-.3-1.2-1.8.5.4.6-10.6-.3zm9.7-2.2l.5 1.8h-1.5l-.8-1.3zm-47.3-15.4h-1l-1.5-6.7-1.9 7h-1s-1.8-1.6-2.2-1.5a13.7 13.7 0 00-1.7 2.6l-.4 5.5-2.4 6.8-.5 2.5-13.5-.3a9 9 0 00-5.6-4.7v-.1l.3-5.5 1.9-5 1-7.6 1.7-5.1v-5.6l1-.4v-5.3l1.4-.7-.5-5 1.1-1-.2-4.9 1.5-.6-.3-5.2 1.8-1.2-.9-3.9 1.1-1.2.4-3.6h15l18.6.3 9.5.8.4 2.6 1.7 1.6s2.4 1 2.7 2.8 1.2 9-.3 10.7c-.8.9-.8 1.9-.8 3.5l-.5.2c-.3.2-.2.6-.1.8s.3 0 .5-.2a.4.4 0 00.1-.1 33 33 0 01-.3 5.6c-.5 3.7-3.4 6.8-5.5 8.6 0 0-.1-.2-.3 0s-.3.3-.2.4a18.5 18.5 0 01-1.7 1.3 3.2 3.2 0 00-.8.8s-.1-.2-.4 0-.2.2-.2.4a.3.3 0 00.4 0 1.8 1.8 0 00.5 2c5.2 3.3 3 15.1 2.7 17.1s-1.8 8.3-1.8 8.3v.4l-19.3-.5.1-1.3.7-4.7.8-3.4s1-4 .8-6-1.8-1.2-1.9-1zM680.8 156l2 2.8H680v-.4zm-67.5.8v-3c0-1.2-.8-2.1-.8-3.3a27 27 0 01.4-3.6l1.6-2-.5-3.8 1.3-1.8-.4-3.8 1.7-1-.2-3.6 1.2-1.7a16.8 16.8 0 01.3-4.5 18.3 18.3 0 00.8-3 14.4 14.4 0 011-3.8c.8-1.2 2.6-9.3 3.8-11.7s5-9.2 6.3-10.2 1.2-1 3.4-.6 2.5 0 2.5-1.4-1.5-1-3.4-.8-1.7 1-3 1.4-3.6-.4-4.5-.6.4-1 2.1-1.7 1.7-1.2 3.6-1.7 3.2.6 4.3.6a13.2 13.2 0 005.3-1.7c1.7-1 1.7-.4 5.2.5s2.8.2 6.5 0h.3l-1.5.4.7 1.3h1.5l-.5-1.7a56.7 56.7 0 0111.1 1.5c3.6.8 8.9 6.3 9.6 8.3s.5 5.3.5 7.6a19.4 19.4 0 01-1 6.8 17.2 17.2 0 00-1 4.7l-5.7.1-3 .5-3.4-.1a32.3 32.3 0 00-3.6.1 3.6 3.6 0 01-2.3-.7l.3-3.5a23.3 23.3 0 011.1-3.3c.8-1.6-.1-2.3-1-4.2s-1.4-1.6-2.8-1.2-2.4 0-4.4.8-1.8 1.2-3.4 2.8-2.3 5-2.3 5l-1 6.3-1.5 4-1 5.2v4.5l-1.3 1s-.3 4.2-.5 5.3a43.5 43.5 0 00-1 8.4c.2 2.4 3 2.8 4 3.3s2.5-.4 4.4-.9 3-3 4-4 1-3.2 1.3-4.7a8.9 8.9 0 012.6-3.7l1.5-1.4 1 1.5 1.3-.3 1.6-.1h2.8l1 1.8 2.2.9a5.3 5.3 0 012.2-1.2 2 2 0 012 .5s1.2 1.3-.6 6.8a53.8 53.8 0 01-4.6 9.8l-48.1-1.4zm265.7-1.1l.6 2.3-2 .1-.8-1.7 2.2-.7zm-118.2-.5l.5 1.8h-1.5l-.7-1.4 1.7-.4zm-.5-5l.5 1.9h-1.5l-.7-1.4zm114.4-4.1l.6 2.3-1.9.1-.9-1.7 2.2-.7zm-118.2-3.3l.5 1.8h-1.4l-.8-1.3 1.7-.5zm65.2-12.7a7 7 0 002.5-4.1c.7-3.4 1.1-6.2 1.3-7.7a19 19 0 00.2-4.6 2.8 2.8 0 00-2.3-2.6c-1.2-.5-6.2.2-6.2.2l-1.2 2.6-1 4.8-.7 3.6-.4 2.5-.7 1.8-.1 3.8 6.4.1.7 6.8 1.5-7.2zm-95.7 4.2s0-.2-.3-.1-.3.2-.3.4a.3.3 0 00.3.2c.2 0 .5-.2.3-.5zm3.6-1.5s0-.2-.3-.2a.3.3 0 00-.3.4.3.3 0 00.4.3c.2 0 .4-.2.2-.5zm-2.6-.3s0-.3-.3-.2-.3.3-.3.4a.3.3 0 00.4.2c.2 0 .4-.2.2-.4zm2-2s0-.3-.5-.2-.6.3-.5.5.2.3.5.2.8-.2.5-.5zm1.5-.6c0-.2 0-.4.5-.5s.6.1.6.1c.2.4-.2.5-.5.6 0 .1-.1.3-.3.3a.3.3 0 01-.4 0 .3.3 0 01.1-.5zm-.6-.7s0-.3-.5-.2-.6.3-.5.5.2.3.5.2.7-.2.5-.5zm3.2-1.2s0-.3-.6 0-.4.5-.3.6.3.2.6 0 .6-.4.3-.6zm-1.7 0c-.2.3-.4.3-.5.2s-.3-.2 0-.7.5-.3.5-.3c.2 0 .3.2.2.3h.1c.5-.3.6 0 .6 0 .4.2 0 .5-.3.6s-.5.1-.6 0zM713 109l-.5-5s-4.1 6.3-2.8 9l-.9 4.1s.4 4-.3 4.7-.7 3.3-.7 3.3v2l8-.2a27.1 27.1 0 003-4.6c1.3-2.4 2.4-7.6 2.1-9.5a7 7 0 00-3-4.4c-.6-.2-3.2.3-5 .7zm19.8 17s0-.3-.6 0-.4.5-.3.6.2.2.5 0 .7-.4.4-.6zm-170.2.2c-.7.1-.8-.2-.8-.2-.4-.3.2-.5.7-.7s.8 0 .9.3a.4.4 0 010 .2c.6-.1.8 0 1 .2s0 .5-.7.6-1-.1-1-.1v-.3zm172-.3s-.2-.3-.7 0-.4.5-.3.6.2.2.6 0 .6-.4.3-.6zm-171.2-.7s0 .3.9.1.7-.4.6-.6-.4-.3-.9-.2-1 .3-.6.7zm172.2-1.2s-.2-.2-.6.2-.2.6-.1.7.3.1.6-.2.4-.6 0-.7zm-1.9-.2s-.2-.2-.4.4 0 .6.2.7.3 0 .4-.4.2-.8-.2-.7zm-1.5.1a.3.3 0 00-.5-.1c-.3.2-.2.5-.1.7a.4.4 0 00.5.1c.2-.1.5-.3.1-.7zm2-1l.5.1c.2.4-.2.5-.6.6s-.5 0-.5-.2h-.2c-.4.1-.6 0-.6-.2s0-.4.5-.5.5 0 .6.2c.2-.2.3 0 .3 0zm-2.4 0s0-.2-.5 0-.5.3-.5.4.2.3.5.2.8-.2.5-.5zm.6-.7c.5-.1.6.1.6.1.2.3-.2.5-.6.6s-.5 0-.5-.2a.3.3 0 010-.2c-.4 0-.5 0-.6-.2s0-.4.6-.5.5.1.5.1a.3.3 0 010 .3zm2.1-.5s0-.3-.6-.2-.5.3-.5.5.2.3.6.2.8-.3.5-.6zm-1.8-.7a.3.3 0 00-.5-.1c-.4.1-.3.4-.2.6a.4.4 0 00.5.2c.3-.2.5-.4.1-.7zm-166.9.4s0 .3.8.4 1-.3.9-.5-.3-.4-.8-.4-1.3.1-1 .5zm170.2-.7a.3.3 0 00-.5-.2c-.3.2-.2.5-.1.7a.4.4 0 00.5.2c.2-.1.4-.4.1-.7zm-1.3 0s0-.2-.3 0a.3.3 0 00-.2.4.3.3 0 00.4.2c.1-.1.4-.3.1-.5zm2.6-.3s0-.2-.3-.1a.3.3 0 00-.2.5.3.3 0 00.4 0c.2 0 .4-.2.1-.4zm-1.9-.3s0-.2-.4 0-.3.4-.2.6.2.2.4 0 .5-.3.2-.5zm-171 .1s0 .4.8.2.8-.5.7-.6-.4-.4-.9-.3-1.1.4-.6.7zm168.6-.7s0-.3-.6 0-.4.4-.3.6.2.2.5 0 .7-.4.4-.7zm-170 .5s.4.2.7-.4 0-.7-.2-.8-.5 0-.7.3-.4.9.2.9zm3-.5s.1.2.5 0 .2-.4.1-.5a.4.4 0 00-.6 0c-.2.1-.4.4 0 .5zm169-.8c0-.1.2-.3.5-.4.5-.3.6 0 .6 0 .3.2 0 .4-.3.6 0 .2-.2.4-.5.5h-.6a1 1 0 01-.2.1c-.3.2-.5.1-.6 0s-.1-.4.4-.7.6 0 .6 0a.3.3 0 01.2 0zm.6-1.4c0-.2 0-.3.4-.5s.5 0 .5 0c.4.2 0 .5-.3.7a.6.6 0 01-.4 0l-.3.3a.3.3 0 01-.3 0 1.4 1.4 0 01-.4.3c-.3.2-.5.1-.6 0a1.3 1.3 0 01-.4.4c.3.2 0 .5-.3.6h-.6a.5.5 0 010-.2c-.4.2-.5.1-.6 0s-.2-.3.3-.6a1 1 0 01.4-.1c0-.2 0-.5.4-.7.7-.3.8 0 .8 0a.5.5 0 010 .2 1 1 0 01.4-.3c.5-.2.6 0 .6 0a.4.4 0 01.2 0 .4.4 0 01.2 0zm2.7-.6s-.1-.3-.6 0-.4.5-.4.6.3.2.6 0 .7-.4.4-.6zm-5.8.1s-.1-.2-.4 0a.3.3 0 00-.2.4.3.3 0 00.4.1c.2 0 .4-.3.2-.5zm3.1-1a1 1 0 01.5-.4c.6-.3.7 0 .7 0 .5.4 0 .8-.3 1s-.7 0-.8-.1l-.1.1c-.2.2-.4.2-.5 0s-.2-.3 0-.5.5-.1.5-.1zm-1-.3s-.1-.4-.7-.1-.5.6-.4.8.4.4.8.2.8-.6.3-1zm2.9-1s-.3-.1-.4.4 0 .7.2.7.3 0 .4-.3.2-.8-.2-.8zm-4.5.2s-.1-.2-.4 0a.3.3 0 00-.2.4.3.3 0 00.4.1c.2 0 .4-.2.2-.5zm-163-.1s0 .3.8.3.9-.2.9-.4-.3-.4-.8-.4-1.3 0-1 .5zm165.2-.4l.4.1c.2.2 0 .4-.2.5a.3.3 0 01-.2 0 .2.2 0 01-.2 0c-.1-.1-.2-.3 0-.5a.3.3 0 01.2 0zm2.8-1.4s-.2-.3-.7.2-.2.9 0 1 .4.2.7-.1.5-1 0-1zm-2.9.2a.6.6 0 010-.2c.2-.7.5-.5.5-.5.5 0 .5.6.4 1s-.4.7-.6.6a.5.5 0 01-.3-.4c-.1.1-.3.1-.4 0s-.1-.2.1-.4.2-.2.3-.1zm-163.5.3s0 .3.8.3.9-.2.9-.4-.3-.4-.8-.4-1.3 0-1 .5zm162.7-1s0-.3-.5 0-.5.5-.4.6.3.2.6 0 .7-.4.3-.6zm-171.6-.7h.1s0 .3.5.3c-.3.2-.4.3-.1.5a1.5 1.5 0 00-.5 0h-.4l.3-.8zm7 .5s.2.3 1 0 .7-.5.6-.7-.4-.2-1 0-1 .4-.5.7zm5.3-.6s0 .3.5.3.5-.2.5-.4-.2-.3-.5-.3-.7 0-.5.4zm159.8-.7s0-.3-.6 0-.4.5-.3.6.3.2.6 0 .7-.4.3-.6zm1 0c0-.1 0-.3.4-.5s.5 0 .5 0c.3.2.2.4 0 .5 0 .2-.3.4-.5.5h-.6c-.1 0-.1-.3.2-.5zm-166.2.4s.1.3.6.2.4-.4.3-.5a.5.5 0 00-.6-.3c-.3 0-.6.2-.3.6zM814 111l-1-1 1-.6 1 .6zm-244.7-2.7c-.7 0-.7-.2-.7-.2a.3.3 0 01-.1-.1h-.3c-.9 0-.9-.3-.9-.3-.4-.3.3-.5.9-.6s.8.1.8.3h.4c.5 0 .8.1.8.3a.3.3 0 010 .3.4.4 0 010 .2 4.2 4.2 0 01.6 0c.5-.1.8 0 .8.2a.3.3 0 010 .2c.6 0 .9.1 1 .3a.3.3 0 01-.2.4.3.3 0 01.2.3c0 .2 0 .4-.8.4a.3.3 0 01.2.3c0 .2 0 .4-.5.4s-.5-.3-.5-.3c-.1-.3 0-.4.3-.4-.4 0-.4-.3-.4-.3-.1-.2-.1-.3 0-.4l-.1-.3a1 1 0 01-.7-.1c0 .1-.2.3-.8.3 0 .2-.2.4-.9.4s-.8-.2-.8-.2c-.4-.4.3-.5.8-.6-.2-.4.4-.5 1-.5zm169.4 1.4l.1-.1c.5-.3.6 0 .6 0 .3.2 0 .5-.3.6h-.6c-.1 0 0 0 0 0a1 1 0 01-.2.2h-.6c-.1 0-.1-.4.3-.7s.6 0 .6 0h.1zm-1.8-.6v-.1c.5-.4.6-.2.6-.2.3 0 .2.3 0 .5.4.3 0 .5-.3.7s-.5.1-.6 0a.5.5 0 010-.2c-.4.2-.6.1-.6 0s-.2-.4.3-.7h.6zm-160 .5s0 .3.5.3.5-.3.5-.4-.2-.3-.5-.3-.7 0-.5.4zm158.8-1s-.2-.2-.4.3 0 .7.2.7.3 0 .4-.3.2-.8-.2-.8zm3.2-.3s0-.3-.6 0-.4.5-.3.6.2.2.6 0 .7-.4.3-.6zm-166.5 0c-.7 0-.7-.3-.7-.3-.4-.3.3-.5.8-.6s.8.1.9.3a.5.5 0 010 .2c.5 0 .8.2.8.4s0 .5-.9.4-.8-.3-.8-.3a.4.4 0 010-.1zm-7.2-.2c-.4.1-.5-.1-.5-.1-.5-.3 0-.6.6-.8s.8 0 .9.1a.3.3 0 01-.1.5.4.4 0 01.1.2c.1.2.2.4-.3.5s-.5-.2-.5-.2a.4.4 0 01-.2-.2zm243.6-.6l-1-1 1-.6 1 .6-1 1zm-69.4-.9s-.2-.2-.5.1-.1.5 0 .6.2 0 .4 0 .4-.5.1-.7zm-5.2-.5s-.2-.4-.8 0-.5.6-.4.8.4.3.8.1.9-.5.4-.9zm-165.4.9s.4.2.7-.5 0-.7-.3-.8-.5 0-.7.4-.3.9.4.9zm7.1-.4s0 .3.5.3.5-.2.5-.4-.1-.3-.5-.3-.7 0-.5.4zm-5.3-.3s0 .2.5.1.4-.3.3-.5a.5.5 0 00-.5-.2c-.3 0-.6.2-.3.6zm166.1-.9a1.2 1.2 0 01.2-.1c.6-.3.8 0 .8 0 .4.4 0 .8-.4 1s-.7 0-.8-.1v-.1l-.2.2c-.4.2-.7 0-.8-.2s-.2-.5.4-.8.7 0 .7 0l.1.1zm-2.4-1l.1-.1c.5-.3.6 0 .6 0 .2 0 .1.2 0 .4a.3.3 0 01.2.2c.5.3 0 .7-.4.9s-.6 0-.7-.2a.5.5 0 010-.2c-.5.2-.8 0-.9-.2s-.2-.5.4-.8c.4-.2.6-.2.7 0zM572 105.4s0 .3.5.3.5-.2.5-.4-.2-.3-.5-.3-.7 0-.5.4zm167.1-.4s0-.1-.3 0-.1.4 0 .5.1.1.3 0 .3-.4 0-.5zm-161.2-.4s0 .2.4.3.6-.3.5-.4-.1-.4-.4-.4-.7.1-.5.5zm-7.4-.9a2.4 2.4 0 01.5-.2c.5-.1.8 0 .9.1s.2.5-.6.7a1.6 1.6 0 01-.4.1 1.6 1.6 0 01-.6.2c-.9 0-.9-.3-.9-.3-.4-.3.3-.5.8-.6zm165 .1c-.3.2-.5.1-.6 0a.3.3 0 010-.2c-.3.2-.5 0-.6 0s-.1-.4.4-.6.5 0 .5 0a.3.3 0 01.2.2c.4-.3.5 0 .5 0h.2c.6-.3.8 0 .8 0a.7.7 0 01.1.2h.1c.5-.3.6 0 .6 0 .4.2 0 .5-.3.6h-.6l-.3.2c-.4.2-.7.1-.8 0a.7.7 0 01-.1-.4zm71 .5l-1-1 1-.6 1 .6-.8 1zm-67.6-.6s-.1-.1-.3.1-.2.4-.1.5.2 0 .4 0 .3-.4 0-.6zm-84.2-1.5l.5 1.8h-1.5l-.7-1.3zm144.6 1.7l-1-1 1-.6 1 .6-1 1zM657 101.7l.3 2-1.5.2-.7-1.4 1.8-.7zm-5.1.8l.2.8h-1.5l-.7-1.3 1.4-.4-.3-.4 1.7-.5.6 1.8zm-79.2-.5a.6.6 0 01.7-.2c.2.1.5.3 0 .9s-.8.3-.8.3a.6.6 0 01-.2 0c-.1 0-.3.2-.8.2-.8.1-.8-.2-.8-.2-.3-.2-.1-.4.2-.5-.1-.2.3-.4.7-.6s.9 0 1 .1zm164.4.2s-.1-.3-.6 0-.4.5-.4.6.3.3.6 0 .7-.4.4-.6zm61.6.3l-1-1 1-.5 1 .5-1 1zm3.5 0l-1-1 1-.6 1 .5-1 1zm-232.2-.5s.1.3.9 0 .6-.6.5-.8-.4-.2-.9 0-1 .5-.5.8zm166.9-1a.5.5 0 01.2-.3c.3-.3.4-.1.4-.1.3.1.2.4 0 .6h-.2c.2.3 0 .6-.2.8a.3.3 0 01-.6 0 .5.5 0 01.1-.8.6.6 0 01.3-.2zm-82-1l.4 2h-1.6l-.7-1.4 1.9-.7zm150.8 2l-1-1 1-.6 1 .5-1 1zm-2 0l-1-1 1-.6 1 .5-1 1zm-144.7-2.3l-.5-.8 1.8-.5.5 1.8h-1.5l-.3-.5.5 1.8h-1.4l-.6-1 .2.6h-1.5l-.8-1.3 1.6-.4h-.2l-.8-1.4 1.3-.3-.6-1.2 1.7-.5.5 1.8h-1l.4 1.5h-1.1l.2.7 1.6-.4zm141.8 1.6l-1-1 1-.6 1 .6-1 1zm-225.9-.8l1-.3c.5 0 .7.2.8.3s0 .5-.9.6-.8-.2-.8-.2l-.1-.1s-.1.2-.5.2-.5-.2-.5-.2c-.2-.3.2-.5.5-.5s.5.1.5.3zm223 .5l-1-1 1-.6 1 .6-1 1zm-148.2-2l.5 1.8h-1.5l-.7-1.3zm152.6 1.6l-1-1 1-.6 1 .6-1 1zm-229-1c0-.2.2-.3.4-.4a.5.5 0 01.6.1c0 .2.1.4-.2.5 0 .2 0 .5-.8.6s-.9-.2-.9-.2c-.4-.4.3-.6.9-.7zm78.9-1l.5 1.7h-1.5l-.8-1.3zm-5.3-.2l.5 1.8H646l-.7-1.3zm157.2 1.8l-1-1 1-.6 1 .6-1 1zm-67.3-.8l-.1.2a.3.3 0 01-.5 0 .4.4 0 010-.6c.3-.3.4 0 .4 0a.3.3 0 01.2.3v-.1c.3-.2.4 0 .4 0 .3 0 .2.3 0 .5s-.2 0-.3 0a.3.3 0 01-.1-.2zM801 98l-.3.3-1-1 1-.6.8.4-.7-.7 1-.5 1 .5-.2.1.7-.4.8.4-.8-1 1-.5 1 .5-.6.6h.1l1 .6-1 1-.8-.7-.6.6.8.5-1 1-.7-.7-.5.6-.8.7-1-1 1-.6-.2-.1zm-224.4 1.4s0 .3.8.2.9-.4.8-.5-.2-.4-.8-.3-1.2.2-.8.6zm78.7-1.8l.5-.2.5 1.8h-1.5l-.6-1 .4 1.3h-1.5l-.8-1.4h.2-1.1l-.6-1h-.2l.5 1.6h-1.5l-.8-1.3 1-.3-.8-1.2 1.7-.5.4 1.3 1.1-.3-.6-1 1.7-.5.4 1.2 1-.3v.1l1.3-.3.5 1.8h-1.4v.1zm-6.6-.2l.5 1.8h-1.4l-.8-1.3zM805.5 99l-1-1 1-.6 1 .6-1 1zm-229.7-.3s0 .2.5.2.5-.3.5-.5-.2-.3-.6-.2-.7.1-.4.5zm69.7-2l.6 1.7h-1.5l-.8-1.3zm91.7 1.1s-.1-.1-.4 0-.1.5 0 .5a.3.3 0 00.3 0c.2-.1.3-.4 0-.5zm60.5.3l-.2-.1v-.1l.2.2zm-144-.4l-.5-1h-.8l.5 1.4 1.2-.4v.2l.9-.3zm7-1.5l.5 1.8h-1.4l-.8-1.3zM806 97l-.9-.9 1-.5 1 .5-.5.6.4-.3 1 .6-1 1-1-1zm-4 .5l.7.4.5-.4-.7-.7-.7.7h-.1l-.5.4.8-.4zm-65.5-.4s-.2-.2-.5 0a.4.4 0 000 .7.3.3 0 00.5 0c.2-.2.3-.5 0-.7zm-156.7.1s0 .3.5.3.5-.3.5-.5-.2-.3-.5-.3-.7.2-.5.5zm67-2l.6 1.8h-1.5l-.9-1.3zm2.2.2l.4 1.6H648l-.7-1.3.9-.3h-.6l-.8-1.3 1.8-.5.5 1.8zm151.4 1l-1-1.2 1-.7 1 .7-1 1.2zm7.1-.1l-1-1 1-.6 1 .6-1 1zm-4.8-.1l-1-1 1-.6 1 .6-1 1zM657.6 94l.5 1.8h-1.5l-.8-1.3zm3.1-.1l.6 1.8h-1.5l-.8-1.3zm144.6 1.7l-1-1 1-.6 1 .6-1 1zm-149.9-2l.5 1.9h-1.5l-.7-1.4zm-4.7-.2l.6 1.8h-1.5l-.8-1.3zM804 95l-1-1 1-.6 1 .6-1 1zm-151-2l.5 1.8H652l-.8-1.3zm145.2 1.2l-.4.4v-.3zm-137-2.1l.5 1.8h-1.5l-.8-1.3zm-4.5-.4l.5 1.8h-1.5l-.8-1.3zm-2.1-.3l.5 1.8h-1.5l-.8-1.3zm-343.2 41a58.7 58.7 0 001-6c.1-2.5 2.5-9 2.7-10.4l1.4-12.3c.4-2.3 1.7-5.7 2.7-6.2a5.4 5.4 0 001.6-1.2s2 .4 2.7 1.5 1.7 0 1.7-1.2a1.6 1.6 0 00-.8-1.4l.2-2 2-.6 2.4.5h2.7l2.4-.2 4.6-.4 1.4.8 1.3-.4c.1 2.4 1.6 4.9 2.9 6.7v.3a2.6 2.6 0 00.5 1.6c.6.6.3 1.3-.5 3.6a34.5 34.5 0 00-1.3 7.6 59 59 0 01-2.8 10.2 30.2 30.2 0 00-.8 3h-4.5l4.4.1c-.4 1.8-.8 3.8-1 5.5-.5 3-1.6 5.3-1.8 7.4s-.8 8.3-2 11-2.3 5.7-3.5 7.7-2 .7-3.7 1.4-.8 1.8-1.6 3.2a4.4 4.4 0 01-3 2.4c-1 .1-1.2.2-1.6 1.8s-1.4 1-2.4 1a10.4 10.4 0 00-2.9.8s2 1-.9 2a61.5 61.5 0 01-11.9 3 70.7 70.7 0 01-9 0c-2.4-.1-3.5 0-6.5-1a.2.2 0 00-.2 0 .1.1 0 00-.1 0c-2-.7-5-2-9.8-4.2l-.7-.3a.3.3 0 000-.1c0-.3-.1-.4-.2-.4a.2.2 0 00-.2 0s-.2 0-.2.2l-.7-.4a.2.2 0 00.2 0s.1 0 .2-.3a.6.6 0 000-.2.3.3 0 00.2 0s0 0 .2-.1c.1 0 .2 0 .2-.3a.6.6 0 000-.1.3.3 0 00-.1-.3.2.2 0 00-.2 0 .3.3 0 00-.3.2.9.9 0 000 .2.5.5 0 000 .3c-.2 0-.3 0-.4.2s0 .4 0 .4a16.7 16.7 0 01-2.2-1.6h.1s.3.2.6-.3a1.6 1.6 0 00.1-.2h.1s.3.2.6-.4a1 1 0 00.1-.2 1 1 0 00.2-.3c0 .3 0 .5.3.6 0 0 .3.2.6-.3a.3.3 0 00.3.1s.2.2.4-.1l.3-.3a.8.8 0 000-.2h.1s.3.2.5-.2a.2.2 0 00.2.1s.2 0 .3-.2 0-.4-.2-.4a.4.4 0 00-.3-.4.5.5 0 00-.2 0 .6.6 0 000-.2s.2 0 .4-.3a1.6 1.6 0 000-.2.4.4 0 00.2-.1c.1.2.3.4.5.2l.1-.2c.1 0 .3 0 .4-.4.3-.5 0-.7-.1-.8h-.1l-.1-.5a.3.3 0 00-.4.2 2 2 0 00.1-.3.3.3 0 00.1 0c.2-.4 0-.6 0-.6h-.1a.2.2 0 00-.3 0 .5.5 0 00-.4.1c-.2 0-.3 0-.3.2v.4a.6.6 0 000 .2s-.3 0-.4.2-.2.5 0 .6l-.4.1-.1.1c-.1 0-.3 0-.5.4a.2.2 0 000-.1c-.2 0-.4 0-.6.3s-.3.8 0 .8a.3.3 0 00.4.5s.3.2.6-.4a.9.9 0 000-.4h.2s.3.2.5-.4a.7.7 0 00.2-.5l.2-.2v.6c-.2 0-.3 0-.4.4s0 .5.2.5a.9.9 0 00-.1.2 1.5 1.5 0 00-.2.3c-.2-.1-.5 0-.7.3a.6.6 0 00-.2-.2c-.2-.1-.4 0-.6.3l-.1-.4c-.1 0-.3 0-.5.3a.3.3 0 000 .1c-.2 0-.4 0-.6.3a1.9 1.9 0 00-.1.3c-.2-.1-.5 0-.6.3a1 1 0 00-.2.7 14.7 14.7 0 01-3.6-5.2s.3.1.4-.5-.3-.7-.5-.8a.3.3 0 00-.3.2 21.4 21.4 0 01-1-8.8.8.8 0 00.3-.3c.3-.5 0-.7-.1-.8a.3.3 0 00.4-.2c.2-.3 0-.5-.2-.6h-.1a19 19 0 01.4-2.1c.7-2.1.7-1.3 2-1.5s1-.9.4-1.4a1.7 1.7 0 010-2.2c.4-.6 1.1-.2 2.8-.2a11.5 11.5 0 013.6.4c1.5.4 6.3 0 8.3.3s4 1 5.5 1.2 5.3.3 4.5 3.5-2.5 7.5 4.2 8.9a6 6 0 003.6-.3 24.1 24.1 0 003.1 3.7s.4-2.2 0-2.5a13.5 13.5 0 01-1.6-2.2c2.3-2 3-6 3.7-7.3a20.6 20.6 0 001-4 29 29 0 017.3.3c-1.6-1.5-4.3-1.9-7-1.8l.3-1.6a31.5 31.5 0 015.9.3c-1.4-1.2-3.5-1.7-5.7-1.7l.1-.9a31.3 31.3 0 014.4.3 7.5 7.5 0 00-4.3-1.6l.2-.9a31.3 31.3 0 013.2.3 6.1 6.1 0 00-2.7-1.3 31.2 31.2 0 015.5.3 8.5 8.5 0 00-5.6-1.8zm56.6 27.3c-2.2 0-2.7.3-3.1 1.6s-1.4 1.6-2.6 3.4l-1.7 2.8a34.2 34.2 0 00-2.2 4.7c-.4 1.1-2.4.5-2.4.5a10.4 10.4 0 00-1.2-.8c-.4-.2-1.3.7-2.3.7s-1.3-.2-3.4-1-1 0-3.5 0-3.2.5-5 .5-2.6-1-4.3-1.8-1.8-1-1.6-2.5c.1-1.4 1-2.6 1.6-3.8h.5l-.2-.6a10.5 10.5 0 011.5-2.8 20 20 0 013.5-4.3c1.5-1.4 1.5-4 2.3-5a40.3 40.3 0 002.4-5.6l5.1-9.8 1.3-.5.7-4.3a24 24 0 012.2-4.4l17.6.8a1.5 1.5 0 00-.2.8c0 1.1.5 1.2.8 1.2s.6-.3.6-1a3 3 0 00-.1-1l1.8.1c-.2.1-.3.4-.3 1a2.5 2.5 0 000 .3.7.7 0 00-.1.1s-.6 0-.6 1 .5 1.2.8 1.2.6-.2.6-1a4 4 0 000-.5h.1c.3 0 .6-.2.6-1a2.5 2.5 0 00-.2-1h1.7a4.2 4.2 0 01-.2.5c-.5.6-.7 2.4-1.2 3.7a35 35 0 01-1.3 2.4c0-.7-.2-1.6-.8-1.2 0 0-.6 0-.6 1s.5 1.3.8 1.3a23.7 23.7 0 01-1.5 2.4c-1 1.2-.9 2.2-1.3 3a12.8 12.8 0 00-.7 3.2l4.6.2-.5.6.8.7v-.1a1 1 0 000 .1c-.1.7-.2 1.7.6 1.4 0 0 .5.2.8-.9v-.4h.2s.5.2.8-.9a3.3 3.3 0 000-.3l3 .1s1.7.9 1.7 1 2.1.9 1.2-1a11.4 11.4 0 01-1.5-4.7v-1.3l.5-.8-.5-.7V136.6l.2.1c.8.8 1.2.6 1.4.4a.6.6 0 00.1-.7v-.1l-.4-.8-.2.2-.1-.2.3-.7-.5-.7-.7.8.4.4a.4.4 0 00-.5 0v-1.1l.3.3.5-.9-.5-.7-.3.2.1-1.2.3.3.4-.9-.5-.7-.1.2v-3l3.3.1a.8.8 0 00-.2.4c-.2.4-.2 1.1.6 1 0 0 .4.3.7-.4a.7.7 0 00.4.1s.6.3.8-.5a1.1 1.1 0 000-.5l17.7.8v.8l1.7.2.7 8.9.9 14.1-.6 9 1.2.2v8.2c0 1.2-.9 1.6-2 1.8s-1.7-.2-3-.6a3.1 3.1 0 00-1.1-.1l-1.3-4-.2 4.3h-.1l-1.1-3.4-.2 3.4h-.3l-1.4-4.4-.2 4.4-1.6-5.3-.3 5a7.3 7.3 0 00-4.5.3c-2 .7-2.1 0-3.8.1l-4.7.4c-1.7.1-1.7-.7-1.7-2.6s-.6-3.5-.6-4.8a15.3 15.3 0 00-.5-4.4c-.4-.8-2.2-.5-3.9-.7a10.2 10.2 0 00-3.4 0 25.7 25.7 0 01-3.5 0zm119 10.2a10.6 10.6 0 01-2.2 1c-.5 0-.6-2.2-.6-2.2a3 3 0 00-.5-1.5c-.4-.6-1.6 0-1.7.5s.3 1.9.3 2.3-1 .2-1.9 0-3.9-.1-4.7-.1a5 5 0 01-2-.3 17 17 0 01.8-3.5 12.2 12.2 0 011-2 11.6 11.6 0 001.2-4c.2-1.6 2-4 3-5.2s1-2.7 2-3.4 1.3-2.6 2.5-4.6l3.5-6a10.2 10.2 0 001-3.2 3.3 3.3 0 01.1-.4l22.3 1a5 5 0 00-.2.7 45.5 45.5 0 01-1.4 4.4c-.4 1-.1.8 1 1.8s1.1 1 2.5 1a9.4 9.4 0 013.5.3 9.8 9.8 0 003.7.4l2.9-.5c2.8 1.5 6.6 3.4 5.8 2.3-.3-.4-2.7-2-4.5-3.8-.3-1.4-.8-4.2-1-6.1l18.2.8 3.8-.8a9.6 9.6 0 01-1.4 2.6c-.7.7-.1 2.3-.1 2.3l-.5 8.7s.2 5.2-.2 5.2-2.2 1.9-2.2 1.9l1.6.2v2.9l.4 9.4-2.5.4a15.4 15.4 0 00-3.3.3 6.6 6.6 0 01-2.9-.2l.7-1.3a6.4 6.4 0 00.9-1.8 1 1 0 00-1.3-1.5c-1 0-.8.7-1.6 1.5a3.2 3.2 0 00-.6 2.4 1.8 1.8 0 01-1.5.6c-1 0-1.7.4-2.4.4a7.4 7.4 0 01-3-.6c-1.6-.5-.7-1-1-2.8s-1.3-2-2.6-3.6-.2-1.4-.2-2.5a9 9 0 00-.8-2.9l-.2-4.3a6.2 6.2 0 00-3-.7 28.6 28.6 0 01-3.9-.5l-2 .6a23.6 23.6 0 01-2.6-.1 6.5 6.5 0 00-3.3.5c-1 .5-1.2 1-1.3 2s-.5 1.3-1.4 2.8-1.4 1-2.5 2a12.8 12.8 0 00-2.4 2.8 17.7 17.7 0 01-1.7 2.9c-.7.9-1 3-1.5 3.2a4.5 4.5 0 01-1.5-.2l-2-.4-1.8-1a12.3 12.3 0 00-1.4-.2zm-200.6 2s.2 0 .3-.3-.1-.4-.2-.4-.3 0-.3.2 0 .5.2.4zm137.8-37.4l26.3 1.1v4.7a1 1 0 000 .5 17 17 0 00-1.2 6 42.1 42.1 0 00.7 8l2.7 2.7-2-6.4 1.4-9.1v-.7a4.8 4.8 0 001-.8c.5-.5.4-2 .4-2.7s.5-1.3 1-2l16.5.7-.3.1c-1.1.5-2 .9-1.6 1.2a1 1 0 001.5 1c1.4-.5 1.7.3 1.3-1a9 9 0 00-.2-1.2h3c-.6 1.6-2.4 5.2-3.6 6.2s-4.3 8.3-5.3 9.3a31.8 31.8 0 00-2.7 3.8s-3.6 7.8-4.4 8.7a47.1 47.1 0 00-3 4.8 30.6 30.6 0 00-3.4.8 10.2 10.2 0 01-4.4 0 6.8 6.8 0 00-2.7.3l-2.3.6-1.8.3-1.6.2-3.2-6.4-1.7 4.6a1.4 1.4 0 01-.9.1 10.2 10.2 0 01-2.3-.7l-1-.5 1.8-7-4.6 5.6c-.3-.2-.2-.3-.2-.3l-.4-8.2-.4-2.2 4 .8s1.4-1.4-.8-2.6a4 4 0 00-3.5.3l-.3-2-.3-5.7-1-5.8-.5-5v-2.1zm-138.2 36s.2.1.4-.2 0-.5 0-.6-.3 0-.5.2-.2.6.1.6zm53.4-2l.4 1.4h-1.2l-.6-1zm-53.9 1v.1c-.2.4-.4.3-.4.3-.3 0-.2-.4-.1-.6s.3-.3.4-.3a1.4 1.4 0 010-.1c.2-.3.4-.3.5-.3s.3.2 0 .6-.4.3-.4.3zm-3.2.3s.1 0 .2-.2-.1-.3-.2-.4-.2 0-.2.2 0 .4.1.4zm4.4-.8c-.2.3-.3.2-.3.2-.3 0-.2-.4 0-.6s.2-.3.3-.2a.2.2 0 01.1 0l.4-.2c.1 0 .3.2 0 .6s-.3.2-.3.2h-.2zm-5.2 0s.2 0 .3-.2-.1-.3-.2-.3-.2 0-.2.2 0 .4.1.3zm-.9-1.5a.2.2 0 01.2 0s.2.1.2.4-.2.3-.2.3a.2.2 0 01-.3 0c-.3 0-.3-.2-.3-.4a.3.3 0 01.3-.3h.1zm6 .7s.1.1.3-.3 0-.5 0-.6-.3 0-.4.3-.3.6 0 .6zm164.4-1.7s0 1.4 1.5 1 1.6.4 1.3-1 0-1.6-1.2-1.1-2.1.9-1.6 1.1zm-171.7.6s.2.1.3-.3a.4.4 0 00-.3-.4c-.1 0-.3 0-.3.2s0 .5.3.5zm1-.2s.2 0 .4-.3 0-.5 0-.6-.3 0-.5.3-.2.6 0 .6zm-4-2.3c.1-.2.3-.3.4-.2a.3.3 0 01.1.1c.2-.2.3-.3.5-.2s.2.2 0 .6-.4.2-.4.2a.2.2 0 01-.2 0c-.2.3-.4.2-.4.2l-.2-.2a.8.8 0 01-.1.2c-.2.4-.4.3-.4.3a.8.8 0 01-.1.5c-.3.5-.6.3-.6.3-.4 0-.4-.3-.3-.5a1.8 1.8 0 010-.3.6.6 0 01.2-.3c-.2 0-.2-.3-.2-.5a.3.3 0 01.4-.2.4.4 0 01.3.5.2.2 0 01.1 0 .9.9 0 010-.2c.2-.2.4-.2.5-.2l.2-.2a.2.2 0 01.2.2zm6.5 1.8s.2 0 .3-.4-.1-.5-.2-.5-.3 0-.4.3 0 .7.3.6zm-3-.6a.4.4 0 010 .2c-.3.4-.4.2-.4.2-.3 0-.2-.3-.1-.6s.3-.2.4-.2a1.4 1.4 0 010-.2c.2-.2.4-.2.5-.2s.3.2 0 .6-.3.2-.3.2zm4.4 0s.2 0 0-.5-.3-.4-.4-.4-.2.2-.1.4.2.7.4.4zm-6.3 0s.3 0 .4-.4-.2-.6-.4-.6-.3 0-.4.3 0 .7.4.7zm3.1-.5c-.2.3-.3.2-.3.2-.3 0-.2-.3 0-.6s.2-.3.3-.2a.3.3 0 01.1.1c.2-.2.3-.3.4-.2s.3.2.1.5-.4.3-.4.3h-.2zm-1.7 0s.2 0 .3-.2-.1-.3-.2-.3-.2 0-.2.2 0 .3.1.3zm3.4-.7s.1.2.4-.2 0-.5 0-.6-.3 0-.5.2-.2.6.1.6zm-4 0s.1 0 .2-.2 0-.3-.2-.4-.2 0-.2.2 0 .4.2.4zm2.2 0s.1 0 .4-.3 0-.5 0-.6-.4 0-.5.3-.3.6 0 .6zm-7.2-1.6c.2-.3.4-.4.5-.3l.1-.3c.2-.3.4-.4.5-.4s.3.2 0 .8v.3c0 .2-.2.3-.2.3-.2 0-.2-.1-.2-.2h-.1a1.1 1.1 0 01-.1.1 1.2 1.2 0 01-.3.4c0 .3-.3.2-.3.2-.4 0-.4-.3-.4-.6s.2-.4.4-.3h.1zm10 .8s.3.2.5-.2 0-.5 0-.6-.3 0-.4.2-.3.6 0 .6zm246.6-3.4s-3.2-1.2-1.5 1 .8 3.5 2.3 1.3 1.8-2 .3-3.6-1.3.1-1.2 1.4zm5.8 3.2zm-48.5-4.6s-2.8.2-1 2.4.1 1.7 1.5-.6 2.7-.2 1.1-1.7-1.7-1.4-1.6-.1zm-204.2 3.6s.2.1.4-.2 0-.6 0-.6-.3 0-.4.2-.3.6 0 .6zm-10.2-1.8c.2-.1.3-.2.4-.1a.9.9 0 010-.2c.2-.2.4-.3.5-.2s.2.2 0 .6a.7.7 0 01.2.4.2.2 0 01.2 0c.1 0 .3.2 0 .6s-.4.2-.4.2c-.2 0-.2-.1-.2-.3l-.2-.4a.5.5 0 010-.2.6.6 0 01-.3.3 1 1 0 010 .2 1 1 0 01-.2.2v.2c0 .4-.3.3-.3.3-.3.1-.3-.2-.3-.4-.3-.2-.1-.6 0-.9s.5-.4.7-.3zm8.5 1s.2.1.3-.1a.2.2 0 00-.1-.4.2.2 0 00-.3.1c-.2.2-.2.4 0 .4zm-5.8-1.6v-.3c0-.1 0-.2.2-.2s.2 0 .1.3v.2s.1.2-.1.7-.5.4-.5.4c-.4 0-.2-.4 0-.7a.8.8 0 01.3-.4zm-4-3.7c.3-.3.4-.3.5-.3s.3.2 0 .7c.2.5 0 .5 0 .5a.2.2 0 01-.3 0h-.1a.3.3 0 010 .3c0 .3-.2.2-.2.2-.3 0-.2-.2-.2-.4a.3.3 0 01-.2 0 1.6 1.6 0 010 .2c0 .2-.2.3-.2.3.1 0 .3.2.4.6a1 1 0 01.1.3c.1-.4.3-.5.4-.5s.3 0 .2.7a1.5 1.5 0 01-.1.2.3.3 0 01.4 0c.1.1.4.3 0 .9s-.5.3-.5.3h-.1a1 1 0 01-.1.2c-.3.5-.6.3-.6.3-.5 0-.3-.5-.2-.8s.5-.4.7-.3l.1-.3c-.2.1-.3-.1-.2-.4a.2.2 0 01-.2 0c-.3.3-.6-.2-.8-.6s0-.6.2-.6v-.6c0-.2.1-.3.2-.3h.1a2 2 0 010-.5c0-.4.3-.5.5-.5a.5.5 0 01.4.3zm5.6 4a.7.7 0 010 .2v.4a.8.8 0 010-.2 1.3 1.3 0 01.2-.3.4.4 0 01-.3-.2zm.7.5zm-3.3-.4c-.2.4-.3.3-.3.3-.4 0-.2-.4-.1-.6s.3-.3.4-.3a.3.3 0 01.1.1l.4-.2c.1 0 .3.2 0 .6s-.3.2-.3.2a.2.2 0 01-.2 0zm-1-1.5c.2-.3.4-.3.6-.3a.5.5 0 01.2.3.2.2 0 01.3 0h.1a.2.2 0 01.2-.2c.1 0 .3.1.2.4s-.2.2-.2.2a.2.2 0 01-.1 0 1.2 1.2 0 01-.1.1c-.2.4-.4.3-.4.3a.2.2 0 01-.1 0c-.3.3-.5.2-.5.2a.4.4 0 01-.3-.1c-.3.4-.6.2-.6.2a.9.9 0 010 .3c-.3.4-.5.3-.5.3-.3 0-.2-.4 0-.6a.4.4 0 01.2-.2 1.1 1.1 0 01.2-.7c.2-.3.4-.3.6-.2a.5.5 0 01.2 0zm9.3 1.3s.2.1.3-.1a.2.2 0 00-.1-.4.2.2 0 00-.3.1c-.1.2-.2.4 0 .4zm-1.9-.1s.2 0 .2-.2l-.1-.3-.3.1c0 .1 0 .4.2.4zm-.7-.8s.2 0 .2-.2l-.2-.3c-.2 0-.1 0-.2.2s0 .4.2.3zm-4-.4s.2.1.3-.2-.1-.4-.2-.4-.3 0-.3.2 0 .5.2.4zm1 0s.3 0 .5-.3 0-.6 0-.6-.4 0-.5.2-.3.6 0 .6zm5-.3s.1.1.3-.1a.2.2 0 00-.1-.4.2.2 0 00-.3.1c-.1.2-.2.4 0 .4zm-9.5-.2a.9.9 0 01-.2-.5c0-.4 0-.6.2-.6s.2-.1.3 0a.4.4 0 01.4 0 1.2 1.2 0 01.2.2c0-.2.1-.2.2-.2s.3 0 .3.4c0 0 .2.1.2.5s-.3.2-.3.2c-.2 0-.2 0-.2-.2a.2.2 0 01-.2 0c-.3.6-.6.4-.6.4a.3.3 0 01-.3-.1zm6.7 0s.1.1.2-.2 0-.4-.2-.4-.2 0-.3.2 0 .5.3.5zm-3.8-1a.8.8 0 01.1-.4c.1-.2.3-.3.4-.2s.3.2 0 .6c0 .2-.2.2-.2.2a.2.2 0 010 .3c-.2.2-.3 0-.3 0-.3 0-.2-.2-.1-.3a.2.2 0 01.1-.1zm-1-.7a1 1 0 01.2-.3c.1-.2.3-.3.4-.2a.9.9 0 010-.2c.2-.2.4-.3.5-.2s.2.2 0 .6-.4.2-.4.2v.2a.7.7 0 01-.2 0 .4.4 0 010 .2c.2.4 0 .4 0 .4-.3.3-.5 0-.5-.3v-.5zm-6 .7s.3.2.6-.4 0-.7-.2-.8-.4 0-.6.3-.3.8.2.9zm10.3-.3s.2.2.4-.2 0-.5 0-.6-.3 0-.4.2-.3.6 0 .6zm-4.1-2.3a.2.2 0 01.2 0c.2 0 .3.2 0 .5l-.3.3h-.2a.2.2 0 01-.2 0l-.2.2a.7.7 0 01-.1.3.3.3 0 010 .1c0 .1.2.2 0 .6s-.5.3-.5.3c-.3 0-.2-.4 0-.6v-.1c-.3 0-.3-.2-.2-.4 0 .5-.2.5-.2.5a.3.3 0 01-.5 0c-.3 0-.3-.2-.2-.4l-.1-.2c-.2-.4 0-.6.1-.6a.6.6 0 01.2 0l.1-.2c.2-.3.4-.4.5-.3s.2.1 0 .5a.2.2 0 01.2 0c.1 0 .2 0 .1.3a.3.3 0 01.2 0 .8.8 0 010-.4c.2-.3.4-.3.5-.2a.3.3 0 01.1 0l.3-.2zm3.3 1.7a.2.2 0 01-.1 0c-.3 0-.2-.3 0-.6s.2-.2.3-.2a.9.9 0 01.1-.2l.4-.2c.1 0 .3.2 0 .6s-.4.2-.4.2v.3l-.1.2h-.2zm-1 0s.1.1.3 0a.2.2 0 00-.2-.5.2.2 0 00-.3.1c0 .2-.1.4.1.5zm-.6-.4c-.2.3-.3.2-.3.2-.4 0-.3-.3-.1-.6s.3-.3.4-.2a.3.3 0 01.1 0c.2-.2.3-.2.4-.1s.3.2 0 .5l-.4.3a.2.2 0 01-.1 0zm-6.3.1s.3.2.6-.3 0-.7-.1-.8-.5-.1-.7.3-.3.8.2.8zm7.4-.3s.1 0 .2-.2 0-.3-.2-.3-.2 0-.2.2 0 .3.2.3zm2-.3c-.1.4-.3.3-.3.3-.3 0-.2-.4 0-.6s.2-.3.3-.3a.3.3 0 01.2.1c0-.2.3-.2.4-.2s.2.2 0 .6-.4.2-.4.2a.2.2 0 01-.2 0zm-3-1.1a.2.2 0 01.2-.1c.1 0 .3 0 .2.4s-.2.2-.2.2c-.2.4-.4.3-.4.3-.3 0-.2-.4 0-.6v-.1a.2.2 0 01.2-.1zm-5.1.8s.2.1.4-.3 0-.5 0-.5-.3 0-.5.2-.2.6.1.6zm8-.5s.2.2.4-.2 0-.5 0-.6-.4 0-.5.3-.2.5 0 .5zm-8.6-1.2c-.3 0-.2-.3 0-.5l.3-.2a.3.3 0 010 .4.2.2 0 01.3 0c.1 0 .2.1 0 .5v.2a.9.9 0 01-.2.5c-.3.5-.6.3-.6.3-.5 0-.4-.5-.2-.9a.6.6 0 01.4-.3zm3.3.5a1.1 1.1 0 010-.3c.2-.3.4-.3.5-.3s.3.2 0 .6v.1a.8.8 0 01-.1.3c-.2.4-.4.3-.4.3-.3 0-.2-.4-.1-.6v-.1zm-5.3.6s.3 0 0-.7-.5-.6-.7-.6-.3.3-.1.7.4.9.7.6zm3.7-1a.3.3 0 01-.2 0c-.5 0-.4-.6-.2-1s.4-.3.6-.2.4.3.2.7a.2.2 0 01.2 0s.2.2 0 .8-.5.4-.5.4a.2.2 0 01-.1 0 .5.5 0 010 .2c-.1.2-.3 0-.3 0-.3 0-.2-.2-.1-.3a.2.2 0 01.3-.1 1.4 1.4 0 01.2-.5zm-3 .7s.2.3.5-.3 0-.7-.1-.8-.5 0-.7.3-.3.8.2.8zm6.8-.7s.1.1.3-.3.1-.5 0-.5-.2 0-.4.2-.3.6 0 .6zm110.1-.3s.4 0 .4-.7-.4-.7-.6-.6-.5.1-.5.6.2 1 .7.7zm-117-.2s0 .1.2 0a.3.3 0 00-.1-.5.2.2 0 00-.3.1c-.1.2-.2.4 0 .4zm6.4-1c0-.3.2-.4.4-.3s.2.2 0 .6c-.1.2-.2.2-.3.2 0 .4-.3.3-.3.3-.2.2-.3 0-.3 0-.3 0-.2-.2 0-.5a.5.5 0 01.1-.2.2.2 0 01.3-.2zm-5.5.7s.3.1.3-.3 0-.5-.2-.5-.3 0-.3.3 0 .7.2.6zm3.5 0s.2 0 .1-.5-.3-.4-.4-.4-.2.2-.2.5.3.6.5.4zm3-1.3a.2.2 0 01.1 0 .3.3 0 01.1 0c.2-.2.3-.2.5-.2s.2.2 0 .6-.4.3-.4.3h-.1a.1.1 0 01-.1 0 .2.2 0 01-.2.1.1.1 0 01-.2 0c-.2 0-.2-.2-.1-.4l.1-.5a.3.3 0 01.3 0zm-5.6-.1a1.4 1.4 0 01.2-.5c.2-.4.4-.4.6-.3a.4.4 0 01.3.4c0-.2.2-.2.3-.2.1-.2.2-.2.3-.1s.3.1.1.4-.2.3-.3.3c-.2.4-.4.3-.4.3-.1 0-.2 0-.2-.2a.5.5 0 01-.3.3l-.1.4c-.3.2-.4-.1-.5-.4s0-.4 0-.4zm2.8.6s.2.1.3-.1a.2.2 0 00-.1-.4.2.2 0 00-.3.1c0 .2-.1.4.1.4zm110.1 0s.4 0 .4-.7-.4-.7-.6-.7-.5.2-.4.6.1 1 .6.7zm-115.4-1.6c-.4 0-.4-.4-.2-.6a.3.3 0 01.4 0c.2 0 .4.2.2.5 0 .2.3.3.1.6a.3.3 0 01-.4.2.5.5 0 01-.2 0 .9.9 0 01-.1.3c-.3.6-.6.3-.6.3-.5 0-.4-.5-.2-.8s.5-.4.6-.3a1.1 1.1 0 01.2.1.6.6 0 010-.2.3.3 0 01.2-.1zm2.1 1.3s.2.1.3 0a.3.3 0 00-.1-.5.2.2 0 00-.3.1c-.1.2-.1.4.1.4zm6-.4s.1.2.3-.2.1-.5 0-.6-.3 0-.4.2-.3.6 0 .6zm-1.4 0s.2 0 .4-.3.1-.5 0-.6-.2 0-.4.2-.3.6.1.6zm-5.3-.2s.2.2.4-.2 0-.5 0-.6-.2 0-.4.3-.2.5 0 .5zm3.2-.7v-.3a.2.2 0 01.3-.2v.1c.2 0 .3.2 0 .6s-.3.3-.3.3c-.3 0-.3-.3-.1-.5zm121.4-1.2s-.4 0-.4.6.4.7.7.7a.5.5 0 00.5-.6c0-.4-.1-1-.8-.7zm-13.2 1.2s.5 0 .4-.8-.4-.9-.7-.9-.5.3-.5.8.2 1.2.8.9zm-105 0s.2.1.4-.3 0-.5 0-.5-.3 0-.5.2-.2.6.1.6zm-5.3 0s.2 0 .4-.3 0-.5 0-.6-.3 0-.5.2-.2.6 0 .6zm-1-.2s.2 0 .3-.1a.3.3 0 00-.1-.4.2.2 0 00-.3 0c-.1.2-.2.4 0 .4zm2.6-.7a.7.7 0 010-.5c0-.3.1-.4.3-.4a.3.3 0 01.2.2c.2 0 .3.2.1.6s-.4.2-.4.2l-.2-.1zm-.5 0s.1 0 .3-.3 0-.4 0-.5-.2 0-.4.2-.2.5 0 .5zm3.9-.3s.2.1.4-.3 0-.5 0-.5-.4 0-.5.2-.2.6 0 .6zm-5.4-.7c-.2-.2-.1-.4 0-.6a.3.3 0 01.4 0c.2 0 .4.2.2.5a.3.3 0 01.2.3c-.2.3-.3.2-.3.2-.2.3-.4.2-.4.2-.3 0-.2-.3 0-.6zm3.5-.4a.6.6 0 010-.1.2.2 0 01.3-.1.3.3 0 01.1.4c-.1.2-.3 0-.3 0 .2.5 0 .5 0 .5-.3.3-.4 0-.5-.3s0-.5.1-.5a.3.3 0 01.3 0zm-5.2.2s.2.1.3-.1a.3.3 0 000-.4.2.2 0 00-.4.1c0 .2-.1.4.1.4zm3.6-.9c-.1 0 0-.2 0-.4a.2.2 0 01.3 0 .2.2 0 01.2 0s.2.1 0 .5-.4.3-.4.3c-.2 0-.2-.2-.1-.4zm118.8-1s-.5 0-.5.6.4.7.7.7a.5.5 0 00.5-.6c0-.4-.1-1-.7-.7zm-12 1.1s.6.2.8-.9-.2-1.3-.5-1.4-.6.2-.8.9-.2 1.6.6 1.4zm-105.6-.5s.2.1.4-.3 0-.5 0-.6-.3 0-.4.3-.3.6 0 .6zm2 0s.2 0 .3-.1a.2.2 0 000-.4.2.2 0 00-.4 0c0 .2 0 .4.2.4zm-5.3-.1s.2.1.3-.1a.3.3 0 000-.4.2.2 0 00-.4.1c0 .1 0 .3.2.4zm-.8-.7a.3.3 0 00.4-.2c.2-.3 0-.4-.2-.5a.3.3 0 00-.4 0c-.1.3-.2.6.3.6zm2.4-.3s.1 0 .3-.1a.2.2 0 00-.2-.4.2.2 0 00-.3 0c0 .2 0 .4.2.4zm1.4-.1s.1.1.3-.3.1-.5 0-.5-.3 0-.4.2-.2.6.1.6zm1.7-.4s.2.1.3-.1a.2.2 0 00-.1-.4.2.2 0 00-.3.1c0 .1 0 .3.2.4zm-5.3 0s.2 0 .3-.2a.2.2 0 00-.1-.4.2.2 0 00-.3.1c0 .1-.1.3.2.4zm1.8-.4s.2 0 .3-.1a.2.2 0 00-.1-.4.2.2 0 00-.3 0c0 .2-.1.4.2.4zm104.6-1h.9a3 3 0 00-.1.4.5.5 0 00-.6.2v-.2l-.2-.5zm12-2.4s-.6 0-.6 1 .5 1.2.8 1.2.6-.2.6-1-.1-1.6-.8-1.2zm-115 2s.1 0 .2-.2a.3.3 0 000-.3.2.2 0 00-.4 0c0 .2 0 .4.2.4zM467 142s0 1.4 1.5 1 1.6.4 1.3-1 0-1.6-1.2-1-2.1.8-1.6 1zm-73.4-.6s-.4 0-.4.6.4.7.6.7a.5.5 0 00.6-.6c0-.4-.1-1-.8-.7zm-120.4.6s.2.1.3 0a.2.2 0 000-.5.2.2 0 00-.4.1c0 .2-.1.4.2.4zm113.4-2.6s-.6-.1-.6 1 .5 1.2.8 1.2.7-.3.7-1-.2-1.6-1-1.2zm-17 .3s.5 0 .3-1-.6-1.2-.9-1.2-.6.3-.5 1 .4 1.7 1 1.2zm19-.9l.7-.8.5.7-.5.8-.8-.7zm-4-8c-.5-.2-.5-.7-.3-1.2a.6.6 0 01.8-.4l.2-.4a.6.6 0 01.8-.4c.3 0 .7.3.5 1s-.8.5-.8.5h-.2a1.3 1.3 0 010 .3 1.9 1.9 0 01-.1.3l.2.2-.2.3.7-.8.5.8-.3.6.3-.3.1.1a1.2 1.2 0 010-.7.6.6 0 01.9-.5.7.7 0 01.5.5l.5.6-.5.8-.5-.3a.5.5 0 01-.3 0 .7.7 0 01-.4-.2l.2.4-.4.8-.8-.6a2 2 0 01.8 1.1 1.2 1.2 0 010 .2l.1-.1.5.7-.4.8.3.5-.3.6.7-.7.5.7a.4.4 0 01.5.3l.4.6-.2.4c0 .6-.2 1-.4 1l.1.3-.4.8-.8-.7.4-.4a.5.5 0 01-.2-.2l-.1.3-.4-.4.2.3-.5.8-.8-.7.8-.8.6-.8v.1a1.3 1.3 0 010-.3l-.1-.1-.4.8-.9-.7.6-.6-.6-.5-.3.7-.8-.7.5-.6-.5-.4v-.1l-.6-.5.8-.9v.1a1 1 0 010-.4l-.1-.2-.4.7-.8-.7.7-.8.4.5.6-.7.4.6.3-.4-.8-.7-.3.5-.8-.7.2-.1zm4.3 6.7l.8-.8.5.7-.5.8-.8-.7zm-3.8-.2l.8-.9.5.8-.5.8-.8-.7zM522 132l23.8.3v3.5a5 5 0 01-.1 1.7L523 137v-.1c0-1-.7-3-1-4.8zm-149.6 5.1s.5-.2-.1-1.1-1-.8-1.3-.7-.4.6 0 1.2 1 1.4 1.4.6zm21.7-.1s.4 0 .4-.4a.6.6 0 00-.6-.6c-.2 0-.4 0-.4.4s.1.7.6.6zm-5.7-1.1l.8-.8.5.7-.4.8-.9-.7zm103.9-4.4l21.8.3a17.9 17.9 0 00-1.2 2.6 18.1 18.1 0 01-1 2.1l-22.3-.6a5.9 5.9 0 001-1.5 23.9 23.9 0 011.7-3zm-100.3 4.2s.4 0 .3-.4a.6.6 0 00-.6-.6c-.2 0-.4 0-.4.4s.2.7.7.6zm-24-.1s.6.2.8-1-.2-1.2-.5-1.3-.7.1-.8.8-.2 1.7.5 1.5zm89.2-4.7l20 .3c-.8 1.4-1.7 3.3-2 4.3l-20.1-.5c.5-1 .7-3 1.2-4.1zm-69.8 3.9l.7-.9.5.8-.4.8zm-.8-.3a.7.7 0 01-.3 0l-.3.4.3.4.6-.7zm36.7-5l27.6 1.1a3 3 0 01.3 1.1c.1 1-.5 1.3-.5 1.3v1.9l-26.4-.7V131l-1-.8v-.7zM389 133l-.6-.5.7-.9.5.8-.3.6a.6.6 0 01.4.4l.5.8-.4.8-.7-.6-.1.3-.8-.7.4-.5a.4.4 0 01.4-.5zm-2 .1l1-.8.6.7-.5.8zm-13-2.5a.4.4 0 01.3 0c.7-.5.9.4.9 1.2s-.3 1-.6 1a.8.8 0 01-.4-.1c0 .8-.3 1-.7 1s-.7 0-.7-1.2.5-1 .5-1l.2-.1-.3-.3.7-.8zm-4 2.2s.5.2.8-.9-.2-1.3-.5-1.4-.7.2-.8.9-.3 1.7.5 1.4zm147.2-40a1.7 1.7 0 01.7 0h2.9l3.7-.3 2.8.2 1.4.5 1.6-.3h2l1-.1c-.7 2.1-3 8.3-1.8 7.2.4-.5 2.7-5.4 4.4-6.6l.3.3 1.4-.4-1.2 3.8-.2.3.1.1c-.1.8-.1 1.2.2.8a2.3 2.3 0 00.3-.4l.2.2.4-.8-.1-.2.8.7.4-.9-.5-.7-.7.8 1.6-2.8a2.3 2.3 0 001.1.3c1 0 1 .4 1.2 1l-.4.5.1-.3-.5-.7-.7.8.8.7.3-.5.7.7-.3.3-.4-.5-.6.7-.3-.6-.8.9.8.7.4-.7.6.5.4-.8V97l.7.6.4-.8-.3-.5a1.4 1.4 0 00.5-.1h-.1l1 .8.5-.9-.5-.5.3-.3.5 1.1-.7.8.8.7.3-.6.2.4v.5l-.3.3-.5-.6-.7.8.8.7.2-.3.5.5v1l-.5-.7-.7.8.8.7.4-.7v1l-.6.7.5.4v.3l-.2-.3-.7.9.8.7v-.2 3.6l1 .5V132l-23.8-.6a10.3 10.3 0 01-.2-1.8c0-1.9 0-2.3-.2-4a9.5 9.5 0 00-.9-2.9c-.1-2.7-.5-7.1-1-6-.1.5-.3 3.6-.7 5.8a3.3 3.3 0 00-1.3 1 5.1 5.1 0 00-.3 2.2 9.5 9.5 0 01-1.6 3.8l-1 1.6-21.6-.6a6.3 6.3 0 00.5-1.2 44.3 44.3 0 012-6 47.4 47.4 0 013.3-4.8l1-1.5 2.4.1 2.4-.7-.3-3.1-.9-2.2c.5-1 1.1-2 1.9-3.1 1.3-2 2.7-4.2 3.3-4.3s1.2-.8 1.2-1.2a4.9 4.9 0 01.7-2.7c.6-.8.8-1.4 1.3-2.2s.2-1.5 1-2.3c.5-.6.8-.4 1.2-.2.3 2.5 1 8.1 1.4 6.8.2-.7.1-6.9 1.4-8 .4-.4.5-.7.5-.9zm-148.8 37.3s.5.2.7-.9-.2-1.3-.5-1.4-.6.2-.8.9-.2 1.6.5 1.4zm88.7-.8a4.6 4.6 0 00.2-1.7 20 20 0 01.4-3.9c.2-1.2 2-2.2 2.8-3.6a36.5 36.5 0 001.8-3.8l1.6-3.8c.4-1.2 1.1-.9 2.1-1.5s.6-1.1.8-2 2-3.8 2.1-4.4l.8-2.3a2.8 2.8 0 011.4-1.8c.8-.3 1-1.3 1.3-2.3a7.9 7.9 0 00.6-2.5c0-.7-.3-1.3.2-2s2.2-.8 2.2-.8l2.5-1h2.5a22 22 0 002.9.3 6.2 6.2 0 003-.8c.9-.5 1.2-.2 2-.6s3.4 0 4.6 0a6.5 6.5 0 013 .6 24.1 24.1 0 012.6 2.5l-.9 1.6a19.3 19.3 0 01-2.5 3.7c-1.1 1.2-2.3 4.4-3 5.4a27.2 27.2 0 00-2.4 5 5.8 5.8 0 01-1.5 2.3c-.8.8-.8 1.8-1.2 3l-1.3 3.3c-.5 1.5-1.2 2-1.4 2.4a5.7 5.7 0 01-1.6 2.8 6.7 6.7 0 00-2.3 2.6 35 35 0 01-2.5 3.9l-20.7-.6zm-93.5 0s.4.2.6-.5-.3-.7-.5-.8a.5.5 0 00-.7.5c-.1.4-.1 1 .6.8zm58.6-14.3v-1.3l-.7-3.2-.4-5.8-.3-5a15 15 0 002.5-.8c.6-.4.4-1.5.4-1.5a15.2 15.2 0 00-2.5-.8c-.8-.1-.5-.7-.5-.7l4.6-.2 1-.5 3.7-.1c1.2 0 1.9-.4 3.6-.8s1.7-1 2.3-1.3a1.8 1.8 0 012.1.8c.2.6 1.1.6 2.3.7a1.8 1.8 0 001.2-.3l-.6 4.5 2.3 6.2 4 1.3-3.8-4.8-1.2-8 5.9.1s0 3.6.6 4.2-.2 1.4-.4 2.6.4 1.7.3 3.1a11.5 11.5 0 01-.3 2.7c-.3 1.2 0 1.4.2 2.9a10 10 0 00.9 2.7l.3 9.4 1 1-.3 7-27-.8v-.8l-.5-1.7-.2-5.2-.3-1.2v-1.6c1.2 3.5 2.9 6.7 2.9 5.3a5.5 5.5 0 01.4-2.7l-3.5-5.4zm-58.7-3c1.5-2.7 3.3-6 4-7 1-1.7 4-8 4.3-8.7s2-2.8 3-3a5.8 5.8 0 012 0l2-1.8 3.3-.8V92l4.6-.7-.3 1.8L395 92v.7c-2 .4-3.8 1-3.6 1.7.2 1 2 .1 4.3-.9l8.3-.3c-1.3.7 0 1.6.3 2.8l-1.2 5.7 2.7-4.4v.1l-.6 8 1 1.1.3 5.7 1 3.2a14.5 14.5 0 010 3.3l-.5 9.1-19.3-.6a1.2 1.2 0 00.2-.2c.2-.7-.2-1-.5-1a.6.6 0 00-.8.4 1.2 1.2 0 000 .8h-2.9l-1.4-3.3.8.7.4-.8-.5-.7-.7.8a3.9 3.9 0 00-1.4-.3l-.2-.2-.3.4a.5.5 0 00-.1 0v.1l-.3.4h.1l-1 2.7H377v-.2l-.4-.8-.8.9-20-.6c2.4-4.2 5.8-9.7 6.3-11l.8-2 5-.2-4.3-1.2zm7.6 12.8s-.5 0-.3.9.6.7.9.6.5-.3.3-.8-.4-1.2-1-.7zm14.6.7l.7-.9.5.8-.4.8zm-1.1-.1l.7-.9.5.8-.4.8-.8-.7zm-6.6-.4l.7-.8.5.7-.4.8-.8-.7zm6-.8l.6-.8.5.7-.5.9-.4-.4.2.3-.4.8-.8-.7.7-.9zm-15.9-.4s-.4 0-.2.6.5.6.7.6.4-.3.3-.7-.3-.9-.8-.5zm18 .3l.7-.9.5.8-.4.8zm-20.4 0a1 1 0 01-.2-.5c-.2-.6.2-.7.2-.7.4-.3.6 0 .7.4.3 0 .7.3.5.9s-.6.5-.6.5c-.5 0-.6-.3-.6-.6zm11.5.4s.6.1.4-.7-.5-1-.9-1-.5.2-.5.7.4 1.3 1 1zm7.8-1l.8-.8.5.7-.5.8zm-2.1-3.3l-.2-.2.7-.8.5.7-.3.6.5-.6.5.7-.4.9v-.1l.3.5-.3.6v.1l.7-.7.5.7-.4.8-.5-.4-.4.9-.8-.7.5-.6-.5-.5-.3.6-.9-.7.5-.5-.5-.5h.1l-.6-.6.7-.8.5.7zm-1.6 2.6l.7-.8.5.7-.4.9zm-1.2-.1c0 .3-.2.4-.2.4-.4.4-1-.1-1.4-.7s-.3-.7 0-.8.7-.1 1.3.6l.2.3.7-.8.5.8-.4.8zm5.4-.3l.8-.8.5.7-.5.9-.8-.8zm-6.1-1l.7-.8.5.7-.4.9-.8-.8zm1.5 0l.7-.8.5.7-.4.8zm3.5 0l.8-.8.5.7-.4.8-.9-.7zm-1-.4l-.3.6.3.4.6-.7-.6-.5-.4-.4.4.6zm3.1-.7l.4-.4.5.8-.5.8-.6-.6-.2.3-.8-.7.8-.8.4.6zm-10.8 1s.5.3.7-.5-.1-1-.4-1a.6.6 0 00-.9.5c-.1.5-.2 1.1.6 1zm-12 0s.5 0 .7-.6-.3-.8-.5-.8a.5.5 0 00-.7.4c-.1.5-.1 1 .6 1zm16.6-1l.8-.9.5.8-.5.8zm4-.7l.8-.8.6.7-.5.8zm-1.6-2l-.3.5-.8-.7.8-.8.5.7-.2.3.7-.8.5.7-.3.6.3-.3.5.7-.4.9-.8-.7v.1l-.3.8-.6-.5-.4.7-.8-.7.7-.9.4.6.6-.7.4.5.3-.3-.8-.7zm-4.3 1.7a.5.5 0 01-.7.3c-.7 0-.7-.6-.5-1.1a.6.6 0 01.8-.5.7.7 0 01.5.6l.3-.4.5.8-.4.8-.5-.5zm7.1-.4l.8-.8.5.7-.4.8zm-6.3-.2l.7-.9.5.8-.4.8-.8-.7zm5.2-.7l1-.9.5.7-.5.9zm-4 0l.7-.9.5.7-.4.9zm-4.3-.6s.5.2.8-.5-.2-1-.5-1a.6.6 0 00-.8.4c-.2.5-.2 1.2.5 1.1zm-4.7-1.3a.4.4 0 00.6-.3c.2-.4-.2-.6-.5-.6s-.5-.1-.6.2 0 .7.5.7zm131.5-1.3l-2.5.8 1.9-3 .3-.5.3 2.8zm-128.7-1.5a.4.4 0 00.6-.3c.1-.4-.3-.6-.5-.7s-.6 0-.7.3 0 .6.6.7zm102.3-5.3l-3 2.3 3 1a3.2 3.2 0 000-3.3zm-104.8 2.5a.4.4 0 00.6-.3c0-.4-.3-.6-.6-.7s-.5 0-.6.3 0 .6.6.7zm159.5-1l.7-.9.5.8-.4.8zm-140-4l.8 3.3 1.8-2zm142.5-.4l.8-.8.5.7-.4.8-.9-.7zm8.9-1.5l.7-.9.5.7-.4.9-.8-.7zm-6.5-.3l.7-.9.5.8-.4.8-.8-.7zm5.9-.9l.6-.7.5.7-.4.8-.4-.3.2.2-.4.9-.9-.7.8-.9zm-4 0l.7-.8.5.8-.4.8-.8-.7zm2.3-.3l.7-.8.5.7-.4.8-.8-.7zm2.7-.3l.7-.8.5.7-.4.8-.8-.7zm-2.1-3.3l-.3-.2.8-.8.5.7-.3.6.5-.6.5.8-.4.8-.1-.1.4.6-.3.6.7-.7.5.7-.4.8-.5-.4-.4.9-.8-.7.5-.6-.5-.5-.4.7-.8-.7.5-.6-.5-.5-.6-.5.7-.9.5.7zm-1.6 2.7l.7-.9.5.8-.4.8-.8-.7zm-1.4-.3l.8-.8.5.7-.5.8-.8-.7zm-.5-1.1l.7-.9.5.8-.4.8zm1.4 0l.8-.9.5.8-.4.8-.9-.7zm3.6 0l.8-1 .5.8-.4.8-.9-.7zm-1-.5l-.3.6.3.4.6-.7-.6-.5-.4-.4.4.6zm-3-.7l.7-.9.5.8-.5.8-.8-.7zm3.8-.7l.9-.8.6.7-.5.8zm-199.8-5.7l1-.6h2c.5 0 1 2 1 2l-.6 3.5-.7.4a45 45 0 01-2.7-5.3zm196 4l.7-.8.5.7-.4.8-.8-.7zm3.3.1l-.1.1zM44.2 137.4h-9.5v-21H32l-.7-13 10.9.5-.8 18.4 2.3 1.3 12.7-19 15.7.6v15.3l3 2 11-16.6 9 .3-19 31.3h-9.7v-18.8h-2.2l-1.3-6.4zm77 1.5h-7.8v-6.2l1.2-1.3v-6.3h1.8v-2.5l9.2.5v5.6h-2.5v5.9h-2v4.3zm44.5-3.3h-7.1v-5.7l9.4.1v.6l-2.1.4zm49.1-2h-7.7V124l2-.1v-6.8h2.5v-7.8h1.7V107l7.4.1v1.3h28.8v-.8h7.6v5.8l-1.5.2v7H253v6.6h-2v6.4h-7.8V123h2l-.1-5.7h2V114h-28.3v6.1h-1.6v6.8h-2.4zm-45.1-17.7v6.7l-1.7.4v4.7l-9.4-.3v-.5l1.5-.3v-7.3h1.8v-6.1l2.6-.7V105l2.5.2v-4.8l7.4.4v7.4l-1.8.4v7.3zm-53.3 2.6V117h2v-7.2h2v-6.5h2.1V97h8.5v9.4l-1.7.2v6.3l-2 .2v5.6l-11-.3zM87 104.3l5.6-8.4h6.5v3.4l-3.1 5.3zm-14.9-.4l-15-.5 5-7.4h10zm-29.9-.9l-11-.3-.3-6.8h11.6zm219.4-4.5H260v6.5l-10.5-.3v-3.2h1.8v-5.9h1.5v-3.2h9v6.1zm-36.2.3h-3.2v5l-9-.2V102h1.9v-6.5h2.5l-.1-3.5h7.7l.2 6.9zM194 98l-43.6-1.3v-3.1h43.7l-.1 4.4zm462.6-18.8l.2.7 2.1 3a17.7 17.7 0 011.6 2 7 7 0 01-3.4-1 2.5 2.5 0 00-1.3-.6 12.7 12.7 0 00.6-3.6 1.3 1.3 0 01.2-.5zM629 14.7l.1 2-1.1 1.2 1.2-.8v1.5l.4-1.7 2.4-1.6V15l.2.9-3 3.2 3.3-2v.2l-3.1 2 3.4-1.1.1.6-4.3 3L633 20v-.3l2.3 9.3V33l.4 3.9 1.5 2-.5-1.7-.4-4.5c.6.6 2-.1 2-.1l11.2-18a111.6 111.6 0 0112.3.5.7.7 0 00.3 1.2 1 1 0 00.1.1.8.8 0 00.3 1.3 1 1 0 00.2.1.5.5 0 00-.2.2.7.7 0 000 1.3 1.3 1.3 0 00-.3.3s-.2 0-.3.2a1 1 0 00-.3.4 5.4 5.4 0 00-.1-.9c.1 0 .3 0 .3-.4-.1-.8-.2-1.5-.7-1a.7.7 0 00-.1 1.1l-.1.1a.8.8 0 00.2 1.4.8.8 0 00.2.1.8.8 0 00.2 1.3s.2.2.4.2.4 0 .3-.5v-.3c.2 0 .4.1.4-.4v-.2s.7.5.6-.3a4.6 4.6 0 00-.1-.9s.2 0 .1-.4c0-.6 0-1-.3-1.2.1 0 .2-.2.1-.5 0-.6 0-1.1-.3-1.2V16a5.4 5.4 0 00-.2-.8h.4c-.2.4 0 .8.5 1 0 0 .5.6.5-.2a4.6 4.6 0 00-.1-.8l6.1.8-.8 1.1c0-.5-.2-.8-.6-.4a1.4 1.4 0 00-.2.3l-.4.1a1.1 1.1 0 00-.3.5v-.2c0-.8-.2-1.5-.7-1a.8.8 0 00.2 1.4.9.9 0 00.2.1.8.8 0 00.2 1.4l-.4.6c-.1-.3-.3-.5-.6-.2a.7.7 0 00-.1 1.1l-.1.2c-.1-.2-.3-.3-.5 0a.8.8 0 00-.2 1c-6.5 8.9-18.2 24.8-18.8 26-.8 1.6 0 3-.2 4.9s.3 1.6.9 3 1.2 1.4 2.1 3.1a34.4 34.4 0 012.3 5.3c.4 1.3 2 2.5 2 4.1s.5 3.6.5 3.6l1.8 5.9a1.3 1.3 0 00-.9.5c-.4.7-.3 1.4-.3 4a3 3 0 01-.1.9h-2.2a23.6 23.6 0 01-6.2-1.4l-11.5-.1 1.5-1.1.3-2-1.9 2.8-3.4-15.6c-.4-2.1-2-1.4-2-1.4s-10.2 15.9-11 16.5c-.6.4-1.6 0-2.2-.3a20.3 20.3 0 00.9-3.1c0-.7.4-1.2-.3-1.2s-1.1 1.3-1.1 1.3v2.7l-17.2-.3 21.8-30.7v-.7c1.8 0 3.7-1.1 3-1.2a10 10 0 00-3 .8l-.1-1-4.8-17.2-6-15.5 19.4.2zm-75.8.3a18 18 0 012.6-.1 115 115 0 0021 4.8 3.2 3.2 0 012.1.9l-1 1.2 1.2-.4v-.5a2.1 2.1 0 01.2.6l-1.7 1.1 1.7-.6v.4l-.8.5 1 .2 1 6.9s-1.8 1.9-1.8 2.6v5.1s-8.8 1-10.3 1-4.2-2.6-4.2-2.6v-2.3s0-3-4-4.2c-1.6-1.9-2.3-3.3-3.4-4.5l2 4.1c-4.5-.6-6 3.8-6.8 6s7.6 6.3 15 9.4 11.7 7 10.3 20.5-17 16.3-19.6 16.7-9.5-.2-11.7-.7-3-.4-8.1-.9a9.8 9.8 0 01-7.3-4.2 29 29 0 01-1.5-3.3 4 4 0 01-.2-1.6l2.5-1H529l3-1.3h-2.8v-.5l.2.2 3.3-1.3h-3.5c-.2-2.2-1.2-6.9-1.2-6.9l16.7.1.1 3.6c.1 2.3 3 3.5 6.8 3.9s5.3-1.9 6.5-4.2a2.8 2.8 0 00.3-1.6c1.6-.5 2.8-.7 4-1.2l-4.2.4a6.8 6.8 0 00-3.2-3c-1.8-1-13.9-7.4-15.1-8.3s-1.7-1.6-3-4.2a12.6 12.6 0 00-2.2-3.2h.2c-.2-3.1.2-5 0-6.8l-1.3 5.8-.5-.4s.1-4.8.4-7.8-.3-3.9 6-11.5a18.9 18.9 0 016.4-4.9 1.2 1.2 0 010 .1c-.2.6 0 1 .8.8h.2c-.2.5.1.8.8.7a1 1 0 00.2 0 .5.5 0 000 .2c-.3.6 0 1 .7.8 0 0 .8 0 .3-.5-.3-.3-.6-.6-.8-.6l-.1-.3c-.4-.4-.7-.7-1-.6a1.1 1.1 0 000-.1 2.4 2.4 0 00-.8-.6l.7-.2c-.2.4.2.7.8.6 0 0 .7 0 .3-.5a3.7 3.7 0 00-.5-.4l1-.3a.8.8 0 00-.2.1c-.1.6.2 1 .9.8 0 0 .5 0 .3-.3a.9.9 0 00.8.1s.7 0 .2-.5-.9-.8-1-.3a.7.7 0 000 .6 2 2 0 00-.8-.6l2-.5c-.1.5.2.8.9.7a.8.8 0 00.2 0c-.1.6.2.9.8.8 0 0 .8 0 .3-.5l-.2-.3s.8 0 .3-.5.7 0 .3-.6zm148.5 56.5l-.3 1.7L697 81c-.6 1.2 1 3 1 3a4.2 4.2 0 01-2.3-.5c-.6-.6-.2-2.2-.2-2.2l-2 2.1.3-1-.9-1-.3.4-1.4-4a38.9 38.9 0 000 4.8 1.3 1.3 0 01.2.3 3.1 3.1 0 01-.8.5c-.8.3-4 0-2.6-.5s1.1-1.1 1.1-1.1h-2.3l-.7-2-1.4 1.5-3.8-.1-.1-1.2c.7-.3 2.2-1 1.7-2.2-.4-.8-.7-1-1.2-1l21.6-48.5c.3.2.6.2 1-.1 0 0 .6-.4 0-.6a3.5 3.5 0 00-.6-.1l.2-.4a1.2 1.2 0 00.6-.3l.1-.1c.2.5.6.6 1.1.2a1 1 0 00.2-.2.4.4 0 000 .2c.2.6.6.7 1.2.3 0 0 .6-.4 0-.6-.5 0-1-.2-1 0 0-.1 0-.2-.3-.3-.5-.1-1-.2-1.1 0H703.9V26a1 1 0 00.7-.3s.6-.3 0-.5h-.2l.2-.7c.2.6.6.6 1.1.2 0 0 .6-.3.2-.5a.8.8 0 00.7-.2s.7-.4 0-.6-1.2-.3-1.1.3a.7.7 0 00.3.5 2.4 2.4 0 00-.9-.2l3-6.9h.3a1 1 0 00.2 0c-.3.5 0 .9.6 1a.9.9 0 00.3 0 .5.5 0 00-.2 0c-.3.6 0 1 .7 1 0 0 .7.3.4-.3-.3-.4-.5-.8-.7-.8v-.4c-.3-.4-.6-.8-.8-.8a.8.8 0 00-.1-.1l-.2-.4V16h.2c0 .4.2.6.8.7 0 0 .7.2.4-.4l-.2-.3h.4c-.1.4.2.7.8.7 0 0 .5.2.4-.2a.9.9 0 00.7.3s.7.1.4-.4l-.2-.4h.4c.1.3.4.4.8.5a.8.8 0 00.3 0c-.3.5 0 .8.6.9 0 0 .8.1.4-.4l-.2-.4s.8.2.5-.4a.6.6 0 00-.1-.1h.5c12.5.2 15.7 1.2 16.3 1.4l-4.3 2.9 4.6-1.6 5.3 61.5a9.4 9.4 0 01-.8 2.7c-.4.4-2.9.4-4.2.2a10.2 10.2 0 00-1.2-.2l.6-4a45.5 45.5 0 00-2 4h-.3l.7-4.3a39.1 39.1 0 00-2 4.2 1.9 1.9 0 01-.2.5 2.4 2.4 0 01-.7 0 2.5 2.5 0 00.2-.3l.6-4.3-1.8 3.4a2.7 2.7 0 00-.6-.7 3.4 3.4 0 00.4-.4l.6-4.4a39.1 39.1 0 00-2.1 4.3h-2.3a33.5 33.5 0 01-4.9-.5l-1.4-9H703l-1-3v3zm-200.5-58l-.4 3.8 1-2.7-.3-1c10.9 5.6 18 6.6 21.4 7.4l-.5.6c1 2.3-.2 6.4 1.2 7.7a15 15 0 00.5-7.8 2 2 0 01.5.3c1.8 1.4 3.4 9.7 3.4 12.8s-2.7 19-3.9 25.2a19 19 0 01-4.9 8.2l-1.7-.7-.7.7-.8 1.6 1.8-1 1.2-.3A63.8 63.8 0 01506.2 79a15.4 15.4 0 01-5.1 1.9c.2-.4 0-.8-.5-1 0 0-.7-.2-.5.4a3.3 3.3 0 00.3.7h-.4c0-.2-.3-.4-.6-.5h-.2c.3-.5.2-.9-.5-1a.8.8 0 00-.2-.1.7.7 0 00.2-.2c.4-.4.2-.8-.4-1 0 0-.7-.3-.5.4.2.4.3.8.5.8v.4c.2.5.3 1 .6.9a.5.5 0 000 .2l.1.3h-.2c-.1-.2-.3-.4-.7-.5 0 0-.6-.3-.4.3v.2h-.5c.3-.4 0-.7-.5-.9 0 0-.5-.2-.5.2a.9.9 0 00-.6-.5s-.7-.3-.5.3.5 1.2.9.8a.7.7 0 00.2-.5 4 4 0 00.3.6h-2a.6.6 0 00.2-.1c.4-.5.2-.9-.5-1a.9.9 0 00-.2-.1c.3-.4.2-.8-.5-1 0 0-.6-.3-.4.3a3 3 0 00.1.4s-.7-.3-.5.3v.1s-.7-.3-.5.4a2.9 2.9 0 00.3.7l-3.8-.4c-4-.4-18.4-7.6-19-8-.2 0-.3-.5-.4-1.2a6.5 6.5 0 003 .5c1 0 .7-.7 1.5-1.2s-.8-1.7-1-.7-2.5 1-2 .8.8-1 .8-1l-2.4-.2a100.8 100.8 0 01-.2-10.3c.3-5.1 1-5 2.5-13.9a67 67 0 011.9-7.8l.5.4 2.2 1-1.1-2.7h1.5l-.7-2.3 1.2-1.7-1.5-.7c1.6-4 3.3-7.1 4.3-7.7 2-1.1 4-3.2 7.4-6.6 3.1-3.1 12.6-4 14-4zM492.9 81h.1a1 1 0 00.2-.3s.2 0 .3-.2a.8.8 0 00.2-.4v.1a1.7 1.7 0 00.5.9zm3.5-3.1a1.7 1.7 0 01-.5-.8c-.2-.7.5-.4.5-.4.6.2.8.6.4 1a.8.8 0 01-.2.2.6.6 0 01.2 0c.7.2.8.7.4 1a.8.8 0 01.3.1c.7.2.8.6.4 1s-.6 0-.8-.7a.5.5 0 010-.3c-.3.2-.5-.3-.7-.8v-.4zm-1.8.9s-.7-.3-.5.3.5 1.2 1 .7.2-.8-.5-1zm.8-.2c-.2 0-.4-.4-.6-.9-.2-.6.5-.3.5-.3.7.2.8.6.4 1a.9.9 0 01.2.1c.7.2.8.6.4 1s-.6 0-.8-.7a.6.6 0 010-.3zm4.2-.6s-.6-.3-.4.3.4 1.2.9.7.2-.8-.5-1zm-5.6-.7s-.7-.3-.5.3.5 1.2 1 .7.2-.8-.5-1zm377-57.2a21.4 21.4 0 017.1-3.8 8.3 8.3 0 003.2-.4l1.3 1.4.8-.9 2 .1.8-.7 1.3.9 2.2 1 1-.7 2 .7 2 .6 2.7-1a5 5 0 01.6-.2l.7 1.6-.3-1.7.8-.2 1 2.4-.4-2.5h.7l1.3 3-.4-3a1.3 1.3 0 01.8.5l.2.4a1 1 0 010 .3l1.3 2.7-.5-3.3.5-.4.9 2-.3-1.6.6.4 1 2.4-.5-3 .2-.7h1l1.7 4.2-.6-4.2h.6l.6 1.8 2.3 1.2.9-1.2h1.4l.3 1.6v.2l-4.5-.3 4 1.4a2.1 2.1 0 00.4.1v.1a5.5 5.5 0 002.4.7c1.3 0 .6 1.7.6 1.7l-2 .4a2.9 2.9 0 002 1.2c1.3 0 1 .8 1 .8a4.2 4.2 0 00-1.5.5l-3.5-3.2s2 2.5 2.4 3.5a2.6 2.6 0 00.7.8l-1 9.2h-6a21.7 21.7 0 00-3.4 0 15.3 15.3 0 00-3 .3 16.8 16.8 0 01-5.7-1c1.5-5.5-1.8-8.4-5.1-8.4s-6.3 2.1-6.4 5.3 1.7 3.7 3.5 5 5.4 2.6 7 3.2 7.7 3.7 9.5 4.3c1.5.5 6.5 5.2 6.4 12-.4-.1-1 .3-.8.6s.1.5.6.3a.5.5 0 00.1-.2v.4c-.3.1-.5.4-.4.6s.1.4.3.4v.3c-.4 0-.6.4-.6.6s.2.4.3.4v.2c-.4-.4-1 .1-1 .5s.3.4.7.2v-.1l-.1.6a2.3 2.3 0 00-.1.3.4.4 0 00-.2.4.6.6 0 000-.1c-.4-.3-1 .2-.8.5s.1.5.6.2v.4c-.4 0-.7.3-.6.6a.7.7 0 00.1.3l-.3.6c-.3-.3-1 .2-.8.5s.2.5.4.3v.2c-.3 0-.6.3-.5.6a1 1 0 000 .2v.2a.7.7 0 000-.1c-.4-.3-1 .2-.9.5s.2.5.5.3c-4 6.7-11.2 11.7-26.5 12.3a31.1 31.1 0 01-12.8-1.7.6.6 0 00-.3-.6c-.5-.2-.7-.3-.8.1a.5.5 0 00-.3-.8c-.5-.2-.7-.3-.9.2l-.4-.2a.5.5 0 00-.2-.7c-.5-.3-.7-.3-.8 0l-.5-.3a.5.5 0 000-1c-.4-.3-.7-.3-.8.1v.2l-.5-.5a.5.5 0 00-.3-.8 1.2 1.2 0 00-.6-.1l-.2-.3a.5.5 0 00.1-1c-.4-.3-.6-.3-.8 0a.5.5 0 00-.2-.7h-.3a13 13 0 01-.4-.9c0 .4.7.7.7.7.7 0 .8-.7.3-1-.3-.2-.6-.2-.7-.2a.6.6 0 00-.3-.4 1.7 1.7 0 00-.5-.2l-.4-1a.5.5 0 00.2-1 1.2 1.2 0 00-.6-.2 2.5 2.5 0 010-.3 1.9 1.9 0 00.3.1c.7 0 .8-.7.3-1-.3-.1-.5-.2-.6-.1v-.6c0 .4.5.6.5.6.8 0 .8-.8.3-1s-.7-.3-.8.2c0-2.2.4-4.8.4-4.8l-1.6.2 1-1-.4-3.4 1.7-.9 2.4-.5 3.4-.2 4-.2a19.2 19.2 0 014.7-1 6.4 6.4 0 013.4 1.3l.2 6c0 2 1.1 3.5 4.1 4.5s7.5-1.3 8.6-5-10-9-17.2-12.7-8-5.8-8.3-17.3a13.8 13.8 0 01.7-4.5l5.5-1.8-4.6.2h-.3a12 12 0 011-1.6l5.2.2-4.3-1.4a15.2 15.2 0 011.4-1.5l3.5 1.9-2.8-2.6zM494.5 76.3s-.7-.3-.5.3.5 1.2.9.8.2-.9-.4-1zm4.2-.3s-.6-.3-.4.4.4 1.1.8.7.3-.9-.4-1.1zm309.5-40.8l3-17.3 7.2.2 3.9-.3 2-.3 25.9.1a13.4 13.4 0 00.3 2.3 5 5 0 001.8 3.2c.8.9 2.5 1.3 3.3 2.2a6.7 6.7 0 003 1.3.6.6 0 00.2 0 1.3 1.3 0 00.5.2 69.8 69.8 0 01.4 8.3c0 9-5.8 15-8 16.8s-3.3 1.7-3 1-1.3-1.6-2.7-.9-.7 1.8-1.7 2-2 1.8-3.2 2.6a3.3 3.3 0 01-2 .7h-13.9l-.5 1-.4 4-1 2.2-.3 2.6.4 2.5.3 2.5-1 1.8c-.6 1-.3 5.4-.3 5.4h-14.8l.8-6.3-1.9 5 .3-2.5-1.3 3.7h-1l.6-4.4-1.6 4.4h-.3l.5-3.5-1.3 3.5h-.1l.6-4.7-1.4 3.5v-4.7s-1.7 0-1.7-.8a13.7 13.7 0 01.9-3 19 19 0 00.7-2.5c.1-1 1.7-1.4 1.7-1.4l3-17.8.5-.2 1-1.6v-3l.9-1.8.6-1 1.5-.4-1-1.3 1.2-.3-.8-.5v-1l.3-1.5h-2.1zm-48.4-17.7l.5.1 1.9-1.1 2.4-.5h29.1a.6.6 0 00.3.4c.5.1.7.2.8-.2h.5a.5.5 0 00.3.7c.5.2.8.2.8-.3a.2.2 0 000-.1 7.3 7.3 0 014.6 3c-.7.1-.7.9-.2 1 .4.2.6.2.8 0 0 .3.2.5.3.8a.7.7 0 00-.4.1c0-.4-.6-.6-.6-.6-.8 0-.7.8-.2 1h.7a.6.6 0 00.3.5 2.1 2.1 0 00.5 0l.2.6a1.1 1.1 0 00-.6-.4.5.5 0 00-.2 1c.5.2.7.2.8-.3v.3a.5.5 0 00.2.9v.4a.5.5 0 00.2.8v.2a.5.5 0 000 1 73.7 73.7 0 01-.2 9.5c-1.2 17-19.4 19.5-19.4 19.5h-14.6l-3.5 20-2.1-2.5 2 3.6-.3 1.2h-.7l-1.2-3.4.4 3.4-2.2-.1.6-4.1L760 78h-1.7l2.8-4-4.4 4h-9l-1.3.7H744l.3-1.8 5.1-2.7-4.9 1.3 9-54 6.3-4zM496.8 74.8s-.7-.3-.5.3.5 1.2.9.7.3-.8-.4-1zM867 77.4s-.7-.3-.6-.8.4-.4 1-.2.3 1-.4 1zm-1.3-.7s-.7-.3-.6-.7.4-.5.9-.2.4 1-.3 1zm1.4-1.3c0 .3-.1.6-.6.6 0 0-.5-.2-.6-.6a.7.7 0 01-.5.1s-.7-.2-.5-.7.3-.5.9-.2a.5.5 0 01.3.4c0-.2.3-.2.5 0a.6.6 0 010-.3c.2-.5.4-.4 1-.2s.3 1-.4 1zm-3.2 0s-.7-.3-.6-.8.4-.4.9-.2.4 1-.3 1zm2.1-1s-.7-.3-.5-.8.3-.4.8-.2.5 1-.3 1zm-1.9-.6a.6.6 0 01-.6.3s-.7-.3-.5-.8c0-.3.2-.4.4-.4a.5.5 0 01-.2-.5c.2-.5.4-.4.9-.2a.5.5 0 01-.2 1 .5.5 0 01.3.3c0-.4.3-.3.8 0s.4 1-.3 1c0-.1-.5-.3-.6-.7zm3.1.3s-.7-.3-.5-.8.4-.4.9-.2.4 1-.4 1zm1.7-.4s-.6-.3-.5-.8.4-.4.9-.2.4 1-.4 1zm-6.5-.4s-.7-.2-.5-.7.3-.5.9-.2.4 1-.4 1zm2.9-.1s-.7-.3-.6-.8.4-.4.9-.2.4 1-.3 1zm-371.5-6.9a6 6 0 001 0c5.7-.6 6.7-3.4 7.3-5.4s4.9-27.8 4.9-27.8-1.1-4-4.6-4.2-6.7 2.3-7.4 3.9c-.5 1-2.1 10.4-3.4 17.4-.8 0-2.7 0-2.9 1-.1 1.1 1.5-.4 2.9-.8l-1.3 7.5c-.4 2.2-1 7.6 2.8 8.4l-.8 4.2a3.1 3.1 0 001.4-2.2 6.7 6.7 0 000-2zm372.7 6.5s-.7-.3-.5-.8.3-.4.8-.2.5 1-.3 1zm-2.3-.6s-.7-.3-.6-.8.4-.4.9-.2.4 1-.3 1zm-1-.9c.4.3.3 1-.4.9 0 0-.7-.3-.5-.8s.2-.4.5-.3a.6.6 0 01-.2-.6c.2-.5.4-.4.9-.2a.5.5 0 01-.2 1zM568 68.6l-.3.6.9.4.5-.8zm300.9 3s-.7-.3-.6-.7.4-.5.9-.3.4 1-.3 1zm-3.4 0s-.7-.3-.6-.8.4-.5 1-.2.3 1-.4 1zm-3.8-.2s-.7-.3-.6-.8.4-.4.9-.1.4 1-.3 1zm9.3-.8s-.7-.3-.6-.8.4-.4.9-.2.4 1-.3 1zm-10.5 0s-.7-.3-.5-.8.3-.4.8-.2.5 1-.3 1zm41-1a.6.6 0 01-.2.8c-.5.2-.6.1-.7-.2a.6.6 0 011-.6zm-39.3-.3c.5.2.5 1-.3 1 0 0-.7-.3-.5-.8 0-.2.1-.3.3-.4a.7.7 0 01-.3-.3.6.6 0 01-.6.4s-.7-.3-.6-.8c.1-.3.2-.4.5-.3-.2 0-.6-.3-.5-.7s.4-.5.9-.2a.5.5 0 01-.3 1h.3a.6.6 0 01.3.4c.1-.5.3-.5.8-.2a.5.5 0 010 1zm3.8.9s-.7-.3-.5-.8.3-.4.8-.2.5 1-.3 1zm-2.6-.1s-.7-.3-.6-.8.4-.4.9-.2.4 1-.3 1zm44-1.9a.6.6 0 01-.3.7c-.4.3-.5.2-.6-.2s.4-.8.8-.5zM905 68a.6.6 0 01-.3.7c-.4.3-.5.2-.6-.2a.6.6 0 01.9-.5zm2.4-2.1c-.1-.4.5-.9.9-.6a.6.6 0 01-.3.8c-.2 0-.3.1-.4 0a.6.6 0 010 .4.5.5 0 01.6 0 .6.6 0 01-.3.7c-.3.2-.4.2-.5 0a.6.6 0 01-.3.7c-.4.2-.5.1-.6-.2s.5-.8.9-.6a1.3 1.3 0 01-.1-.1.4.4 0 010-.3c-.5.2-.5 0-.6-.3s.3-.7.7-.5zm-289.8-3.2s-.5 1.5.3 1.7 1-1.4-.3-1.7zm283 2.5a.6.6 0 01-.2.7c-.4.3-.5.1-.6-.2s.5-.8.9-.5zm-38.5.8s-.7-.3-.6-.8.4-.4.9-.2.4 1-.3 1zm7.5-.1s-.6-.3-.5-.8.3-.4.9-.2.4 1-.3 1zm37.7-1a.6.6 0 01-.2.7c-.5.3-.6.1-.7-.2s.5-.9 1-.5zm2-.3a.6.6 0 01-.3.8c-.5.2-.5.1-.7-.2s.5-.9 1-.5zm-1-.5a.5.5 0 11.6.3c-.4.2-.5.2-.6 0a.6.6 0 01-.3.5c-.4.2-.5.1-.6-.3s.4-.7.8-.5zm-2.4-.3a.6.6 0 01-.3.7c-.4.3-.5.1-.6-.2a.6.6 0 01.9-.5zm2.5-.6a.6.6 0 01-.2.7c-.5.3-.5.1-.7-.2s.5-.8 1-.5zm-1.2-.1a.6.6 0 01-.3.7c-.4.3-.5.2-.6-.2s.5-.8.9-.5zm2.4-1a.5.5 0 01.6 0 .6.6 0 01-.3.8h-.5a.6.6 0 01-.3.5c-.4.2-.5.1-.6-.2s.4-.8.8-.6a.4.4 0 010-.3c-.3.2-.4 0-.5-.3s.5-.8 1-.5a.6.6 0 01-.2.6zm-195.6-2.2a3 3 0 00.3-.2A6.4 6.4 0 00716 56V45.6s.6-4.1 1.3-5 0-2.3.2-3.5a23 23 0 00.2-2.7 4.2 4.2 0 00-1.7 1.5 19.8 19.8 0 00-1.1 2.7 26 26 0 01-1.6 4.3c-.8 1.2-1 3.3-1.7 4.6s-3.4 9.6-3.4 9.6-.5 2.7.1 2.8l2-.6 1.6.5a5 5 0 001.1.3v3l1-3.2zm194.5 2.2a.6.6 0 01-.2.7c-.5.3-.5.2-.6-.2s.4-.8.8-.5zm-1-.2a.6.6 0 01-.2.7c-.5.3-.5.1-.6-.2s.4-.8.8-.5zm-2.1-.2a.6.6 0 01-.3.8c-.4.2-.5.1-.6-.2s.5-.9.9-.6zm-2 0a.6.6 0 01-.3.6c-.4.3-.5.2-.6-.2a.6.6 0 011-.5zm-39.5.7s-.7-.3-.6-.8.4-.4.9-.2.4 1-.3 1zm45.1-1.4a.6.6 0 01-.3.7c-.4.3-.5.2-.6-.2s.5-.8 1-.5zm-.9-.3a.6.6 0 01-.3.7c-.4.3-.5.2-.6-.2a.6.6 0 01.9-.5zm1-.8a.6.6 0 01.8-.1.6.6 0 01-.2.6.5.5 0 01.4 0 .6.6 0 01-.2.8c-.5.3-.5.2-.7-.2a.4.4 0 01.2-.4c-.2 0-.3 0-.4-.2a.6.6 0 01-.2.2c-.4.2-.5.1-.6-.2s.5-.9.9-.6zm-2.3.5a.6.6 0 01-.2.7c-.5.2-.6.1-.7-.2a.6.6 0 011-.5zm4-.8a.6.6 0 01-.2.7c-.5.3-.5.2-.7-.2s.6-.8 1-.5zm-.2-1a.6.6 0 01-.3.8c-.4.3-.5.1-.6-.2s.5-.8 1-.5zm.7-1.7a.6.6 0 01-.2.7c-.4.3-.5.2-.6-.2s.5-.8.9-.5zm-187.6-2.4l.8 2.8s2.7-1 2.1-2.4-1.2-1-3-.4zm-86.5-5v3.7a17.8 17.8 0 011-1.8c.5-.6-1-.8-1-1.8zm260.6 1l-1.6 2.4 3.5-.4-2-2zm-5.7.4l1.2-1.8 1.9 2-3.5.3.2-.3-3.2.3 1.6-2.3 1.8 1.8zM759 45.6l-1.6 2.3 3.5-.3zM782.4 28a3.5 3.5 0 00-1.3-.6c-1.8-.4-6.8.1-6.8.1l-3.5 15-2.4 5 3.2-4a3.2 3.2 0 001.4.2c1.4 0 7.2 0 8.2-1.8S783 34 783 34v-5.3l2-3.7-2.5 3zm56.6 1.3a2.2 2.2 0 00-1.1-.4c-1.6-.1-5.2 0-6.7.1l-3.8-3.2 3 4-1.3 5.4-.6 2.4-.4 3.3-.6 2.3s-.4 1.2 1.5 1.2 3 1 4.4.3 5.4-.5 5.8-5 .8-6.6.9-7.5a3.7 3.7 0 00-.3-2l.7-5-1.5 4zm51.4 13.3l-1.6 2.3 3.5-.3-1.9-2zm-379.6-3.4l-.7 1 1.5.2zm345.8-7.5s.7.2.6.8-.3.4-.8.3-.6-1 .2-1zm-57.2-.6s.7.1.6.7-.3.4-.8.3-.6-1 .2-1zm51-2s.7.2.6.7-.3.5-.8.3-.6-1 .2-1zm-57.2-.7s.7.2.7.7-.3.5-.9.3-.5-.9.2-1zm-85.1.5s.6-.4 0-.5-1.3-.4-1.1.3.5.7 1 .2zm149.8-.9s.7.2.6.7-.3.5-.8.3-.6-1 .2-1zm-152 .5s.6-.4 0-.6-1.3-.3-1.2.3.6.7 1.1.3zm94.8-1.2s.7.2.7.7-.3.5-.9.3-.5-1 .2-1zm-90.3.7s.6-.4 0-.6-1.3-.3-1.1.3.5.7 1 .3zm112.8-2.3l-1.6 2.3 3.5-.3zm-165.7.8s.6.6.6-.3-.2-1.5-.7-1a.8.8 0 00.1 1.3zm50.3-.7a2 2 0 011 .1c.7.2 0 .6 0 .6-.5.4-1 .3-1.1-.3a.4.4 0 010-.2 1 1 0 01-.2.1c-.5.5-1 .4-1-.2a1 1 0 01-.3.2c-.6.4-1 .3-1.2-.3s.5-.5 1.2-.3a.4.4 0 01.2.2c0-.4.6-.3 1.1-.1.3 0 .3.2.3.2zm-47.7-.8s.6.5.5-.4-.2-1.5-.7-1a.8.8 0 00.2 1.4zm140.2-1c-.6-.2-.6-1 .1-1 0 0 .7.2.7.7 0 .3-.1.4-.3.4a1 1 0 01.3.3c0-.3.2-.5.6-.5 0 0 .7.2.6.7 0 .3-.1.4-.4.4.2 0 .6.3.6.7s-.3.5-.9.3a.5.5 0 01.2-1l-.3-.1a.6.6 0 01-.3-.3c0 .5-.3.5-.8.3a.5.5 0 01-.1-1zm-144.5.5s.6.5.6-.3-.2-1.6-.7-1a.8.8 0 00.1 1.3zm192.7 0s.8.3.7.8-.3.4-.8.3-.6-1 .1-1zm5-.2s.8.2.7.7-.3.5-.8.3-.6-.9.1-1zm-143.2.8s.7-.4 0-.5-1.2-.3-1 .3.5.7 1 .3zm-2.5-.6c.1-.2.6 0 1 0 .7.2 0 .6 0 .6-.5.4-1 .3-1-.3a1.4 1.4 0 01-.3.1c-.5.5-1 .4-1-.2s.4-.5 1-.3a.5.5 0 01.2.2zm-49.2-2a2.4 2.4 0 01.3 1.1c0 .9-.5.3-.5.3a.8.8 0 01-.2-1.3l.2-.1-.2-.1a.8.8 0 01-.2-1.4.7.7 0 01-.3-.1.8.8 0 01-.2-1.4c.5-.5.6.2.7 1a.8.8 0 010 .4c.3-.1.4.5.5 1.2l-.1.4zm5 1.4s.5.5.5-.3-.2-1.5-.7-1a.8.8 0 00.1 1.3zm-2.8-.2s.6.5.5-.4-.2-1.5-.7-1a.8.8 0 00.2 1.4zm130.6.2s.7.2.7.7-.3.5-.9.3-.6-.9.2-1zm60.8-6.3a7.3 7.3 0 011.7.2.5.5 0 00.3.9c.5.1.7.2.8-.3a.4.4 0 000-.2 5.8 5.8 0 01.7.4.5.5 0 00.3.7c.3.2.5.2.7 0l.2.4a.5.5 0 000 1c.4.1.6.2.7 0a.5.5 0 00.3.5l.1.3c-.7 0-.7.8-.2 1h.7l.2.8a.5.5 0 000 1h.3v.4h-.1a.7.7 0 00-.5.1h-.3a.6.6 0 00.1-.3c.1-.5-.6-.7-.6-.7-.6 0-.7.5-.5.8a2 2 0 01-.8-.6c.3 0 .5 0 .5-.4a.5.5 0 00-.2-.5c.3 0 .4 0 .5-.4s-.7-.7-.7-.7c-.6 0-.7.7-.3 1a.6.6 0 00-.3 0v-.2c0-.5-.7-.7-.7-.7h-.2a1.9 1.9 0 00-.4-.1c.1-.6-.6-.8-.6-.8-.4 0-.6.3-.6.5a1.8 1.8 0 01-.5-.3 1.6 1.6 0 01-.7-1 .5.5 0 00.2-.5.5.5 0 000-.2l.6-.1a.6.6 0 00.4.4c.5.1.7.2.8-.4s-.7-.7-.7-.7a.7.7 0 00-.4.3c-.1-.4-.7-.6-.7-.6a.7.7 0 00-.4.2v-.1l-.1-.3c.3 0 .5 0 .5-.4a.5.5 0 000-.4zm-55.8 6s.7.2.6.7-.3.5-.8.3-.6-1 .2-1zm-136.7-1.8c.2 0 .3.6.4 1.2 0 .8-.5.3-.5.3a.8.8 0 01-.2-1.4.7.7 0 01-.2-.1.8.8 0 01-.2-1.4c.5-.4.6.3.7 1.1a1 1 0 010 .3zM799 23.4s.7.2.7.7-.3.5-.9.3-.5-1 .2-1zm-89.3.8s.6-.4 0-.6-1.3-.3-1.1.3.5.7 1 .3zm140.8-1s.8.3.7.8-.3.5-.8.3a.5.5 0 01.1-1zm-142.4.6s.6-.4 0-.6-1.3-.3-1.1.3.5.7 1 .3zm85.3-1.2s.7.2.6.7-.3.5-.8.3a.5.5 0 01.2-1zm64.3 0s.7.2.6.7-.3.5-.8.3-.6-1 .2-1zm-61-.3s.7.2.6.7-.3.4-.8.3-.5-1 .2-1zM551.5 22s.7 0 .3-.5-1-.8-1.1-.3.1 1 .8.8zM657 20.5c.2 0 .3.6.3 1.2 0 .8-.5.3-.5.3a.8.8 0 01-.2-1.4.5.5 0 01.2-.1 1 1 0 01-.4-1.5.6.6 0 01-.2 0 .8.8 0 01-.1-1.4c.5-.5.6.2.6 1a.7.7 0 010 .2c.3 0 .4.6.4 1.2l-.1.5zm141.9 1.7c-.4-.3-.3-1 .3-1 0 0 .8.2.7.7s-.2.5-.5.4a.6.6 0 01.3.5c-.1.6-.4.5-.9.4a.5.5 0 01.1-1zm-143.5-.4s.6.5.5-.3-.2-1.5-.7-1a.8.8 0 00.2 1.3zm5.1 0s.6.5.5-.4-.1-1.5-.6-1a.8.8 0 00.1 1.3zm47.8.3l.4.1c.6.2 0 .6 0 .6-.6.4-1 .3-1.1-.2a1.2 1.2 0 01-.2.2c-.6.4-1 .3-1.2-.3s.5-.5 1.1-.3h.1a1 1 0 01-.2-.4.4.4 0 010-.4 1.1 1.1 0 010-.3c-.2-.6.4-.5 1-.3s0 .6 0 .6h.1c.7.2 0 .6 0 .6zm92.2-.3s.7.2.7.7-.4.5-.9.3-.5-.9.2-1zm-251.4 0s.7 0 .2-.5-.9-.9-1-.3 0 .9.8.7zm115.5-1.9a2.5 2.5 0 01.2 1.1c.1.8-.5.3-.5.3a.8.8 0 01-.1-1.3l.1-.1a.6.6 0 01-.1-.1.8.8 0 01-.2-1.4.6.6 0 01-.3-.2.8.8 0 01-.2-1.3c.5-.5.7.2.7 1a.7.7 0 010 .4c.4-.1.4.5.5 1.2l-.1.4zm133.3 1.5s.8.2.7.7-.3.5-.8.3a.5.5 0 01.1-1zm-86 1s.8.1.4-.5-.7-1-1-.5 0 .9.7 1zm138.2-1.2s.8.2.7.7-.3.5-.8.3-.6-1 .1-1zm-54.6 0s.7.1.7.6-.3.5-.9.3-.5-1 .2-1zm59.4-.8a.6.6 0 01.6-.3s.7.2.6.7c0 .3-.1.4-.4.4a.5.5 0 01.3.5c0 .5-.3.5-.8.3a.5.5 0 010-1 .5.5 0 01-.3-.2c0 .4-.3.3-.8.2a.5.5 0 01.2-1 1 1 0 01.6.4zm-189.2-1.2c.2 0 .3.6.4 1.2 0 .8-.6.3-.6.3a.8.8 0 01-.1-1.4 1 1 0 01-.4-1.5c.5-.4.6.3.7 1a1.3 1.3 0 010 .4zm191 1.5s.7.2.7.7-.3.5-.9.3-.6-1 .2-1zm-60-.2s.8.2.7.7-.3.5-.8.3-.6-.9.1-1zm-3.7 0s.8.2.7.7-.3.5-.8.3-.6-.9.1-1zm-133.7-1.1a1 1 0 01.4-.6c.5-.5.6.2.7 1s-.6.4-.6.4a.8.8 0 01-.5-.7c0 .5-.5.1-.5.1a.8.8 0 01-.1-1.3c.5-.5.6.2.6 1zm50.3 2s.8.2.4-.4-.7-1-1-.5 0 .9.6 1zm88.2-1.6a.6.6 0 01.5-.4s.7.2.7.7c0 .3-.2.4-.4.4a.5.5 0 01.2.6c0 .5-.3.4-.8.3a.5.5 0 010-1 .5.5 0 01-.2-.3c-.1.4-.3.3-.8.2a.5.5 0 01.1-1 1 1 0 01.7.4zm-250.4.5s.7 0 .3-.5-1-.9-1.1-.3.1.9.8.8zM853 20s.7.2.7.7-.3.5-.9.3-.5-1 .2-1zM550.4 19c.2 0 .5.3.8.6.4.5-.3.5-.3.5-.7 0-1-.3-.8-.8a.5.5 0 010-.2h-.1c-.7.1-1-.2-.8-.8a.9.9 0 01-.3.1c-.7.1-1-.2-.8-.8s.6-.2 1 .3a.5.5 0 01.2.3c.2-.3.6 0 1 .5.1.1.2.2.1.3zm249 1s.8.2.7.7-.3.5-.8.3-.5-1 .2-1zm-42-2.8l-3.8 3.9.8-5zm37.2 2.7s.7.2.6.7-.3.5-.8.3-.6-1 .2-1zm-241.8-.2s.8 0 .3-.5-.9-.9-1-.3 0 1 .7.8zm102.1-.3s.6.5.5-.3-.2-1.5-.7-1a.8.8 0 00.2 1.3zm141 0s.6.2.6.7-.3.5-.9.3-.5-1 .2-1zm-129.4-.3s.6.5.5-.3-.1-1.5-.6-1a.8.8 0 00.1 1.3zm47.3 1.1s.8.2.4-.4-.7-1-1-.5 0 .9.6 1zM657.5 19s.6.5.5-.3-.2-1.5-.7-1a.8.8 0 00.2 1.3zm54 0c.3.1.5.4.7.8.4.6-.4.4-.4.4-.7 0-1-.4-.6-1a.8.8 0 01.1-.1.7.7 0 01-.1 0c-.7 0-1-.5-.7-1a.8.8 0 01-.3 0c-.7 0-1-.5-.7-1s.7 0 1 .5a.5.5 0 01.1.3c.3-.2.6.2.9.7.1.2.1.3 0 .4zm-165.7.1s.7 0 .2-.5-.9-.9-1-.3 0 1 .8.8zm254 0s.7.2.6.7-.3.5-.8.3a.5.5 0 01.2-1zM551 17.9c.2 0 .6.2.9.6s-.3.4-.3.4c-.7.2-1-.2-.8-.7a.8.8 0 01-.2 0c-.7 0-1-.2-.8-.8s.6-.2 1 .3a.7.7 0 01.2.2zm304 1s.7.2.7.7-.4.5-.9.3-.5-1 .2-1zm-186.9-.3v-.1h.1v.1zm126.5 0c0-.3 0-.6.5-.7 0 0 .6.2.7.6a.7.7 0 01.5-.3s.7.2.6.7-.3.5-.8.4a.6.6 0 01-.4-.4c0 .2-.3.2-.6 0a.5.5 0 010 .3c0 .5-.3.5-.8.3s-.6-.9.2-1zm-241.8 0s.7 0 .3-.5-1-.9-1.1-.3.1.9.8.8zm155.5 1s.7.2.4-.4-.7-1-1-.5 0 .9.6 1zm89.5-1.4s.8.2.7.7-.3.5-.9.3-.5-.9.2-1zm-85.4-.2c.2 0 .5.3.7.8s-.3.4-.3.4c-.7 0-1-.4-.7-1h-.2c-.7 0-1-.4-.6-1s.6 0 1 .5a.7.7 0 010 .3zm1.7 1s.7.2.3-.4-.7-1-1-.6 0 1 .7 1zm139-1.3s.7.2.6.7-.3.5-.8.3-.6-.9.1-1zm-187.7-1a1 1 0 01.3-.5c.5-.5.6.2.7 1s-.5.3-.5.3a.9.9 0 01-.5-.7c0 .5-.5.1-.5.1a.8.8 0 01-.2-1.3c.5-.5.6.2.7 1zm133.6 1s.7.1.7.6-.3.5-.9.3-.6-.9.2-1zm-247.3-.3s.7 0 .2-.5-.9-.9-1-.3 0 1 .7.8zm244.2-.4s.7.2.6.7-.3.5-.8.4-.6-1 .2-1zm1.3 0s.7.1.7.6-.3.5-.9.3-.5-.9.2-1zM661 16.6s.6.6.5-.3-.1-1.5-.6-1a.8.8 0 000 1.4zm52.3 1s.7.1.4-.4-.7-1.1-1-.6-.1 1 .5 1zm81.3-1.1s.7.1.6.7-.3.4-.8.3-.6-1 .1-1zM630 14.7h1l-1.2 1.4zm-78 .5a.5.5 0 00-.1.2.8.8 0 000 .4 3.9 3.9 0 00-.5-.5zm159.2.8a.6.6 0 000 .3l-.2-.3zm2.5 0zM161 73l4.4-29.2s5.8-28.2 6.5-28.2h8.8l8.7.5-2.4 9.3 3.1-7.1.6-.5c-.7 4.6-2.8 17-3.5 19.7-.8 3.2-4.3 23.7-4.3 23.7l2.1 2.3s13.3-.5 18.3-.3 5.2 1.4 5 3.1-2.5 11.4-3.4 12-4 .7-9 .7a147.3 147.3 0 00-21 1.3 13 13 0 01-11-3.2l7.1-4.6-6.5 3 4.6-3-6.6 2.8 5.6-3.6-6.2 2.7 6.8-4.4-7.1 3zm210.6-4.2l50.3 2.2c-.7 3.9-2.4 10.5-3.9 11.2-2 .8-4.6.3-5.3-.7s0-3.1 0-4.2a1.4 1.4 0 00-.4-1l2.5-4-2.2 2.2-1.2 1.3-.1.1a2.1 2.1 0 00-1 .5c-1.2 1-4.7 3.8-6.5 4.5a22.7 22.7 0 01-5.2 1.7c-2.2.3-5.3-1-10.7-1.1s-7.9-2-11.9-4.5l-.9-.6 3-4.7-2.2 2.1-1.2 1.3-.4.7c-2.1-1.8-2-3.4-2.7-7zm-142-54c5-.2 13.2-.6 16.1-.6 4.3 0 9.3 1.6 18 4.1A8.8 8.8 0 01267 20l-3.5 6.8 4-6.4c5.3 5 5.8 15.7 5.8 15.7a22.3 22.3 0 00-1.3 6.3c0 2.8-3.3 20.9-5.8 25S253 78.6 250 79.4s-19.4-.1-27-.1-8.6-1.6-9.3-3.8 1.2-11.7 1.2-11.7l1.6-3.6s1-9.5 1-11.8S220 34 221 29s4.9-13.9 4.9-13.9h.2c0 .4.6.3.7 0h.1c-.3.8.5.8.6.3a.3.3 0 00-.2-.3h.3c-.3.8.6.8.7.4 0-.3-.2-.4-.4-.4l1.8-.1zm60 66.4l-5.3.4-2-2.2s-2.5 1.5-3.3 1.1a1.9 1.9 0 01-.6-1l5-1.7-3.5.7v-1.2l2.1-.8-2.2.2V76h2l-2-.5v-.4l.6-1-.7-.5-1.1.8.2.8h-.5l-.8-1-.2.2.7-9.4 7.5-39a44.2 44.2 0 012.5-8.8l3.5 4.2-2.5-4v-.8a62.3 62.3 0 0010.1 0c2.2-.4 3 1.1 4.5 1.5s3.2 3 3.2 3l-3.4 18.6s-7.2 36.4-7.6 39.2-2 2.4-2.1 2.4zm-159-5.1c1.6-7.3 10.4-50.8 10.4-54.2 0-3.8 1.6-7.3 2.6-7.8s4.8 0 4.8 0l3.7 1h8.4l-4.2 7.4 3.2-3.6 1.8-2.2.5-1c-1 5.6-10.6 60.6-11.5 60.6a19 19 0 00-7.8 2.3c-2.6 1.5-8.3-.2-10.8-1.1h7.5l-4.7-1-2.8-.5zM308.3 66l18.2.8a107.3 107.3 0 01-2 10.8 2.5 2.5 0 01-1.6 1.6l-.5-2-2-4 .7 3.6-.4 1.2 1.3 1.5a8.9 8.9 0 00-1.4.4c-1.6.6-1.6 1.5-4.2 1.5s-2.1-1-4.5-2-3.2-1-4.3-1.6-.2-6 0-8.4a17.1 17.1 0 01.7-3.4zM82 74.3C72 69 74.1 57.7 74.1 57.7s3.2-20 5-28.4 3-16.6 5-17.1a72.1 72.1 0 017.8-.9 22.9 22.9 0 012.6.5l-1.7 5.7 3-5.3h.2l-1.8 5.5 3-5 .5.2-1.8 5.6 2.7-4.6-1.5 4.6 2.6-4.4-2.3 7.5 3.2-5.3.3-.7a2.7 2.7 0 01.2 1.8c-.7 3.2-5 23.3-6.3 35.2S97 63 99.5 64.9c2.3 1.5 2.9.7 4.8-.8l-2.5 8.1 3.1-5.3 1.6-3.2.8-2.9-.5-.8c3.3-10.7 8.3-43.1 8.3-44.4 0-1.5 3.3-2 3.3-2s4.9-1.5 6.9-1.5 8 2.7 8 2.7-8.8 46.1-11.3 52.7-3.7 10.2-27.6 9.7a31.4 31.4 0 01-9.4-1.5h7.8l-6-1-3.6-.4H82zM21.6 15.6c3-4 29-3.6 36.3-2.4l3.5 15.4-.5-7.4-.5-4.2a.6.6 0 00.3-.5 1 1 0 00-.5-.2l-.7-2.6a.7.7 0 01.2 0l3.6 2.6a.3.3 0 000 .2.4.4 0 00.6.2c2.8 2 5.9 4.3 6 5.8 0 15.4-11.1 21.1-11.1 21.1s8.7 1 4.9 18.3-26 13.7-26 13.7-6.4 0-8.7 1.2c-1.5.7-8.2-.4-12.5-1.3v-2.3l-.2-3.6-.7-2.9-1.6-.9L21.3 17l1 .1H26l2-1.4zM336 67.2l26 1.1-1 4.4c0-.6-.7-.5-.8 0s.5.6.7.5l-.4 1.3c.1-.8-.6-.8-.7-.2a.5.5 0 000 .3c-.2 0-.4 0-.5.4 0 .6.5.5.7.5a.6.6 0 00-.1.3.4.4 0 00.1.4.3.3 0 00-.4-.2c0-.7-.5-.7-.7-.3-.2-.2-.6 0-.6.3-.1.7.7.5.7.5v-.2a.5.5 0 00.3 0v.2a.4.4 0 00.3.4l-.2.2c0-.6-.7-.6-.7 0a.4.4 0 000 .3c-.2.2-.5.3-.9.4 0-.5-.6-.5-.7 0a.4.4 0 000 .2l-.4.2c-.3-.6-.7-.3-.7.2h-.4c.2-1-.7-1-.8-.3 0 .3.1.4.3.5H354.6c-.1-.5-.7-.4-.7.1 0-.6-.7-.5-.8 0a.4.4 0 000 .2c.3-1.1-.7-1.1-.7-.5 0 .4.2.5.4.5h-.8c-.2-.8-.8-.5-.7 0H350c.7-.6.4-1 0-1 .2-.3.1-.6 0-.6.4-.6 0-1-.5-.7 0-.3-.4-.4-.7-.1-.4.5.3.8.3.8l.2-.2a.6.6 0 00.2.3c-.5.4 0 .7.1.8-.1.3.1.5.3.6h-.5c.4-.5-.2-.9-.5-.5a.4.4 0 00-.2.4h-.2c.2-.4-.3-.7-.6-.3a.5.5 0 00-.2.2c.6-.6 0-1-.5-.6a.4.4 0 000 .5 21.3 21.3 0 00-2.8-.3c-1.7 0-5-4.8-7.9-10L336 67zM292.7 79l-.7-1 1.4-1.2.5.4.1 1-1.3.8zm-14.9-1l1.6-.5.4 1-1.1.2-.7-.2a4 4 0 01-.2-.5zm71 .6s-.7-.3-.2-.8 1.1 0 .2.8zm5.9-.3s-.8.2-.7-.5 1-.6.7.5zm-7.6 0s-.7-.3-.3-.8 1.2.1.3.8zm6.7 0s-.8.2-.7-.5 1-.7.7.5zm-3-1c.3 0 .6.4-.2 1 0 0-.7-.3-.2-.8a.5.5 0 01.2-.1c-.1-.1-.6-.4-.2-.8.3-.3.5-.2.7 0a.6.6 0 01.1-.3c.4-.5 1 0 .5.6.3 0 .4.5-.2 1 0 0-.7-.3-.3-.8a.2.2 0 01.1 0 .3.3 0 10-.6.3zm2 .8s-.7.2-.6-.5 1-.6.7.5zm2.6-.8c.3-.4.8-.2.6.7 0 0-.6.2-.7-.3-.1 0-.7 0-.6-.5a.6.6 0 01-.4-.2 2.6 2.6 0 010 .3s-.7.2-.6-.5c0-.4.4-.6.6-.3.2-.5.8-.5.7.3.2 0 .5 0 .5.5zm-7.3.8s-.7-.4-.2-.8 1.1 0 .2.7zm-2-.2s-.8.2-.6-.4 1.2-.7.6.4zm12.2-.3s-.8.2-.7-.5 1-.6.7.5zM13.8 67.1l1.8 8.2-3-.7 1.2-7.5zm343.6 10.3s-.7.2-.7-.5 1-.6.7.5zm-10 0s-.6-.4-.2-.9 1.2.1.3.8zm6-.3s-.8.2-.7-.5 1-.6.7.5zm2-1c.2-.2.7 0 .5.9 0 0-.8.1-.7-.5a.8.8 0 01.1-.3c-.2 0-.7 0-.6-.5 0-.3.2-.5.4-.4a.5.5 0 010-.3c.1-.6.9-.6.8.2.3-.2.6.1.4.9 0 0-.7.2-.7-.5a.3.3 0 010-.1.6.6 0 01-.2 0 1 1 0 010 .7zm-7 .8s-.7-.3-.2-.8 1.2 0 .3.8zm-71.1-.9h1.7l.2.8h-.8l-1-.5V76zm72.9.6s-.7-.3-.3-.8 1.2.2.3.9zm7.7-.2s-.7.2-.7-.5 1-.6.7.5zm-6.6-.3s-.7-.3-.2-.8 1.2.1.2.8zm1.4-.1s-.7-.3-.2-.8 1.2.1.2.8zm1.9-.1s-.8.2-.7-.5 1-.6.7.5zm-103.8-2.7l-.7-1 1.4-1.2.5.4.1 1-1.3.8zm109.4 2.1a.3.3 0 00-.3.1 1 1 0 000-.6.7.7 0 00.3 0 .5.5 0 000 .4zm-1 0s-.8.1-.7-.6 1-.6.6.5zm-9.5-1a.4.4 0 01-.3-.4c.1-.6.8-.7.8.1.3 0 .6.5-.1 1 0 0-.6-.2-.4-.6zm-96.2-1.7l-.7-1 1.4-1.1.5.4.1 1-1.3.7zm101.7 2.2s-.7.2-.7-.5 1-.6.7.5zm-1.7-.1s-.7.1-.7-.5 1-.7.7.5zm6.2-.6s-.7.2-.6-.5 1-.6.6.5zm-1.6-.1s-.8.2-.7-.5 1-.6.7.5zm-1.8 0s-.8 0-.7-.6 1-.6.7.5zm-2-.3a.4.4 0 01-.3-.5c0-.4.4-.6.6-.4.3 0 .5.4 0 .8l-.1.2a1 1 0 01-.3-.2zM51 70.7l1.9-2.4 1.4 1.1-.3.6-1 .3-2 .4zM351 73s-.7-.3-.2-.8 1.2.1.2.8zm-3.5-.3s-.7-.3-.2-.8 1.2.1.2.8zm5.6-.2s-.8.1-.7-.5 1-.6.7.5zm4.5-.7s-.7.2-.7-.5 1.1-.6.8.5zm-1.3-.7s-.8.1-.7-.5 1-.6.7.5zM201 68.8l-.7-1 1.4-1.2.5.4.1 1-1.3.8zm159.9 1.6s-.7.1-.7-.5 1-.7.7.5zm-124.7-5.5c1 .6 2.6.2 4.4-.4a14.4 14.4 0 005.6-4.4c1.4-1.6 4.5-7.5 5-12.7s4.3-16.6-5.8-18l-3 1s-4.9 10.6-4.9 12.4-1.5 9.5-1.5 12.5-1.9 6.2-1 8.3a3.1 3.1 0 00.6.9L234 68l2.3-3zm135.2 2.7a61.4 61.4 0 011-18.7q1.7-6.5 3.1-13a40.7 40.7 0 013.4-10.1 8.9 8.9 0 013.3-3.1l2.4 2.5-1.6-2.7-.2-.2.4-.2 2 2.7L384 22l-.1-.3.4-.1.8 2.3-.3-2.6h.2v-.1l1.8 5-.3-3.1-.2-1.8-.3-.7a7.7 7.7 0 012.8-1.8c2.2-.8 6.3-1.8 6.3-1.8 1.1-2.3 12.6-2.7 12.6-2.7s8.7 4.3 10.8 5a54.6 54.6 0 016.2 3.3 8.6 8.6 0 011 .7c-.2 0-.3.4 0 .7a.8.8 0 00.3.2c-.2.1-.2.4 0 .7a.5.5 0 001 0 .9.9 0 00.1.2c.4.4.7.2.9 0a.3.3 0 000 .5c-.4-.3-.7-.3-.8 0-.6-.7-1-.2-.8.2-.3 0-.5.4-.1.8a.5.5 0 00.9-.2 1.7 1.7 0 00-.2-.2.5.5 0 00.3-.2.5.5 0 001 0 .4.4 0 00.1 0v.1c-.2 0-.3.4 0 .8v.3c-.2 0-.3.4 0 .8-.5-.5-1 0-.5.5a.5.5 0 00.6.2v.9c-.2-.5-.7-.3-.7.3a.5.5 0 00.7.5v.6c-.1 0-.3.2-.3.6s.2.5.4.5v.7c0-.9-.7-.9-.8-.3-.2-.3-.6 0-.6.4 0 .8.8.6.8.6V33a.5.5 0 00.3.1v.1c0 .4.2.5.3.6v.3a.7.7 0 000 .4.6.6 0 000 .4v.7c0-.9-.5-1-.7-.7a.5.5 0 00-.3 0c-.2-.2-.6 0-.6.5s.3.6.5.6h.2V36l.2-.2a.5.5 0 00.4.2l-1.7 1.5a.3.3 0 00-.3-.4c.7-.7 0-1.2-.4-.6a.7.7 0 00-.2.3c-.1-.2-.4-.2-.7 0a.5.5 0 00.1 1 .6.6 0 00-.2.1c-.4.5-.2.7 0 .9h-.1a.3.3 0 00-.4 0c.3-.4.2-.7 0-.8.6-.6.1-1-.4-.7 0-.4-.4-.5-.7-.1a.5.5 0 00.2.9l.2-.2a.5.5 0 00.2.3.5.5 0 000 1 .7.7 0 000 .2c0-.3-.4-.5-.7-.1s-.3.5-.2.6l-.6.3c.9-.8.2-1.3-.3-.8a.5.5 0 000 .9 4.9 4.9 0 01-1.7.3c-3.2 0-3.2.2-6.8.8s-4-.7-4-1.7a20 20 0 00-.7-6.9c-1-2.6-3.9-2.7-6.6-2.8s-5.8 1.8-7.3 3.5a3.5 3.5 0 00-.4.5l-4.9-.9 2.8 1.3 1.7.7c0 1 .5 2 .5 3.8a16.3 16.3 0 01-1 6.5 30 30 0 00-2.3 7.3c-.9 4.2.8 9.7 2 10.8a10.6 10.6 0 004.2 2.7 13 13 0 006.6.7c2-.2 2.1-2 3-4a4 4 0 000-3.3h5.1l-4.7-1-2.6-.5h-.3a26.9 26.9 0 01-2.7-.6c-1.7-.6-.6-2 .1-4l1.5-5s20.3-.3 21 .5-.1 4.4-.6 5.4-1.7 12.4-1.7 14a4.5 4.5 0 010 .5l-51-1.3zm-63-1.7c.4-1.7 1-3.3 1.1-4.1.3-1.4.5-4.5.9-6.8s2.2-11.5 2.8-13.6.7-12.4.7-12.4l2.4-7 1.7-5.5c2-1.2 5.3-.4 7-.6s4.1-.2 4.8 1.2 1.5.2 2.4-.3 1.8 1 3.5 2.4 6.5 15.7 7.8 18 1.6 3.8 2.8 3.8a.6.6 0 00.4-.1l.3 1.2-.5 1.2L349 46l-.8-3.5-1.1-2.2c1-1.5 2-5.1 2.7-6.5a91 91 0 002.4-13.6 5.5 5.5 0 012-3.5 5.3 5.3 0 002-.5l1.7.6.8 1 2.8-.3.6.2c2 .5 2.4-1.4 4.1-1s4.2.1 4.2 1.5-2.5 15.7-2.8 19.6c-.3 2.7-3.2 18.8-5.5 29.5l-26.6-.8c-2.9-4.9-7.1-10.4-7.1-10.4l-.2.5-.8-1.6.5 2.5a20 20 0 00-.5 2.3l-1 6.5-18.2-.5zm-194-1.7l-.6-1 1.4-1.1.5.3v1zM36.3 50.1a2.6 2.6 0 00-.7 1.3c-.5 2-.8 6.8-1 8.4s1 2.3 4 2.5 7-2.4 7-6.5 1-6.2-7.4-6.1l-.5-2-2.2-1.2.8 3.5zm109.3 5.7l1.8-2.4 1.4 1.1-.2.6-1 .3-2 .4zM40.2 26l-2 12.3s2.4 1.4 3.4 1.4a52.3 52.3 0 006.2-1.7s2-2.7 2-5.3 1.7-7.2-9.6-6.7zm381.5 14a.5.5 0 01-.2-1c.5-.6 1.3.1.2 1zm1.4-.6a.5.5 0 01-.2-1c.6-.5 1.3.1.2 1zm-1.8-.3a.5.5 0 01-.2-.9c.5-.5 1.3 0 .2.9zm-240-3l-2-2.2 1.4-1.2.5.4.2 1v2zm239 2.7s-.9.2-.6-.5 1.3-.8.6.4zm2.1 0a.5.5 0 01-.1-1c.5-.5 1.2.1.1 1zm3.2-.5c.2-.4 0-.6-.3-.6a1.4 1.4 0 00.5-.6.6.6 0 00.2.2c-.4.4-.3.7 0 .8l-.3.2zm-132.5-.5l-1 .1 1.3-1.1.5.4.1 1-1-.4zm128.7.2a.5.5 0 01-.1-1c.5-.5 1.2.1.1 1zm1.1-.6a.5.5 0 01-.1-.9c.5-.5 1.2 0 .1 1zm3.4-2.1c0-.8.9-.8.7.5a.8.8 0 01-.4 0 2 2 0 01-.5.5h-.1c-.1.2-.4.5-.7.2a1.8 1.8 0 01-.5.6.5.5 0 01-.1-1 .6.6 0 01.5-.1c0-.5.3-.8.6-.3a1 1 0 01.2-.2.7.7 0 01.3-.2zm-1.4-.1a.5.5 0 01-.2-1c.5-.5 1.2.1.1 1zm2.7-.4a.5.5 0 01-.8-.6c0-.7 1-.8.7.6zm.9 0s-.7.2-.7-.6.9-.8.7.5zm-1.9-.1s-.7.2-.7-.6.9-.8.7.5zm-.3-2l-.2.2a.5.5 0 01-.2-1c.5-.4 1 0 .7.5.2 0 .5.2.4 1.1a.5.5 0 01-.7-.5.9.9 0 010-.3zm-4 0a.5.5 0 01-.1-.9c.5-.6 1.2 0 .1 1zm5.8-.8s-.7.3-.7-.5.9-.9.7.5zm-1.2-1.6a2.3 2.3 0 010 .2s-.7.3-.7-.5c0-.5.3-.7.6-.4.1-.1.4 0 .8.2 0 0 .2 1-.5.6a1 1 0 01-.2-.1zm-3.5.2a.5.5 0 01-.8-.6c0-.8 1-.8.7.6zm4.7-1.6a.5.5 0 01-1 0c-.5-.5.1-1.2.9 0zm-2.6-1.8c-.4-.5.2-1 1 0a.8.8 0 01-.3.3.9.9 0 010 .3c.2 0 .5.2.8.6a.5.5 0 01-1 0 .6.6 0 01-.1-.3c-.2 0-.5-.1-.5-.5a.8.8 0 010-.3zm2.3.6a.5.5 0 01-1 .1c-.5-.6.1-1.2 1 0zm-6-.3a.5.5 0 01-1 .1c-.6-.5.1-1.2.9 0zm6.6-.4a.5.5 0 01-.9.2c-.6-.6 0-1.3.9-.1zM65.1 22.3s-.7 0-.6.4 1 .4.6-.4zm361 2.8a.5.5 0 01-.8.1c-.6-.5.1-1.2.9 0zm-1.8-.1a.5.5 0 01-.9.1c-.5-.6.1-1.3 1-.1zM62 21.4s-.7 0-.6.4 1 .4.6-.4zm365.2 3a.3.3 0 00-.2.3 1.4 1.4 0 00-.6-.6.6.6 0 00.2-.1.6.6 0 00.6.3zm-202.3-3.6s.8 0 .7.4-1 .4-.7-.4zm200.8 3a.5.5 0 01-1 .1c-.5-.6.2-1.3 1-.1zm-3.5-.2a.5.5 0 01-1 0c-.5-.5.2-1.2 1 0zM64.9 20.3s-.7-.1-.6.4 1 .4.6-.4zm-6-.1s-.7-.1-.6.4 1 .4.6-.4zm169-.3s.7 0 .6.4-1 .4-.5-.4zM62.2 20s-.7-.2-.6.3 1 .4.6-.4zm1.6-.2s-.7-.1-.6.4 1 .4.7-.4zm.2-1c.3.2.8 0 .5-.6 0 0-.8-.1-.7.4a.5.5 0 00.1.1c-.1 0-.6 0-.6.4a.4.4 0 00.5.3.3.3 0 000 .2c.1.5.9.5.7-.1.3 0 .7-.1.4-.7 0 0-.7-.1-.6.4a.8.8 0 00-.3 0 .5.5 0 000-.4zm-.8.1s-.7 0-.6.4 1 .5.6-.3zm161.8 0s.7 0 .6.4-1 .4-.6-.4zm5.9-.1s.7-.1.6.4-1 .4-.6-.4zm-3.3-.4s.8 0 .7.4-1 .4-.7-.4zm-1.5-.1s.7-.1.6.4-1 .4-.6-.4zM62 18s-.7-.1-.6.3 1 .5.6-.3zm2-.2c.3.3.8.1.5-.6 0 0-.6 0-.6.3-.2 0-.7 0-.6.4a.7.7 0 00-.3.1 1 1 0 00-.1-.2s-.7 0-.6.4a.4.4 0 00.6.2.4.4 0 00.7-.2.3.3 0 00.4-.4zm162-.7c-.3.2-.8 0-.5-.6 0 0 .7 0 .6.4a.3.3 0 010 .2c.1 0 .6 0 .5.4a.4.4 0 01-.4.3.3.3 0 010 .2c-.1.4-.8.4-.7-.2-.3.1-.6-.1-.4-.7 0 0 .7 0 .6.4a.8.8 0 01.3 0 .6.6 0 010-.4zm-164.6.2s-.7-.1-.6.4 1 .4.6-.4zm165.3 0s.7-.1.6.4-1 .4-.6-.4zm-164.4-.2s-.7 0-.6.4 1 .4.6-.4zm.9 0s-.7-.1-.6.4 1 .4.6-.4zm.7-.3s-.7-.1-.6.3 1 .4.6-.3zm-2.3-.2s-.7-.1-.6.3 1 .5.6-.4zm166.3-.1s.7-.1.6.4-1 .4-.6-.4zm-1.9-.2c-.3.3-.8.1-.5-.5 0 0 .6-.1.6.2.2 0 .7 0 .6.4a.6.6 0 01.3.1v-.2c0-.1.8 0 .7.4a.4.4 0 01-.6.2c-.2.4-.8.3-.7-.2a.3.3 0 01-.4-.4zm-162.9 0s-.7 0-.6.4 1 .4.6-.4zm-.7 0s-.7 0-.6.4 1 .4.6-.4zm81.7.7l-.7-1 1.4-1.2.5.4.1 1-1.3.8zm84.4-1.2s.7 0 .6.4-1 .4-.7-.4zm-.9-.1s.7-.1.6.3-1 .4-.6-.4zm-.8-.1s.7-.1.6.4-1 .4-.7-.4zm-.7-.3s.7-.1.6.4-1 .3-.7-.5zm2.2-.2s.7-.1.6.4-1 .4-.7-.4zm128.6.7c1-.5 1.6-1 2.1-.4l.8 1-.7-.3-2.2-.3zM536 163.5zm0 0zm0 0zm.1-.1l.2-.5c1.5-2.2 2-2 .4-3.5a4.2 4.2 0 01-1-1.7c0-.7-.2-.6 0 0-.3.2-1.7 1.2-.2 3.2a2.9 2.9 0 01.6 2.4v.3z"/>
</svg>
