<svg xmlns="http://www.w3.org/2000/svg" fill="none" viewBox="0 0 412 336">
  <path fill="#010101" fill-rule="evenodd" d="M50.8 4.5S61.7.2 67.9.2C74.2.2 82.8.1 87 2c4.2 2 7.9 4.3 9.6 5.5 1.7 1.2 2.5 9.2 1.8 10.5-.6 1.3 2.8-.4 2.8-5 0-4.7 2.6-11.3 3.2-11.3 4.5-.8 13.5-1 16.3.3 2.8 1.3 6.8 2 6.8 4.6 0 2.5-3 18.2-3 23.4 0 5.3-4.3 13.2-2.2 14.1 2 .9 5.5-11.3 5.8-17.3.4-6-.5-13.3 1.3-16.6 1.8-3.2 5.3-6.6 11-6.3 5.6.3 8.9-1.6 10.6-.2 1.7 1.4 2 8.3 2.5 10.3.4 1.9 2.4-7.7 4.3-8.6 2-.8 7-1.4 9.6-.5 2.6.8 5.9.4 8.2 2.1 2.4 1.8 1.6 13.2 1.6 13.2s2.7-13 7.3-13.8c4.6-.8 7.6-.8 10.6-.8s8 .2 9 3.2c.8 3-2 17.9-2.2 24.2-.4 6.3-2 10.3-1.2 12.8s0 .6 6.3.6c6.2 0 7.5-.7 9 1s1.8-4.1 1.8-9.3c0-5.1 1.9-16.3 3.2-19.6C222 15 222.5 7 225.3 5.2c3-1.9 9-1.7 13.8-1.7 4.7 0 8.2-1.3 14.4.5 6.3 1.8 13.1 2.3 15.9 4.3 2.8 2 3.2 5.8 4.3 9.3a61 61 0 011.7 7.7s2.6-6.2 3.2-8.8c.7-2.6-.5-7.2.2-9.5.8-2.4 4.5-2.8 8.7-2.8 4.2 0 7.4 0 10.4.8s4.3 3.4 4.7 6.4c.4 3 .4 5.6.4 5.6s2.5-6.5 3-9c.7-2.7 5.1-3 8.2-3 3 0 5.8.6 8.6 1.3 2.8.8 6 1.6 7 5.6 1 4 3.2 7.8 3.6 9.6.5 1.8.2-4.4 2.5-8.5 2.2-4.1-1.2-7.3 5.2-8 6.4-.8 6.5.9 10 .9s7.5-2.7 7.5 2c0 4.8-1.1 9.5-1.1 9.5s3.6-7 6.4-8.3c2.8-1.3 6.6-2.7 11.7-4.5C380.8 3 386.3.7 389.3.7s5.7 3.7 9.3 4.7c3.7 1 8 5.9 8 5.9l3.8 2.9s1.6 7 1.6 9.8c0 2.8-2.6 6.7-3.8 7.2l-7.1 2.2s3.6-1.3 5.4 1.7c1.9 3 .5 8.4.1 11.5-.3 3.1-2.2 6.3-2.2 10.2 0 3.8.8 8.1-1.6 9.7-2.3 1.6-4.6 4.1-4.6 4.1s1.5 4.2 4.7 4.5c3.2.3 5.1 1 5.9 5.3.7 4.1.4 7.9-.3 10.7-.8 2.8-3.2 6-5.3 6-2.1 0-5-.4-3.8 1.8 1.3 2.2 3.2 3 5 8.2 2 5.1 2.8 11.7 0 13.9-3 2.1-5.8 5.3-8.4 6.8l-7.3 4.3 4 3.3 8.2-.4.4 6.9-2.4 12.3c-.7 4-5.1 7.2-5.1 8.1 0 .9.6 1 3.4 4.7s2.1 11 2.1 15 1.3 14 1.3 19-.2 12.9-1 17.4a81 81 0 00-1.3 12.5c0 3.7.2 13.7-.1 16.8-.3 3.1-5.3.7-7.7 2.3-2.3 1.7 5.4 4.6 6.5 7.1 1 2.6-.9 5.5-1.2 10.2-.3 4.7.4 6.1-2.3 6.9-2.7.7-16.5-2.5-16.5 1.3 0 3.7-.9 16-.9 19.5s-1.6 11.2-2 14.3c-.4 3.2 2.7 8.6 3 11.3.3 2.7-12.1 15.3-12.1 15.3l-10.3-12s-8.2-1.3-8.9-5.3c-.6-4-3.6-9.8-3.6-9.8l3.7-17 5.2-17.7s-3.4 1.2-5.5.9c-1.5-.2-6.3 15.5-8.9 19.9-2.5 4.4-7.3 5.4-12.9 5.4a45 45 0 00-10 .7c-1.5.4-1.4 7.9-2.5 12-1 4.2-4 5.8-6.2 7.7-2.1 1.8-11.1 1.1-11.1 1.1-5.3-3-14.2-1.4-9.6-4.2l3.8-21.7s3.6-32.2 3-33.6c-.7-1.4-6.8 32.1-6.8 32.1l-3.7 15-1.6 8.7-4.9 2.9s-7.4.3-10.9-.7-7.3-3.2-7.3-3.2l3-22.3 3.7-32.8-3.7-.6-6.3 24.7.4 5.7s-.8 6.4-.8 10.5-1.4 14.7-1.4 14.7-2.5 4.8-8 5.4c-5.4.7-7.8-.2-7.8-.2l-7.4-.7-.4-7.5.2-16.1-8.2 23.1H212l-7.1-2-5.8-5.2 3.1-17.2 3.4-11.1-5-7-12 1.6 10 5.7-.6 8s.5 4.4-.4 7.3c-.8 3-5.1 12.3-8.2 15.7-3 3.3-10.6 4.8-10.6 4.8s-17 2.1-22.3 0c-5.3-2-10.2-5.5-10.5-8.2-.4-2.7-1.9-10.1-7.1.6-3.4 7-3.6 5.3-10 6.6-6.2 1.3-17.2-.4-22.4-1.1-5.4-.8-7.8-8.1-7.8-8.1l-6-9 4-11.8 11-1.8s-7.5-3.3-7.6-8.5c0-5-1.9-10.4 2.3-14.7 4.2-4.3 10-12.4 10-12.4l8.5-4.3-10.2-3.1s-2.8-4.2-4-7c-1.3-2.8-4-13.9-4-13.9l6-14.3 9-1.2 9.9.3 8 .5 6.9 3.6s-1.3 8.5 1.5 7 3.8-23.8 3.8-23.8 2.7-7.3 2.7-13.2c0-5.9 8-16.5 1.6-16.8-6.4-.3-6.1-3.8-12.6-2-6.5 2-21.2-3-21.2-3l-7.7-16.4 6-13s3-5.9 5-9.4c2-3.6 10.4-16.6 10.4-16.6l-12-4-6.7 4.9-3.6 18.7-13.9 11.5s-6.8 5-13.9 5c-7 0-9.4 1.2-17-2.4-7.4-3.7-10.7-7-10.7-7l-10.8 4s-5.5 2.6-12 3c-6.3.3-11.6 1.2-16.7-.7-5-2-12.7-10.3-12.7-10.3s-2.9-13.7-1.6-19c1.3-5.4 5-16.8 5-16.8l7-17 8.4-6.4 15.8-1.8s-.3-3.9 1.9-8.9c2.2-5 3-25.3 3-25.3l3-22.4s2.5-4.6 6.4-7.2z" clip-rule="evenodd"/>
  <path fill="#fff" fill-rule="evenodd" d="M364.5 254h4.6l9.3-.7c.7 0 1.6 3.5 1.4 2.3-.3-1.1.8-1.8.8-1.8l1.9.2h4l1.2-2v2.4l1.6 1 .6 3.3v2.5l-1 8.3h-7.1s-1.5-.4-1.3-1.6c.2-1.1-1.4-2.8-1.1-2.1.2.6-.2 1.7-.2 1.7l-1 1.3-1.2 1-3.4.1-.7 2-1 3.5v3l.7 5h-1.2l.4 4.3-1.1.2.3 8.7-1.5.2v3.8l-1.3.5-.3 4.6s-.6 4.9-.4 5.7c0 .5-.7 1.3-1 2.4h-.2l.1.4c0 .5 0 1 .2 1.7l.9 2.4-.6.2-.3-1.3-1.8.6.5 1-1.1.4-.3-1.3-1.8.6.7 1.3h.1l-1 .4.7 1.4 1.5-.1-.4-1.7h.2l.5 1h.6l-.2.6-1.3.4.7 1.4h.2v.7l-.5.1.3.5-1.5.5.7 1.4h.6v3s-1.7-1-1.8-3.3c-.1-1.7-.2-1.6-.3-2.3h1.2l-.4-2-1 .4v-.2h.4l-.4-1.9-.5.2-.2-.6h1.3l-.4-1.7-.4-2-1.8.7.8 1.4h.5l-1 .3h.1a2 2 0 00-.2-.2l-.1-.3-.5.1-2.4-.8-3.4-.2-.7-1.3s-.6-1-.6-1.9c0-.9-2-2.7-2-2.7l-.2-1.2 14.4.2-14.4-.4-.4-1.9 1-1.7.5-3.6.5-3.6.5-1.7.5-5.6.7-4.7.8-4.2 1.4-6 .5-5 .6-2.7-1.2-.2h-3.2l-3.5-.1c-1.6 0-4.7-.9-4.7-.9l.9-6.3.3-4 .5-2.7 2-.8h3.3l2.9-.2h2.2l.4 4.9 1-4.8h2l.6 6 1.2-6h.4l.9 9.2 1.9-9.2zm5.7 72.4l.4.8a12.6 12.6 0 01-.8-.7h.4zm-4-4.3h1.4l-.3-1.4.6 1h.7l.2.5-.2.1.6 1.2.3 1-1.4.7c-.2 0-.4-.3-.6-.5h.8l-.3-2.2-1.7.7-.1-.2v-.9zm1.9-2l-.9.2v-.2l-1.3.5-.3-1.4.8-.1.5 1h1.2zm-4-4.4l.4 1.9h-1.6l-.7-1.3 1.8-.6zm2.2-.6l.5 1.9h-1.5l-.8-1.3 1.8-.6zm-120 1h-2.6l-2.4-.3-2.3-.3-2.3.4s-.9-.1-1.8-.6c-.8-.4.6-1.6.6-1.6l-2.8 1.7c-.7.6-2.6 0-2.6 0l.6-7.4 15.8.2-.1 8zm20.6-2h-4.7c-1.5 0-3.5-.4-3.3-1.5.1-1 1.8-2.8 1.8-2.8l.7-1.3h4.2l-.5.2.6 1h.5l-.7.2.6 1.1h1.2l-.4-1.3-.3-1.2h.5l.6 1h1.2l-.3-1h.6l.3.7h1.2l-.1-.6h.6-.3l.6 1.2h1.2l-.3-1.2h1.4l-1.2.4.6 1h1.2l-.4-1.3h1.9l-.7.2.6 1h.4a3.6 3.6 0 000 .6l-1 .3.6 1v.5l-1 .2.5.7-1.4.3-.1-.6h.9l-.4-1.2h.9l-.4-1.4-1.4.4.5.9-1 .3.6 1h.1l-1.3.4.7 1h1.2l-.2-.5.5.8h.7l-.5 1h-1l-.1-.7-1 .4-.5-.3h.1l-.3-1.6-1.5.6.3.6h-.4l-.2-.6-1 .3-1.3-.1h.3l-.4-1.5-1.4.4.6 1zm23.4-5.2l16.4.3v.8l-1 .5s.1 1.6-1.2 1.6-.6.1-1.8 1.6c-1.3 1.4-.5.8-1.7.8l-3.3.2c-1.3 0-2.9.5-4 .7-1 .3-3 0-3 0l-1-1.4.2-2.6.4-2.5zm-140-4.4l38.4 1.7a24.6 24.6 0 01-3.4 4.4c-3 2.8-9 4.3-9.9 4.2-.8-.2-1.6.5-3.2.5-1.7 0-4.2 0-6 .2-1.7.2-2.7 0-4 0-1.2 0-2-.3-2-2.1 0-2-1-4.4-1.5-5-.4-.4-2 0-2 .8 0 .7.2.5 1.6 1 1.5.5.3 3.8.3 3.8l-3-1.2c-1.2-.5-1.6-.8-3.6-2.5-1.1-1-1.5-3.6-1.7-5.8zm70.4 3v.3l-.3 3.1-1 2s0 3-1 2.1c-1-1-4.2-.8-6.3-1.9l-.6-.3c0-1.7-.1-3.7-.8-5.6l10 .4zm-95.5-54c1.2-.4 2.4-.7 3-.5 1.1.3 5.3-.5 5.3-.5 1.5 0 5-.2 7 .4 2.2.5 1.8 2.3 3.5 2.7 1.6.4 1 0 2.8 1.1 1.8 1.2 3.9 5.6 4 7.4.3 1.8-2.5 5.2-3.6 6.4a7 7 0 01-3.6 2c-1 .3-1.7 1-2.2 2.3-.5 1.1-2 .3-3.8.3-1.8 0-2-.9-1.7-1.7.2-1 1.3-1.4 1.3-2.2 0-.8-1.5-.5-2.1-1.7-.6-1.2-1.8-3.8-3.5-3.9-1.6-.1-3.3.5-5.6 1.8-2.2 1.3-1.2 4.7-.3 6.2.8 1.6 5.9 3.6 6.4 3.8.5.3.1 1.6.4 2.1.3.5 1.4-1 1.4-1l.5 2s1.4-.2 1.9.4c.5.6.6 1.9.6 1.9l1.3-1s1.5.8 2 1.6c.4.9 1.5.4 2.2.8.7.4 1.2.8 1.8 1.9.6 1 .6 4.7.6 7.8 0 3.2-2.8 7-3.8 8.7l-.7 1-36-1.1 35.6 1.6-4.3 5.4s-.4-3-.8-3.7c-.3-.9-1-.2-.8 1.2 0 1.3.3 2.5.2 3.5 0 1-2 1.4-2 1.4s-.8-2.3-.8-3.6c0-1.3-1.2 1-1.2 1l.7 3.1c.2 1.2-4 1.9-4 1.9s-9.1-.3-11-.1l-5.6.1c-1 0-2-.5-3-1.2-1.2-.7-2-2.6-2.8-4.2-.8-1.6-2-2.2-2.9-3-.8-.6-1.3-.8-1.3-1.8l.4-7.9s.2-1.8 1.3-2.4c1-.5 3.1.2 5.6 0 2.5-.3 3.4-.5 5.7 0l2.8.8.1 4.7c.1 1.5 3.3 2.5 5.5 2.7 2.2.3 4.7-2.6 5.8-3.6 1-1-.2-4-1-4.9-.9-.9-3.3-2.5-4.4-3-1.1-.6-2.5-.9-4.3-1.4-1.9-.4-6.4-4.5-7.2-5-.5-.3-2-1.6-2.8-4.6.2-.1.1-.3 0-.4v-.1l-.2-.5h.3c.6-.2.6-.4.5-.6 0-.1-.3-.2-.7-.1h-.2v-.8c.3-.1.2-.3.2-.4l-.3-.2h.2c.3-.3.2-.4 0-.5h-.2V275.5h.7v.1s0 .3.7.3.7-.2.7-.4c0-.1-.2-.3-.7-.3h-.1v-.2c-.1-.1-.3-.2-.8-.1a2 2 0 00-.5.1c.3-.2.2-.3 0-.4V274.4h.1l.3-.1h.1l.3.2.6.1h.2v.1s0 .3.7.3h.2v.1l.2.1v.2s0 .2.6.3v.2s0 .3.8.3c.6 0 .7-.3.7-.4 0-.2-.2-.3-.7-.3v-.2c0-.1 0-.2-.3-.3v-.3c0-.1-.3-.2-.7-.1v-.2c-.1-.2-.3-.3-.8-.2h-.2l-.3-.2c0-.2-.3-.3-.7-.2h-.3l-.6-.2v-.3l.2-.1c.1 0 .2 0 .3-.2.4 0 .4-.3.3-.4 0-.1-.2-.2-.5-.2h-.2v-.1l.4-.1c.6-.2.6-.5.5-.6-.1-.1-.3-.2-.7-.1v-.5h.6c.4-.2.5-.3.5-.5l.3.1c-.3.2-.6.4-.3.6-.3 0-.6.2-.3.5l.2.1s.2.2.6.2c.7 0 .8-.2.8-.4l.3-.1.3-.1v.1c-.2.1-.3.2 0 .4 0 0 0 .2.5.2l.2.1s.1.2.4 0h.2c.7 0 .8-.3.8-.4 0-.2-.2-.3-.7-.3v-.2c0-.2-.2-.3-.7-.3h-.5v-.1l.1-.2h.1s.2.2.6 0h.5v.3s0 .3.7.3c.6 0 .7-.3.7-.4l-.2-.2c.3-.3.2-.5 0-.6l-.6.1c0-.1-.3-.3-.7-.2l-.4.1h-.5a1 1 0 00-.2.4l-.2-.1.5-.3c.7-.2.6-.5.6-.6l-.4-.2.3-.1s.1.3.7 0c.3 0 .4-.1.5-.2h.4c.7 0 .8-.2.8-.3l.1-.2c.1.1.3.2.8 0 .6-.2.5-.4.4-.5 0-.2-.3-.2-.7-.1l-.1-.2c0-.1-.3-.2-.7 0-.4 0-1 .3-.5.5v.2l-.7.1a1 1 0 00-.5 0c-.2.1-.5.2-.6.4 0-.1-.2-.1-.4 0-.2 0-.5.2-.2.3l.1.1-.7.4h-.1l.1-.1c.3-.5 0-.7-.1-.7-.2-.1-.4 0-.6.2-.2.3-.3.8.2.8l-.1.1a1 1 0 00-.5 0c-.3 0-.8 0-.8.2h-.5l-.2.1.3-1h.2c.6-.4.4-.6.3-.7l-.3-.2h.5c.7-.1.7-.3.7-.5l.4-.1h.8v.1h-.2c-.3 0-.5.2-.3.5 0 0 0 .2.5.1.3 0 .3-.2.3-.3h.5c.4 0 .5 0 .6-.2h.7c.7-.2.6-.5.5-.6 0-.1-.3-.2-.7 0h-.4v-.1c.7-.1.7-.3.7-.5l.2-.1c0 .1 0 .2.2.3 0 0 .2.2.7-.2.4-.3.3-.5.1-.7l-.6.1c-.1-.1-.3-.3-.8-.2l-.3.1h-.3c.6-.2.5-.5.4-.6 0-.1-.3-.2-.7-.1-.4 0-.9.3-.5.6 0 0 0 .2.5.1-.3.1-.6.3-.3.5h.1c-.2.2-.2.3 0 .5l.2.1-.2.1h-.1c0-.1-.3-.2-.7-.2a3 3 0 00-.4 0h-.2l.1-.3c0-.1-.2-.3-.7-.2h-.3c0-.1 0-.2-.3-.3v-.1h.2s.3.1.5-.4c.2-.4 0-.6-.1-.6.4-1 .9-1.8 1.4-2.6h.1l.2.2.2.1s.2.2.6 0h.2s.2.2.6-.2c.4-.4.2-.6 0-.7l-.5.1h-.8-.2l1-1.2h.4l.1.2s.1.3.7 0c.7-.1.6-.3.5-.5 0-.1-.2-.2-.6-.1.3-.2.2-.3.2-.4l-.4-.2c3.7-3.7 8-5 9-5.4a44.6 44.6 0 012.6-1zm240.6 58.4l.5 1.9h-1.6l-.7-1.3 1.8-.6zm-96.1.4l.4 1.5H269l-.6-1 1.4-.5zm5.8 1.3v.1l-.2-.5.2.4zm-10-1.4l.4 1.4h-1.2l-.7-1 1.4-.4zm6.6-.7l.4-.1.5 1.4h-1.2l-.5-.8.3 1h-1.2l-.6-1h.1-1l-.4-.8h-.1l.4 1.3h-1.2l-.7-1 .9-.3h-.1l-.7-1 1.4-.5.4 1 .8-.2-.4-.8 1.4-.4.3 1 .8-.2 1.1-.2.5 1.4H272v.2zm-5.3-.2l.4 1.5H266l-.6-1 1.4-.5zM204 307l3.7.1c.5.8 1 1.5 1.3 2.3.5.8.8 2 1.1 3h-1.6c-1 0-2.2-.3-2-1 .3-.7.2-.8 0-1.6-.3-.9-.6-.6-.8-1a9.9 9.9 0 00-1.7-1.8zm60.2 3.8l.5 1.5h-1.2l-.7-1 1.4-.5zm6.7.8l-.4-.7h-.6l.3 1 1-.2v.1l.8-.2h-1zm-5.7-2l.4 1.5h-1.2l-.6-1 1.4-.4zm101.5-1.3l.4 1.9h-1.5l-.7-1.3 1.8-.6zM310 294.9l-.3 1-1.5 4.2s-.4 4.6-1 5.2c-.3.4-.5 1.9-.5 3.1l-16-.5.4-1.2.8-3.5.1-2.6.4-2.7 1.4-6.6c.5-1.9.7-4.2.7-4.2l1-4.8.7-3 1.5-8-.6-3.9 1.1-.3-.2-4.7 1.2-.2-.5-4.8 1.2-.4.1.1.8-.8-.5-.3.7-.7.4.3-.6.4.7.6-.6.4.8.8.8-.8-.7-.4.6-.6-.8-.5h-.2l.8-.7-.9-.4-.7.4.3.3-.6-.3h-.1v-1.1l.6.6.7-1-.7-.5.5-.1.5.5.7-.7.5-.1-.5.3.8.8.8-.8-.3-.1.4-.4 1-.2h1v.1l.8.8.8-.7h.5l-.8.4.9.8.7-.8-.7-.4 1.5-.1c2.1-.2 12.6.5 14.2.5 1.5 0 3.3 0 4.6.5 1.3.4 2 .5 6.2 1.4 4.2.9 5 8.1 5 8.1v7l-.3 4.8c0 1.4-1.5 6-3 10.6s-7.6 7.4-10.5 9c-2.8 1.7-10.4.8-11.2.7l-10.4-4.9 5.5 5zM261.9 307l.2-.7.3-1.3.2-2.3s-1-3.2-1-3.9c0-.7.6-2 .6-2l1.7-10 1.6-6.5.6-2.2.1-3.7c.2-2.2.1-4.5 1.8-6.8 1.8-2.3.5-10.3.5-10.3l.7-1.7V252s1-.2 1.8-.8c.9-.7 2.7-1.4 2.7-1.4 3.8-.8 8.6.2 9.7.2 1 0 2.3 1.7 2.3 1.7v4s.3 4-.8 4c-1.2 0-1 1.8-1 1.8l1 .8-.7 1.8-.5 3.3v2.2l-.4 2.4-1 3.1-.4 5.9c-.1 2.4-.8 6-.8 6l-1.3 4.9v4l-1.3.5-1.1 7.2-.7 3.5-1.2.4h.1-2l-.3-.7-1.4.3.2.4h-.2l-.3-1-1.4.4.3.5-8.6-.2zm7.8-1.8l.5 1.4H269l-.7-1 1.4-.4zm-38.4-12.5h-.9l-1.1-5.5-1.6 5.6h-.7s-1.6-1.2-1.9-1.1c-.3 0-1.4 2-1.4 2l-.3 4.5-2 5.6-.4 2-11-.3a7.4 7.4 0 00-4.5-3.9l.2-4.5 1.6-4 .8-6.3 1.4-4.1v-4.6l.9-.3v-4.3l1-.6-.3-4.1 1-.8-.3-4 1.2-.4-.2-4.3 1.4-1-.7-3.1.9-1 .3-2.9H227l15.1.3 7.7.6.4 2.1 1.4 1.3s2 1 2.2 2.3c.2 1.3.9 7.4-.3 8.7-.6.7-.7 1.6-.6 2.9l-.5.2c-.3.3-.2.5 0 .6l.4-.2c0 1 0 2.5-.2 4.4-.4 3-2.7 5.6-4.4 7h-.3c-.3.1-.2.3-.1.4l-1.4 1-.7.7s-.1-.2-.3-.1c-.3.1-.2.3-.2.4.1 0 .2.1.4 0-.2.5-.1 1 .4 1.6 4.2 2.7 2.4 12.3 2.2 14l-1.6 6.7v.3l-15.6-.4v-1l.6-3.9.7-2.7s.9-3.4.6-5c-.2-1.6-1.5-.9-1.5-.8zm-26.2 10.4l1.7 2.3h-2.2v-.3l.5-2zm-54.8.6v-2.3c0-1-.7-1.8-.7-2.8 0-1 .3-2.9.3-2.9l1.3-1.6-.4-3.2 1-1.4-.3-3.1 1.4-.8-.1-3 1-1.3s-.2-2.5.2-3.7l.6-2.4s.3-2 .9-3c.6-1 2-7.7 3-9.6 1-2 4-7.6 5.2-8.4 1-.8 1-.7 2.8-.4 1.9.3 2-.1 2-1.2 0-1.1-1.2-.8-2.7-.7-1.5.1-1.5.9-2.6 1.2-1 .4-2.8-.4-3.6-.5-.7-.2.4-.8 1.7-1.4 1.4-.5 1.4-1 3-1.3 1.5-.4 2.5.4 3.5.4s3-.5 4.3-1.3c1.4-.8 1.4-.4 4.2.3 2.8.8 2.2.2 5.3 0h.2l-1.2.4.6 1h1.2l-.4-1.3c3 0 6.2.6 9 1.2 3 .6 7.2 5 7.8 6.7.6 1.6.5 4.3.5 6.2 0 2-.4 4.2-1 5.5-.5 1.4-.6 3.9-.6 3.9l-4.7.1-2.5.4-2.7-.1-2.9.1c-1 .2-1.9-.6-1.9-.6l.3-2.8s.3-1.3.9-2.7c.6-1.4-.1-2-1-3.5-.7-1.5-1-1.3-2.1-.9-1.2.4-2 0-3.6.6s-1.5 1-2.8 2.3c-1.3 1.4-1.8 4-1.8 4l-.8 5.2-1.2 3.3-1 4.2v3.6l-.9.8-.5 4.4c-.2.8-.8 5-.7 6.8 0 2 2.3 2.3 3.2 2.7.8.5 2-.4 3.5-.7 1.6-.3 2.6-2.4 3.3-3.4.7-1 .8-2.5 1-3.7a7.2 7.2 0 012.1-3l1.3-1.1.9 1.2 1-.3h3.5l.9 1.4 1.8.7s.7-.7 1.8-1c1-.2 1.6.4 1.6.4s1 1.1-.5 5.6c-.8 2.4-2.2 5.3-3.8 8l-39.1-1.2zm216.1-.9l.5 2h-1.6l-.7-1.4 1.8-.6zm-96.1-.4l.4 1.5h-1.2l-.6-1.1 1.4-.4zm-.4-4l.4 1.5H269l-.6-1 1.4-.5zm93-3.4l.5 1.9h-1.5l-.7-1.3 1.8-.6zm-96.1-2.7l.4 1.5H266l-.6-1 1.4-.5zm53-10.3c.6-.5 1.6-1.6 2-3.4.6-2.7 1-5 1.1-6.2.1-1.2.3-2.4.1-3.8-.1-1.4-.9-1.8-1.8-2.1-1-.4-5 .2-5 .2l-1 2.1-.8 4-.7 2.9-.3 2-.5 1.4-.1 3.2h5.2l.6 5.6 1.2-6zm-77.9 3.4s0-.2-.2-.1c-.3 0-.3.2-.3.3 0 .1.1.2.3.2.2 0 .4-.1.2-.4zm3-1.2s0-.2-.3-.1c-.2 0-.2.2-.2.3 0 .1.1.2.3.2.1 0 .3-.2.2-.4zm-2.1-.3s0-.2-.3-.1c-.3 0-.3.2-.2.3 0 .1 0 .2.2.2s.4-.2.3-.4zm1.6-1.6s0-.2-.5-.1c-.4 0-.4.2-.4.4 0 .1.2.2.5.1.3 0 .6-.2.4-.4zm1.2-.5c0-.1 0-.3.4-.4l.5.1c.2.3-.2.4-.4.5l-.3.3-.3-.1.1-.4zm-.5-.6s0-.2-.4-.1c-.5 0-.5.3-.5.4 0 .1.2.2.5.2s.6-.2.4-.5zm2.6-1h-.5c-.3.3-.3.5-.2.6 0 .1.2.2.5 0 .2-.1.5-.4.2-.5zm-1.4.1c-.1.2-.3.3-.4.2 0 0-.2-.2 0-.6.3-.4.4-.2.4-.2.2 0 .2 0 .2.2h.1c.4-.3.5 0 .5 0 .2.1 0 .4-.3.5h-.5zm-15-15.4l-.4-4s-3.3 5-2.3 7.2l-.7 3.4s.4 3.2-.2 3.8c-.6.7-.6 2.7-.6 2.7v1.6l6.5-.2s1.5-1.8 2.5-3.8c1-1.9 2-6 1.7-7.6-.2-1.6-1.8-3.4-2.5-3.6-.5-.2-2.6.2-4 .5zm16.2 13.7s0-.2-.5 0c-.4.2-.3.4-.3.5 0 .2.2.2.5 0 .3 0 .5-.3.3-.5zM109 279c-.6.1-.7-.1-.7-.1-.4-.3.1-.5.6-.6.4 0 .6 0 .7.2v.2c.5-.1.7 0 .8.1 0 .2 0 .4-.6.6-.6 0-.7-.2-.7-.2l-.1-.2zm139.8-.2s-.1-.3-.5 0c-.4.2-.3.3-.3.5h.5c.3-.1.5-.4.3-.5zm-139.2-.6s0 .2.7 0c.6 0 .6-.3.5-.4 0-.2-.3-.3-.7-.2-.4 0-1 .3-.5.6zm140-1s-.1-.2-.4.1c-.3.4-.2.5-.1.6 0 .1.2.1.4-.1s.4-.5.1-.6zm-1.5-.2s-.2-.1-.3.3c-.1.5 0 .6.2.6 0 0 .2 0 .3-.3.1-.3.1-.7-.2-.6zm-1.2.2s0-.3-.4-.2c-.3.2-.2.4-.1.6 0 .1.2.2.4.1.2 0 .4-.3.1-.5zm1.6-1c.4 0 .4.2.4.2.2.3-.2.4-.4.5-.3 0-.5 0-.5-.2h-.2c-.3 0-.4 0-.4-.2 0 0 0-.3.4-.4l.4.1h.3zm-2 .2s0-.3-.4-.2c-.4.1-.4.3-.4.4 0 .2.2.3.5.2.3 0 .6-.2.4-.4zm.6-.7l.4.1c.2.3-.1.4-.4.5-.3 0-.5 0-.5-.2v-.2c-.3.1-.4 0-.4-.1s0-.3.4-.4c.4-.1.4.1.4.1v.2zm1.7-.4s0-.2-.5-.2c-.4.1-.4.3-.4.5 0 0 .1.2.4.1.3 0 .7-.2.4-.4zm-1.5-.5s-.2-.3-.4-.2c-.3.2-.2.4-.2.6.1.1.3.2.4.1.2 0 .4-.3.2-.5zm-135.8.3s0 .3.7.3.7-.3.7-.4c0-.2-.2-.3-.7-.3-.4 0-1 0-.7.4zm138.5-.6s-.2-.2-.4 0c-.3 0-.2.3-.2.4.1.2.3.3.4.2.2-.1.4-.3.2-.6zm-1 0h-.4c-.2.1-.1.3-.1.4 0 .1.2.2.3 0 .2 0 .3-.1.1-.3zm2-.2s0-.2-.3 0c-.2 0-.1.2 0 .3 0 0 0 .2.2 0 .2 0 .3-.1.1-.3zm-1.5-.2s0-.2-.4 0c-.3.1-.2.3-.2.4 0 0 .2.1.4 0 .2 0 .4-.2.2-.4zm-139.2 0s.1.3.8.2c.6-.1.6-.4.5-.5 0-.2-.3-.3-.7-.2-.5 0-1 .3-.6.6zm137.2-.6s0-.2-.5 0c-.4.2-.3.4-.2.5 0 .1.2.2.4 0 .3 0 .6-.3.3-.5zm-138.2.5s.3.1.6-.3c.2-.5 0-.7-.2-.7-.2-.1-.4 0-.6.2-.2.3-.3.8.2.8zm2.4-.5s.1.2.4 0c.3-.2.2-.3.1-.4 0-.1-.2-.1-.4 0s-.4.3-.1.4zm137.6-.6c0-.1 0-.2.3-.3.4-.2.4 0 .4 0 .3.1 0 .4-.2.5l-.4.4c-.2.1-.4 0-.4 0h-.2c-.3.2-.4 0-.5 0 0-.1-.1-.3.3-.5s.5 0 .5 0l.2-.1zm.3-1.2s0-.2.4-.3c.4-.2.4 0 .4 0 .3.1 0 .4-.2.5-.2 0-.3.1-.4 0 0 .2-.1.2-.2.3h-.2l-.4.2c-.2.1-.3.1-.4 0-.1.2-.3.3-.4.3.3.3 0 .5-.2.6-.3.2-.5 0-.5 0v-.2c-.3.2-.5.1-.6 0 0-.1 0-.3.3-.5l.3-.1c0-.2 0-.4.4-.6.5-.2.6 0 .6 0v.2l.3-.2c.4-.2.5 0 .5 0l.2-.1h.1zm2.2-.4s0-.2-.4 0-.4.4-.3.5c0 0 .2.2.5 0 .2-.1.5-.3.2-.5zm-4.7 0h-.3c-.2.1-.2.3-.1.4h.3c.1 0 .3-.2.1-.3zm2.6-.7l.4-.4c.5-.2.6.1.6.1.3.3 0 .6-.3.7-.4.2-.6.1-.7 0-.2.2-.4.1-.4 0-.1 0-.2-.2 0-.4.3-.2.4 0 .4 0zm-.8-.3s-.1-.3-.6 0c-.5.2-.4.4-.3.6 0 .2.3.3.6.1.3-.1.7-.4.3-.7zm2.3-.8s-.2 0-.3.4c-.2.4 0 .5.1.5s.3 0 .4-.3c0-.3.1-.6-.2-.6zm-3.7.2s0-.2-.3 0c-.2 0-.2.2-.1.3 0 0 .1.2.3 0 .1 0 .3-.1.1-.3zm-132.6-.1s0 .2.7.3c.7 0 .7-.3.7-.4 0-.2-.2-.3-.7-.3-.4 0-1 0-.7.4zm134.4-.3h.3c.2.2 0 .4-.1.5h-.4c0-.1-.1-.3 0-.4l.2-.1zm2.3-1.2s-.2-.2-.5.2c-.4.5-.2.7-.1.8.1.2.3.2.6 0 .2-.4.4-.8 0-1zm-2.3.2v-.1c.1-.7.4-.5.4-.5.4 0 .3.5.3.9-.1.4-.3.5-.5.4a.4.4 0 01-.2-.3h-.3s-.2-.2 0-.4h.3zm-133 .2s-.1.3.6.3.7-.2.7-.4c0-.1-.2-.3-.7-.3-.4 0-1 0-.7.4zm132.3-.8s0-.2-.5 0c-.3.2-.3.4-.2.5 0 0 .2.1.4 0 .3-.1.6-.3.3-.5zm-139.6-.6h.1s0 .2.4.3c-.2 0-.3.2 0 .4h-.5-.3l.3-.7zm5.8.4s0 .3.7 0c.6-.2.5-.4.5-.5-.1-.2-.4-.3-.8-.1-.4.1-.9.4-.4.6zm4.2-.5s0 .3.4.3.4-.2.4-.3c0-.2-.1-.3-.4-.3-.2 0-.6 0-.4.3zm130-.5s0-.3-.5 0c-.4.1-.3.3-.2.5 0 0 .2.1.4 0 .3-.1.6-.4.3-.5zm.8 0c0-.2 0-.3.3-.4.4-.3.5 0 .5 0 .2 0 0 .2 0 .4l-.5.4c-.2.1-.4 0-.4 0 0-.1-.1-.3 0-.4zm-135.2.3s.1.2.5.1c.4 0 .3-.3.3-.4l-.5-.2c-.3 0-.5.2-.3.5zm198.9-.2l-.9-.8.8-.5.8.5-.7.8zm-199.1-2.2c-.6 0-.6-.2-.6-.2h-.3c-.7 0-.7-.2-.7-.2-.3-.3.2-.4.7-.5.4 0 .6.1.7.2h.3c.4 0 .6.1.7.3l-.1.2.1.2.4-.1c.5 0 .7 0 .7.2v.2c.5 0 .7.1.7.3l-.1.3.2.2c0 .1 0 .4-.7.4l.2.2c0 .1 0 .3-.4.3s-.4-.2-.4-.2c-.1-.3 0-.3.3-.4-.4 0-.4-.2-.4-.2v-.3c-.1-.2-.2-.2-.1-.3h-.6s-.2.2-.7.2c0 .1 0 .3-.7.3-.6.1-.7-.2-.7-.2-.3-.3.3-.4.7-.4-.2-.4.3-.4.8-.4zm137.8 1.1h.1c.4-.2.5 0 .5 0 .3.2 0 .4-.3.5h-.5-.1c-.3.2-.5.1-.5 0s-.1-.3.3-.5.4 0 .4 0zm-1.5-.4l.1-.1c.3-.4.5-.2.5-.2.2 0 .1.3 0 .5.3.2 0 .4-.3.5-.2.2-.4.1-.5 0v-.2c-.3.2-.4.1-.5 0 0-.1-.1-.3.3-.5.3-.1.4 0 .4 0zm-130.1.4s0 .2.4.2.4-.2.4-.3c0-.1-.2-.3-.4-.3-.3 0-.6 0-.4.4zm129.2-.9s-.2 0-.4.3c0 .5 0 .6.2.6.1 0 .3 0 .4-.3 0-.3 0-.7-.2-.6zm2.6-.2s-.1-.2-.5 0-.4.4-.3.5c0 .1.2.2.5 0 .2 0 .5-.3.3-.5zm-135.5 0c-.5 0-.5-.2-.5-.2-.4-.3.2-.4.6-.5.5 0 .7.1.7.3v.1c.5 0 .7.2.7.3 0 .2 0 .4-.7.4s-.7-.3-.7-.3zm-5.8-.1l-.4-.1c-.5-.3 0-.5.4-.6.4-.2.7 0 .8 0l-.1.5.1.1c0 .1.1.3-.3.4-.3.1-.4-.1-.4-.1l-.1-.2zm198.1-.5l-.8-.8.7-.5.9.5-.8.8zm-56.5-.7s0-.2-.3 0c-.2.3-.2.4 0 .5h.3c.1-.2.3-.4 0-.5zm-4.2-.4s0-.4-.6-.1c-.5.3-.4.5-.3.7 0 .2.3.3.6.1.3-.2.7-.5.3-.7zm-134.5.7s.3.1.5-.4c.3-.5 0-.6-.2-.7-.1 0-.4 0-.5.3-.2.4-.3.8.2.8zm5.8-.4s0 .3.4.3.4-.2.4-.3c0-.2-.1-.3-.4-.3-.3 0-.6 0-.4.3zm-4.4-.2s0 .2.5.1c.3 0 .3-.3.2-.4l-.4-.2c-.3 0-.5.2-.3.5zm135.1-.7l.2-.1c.5-.3.6 0 .6 0 .4.3 0 .6-.3.8-.3.2-.5 0-.6-.1h-.2c-.4.2-.6.1-.7 0 0-.2-.1-.5.4-.8.5-.2.6.1.6.1zm-2-.9h.2c.4-.3.5 0 .5 0v.3l.2.1c.3.3 0 .6-.3.8-.4.2-.6 0-.7-.1v-.3c-.4.2-.6.1-.7 0 0-.2-.2-.5.3-.8h.6zm-132 1s0 .2.5.2c.4 0 .4-.2.4-.3 0-.1-.1-.3-.4-.3-.3 0-.6 0-.4.4zm136-.3s0-.2-.2 0-.2.3 0 .4h.2c.1-.2.2-.4 0-.4zm-131.1-.4s0 .2.3.2c.4 0 .5-.2.5-.3 0-.1-.2-.3-.4-.3-.3 0-.6 0-.4.4zm-6-.7l.4-.2c.4-.1.6 0 .7.1 0 .2.1.4-.5.6h-.3l-.5.2c-.7 0-.7-.2-.7-.2-.3-.3.2-.4.7-.5h.2zm134.3 0l-.1.1c-.3.2-.4.1-.5 0v-.2c-.3.2-.5.1-.5 0s-.1-.3.3-.5.4 0 .4 0l.1.2c.4-.2.5 0 .5 0h.1c.5-.2.7 0 .7 0v.2h.2c.4-.3.5 0 .5 0 .2.1 0 .4-.3.5h-.5l-.3.1c-.3.2-.5 0-.6 0v-.3zm57.7.5l-.8-.8.8-.5.8.5-.8.8zm-55-.5h-.3c-.2.2-.1.4 0 .4 0 .1.1.1.2 0 .2-.1.3-.3 0-.4zm-68.6-1.2l.5 1.4h-1.2l-.7-1 1.4-.4zm117.6 1.3l-.8-.8.8-.5.8.5-.8.8zM186 259l.3 1.6-1.3.1-.6-1.2 1.6-.5zm-4.2.6l.2.6h-1.2l-.6-1 1.1-.3-.2-.4 1.4-.4.4 1.5h-1zm-64.4-.4c.2-.2.5-.2.6-.1.2 0 .4.3 0 .7-.4.4-.7.2-.7.2h-.1c-.1 0-.3.2-.7.2-.6 0-.6-.2-.6-.2-.2-.2-.1-.3.1-.4 0-.2.3-.4.6-.5.5-.1.7 0 .8.1zm133.7.2s0-.2-.4 0-.4.4-.3.5c0 .1.2.2.5 0 .2 0 .5-.3.2-.5zm50.2.3l-.8-.8.8-.5.8.5-.8.8zm2.8 0l-.8-.9.8-.5.8.5-.8.8zm-188.9-.5s.1.3.7 0c.7-.2.6-.4.5-.6-.1-.1-.4-.2-.8 0-.4.1-.8.4-.4.6zm135.8-.8s0-.2.2-.3c.2-.2.3 0 .3 0 .3 0 .1.3 0 .4l-.1.1c0 .2 0 .4-.2.6-.2.2-.4.1-.5 0 0-.1-.2-.4 0-.7l.3-.1zm-66.7-.9l.3 1.6-1.3.2-.5-1.2 1.5-.6zm122.6 1.6l-.8-.8.8-.4.8.4-.8.8zm-1.6 0l-.8-.8.8-.5.8.5-.8.8zm-117.7-1.8l-.4-.7 1.4-.3.5 1.4h-1.2l-.3-.4.5 1.4h-1.3l-.4-.8.1.6h-1.2l-.6-1 1.3-.4h-.2l-.6-1.1 1-.3-.5-1 1.4-.3.5 1.4h-1l.4 1.2h-.9l.2.7 1.3-.4zm115.3 1.3l-.8-.8.8-.5.8.5-.8.8zm-183.7-.6l.8-.2c.4 0 .6 0 .7.2 0 .2 0 .4-.7.5-.7 0-.7-.2-.7-.2v-.1l-.4.2c-.4 0-.4-.2-.4-.2-.2-.3 0-.4.3-.4s.4.1.4.2zm181.4.4l-.8-.8.8-.5.8.5-.8.8zm-120.6-1.6l.5 1.5h-1.2l-.7-1 1.4-.5zm124.2 1.3l-.8-.8.7-.5.8.5-.7.8zm-186.3-.8l.3-.3.5.1c0 .1.1.3-.1.4 0 .2 0 .4-.7.5-.7 0-.7-.2-.7-.2-.3-.3.2-.4.7-.5zm64.2-.8l.4 1.4h-1.2l-.6-1 1.4-.4zm-4.3-.2l.4 1.4H177l-.6-1 1.4-.4zm127.9 1.4l-.9-.8.8-.4.8.4-.7.8zm-54.8-.6v.2h-.5c0-.1-.2-.3 0-.6.3-.2.4 0 .4 0l.2.2c.2-.2.3 0 .3 0 .2 0 .1.2 0 .3h-.3zM303 256l-.3.2-.8-.8.8-.5.6.4-.6-.6.8-.5.8.5v.1l.5-.4.6.4.1-.1-.7-.7.8-.5.8.5-.5.5.9.4-.8.8-.6-.6-.5.5.7.4-.8.8-.6-.6-.4.5-.7.6-.8-.8.7-.5zm-182.6 1s0 .3.7.3.7-.3.7-.5c0-.1-.3-.3-.7-.2-.5 0-1 .2-.7.5zm64-1.4l.4-.1.4 1.4H184l-.4-.7.3 1h-1.2l-.7-1.1h.2-1l-.4-.8h-.2l.4 1.3h-1.2l-.6-1 .8-.3-.7-1 1.4-.5.3 1 1-.2-.6-.8 1.4-.4.3 1 .9-.2 1-.2.5 1.5h-1.1zm-5.3-.1l.4 1.4h-1.2l-.6-1 1.4-.4zm127.5 1.3l-.8-.8.8-.5.8.5-.8.8zm-186.8-.3s0 .2.4.2.4-.3.3-.4c0-.1-.1-.2-.4-.2-.2 0-.5.1-.3.4zm56.7-1.7l.4 1.5h-1.2l-.6-1 1.4-.5zm74.5 1s0-.1-.2 0c-.2.2-.2.3 0 .4 0 0 0 .1.2 0 .1-.1.2-.3 0-.4zm49.3.2h-.2v-.2l.2.2zm-117-.3l-.5-.8h-.7l.3 1 1-.2v.1l.8-.2h-1zm5.5-1.2l.5 1.5H188l-.7-1.1 1.4-.4zm118.2.6l-.7-.7.8-.5.8.5-.4.4.3-.2.8.5-.8.8-.8-.8zm-3.3.4l.6.3.4-.3-.6-.6-.6.6-.4.4.6-.4zm-53.3-.3s-.1-.2-.4 0c-.2.3 0 .4 0 .6.1 0 .2.1.4 0 .1-.2.3-.5 0-.6zm-127.4 0s0 .3.4.3.4-.3.4-.4l-.4-.2c-.3 0-.6.1-.4.4zm54.5-1.5l.4 1.4h-1.2l-.6-1 1.4-.4zm1.7.1l.4 1.3h-1.2l-.7-1 .8-.2h-.5l-.6-1.1 1.4-.4.4 1.4zm123.2.8l-.8-1 .8-.5.8.5-.8 1zm5.8 0l-.8-.9.7-.4.8.4-.7.8zm-4-.2l-.8-.8.8-.4.8.4-.8.8zm-118-1.7l.5 1.5h-1.2l-.6-1.1 1.4-.4zm2.7-.1l.4 1.5H188l-.6-1.1 1.4-.4zm117.6 1.4l-.9-.8.8-.5.8.5-.7.8zm-122-1.6l.5 1.5h-1.3l-.6-1 1.4-.5zm-3.8-.2l.5 1.5H180l-.7-1.1 1.4-.4zm124.7 1.2l-.8-.8.7-.5.9.5-.8.8zm-122.8-1.6l.4 1.5h-1.2l-.7-1 1.5-.5zm118 1l-.3.3v-.2h.4zm-111.4-1.7l.4 1.4h-1.2l-.6-1 1.4-.4zm-3.7-.3l.5 1.4h-1.2l-.7-1 1.4-.4zm-1.7-.3l.5 1.5H183l-.7-1 1.4-.5zm-30.2-44.7c.4-2.2.9-4.6 1-6.1.1-2.6 2.5-9.2 2.7-10.7l1.4-12.6c.4-2.3 1.8-5.8 2.8-6.2 1-.5 1.7-1.3 1.7-1.3s2 .4 2.7 1.5c.7 1 1.8 0 1.8-1.2 0-1-.9-1.5-.9-1.5l.2-2 2.1-.6 2.5.4h2.7l2.4-.2 4.8-.5 1.4 1 1.3-.5c.2 2.5 1.6 5 3 6.8v.4s0 .9.6 1.5c.5.7.2 1.4-.6 3.7a35 35 0 00-1.4 7.9c-.1 2.3-2.2 8.7-2.8 10.3l-.9 3.2-4.5-.2 4.5.2a82 82 0 00-1 5.6c-.6 3-1.6 5.5-1.8 7.6-.3 2-.9 8.5-2.2 11.2-1.3 2.8-2.3 5.8-3.4 7.9-1.2 2-2 .7-3.8 1.4-1.8.7-.9 1.9-1.7 3.3-.8 1.4-2 2.3-3 2.4-1.2.2-1.3.2-1.7 1.9-.5 1.6-1.5 1-2.5 1s-3 .9-3 .9 2.2 1-.8 2c-3 1.2-9.3 2.8-12.2 3-2.9.3-5 .2-9.2 0-2.5 0-3.5.2-6.6-.8l-.2-.2h-.1a115.5 115.5 0 01-10.8-4.6c.1-.3 0-.4-.2-.4h-.1s-.2 0-.2.2a16.8 16.8 0 01-.6-.4s.2 0 .3-.3v-.2h.4l.2-.4v-.1l-.1-.3h-.2c-.1-.1-.3 0-.3.2v.4h-.1c-.1 0-.3 0-.3.3 0 .2-.1.3 0 .4a16 16 0 01-2.2-1.7s.3.3.6-.3l.1-.2h.1s.3.2.6-.3l.1-.3c.1 0 .2-.1.2-.3 0 .3 0 .5.4.6 0 0 .3.2.5-.3l.3.1s.3.2.5-.1l.3-.3v-.2h.1s.3.2.5-.2l.2.1s.2 0 .3-.2c0-.4 0-.4-.2-.4 0-.3-.2-.4-.3-.5h-.2v-.2s.2 0 .4-.3v-.2l.3-.1c0 .2.2.5.4.3l.1-.3c.1 0 .3 0 .5-.4.3-.5 0-.7-.2-.8h-.1c.1-.4 0-.5-.1-.5h-.3v-.2c.3-.4.1-.6 0-.6v-.1a.2.2 0 00-.3 0c-.2 0-.3 0-.5.2-.2 0-.3 0-.3.2l.1.3v.3c-.2-.1-.4 0-.5.2-.1.2-.2.4 0 .5-.2 0-.3 0-.5.2-.2 0-.4.1-.5.5l-.2-.1s-.3 0-.5.3c-.2.4-.3.9 0 .8 0 .3 0 .5.3.5 0 0 .3.2.6-.4l.2-.4s.3.2.6-.4c.2-.2.2-.4.2-.5l.2-.2v.6h-.1c-.1 0-.3 0-.3.4 0 .2 0 .6.2.6l-.2.1-.1.4h-.1c-.2-.2-.4-.1-.6.2l-.3-.1c-.1-.1-.4 0-.6.3l-.1-.4c-.1 0-.3 0-.5.3v.1c-.2 0-.5 0-.7.3v.3h-.1c-.2-.1-.5-.1-.7.3 0 .2-.2.5-.1.7a15 15 0 01-3.7-5.3s.3.1.4-.5c0-.7-.2-.8-.4-.8s-.3 0-.4.2a22 22 0 01-1-9l.3-.3c.3-.5 0-.7-.1-.8v-.1s.2.1.4-.2c.2-.3 0-.5-.2-.5h-.1c.2-1.1.3-1.9.5-2.3.6-2.1.6-1.3 2-1.5 1.4-.2 1-.9.3-1.4-.6-.6-.5-1.6 0-2.2.4-.6 1.1-.3 2.8-.3 1.7 0 2.2 0 3.8.4 1.5.4 6.4 0 8.4.4 2 .3 4.2 1 5.6 1.2 1.4.1 5.4.2 4.6 3.5-.8 3.2-2.5 7.7 4.3 9.1 1.5.3 2.7.2 3.7-.3 1.5 2.3 3.2 3.8 3.2 3.8s.4-2.2 0-2.6l-1.7-2.2c2.4-2.1 3.1-6 3.8-7.5.3-.8.7-2.3 1-4 3.4-.4 7.5.2 7.5.2-1.7-1.5-4.4-1.9-7.2-1.8l.3-1.6c3-.1 6 .3 6 .3-1.3-1.2-3.5-1.7-5.8-1.7l.1-1c2.5 0 4.6.4 4.6.4-1.1-1-2.7-1.5-4.4-1.7l.1-.9c1.9 0 3.3.3 3.3.3a6.3 6.3 0 00-2.7-1.4c2.8 0 5.5.3 5.5.3-1.3-1.2-3.4-1.7-5.6-1.7zm57.8 27.8c-2.2 0-2.8.3-3.2 1.6-.5 1.4-1.4 1.7-2.7 3.5-1.2 1.8-1 1.8-1.7 2.9-.7 1-1.8 3.7-2.3 4.8-.4 1.1-2.4.5-2.4.5l-1.2-.8c-.5-.3-1.3.7-2.4.7-1 0-1.3-.2-3.4-1.1-2.1-.9-1.1 0-3.6 0s-3.2.6-5.2.6c-1.9 0-2.6-1.1-4.3-1.9-1.7-.8-1.8-1-1.6-2.6.1-1.4 1-2.6 1.6-3.8h.5l-.2-.6c.4-1.3.8-1.6 1.5-2.8.8-1.3 2-3.1 3.6-4.5s1.6-4 2.3-5.1c.8-1 2.5-5.7 2.5-5.7l5.3-10 1.3-.5.6-4.4c.2-.6 1-2.4 2.3-4.5l18 .8-.2.8c0 1.1.5 1.3.8 1.3.3 0 .6-.3.6-1l-.1-1.1h1.8c-.1.2-.3.5-.3 1v.5s-.7 0-.7 1c0 1.2.5 1.3.8 1.3.4 0 .7-.2.7-1v-.5c.4 0 .7-.3.7-1 0-.4 0-.9-.2-1.2l1.7.1-.2.5c-.5.6-.7 2.5-1.3 3.8l-1.2 2.5c0-.8-.2-1.7-1-1.3 0 0-.5 0-.5 1.1 0 1.2.5 1.3.8 1.3l-1.5 2.5c-1 1.2-.9 2.2-1.3 3-.5 1-.7 3.2-.7 3.2l4.6.3-.5.6.9.7v-.1.1c-.2.7-.2 1.7.6 1.5 0 0 .5.2.7-1l.1-.4h.2s.5.2.8-1v-.3l3 .1 1.8 1.1c0 .3 2.1.8 1.2-1-1-1.8-1.5-3.6-1.5-4.8v-1.4l.5-.8-.5-.7v-.2h.2c.8.9 1.2.6 1.5.4.1-.2.2-.4 0-.7l.1-.1-.5-.8-.2.2-.1-.2.3-.7-.5-.7-.7.8.4.4h-.5v-1.2l.4.3.4-.8-.5-.8-.2.3v-1.3l.3.3.5-.8-.6-.8-.1.2v-3h3.4l-.2.4c-.2.5-.2 1.2.6 1.1 0 0 .4.2.7-.4h.5s.5.3.7-.4l.1-.5 18 .8v.8l1.7.2.8 9 .8 14.5-.6 9.1 1.3.3v8.4c0 1.2-1 1.6-2 1.8-1.1.2-1.8-.2-3-.6a3 3 0 00-1.3-.1l-1.3-4.1-.2 4.3h-.1l-1.1-3.4-.2 3.5H245.8l-1.4-4.5-.2 4.4-1.8-5.3-.2 5a7.3 7.3 0 00-4.6.3c-2 .7-2.2 0-4 .2l-4.7.4c-1.7.1-1.8-.7-1.8-2.7s-.5-3.5-.5-4.9c0-1.3-.2-3.7-.6-4.5-.4-.8-2.2-.5-3.9-.7-1.6-.3-1.8-.2-3.5 0h-7.2zM332.9 244s-1.8 1-2.3 1c-.4 0-.6-2.2-.6-2.2s0-1-.4-1.6c-.5-.6-1.7 0-1.8.6-.2.6.3 1.8.3 2.3 0 .4-1 .1-2 0-.9-.2-3.9-.2-4.7-.2l-2-.2c0-.2.3-2.7.8-3.6.4-1 .4-1.2 1-2 .5-.9.9-2.5 1.2-4.1.2-1.6 2-4.2 3-5.3.8-1 1-2.7 2-3.4.8-.8 1.4-2.8 2.6-4.8 1.3-2 3-5.2 3.6-6.2.6-1 .7-2 1-3.2l.1-.4 22.8 1-.3.7-1.4 4.5c-.4 1.1-.1.8 1 1.9 1.2 1 1.2 1 2.6 1 1.4 0 2-.2 3.5.3 1.5.4 2.8.5 3.8.4.8 0 2.3-.3 3-.5 2.8 1.6 6.7 3.5 5.9 2.4-.3-.4-2.8-2.1-4.7-3.9l-1-6.3 18.6.8 3.8-.8c-.4 1.2-1 2.4-1.3 2.7-.7.7-.2 2.4-.2 2.4l-.4 8.8s.2 5.4-.2 5.4c-.5 0-2.3 1.9-2.3 1.9l1.6.2v3l.4 9.6-2.5.4s-2.5 0-3.4.3c-1 .3-3-.2-3-.2l.8-1.3s.7-1 .9-2c.2-.8-.3-1.5-1.3-1.4-1 0-.8.8-1.6 1.6-.9.8-.7 2.3-.7 2.3s-.4.7-1.5.7c-1 0-1.7.4-2.5.4-.7 0-1.2 0-3-.6-1.7-.6-.7-1-1-2.8-.2-1.8-1.4-2.1-2.6-3.8-1.3-1.6-.3-1.4-.3-2.5s-.8-3-.8-3l-.2-4.3s-.8-.7-3-.8c-2.2 0-4-.5-4-.5l-2 .6-2.7-.1c-1.1-.2-2.2 0-3.4.6-1 .4-1.2 1-1.3 2-.2 1.1-.6 1.3-1.5 2.9-.9 1.5-1.4 1-2.5 2a13 13 0 00-2.5 2.9c-.3.7-1 2-1.7 3s-1 3-1.5 3.2c-.4.2-1.6-.1-1.6-.1l-2-.5-1.9-1-1.4-.2H333zm-204.8 2s.2 0 .2-.3c.1-.3 0-.4-.2-.4 0 0-.2 0-.2.2 0 .3 0 .5.2.5zm140.6-38.2l27 1.2a67.5 67.5 0 010 5.3c-.7 1.7-1.3 3.8-1.3 6 0 5.4.7 8.4.7 8.4l2.8 2.6-2.2-6.5 1.5-9.3v-.7c.4-.2.8-.5 1-.8.5-.5.5-2 .5-2.8 0-.7.4-1.3 1-2l16.9.7-.4.1c-1.1.5-2.1 1-1.6 1.2 0 0 0 1.4 1.5 1 1.5-.5 1.7.3 1.4-1l-.3-1.3 3 .1c-.6 1.5-2.4 5.3-3.6 6.3-1.3 1.2-4.4 8.4-5.4 9.5-1 1.1-2.8 3.9-2.8 3.9s-3.6 8-4.4 8.8c-.8 1-3 5-3 5s-2.2.3-3.5.8c-1.4.4-3.2.3-4.5 0-1.4-.2-2.8.3-2.8.3l-2.4.7-1.8.2-1.6.2-3.3-6.5-1.7 4.7c-.3 0-.5.2-.9 0-1-.1-.7 0-2.3-.7a12 12 0 01-1.1-.4l1.8-7.2-4.7 5.7-.2-.2-.4-8.5-.4-2.2 4 .8s1.4-1.4-.8-2.6c-1.1-.6-2.5-.3-3.5.2l-.4-2-.3-5.9-1-5.8-.5-5.2v-2.1zm-141 36.8s.1.2.3-.2c.3-.4.1-.5 0-.6-.1 0-.3 0-.4.2-.2.3-.3.6 0 .6zm54.4-2l.4 1.5h-1.2l-.6-1 1.4-.5zm-55 1v.2c-.2.4-.4.2-.4.2-.3 0-.2-.3 0-.6 0-.2.2-.3.3-.2l.2-.2c.1-.2.3-.3.4-.2 0 0 .2.2 0 .6-.2.4-.4.2-.4.2zm-3.3.3s.2 0 .2-.2l-.1-.3c-.1 0-.2 0-.3.2 0 .1 0 .4.2.3zm4.6-.8c-.2.3-.4.2-.4.2-.3 0-.2-.3 0-.6.1-.2.3-.3.4-.2h.1l.4-.2c.1 0 .3.2 0 .6-.1.4-.3.3-.3.3l-.2-.1zm-5.3 0s.2.1.2-.1c0-.3 0-.4-.2-.4l-.2.2c0 .2 0 .4.2.4zm-1-1.5a.2.2 0 01.2 0c.1 0 .3 0 .2.4 0 .2-.1.3-.2.3h-.3c-.3.1-.3-.2-.3-.5 0-.2.2-.2.4-.2zm6.1.7s.2.1.4-.3 0-.5 0-.6c-.2 0-.3 0-.5.3-.1.2-.2.6.1.6zm167.9-1.8s0 1.4 1.5 1c1.5-.4 1.7.4 1.4-1-.4-1.4 0-1.7-1.3-1.2-1.2.6-2.1 1-1.6 1.2zm-175.3.7s.3 0 .3-.3-.1-.4-.3-.5c-.1 0-.3 0-.3.3 0 .2 0 .5.3.5zm1-.3s.2.2.4-.2 0-.5 0-.6c-.2 0-.3 0-.5.2-.1.3-.2.6.1.6zm-4-2.2c.1-.3.3-.3.4-.3l.1.1c.2-.2.3-.3.4-.2.1 0 .3.2 0 .6-.1.4-.3.2-.3.2h-.2c-.2.3-.4.2-.4.2l-.2-.2-.2.2c-.2.4-.3.3-.4.3v.5c-.4.6-.7.4-.7.4-.4 0-.4-.3-.3-.6v-.3l.2-.3c-.2 0-.2-.3-.1-.5 0-.2.2-.3.3-.2.2 0 .4 0 .3.5h.1l.2-.1c0-.3.3-.3.4-.3l.2-.2.2.2zm6.6 1.7s.2.1.3-.3c0-.5-.1-.5-.3-.6 0 0-.2.1-.3.4 0 .3 0 .7.3.5zm-3-.5l-.2.2c-.2.3-.3.2-.3.2-.4 0-.3-.3-.1-.6.1-.3.3-.3.4-.2l.1-.2c.2-.3.3-.3.4-.2.1 0 .3.2 0 .6-.1.3-.3.2-.3.2zm4.3-.1s.3 0 .1-.5c-.1-.4-.3-.4-.4-.4-.1 0-.2.2-.1.5 0 .3.2.6.4.4zm-6.3 0s.3.1.3-.3c.1-.5-.1-.6-.3-.7-.2 0-.4 0-.4.3s0 .8.4.7zm3.2-.4c-.2.3-.4.2-.4.2-.3 0-.2-.3 0-.6 0-.3.2-.3.3-.2h.2c.1-.2.3-.2.4-.2.1 0 .2.2 0 .6-.2.4-.4.3-.4.3l-.1-.1zm-1.8 0s.2 0 .2-.2l-.1-.4c-.1 0-.2 0-.3.2 0 .2 0 .4.2.4zm3.4-.7s.2.1.4-.3 0-.5 0-.6c-.1 0-.3 0-.4.3-.2.2-.3.6 0 .6zm-4 0l.1-.3-.1-.3c-.1 0-.2 0-.3.2 0 .1 0 .3.2.3zm2.1-.1s.2.1.4-.3c.3-.4.1-.5 0-.6-.1 0-.3 0-.4.3-.2.2-.3.6 0 .6zm-7.2-1.6c.2-.4.3-.5.5-.4l.1-.2c.2-.4.4-.5.5-.4.1 0 .3.2 0 .8v.4c0 .3-.2.2-.2.2-.2 0-.3 0-.3-.2a2.1 2.1 0 01-.4.5c-.1.3-.4.2-.4.2-.4 0-.4-.3-.4-.6s.3-.4.5-.3zm10.2.8s.2.2.4-.2 0-.6 0-.6c-.1 0-.3 0-.4.2-.2.3-.3.6 0 .6zm251.7-3.4s-3.3-1.3-1.6 1c1.7 2.2 1 3.5 2.4 1.2s2-2 .3-3.6c-1.5-1.6-1.2 0-1.1 1.4zm5.9 3.2zm-49.5-4.7s-2.8.2-1 2.4c1.6 2.3 0 1.8 1.5-.5 1.4-2.3 2.7-.2 1.1-1.8-1.5-1.6-1.7-1.4-1.6 0zM125 236.6s.2.1.4-.3 0-.5 0-.6c-.2 0-.4 0-.5.3-.1.2-.3.6 0 .6zm-10.4-1.8c0-.2.2-.2.3-.2l.1-.1c.2-.3.3-.3.5-.3 0 0 .2.2 0 .6v.1l.1.4h.3s.2.1 0 .5-.4.3-.4.3c-.2 0-.2-.1-.2-.3l-.2-.5v-.2l-.1.1-.2.3-.1.1-.2.3v.1c0 .5-.3.4-.3.4-.3.1-.3-.2-.3-.5-.3-.1-.2-.5 0-.8.2-.4.5-.4.7-.3zm8.6 1s.2 0 .3-.2c.1-.2 0-.3-.1-.3h-.3c-.1.2-.2.4 0 .5zm-5.9-1.7v-.3c0-.2 0-.3.2-.2 0 0 .2 0 .1.3l-.1.2c.1 0 .2.2 0 .7-.4.6-.5.4-.5.4-.4.1-.2-.4 0-.7l.3-.4zm-4-3.7c.2-.4.3-.4.4-.4.2.1.3.2 0 .8.1.4 0 .4 0 .4-.2.1-.3.1-.4 0v.4c-.1.2-.3.1-.3.1-.2 0-.2-.2-.2-.3h-.2v.1c0 .3-.2.4-.2.4.1 0 .3.2.4.6l.1.3c.1-.4.3-.5.4-.5.2 0 .3 0 .2.6l-.1.3a.4.4 0 01.4 0c.2.1.4.3.1.9-.3.5-.6.3-.6.3h-.1v.2c-.4.6-.7.3-.7.3-.5 0-.4-.5-.2-.9.2-.3.5-.4.7-.3l.2-.2c-.3.1-.4-.1-.3-.4h-.1c-.4.4-.7-.1-.9-.6-.1-.4 0-.6.2-.6v-.6c0-.2.1-.3.2-.3h.1v-.5c0-.4.3-.5.5-.5.1 0 .3.1.4.4zm5.6 4V234.7l.2-.3-.2-.2zm.8.5zm-3.4-.4c-.2.4-.4.3-.4.3-.3 0-.2-.4 0-.6 0-.3.2-.3.4-.3v.1h.1c.1-.2.3-.3.4-.2.1 0 .3.2 0 .6-.2.4-.3.2-.3.2h-.2zm-1-1.6c.2-.3.4-.3.6-.2 0 0 .2.1.2.3.1-.1.2-.2.3-.1h.1s.2-.1.2 0c.1 0 .3 0 .2.2 0 .3-.2.2-.2.2h-.2v.2c-.2.4-.4.2-.4.2h-.2c-.2.4-.5.2-.5.2l-.3-.1c-.3.5-.5.3-.5.3l-.2.3c-.2.4-.4.2-.4.2-.3 0-.2-.3 0-.6l.2-.2c0-.2 0-.4.2-.6.2-.4.4-.4.6-.3H115.3zm9.5 1.4s.1.1.3-.1c0-.2 0-.3-.2-.4l-.3.1c0 .2 0 .4.2.4zm-2-.1s.2 0 .2-.2c.1-.3 0-.3-.1-.4-.1 0-.2 0-.3.2 0 .2 0 .4.2.4zm-.7-.8s.2 0 .2-.2l-.1-.3c-.1 0-.2 0-.3.2 0 .1 0 .3.2.3zm-4-.4l.2-.2c0-.4 0-.4-.2-.5-.1 0-.2 0-.3.3 0 .2 0 .5.2.4zm1-.1s.2.1.4-.3 0-.5 0-.6c-.1 0-.3 0-.4.3-.2.2-.3.6 0 .6zm5-.2s.2.1.3-.1c.1-.3 0-.4 0-.4h-.4c0 .2-.1.5.1.5zm-9.7-.2l-.2-.6c0-.3.1-.5.3-.6l.3.1a.4.4 0 01.4 0h.1l.3-.1c.1 0 .3 0 .3.5.1 0 .3 0 .2.4 0 .3-.3.2-.3.2-.2 0-.2 0-.2-.2h-.2c-.4.6-.7.4-.7.4l-.3-.1zm6.9 0l.2-.2c0-.4 0-.4-.2-.5-.1 0-.2 0-.3.3 0 .2 0 .5.3.4zm-4-1l.2-.4c.2-.3.3-.3.4-.3.2.1.3.2 0 .6 0 .3-.1.3-.2.3v.2c-.2.3-.4.1-.4.1-.2 0-.2-.2 0-.4zm-.8-.8v-.2c.2-.3.4-.3.5-.3l.1-.1c.1-.3.3-.3.4-.3.1 0 .3.2 0 .6-.1.4-.3.3-.3.3a1 1 0 01-.2.2v.1c.1.5-.1.5-.1.5-.2.2-.4 0-.5-.4v-.4zm-6.3.7s.3.2.6-.3c.3-.6 0-.8-.1-.9-.2 0-.5 0-.7.3-.1.4-.3.9.2 1zm10.6-.2s.2.1.4-.3 0-.5 0-.6c-.2 0-.3 0-.5.3-.1.2-.2.6.1.6zm-4.2-2.4c0-.1.2-.1.2 0 .1 0 .3.1 0 .5 0 .2-.2.3-.2.3h-.3-.2l-.2.2-.1.4c0 .1.2.3 0 .7-.2.3-.4.2-.4.2-.3 0-.2-.3 0-.6-.3 0-.3-.3-.2-.5 0 .5-.2.5-.2.5h-.5c-.3 0-.3-.2-.2-.4l-.1-.2c-.2-.4 0-.6.1-.7h.2l.1-.1c.2-.4.4-.4.5-.4 0 0 .2.2 0 .5h.2l.2.4.2-.4c.1-.3.3-.3.4-.3l.1.2c.2-.3.3-.3.4-.3zm3.4 1.8h-.1c-.4 0-.2-.4-.1-.6.1-.3.3-.3.4-.3l.1-.1c.2-.3.3-.3.4-.3.2 0 .3.2 0 .6-.1.4-.3.3-.3.3v.3c0 .2-.2.2-.2.2l-.2-.1zm-1 0l.2-.1c.1-.3 0-.4-.1-.4h-.3c0 .2-.1.5.1.5zm-.6-.5c-.3.4-.4.3-.4.3-.3 0-.2-.4 0-.6 0-.3.2-.3.3-.3l.1.1c.2-.3.4-.3.5-.2 0 0 .2.2 0 .6-.2.3-.4.2-.4.2h-.1zm-6.5.2s.3.2.6-.4c.3-.5 0-.7-.1-.8-.2-.1-.5 0-.7.3-.2.3-.3.8.2.9zm7.6-.4l.2-.2c0-.2 0-.3-.2-.3 0 0-.2 0-.2.2 0 .1 0 .4.2.3zm2-.3c-.1.4-.3.3-.3.3-.3 0-.2-.4 0-.6 0-.3.2-.3.3-.3l.2.1c.1-.3.3-.3.4-.2.1 0 .3.2 0 .6-.2.3-.4.2-.4.2h-.1zm-3-1.1c0-.1 0-.2.2-.1 0 0 .2 0 .2.4-.1.3-.3.2-.3.2-.3.5-.5.3-.5.3-.3 0-.2-.3 0-.6v-.1c.1-.2.2-.2.3-.1zm-5.3.8s.2.1.4-.3 0-.5 0-.6c-.2 0-.3 0-.5.3-.1.2-.2.6.1.6zm8.2-.5s.1.2.4-.2c.2-.4 0-.6 0-.6-.2 0-.4 0-.5.2-.1.3-.3.6 0 .6zm-8.8-1.3c-.3 0-.2-.3 0-.5 0-.2.2-.2.3-.1 0 0 .2 0 0 .3H113.3c.1 0 .3.2 0 .6v.1c0 .1 0 .3-.2.5-.3.6-.6.4-.6.4-.5 0-.3-.6-.1-1l.3-.3zm3.3.5l.2-.3c.1-.2.3-.3.4-.2 0 0 .2.2 0 .6v.1l-.2.3c-.2.4-.4.3-.4.3-.3 0-.2-.4 0-.7zm-5.4.6s.4 0 .1-.6c-.2-.7-.5-.7-.7-.6-.2 0-.3.2-.2.6.2.4.5 1 .8.6zm3.9-1h-.3c-.5 0-.4-.5-.2-.9.2-.3.5-.4.7-.3.1.1.4.3.2.8h.1c.1 0 .3.2 0 .7-.3.6-.5.4-.5.4h-.1v.2c-.2.3-.4.1-.4.1-.2 0-.2-.2 0-.4 0-.1.1-.1.2 0h.1c0-.1 0-.3.2-.5zm-3.2.8s.3.3.6-.3c.3-.5 0-.7-.1-.8-.2-.1-.5-.1-.7.3-.2.3-.3.8.2.8zm7-.7s.2.1.4-.3 0-.5 0-.6c-.2 0-.4 0-.5.3-.1.2-.3.6 0 .6zm112.4-.4s.4 0 .4-.6c0-.7-.4-.7-.6-.7-.3 0-.5.2-.5.6 0 .5.2 1 .7.7zm-119.5 0l.3-.2-.1-.4-.4.1c0 .2 0 .4.2.4zm6.6-1.2c.1-.3.3-.3.4-.3.1 0 .3.2 0 .6 0 .2-.2.3-.3.3 0 .4-.2.3-.2.3h-.4c-.3 0-.2-.3 0-.5 0-.2 0-.2.2-.3l.2-.1zm-5.6.8s.3 0 .3-.4 0-.5-.2-.5c-.1 0-.3 0-.3.4 0 .3 0 .6.2.5zm3.6 0s.2-.1 0-.6c0-.4-.3-.4-.4-.3-.1 0-.2.1-.1.4 0 .3.3.6.5.4zm3-1.4h.2l.1.1c.2-.2.3-.3.5-.2 0 0 .2.2 0 .6-.2.4-.4.2-.4.2l-.2.1s-.1.1-.2 0c0 .1-.1 0-.1 0-.3 0-.3-.2-.2-.4l.1-.4h.3zm-5.6 0l.1-.6c.2-.4.5-.4.7-.3.1 0 .3.2.3.4 0-.1.2-.2.3-.1.1-.2.2-.3.3-.2.1 0 .3.2 0 .5 0 .2-.1.2-.2.2-.2.5-.4.3-.4.3l-.2-.1-.4.2-.1.4c-.2.3-.4 0-.5-.4v-.4zm2.8.6s.2 0 .3-.2c.1-.2 0-.3-.1-.3h-.3c0 .2-.1.4.1.5zm112.5-.1s.4 0 .3-.7c0-.6-.4-.7-.6-.7-.2 0-.4.2-.4.7 0 .4.1 1 .7.7zm-118-1.6c-.3-.1-.3-.4-.2-.6.2-.2.4-.2.5-.1.2 0 .4.2.2.6.1.2.3.3.2.7-.2.3-.5.1-.5.1h-.2l-.1.3c-.3.6-.6.4-.6.4-.5 0-.4-.6-.2-1 .2-.3.5-.3.6-.2l.2.1v-.2l.2-.1zm2.2 1.4s.2 0 .3-.2c.2-.2 0-.3 0-.3-.2-.1-.3 0-.4 0 0 .2-.1.4.1.5zm6.1-.5s.2.2.4-.2 0-.5 0-.6c-.1 0-.3 0-.5.2 0 .3-.2.6.1.6zm-1.3 0s.2 0 .4-.3c.2-.4 0-.6 0-.6-.2 0-.3 0-.5.2-.1.3-.2.6 0 .6zm-5.4-.1l.4-.3c.2-.4 0-.5 0-.6-.2 0-.4 0-.5.2-.1.3-.3.7 0 .7zm3.1-.8v-.4c.1-.1.3-.1.4 0h.1c.1 0 .3.2 0 .6-.1.4-.3.3-.3.3-.3 0-.3-.3-.2-.5zm124-1.2s-.4 0-.4.6c0 .7.4.7.7.7.3 0 .6-.1.6-.6 0-.4-.2-1-.8-.7zm-13.4 1.2s.5 0 .4-.8c0-.9-.5-1-.7-.9-.3 0-.6.2-.6.8 0 .5.2 1.2.9.9zm-107.2 0s.2.1.4-.3 0-.5 0-.6c-.2 0-.3 0-.5.3-.1.2-.2.6 0 .6zm-5.4-.1s.2.1.4-.3 0-.5 0-.6c-.2 0-.4 0-.5.3-.1.2-.3.6 0 .6zm-1-.2s0 .1.2 0c.1-.3 0-.4-.1-.5l-.3.1c0 .2-.1.4.1.4zm2.6-.6v-.6c0-.2.1-.3.3-.3 0 0 .2 0 .2.2.2 0 .3.2.1.6-.2.4-.4.2-.4.2l-.2-.1zm-.6-.1l.4-.2v-.5c-.2 0-.3 0-.4.2-.1.2-.2.5 0 .5zm4-.3s.2.2.4-.2 0-.5 0-.6c-.1 0-.3 0-.4.2-.2.3-.3.6 0 .6zm-5.4-.7c-.3-.1-.2-.4-.1-.5.1-.3.3-.2.5-.2.1.1.4.3.2.6.1 0 .3.2.1.4 0 .2-.3.1-.3.1-.2.4-.4.3-.4.3-.3 0-.2-.4 0-.6v-.1zm3.5-.4v-.1c.1-.2.2-.2.3-.1.1 0 .3.2.1.4 0 .2-.2.1-.2.1l-.1.5c-.3.2-.4 0-.5-.4-.1-.3 0-.4.1-.4h.3zm-5.3.2h.3v-.5l-.4.1c0 .2-.1.4.1.4zm3.7-.9v-.3c0-.2.2-.2.3-.2h.1c.2.1.4.3.1.7-.2.4-.4.2-.4.2-.2 0-.2-.2-.1-.4zm121.3-1s-.5 0-.5.6c0 .7.4.7.7.7.2 0 .5-.1.5-.6 0-.4-.1-1-.7-.7zm-12.2 1.1s.5.2.8-.9c.2-1.1-.2-1.3-.5-1.4-.4 0-.7.1-.9.9-.2.7-.2 1.7.6 1.4zm-107.8-.5s.1.1.3-.3c.3-.4.1-.5 0-.6-.1 0-.3 0-.4.3-.2.2-.3.6 0 .6zm2 0s.2 0 .3-.2c.1-.2 0-.3 0-.4l-.4.1c0 .2-.1.4.1.5zm-5.4-.1l.3-.1c.1-.3 0-.4-.1-.4h-.3c-.1.2-.2.4.1.5zm-.8-.8s.2.2.4-.1c.2-.3 0-.5-.2-.6l-.5.1c0 .2-.1.5.3.6zm2.4-.3h.3l-.1-.5-.3.1c-.1.2-.2.4 0 .4zm1.4 0s.2 0 .4-.3c.2-.4 0-.5 0-.6-.2 0-.3 0-.5.2-.1.3-.2.6 0 .6zm1.8-.5h.3c.1-.3 0-.4-.1-.5l-.3.1c-.1.2-.2.4.1.4zm-5.4 0l.3-.2-.1-.3h-.3c-.1.2-.2.4 0 .5zm1.8-.4s.2.1.3-.1c.1-.2 0-.3-.1-.4l-.3.1c0 .2-.1.4.1.4zm106.8-1h.9v.4h-.2c-.1 0-.3 0-.5.2v-.1l-.2-.5zm12.2-2.4s-.6-.1-.6 1c0 1.2.5 1.3.8 1.3.3 0 .6-.3.6-1 0-.8-.1-1.7-.8-1.3zm-117.4 2s.2 0 .3-.2c.1-.2 0-.3-.1-.3h-.3c-.1.2-.2.4 0 .5zm197.2-1.7s0 1.4 1.5 1c1.5-.4 1.7.4 1.4-1-.4-1.4 0-1.7-1.3-1.2-1.2.5-2.1 1-1.6 1.2zm-75-.6s-.4 0-.4.6c0 .7.4.7.7.7.3 0 .6-.1.6-.6 0-.4-.2-1-.8-.7zm-122.8.6s.1.1.2 0c.2-.3 0-.4 0-.5l-.4.1c0 .2-.1.4.2.4zm115.7-2.7s-.6 0-.6 1c0 1.2.5 1.3.8 1.3.4 0 .7-.2.7-1s-.2-1.7-1-1.3zm-17.5.4s.6 0 .5-1.2c-.2-1.1-.7-1.1-1-1.1-.3 0-.6.4-.5 1.1.1.8.4 1.7 1 1.2zm19.4-1l.8-.8.5.7-.5.9-.8-.7zm-4-8.2c-.5-.1-.5-.7-.3-1.1.1-.5.5-.6.8-.5h.1v-.3c.2-.5.6-.6 1-.5.2 0 .7.3.4 1-.2.8-.8.6-.8.6h-.1a1.6 1.6 0 01-.2.5l.2.3-.2.3.8-.8.5.7-.3.7.3-.4v.2l.1-.8c.2-.5.6-.6.9-.5.2.1.5.2.5.6l.5.6-.5.8-.5-.3h-.3c-.2 0-.4 0-.5-.2l.3.4-.5.8-.7-.6c.3.2.6.7.7 1.1v.2l.2-.1.5.7-.4.9-.1-.1.4.6-.3.6.7-.7.5.7c.3 0 .4.1.5.3l.4.6-.2.4v.1c0 .6-.2.9-.4 1l.1.2-.4.8-.8-.7.4-.4-.2-.2-.1.3-.5-.4.2.3-.4.9-.8-.8.7-.8.7-.8.1-.2-.2-.1-.4.9-.8-.8.5-.6-.5-.4-.3.6-.9-.7.5-.6-.5-.5-.6-.6.8-.8v.1l.1-.5-.2-.1-.4.7-.8-.7.7-1 .4.6.6-.7.4.6.3-.4-.8-.6-.2.5-.9-.8.2-.1zm4.4 7l.8-1 .5.8-.4.8-.9-.7zm-3.9-.3l.8-.9.5.8-.4.8-.9-.7zm139.7-5.5l24.3.4v3.6c.1.4 0 1-.1 1.7l-23-.6-.1-.2c0-1-.7-3-1-4.9zm-152.8 5.3s.6-.2 0-1.2c-.7-1-1.1-.8-1.4-.6-.3.2-.4.6 0 1.2.4.7 1 1.4 1.4.6zm22.2-.1s.4 0 .4-.4c0-.5-.4-.6-.6-.6-.2 0-.4 0-.4.4 0 .3.1.7.6.6zm-5.8-1.1l.8-.9.5.8-.4.8-.9-.7zm106-4.5l22.4.3-1.3 2.6-1 2.2-22.7-.6c.4-.5.8-1 1-1.6l1.7-3zm-102.4 4.2s.4.1.4-.4c0-.4-.4-.5-.6-.5-.2 0-.5 0-.4.3 0 .3.1.7.6.6zm-24.4 0s.5.1.8-1c.2-1.1-.2-1.3-.5-1.4-.3 0-.7.1-.9.9-.1.7-.2 1.7.6 1.4zm91-4.8l20.4.3a77 77 0 00-2 4.4l-20.6-.5c.5-1 .7-3 1.2-4.2h1zm-71.3 4l.8-.9.5.8-.4.8-.9-.7zm-.7-.4c-.1 0-.3.1-.4 0l-.2.5.3.4.5-.6-.2-.3zm37.4-5.1L296 204c.1.3.3.7.3 1.1.1 1-.5 1.3-.5 1.3v2l-27-.8.1-3.3-1.1-.8v-.7zm-35 3.5l-.6-.5.8-.9.5.8-.3.7c.1 0 .3.1.4.4l.5.7-.4.8-.7-.6-.1.3-.9-.7.4-.4v-.1c0-.4.2-.5.5-.5zm-2 .1l1-.8.6.7-.5.9-1-.8zm-13.2-2.5l.3-.1c.7-.4.9.5.9 1.3 0 .7-.3 1-.7 1h-.4c0 .8-.3 1-.6 1s-.8 0-.8-1.2.5-1 .5-1l.2-.2-.3-.2.8-.9.1.3zm-4 2.2s.4.2.7-.9c.2-1.1-.2-1.3-.5-1.4-.3 0-.7.1-.9.9-.1.7-.2 1.7.6 1.4zm150.2-40.9h3.6l3.8-.3 2.9.2 1.4.5 1.6-.3h2.1l1-.1c-.8 2.1-3 8.5-1.9 7.3.5-.4 2.8-5.5 4.5-6.7l.4.4 1.4-.5a57 57 0 00-1.2 4l-.3.2.2.1c-.2.8-.2 1.2.2.8l.2-.4.3.2.4-.8-.2-.2.9.6.4-.8-.5-.8-.7.8c.5-.8 1-1.9 1.7-2.8.3.2.7.3 1 .3 1 0 1 .4 1.3 1l-.5.5.2-.3-.5-.8-.8.9.9.7.2-.5.8.7-.3.4-.4-.6-.6.7-.4-.5-.7.8.8.7.4-.7.6.6.4-.9.7.6.4-.8-.3-.6h.5-.1l1 .7.5-.9-.5-.6c.2 0 .3-.2.3-.2l.5 1.1-.7.9.9.7.3-.6.1.3v.5l-.3.4-.5-.7-.7.9.8.7.2-.3.5.4v1l-.5-.6-.8.8.8.8.4-.8v1l-.6.7.6.5v.3l-.3-.3-.7.8.8.7.1-.1-.1 3.7 1 .5.1 24-24.4-.7-.2-1.8-.1-4.1c0-1.2-.6-2.2-1-3-.1-2.7-.5-7.3-1-6-.1.4-.3 3.6-.8 5.8l-1.3 1c-.3.8-.3 1.4-.3 2.3 0 1-.7 2.4-1.6 3.9l-1 1.7-22.1-.7.5-1.2c.4-1.4 1.5-4.6 2.2-6 .7-1.5 2.2-3.5 3.3-5l1-1.6 2.4.1 2.5-.7-.3-3.2-1-2.2 2-3.2c1.3-2 2.7-4.2 3.3-4.4.6-.1 1.3-.8 1.3-1.2 0-.4 0-1.9.6-2.7.7-.9 1-1.4 1.4-2.3.5-.8.2-1.5 1-2.4.5-.6.8-.4 1.3-.1.3 2.5 1 8.2 1.4 6.8.2-.6.1-7 1.4-8 .4-.4.6-.8.5-1zm-152 38.1s.5.2.8-.9c.2-1.1-.2-1.3-.5-1.4-.3 0-.7.1-.9.9-.1.7-.2 1.7.6 1.4zm90.6-.8c.2-.4.2-.9.2-1.7 0-1.8.2-2.7.4-4 .2-1.3 2.1-2.3 2.9-3.7.8-1.4 1.4-3 1.8-3.8.3-1 1.2-2.7 1.7-4 .4-1.2 1.1-.8 2.1-1.5 1-.6.7-1 .8-2 .1-.8 2-3.8 2.2-4.5l.7-2.4c.2-.5.8-1.6 1.6-1.8.8-.2.9-1.3 1.3-2.3a8 8 0 00.5-2.6c0-.7-.3-1.4.3-2.1.5-.7 2.2-.8 2.2-.8l2.5-1h2.6s1.8.3 3 .3c1 0 2.2-.3 3-.8 1-.6 1.2-.2 2-.7.9-.4 3.5 0 4.8 0 1.3 0 2.3.3 3 .6.6.3 2.7 2.6 2.7 2.6l-1 1.6s-1.3 2.7-2.5 3.9c-1.2 1.1-2.4 4.4-3.1 5.4-.7 1-2.1 4-2.4 5-.4 1.1-.8 1.5-1.6 2.4-.8 1-.9 2-1.2 3.1-.4 1.2-.9 2-1.3 3.5-.5 1.5-1.3 2-1.5 2.4-.1.6-.8 2.2-1.7 2.8-.8.5-1.8 1.7-2.2 2.8-.4 1-2 2.9-2.6 3.9l-21.2-.6zm-95.5 0s.5.2.6-.5c.2-.6-.2-.8-.5-.8s-.6 0-.7.4c0 .5 0 1 .6 1zm60-14.6v-1.3l-.9-3.3-.4-6-.3-5s2-.5 2.6-.9c.6-.4.4-1.5.4-1.5l-2.5-.8c-.9-.1-.5-.7-.5-.7l4.7-.3 1-.4 3.7-.1c1.3 0 2-.4 3.7-.8 1.7-.4 1.8-1 2.4-1.4.6-.4 2 .2 2.1.8.2.6 1.2.7 2.4.8.5 0 .9-.2 1.2-.4l-.6 4.7 2.3 6.3 4.1 1.2-4-4.8-1.1-8v-.1h6s0 3.7.6 4.3c.6.6-.1 1.5-.3 2.7-.3 1.2.4 1.8.2 3.2 0 1.4 0 1.5-.2 2.7-.3 1.2 0 1.5.2 3 .2 1.4.9 2.7.9 2.7l.2 9.7 1.1 1-.3 7-27.7-.7v-.8l-.4-1.8-.2-5.2-.3-1.3v-1.6c1.2 3.5 2.9 6.8 2.9 5.4 0-2.1.4-2.8.4-2.8l-3.5-5.5zm-60-3.1c1.4-2.8 3.4-6.1 4-7.2 1-1.7 4-8.2 4.4-8.8.4-.7 2-2.9 3-3.1 1-.2 2.2 0 2.2 0l2-2 3.4-.7v1.5l4.6-.7-.3 1.8 9-1.2v.7c-2 .4-4 1-3.7 1.7.2 1 2 .2 4.3-.9l8.5-.2c-1.3.7.1 1.5.3 2.8l-1.2 5.8 2.8-4.4c0 1.3-.7 8.2-.7 8.2l1 1.2.4 5.7 1 3.3c.3.9 0 3.4 0 3.4l-.5 9.3-19.7-.6.1-.2c.3-.8-.1-1-.5-1.1-.3-.1-.6 0-.8.5 0 .2-.1.6 0 .8l-3-.1-1.4-3.3.8.7.4-.8-.5-.8-.7.9s-.9-.4-1.5-.3l-.1-.2-.3.4h-.2v.1l-.3.4-1 2.8-2.2-.1v-.2l-.4-.7-.8.9-20.4-.6c2.5-4.3 6-10 6.4-11.4l.9-1.8 5.1-.4-4.4-1.1zm7.7 13s-.5.1-.3 1c.2.8.7.7 1 .6.2 0 .4-.3.3-.8-.2-.6-.5-1.2-1-.8zm15 .8l.7-.9.5.8-.4.8-.9-.7zm-1.2-.2l.7-.8.5.7-.4.9-.8-.8zm-6.7-.2l.8-.9.5.7-.5.9-.8-.7zm6-.9l.7-.8.5.8-.4.8-.5-.4.3.3-.5.9-.8-.8.7-.8zm-16.1-.4s-.4 0-.2.7c.2.6.5.6.7.5.3 0 .4-.2.3-.7-.1-.4-.4-.9-.8-.5zm18.3.3l.8-.8.5.7-.4.8-.9-.7zm-20.8 0a.9.9 0 01-.2-.4c-.2-.7.2-.7.2-.7.4-.4.6 0 .8.4.2 0 .6.2.5.8-.2.7-.6.5-.6.5-.6.1-.7-.2-.7-.6zm11.8.5s.5.1.4-.7c-.1-.9-.6-1-1-1-.2 0-.5.1-.4.7 0 .5.3 1.2 1 1zm8-1l.7-.9.5.8-.4.8-.9-.7zm-2.2-3.4l-.3-.2.8-.9.5.8-.3.6.5-.6.5.8-.4.8h-.1l.4.5-.3.6.7-.7.6.8-.5.8-.5-.4-.4.9-.8-.8.5-.6-.5-.4-.3.6-.9-.7.6-.6-.6-.4v-.1l-.5-.6.7-.8.5.7zm-1.7 2.7l.8-.9.5.8-.4.8-.9-.7zm-1.2-.2c.1.4-.2.5-.2.5-.4.4-1-.2-1.4-.7-.4-.5-.3-.8 0-.9.3 0 .7-.1 1.3.7l.2.3.7-.8.5.7-.4.9-.7-.7zm5.5-.2l.8-.9.5.8-.4.8-.9-.7zm-6.2-1l.7-.9.6.8-.5.8-.8-.7zm1.5 0l.7-1 .6.8-.5.9-.8-.8zm3.7-.1l.7-.9.5.8-.4.8-.8-.7zm-1-.5l-.4.6.3.4.5-.6-.5-.5v-.1l-.4-.4.4.6zm3-.6l.4-.4.5.7-.4.8-.7-.5-.1.2-.9-.7.8-.8.5.7zm-11 1s.5.3.8-.5c.2-.8-.2-1-.5-1-.3-.2-.7-.1-.9.4-.1.5-.2 1.2.6 1.1zm-12.2-.1s.5.1.6-.5c.2-.7-.2-.8-.5-.9-.3 0-.6 0-.7.5 0 .4 0 1 .6.9zm17-1l.7-.8.5.7-.4.8-.9-.7zm3.9-.6l.9-1 .6.8-.5.9-1-.7zm-1.6-2l-.2.5-.9-.7.8-1 .5.8-.1.3.7-.8.5.7-.3.7.3-.3.5.7-.4.8-.8-.6-.4 1-.6-.6-.4.7-.8-.7.7-.9.4.5.6-.7.4.6.3-.4-.8-.6zm-4.4 1.7c-.2.5-.6.3-.6.3-.8 0-.8-.6-.6-1.1.2-.5.5-.6.8-.5.3 0 .5.2.6.6l.3-.4.5.7-.4.9-.6-.5zm7.4-.4l.7-.9.5.8-.4.8-.8-.7zm-6.5-.2l.7-1 .5.8-.4.9-.8-.7zm5.3-.8l1-.9.5.8-.5.8-1-.7zm-4.1 0l.7-.9.6.8-.5.8-.8-.7zm-4.4-.6s.5.3.8-.5c.2-.8-.2-1-.5-1-.3-.2-.7 0-.8.4-.2.5-.3 1.2.5 1.1zm-4.7-1.3s.4.2.6-.3c.1-.4-.3-.6-.5-.7-.3 0-.6 0-.7.2-.1.3 0 .7.6.8zm134.2-1.3l-2.6.8c.7-1.2 1.4-2.4 2-3.1 0-.2.2-.3.3-.5l.3 2.8zm-131.5-1.6s.5.2.6-.3c.2-.4-.2-.6-.5-.7-.2 0-.5 0-.6.3-.1.3-.1.7.5.7zm104.5-5.5l-3 2.3 3.1 1.1s1-1.3 0-3.4zm-107 2.6s.5.1.6-.3c.1-.4-.2-.6-.5-.7-.3 0-.6 0-.7.2 0 .3 0 .7.6.8zm162.9-1l.7-1 .6.8-.5.8-.8-.7zm-143-4.1l1 3.4 1.7-2.1-2.6-1.3zm145.6-.4l.7-.9.6.8-.5.8-.8-.7zm9-1.6l.8-.9.5.8-.4.8-.9-.7zm-6.6-.3l.7-.9.5.8-.4.8-.8-.7zm6-.9l.7-.7.5.7-.4.9-.5-.4.2.3-.4.8-.8-.7.7-.9zm-4 .1l.7-.9.5.8-.4.8-.8-.7zm2.3-.3l.8-1 .5.8-.4.9-.9-.7zm2.8-.3l.8-1 .5.8-.5.9-.8-.7zm-2.2-3.4l-.2-.2.8-1 .5.8-.3.7.5-.7.5.8-.4.8h-.1l.4.5-.3.6v.1l.7-.7.5.7-.4.8-.5-.4-.4 1-.8-.8.5-.6-.5-.5-.3.7-.9-.8.5-.6-.5-.4-.6-.6.8-.9.5.7zm-1.6 2.7l.8-.9.5.7-.5.9-.8-.7zm-1.4-.3l.8-.9.5.8-.4.8-.9-.7zm-.5-1.2l.7-.8.5.7-.4.8-.8-.7zm1.5 0l.7-.9.5.8-.4.8-.8-.7zm3.6 0l.8-1 .5.8-.4.9-.9-.8zm-1-.5l-.3.6.3.4.5-.7-.6-.5-.3-.4.4.6zm-3.2-.7l.8-.9.5.8-.5.8-.8-.7zm4-.7l.9-.9.6.8-.5.8-1-.7zm-204-5.8l1-.6h2c.5 0 1 2 1 2l-.6 3.6-.7.4a45.1 45.1 0 01-2.8-5.4zm200 4.1l.8-.8.5.7-.4.9-.8-.8zm3.4 0v.2-.1zm-264.4-8.4h-3.6v-7.9h-1l-.2-5 4 .3-.2 6.9.8.5 4.8-7.2 6 .3v5.7l1 .7 4.2-6.2 3.4.1-7.2 11.8h-3.6v-7h-.8l-.5-2.5-7 9.5zm83.7-3h-3v-2.3l.5-.4v-2.4h.7v-1l3.5.2v2.1h-1v2.3h-.7v1.6zm86.2-2h-2.7v-2.2h3.5v.3l-.8.2v1.7zm83-.8h-2.8V151h.7v-2.6h1v-3h.6v-.8h2.8v.6h10.8v-.4h2.9v2.2l-.6.1v2.7h-1v2.4h-.7v2.4h-3v-4h.8v-2.1h.8v-1.3h-10.7v2.3h-.6v2.6h-1v2.5zm-81.5-6.6v2.5l-.7.2v1.7h-3.5v-.3h.5v-2.8h.7V147l1-.3V144h1v-1.8l2.7.2v2.8l-.6.1v2.8h-1.1zm-89.5 1.8v-.6h.8v-2.7h.7v-2.4h.8v-2.3h3.2v3.5h-.6v2.5h-.8v2.1h-4.1zm-65.7-1.9l2-3.2h2.5v1.3l-1.2 2h-3.3zm-5.6-.2l-5.7-.1 2-2.8h3.7v3zm-11.3-.3l-4.1-.1-.2-2.5h4.4l-.1 2.6zm271.3-6h-.6v2.4h-4v-1.3h.7v-2.2h.6v-1.2h3.3v2.3zm-13.6.1h-1.2v2l-3.4-.2v-.6h.7v-2.5h1V139h2.8l.1 2.6zm-76.5-.3l-16.4-.4v-1.2H305v1.6zm-130.3-8.7l.2.6 1.9 2.7 1.4 1.8c-.2 0-2-.1-3-1-.5-.2-.8-.4-1.2-.4.5-1.1.5-2.6.5-3.2l.2-.5zm-24.5-57l.1 1.6-1 1.1 1-.6.1 1.3.3-1.6 2.2-1.4v-.3l.2.7-2.7 2.9 3-1.9v.3l-2.9 1.8 3-1 .2.6-3.9 2.5 4-1.3.1-.3 2 8.2v3.5l.3 3.5 1.4 1.7-.5-1.5-.4-4c.6.6 1.8 0 1.8 0l10-16c3.9 0 7.7.2 10.8.4-.3.4-.2.8.3 1.1l.1.1c-.3.4-.3.9.2 1.1l.2.2h-.1c-.5.5-.4 1 0 1.2l-.3.4h-.3a1 1 0 00-.3.5 3.9 3.9 0 000-.8s.2 0 .2-.4c0-.7-.2-1.4-.6-1-.4.4-.4.8 0 1l-.2.1c-.4.5-.4 1 .2 1.2l.2.2c-.4.4-.3.8.2 1.1l.3.2c.2 0 .3 0 .3-.4v-.3c.1 0 .4.1.3-.4v-.1s.6.5.5-.3v-.8-.4c0-.5 0-1-.2-1 0 0 .1-.2 0-.4 0-.6 0-1-.2-1v-.3l-.2-.7h.5c-.3.4-.2.8.3 1 0 0 .5.5.4-.3V76c3.2.3 5.4.7 5.4.7l-.7 1c-.1-.5-.3-.7-.6-.4l-.2.2s-.2 0-.3.2a1 1 0 00-.3.4v-.1c0-.8-.1-1.4-.6-1-.4.4-.4 1 .2 1.2l.2.1c-.4.5-.3 1 .2 1.2l-.4.6c-.1-.3-.3-.5-.5-.2-.4.3-.4.7-.1 1l-.1.1c-.1-.1-.2-.2-.4 0-.3.3-.4.6-.2.9-5.8 7.9-16.1 22-16.7 23-.7 1.5 0 2.8-.1 4.4-.2 1.6.2 1.5.7 2.7.6 1.1 1 1.3 1.9 2.8.8 1.5 1.7 3.5 2 4.7.4 1.1 1.8 2.2 1.9 3.6 0 1.4.3 3.2.3 3.2l1.6 5.2c-.3 0-.6.2-.7.4-.4.7-.3 1.3-.3 3.5 0 .3 0 .6-.2.8l-1.8.1c-2.1 0-5.6-1.3-5.6-1.3h-10.1v-.1l1.3-1 .3-1.7-1.7 2.5-3-13.8c-.4-2-1.8-1.3-1.8-1.3s-9 14.1-9.7 14.7c-.5.3-1.4 0-2-.3.4-1 .8-2.4.8-2.8 0-.6.4-1-.2-1-.5 0-1 1.1-1 1.1v2.5l-15.2-.4 19.3-27.1v-.7c1.5 0 3.3-1 2.7-1-.5-.2-1.9.3-2.8.7v-1L138 89l-5.3-13.7 17.2.1zm-67.2.1h2.3c2.1 1.5 16.7 4 18.6 4.3 1 .1 1.6.3 1.9.7l-1 1.1 1.1-.4v-.4l.2.5-1.5 1 1.6-.6v.4l-.8.5h1c.2 2.3.9 6.2.9 6.2s-1.6 1.7-1.6 2.4v4.5s-7.8.8-9.2.8c-1.3 0-3.7-2.3-3.7-2.3v-2s0-2.6-3.6-3.7c-1.3-1.7-2-3-3-4l1.8 3.7c-4-.6-5.3 3.3-6 5.3-.8 2 6.7 5.6 13.3 8.3 6.5 2.8 10.4 6.2 9.2 18.2-1.3 12-15.2 14.4-17.5 14.8a45 45 0 01-10.4-.7c-2-.4-2.6-.3-7.1-.7-4.5-.4-6.5-3.8-6.5-3.8s-.8-1.5-1.3-3c-.2-.4-.2-.9-.2-1.3l2.2-1h-2l2.5-1h-2.4v-.5l.2.2 2.9-1.2h-3.1c-.2-2-1.1-6-1.1-6h14.8l.1 3.2c.1 2 2.6 3 6 3.4 3.4.4 4.7-1.6 5.7-3.7.3-.5.4-1 .3-1.4l3.6-1-3.8.3c-.5-1.2-1.7-2.1-2.7-2.7a403 403 0 01-13.5-7.3c-1-.8-1.5-1.4-2.6-3.7-.5-1.1-1.3-2.1-2-2.8l.2-.1c-.1-2.7.2-4.3 0-6l-1.1 5.2-.4-.4s0-4.2.3-6.9c.2-2.6-.3-3.4 5.3-10.2a16.6 16.6 0 015.6-4.2c-.1.5.1.8.7.7h.2c-.1.4.2.7.7.6h.3l-.1.1c-.2.5 0 .8.7.7 0 0 .6 0 .2-.4-.3-.3-.5-.6-.7-.5l-.1-.4c-.3-.3-.6-.6-.8-.4l-.1-.2a2 2 0 00-.6-.5l.5-.2c-.1.4.2.7.7.6 0 0 .7 0 .3-.4l-.4-.4.8-.3v.1c-.2.5 0 .8.6.7 0 0 .6 0 .4-.3.1.1.3.2.6.1 0 0 .7 0 .3-.4-.4-.4-.8-.8-1-.2v.4c-.2-.2-.5-.5-.7-.5l1.8-.5c-.1.5.1.8.7.7h.3c-.2.5.1.7.7.6 0 0 .7 0 .2-.4l-.2-.2s.7 0 .3-.5c0 0 .7 0 .3-.5zm137.2 48l-.3 1.6-3.9 6.7c-.5 1 .8 2.7.8 2.7s-1.4 0-1.9-.5-.2-2-.2-2l-1.8 2 .3-1-.7-.8-.4.3-1.1-3.4v4.1l.1.3a3 3 0 01-.6.4c-.8.3-3.5 0-2.3-.4 1.3-.5 1-1 1-1h-2l-.6-1.6-1.2 1.2-3.3-.1-.2-1c.7-.3 2-1 1.5-2-.3-.6-.5-.8-1-.8l18.7-42c.2.2.5.1.8-.1 0 0 .6-.3 0-.5l-.4-.1.1-.4c.2 0 .3 0 .5-.2l.2-.1c0 .5.5.5 1 .2v-.2l.1.2c.1.5.5.6 1 .3 0 0 .5-.4 0-.5-.4-.1-.8-.2-1-.1 0 0 0-.2-.2-.2-.4-.1-.8-.2-1 0l-.2-.1v-.2l.6-.3s.6-.3 0-.5h-.2l.2-.5c.2.5.5.5 1 .2 0 0 .4-.3.1-.5.2 0 .4 0 .7-.2 0 0 .5-.3 0-.5-.6-.2-1.1-.3-1 .3l.2.4-.8-.2 2.7-6h.2l.1.1c-.2.4 0 .7.6.8h.3l-.2.2c-.3.4 0 .7.6.8 0 0 .6.1.3-.4-.2-.3-.4-.6-.6-.6V77c-.3-.4-.5-.7-.7-.6v-.2c-.2 0-.2-.2-.3-.3l.1-.3h.1c0 .4.2.6.7.6 0 0 .6.2.3-.3l-.1-.3h.5c-.1.4.1.6.6.6 0 0 .5.2.4-.2.1.2.3.3.6.3 0 0 .7.1.3-.4l-.1-.2h.4c0 .2.2.3.6.3h.3c-.3.5 0 .8.5.8 0 0 .7.2.4-.3a5 5 0 00-.2-.3s.7.1.4-.4l.4-.1a53 53 0 0114.1 1.3l-3.8 2.4 4-1.3 4.7 53.3s-.4 1.9-.8 2.2c-.3.4-2.5.5-3.6.2h-1.1l.5-3.6-1.8 3.6h-.2l.6-3.8s-1.7 3-1.8 3.6v.4h-.7l.2-.2.5-3.7-1.5 3-.5-.7.3-.4.5-3.8s-1.7 3.1-1.8 3.7l-2 .1c-1.6 0-4.2-.5-4.2-.5l-1.2-7.8H221l-.8-2.6v2.6h-.2zM36.7 74.4l-.2 3.4.8-2.4-.3-1c9.7 5.1 16 6 19 6.7l-.5.5c.9 2.1-.1 5.7 1 6.9.7-2.4 1.2-4.7.6-7l.4.3c1.6 1.3 3 8.6 3 11.4 0 2.8-2.4 16.7-3.4 22.3a17 17 0 01-4.4 7.3l-1.5-.6-.6.6-.8 1.3 1.7-.8 1-.3c-3.5 4-8.3 7.7-11.2 9.4-1.4.9-3 1.4-4.6 1.7.2-.3 0-.6-.5-.8 0 0-.6-.3-.4.3l.3.6h-.4l-.6-.4H35c.3-.4.1-.8-.4-1h-.3l.2-.1c.4-.4.2-.8-.4-1 0 0-.5-.2-.4.3.2.4.3.8.5.8 0 0-.1.1 0 .4.1.4.3.8.5.7v.2l.1.3h-.2c0-.2-.2-.4-.5-.4 0 0-.6-.3-.4.2v.2h-.5c.3-.3 0-.6-.4-.8 0 0-.5-.2-.5.2 0-.2-.2-.3-.5-.4 0 0-.6-.3-.4.3.2.5.4 1 .8.6l.2-.4.2.6a35.1 35.1 0 01-1.7-.2c.4-.4.3-.7-.3-1h-.3c.4-.4.2-.7-.4-.9 0 0-.5-.2-.4.3l.2.3h-.1s-.6-.3-.4.3v.1s-.6-.3-.4.3c0 .2.1.5.3.6-1.4 0-2.5-.2-3.4-.3a99 99 0 01-17-7.1l-.2-1.1c.7.4 1.7.5 2.6.5 1 0 .6-.7 1.3-1 .7-.5-.7-1.6-.9-.7-.2.8-2.2.8-1.8.7.5-.1.8-1 .8-1l-2.2-.1c-.2-2.5-.2-6.2 0-9 .2-4.6.8-4.4 2.2-12.3.3-2.2 1-4.6 1.7-7l.4.4 2 .9-1-2.4h1.2l-.6-2 1.1-1.5-1.3-.6c1.4-3.6 3-6.4 3.8-6.9 1.8-1 3.6-2.9 6.6-5.8 2.7-2.8 11-3.5 12.3-3.6zm-7.2 60c0-.2.1-.2.2-.3l.3-.2.1-.3c.2.4.3.7.5.8h-1.1zm3-2.8c-.2-.1-.3-.4-.4-.8-.2-.5.4-.2.4-.2.6.1.7.5.4.9h-.2l.2.1c.6.2.7.6.3 1h.3c.6.2.7.6.4 1-.4.4-.6-.1-.8-.7v-.2c-.3.1-.5-.3-.6-.8v-.3zm-1.6.8s-.6-.3-.4.3c.2.5.4 1 .8.6s.2-.8-.4-1zm.7-.2c-.2 0-.3-.3-.5-.7-.1-.6.4-.3.4-.3.6.1.8.5.4.9h.2c.6.2.7.6.3 1-.3.4-.5 0-.7-.7v-.2zm3.8-.5s-.6-.3-.4.3c.2.5.4 1 .8.6.3-.4.2-.7-.4-1zm-5-.6s-.6-.3-.4.2c.2.6.4 1 .8.7.3-.4.2-.8-.4-1zm336.1-51.8c3-2.4 6.2-3.2 6.2-3.2a7 7 0 002.7-.4l1.2 1.2.6-.7h1.8l.7-.6 1.1.8 2 1 .9-.8 1.6.7 1.8.5 2.3-1h.5l.6 1.3-.3-1.5.7-.1 1 2.1-.4-2.2h.6l1.1 2.5-.4-2.5c.4.1.6.3.8.5l.1.3v.2h.1l1 2.4-.4-2.9.5-.3.7 1.7-.2-1.4.5.3.9 2-.4-2.5.1-.6h.8l1.6 3.7s-.5-2.8-.5-3.7h.5l.5 1.5 2 1 .7-1h1.2l.3 1.4v.1l-3.9-.2a60 60 0 003.8 1.3s1 .7 2.1.7c1 0 .5 1.5.5 1.5l-1.8.3s.7 1 1.9 1c1 0 .8.7.8.7s-.8.1-1.3.4l-3-2.7a60 60 0 002.5 3.9c0 1.9-.7 8-.7 8l-5.3-.1c-1.5-.2-2.4 0-3 0-.5 0-1.3 0-2.5.2s-5-.6-5-.7c1.3-5-1.5-7.4-4.4-7.4-2.9 0-5.4 1.8-5.5 4.6-.1 2.7 1.5 3.2 3 4.4 1.6 1.2 4.7 2.1 6 2.7 1.4.6 6.7 3.2 8.3 3.7 1.3.5 5.7 4.5 5.5 10.5-.3-.2-.8.2-.7.5.1.3.2.4.5.2l.2-.1v.3c-.3 0-.5.3-.5.5.1.2.2.4.3.3v.3c-.3 0-.5.3-.5.5l.3.4v.1c-.4-.3-1 .1-.8.4 0 .3.1.5.5.2l-.1.5v.2c-.2.1-.2.2-.2.4-.4-.4-1 0-.8.4 0 .3.1.4.5.1v.3c-.3 0-.6.3-.5.5l.1.3-.2.5c-.4-.2-.9.2-.8.5.1.3.2.4.4.3-.3 0-.6.4-.5.6V120.3c-.4-.3-.9.1-.8.4 0 .3.2.4.4.3-3.5 5.8-9.6 10.1-23 10.7a27 27 0 01-10.8-1.5c0-.2 0-.4-.3-.5-.4-.2-.6-.2-.7.1.1-.2 0-.6-.2-.7-.5-.2-.7-.2-.8.2l-.3-.2c.1-.2 0-.5-.3-.7-.3-.1-.5-.2-.7 0l-.4-.2c.5-.1.5-.7.1-.9-.4-.2-.6-.2-.7.2v.1l-.5-.4c0-.2 0-.5-.3-.6l-.4-.2-.3-.3c.5 0 .6-.6.2-.8-.4-.2-.6-.2-.7 0 0-.2 0-.5-.3-.6h-.2l-.4-.8h.1c0 .4.5.6.5.6.6 0 .7-.7.3-.9-.3 0-.5-.2-.6-.1a.5.5 0 00-.3-.4l-.4-.1-.3-1c.5 0 .5-.6.1-.8l-.5-.2v-.2l.2.1c.7 0 .7-.6.3-.8l-.6-.2v-.5c0 .3.5.5.5.5.7 0 .7-.6.3-.8-.5-.2-.6-.3-.8.2 0-1.9.4-4.2.4-4.2l-1.4.2.8-.8-.2-3 1.4-.7 2.1-.4 3-.2 3.3-.2s2.6-.9 4.1-.9c1.6 0 3 1.1 3 1.1v5.2c0 1.8 1 3 3.7 3.9 2.7.8 6.4-1.1 7.5-4.3 1-3.3-8.6-8-14.8-11.1-6.3-3.1-7-5-7.2-15 0-1.5.2-2.7.5-3.9l4.9-1.6-4 .2h-.3l.8-1.5 4.6.3-3.8-1.3 1.2-1.3 3.1 1.7-2.4-2.3zM30.8 130s-.6-.3-.4.3c.2.5.4 1 .8.6.3-.4.2-.7-.4-.9zm3.8-.2s-.6-.3-.4.2c.2.6.4 1 .8.7.3-.4.2-.8-.4-1zM312 92.3l2.6-15 6.3.1 3.3-.2 1.8-.3 22.4.1.3 2c.3 1.6.7 2 1.5 2.8.7.7 2.1 1.1 2.9 2 .4.4 1.5.8 2.6 1h.2c.2.2.3.2.5.2.2 2.2.3 4.6.3 7.1 0 8-5 13-7 14.7-1.9 1.6-2.8 1.4-2.5.8.3-.6-1.2-1.4-2.4-.7-1.2.6-.6 1.5-1.5 1.6-.9.2-1.8 1.6-2.7 2.3-1 .8-1.8.7-1.8.7l-12-.1-.4.8-.4 3.6-.9 1.9-.3 2.2.4 2.2.2 2.1-.8 1.6c-.5.8-.3 4.7-.3 4.7h-12.8l.7-5.4-1.6 4.3.2-2.2-1.2 3.2h-.8l.5-3.8-1.4 3.8h-.2l.4-3-1.2 3 .5-4-1.1 3-.1-1.9v-2.2s-1.4 0-1.4-.7.7-2.6.7-2.6.5-1.3.6-2.2c.1-.8 1.5-1.1 1.5-1.1l2.6-15.5.4-.2.9-1.4v-2.5l.8-1.5.4-.9 1.4-.4-.9-1 1-.4-.6-.4v-.9l.2-1.2-1.8-.1zM270.3 77h.4l1.6-1 2.1-.4h25.2c0 .2.1.2.3.3.4.1.6.2.7-.2l.3.1c0 .2 0 .5.4.6.4.1.6.2.7-.3 1.7.4 3 1.2 4 2.6-.7 0-.7.7-.2.9h.6l.3.6-.3.1c0-.4-.6-.5-.6-.5-.7 0-.6.7-.2.9h.6a.5.5 0 00.3.4h.5v.5c0-.2-.4-.3-.4-.3-.7 0-.6.7-.2.9.5.1.7.1.7-.3v.3c-.1.2 0 .5.2.7v.4c-.1.2 0 .5.2.6v.2c-.5.2-.4.8 0 .9.2 2.2.1 5-.1 8.2-1 14.7-16.8 17-16.8 17L278 110l-3 17.3-1.8-2.1 1.7 3-.2 1.1h-.6l-1-3 .3 3h-2l.5-3.6-1.4 3.6H269l2.4-3.5-3.8 3.4h-7.8l-1.2.7h-2l.2-1.6 4.5-2.3-4.3 1 7.8-46.7 5.5-3.4zM32.8 128.6s-.6-.3-.4.2c.2.6.4 1 .7.7.4-.4.3-.8-.3-1zm330.2.2s-.6-.2-.4-.6c0-.5.3-.4.7-.2.4.2.4.9-.3.8zm-1.1-.5s-.6-.3-.5-.7c.1-.5.3-.4.7-.2.5.2.4.9-.2.9zm1.2-1.2c0 .3-.1.5-.5.5 0 0-.5-.2-.5-.5l-.4.1s-.6-.2-.5-.7c.1-.4.3-.3.7-.1.2 0 .3.2.3.3h.5v-.2c.2-.4.3-.4.8-.2.4.2.4.9-.3.9zm-2.8 0s-.6-.3-.5-.7c.2-.4.3-.4.8-.2.4.2.4.9-.3.9zm1.9-.8s-.6-.3-.5-.7c.1-.5.3-.4.7-.2.5.2.4.9-.2.8zm-1.7-.6c0 .2-.2.3-.5.3 0 0-.6-.3-.5-.7.1-.3.2-.4.4-.3-.1-.1-.2-.3-.1-.5 0-.4.3-.4.7-.2.4.2.4.8-.1.9l.2.2c0-.3.3-.2.7 0 .4.2.4.8-.3.8 0 0-.4-.2-.5-.5zm2.7.3s-.6-.3-.4-.7c0-.4.3-.4.7-.2.4.2.4 1-.3.9zm1.5-.4s-.6-.2-.5-.7c.2-.4.3-.3.8-.1.4.2.4.8-.3.8zm-5.6-.3s-.6-.2-.5-.7c.1-.4.3-.3.7-.1.5.2.4.8-.2.8zm2.4-.1s-.6-.3-.5-.7c.2-.4.4-.4.8-.2s.4 1-.3.9zm-331.3-4h.9c5-.6 6-3.2 6.5-4.9.5-1.7 4.3-24.6 4.3-24.6s-1-3.5-4-3.7c-3.2-.2-6 2-6.6 3.4-.4 1-1.9 9.2-3 15.5-.7 0-2.4 0-2.5.8-.2 1 1.2-.3 2.5-.7l-1.1 6.7c-.4 2-1 6.8 2.4 7.4l-.7 3.7s1-.5 1.2-2a6 6 0 000-1.6zm332.4 3.6s-.6-.2-.5-.7c.2-.4.3-.3.8-.1.4.2.4.8-.3.8zm-2-.5s-.6-.2-.5-.7c.1-.4.3-.3.7-.1.5.2.4.8-.2.8zm-.8-.8c.3.3.2.8-.4.8 0 0-.6-.2-.5-.7.1-.3.3-.3.5-.3l-.2-.4c.2-.5.4-.4.8-.2s.4.8-.2.8zM96 123.2l-.3.5.9.3.4-.7-1-.1zm268.7.6s-.6-.2-.5-.7c.2-.4.4-.3.8-.1.4.2.4.8-.3.8zm-2.9 0s-.6-.3-.5-.7c.2-.5.4-.4.8-.2s.4.9-.3.8zm-3.3-.2s-.6-.2-.5-.6c.2-.5.4-.4.8-.2s.4.9-.3.8zm8-.7s-.5-.3-.4-.7c.1-.4.3-.4.8-.2.4.2.3 1-.3.9zm-9 0s-.6-.3-.5-.7c.2-.4.3-.4.8-.2.4.2.4 1-.3.9zm35.5-.8s.2.4-.2.6c-.4.2-.5.1-.6-.2 0-.3.5-.7.8-.4zm-34-.3c.4.2.4.9-.3.8 0 0-.6-.2-.4-.6 0-.2 0-.3.2-.4l-.2-.2c0 .2-.2.3-.6.3 0 0-.6-.2-.4-.6 0-.3.2-.4.4-.4-.2 0-.5-.3-.4-.6 0-.4.3-.4.7-.2.4.2.4.9-.2.9h.2l.3.3c0-.4.3-.4.7-.2.4.2.4.8 0 .9zm3.3.8s-.6-.3-.5-.7c.1-.5.3-.4.8-.2.4.2.3.9-.3.9zm-2.3-.1s-.6-.3-.5-.7c.1-.4.3-.4.8-.2.4.2.3.9-.3.9zm38-1.7s.2.4-.2.7c-.4.2-.4.1-.5-.2-.1-.3.4-.7.7-.5zm-1.9-.1s.2.4-.2.6c-.4.2-.5.1-.6-.2 0-.3.5-.7.8-.4zm2-1.9c0-.3.5-.7.8-.5 0 0 .2.4-.2.7-.2 0-.3.1-.4 0v.3h.5s.2.4-.2.6c-.3.2-.4.2-.4 0 0 .2 0 .5-.3.7-.4.2-.4 0-.5-.2-.1-.3.4-.7.7-.5v-.1-.3c-.4.3-.5.1-.5-.2-.1-.2.3-.6.6-.5zm-258-.8s-.5 1.3.2 1.4c.7.1 1-1.2-.2-1.4zm252.3.2s.1.4-.3.6c-.3.3-.4.2-.5-.1-.1-.3.4-.7.8-.5zm-33.4.7s-.6-.2-.5-.7c.1-.4.3-.3.7-.1.5.2.4.8-.2.8zm6.5-.1s-.6-.2-.5-.7c.2-.4.3-.4.8-.1.4.2.4.8-.3.8zm32.6-.8s.2.4-.2.6c-.4.2-.4.1-.5-.2-.1-.3.4-.7.7-.4zm1.7-.2s.1.4-.2.6c-.4.2-.5.1-.6-.2 0-.3.4-.7.8-.4zm-.9-.5c0-.3.5-.6.8-.4 0 0 .2.4-.2.7-.3.2-.4.1-.5 0l-.2.4c-.4.2-.5 0-.6-.2 0-.3.4-.7.7-.5zm-2-.3s.1.4-.2.6c-.4.3-.5.2-.6-.1 0-.3.5-.7.8-.5zm2.2-.5s.1.4-.2.6c-.4.3-.5.2-.6-.2 0-.3.4-.7.8-.4zm-1 0s0 .3-.3.6c-.4.2-.5 0-.6-.2 0-.3.5-.7.8-.5zm2-1l.5.1s.1.4-.2.7h-.5c0 .1 0 .3-.2.4-.4.2-.5.1-.6-.2 0-.3.4-.6.7-.5v-.2c-.2.1-.3 0-.4-.3 0-.3.5-.7.8-.4v.5zm-169.3-1.8l.3-.2c.6-.6 1.3-2.3 1.3-3.1v-9.2s.5-3.5 1.1-4.3c.6-.7 0-2 .2-3l.1-2.3s-.9.4-1.4 1.2c-.5.9-.9 2.1-1 2.4-.1.3-.7 2.8-1.4 3.8-.6 1-.9 2.8-1.4 4-.6 1-3 8.2-3 8.2s-.4 2.4.2 2.5l1.7-.6a92 92 0 002.3.7v2.7l1-2.8zm168.4 1.9s.1.4-.3.6c-.3.2-.4.1-.5-.2 0-.3.4-.7.8-.4zm-.9-.2s.2.4-.2.6c-.4.2-.5.1-.6-.2 0-.3.5-.7.8-.4zm-1.9-.1s.2.4-.2.6c-.4.2-.4.1-.5-.2-.1-.3.4-.7.7-.4zm-1.7-.2s.2.4-.2.7c-.4.2-.4 0-.5-.2-.1-.3.4-.7.7-.5zm-34.2.7s-.6-.2-.5-.6c.2-.5.3-.4.8-.2.4.2.4.9-.3.8zm39-1.2s.2.4-.1.6c-.4.3-.5.2-.6-.1 0-.3.4-.8.8-.5zm-.7-.2s.2.4-.2.6c-.4.2-.5.1-.6-.2 0-.3.5-.7.8-.4zm.9-.7c.1-.2.4-.3.6-.1 0 0 .2.3 0 .5H400.4s.1.5-.3.7c-.3.2-.4.1-.5-.2l.1-.3c-.2 0-.2 0-.3-.2l-.2.1c-.3.3-.4.2-.5-.1 0-.3.4-.8.8-.5zm-2 .3s.2.4-.2.7c-.4.2-.5.1-.6-.2 0-.3.5-.7.8-.5zm3.5-.6s.2.4-.2.6c-.4.3-.5.2-.6-.1 0-.3.5-.7.8-.5zm-.2-.8s.1.4-.2.6c-.4.3-.5.1-.6-.2 0-.3.4-.7.8-.4zm.7-1.5s.1.4-.3.6c-.3.2-.4.1-.5-.2-.1-.3.4-.7.8-.4zM239 109l.7 2.4s2.4-.8 1.8-2.1c-.6-1.3-1-.9-2.5-.3zm-81.8-2.7v3.2l1-1.6c.4-.5-1-.7-1-1.6zm232.5-.7l-1.4 2 3-.3-1.6-1.7zm-5 .3l1-1.6 1.7 1.7-3 .3.2-.3-2.8.3 1.4-2 1.5 1.6zm-115.3-4.6l-1.4 2 3-.3-1.6-1.7zM289.8 86a3 3 0 00-1.1-.5c-1.6-.3-5.9.1-5.9.1l-3 13-2.2 4.3 2.9-3.5 1.1.2c1.3 0 6.3 0 7.2-1.6a31 31 0 001.5-6.7v-4.6l1.7-3.3-2.2 2.6zm49 1.1a2 2 0 00-1-.3l-5.8.1-3.3-2.7 2.6 3.4-1 4.7-.6 2-.3 3-.5 2s-.4 1 1.3 1c1.6 0 2.5.8 3.7.2 1.3-.7 4.7-.5 5-4.4.4-3.9.8-5.7.9-6.5 0-.4 0-1-.3-1.6l.6-4.3-1.3 3.4zm44.5 11.6l-1.4 2 3-.3-1.6-1.7zM45.3 97l-.6 1H46l-.8-1zM354 89.3s.6.1.6.6c-.1.4-.3.4-.8.2-.4-.1-.4-.8.2-.8zm-49.5-.6s.6.1.6.6c0 .4-.3.4-.7.2-.5-.1-.5-.8.1-.8zm44.2-1.7s.6.2.5.6c0 .4-.2.4-.7.3-.5-.2-.5-.8.2-1zm-49.5-.6s.6.2.5.6c0 .4-.2.4-.7.3-.4-.2-.5-.9.2-1zm-73.7.4s.5-.3 0-.5c-.6-.1-1.1-.2-1 .3.1.5.5.6 1 .2zm129.7-.8s.6.2.5.6c0 .5-.2.4-.7.3-.5-.2-.5-.8.2-.9zm-131.7.4s.6-.3 0-.5c-.6-.1-1-.2-1 .3.2.5.5.6 1 .2zm82.2-1s.6.2.5.6c0 .5-.2.4-.7.3-.4-.2-.5-.8.2-.9zm-78.2.6s.5-.3 0-.5c-.6-.2-1.1-.3-1 .3.1.5.5.6 1 .2zm97.6-2l-1.4 2 3-.3-1.6-1.7zm-149.9 1.9s.6.4.5-.3c0-.7-.2-1.4-.6-1-.4.5-.4 1 .1 1.3zm50-1.8l.9.1c.6.2 0 .5 0 .5-.5.4-.9.3-1-.2v-.2h-.1c-.5.5-.9.4-1-.2l-.2.2c-.5.4-.9.3-1-.2 0-.5.4-.4 1-.3l.2.1c0-.2.5-.1 1 0 .2 0 .2.1.2.2zm-47.7.4s.5.4.5-.3c-.1-.7-.2-1.4-.6-1-.5.5-.4 1 .1 1.3zm127.8-2c-.5 0-.5-.7.1-.8 0 0 .6.2.6.6l-.2.4s.2 0 .2.2c0-.2.2-.4.5-.4 0 0 .6.1.6.6 0 .3-.2.4-.4.3.2 0 .5.3.5.6 0 .5-.3.4-.7.3-.5-.2-.5-.8 0-.9h-.1a.5.5 0 01-.3-.3c-.1.5-.3.5-.7.3-.5-.1-.5-.6-.1-.8zm-131.6 1.6s.6.4.5-.3c0-.7-.2-1.3-.6-1-.5.5-.4 1 .1 1.3zm173.4-1s.6.1.5.6c0 .4-.2.4-.7.3-.4-.2-.5-.9.2-1zm4.3-.2s.6.1.5.6c0 .4-.2.4-.7.2-.4-.1-.5-.8.2-.8zm-124 .7s.6-.4 0-.5c-.6-.2-1-.3-1 .2.2.6.5.7 1 .3zm-2.2-.6h1c.5.2 0 .6 0 .6-.6.3-1 .2-1-.3l-.2.1c-.5.4-.9.3-1-.2 0-.5.4-.4 1-.3l.2.1zm-49-.7l.2 1c0 .7-.5.3-.5.3-.5-.3-.5-.8-.1-1.2l.1-.1v-.1c-.6-.3-.7-.8-.2-1.2l-.3-.2c-.5-.3-.6-.8-.1-1.2.4-.4.5.2.6 1v.3c.2-.1.3.4.4 1l-.1.4zm4.4 1.2s.5.5.4-.2c0-.8-.2-1.4-.6-1-.4.4-.4 1 .2 1.2zm-2.5-.2s.5.5.5-.2c0-.8-.2-1.4-.6-1-.5.4-.4 1 .1 1.2zm119.5-.8s.6.1.5.6c0 .4-.2.4-.7.3-.4-.2-.5-.9.2-1zm52.6-5.5c.5 0 1 0 1.5.2-.2.2-.1.6.2.7.5.2.7.2.7-.2v-.2l.6.4c-.1.2 0 .5.3.6.3.1.5.2.6 0 0 .2.1.2.2.3-.6.1-.5.8 0 1 .3 0 .5 0 .6-.2 0 .3 0 .4.2.5l.2.3c-.7 0-.6.7-.2.9h.6c0 .2 0 .4.2.6-.5.2-.4.7 0 .9h.2v.3h-.1c-.2 0-.3 0-.4.2h-.3l.1-.4c.1-.4-.5-.6-.5-.6-.5 0-.6.5-.4.7-.3 0-.5-.3-.7-.5.3 0 .4 0 .4-.3 0-.2 0-.4-.2-.5.3 0 .4 0 .4-.3.1-.5-.5-.6-.5-.6-.6 0-.6.5-.3.8l-.3.1v-.2c0-.4-.6-.6-.6-.6h-.1l-.4-.1c.1-.5-.5-.6-.5-.6-.3 0-.5.2-.5.3l-.5-.2c-.3-.3-.5-.6-.5-1l.1-.3v-.2h.5s.1.2.3.2c.5.2.7.2.7-.2.1-.5-.5-.6-.5-.6l-.4.1c-.1-.3-.6-.4-.6-.4l-.4.1v-.3c.2 0 .3 0 .4-.4v-.1l-.1-.2zm-48.3 5.2s.6.2.5.7c0 .4-.2.4-.7.2-.4-.1-.5-.8.2-.9zm-124.7-.5c.2 0 .2.5.3 1 0 .7-.5.3-.5.3-.5-.3-.6-.8-.1-1.2l-.2-.1c-.5-.3-.6-.8-.1-1.2.4-.4.5.2.6 1v.2zm127 .3s.6.2.5.6c0 .5-.2.4-.7.3-.4-.2-.5-.8.2-.9zm-77.4.7s.6-.3 0-.5c-.5-.2-1-.3-1 .2.2.6.6.7 1 .3zm122-.8s.6.2.6.6c-.1.5-.3.4-.8.3-.4-.1-.5-.8.2-.9zm-123.3.5s.5-.4 0-.5c-.6-.2-1.1-.3-1 .2.1.6.5.7 1 .3zm73.8-1s.6 0 .6.5c-.1.5-.3.4-.8.3-.4-.1-.4-.8.2-.9zm55.7-.1s.6.2.5.6c0 .4-.2.4-.7.3-.5-.2-.5-.9.2-1zm-52.8-.3s.6.2.6.6c-.1.5-.3.4-.8.3-.4-.2-.5-.8.2-.9zM81.3 82s.7 0 .3-.5c-.5-.4-.8-.8-1-.2-.2.5.1.7.7.6zm93.5-1.5c.2.1.2.5.3 1 0 .8-.5.3-.5.3-.5-.3-.6-.8-.1-1.2l.1-.1-.2-.1c-.5-.3-.5-.8-.2-1.2h-.1c-.5-.4-.6-.9-.2-1.3.5-.4.6.2.7 1v.1c.2 0 .2.5.3 1.1l-.1.4zM304 81c-.3-.3-.3-.8.3-.9 0 0 .6.2.6.7 0 .3-.2.4-.5.3.2.1.3.2.3.5-.1.4-.3.4-.8.2-.4-.1-.4-.7.1-.8zm-130.8.7s.6.4.5-.3c0-.7-.2-1.3-.6-1-.4.5-.4 1 .1 1.3zm4.6 0s.5.4.4-.3c0-.8-.1-1.4-.6-1-.4.4-.3 1 .2 1.2zm47.8-.8l.3.1c.6.2 0 .5 0 .5-.5.4-.8.3-1-.2l-.1.2c-.5.4-.9.3-1-.2-.1-.6.4-.5 1-.3l-.1-.3v-.3l-.1-.3c-.1-.5.4-.4 1-.3.5.2 0 .5 0 .5h-.1l.1.1c.6.2 0 .5 0 .5zm79.8-.2s.6.2.5.6c0 .4-.2.4-.7.3-.4-.2-.5-.9.2-1zm-226.3 1s.6 0 .2-.5c-.4-.4-.8-.8-1-.3-.1.5.2.8.8.7zM181.5 80l.2 1c0 .7-.4.3-.4.3-.6-.3-.6-.8-.2-1.2l.2-.1-.2-.1c-.5-.3-.6-.8-.1-1.2l-.3-.2c-.5-.3-.6-.8-.1-1.2.4-.4.5.2.6 1v.2c.3 0 .3.5.4 1.1l-.1.4zm121.8.3s.6.2.5.6c0 .4-.2.4-.7.3-.5-.2-.5-.9.2-1zm-74.5.8s.7.2.4-.3c-.3-.6-.6-1-1-.5-.2.4 0 .8.6.8zm119.7-1s.6.2.5.7c0 .4-.2.4-.7.2-.4-.1-.5-.8.2-.8zm-47.3 0s.6.1.5.6c0 .4-.2.4-.7.2-.4-.1-.5-.8.2-.8zm51.4-.6c0-.2.2-.3.5-.3 0 0 .6.2.5.6 0 .3-.1.4-.3.4.1 0 .3.2.2.4 0 .4-.2.4-.7.3-.4-.2-.5-.7 0-.9l-.2-.2c0 .3-.3.3-.7.2-.4-.2-.5-.9.2-1 0 0 .4.2.5.5zm-170.1-.2c.2 0 .2.6.3 1.1 0 .7-.5.3-.5.3-.5-.3-.6-.8-.1-1.2l-.2-.1c-.5-.4-.6-.8-.1-1.2.4-.5.5.2.6.9v.2zm171.6.4s.6.2.6.6c-.1.5-.3.4-.8.3-.4-.2-.5-.8.2-.9zm-52-.1s.7.1.7.6c-.1.4-.3.4-.8.2-.4-.1-.4-.8.2-.8zm-3.1 0s.6.1.5.6c0 .4-.2.4-.7.2-.4-.1-.5-.8.2-.9zm-122.2 0l.3-.6c.5-.4.6.2.6 1 0 .7-.4.2-.4.2-.3-.1-.4-.3-.5-.5 0 .4-.4 0-.4 0-.6-.3-.6-.7-.2-1.2.5-.4.6.2.6 1zm50 .7s.7.2.4-.3c-.3-.5-.6-1-1-.5-.2.5 0 .8.6.8zm76.3-1.4c0-.2.2-.3.5-.3 0 0 .6.1.5.6 0 .3 0 .4-.3.4.2 0 .3.2.2.4 0 .4-.2.4-.7.3-.4-.2-.5-.7 0-.9l-.2-.2c0 .3-.3.3-.7.2-.4-.2-.5-.9.2-1 0 0 .4.2.5.5zM77.7 80.3s.6 0 .2-.4c-.4-.4-.8-.8-1-.3-.1.5.2.8.8.7zm273.2-1.1s.6.1.6.6c-.1.4-.3.4-.8.3-.4-.2-.4-.9.2-1zm-270.6 0c.2 0 .5.2.7.5.4.4-.2.4-.2.4-.6.1-.9-.2-.7-.7v-.1H80c-.6 0-.9-.2-.7-.7H79c-.6.1-.9-.2-.7-.7.1-.5.5-.1 1 .3v.2c.3-.2.6.1 1 .5v.3zm224.3-.1s.6.2.6.6c-.1.4-.3.4-.8.3-.4-.2-.4-.8.2-.9zm-36.3-2.4l-3.4 3.3.7-4.3 2.7 1zm32 2.3s.7.2.7.6c-.1.4-.3.4-.8.3-.4-.2-.4-.9.2-1zm-217.8.8s.7 0 .2-.4c-.4-.4-.8-.8-1-.3 0 .5.2.8.8.7zm90.4-.3s.5.5.5-.2c-.1-.8-.2-1.4-.6-1-.5.5-.4 1 .1 1.2zm128.5-1s.6.2.6.7c0 .4-.3.4-.7.3-.5-.2-.5-.9.1-1zm-118.2.8s.5.5.5-.3c-.1-.7-.2-1.3-.7-.9-.4.4-.3.9.2 1.2zm47.3 0s.6.2.3-.4c-.3-.5-.6-.9-.9-.4-.3.4 0 .8.6.8zm-55.3-.2s.5.5.4-.2c0-.8-.1-1.4-.6-1-.4.5-.4 1 .2 1.2zm53.3-.9c.2 0 .4.3.6.7.3.5-.4.3-.4.3-.6 0-.8-.4-.5-.8v-.1c-.7-.1-.9-.4-.6-.9h-.3c-.6 0-.8-.4-.5-.9.2-.4.5 0 .8.5l.1.2c.3-.1.5.2.8.7v.3zm-152.3 1s.7 0 .3-.4c-.4-.5-.8-.8-1-.3-.1.5.1.8.7.7zm228.7-1s.6.2.5.6c0 .5-.2.4-.7.3-.4-.1-.5-.8.2-.9zm-224 0l.7.5c.4.5-.2.4-.2.4-.6.1-.9-.1-.7-.6h-.2c-.6 0-1-.2-.7-.7.1-.5.5-.2 1 .2v.2zm271.7 0s.7 0 .6.5c0 .5-.3.4-.7.3-.5-.1-.5-.8.1-.9zm-168 .7v-.2.2zm115.7-1c0-.3.1-.6.5-.6 0 0 .5.1.6.4l.4-.1s.6.1.5.6c0 .4-.2.4-.7.2a.5.5 0 01-.3-.3c0 .2-.2.2-.5.1v.2c0 .5-.2.4-.7.3-.4-.2-.5-.8.2-.9zm-217.8.9s.6 0 .2-.5c-.4-.4-.8-.7-1-.2-.1.5.2.8.8.7zm143.2 0s.6 0 .3-.4c-.3-.5-.6-1-.9-.5-.3.4 0 .8.6.8zm77.4-1.3s.7.2.6.6c0 .5-.2.4-.7.3-.5-.2-.5-.8.1-.9zm-73.9-.1c.2 0 .4.3.7.6.3.6-.4.4-.4.4-.6 0-.8-.4-.5-.8h-.2c-.6 0-.8-.4-.6-.9.3-.4.6 0 1 .5v.2zm1.5.9s.6.1.3-.4-.6-1-.9-.5c-.3.5 0 .8.6.9zm120.2-1.1s.7.1.6.6c0 .4-.3.4-.7.2-.5-.1-.5-.8.1-.8zm-168.8 0c0-.2.2-.3.3-.5.5-.4.6.2.6 1 0 .7-.4.2-.4.2-.3-.1-.4-.3-.5-.6 0 .5-.4.1-.4.1-.6-.3-.6-.8-.2-1.2.5-.4.6.2.6 1zm122-.1s.7.1.6.6c0 .4-.2.4-.7.2-.5-.1-.5-.8.1-.8zm-222.7.7s.7 0 .3-.4c-.4-.5-.8-.8-1-.3-.2.5.1.8.7.7zm220-1.2s.7.1.6.6c0 .4-.2.4-.7.2-.5-.1-.5-.8.1-.8zm1.2-.1s.6.1.6.6c-.1.4-.3.4-.8.2-.4-.1-.5-.8.2-.8zm-124.4.7s.5.5.5-.3c-.1-.7-.2-1.3-.6-.9-.5.4-.4 1 .1 1.2zm51.7-.1s.6.1.3-.4-.6-.9-.9-.4c-.2.4 0 .8.6.8zm70.3-1s.7.2.6.6c0 .5-.3.5-.7.3-.5-.1-.5-.8.1-.9zm-149.4-.7h.9l-1 1.2.1-1.2zm-69 .4l-.1.2v.4l-.1-.1-.4-.4.5-.1zm146.4-.1v.2l-.2-.2h.2zm2.2 0zm-56-15l3.8-25.4s5.1-24.5 5.7-24.5h7.6l7.6.4-2.1 8.1 2.7-6.1.5-.4c-.6 4-2.4 14.7-3 17-.7 2.8-3.8 20.7-3.8 20.7l1.8 2s11.5-.5 15.9-.3c4.3.2 4.5 1.2 4.3 2.7a45 45 0 01-3 10.5c-.8.6-3.4.6-7.7.6-4.2 0-9.5 0-18.3 1.1-4.6.6-7.6-1-9.5-2.8l6.2-4-5.7 2.5 4-2.6-5.7 2.5 4.9-3.2-5.4 2.4 5.9-3.8-6.2 2.7h-.5zM357.1 55l44.1 2c-.6 3.3-2 9.1-3.4 9.7-1.7.8-4 .3-4.6-.6-.6-.8 0-2.7 0-3.7l-.3-.9 2.1-3.4-2 1.9-1 1.2c-.3.1-.6.2-.9.5-1.1.9-4.2 3.3-5.7 3.9-1.5.6-2.7 1.2-4.6 1.5-2 .3-4.6-.8-9.4-1-4.7-.1-6.9-1.7-10.4-3.9l-.8-.5 2.7-4.1-2 1.8-1.1 1.2-.3.6c-1.9-1.6-1.7-3-2.4-6.2zM234 10.2c4.3-.3 11.4-.6 14-.6 3.7 0 8 1.4 15.6 3.6 1 .3 2 .8 2.8 1.5l-3 5.9 3.4-5.5c4.6 4.3 5 13.6 5 13.6s-1 3-1 5.4a88 88 0 01-5 21.7 40.8 40.8 0 01-14 10.5c-2.6.7-16.9 0-23.5 0-6.6 0-7.5-1.4-8-3.4-.6-2 1-10.1 1-10.1l1.4-3.2s.9-8.3.9-10.2c0-2 2-12.7 2.8-17 .8-4.4 4.2-12 4.2-12h.2c0 .3.5.2.6-.1h.1c-.3.6.5.7.6.3 0-.2-.1-.3-.3-.3h.4c-.4.6.4.7.5.3 0-.3-.2-.4-.4-.4h1.6zm51.3 55.7l-4.7.4-1.7-2s-2.2 1.4-3 1l-.5-.8 4.4-1.5-3 .5-.1-1 1.9-.7-2 .2v-.6h1.8l-1.8-.5v-.4l.5-1-.6-.3-1 .7.3.8-.5-.2-.7-.7-.2.1.6-8.2 6.6-34.3c.8-3.9 1.8-6.5 2.3-7.6l3 3.6-2.1-3.5-.1-.6c2.4.1 7.1.2 8.9 0 2-.4 2.5 1 4 1.3 1.3.3 2.7 2.6 2.7 2.6l-3 16.3s-6.3 31.9-6.6 34.4c-.4 2.4-1.8 2-1.9 2h-3.5zm-137.2-2.5c1.2-6.3 8.9-44.2 8.9-47.1 0-3.3 1.4-6.3 2.2-6.8.9-.4 4.2 0 4.2 0l3.2 1h7.3l-3.7 6.4 2.8-3.1 1.6-2 .5-.9c-.9 4.9-9.3 52.7-10 52.7-1 0-4 .4-6.9 2-2.2 1.3-7.1-.2-9.3-1l6.5.1-4-1-2.5-.3h-.8zm153.5-10.8l16 .7c-.7 3.9-1.5 8.4-1.9 9.4-.3.9-.8 1.2-1.3 1.4l-.4-1.6-1.8-3.5.7 3-.4 1 1.1 1.4-1.2.3c-1.4.6-1.4 1.4-3.7 1.4-2.3 0-1.9-1-4-1.8-2-.9-2.7-.8-3.7-1.4-1-.5-.2-5.3 0-7.4 0-.9.3-2 .6-3zm-195.9 9.3C97.1 57.2 99 47.4 99 47.4s2.8-17.4 4.4-24.7c1.6-7.3 2.6-14.4 4.3-14.8 1.7-.5 6.8-.8 6.8-.8l2.3.4-1.6 5 2.7-4.6h.1l-1.5 4.8 2.6-4.4.3.2-1.5 4.9 2.3-4-1.2 4 2.2-3.9-2 6.6 2.8-4.7.3-.6c.2.5.3 1 .1 1.6A351 351 0 00117 43c-1 10.2 1.8 9.2 4 10.7 2 1.3 2.5.6 4.3-.7l-2.3 7 2.7-4.6 1.5-2.8.6-2.4-.4-.7a395 395 0 007.2-38.6c0-1.3 2.8-1.8 2.8-1.8s4.3-1.3 6-1.3c1.8 0 7 2.3 7 2.3s-7.6 40.1-9.8 45.8c-2.1 5.7-3.1 8.9-23.9 8.4-3.3 0-6-.5-8.1-1.2h6.7l-5.2-.9-3.1-.4h-1.2zM53.4 10.8c2.6-3.4 25.1-3.1 31.5-2l3 13.3-.4-6.4L87 12c.1 0 .2-.1.3-.4l-.4-.1-.6-2.4.1.1 3.1 2.2v.2c0 .2.4.3.6.2 2.4 1.7 5 3.8 5.2 5 0 13.4-9.7 18.4-9.7 18.4S93.2 36 90 51c-3.3 15-22.5 12-22.5 12s-5.6 0-7.6 1c-1.3.7-7-.3-10.9-1.1v-5.2l-.7-2.4-1.5-.8L53.1 12l1 .1h3L59 11l-5.6-.1zm272.5 42.8l22.7 1-.8 3.9c0-.6-.6-.5-.7 0 0 .5.4.4.6.4l-.3 1.1c0-.7-.6-.7-.7-.2v.3c-.1 0-.3 0-.4.4 0 .5.5.4.6.4v.2c-.1.2 0 .3 0 .4v.1c0-.2-.2-.2-.3-.2 0-.6-.5-.7-.7-.3-.1-.2-.5 0-.5.3 0 .6.6.4.6.4v-.2l.3.1c0 .4.1.5.3.5l-.2.1c0-.5-.6-.5-.7 0v.4l-.7.3c0-.5-.6-.4-.6 0v.2l-.4.1c-.2-.4-.6-.2-.6.2l-.4.1c.2-.8-.6-.8-.6-.3 0 .2 0 .4.2.4H342.3c0-.4-.5-.3-.6.2 0-.5-.6-.5-.7 0v.1c.2-1-.6-1-.6-.4 0 .4.1.5.3.5h-.6c-.2-.7-.7-.4-.7 0h-1.1c.6-.5.3-1 0-.8.2-.3 0-.5-.1-.6.4-.5 0-.8-.3-.6 0-.3-.4-.4-.6-.1-.5.4.2.7.2.7l.1-.2.2.3c-.4.4 0 .7.1.7-.1.3.1.5.2.6h-.3c.3-.5-.2-.8-.5-.5-.2.1-.2.3-.2.3h-.1c.1-.4-.3-.6-.6-.2l-.1.1c.5-.5-.1-1-.5-.5-.1.2-.1.3 0 .4l-2.4-.3c-1.5 0-4.5-4.1-7-8.7a41 41 0 00-.5-1zM288 64l-.6-1 1.2-1 .4.4.2.9-1.2.7zm-13-.8l1.4-.6.3 1-1 .1-.6-.1-.1-.4zm62.2.4s-.6-.2-.2-.7c.4-.4 1 .1.2.7zm5.1-.2s-.6.1-.6-.5c0-.5 1-.5.6.5zm-6.6 0s-.6-.3-.2-.7c.4-.5 1 0 .2.7zm5.8 0s-.6 0-.6-.5c.1-.6 1-.5.6.4zm-2.7-1c.4 0 .6.5 0 1 0 0-.6-.3-.2-.8h.2c-.2-.2-.6-.4-.2-.8.2-.2.4-.2.5 0l.2-.2c.3-.4.9 0 .4.5.2 0 .4.4-.2.8 0 0-.6-.2-.2-.7l-.1-.2c0 .1-.1.3-.4.5zm2 .8s-.7.1-.7-.5c.1-.5 1-.5.6.5zm2.2-.8c.2-.3.7-.1.5.7 0 0-.6.1-.6-.3-.2 0-.6 0-.6-.4l-.3-.2v.3s-.7.1-.6-.5c0-.4.4-.5.6-.3 0-.4.6-.3.6.3.2 0 .4 0 .4.4zm-6.4.7s-.7-.2-.2-.7c.4-.4 1 .1.2.7zm-1.8 0s-.7 0-.5-.5c.2-.5 1-.5.5.4zm10.7-.4s-.6.2-.6-.4c0-.6.9-.6.6.4zm-299-7.1l1.6 7.1-2.5-.5 1-6.6zm298.2 7s-.6.1-.6-.5c0-.5.9-.5.6.5zm-8.7 0s-.6-.4-.2-.8c.4-.4 1 .1.2.7zm5.2-.2s-.7.1-.6-.5c0-.6.9-.5.6.5zm1.8-1c.2-.2.6 0 .4.8 0 0-.6.1-.6-.5l.1-.2c-.1 0-.6 0-.5-.4 0-.3.2-.4.4-.4v-.3c0-.5.7-.5.6.2.2-.1.6.1.4.8 0 0-.7.2-.6-.4v-.1h-.2v.6zm-6.1.7s-.6-.2-.2-.7c.4-.4 1 .1.2.7zm-62.4-.7h1.5l.2.6-.8.1-.8-.4V61.4zm63.9.5s-.6-.2-.2-.7c.4-.4 1 .1.2.7zm6.8-.2s-.7.2-.6-.4c0-.6.8-.5.6.4zm-5.8-.2s-.6-.3-.2-.7c.4-.5 1 0 .2.7zm1.2-.1s-.6-.3-.2-.7c.4-.4 1 0 .2.7zm1.7-.1s-.7.1-.6-.4c0-.6.8-.6.6.4zm-90-.4l-.5-.9 1.2-1 .4.3.1 1-1.1.6zm94.9-.2a.3.3 0 00-.3.1v-.5h.3v.4zm-1 0s-.6.1-.5-.5c0-.5.8-.5.5.5zm-8.2-.8c-.2 0-.3-.1-.3-.4 0-.5.7-.6.7.1.3 0 .5.4-.1.9 0 0-.5-.2-.3-.6zm-83.3.5l-.6-.9 1.2-1 .4.3.2 1-1.2.6zm88-.1s-.6.1-.5-.4c0-.6.9-.6.6.4zm-1.4-.1s-.6.1-.6-.4c0-.6.9-.6.6.4zm5.5-.5s-.7.1-.6-.4c0-.6.9-.6.6.4zm-1.5-.1s-.7.1-.6-.4c0-.6.9-.6.6.4zm-1.6 0s-.6 0-.6-.5c0-.6.9-.6.6.4zm-1.8-.3l-.2-.4c0-.4.4-.5.6-.3.2 0 .4.3 0 .7l-.2.1-.2-.1zM79 58.7l1.6-2 1.3 1-.3.4-.8.3-1.8.3zm260.1 0s-.6-.2-.2-.7c.4-.4 1 .1.2.7zm-3-.2s-.6-.3-.2-.7c.4-.5 1 0 .2.7zm4.8-.2s-.6.1-.5-.5c0-.5.8-.5.5.5zm4-.6s-.6.1-.6-.5c.1-.5 1-.5.6.5zm-1.1-.7s-.7.2-.6-.4c0-.6.8-.6.6.4zM209 57l-.6-.8 1.2-1 .4.3.1.9-1.1.6zm138.6-.6s-.6.2-.5-.4c0-.6.8-.6.5.4zm-108-2.7c.9.5 2.2.2 3.7-.4 2.2-.8 3.7-2.4 4.9-3.8 1.2-1.3 3.9-6.5 4.4-11 .5-4.5 3.7-14.5-5-15.7l-2.7.9s-4.2 9.2-4.2 10.8c0 1.6-1.3 8.2-1.3 10.8 0 2.6-1.6 5.4-.7 7.3 0 .3.2.5.4.7l-1.5 3 2-2.6zm117.3.2c-.7-4.4-.2-12.6.8-16.3 1-3.8 1.9-7.6 2.7-11.5.8-3.7 1.7-6.3 3-8.8.5-1 1.7-2 2.9-2.7l2.1 2.2-1.4-2.4-.1-.2.3-.2 1.8 2.5-1-2.6-.2-.2.4-.1.7 2-.2-2.3h.2l1.5 4.3-.2-2.7-.3-1.5-.2-.7c.4-.4 1.2-1 2.5-1.5 1.9-.7 5.4-1.6 5.4-1.6 1-2 11.1-2.4 11.1-2.4s7.6 3.7 9.4 4.4c1.8.6 4.1 2.2 5.5 3 .3 0 .6.3.9.5-.2 0-.3.3 0 .6l.2.2c-.1 0-.2.3 0 .6.5.4.8 0 .8 0l.2.2c.3.3.6.1.7 0h.1l-.1.4c-.3-.3-.6-.2-.6 0-.6-.6-1-.2-.7.2-.3 0-.4.3-.1.7.4.5.8-.1.8-.1l-.2-.3.3-.1c.4.5.7 0 .8 0h.1c-.2.1-.3.4 0 .7v.3c-.2 0-.2.4 0 .7-.4-.4-.8.1-.4.5.2.2.4.3.5.2v.7c-.1-.4-.6-.2-.6.3 0 .6.5.5.6.5v.5c-.1 0-.3.1-.3.4 0 .4.2.5.4.5v.6c0-.7-.6-.7-.7-.2-.2-.3-.5-.1-.5.4 0 .7.6.4.6.4v-.3l.4.1v.1c0 .3 0 .4.2.5v1.5c0-.7-.4-.8-.6-.5h-.2c-.2-.2-.6 0-.6.4s.3.5.5.5h.2l.1-.2.3.1-1.4 1.3c0-.2-.1-.3-.3-.3.7-.6.1-1-.3-.6l-.2.3c-.1-.2-.4-.2-.6 0-.4.5 0 .8.1.9l-.2.1c-.3.4-.1.6 0 .7v.1h-.4c.3-.4.2-.6 0-.7.5-.6 0-1-.3-.6 0-.4-.4-.5-.7-.1-.4.5.2.8.2.8l.2-.2.2.2c-.5.5 0 .8 0 .9v.2c0-.3-.4-.4-.7 0-.2.1-.2.3-.1.4l-.6.3c.8-.7.2-1.2-.3-.7-.3.4 0 .7.1.8l-1.5.3c-2.8 0-2.8.1-6 .6s-3.4-.5-3.4-1.4c0-1 .1-3.8-.7-6-.9-2.4-3.4-2.4-5.7-2.6-2.4-.1-5.2 1.6-6.5 3.1l-.3.5-4.3-.8 2.5 1.1 1.5.6c-.1.9.4 1.8.4 3.4 0 2.5-.3 4.5-.9 5.6a26 26 0 00-2 6.4c-.8 3.7.7 8.5 1.7 9.5s1.7 1.6 3.7 2.4c2 .8 4 .9 5.8.7 1.8-.3 1.8-1.7 2.6-3.5.5-1.2.4-2.2 0-3l4.5.1-4-1-2.5-.3h-.2l-2.5-.6c-1.5-.5-.4-1.7.1-3.5l1.4-4.4s17.7-.3 18.3.5c.6.7 0 3.8-.5 4.7a105.6 105.6 0 00-1.5 12.8L357 53.9zm-55.3-1.5c.4-1.4 1-2.8 1-3.5.3-1.3.5-4 .8-6 .3-2 1.9-10 2.4-11.9.6-1.7.7-10.9.7-10.9l2.1-6.1 1.5-4.8c1.8-1 4.6-.4 6-.6 1.6-.2 3.7-.2 4.3 1 .6 1.3 1.3.3 2-.1.9-.5 1.6.8 3.1 2 1.5 1.3 5.8 13.8 6.9 15.8 1.1 2 1.4 3.4 2.5 3.4.1 0 .2 0 .3-.2l.3 1.1-.4 1 2.2 2.6-.7-3.2-1-1.9c.9-1.3 1.8-4.5 2.3-5.7.8-1.5 2-10 2.2-11.9.2-2 1.6-3 1.6-3s.8 0 2-.6l1.4.7.6.8 2.5-.2.6.1c1.7.5 2-1.2 3.5-.9 1.5.4 3.7.1 3.7 1.3 0 1.3-2.1 13.7-2.5 17.2-.2 2.3-2.8 16.5-4.8 25.8l-23.3-.6c-2.5-4.3-6.2-9.2-6.2-9.2l-.1.5-.7-1.4.4 2.2-.5 2-.8 5.7-16-.5zm-167.7.7l-.6-.9 1.2-1 .4.3.1 1-1.1.6zM66 40.8l-.6 1.2c-.4 1.7-.7 5.9-1 7.2-.1 1.4 1 2 3.6 2.2 2.7.1 6.2-2 6.2-5.6 0-3.4.8-5.4-6.5-5.4l-.5-1.6-1.8-1.1.6 3.1zm94.9 5l1.6-2.1 1.2 1-.2.5-.9.3-1.7.3zm-91.4-26l-1.8 10.7s2.1 1.2 3 1.2c.9 0 5.4-1.5 5.4-1.5s1.8-2.3 1.8-4.6c0-2.2 1.4-6.3-8.4-5.8zM401 29.6s-.6-.3-.1-.8 1 0 .1.8zm1.3-.5s-.6-.2-.2-.8c.5-.5 1.1 0 .2.8zm-1.6-.2s-.6-.2-.2-.8c.5-.5 1.1 0 .2.8zM192 28.6l-1.7-2 1.2-1 .4.4.1.9v1.7zm207.8 0s-.8.2-.5-.4c.2-.7 1.1-.7.5.4zm1.9 0s-.7-.3-.2-.8c.5-.5 1.1 0 .2.8zm2.8-.4c.2-.3 0-.5-.3-.5.3-.2.4-.4.4-.5l.2.1v.1c-.4.3-.2.5-.1.7l-.2.1zm-116.2-.4h-.9l1.2-1 .4.4.2 1-.9-.4zm112.9.1s-.7-.2-.2-.7c.5-.6 1.1 0 .2.7zm1-.5s-.7-.2-.2-.8c.4-.5 1 0 .1.8zm2.8-1.9c0-.6.8-.6.7.5 0 0-.2.1-.4 0 0 .2-.2.3-.4.5h-.1c-.1 0-.4.4-.6.1l-.4.5s-.7-.3-.2-.8l.5-.2c0-.3.3-.6.5-.2l.1-.2.3-.2zm-1.2 0s-.6-.3-.2-.8c.5-.5 1.2 0 .2.8zm2.4-.4s-.7.3-.7-.4c0-.8.8-.8.7.4zm.8 0s-.7.2-.7-.5.9-.7.7.5zm-1.7-.1s-.6.2-.6-.5.8-.7.6.5zm-.2-1.7l-.2.1s-.6-.3-.1-.8c.3-.4.8-.1.5.4.2 0 .5.2.4 1 0 0-.7.2-.7-.5v-.2zm-3.5 0s-.6-.3-.1-.8c.4-.5 1 0 .1.8zm5-.7s-.6.2-.6-.5.8-.7.7.5zm-1-1.4v.2s-.7.2-.7-.5c0-.4.4-.6.6-.4 0 0 .3 0 .7.3 0 0 .2.8-.4.5l-.2-.1zm-3.1.1s-.7.3-.7-.4.9-.8.7.4zm4.1-1.4s-.3.6-.8.1.1-1 .8 0zm-2.3-1.5c-.3-.5.3-1 1 0l-.3.3v.2c.2 0 .4.1.6.5 0 0-.3.6-.7.1a.6.6 0 01-.2-.3c-.2 0-.4-.1-.4-.5v-.3zm2 .5s-.3.6-.8.1c-.4-.5.1-1 .8 0zm-5.2-.2s-.4.6-.8 0c-.5-.5 0-1 .8 0zm5.8-.4s-.3.6-.8.1.1-1 .8 0zM91.1 16.7s-.6 0-.5.3c0 .4.9.4.5-.3zm313.9 0s-.3.6-.8.1.1-1 .8 0zm-1.6-.1s-.4.6-.8.1c-.5-.5 0-1.1.8-.1zm-315-.7s-.7 0-.6.3c.1.4.9.4.6-.3zm317.4.1l-.2.3-.5-.4.2-.2c.2.3.3.3.5.3zm-176-.6s.6 0 .6.3c-.1.4-.9.4-.6-.3zm174.7.2s-.4.6-.8 0c-.5-.4 0-1 .8 0zm-3.1-.2s-.3.6-.8 0c-.5-.4 0-1 .8 0zM91 14.9s-.6 0-.6.4c.1.4 1 .3.6-.4zm-5.2 0s-.7-.2-.6.2c.1.5.9.4.6-.3zm146.7-.3s.6 0 .6.3c-.1.4-.9.4-.6-.3zm-143.9 0s-.6-.2-.5.2c0 .5.9.4.5-.3zm1.5-.2s-.7 0-.6.3c.1.4.9.4.6-.3zm0-.8c.3.1.7 0 .5-.6 0 0-.6 0-.6.4l.1.1c-.1 0-.6 0-.5.3 0 .3.3.3.4.3v.2c.1.4.7.4.6-.2.3.1.6 0 .4-.5 0 0-.7-.1-.6.3h-.2v-.3zm-.6.1s-.6 0-.5.3c0 .4.8.4.5-.3zm140.5 0s.6-.2.5.3c0 .4-.8.3-.5-.4zm5-.2s.7 0 .6.3c0 .5-.9.4-.5-.3zm-2.7-.3s.6 0 .5.3c0 .5-.9.4-.5-.3zm-1.4-.1s.6 0 .5.3c0 .4-.8.4-.5-.3zM88.4 13s-.6-.1-.5.3c0 .4.8.4.5-.3zm1.7-.1c.3.2.7 0 .5-.5 0 0-.6-.1-.6.2-.1 0-.6 0-.5.3l-.2.1-.1-.1s-.6-.1-.6.3c.1.3.4.3.6.2.1.3.7.2.6-.2.2 0 .4 0 .3-.3zm140.7-.6c-.3.1-.7 0-.4-.6 0 0 .6 0 .5.4v.1s.5 0 .4.3c0 .2-.2.3-.4.3v.2c0 .4-.7.4-.6-.2-.2.1-.5 0-.3-.5 0 0 .6-.1.5.3h.2v-.3zm-142.9.1s-.6 0-.5.3c0 .4.9.4.5-.3zm143.5 0s.6 0 .6.3c-.1.4-.9.4-.6-.3zm-142.7-.1s-.6-.1-.5.3c0 .4.8.4.5-.3zm.8 0s-.7-.2-.6.2c.1.5.9.4.6-.3zm.6-.4s-.7 0-.6.3c.1.5 1 .4.6-.3zm-2-.1s-.6-.1-.5.3c0 .4.8.4.5-.3zm144.4-.1s.6-.1.5.3c0 .4-.8.4-.5-.3zm-1.7-.1c-.2.2-.7 0-.4-.5 0 0 .5-.1.5.2.1 0 .6 0 .5.3l.3.1v-.1s.6-.1.6.3c0 .3-.4.3-.6.2-.1.3-.6.2-.5-.2-.2 0-.4 0-.4-.3zm-141.4 0s-.6-.1-.5.3c0 .4.8.3.5-.4zm-.6 0s-.7-.1-.6.3c0 .4.9.3.6-.4zm71 .5l-.7-.9 1.2-1 .4.4.2.9-1.2.6zm73.1-1s.7 0 .6.3c-.1.4-.9.4-.6-.3zm-.7-.1s.6-.1.5.3c0 .4-.8.4-.5-.3zm-.7 0s.6-.2.5.2c-.1.5-.9.4-.5-.3zm-.6-.4s.6 0 .5.3c-.1.5-.9.4-.5-.3zm1.9-.2s.6 0 .5.4c0 .4-.8.3-.5-.4zm111.5-1.8c.8-.5 1.3-.9 1.8-.3l.7.8-.6-.2-2-.3zm38.6 229zm0 0v-.1.1zm0 0v-.1zm.1-.2v-.1l.1-.1v-.1l.3-.5c1.4-2.3 2-2 .4-3.6-.7-.7-1-1.3-1.1-1.7 0-.8-.2-.6 0 0-.3.2-1.7 1.2-.1 3.2.7 1 .7 2 .5 2.5v.2h-.1v.2-.2l.1-.1V237.5h-.1z" clip-rule="evenodd"/>
</svg>
