<svg xmlns="http://www.w3.org/2000/svg" fill="none" viewBox="0 0 749 304">
  <path fill="#3DDCFF" fill-rule="evenodd" d="M477 228.2s0-1.5-1.6-1.1c-1.4.3-1.7 1-1 1.6.7.5 1.8.4 2.6-.5z" clip-rule="evenodd"/>
  <path fill="#BE344D" fill-rule="evenodd" d="M473 230.2s0-1.5-1-1.1c-1 .3-1.2 1-.8 1.6.5.5 1.3.4 1.8-.5z" clip-rule="evenodd"/>
  <path fill="#3DDCFF" fill-rule="evenodd" d="M457 185s-.1-1.3-1.1-1c-1 .5-1.1 1.2-.6 1.7.5.5 1.2.4 1.7-.6z" clip-rule="evenodd"/>
  <path fill="#BE344D" fill-rule="evenodd" d="M405 236.8s-1-1.6-1.6-.3c-.7 1.3-.4 2.3.3 2.5.8.1 1.4-.7 1.3-2.2z" clip-rule="evenodd"/>
  <path fill="#BCAE2B" fill-rule="evenodd" d="M393 149s-.1-1.3-1.1-1c-1 .5-1.1 1.2-.6 1.7.5.5 1.2.4 1.7-.6z" clip-rule="evenodd"/>
  <path fill="#3DDCFF" fill-rule="evenodd" d="M368 90.7s0-2.1-1-1.6-1.2 1.6-.8 2.4c.5.8 1.3.7 1.8-.8z" clip-rule="evenodd"/>
  <path fill="#F1F68E" fill-rule="evenodd" d="M361 223.2s0-1.5-1-1.1c-1 .3-1.2 1-.8 1.6.5.5 1.3.4 1.8-.5z" clip-rule="evenodd"/>
  <path fill="#BE344D" fill-rule="evenodd" d="M372 177.6s-.5-3.5-2.3-2.4c-2 1.2-2.1 3-1 4.2 1 1.2 2.5.6 3.3-1.8zM604 81.5s-.4-2-2.3-1.4c-2 .7-2.1 1.9-1 2.6 1 .6 2.5.3 3.3-1.2z" clip-rule="evenodd"/>
  <path fill="#9DB4FF" fill-rule="evenodd" d="M604 79s2.1.3 2-1.3c-.2-1.5-1.3-2-2.2-1.5-1 .6-1.1 1.8.1 2.8z" clip-rule="evenodd"/>
  <path fill="#BCAE2B" fill-rule="evenodd" d="M68 239.4s.4 2.1 2.3 1.5c1.9-.7 2.1-1.8 1.1-2.5s-2.5-.4-3.4 1z" clip-rule="evenodd"/>
  <path fill="#F2C0EA" fill-rule="evenodd" d="M117.5 138.9s1.5.6 1.5-1-.7-2.2-1.4-1.8c-.7.5-.9 1.6-.1 2.8z" clip-rule="evenodd"/>
  <path fill="#9DB4FF" fill-rule="evenodd" d="M43.1 75s1.3-.5.7-1.4c-.5-.8-1.3-.7-1.7-.1-.3.6 0 1.3 1 1.5z" clip-rule="evenodd"/>
  <path fill="#00EB9B" fill-rule="evenodd" d="M24 281s.2 1.3 1.1 1c1-.5 1.1-1.3.6-1.8-.5-.4-1.3-.2-1.7.7z" clip-rule="evenodd"/>
  <path fill="#BCAE2B" fill-rule="evenodd" d="M162.5 43s1.5.3 1.5-.7-.7-1.5-1.4-1.2c-.7.3-.9 1-.1 1.8zM162.5 35s1.5.3 1.5-.7-.7-1.5-1.4-1.2c-.7.3-.9 1-.1 1.8z" clip-rule="evenodd"/>
  <path fill="#BE344D" fill-rule="evenodd" d="M134.7 74s2-.7 1-2c-.8-1.3-2-1.2-2.5-.3-.5 1 0 2 1.5 2.3z" clip-rule="evenodd"/>
  <path fill="#3DDCFF" fill-rule="evenodd" d="M.2 257.4s-.6 1.4.4 1.6c1 .1 1.5-.5 1.4-1.3-.2-.7-1-1-1.8-.3zM610.2 210.3s-.7 1.4.3 1.6c1 .3 1.6-.3 1.5-1-.1-.9-.8-1.2-1.8-.6zM712.3 230s3 .3 2.7-1.3c-.3-1.5-1.7-2-3-1.5s-1.4 1.7.3 2.8zM644.7 244s2-.8 1-2c-.8-1.3-2-1.2-2.5-.3-.5 1 0 2 1.5 2.3zM60.2 117.4s-.6 1.4.4 1.6c1 .1 1.5-.5 1.4-1.3-.2-.7-1-1-1.8-.3zM670.2 70.3s-.7 1.4.3 1.6c1 .3 1.6-.3 1.5-1-.1-.9-.8-1.2-1.8-.6z" clip-rule="evenodd"/>
</svg>
