<?xml version="1.0" encoding="UTF-8"?>
<svg xmlns="http://www.w3.org/2000/svg" xmlns:xlink="http://www.w3.org/1999/xlink" viewBox="0 0 1420 520">
  <defs>
    <filter id="filter-2" width="100.3%" height="100.2%" x="-.2%" y="-.1%" filterUnits="objectBoundingBox">
      <feOffset dx="-1" in="SourceAlpha" result="shadowOffsetOuter1"/>
      <feColorMatrix in="shadowOffsetOuter1" values="0 0 0 0 0.160784314 0 0 0 0 0.160784314 0 0 0 0 0.160784314 0 0 0 0.153217876 0"/>
    </filter>
    <path id="path-1" d="M710 0h710v520H710z"/>
  </defs>
  <g id="post-image-realign-2020-logo-before-after" fill="none" fill-rule="evenodd" stroke="none" stroke-width="1">
    <path fill="#F8F8F8" d="M0 0h1420v520H0z"/>
    <path id="Rectangle" fill="#F8F8F8" d="M0 0h710v520H0z"/>
    <path id="Before" fill="#292929" fill-rule="nonzero" d="M337.692 484c2.464 0 3.822-.994 3.822-2.954 0-1.372-.685-2.31-2.113-2.674 1.091-.406 1.707-1.246 1.707-2.408 0-1.68-1.218-2.464-3.457-2.464h-3.276V484h3.317zm.28-5.978h-2.463v-3.542h2.253c1.442 0 2.156.574 2.156 1.736 0 1.092-.77 1.806-1.945 1.806zm-.167 4.984h-2.296v-4.144h2.421c1.555 0 2.409.742 2.409 2.086 0 1.47-.868 2.058-2.534 2.058zm8.641 1.134c2.142 0 3.164-1.582 3.234-2.884h-1.12c-.112 1.148-.658 2.114-2.1 2.114-1.414 0-2.17-1.05-2.17-2.786v-.182h5.39c-.028-2.198-1.162-3.542-3.248-3.542-2.002 0-3.346 1.484-3.346 3.696 0 2.044 1.176 3.584 3.36 3.584zm2.03-4.256h-4.144c.168-1.512.938-2.254 2.114-2.254 1.47 0 2.03 1.12 2.03 2.254zm4.526 4.116v-6.132h1.512V477h-1.512v-1.82c0-.518.265-.784.727-.784h1.135v-.896h-1.596c-.84 0-1.33.42-1.33 1.358V477h-1.12v.868h1.12V484h1.064zm6.191.14c1.918 0 3.43-1.498 3.43-3.64 0-2.142-1.526-3.64-3.43-3.64-1.904 0-3.444 1.498-3.444 3.64 0 2.142 1.54 3.64 3.444 3.64zm.014-.728c-1.33 0-2.268-1.148-2.268-2.912 0-1.89.938-2.912 2.268-2.912 1.344 0 2.226 1.022 2.226 2.912 0 1.764-.882 2.912-2.226 2.912zm6.444.588v-3.864c.238-1.722.895-2.296 2.03-2.296.224 0 .476.028.742.07v-.994c-.267-.028-.519-.056-.757-.056-.615 0-1.106.14-1.413.56l-.602 1.652V477h-1.065v7h1.065zm7.087.14c2.142 0 3.164-1.582 3.234-2.884h-1.12c-.112 1.148-.658 2.114-2.1 2.114-1.414 0-2.17-1.05-2.17-2.786v-.182h5.39c-.028-2.198-1.162-3.542-3.248-3.542-2.002 0-3.346 1.484-3.346 3.696 0 2.044 1.176 3.584 3.36 3.584zm2.03-4.256h-4.144c.168-1.512.938-2.254 2.114-2.254 1.47 0 2.03 1.12 2.03 2.254z"/>
    <g id="logo-2018" fill="#292929" transform="translate(116 85)">
      <path id="Fill-1" d="M479 258.943c-1.115.324.723 10.94-1.908 12.578-.53.454-8.316 2.088-11.831-.624-1.744-2.208-2.816-9.242-2.751-11.815.046-1.847-.495-27.886-6.408-28.963 0 0 1.026 18.986.968 20.78-.024.695.188 8.476.486 9.343.173.503 2.66 8.554 2.292 8.66-.407.118-12.596.372-12.466.012.212-.591 2.893-8.448 2.997-9.095.377-2.332-.051-28.559.057-29.96.029-.381-.776-29.53-.673-31.162.073-1.15-.488-15.702-.348-16.812.03-.23-3.436-5.68-3.474-6.079-.034-.337 14.2-5.422 16.48-3.44 1.374 1.194 4.125 7.204 4.717 10.85 1.091 6.72.444 37.722-.611 40.28-.896 2.173-3.969 3.04-5.249 3.198-.716.089 4.759.447 5.521 3.928.065.294.783 33.398 4.48 34.84 2.957 1.154 1.094-6.875 1.478-6.972.8-.204 5.315.357 6.243.453zm-286.91-21.189c-.044 3.031-.782 4.347-2.192 7.06-1.084 2.085-7.1 2.404-8.379 2.563-.778.096 5.31.22 5.486 4.676.148 3.706-1.495 8.92.38 11.23.688.846 1.088 1.734 1.957.828.765-.797 2.273-6.554 2.189-7.856-.072-1.112 5.714 1.497 5.363 2.241-.236.5-1.298 10.519-5.12 11.647-.528.455-5.183 1.512-8.7-1.2-1.743-2.208-2.052-6.422-1.987-8.996.047-1.846.11-11.336-3.146-10.155 0 0-.845 10.208-.644 11.103.072.316 1.743 6.108 1.375 6.214-.407.118-9.526.353-9.396-.007.213-.591 3.05-6.363 3.154-7.01.377-2.332.098-9.403.206-10.804.03-.382.337-16.674.476-17.784.03-.23-1.875-6.673-1.785-8.004.024-.338 6.496 1.066 9.096 1.683 2.823.671 10.142 1.814 11.128 4.908.987 3.094.57 5.702.54 7.663zm160.97-13.49c-1.016-2.133-1.232-4.146-1.607-4.954-.61-1.308-2.304-6.437-6.982-4.49-3.8 1.581-2.514 25.85-2.461 26.833.171 3.262.747 15.033 1.387 16.876.972 2.793 3.707 3.632 5.124 2.718 1.442-.928 1.098-4.071 1.123-6.45.026-2.493.225-5.952-.121-7.16-.136-.468-1.405.115-2.762.14-.047-1.206-1.639-4.29-1.135-4.5.567-.236 11.158-2.128 13.434-2.162.132-.002-.356 4.449-.627 5.48-.041.156-3.482.297-3.561.719-.308 1.674.534 9.62.877 22.247-2.783-.737-3.405-3.47-3.755-3.157-1.387 1.512-1.014 3.397-7.106 3.472-6.878.084-7.957-9.049-7.92-11.534.085-5.646-.832-29.543-.614-33.393.11-1.925.548-10.213 2.73-14.424.264-.506 7.258-3.615 7.724-3.458 3.924.534 5.57 3.936 6.247 4.84.258.149 3.94-.034 3.958.357l-3.953 12zm61.333 45.26c-1.949.033-7.423-.323-9.66-.438 0 0-.723-6.54-.213-8.682 1.054.294 1.823.164 1.88-.592.117-1.515.272-15.255.415-19.88.02-.602.446-43.86.454-44.24.005-.205-1.689.496-2.418.612-.125-1.804-.1-6.897.335-7.129 4.2-2.237 14.654-6.554 15.858-6.47.336.302.823 7.774.516 9.79-.687-.21-2.56-1.083-2.585-1.073-1.543.104-4.195 2.032-6.123 2.65-.059.019.573 38.558.717 38.595.617.16 4.459-.539 5.408-.71.324-.06 1.781-1.77 2.021-1.886.115-.056.053 9.946-.11 9.946-.224-.007-1.361-1.047-1.606-1.118-.235-.068-5.927 1.07-6.179 1.113-.238.041-1.22 20.611-.738 20.743 9.57.453 7.497-1.371 8.774-1.388.704-.091.364 9.943.311 9.962-1.238.094-5.159.194-7.057.195zm-118.955 0c-1.95.033-7.425-.323-9.662-.438 0 0-.324-5.03.188-7.172 1.052.294 1.823.163 1.88-.592.116-1.515.306-3.73.45-8.356.019-.6.034-13.735.132-15.362.048-1.387.23-4.06.24-4.44.003-.205-1.691 1.042-2.42 1.158-.126-1.803-.165-5.458.27-5.69 4.201-2.237 18.29-7.913 19.494-7.83.336.303.435 6.48.129 8.497-.88-.094-2.328-.84-2.585-1.073-.187-.17-5.435 1.759-9.35 3.68-.34-.043-.095 15.35.06 15.415.617.16 4.82-.651 5.41-.71.322-.06 1.764-1.014 2.003-1.129.116-.056.142 7.57-.02 7.57-.224-.007-1.363-1.047-1.606-1.118-.235-.068-5.927 1.07-6.178 1.113-.24.041-.549 9.086-.066 9.218 9.57.453 7.498-1.371 8.776-1.388.702-.091.724 8.332.378 8.402-1.218.246-5.627.244-7.523.245zm78.766-71.43c.036.002.053.013.048.032-.113 1.63-.214 6.705-.52 7.232-.162.282-.977-1.012-1.488-1.202l-2.163.746-.327 32.945c-.098 3.404-.059 23.85-.069 24.443.005.301 1.08.084 1.526.139.254-.018 1.32-.819 1.324-.657.028.838.24 7.506-.126 7.522-4.572.195-11.75.202-12.152.09-.251-.072-.224-6.54-.132-7.166.052-.353.605.507 1.374.41.678-.086 2.141.024 2.158-.174-.042-2.244-.31-27.231-.265-28.58.04-1.178-.168-25.629-.197-27.444 0 0-2.328.801-2.484.84h-.008c-.333.187-1.026 1.785-1.461 1.863-.093-.595-.781-6.427-.542-6.439.689-.035 7.36-2.375 8.284-2.59 1.577-.368 6.497-2 7.189-2.012l.03.001zm-57.533 53.592c-.096 3.15.207 10.003.02 11.502-.092 1.01 2.065 4.586 2.238 6.007.024.194-10.18.427-10.18-.06 0-1.003 2.03-5.781 2.22-6.561.769-3.157.613-35.925.617-38.61 0-.369-2.21-3.485-2.24-4.32-.01-.286 7.952-3.194 8.007-2.93.16.755-.445 4.634-.225 5.44.37 1.352 9.517 30.449 9.69 30.883.788-.278-1.236-19.21-1.195-20.993.051-2.228-.297-10.505-.439-11.997-.217-.545-2.377-4.264-2.221-4.598.125-.27 9.953-3.466 9.59-2.896-.296.465-1.692 5.439-1.867 7.14.238 2.016 1.309 39.867 1.338 42.709.024 2.25 2.02 5.096 2.254 6.631.041.268-11.17.583-11.363.086-.129-.78 2.425-6.061 2.134-6.861-.716-1.97-3.995-10.918-4.73-12.862-1.452-3.837-3.963-10.994-4.227-11.503l.58 13.793zm67.44 0c-.094 3.15.209 10.003.02 11.502-.092 1.01 2.065 4.586 2.24 6.007.022.194-10.18.427-10.18-.06 0-1.003 2.028-5.781 2.218-6.561.769-3.157.808-58.235.812-60.92 0-.368-2.212-3.484-2.24-4.32-.011-.286 7.95-3.193 8.007-2.93.16.755-.445 4.635-.226 5.44.37 1.353 9.8 47.135 9.972 47.57.788-.278-1.163-25.747-1.086-27.53.08-1.826-.416-16.792-.829-22.147-.219-.544-2.377-4.264-2.223-4.598.125-.27 9.524-3.484 9.159-2.913-.295.464-1.26 5.456-1.434 7.158.238 2.015 1.114 62.176 1.143 65.018.024 2.25 2.02 5.096 2.254 6.631.04.268-11.17.583-11.363.086-.129-.78 1.894-5.689 1.603-6.489-.716-1.969-3.955-16.918-4.356-18.957-1.749-8.872-3.003-26.9-4.757-26.521l1.266 34.534zm41.844 17.4s.192-6.163-.063-8.455c1.053.295 1.776-.637 1.834-1.393.115-1.514.098-18.152.244-22.777.018-.602.666-47.893.674-48.273.006-.206-1.98.792-2.71.908-.124-1.804.465-7.39.628-7.426 3.85-.843 15.315-5.523 15.986-5.672.337.302.301 7.814.375 9.896-.56-.116-2.257-1.46-2.38-1.412-1.544.103-4.487 1.078-6.097 1.762-.057.025.134 42.915.278 42.952.616.16 3.93-.662 4.878-.834.324-.059 1.872-.79 2.112-.904.115-.057-.038 8.964-.2 8.965-.223-.008-1.511-.565-1.755-.636-.234-.068-5.25.711-5.501.754-.238.041-1.052 23.509-.57 23.64 1.895.086 6.798.213 7.57-.02.106-.212 1.842-1.158 2.042-1.184.702-.091-.574 10.333-.627 10.353-1.24.093-6.682-.286-8.578-.285l-8.14.041zM74.15 251.774c.216-1.858.264-13.584-.885-14.856-2.863-3.169-7.124.338-9.563-1.725-8.412-7.112-6.33-24.207-6.209-26.863.008-.175-.043-15.703 8.946-15.464 9.137.244 10.356 7.46 10.58 9.414.21 2.501 1.09 14.333 1.111 16.828.009 1.01 1.437 3.905 1.248 4.42-.171.466-7.504.402-8.01-.06-.14-.606 1.274-2.838 1.344-4.26.09-1.792-1.209-11.5-1.292-13.289-.068-1.46-1.865-6.309-2.844-6.486-1.149-.208-3.193.493-3.86 3.073-.563 1.514-1.584 8.5-1.59 9.203-.04 4.206 1.994 13.821 3.038 15.735.923 3.696 9.303-.424 12.825 5.991.818 1.009 1.255 13.55 1.2 16.948-.022.868.495 17.954-11.088 17.983-8.614.022-12.95-9.736-12.903-12.938.036-2.448.093-6.58.909-9.63.753-2.814 5.936-5.304 8.173-5.654.395-.063 1.51-1.39 2.265-2.276.34-.398 1.704 9.044 1.21 8.725-1.288-.83-2.105-1.272-2.325-1.4-1.196-.703-2.497.11-3.015 1.196-.888 1.864-.738 4.04-.735 6.21.002 1.745 1.883 6.616 5.751 6.535 3.868-.08 5.163-2.581 5.72-7.36zm40.396-30.545c-1.591-1.74-2.54-6.146-2.917-6.953-.609-1.31-4.21-3.347-5.673-2.49-1.186.7-1.682 7.758-1.972 8.954-.36 1.488-.27 17.096-.459 18.062-.41 2.108.707 16.335 1.348 18.18.97 2.792 3.706 3.631 5.124 2.717 1.44-.928 1.097-4.071 1.122-6.45.027-2.493.027-8.373-.32-8.372-.488 0-1.781-.255-3.138-.107-.047-1.205-1.334-5.525-1.044-5.615.613-.188 11.873.328 13.948.062.46.176-.426 4.646-.616 5.694-.04.227-3.537 0-3.578.144-.471 1.636.507 22.28.285 22.958-3.551.205-2.079-2.826-3.55-1.507-1.529 1.371-1.52 1.821-6.744 1.821-6.877 0-7.956-9.048-7.919-11.534.085-5.645-.409-34.377-.19-38.227.18-3.189 1.576-15.823 9.135-14.795 3.925.534 5.955 3.389 7.223 3.974 1.07.494 4.12-.538 4.139-.146l-4.204 13.63zm42.88 46.747c-1.95.033-7.425-.323-9.662-.438 0 0-.324-5.03.188-7.172 1.052.294 1.822.163 1.88-.593.115-1.514.335-6.404.48-11.03.023-.762.123-5.688.12-5.915 0-.175-.337-13.676-.24-15.303.137-3.854.474-3.506-1.159-3.56-.125-1.804-.03-6.32.047-6.296 2.735.865 8.371 2.826 10.588 3.636 7.203 2.078 6.954 1.35 8.158 1.434.433.076-1.012 6.468-1.319 8.484-.879-.093-.86-2.44-3.299-3.437-2.783-1.138-4.173-1.817-6.805-2.318-.342-.044-.276 17.564-.12 17.63.616.16 4.328.222 4.92.23 1.36.022 1.864-1.308 2.416-1.137.152.047.129 7.708-.032 7.71-.37.001-.979-.793-2.14-1.038-1.406-.296-3.51-.053-5.557-.04-.243.002-.578 11.762-.095 11.894 9.57.453 7.498-1.371 8.775-1.388.703-.091.724 8.332.379 8.402-1.219.246-5.626.244-7.524.245zM91.847 236.3c-.096 3.404-.397 22.847-.408 23.44.005.302 1.417.155 1.746.216.897.164 1.088-1.182 1.582-.923.028.838.247 8.698-.119 8.714-4.57.195-11.496.202-11.897.09-.252-.072-.283-7.544-.191-8.168.051-.354.604.507 1.375.41.677-.087 2.636.023 2.652-.175-.042-2.244-.22-22.097-.174-23.445.039-1.179-.327-18.082-.426-19.04-.213-2.058.192-11.009.162-12.824 0 0-.827-.361-1.407-.61-1.136-.328-3.24.244-3.516.164.248-.528.127-7.74.654-7.816.689-.034 6.399 1.84 8.439 2.722 1.622.702 6.495 1.804 6.407 3.065-.113 1.63-.31 7.099-.513 7.673-.291.824-1.55-2.132-2.294-2.52l-2.182-.774.11 29.8zm38.54 13.145c-.095 3.15-.683 9.881-.871 11.38-.092 1.01 1.826 5.402 1.999 6.823.024.194-9.385.464-9.385-.023 0-1.003 2.077-5.93 2.267-6.711.77-3.156.83-43.027.832-45.712 0-.369-1.314-4.562-.942-5.914.077-.276 7.53 2.535 7.585 2.8.16.753-1.174 4.648-.954 5.453.37 1.353 2.043 8.225 2.272 9.24.707 3.133 4.996 24.5 5.17 24.935.787-.278-.38-21.87-.34-23.654.052-2.227-.016-6.412-.158-7.904-.218-.545-1.176-6.085-1.163-6.912.125-.27 9.4 3.269 9.036 3.84-.296.464-2.901 3.32-3.076 5.022.238 2.016-.37 35.452-.34 38.293.023 2.25 2.006 5.5 2.24 7.034.042.268-9.935.634-10.128.137-.129-.78 2.426-6.061 2.135-6.862-.717-1.969-2.043-4.732-2.352-6.787-.35-2.329-4.176-25.062-4.44-25.572l.613 21.094zm-85.162 18.1c-1.95.034-8.961-.07-11.199-.185 0 0-.496-7.013.016-9.155 1.052.294.9-.077.916-1.699.116-1.514-.437-21.692-.217-22.439.221-.754-.333-26.44-.297-27.48.056-1.647.126-11.898.095-14.429-.002-.216-.776-.538-1.207-.592-.125-1.804-.09-9.213.243-9.125.831.223 9.954 3.174 12.17 3.984 7.204 2.078 8.255 2.836 9.54 3.371.19.08-1.755 12.758-2.153 11.858-.452-.255-1.92-3.685-2.573-3.982-2.76-1.191-7.024-3.265-9.656-3.767-.341-.043-.214 9.273-.142 10.714.141 2.796.741 17.619.827 18.821.154 2.178.036 9.801.191 9.867.617.16 4.88.33 5.474.34 3.969.158 2.773-.987 3.897-1.028.151.047.11 8.693-.052 8.694-.817.004-.93-1.357-9.5-1.297-.242.002-1 18.001-.516 18.133 10.243.453 9.991-1.245 11.268-1.261.703-.092.492 10.366.398 10.412-1.218.247-5.626.244-7.523.246zm-35.7-91.378c1.945.522 5.977 1.651 7.902 2.234 2.253.68 4.312 2.733 5.356 4.775 1.044 2.044 1.538 4.15 2.032 6.328.455 2.01 2.02 27.676 1.643 30.44-.3 2.206-.898 24.288-1.007 26.78-.156 3.587-1.686 16.304-5.876 18.815-4.452 2.667-13.64.827-16.383 1.533 0 0-.101-5.324 0-7.36.119-.91 2.432-.175 2.396-.9-.34-7.079-.86-36.095-.86-36.606-.002-15.02.416-37.903.407-39.158-.005-.669-2.318-.432-2.318-.432s.071-7.385.529-7.408c.275 0 5.511.78 6.18.959zm9.545 20.287s.399-8.282-2.586-9.399c-2.768-1.035-4.516-1.692-4.439-1.196.197 1.264.211 26.018.302 27.423.162 2.489-.244 17.468-.043 19.96.056.698.212 24.888.212 24.888 1.386.326 1.737-.079 3.806-.985 3.029-1.328 2.597-7.615 2.843-9.29.378-2.56.742-27.267.743-28.637 0-1.624-.581-17.267-.838-22.764zm159.075 45.254c.033.441 2.708 1.39 4.921.356 1.638-.765 3.822-1.235 4.04-6.508.169-4.094-7.861-4.503-8.61-4.209l-.35 10.36zm277.626-19.218c.032.442 2.259.433 4.47-.601 1.638-.765 1.22-18.424 1.46-21.459.143-1.815-.485-17.59-1.465-20.49-.392-1.161-3.374.931-5.21 1.167 0 0 .743 11.793.863 14.825l-.118 26.558z"/>
      <path id="Fill-2" d="M214.829 250.597c-10.811-6.444-5.72-21.002-.242-28.894 10.748-15.484 20.756-13.305 27.534-13.305 8.297 0 15.695 6.778 13.583 17.473-.346 1.754-9.286 7.753-16.34 10.642-2.105.862-5.94-8.951-4.868-9.126 6.066-.988 12.595-2.47 11.77-7.775-.228-1.458-10.312-5.409-19.103 2.043-1.905 1.614-16.153 13.116-1.147 26.023 1.43 1.229 2.599 1.635 4.83 1.912.33.2-.468 4.841-.426 4.831-4.464 1.665-9.811 5.408-16.523 10.984-9.453 7.852.997 31.425 22.602 30.7 24.27-.815 24.092-26.6 20.336-28.175-.144-.336-9.414-2.597-13.733-.602-1.075.497-8.09 4.509-6.22 7.411 1.17 1.816 4.402-.324 5.517-.394 3.983-.249 1.746 5.899-1.118 8.62-1.597 1.52-9.157 1.197-10.792-.375-4.598-4.416.44-21.76 11.06-21.93 1.362-.023 13.535.735 14.884.691 8.555-.275 15.155-1.205 16.848-6.218 1.69-4.995.613-8.692-.943-9.37-2.246-1.15-8.786-3.156-10.294-2.26-4.398 2.616-3.538 7.41.849 5.716.287-.11 1.843 4.446 1.919 4.77.292 1.255-7.513 3.24-14.072-.488-1.306-.742 2.092-16.217 12.863-16.875 13.221-.808 14.716 5.273 16.414 8.108 3.64 6.077-.99 25.259-12.575 23.585-.035 2.18 4.097 9.812 2.472 22.08-.347 2.639-3.85 17.812-33.609 19.529-16.444.948-28.618-7.566-31.712-17.074-12.138-37.274 10.236-42.257 10.236-42.257zM60.645 303.385s-21.79-.24-23.176.051c-1.387.29-11.277-.18-15.861-.361-4.585-.182-15.772.568-15.772.568s-.705-21.09.914-25.498c0 0 5.24-.612 12.072-.115 6.168.448 25.017-.134 30.122.115 8.848.432 42.376-.16 50.098.448 6.76.533 37.876.083 41.443-.23 2.482-.218 27.774.075 27.774.075l13.252.01 11.759.457s.051 2.113.253 5.14c-.472-.21-.234 4.929.363 4.409.541 5.466 1.537 11.83 3.348 14.896.7 1.185-19.169-1.077-28.235.192-5.19.727-21.303.358-26.012-.02-3.439-.277-26.702-.516-33.413-.177-6.71.34-19.276-.432-25.218.015-1.93.145-5.11.198-8.522.204.496-.638-15.189-.18-15.189-.18zm234.522-24.938c11.668-.198 29.192-.514 34.646-.704 8.416-.292 41.517.593 49.262.593 7.744 0 38.496.096 40.987.096 2.49 0 29.122-.345 29.122-.345l22.582.453s-.104 23.178.648 24.33c.638.978-24.46.246-24.46.246s-20.42-.267-27.043.176c-3.443.23-43.534-.537-47.332.158-3.797.695-28.051-.179-28.051-.179l-22.552.074-20.744.41-24.598-.91s6.718-14.872 6.574-24.216c0 0 3.164-.05 7.855-.13-.017.754.27 1.533.533 1.86.458.57 2.293-1.155 2.293-1.155.178-.256.264-.512.278-.757zm-139.205 8.266c.296 1.21-.998 1.521-1.607 2.315-.167.217-.49.29-.735.442-.527.325-1.512.197-1.555.894-.051.819.927 1.177 1.492 1.475 2.392 1.258.868 3.378 10.354 6.181.712.21-.014 2.708-.88 2.496-.76-.185-3.406-.611-4.117-.862-8.55-3.013-7.089-4.654-9.76-6.342-.38-.24-.856-.313-1.295-.428-1.276-.333-1.565-.217-1.617 1.22-.044 1.206-.788 1.663-1.454 2.294-.383.363-.726.171-1.094 0-.468-.217-.491-.614-.391-1.066.588-2.66.207-5.435.823-8.088.156-.673.15-1.27-.115-1.93-.295-.734-.387-1.535.104-2.27.244-.365.485-.588.98-.49 1.718.342 3.44.427 5.182.07 1.063-.218 2.129.166 3.177.324 1.256.188 2.477 2.077 2.508 3.765zm164.368 13.468c-1.123.025-1.547-.428-1.155-1.515.753-2.087 1.212-4.271 1.937-6.361.65-1.866.44-2.687-1.042-3.922a60.79 60.79 0 01-3.386-3.017c-.965-.933-.955-1.786-.096-2.605.894-.85 1.94-.812 2.599.254.47.763 1.116 1.199 1.802 1.606.601.357 1.22.73 1.606 1.306.585.877 1.093.606 1.686.104.902-.766 1.26-1.98 2.05-2.851.618-.68 1.28-1.213 2.145-1.347.734-.114 1.395.212 1.674.962.253.682-.26 1.155-.717 1.507-1.984 1.527-3.25 3.643-4.315 5.94-1.032 2.226-1.753 4.539-2.039 7.032-.216 1.87-1.289 2.875-2.749 2.907zm134.628-14.537c.11 1.405.215 3.041.188 4.691-.01.617.296.876.786.96 1.763.301 1.763.482.113 1.911-.873.755.14 2.05.315 2.964.467 2.388 1.335 3.525-1.125 3.525-1.789 0-1.539-.642-1.662-1.667-.149-1.225-.098-3.952-.35-5.137-1.86-.648-1.695-.552-2.709-.663-.732-.08-1.979-.77-2.711-.783 0 0-2.21 2.624-2.936 4.584-.145.396-.145 1.243-.36 1.59-.263.42-3.51.418-3.919-.267-.421-.705.772-2.725 1.053-2.929.602-1.2 5.909-7.45 6.566-8.127 1.034-1.064 2.211-2.405 2.918-3.76.897-1.721.702-1.267 1.736-1.222 1.08-.003 1.256.064 1.645 1.502.318.872.346 1.183.452 2.828zm-358.556-2.317c.501.02.913.18 1.234.573 1.086 1.331 2.616 1.842 4.04 2.554.342.171 1.419 1.296 1.657 1.086 1.093-.963 3.786-2.9 4.78-4.029.762-.865 1.45-.886 2.036-.234.526.586.368 1.728-.48 2.358-1.307.97-2.517 2.068-3.696 3.189-2.19 2.08-3.992 4.422-4.3 7.787-.116 1.281-.86 2.359-2.087 2.88-.516.22-1 .27-1.402-.201-.352-.413-.627-.88-.432-1.49.019-.057.028-.12.054-.172.913-1.85 1.166-4 2.308-5.757.975-1.5.922-2.068-.535-2.899-1.406-.802-2.585-1.95-3.988-2.733-.68-.38-1.28-.852-.971-1.854.297-.964 1.105-.905 1.782-1.058zm199.064 5.33c-.501 1.67-1.955 4.898-2.865 6.35-.498.798-.996 1.6-1.197 2.6-.104.514-.284 1.268-1.016 1.286l-1.897-1.29c-.29-1.214.484-2.533 1.133-3.256 1.67-1.862 2.296-4.21 2.9-6.564.38-1.477 1.316-2.542 2.086-3.715.752-1.143.752-1.143 2.549.602.414.565 3.086 6.077 3.71 7.571l1.572-2.634s2.148-4.976 2.672-6.529c.49-1.756.49-1.756 2.441-.845.967.573.967.573.476 1.7-.579 1.33-1.013 2.721-1.635 3.956-.638 1.272-1.167 2.61-1.838 3.86-.659 1.227-2.314 5.833-2.388 6.455-.366 1.443.02 1.443-1.523 1.443-1.32.01-1.137-.507-1.306-1.183-.656-2.61-3.679-9.765-3.874-9.807zm-118.375 1.408c1.941 2.349 4.502 3.673 6.837 5.343 1.617 1.05 1.617 1.05.609 2.44-1.17 1.622-1.17 1.622-2.37.67-.151-.08-.323-.148-.439-.272-1.744-1.848-4.052-2.848-5.892-4.551a5.553 5.553 0 00-.967-.74c-1.396-.814-1.908-.58-2.215 1.144-.195 1.099-.594 2.093-1.018 3.088-.564 1.489-.732 1.921-2.138 1.239-1.835-.824-1.5-.884-.608-2.543 1.108-2.126 1.645-4.499 2.665-6.667.93-1.978 2.191-3.842 2.251-6.227.017-.713.283-1.287 1.827-.703 1.473.56 1.165 1.006.883 1.678-.28.664-.676 1.269-.986 1.919-.181.384-.329.864.033 1.182.29.256.662.04.93-.189 1.343-1.149 2.98-1.738 4.408-2.721.575-.395 1.068-.808 1.673.02 1.239 1.563.354 1.398-.108 1.838-.538 1.28-1.787 1.457-2.713 2.04-.93.587-1.815 1.187-2.662 2.012zm-155.014 7.182c-1.47.014-1.461-.238-1.671-1.268-.256-1.254-1.397-1.688-2.054-2.577-.91-1.232-1.97-2.344-3.02-3.448-.553-.582-.866-.456-1.038.36-.57 2.694-1.772 5.126-2.726 7.66-.33.877-1.174 1.227-1.793.907-.742-.384-.967-1.17-.58-2.129 1.1-2.725 2.145-5.466 2.9-8.339.235-.897.339-1.774.417-2.673.078-.896.298-1.785 1.14-2.044.907-.279 1.625.268 2.13 1.124 1.435 2.437 3.66 4.127 5.247 6.44.827 1.204 1.34 1.093 1.848-.4.75-2.206 2.292-3.88 3.184-5.98.289-.68.108-.971 1.64-.574 1 .493.543.831.549 1.384.005.53-.25.921-.534 1.312-1.446 1.998-2.211 4.376-3.18 6.641-.227.532-.128 1.073-.17 1.614-.014 1.885-.014 1.885-2.289 1.99zm34.28-12.17c.077-.295 2.486-1.68 2.486-1.68.502.022 1.922 2.764 2.243 3.178 1.085 1.4 1.612 5.526 3.036 6.275.342.18 4.39-8.843 4.707-8.864 1.68-.114 3.334 7.437 4.362 7.758 1.044.327 6.31-7.092 6.811-7.691.762-.911 2.198.53 2.785 1.216.526.617-4.03 6.877-4.558 7.4-1.184 1.175-3.354 4.41-4.523 5.603-1.27 1.296-3.575-6.322-4.802-5.772-.516.23-3.179 6.977-4.906 6.321-1.522-.578-4.44-6.985-5.774-8.407-.548-.584-2.15-4.273-1.868-5.337zm349.107 13.776c-.624-.125-1.573-.276-2.504-.508-1.092-.271-1.69-.543-2.781-.322-1.06.118-2.849-.69-2.71-2.687.156-2.266.368-1.209 1-1.343 2.933 2.019 5.198 3.442 9.642 1.939.6-.2 2.05-1.407 1.614-1.856-.447-.46-1.044-2.035-1.621-2.34-.649-.343-2.287-1.035-2.896-1.424-1.733-1.107-1.801-1.63-1.466-3.371.16-.818 1.866-2.357 2.895-2.516 1.027-.159 2.066-.508 6.314-.712.195-.004.812 1.62.652 1.76-.765.642-1.973.274-2.992.224-1.12-.055-3.389.679-4.298 1.403-1.218.971 1.272 2.147 3.626 2.876 1.698.414 2.43 3.1 2.33 4.58-.1 1.444-.593 3.01-2.005 3.411-1.46.414-2.943.833-4.8.886zm-365.317-9.868l8.406.052c.934.488-1.297 3.037-1.65 3.344-.357.31-7.354.065-7.33.366.002.658-1.13 2.215-.793 2.437.49.576 7.221-.064 7.404.575.044.157-1.431 2.795-1.342 2.817.525.128-8.5.43-9.867-.227-1.784-.79-1.458-.849-.59-2.443 1.077-2.044 1.599-4.324 2.59-6.408.904-1.9 1.864-2.881 1.921-5.173.017-.685.277-.8 1.878-.7 1.64.102 8.534.063 8.966.452.243.219.577 2.61-1.152 2.625-.574.005-6.045-.585-6.491-.369-.904.563-1.058 1.826-1.95 2.652zm382.441 7.256c.327.982.185 1.363.038 1.603-.33.533-.79.852-1.43.655-.592-.183-.944-.656-1.071-1.253a1.411 1.411 0 01.719-1.541c1.203-.644 1.275-.145 1.744.536zm42.566.073c.628.478.673.797.658 1.027-.035.511-.25.947-.802 1.135-.511.176-.958.04-1.288-.285-.343-.34-.367-.895-.072-1.361.638-1.017.888-.727 1.504-.516zm-85.108 1.644c-.925.486-1.322.386-1.58.26-.575-.28-.957-.728-.853-1.44.096-.662.514-1.104 1.086-1.323.597-.229 1.256.007 1.627.558.81 1.202.326 1.348-.28 1.945zm-19.103-13.395c.502-2.385.586-2.273 2.742-1.605.692.214.692.214.38 1.346-.246.889-.734 3.472-1 4.328-.559 1.795-.05 3.405.679 4.91.814 1.684 3.069 1.482 4.017-.284 1.195-2.226 1.799-4.686 2.367-7.156.082-.354.144-.713.213-1.07.451-2.11.451-2.11 2.256-1.66 1.826.454 1.61.545 1.287 2.28-.108.573-.199 1.226-.445 1.705-1.154 2.24-1.926 4.65-2.83 6.999-.94 2.447-3.995 4.425-6.27 3.745-1.292-.386-2.204-1.595-3.18-2.586-2.437-2.474-.58-9.216-.216-10.952zm-241.447 7.998c.006-.059.009-.117.008-.175.288-3.018 1.142-5.725 3.495-7.68 1.07-.888 2.176-1.376 3.571-1.28 1.895.132 3.728.291 5.167 1.86 1 1.09 1.575 2.34 1.61 3.9.055 2.43-.541 4.593-2.191 6.3-.947.98-1.637 2.276-3.215 2.457-1.85.213-3.52-.078-5.226-.873-.842-.393-1.421-1.057-2.001-1.715-1.118.266-2.583-.905-1.796-2.227 0 0 .246-.266.578-.567zm2.764-1.288c-.148.662.192 1.328.747 1.922a5.172 5.172 0 002.813 1.565c.783.145 1.683.694 2.465.162 1.55-1.055 2.619-2.6 2.67-4.592.037-1.484-.606-2.97-1.88-3.652-2.867-1.535-6.586.936-6.815 4.595zm326.157-1.725c2.553.513 4.975 1.174 4.975 1.174s.311-3.76-.978-6.444c-.825.691-3.374 4.173-3.997 5.27zm-298.52-4.187c-.556.077-1.114.148-1.67.235-.222.034-.97-.248-1.18-.166-.63.245-.466 3.876.453 3.566 2.255-.762 1.204-.342 3.805-1.3.579-.213 1.353-.504 1.354-1.153 0-.738-.854-.817-1.422-.992-.427-.131-.889-.13-1.34-.19zm139.395-231.29c-.352-.367.262-9.62.238-11.846-.046-4.388-3.541-7.955-5.26-10.576-3.129-4.775-12.749-11.232-14.548-11.843-.934-.319-2.042 10.21-2.074 10.718-1.301 26.369 1.674 73.016 1.624 75.986-.058 3.5-.443 56.216-.69 58.261-.03.251-.94 38.349 6.72 39.227 6.895.792 8.845-6.485 11.46-12.384 1.305-2.308 5.543-56.15 4.964-56.034-8.59.659-11.518 13.636-13.808 13.5-1.036-5.63-.282-21.841.195-22.27.688-1.138 8.488-2.08 13.86-3.416 2.898-.21 14.29-2.92 14.4-.733.135 2.71-1.05 39.162-1.318 41.717-.195 1.874-.58 50.945-2.324 51.254-8.583 1.517-9.548-14.742-9.548-14.742-.801 2.391-2.326 16.392-8.141 20.603-4.7 2.088-6.655 3.08-16.374 4.154-1.328.147.098-6.128-.469-10.38-.42-3.153-3.61-7.234-5.424-9.661-2.475-3.31-13.8-7.733-13.815-7.907-3.258-36.789-1.945-66.127-1.95-69.41-.003-2.09.98-66.745.315-77.094-.472-2.5-3.069-28.175-1.727-39.456C245.814 9.93 252.915.462 255.776 0c19.436 4.326 30.382 11.348 31.49 13.226.08.296 3.625 15.102 4.78 15.24.238.028 1.185-11.976 1.561-11.812.943.411 11.236 5.09 11.297 5.298.125 2.249-2.167 31.56-2.858 34.853 0 0-9.329.834-12.754-2.733zm-68.998-7.83c-.065 12.998-2.345 70.518-5.18 82.512-1.033 4.377-21.459 6.443-23.525 6.705 2.614 2.048 24.816 7.525 24.128 14.866-.38 4.048-8.976 36.475-7.75 41.689.583 2.486 3.5.946 5.047.064.558-.318 8.601 5.87 8.615 6.516-.036.771-4.888.893-11.619 8.91-5.236 6.237-9.274 13.079-7.86 14.598 1.198 1.287-13.938-2.697-13.962-3.204-.09-1.889 3.021-16.976 2.655-20.297-.368-3.32 3.801-40.614 3.694-41.644-.319-3.039-4.213-9.691-8.434-8.642 0 0-.558 21.318-1.022 24.25-.48 3.026-2.489 23.302-2.025 24.864.408 1.372 1.024 20.204.957 20.277-.513.553-21.695-6.456-22.005-7.006-.233-.413 6.396-17.815 6.69-18.058 1.558-1.287 4.042-51.913 4.477-54.891.335-2.297 2.4-46.447 2.358-47.126-.157-2.644-1.15-48.647-1.14-50.13.009-1.444-1.626-20.157-3.206-21.125-.297-.182-7.027-8.09-6.82-9.52.037-.56 12.337-4.956 16.058-5.843.298-.07 9.82-2.2 10.106-2.274 31.052-7.92 29.784 40.512 29.763 44.51zm-88.206 96.46c1.482-7.21 2.08-46.853 1.897-49.148-.217-2.713-5.41-60.177-5.356-60.441.08-.401-7.53-8.454-7.53-8.444 0-.53 15.443-7.447 15.443-7.447s17.93-6.938 19.578-6.928c.551.004 4.427 19.87 3.174 20.395-.783.319-7.93-4.403-8.215-4.484-1.48-.286-6.128 2.092-6.892 2.48-.11.057 2.872 29.81 4.895 53.7 1.51 17.835 1.607 39.535 1.377 41.207-.143 1.034 10.998-.341 11.776-.55 1.296-.351.404 16.919-1.45 16.594-2.549-.445-11.072-1.957-11.27-1.437-.373.976-1.724 20.767-9.466 50.247.145.557 7.343 2.289 8.937 2.916.55.216 6.74-6.25 9.078-6.01.533.054-4.615 24.719-5.199 24.583-.571-.134-13.801-4.477-15.253-4.988-1.387-.487-17.478-5.247-17.524-5.253-1.239-1.448 8.085-17.312 8.085-17.312.662-1.226 3.915-39.68 3.915-39.68zm224.287-12.71c-2.391.361-8.244 2.99-9.548 3.174-2.157.305-8.644-.096-9.727 1.277-.796 1.013 3.048 42.501 3.098 45.539.275 3.54 8.072 17.015 6.867 18.974-.693 1.128-27.375 10.917-27.202 9.82.329-2.065 4.079-20.109 4.454-22.168.378-2.07-.478-48.116-.63-51.104-.13-2.6 2.025-59.882 1.467-62.422-.351-1.601-1.816-36.162-2.52-36.811-.311-.29-4.418-18.348-4.396-18.946-.001-1.237 35.89 10.735 36.714 11.708.033.125-6.762 12.455-6.749 12.69.257 4.749 3.285 13.223 4.856 17.772.365 1.054 8.68 36.959 9.632 39.954.455 1.436 5.554 23.802 6.12 27.142.42 2.492 7.693 34.197 10.29 41.463.936 2.62 9.883 11.244 11.987 14.844.708 1.213-36.207 14.233-36.57 13.618-.298-2.44 4.787-19.582 4.839-24.521.104-10.409-2.982-42.003-2.982-42.003zM98.648 39.021c-1.265-1.465-4.299-4.149-4.38-4.308 0 0 8.963-3.518 11.113-4.497 2.87-1.309 11.72-4.58 11.72-4.58-.091 2.505-2.585 6.914-2.262 9.182.288 1.586-1.372 44.508-1.337 46.506.053 3.083-1.165 31.958-1.327 33.554-.186 1.838-2.664 30.41-2.864 33.4-.194 2.896-7.158 32.349-7.158 32.349 2.286 1.06 4.258 1.57 6.597 2.263 2.797.827 3.255-3.736 3.678-3.678l6.13-1.93c-.083 2.043-1.272 22.086-2.164 21.76-1.204-.438-38.219-11.252-38.671-11.308-.051-3.368 10.833-10.3 10.941-11.194.474-3.009 5.118-28.957 5.4-31.948.207-2.192 2.178-27.492 2.372-29.476.121-1.25 2.856-47.344 2.547-50.045-.19-1.679.423-19.527.279-24.24.113.187-.588-1.867-.614-1.81zm-12.292 6.275c-1.038 3.6-4.524 23.932-4.797 26.559-.094.904-5.852 31.366-6.167 32.036-.558 1.189-2.735 17.57-2.918 18.456-.718 3.492-3.759 22.312-3.914 25.19-.103 1.904-1.403 25.228-1.23 27.361.075.93 3.747 9.53 3.906 11.906 0 0-30.385-8.841-30.488-9.639.55-1.398 7.606-4.467 8.901-5.888.807-1.424 3.377-13.906 4.019-16.137.181-.631 3.47-29.444 3.958-33.325.286-5.865-1.492-17.475-2.323-20.05-.699-2.164-5.25-28.763-5.87-31.585-.499-2.263-2.074-13.48-2.196-13.563-1.198-.827-5.217-3.711-5.449-4.107-.33-.564 18.69-7.228 18.752-7.2.11.263-.748 4.605-.776 7.224 1.707 6.42 2.11 17.812 2.61 19.826.677 2.723 2.3 25.216 2.86 25.233.537.018 2.745-21.696 3.153-23.248 1.047-3.977 4.45-23.186 4.425-25.555.059-.509-5.442-5.38-5.006-5.811.154-.153 8-3.268 11.655-4.296 2.816-.791 10.265-3.286 10.402-3.17.137.115-2.043 4.708-3.507 9.783zm322.265 103.068c2.723.136 6.824-27.392 6.953-28.043.487-2.485-4.966-15.649-4.288-16.4 1.133-1.258 9.599-3.323 14.797-3.95 1.409-.172-.554 14.332.02 16.856 1.247 5.457 13.164 27.17 14.097 27.356 1.675 0-1.863-24.282-2.019-26.145-.208-2.535-2.706-27.934-2.71-30.204 0-10.421-4.83-20.5-5.488-23.207-.548-2.243-8.083-14.46-8.037-15.457 9.057 3.151 33.37 11.417 33.37 11.417s-6.757 8.88-7.17 10.165c-.766 2.37 2.209 32.336 3.002 40.905.722 7.8 2.242 20.448 2.622 25.15.243 2.99 3.716 15.495 3.65 16.4-.18 2.546 6.462 8.384 6.225 10.244-.093.73-28.468 8.171-29.04 7.612-1.108-1.088-.53-8.313-1.028-9.84-.99-3.03-1.84-6.167-4.132-10.98-3.819-8.02-6.039-14.59-6.662-14.59-.784 0-1.17 6.915-1.56 16.807-.104 2.642 4.116 17.627 5.026 20.014-.292 1.245-27.068 8.364-27.363 7.933-1.05-1.536.97-12.584.668-14.249-.325-1.789-8.834-31.104-9.293-34.006-.44-2.78-6.694-32.717-7.372-34.91-.736-2.372-5.782-36.723-6.57-40.46-.147-.703-6.466-19.561-7.122-24.94-.113-.922 30.538 9.833 34.891 12.916 1.027-.279-7.097 13.796-6.69 14.957 1.12 3.213 2.342 37.855 2.743 40.023l8.48 48.626zM10.337 160.491c1.164-1.835.397-34.258.76-36.78.27-1.872 1.804-38.428 1.709-39.954-.095-1.528.76-10.463.399-10.138-1.421.356-5.929 1.768-8.206 2.456-.588.024-4.132 4.174-4.907 4.552-.344.167.366-15.38.666-15.6 1.606-.478 17.508-6.178 17.508-6.178s19.105-5.433 19.868-5.416c.868.022 3.371 18.415 2.582 18.312-.712-.092-3.342-3.166-4.411-3.256-.98-.28-8.244 1.962-8.244 1.962s-.39 14.12-.14 17.034c-.063 2.035-.74 14.402-.904 15.99-.244 2.345-.732 13.145-.975 14.918-.377 2.74.607 42.036.588 43.265-.014.875 5.134 10.538 4.72 12.992 0 0-26.487-8.353-26.337-10.08.182-.475 1.306-1.265 1.739-1.377 1.914-.494 3.585-2.702 3.585-2.702zm177.293-38.392c4.46.563 8.964-2.87 11.343-6.454 2.244-3.379 2.951-59.518 3.023-61.037.175-3.676.536-26.263-.412-28.964-.923-2.632-6.344-10.742-17.405-7.313 0 0 3.627 22.276 3.63 24.643.004 2.322 1.223 41.918 1.221 45.527-.002 3.802-2.074 34.21-1.4 33.598zm147.3-4.135c1.83 1.062 8.866 1.64 10.58 1.013 1.413-.516 7.257-1.074 7.219-2.256-1.407-10.11-5.762-36.068-6.349-39.15-.922-4.85-6.605-27.87-8.146-28.041-2.153-.238-3.34 53.748-2.826 55.26l-.477 13.174z"/>
    </g>
    <g id="Rectangle">
      <use fill="#000" filter="url(#filter-2)" xlink:href="#path-1"/>
      <use fill="#F8F8F8" xlink:href="#path-1"/>
    </g>
    <path id="After" fill="#292929" fill-rule="nonzero" d="M1049.738 484l1.204-3.262h4.48l1.232 3.262h1.246l-4.046-10.5h-1.316l-3.948 10.5h1.148zm5.306-4.256h-3.738l1.848-4.984 1.89 4.984zm5.604 4.256v-6.132h1.512V477h-1.512v-1.82c0-.518.266-.784.728-.784h1.134v-.896h-1.596c-.84 0-1.33.42-1.33 1.358V477h-1.12v.868h1.12V484h1.064zm6.471 0v-.896h-.868c-.462 0-.728-.266-.728-.784v-4.452h1.624V477h-1.624v-1.778h-1.064V477h-1.204v.868h1.204v4.774c0 .938.49 1.358 1.33 1.358h1.33zm4.876.14c2.142 0 3.164-1.582 3.234-2.884h-1.12c-.112 1.148-.658 2.114-2.1 2.114-1.414 0-2.17-1.05-2.17-2.786v-.182h5.39c-.028-2.198-1.162-3.542-3.248-3.542-2.002 0-3.346 1.484-3.346 3.696 0 2.044 1.176 3.584 3.36 3.584zm2.03-4.256h-4.144c.168-1.512.938-2.254 2.114-2.254 1.47 0 2.03 1.12 2.03 2.254zm4.231 4.116v-3.864c.238-1.722.896-2.296 2.03-2.296.224 0 .476.028.742.07v-.994c-.266-.028-.518-.056-.756-.056-.616 0-1.106.14-1.414.56l-.602 1.652V477h-1.064v7h1.064z"/>
    <g id="tyler-gaw-logo" fill="#292929" transform="translate(782 91)">
      <path id="ampersand" d="M268.574 213.07c-10.353-5.823-5.933-17.44-1.633-22.896 1.039-.93 8.34.15 10.794-1.344 6.119-3.723 12.873-10.345 14.118-10.345 6.51 0 12.557 9.686 10.9 17.073-.274 1.21-8.997 10.419-14.534 12.415-1.652.594-3.123-11.002-2.283-11.124 4.76-.682 9.99-1.923 9.341-5.588-.179-1.006-10.23-4.058-17.126 1.088-1.495 1.115-16.505 6.517-.8 18.706 1.123.848 4.966-.274 6.718-.082.258.139-.138 4.146-.106 4.139-2.802 1.656-5.812 3.103-11.209 7.864-4.488 3.28-4.05 12-1.815 14.947.846 1.115 7.397 4.506 13.96 3.158 9.747-2.226 16.298-6.972 17.335-9.103.692-1.427.814-7.025-.623-7.555-.115-.23-7.512-.55-10.9.827-.844.344-6.301 2.49-4.834 4.495.918 1.253 5.1-1.239 5.976-1.286.792-.032.5 4.983 0 5.38-1.252 1.048-9.512 3.466-10.796 2.38-3.607-3.051-.103-14.072 8.48-16.2 1.071-.015 10.704-.635 11.761-.665 6.851-.519 12.063-3.058 13.39-6.519 1.326-3.45.391-6.36-.829-6.828-4.154-2.899-6.332-.312-8.15 1.396-2.646 1.914-.586 3.393 2.855 2.224.622.312 2.103 2.51 1.869 2.898.23.867-7.475 3.104-10.07 2.481-1.024-.51-2.696-12.621 5.295-14.794 7.992-2.173 10.275-2.587 14.531 1.346 2.86 4.195-2.076 19.553-9.134 21.52-.026 1.507 4.96 6.58 3.685 15.054-.272 1.823-6.85 12.105-30.256 17.022-13.496 2.067-23.626-5.126-26.055-11.693-.649-1.756-.408-1.452-.83-3-.311-1.138 4.562-9.64 4.464-11.485 0-1.656-5.844-4.429-5.814-4.968 2.864-9.663 12.325-10.938 12.325-10.938"/>
      <path id="name" d="M129.91 12.147c2.054.815 1.275 25.362-.744 36.372l-.247 1.266C126.623 61 118.182 91.067 117.46 93.179l-.04.104c-.604 1.279-19.253 90.826-20.16 97.381l-.034.297c-.111 2.088-16.427 43.192-16.238 45.535.083 1.019-55.264-1.607-55.378-2.484-2.082 0-6.013-9.2-4.58-10.763.89-1.562 38.43-7.485 39.14-9.936l.16-.413c1.255-3.09 9.333-21.884 9.833-25.854l.036-.456c.84-8.578 14.395-71.496 13.495-74.265l-.152-.547c-.887-3.38-4.74-19.848-8.185-34.68L68.51 47.332c-2.205-9.71-7.094-31.111-7.3-31.46-.362-.616 29.492 1.211 29.562 1.241l.223.645c.69 2.071 2.72 8.508 2.693 10.946 1.842 6.89.353 18.76.8 21.36l.034.167c.747 2.989-.418 22.354 4.578 36.014.574.018 3.131-26.371 3.7-29.57l.048-.236c1.157-4.364-1.637-37.14-1.666-39.74.06-.517 8.277-2.293 12.716-3.45l1.024-.276c3.111-.868 14.838-.953 14.989-.827zm-70.782 5.382c.959.024 8.782 51.632 7.91 51.52l-.523-.113c-4.542-1.035-15.356-4.822-15.091-1.749-.07 2.235-2.472 11.677-2.655 13.418-.269 2.576 8.504 82.928 8.483 84.276-.015.937 10.33 7.323 10.424 10.139l-.014.21s-6.042 29.31-18.112 32.91l-1.487.432c-12.508 3.554-35.442 8.137-35.362 7.225l7.636-19.73c1.26-1.972 4.27-90.462 4.767-96.607l.068-.635c.265-2.87.239-14.43-3.727-17.977-1.57.393-14.758 19.455-15.614 19.87-4.996.93-6.108-69.7-5.777-69.942l.225-.074c2.515-.88 16.467-6.893 30.116-8.242l1.88-.176C43.17 21.18 58.313 17.51 59.129 17.53zm113.15-5.589l-.03.44c-.32 3.859-3 21.202-2.799 24.2l.018.181c.31 1.69-4.147 36.14-4.364 40.094l-.008.266c.057 3.28-6.502 31.262-7.074 34.6l-.036.245c-.113 1.103-3.95 11.623-7.406 20.934l-5.47 14.612c-1.25 3.104-1.961 14.351.624 15.109 3.09.908 13.74-35.513 16.238-33.962l18.113-3.104-.025.2c-.713 4.352-16.495 60.399-17.464 60.047-7.353 0-21.62 15.924-30.217 15.156l-.49-.063c-5.204-.93-22.586 8.9-28.626 13.87-1.248.62-4.454-.373-4.37-.623 1.56-9.52 10.08-28.804 10.2-29.788l.355-1.046c2.982-8.982 9.204-32.169 11.303-42.006l.182-1.528c.636-5 2.649-19.482 3.34-24.804l.248-1.993c.486-3.223 8.43-45.995 8.098-48.895 2.498-2.709 8.28-21.925 8.119-27.097 1.562-2.174-6.78-23.941-6.87-24.114l2.403-.397c3.059-.482 8.476-1.257 12.899-1.466 9.68-2.172 23.108.932 23.108.932zm62.144-2.484c1.432-.407 25.57 3.206 27.996 3.408l.11.008c35.852 1.658 37.34 28.36 37.219 36.864l-.058 2.237s-4.988 52.372-8.12 63.647c-1.14 4.117-18.016 7.843-20.298 8.09 2.887 1.923 18.872 3.015 18.112 9.917l-.103.786c-.801 5.62-4.925 28.106-3.645 32.745l.143.467c.84 2.53 3.485 7.82 5.112 7.455l.159-.056c.565-.276-4.98 4.112-11.198 8.686l-1.708 1.249c-6.674 4.84-23.71 1.718-23.735 1.24-.095-1.719 6.64-8.844 6.679-12.123l-.017-.296c-.408-3.121 5.012-18.677 4.892-19.645l-.124-.982c-.4-2.976-1.325-7.352-5.498-6.469l-2.583 11.123c-.54 2.371-.996 4.433-1.163 5.331-.531 2.847-8.528 14.142-8.014 15.61.448 1.29-1.592 9.454-1.666 9.523-.28.254-14.469 1.861-19.155.412-11.357-7.669-23.343-8.64-23.524-8.898-.834-1.18-1.04-6.417.208-6.833 7.082-2.034 20.6-1.504 20.818-1.656 1.695-1.188 11.696-28.623 12.462-32.141l.063-.366c.566-3.87 5.308-43.495 5.377-45.053l-1.336-18.82c-1.07-14.672-2.475-32.954-3.004-35.525l-.03-.129c-.09-.359-4.6-28.46-4.371-29.806zm-7.808 1.241c.61.004 6.69 29.955 5.31 30.427.313.62-17.269-4.696-18.112-4.346l-.017.037c-.27.801-3.078 14.51-1.242 34.45l.172 1.75c1.668 16.03 2.589 9.452 2.335 10.954-.157.93 20.168-1.053 21.027-1.242 1.433-.314-1.282 33.822-3.33 33.53-2.423-.344-14.087.21-18.224 1.098l-.213.048.012.176c.033 1.446-.961 6.028-4.998 18.53.16.504 6.046.369 7.808.933.208-2.173 13.863-10.252 16.447-10.038.59.049-10.18 35.618-10.825 35.498-.631-.12-9.871 5.518-19.57 6.311-1.532-.436-33.26 11.596-33.311 11.593-1.37-1.303 8.64-16.646 8.64-16.646.732-1.102 5.308-33.842 5.308-33.842 1.615-6.39 2.673-38.612 2.506-41.496l-.008-.106c-.238-2.437 3.743-59.354 3.798-59.59.089-.362-15.516-15.115-14.934-16.58-.178.446 9.782-2.896 16.447-3.103l.692-.014c7.625-.077 32.52 1.661 34.282 1.668zm145.211-8.09l.354.14c2.529 1.087 15.885 7.78 15.885 10.108.14 1.712-5.898 22.843-6.66 25.354l-.612 1.038c-2.121 3.527-9.204 14.714-12.4 12.416-.39-.28-5.284-8.03-5.31-9.727l-1.9-1.368c-1.198-.878-2.513-1.914-3.721-3.186-3.457-3.642-7.6 2.484-10.304 4.035-1.643 1.837-3.197 37.628-3.293 40.805l-.47 33.448c-.098 5.782-.198 10.214-.285 11.002l-.01.075.053-.115c.273-.463 1.673-1.823 8.48-1.285 7.616.603 6.894-6.265 9.785-10.762 1.44-1.76 9.8-24.512 9.158-24.424-9.487.502-11.208 9.416-13.738 9.314-1.144-4.294-.435-23.976.093-24.303.762-.87 9.587-3.242 15.52-4.26 3.203-.159 20.907-12.43 21.028-10.762l.006.24c0 3.92-2.633 42.158-2.92 44.052l-1.573 10.974c-1.964 13.375-5.218 34.193-6.547 34.355-4.372-1.655-13.117-10.555-13.117-10.555-.885 1.822-6.558 18.938-16.862 20.491-4.164 1.24-12.163-3.715-22.9-2.899-3.554.291-17.285 11.893-23.111 14.903 0 .414-2.489-10.705-2.496-10.763l.474-1.626c6.514-22.796 7.998-46.937 8.058-50.326l.002-.207c-.002-.825 4.832-17.639 5.622-34.151 1.872-4.347-3.394-30.973-3.748-34.772l-3.13-8.291c-3.173-8.48-6.843-18.946-6.238-22.55.238-1.378 20.364-5.652 23.524-6.003l2.531.381c19.34 2.856 23.984 2.18 25.16 3.552l.062.102c.814 1.258 9.333 13.46 10.554 13.559.263.02 4.582-18.134 4.996-18.01zm17.072 2.692c0-.596 12.06-2.916 21.15-1.726l1.485.203c8.619 1.074 23.547.66 25.249-.235.624 0-3.533 16.223-3.747 17.075-.938 3.726 5.135 15.264 6.87 19.558l.035.132c.64 2.88 6.776 47.216 7.619 52.07l.049.27c.465 2.353.357 13.938 3.226 20.8l.412.968c1.439 3.333 4.896 10.99 6.978 14.04.783 1.144-27.288 26.452-27.689 25.87-.12-.849-2.602-6.933-2.186-7.969l2.61-4.4c2.273-3.88 5.175-9.131 5.198-11.018.116-9.831-6.872-25.252-6.872-25.252-2.64.343-4.215 3.048-5.412 4.347-.88.955-4.947 19.485-4.892 22.352.305 3.345 4.143 13.674 2.81 15.524-.766 1.066-35.086 12.057-34.897 11.021.085-.46-1.562-5.277-1.17-5.665 4.763-6.676 10.769-16.91 11.085-18.394.406-1.904 1.366-15.212 1.264-18.533l-.016-.474c-.023-4.47 2.628-56.584 2.102-59.97l-.092-.48c-.646-3.887-4.07-32.056-4.885-33.507l-.038-.05c-.344-.272-6.27-15.993-6.246-16.557zM525.001.436l1.302 4.67c1.431 5.212 3.508 13.068 3.35 14.186l-.02.082c-.835 1.973 8.248 34.74 9.329 42.546l.193 1.615c.648 5.717.68 8.733.68 10.275-.203 2.147 6.036 4.14 6.454 6.623-.046.27-4.79 6.417-12.077 12.212-9.385 7.465-23.585 11.65-23.94 11.383-1.228-.917-2.782-8.646-3.332-9.934-1.093-2.555-4.932-6.83-5.622-6.83-.867 0-1.653 6.973-2.08 15.317-.118 2.228 2.29 2.276 1.873 4.346-.325 1.05-35.485 19.82-35.808 19.455-1.161-1.295-.084-16.81-.416-18.214-.362-1.51-6.364-14.318-6.87-16.764l-.106-.564c-.762-4.29-4.055-25.83-4.85-28.293l-.043-.12c-.81-2.001-3.173-33.652-4.043-36.805l-.093-.25c-.854-2.14-7.095-16.508-7.776-20.783-.126-.778 32.92-.233 37.729 2.366 1.133-.235-7.023 20.163-6.575 21.143 1.18 2.58 4.54 29.723 5.242 33.883l1.592 8.466 4.372 12.884c2.968.113.705-32.961.777-34.42l.004-.042c.54-2.096-5.745-10.7-4.996-11.331l1.191-.977c3.583-2.886 13.716-10.68 18.638-11.133 1.557-.145 2.487 18.363 3.123 20.491l.187.566c1.847 5.179 10.065 19.463 11.057 19.615 1.763 0 .965-11.25.884-13.956l-.007-.333c0-8.65-14.518-29.943-15.666-32.782l-.045-.12c-.607-1.892-9.368-9.781-10.306-10.712 6.347-7.1 36.386-9.223 36.694-7.76zM260.028 35.83l1.59 4.965c1.309 4.178 2.969 9.722 3.088 11.328l.005.393c-.032 3.797-.725 38.826.001 38.267 4.928.53 6.74 2.126 9.369-1.243 2.438-3.122 5.136-26.615 5.303-28.778l.007-.094c.193-3.456-2.7-16.402-3.748-18.94-1.02-2.474-5.309-4.967-15.615-5.898zm159.264-3.622c-2.232-.212-2.245 25.175-2.108 29.626l.028.592.832 20.284c2.02 1.006 3.933-.237 5.828-.827 1.56-.487 6.704-4.576 6.662-5.691l-.899-5.433c-1.137-6.763-2.172-12.491-2.73-15.143l-.242-1.09c-1.237-5.322-5.729-22.163-7.37-22.318z"/>
      <path id="designer" d="M12.331 239.144c.076-.29 3.554-2.896 4.074-2.38l1.954 1.892c1.696 1.618 2.92 2.698 3.273 2.763 2.152.4 6.963.795 9.09 1.242 2.493.523 5.128 2.832 6.271 4.343 1.145 1.513 6.206 14.246 6.897 22.446.6 7.137-2.37 20.48-2.737 23.19l-.033.292c-.195 2.636-3.75 7.193-8.411 8.999-4.951 1.919-14.96 6.742-18.916 8.069l-.174-5.053c-.06-2.082-.098-4.165-.042-4.84l.014-.158c.114-2.11.001-22.885.005-23.245l.003-1.648c-.037-8.443-.816-19.783-1.183-24.69l-.189-2.43s-.1-7.742.104-8.792zm68.759 4.447c1.15.105-2.417 9.174-3.239 9-3.46-.7-16.816.138-20.115-.155-.06 1.913.224 4.273.315 5.12.175 1.641-.942 7.568-.835 8.275.195 1.277 14.982-4.663 15.724-4.655.828.103-.581 10.033-.784 10.033-1.025.003-8.556 3.31-13.285 4.966-.304 0-.368 6.13.235 6.207 7.095-.622 10.35-4.645 11.953-4.657.88-.052 3.03 8.845 2.194 9.206-1.526.147-11.599 4.655-11.599 4.655-2.443.02-15.066 5.86-17.87 5.793l2.72-14.32c.852-4.598 1.574-8.65 1.567-9.16l-.009-1.012c-.109-6.322-1.171-13.925-1.243-15.183l-.003-.147c.07-.968-1.758-6.899-2.299-6.932l-.268-1.962c-.274-2.134-.6-5.108-.307-5.072l.397.035c1.771.122 7.624.239 14.414-.138 6.857-.827 20.729-.21 22.337.103zm-52.808 14.1c-3.06-.788-5.291-2.191-5.21-1.827.205.903.56 12.64.667 14.276l.01.12c.157 1.77-.349 12.115-.194 14.46l.019.214c.057.511-.397 7.795-.397 7.795 1.532.252 4.277-2.935 5.995-4.452 1.262-1.116 5.052-7.91 5.052-13.965 0-6.36-2.641-15.774-5.942-16.621zm70.99-34.994c10.126.191 10.724 6.85 10.975 8.379.232 1.956 1.752 8.183 1.775 10.138.01.789-.522 6.01-.733 6.413-.188.363-8.216.359-8.776 0-.835-2.174 3.265-3.854 3.343-4.966.1-1.402-3.656-8.38-7.21-8.534-4.387-.259-6.373 5.121-6.27 7.707-.04 3.29 4.172 6.261 5.33 7.759 2.768 2.79 10.83-.156 14.734 4.86.907.788 1.097 6.879 0 15.102-1.253 8.069-11.31 13.447-19.54 15.929-12.313 2.437-16.464.786-16.512-1.036l.02-9.22c.04-5.94.191-12.785.71-14.156.629-1.55 7.343-1.886 9.302-2.482.183-.152 1.035.597 2.3 1.759 1.247 1.146 2.114 3.01 2.101 3.17-.691 1.174-5.183 1.669-5.76 2.52-.983 1.456-.21 7.353-.207 9.05 12.957 5.74 16.425-12.4 15.151-13.397-4.831-4.183-10.545-6.39-13.375-7.99l-1.578-.919c-.691-.411-1.145-.75-1.768-1.539-.934-1.182 2.01-6.483 2.197-7.858l.079-.482c.554-3.11 3.525-17.255 4.414-17.622 2.504-1.01 5.71-2.963 9.298-2.585zm39.815-15.724c-.126 1.423-2.491 8.603-2.717 9.105-.323.718-6.688 2.792-6.688 2.792l1.673 26.479-.013.638c-.018 3.167.508 8.83.848 8.878.995.145 4.677-3.223 5.224-2.997l.114 2.185c.183 2.977.69 8.094 2.343 10.407.136.19-.855 1.75-1.882 2.048l-.789.239c-7.802 2.44-24.074 9.665-24.446 9.581-.165-.034 1.67-3.668 2.926-6.774.73-1.81.873-5.258.915-5.481.057-.309 3.141-1.466 3.996-1.553.703-.07.35-1.84.315-2.217l-.025-2.03c-.02-3.034-.017-8.11.013-9.678l.01-.348c.039-.873-.811-9.494-1.137-12.597l-.116-1.059c-.235-1.793.032-8.347 0-9.93l-2.686 1.467c-1.641.883-3.458 1.831-3.622 1.794-1.53-3.764-5.175-7.682-5.175-7.682l1.43-1.257c3.515-3.017 12.645-10.415 17.576-10.354 4.39.105 12.148-3.516 11.913-1.656zm21.318-11.947c1.184.488 2.173 12.389 2.194 12.774l-.628 11.102-2.35-.152c-1.724-.457-2.09-8.024-2.508-8.821-.676-1.291-4.178.98-5.8 1.825-1.253.66-.489 4.715-.696 6.109l-.036.18c-.4 1.468-.627 16.012-.836 16.963-.451 2.08-.29 5.628.42 7.447l.25.626c1 2.461 2.06 4.343 3.51 3.512l.769-.45c1.523-.92 3.335-2.262 3.36-4.256l.018-.563c.123-2.584.808-6.885.452-6.884-.541 0-3.512 1.654-5.016 1.799v-.362c.052-1.658.643-6.247.94-6.33.681-.186 8.358-4.309 10.66-4.572.49.166 1.1 5.957.961 7.32l-.02.142c-.042.205-.363 1.858-.453 2.242l-.018.071c-.524 1.613.73 17.1-.366 21.36-3.936.202-4.847-3.99-6.48-2.69-1.691 1.353-5.642 11.173-15.675 13.241-.835.074-2.053-7.849-2.088-10.567l.016-2.535c.016-8.383-.208-30.735-.048-36.043l.073-1.815c.114-4.105.301-13.638 8.267-14.743l.6-.348c3.199-1.906 9.21-6.123 10.528-5.582zm38.246-14.164c-.328.502-4.038 11.484-4.233 13.318l.016.27c.114 3.86-2.02 36.18-2.053 39.989v.153c.026 2.426.212 5.574.47 7.227.046.292-10.68 7.156-10.892 6.622-.143-.842.713-6.158.39-7.02-.795-2.125-.44-4.536-.783-6.754l-.772-4.442c-1.154-6.453-3.163-17.292-3.382-17.703l.813 17.043-.015.839c-.022 3.551.361 9.317.168 10.808l-.024.45c-.054 1.689.06 6.24.233 7.617.027.21-10.11 4.407-10.11 3.88 0-.9 1.287-7.796 1.838-10.557l.225-1.08c.852-3.403-3.138-39.512-3.134-42.41 0-.394-1.456-6.214-1.044-7.672.085-.297 12.164-6.602 12.225-6.316.172.78.368 8.08.599 9.412l.2.837c.523 2.322 1.623 8.25 1.913 9.6l.033.149c.784 3.378 4.116 13.398 4.308 13.868.852-.293.052-11.25.053-13.603l.002-.171c.055-2.402-.68-10.803-.838-12.412l-.071-.23c-.418-1.51-2.033-9.056-2.019-9.885.1-.209 7.919-3.383 12.435-4.16.524-.407 3.565 2.157 3.45 2.333zm27.274 12.77c.027-.373 7.698 2.172 10.657 2.172 4.234 0 14.626-3.077 17.243-.62l1.38 1.24c1.766 1.605 3.636 3.671 3.636 7.653 0 7.863-5.929 13.267-8.883 15.932-1.926 1.74-9.996 1.841-11.415 2.016-.863.105 7.25.633 7.444 5.532.163 4.074-2.193 8.482-1.355 10.243l.315.696c.392.855.804 1.537 1.564.751.849-.876 5.735-9.738 5.642-11.171-.08-1.222 7.286 1.975 6.897 2.792l-1.168 2.83c-1.903 4.476-5.758 12.75-8.888 13.665-.585.502-5.744 1.665-9.642-1.317-1.932-2.428-3.573-7.28-3.499-10.11l.045-.907c.16-2.694.523-8.23-2.45-8.504l-1.504 7.214c-.58 2.856-1.144 5.765-1.317 7.058-.062.463-22.06 1.329-21.918.932.094-.26 3.03-3.827 3.762-4.034l.526-.133c2.977-.693 10.92-1.79 11.36-3.124.6-1.819 1.443-9.724 1.893-14.376l.301-3.314c.035-.417.473-10.414.627-11.635l-.009-.147c-.12-1.258-1.339-9.96-1.244-11.335zm-24.87-10.656c3.031.95 9.769 4.591 12.227 5.484 7.98 2.285 8.697 4.975 10.031 5.068.48.082-2.297 7.195-2.64 9.412-.972-.103-1.553-2.836-4.257-3.931-3.083-1.252-1.47-1-4.389-1.55-2.299-.106-1.712 8.2-1.541 8.273.681.175 10.439 1.21 11.048 1.399.171.052-2.325 7.135-2.505 7.135l-.441-.022c-.82-.058-2.45-.226-3.478-.443l-.743-.171c-1.194-.296-2.226-.617-4.117-.605-.271.002-1.161 11.803-.626 11.948 10.606.498 9.976-7.327 11.39-7.344.78-.101 1.637 9.232 1.253 9.31-1.31.262-5.394 6.251-11.604 8.684l-.57.211c-4.047 1.41-10.007 4.675-12.488 4.551l-.016-1.077c-.006-1.392.039-3.828.374-5.468l.062-.281c.216-.972.753-6.242.953-11.075l.457-10.855c-.002-.191 1.673-16.292 1.544-17.673l-.038-.754c-.116-3.052-.172-11.446.114-10.226zm47.755 22.343c.18-4.318-12.49-1.982-14.256-1.5l-.164.052-.158 8.845c.037.47 5.961.851 8.572-.151l.596-.254c1.899-.772 5.183-1.535 5.41-6.992z"/>
      <path id="engineer" d="M352.592 166.084c.436.477-.64 9.061-1.04 12.251-1.145-.147-6.287-3.467-6.623-3.833-.243-.271-5.308-.298-10.41 2.743-.446-.066.262 18.118.468 18.222.803.255 9.348-5.919 13.24-6.541.153-.09 1.252 9.34 1.04 9.344-3.325 1.556-13.59 8.446-13.918 8.514-.313.066-.11 11.94.52 12.147 1.765 0 11.524-11.292 13.19-11.317.916-.147 1.386 13.803.937 13.913-1.59.388-25.861 16.692-30.747 17.08.468-3.27-2.083-8.2-2.181-8.983.449-1.31 1.26-2.105 1.247-2.128l1.306-.333c1.518-.403 2.9-.819 2.9-.859.52-3.532 4-15.315 3.117-19.001l-2.402-10.013c-.885-3.756-1.613-7.011-1.65-7.805v-.093c.062-2.192-1.727-7.341-1.714-7.943.006-.324-4.657 1.534-5.61 1.713-.162-2.848-5.033-7.783-4.465-8.15l5.315-3.54c4.703-3.101 11.139-7.19 14.42-8.398 2.962-1.092 22.126 2.931 23.06 3.01zm28.357-10.641c0 1.244 3.193 8.565 3.115 9.576l.023.351c.179 3.978-.52 28.255-.542 33.17l.002 1.555c-.013 2.885-.126 6.689.102 8.453.045.35-11.835 5.166-12.048 4.517-.144-1.014 1.438-4.645-.312-10.226l-.337-1.034c-1.865-5.622-6.247-17.656-6.518-18.277l.7 22.374.706 3.354c.396 1.938.83 4.176.93 5.134.026.25-11.373 5.618-11.373 4.983l-.018-.934c-.08-2.97-.374-11.184-.191-12.071.819-3.965 1.118-28.694 1.142-33.595l.001-.46c-.053-.157.76-7.01.729-8.098-.012-.371 9.182-10.415 9.242-10.072.176.983.38 13.592.623 14.64l.192.665c1.29 4.16 8.149 23.724 8.328 24.254.841-.353.203-9.209.203-11.866l.002-.23c.057-2.903-3.166-15.342-3.323-17.287-.241-.711-1.989-13.426-1.819-13.862 2.702-.207 10.363 4.672 10.44 4.986zm44.871-3.998l3.116 6.488.3.492c.447.75 1.196 2.084.79 1.949l-2.155.492 1.093 25.543-.03 1.137c-.1 4.659-.195 16.628-.204 17.16.004.299 2.876-.156 2.881 0l.002.743c-.019 1.823-.157 5.994-.496 6.006l-.837.14c-5.159.922-12.661 3.393-13.081 3.286-.278-.07.052-7.015.156-7.63.055-.349.347.043 1.195-.053.745-.083 1.902-.426 1.923-.622l-.045-4.59c-.015-2.651-.025-5.807-.021-7.98l.02-2.484c.044-1.16-1.015-26.376-1.047-28.162l-3.738.856c-.366.183-1.715-7.01-1.09-7.32.516-.468 5.92-2.805 5.92-2.805l1.31-.735c1.418-.78 3.541-1.904 4.038-1.911zm-24.46 7.423l2.781.305c2.347.275 3.463.503 4.02 1.097l.61.315c1.016.543 2.906 1.603 2.923 1.865l-1.455 12.147-2.7-.933c-.417-1.04-.21-2.407-.623-3.114l-.373-.655c-.79-1.305-2.399-3.09-7.21-.905-2.435.915-2.992 15.415-2.964 16.892l.003.083c.19 2.862-.238 9.908.468 11.527l.275.606c1.033 2.197 2.346 4.022 3.776 3.287l.546-.284c1.489-.797 3.168-1.913 3.194-3.766.029-2.188 1.159-6.882.778-7.942-.15-.412-3.648-2.356-5.142-2.336-.051-1.058-1.334-7.137-.78-7.32.625-.207 12.607 2.99 15.115 2.96.311-1.09 1.389 3.455 1.09 4.36l-.752 2.696-.071.328c-.401 2.18-1.724 13.607-3.07 24.23-3.067-.647-6.16-5.102-6.545-4.829l-.371.316c-1.26 1.038-2.061 1.182-8.198 1.242l-.613-.25c-2.79-1.193-7.152-3.681-7.47-4.769l-.02-.119c-1.09-5.453.695-29.64.935-33.017.122-1.688-2.18-7.32-1.714-8.254.29-.443 13.043-5.9 13.556-5.763zm58.685-21.44c-.324.35 3.31 12.574 3.116 13.86l.033.24c.379 3.087 2.51 28.702 2.612 31.557l.004.13c.026 1.7-.568 10.832-.311 11.992.045.203-13.187 9.72-13.4 9.344-.141-.589.01-4.69-.311-5.295-.706-1.333-1.79-6.028-2.329-8.106l-.401-1.475c-1.772-6.737-2.742-16.702-4.593-16.427l1.095 15.52c.052 1.09.502 10.664.307 11.735-.102.762.588 3.906.779 4.983.024.145-9.97 4.416-9.97 4.048l.016-.517c.076-1.725.39-6.732.58-7.636l.026-.101c.847-2.386-.472-36.28-.468-38.31-.312-.625-1.838-4.976-1.868-5.608-.012-.217 11.156-7.52 11.216-7.318.168.54.783 5.408 1.051 6.414l.148.448c1.089 3.43 9.06 30.979 9.24 31.293.85-.206-1.239-15.874-1.248-17.805l.002-.106c.087-1.38-.58-9.995-1.038-14.046l-.077-.182c-.511-1.35-2.938-9.209-2.78-9.443l.406-.451c1.75-1.903 8.516-9.116 8.163-8.739zm31.11-17.443c.37.236 5.115 11.715 4.777 13.29-.757-.164-8.644 2.64-8.674 2.647-1.699.08-4.516 2.648-5.295 3.116-.064.015-.938 13.935-.78 13.963.68.125 13.032-5.517 13.296-5.606.126-.045.8 9.967.623 9.967-.247-.006-5.956 4.85-7.273 5.19-.258-.05-6.057 3.237-6.334 3.271-.263.032 1.492 10.333 2.024 10.437 3.739-.781 10.177-10.786 11.583-10.8.775-.07 1.304 13.482 1.247 13.497-1.366.073-12.673 9.293-12.673 9.293l-.596.182c-2.733.868-9.438 3.327-11.713 3.243l-.298-1.273c-.526-2.323-1.526-7.127-1.106-8.382 1.25-.622 2.016-3.716 2.08-4.308l.05-.657c.09-1.599.137-4.808.273-7.903l-.029-.648c-.213-4.04-1.55-25.406-1.541-25.677.005-.16-2.39-1.61-2.7-2.388-.138-1.409-3.13-7.607-2.65-7.788l.531-.213c5.436-2.276 23.896-12.516 25.177-12.453zm27.524-12.356c.37.218 6.26 10.079 5.921 11.526-.755-.15-5.112.149-5.142.154-1.698.076-9.037 4.191-9.814 4.621-.064.014 1.502 12.017 1.66 12.044.68.115 10.805-7.164 12.205-6.853.127-.04.804 9.344.625 9.346-.247-.007-11.254 8.22-11.531 8.254-.26.028.247 9.405.78 9.499 6.543-2.803 8.368-9.8 9.555-12.77.313-.779 2.119-1.656 2.702-1.661.775-.064 1.98 18 1.92 18.013-1.363.068-10.595 8.099-10.595 8.099-2.179.572-11.869 6.311-14.333 6.228l-.492-2.715c-.573-3.296-1.394-8.547-1.016-9.585 1.25-.571 2.69-1.95 2.753-2.495.125-1.037-.704-5.317-.637-8.593l.015-.44c.02-.43-1.568-21.063-1.559-21.335.008-.147-2.129-4.63-2.44-5.345-.138-1.294-2.557-5.547-2.077-5.713l.593-.22c5.231-2.055 19.634-10.116 20.907-10.059zm28.76-16.42c1.597.83 8.528 12.229 9.217 14.77 1.27 4.679 2.215 21.615.989 23.398-1.007 1.46-7.931 3.682-9.013 4.398l-.086.064.317-.033c1.577-.15 7.5-.502 8.233 1.499.879 3.276-1.274 17.522 3.028 18.528 1.578.368 4.21.068 5.816.83.441.207-1.689 7.791-1.823 7.993-.615.317-8.212.542-12.303-1.348-1.975-1.497-3.721-14.916-3.742-17.277l.002-.385c-.05-1.398-1.14-4.303-7.66-5.014l.494 1.933c.465 1.879 1.085 4.561 1.043 5.348-.027.484 2.185 8.246 1.756 8.32l-.165.043c-1.514.44-12.05 3.94-11.906 3.7.246-.41 2.072-6.827 2.195-7.28.438-1.622-.457-12.437-.33-13.415l-.009-.127c-.146-1.513-2.08-15.634-1.965-16.72.085-.802-2.306-6.449-2.963-7.488.033-.16-4.128-7.315-4.17-7.594-.041-.236 20.391-15.525 23.046-14.142zm-10.687 16.42l.362.628c.732 1.318 2.358 4.514 2.861 7.703l1.453 8.801c.038.307 5.814-1.243 7.79-3.114 1.907-.534 1.015-7.732 1.292-9.846.168-1.266-4.514-5.266-5.655-7.286-3.293-1.249-6.565 2.282-8.103 3.114z"/>
    </g>
  </g>
</svg>
