<?xml version="1.0" encoding="UTF-8"?>
<svg xmlns="http://www.w3.org/2000/svg" xmlns:xlink="http://www.w3.org/1999/xlink" viewBox="0 0 938 403">
  <defs>
    <path id="path-1" d="M78 259c30.928 0 56 25.072 56 56s-25.072 56-56 56-56-25.072-56-56 25.072-56 56-56zm240 57c13.255 0 24 10.745 24 24s-10.745 24-24 24-24-10.745-24-24 10.745-24 24-24zm0-115c27.062 0 49 21.938 49 49s-21.938 49-49 49-49-21.938-49-49 21.938-49 49-49zm280-58c32.585 0 59 26.415 59 59s-26.415 59-59 59-59-26.415-59-59 26.415-59 59-59z"/>
  </defs>
  <g id="post-image-realign-2020-logo-feet" fill="none" fill-rule="evenodd" stroke="none" stroke-width="1">
    <path fill="#F8F8F8" d="M0 0h938v403H0z"/>
    <g id="Group-2" transform="translate(66 -68)">
      <g id="tyler-gaw-logo" fill="#292929" opacity=".146">
        <path id="ampersand" d="M382.508 304.388c-14.706-8.315-8.427-24.906-2.32-32.695 1.476-1.329 11.848.214 15.333-1.92 8.692-5.317 18.287-14.773 20.055-14.773 9.246 0 17.837 13.831 15.482 24.38-.388 1.729-12.78 14.878-20.644 17.729-2.347.848-4.436-15.71-3.244-15.885 6.76-.974 14.191-2.746 13.27-7.98-.255-1.436-14.532-5.795-24.327 1.554-2.125 1.592-23.447 9.306-1.136 26.713 1.594 1.21 7.053-.392 9.541-.118.367.199-.195 5.921-.15 5.91-3.98 2.365-8.255 4.432-15.922 11.23-6.375 4.685-5.753 17.137-2.58 21.345 1.203 1.592 10.509 6.434 19.83 4.51 13.847-3.178 23.152-9.956 24.625-13 .983-2.037 1.158-10.03-.884-10.787-.163-.33-10.671-.787-15.485 1.18-1.197.492-8.95 3.555-6.865 6.419 1.304 1.79 7.246-1.77 8.489-1.836 1.125-.046.71 7.115 0 7.682-1.78 1.497-13.512 4.95-15.336 3.398-5.124-4.357-.147-20.094 12.046-23.132 1.522-.022 15.204-.907 16.707-.95 9.731-.741 17.135-4.368 19.02-9.31 1.884-4.927.555-9.082-1.178-9.75-5.9-4.14-8.995-.446-11.577 1.994-3.758 2.732-.833 4.845 4.056 3.175.884.446 2.986 3.583 2.654 4.139.327 1.237-10.618 4.432-14.304 3.543-1.454-.73-3.83-18.024 7.522-21.127 11.352-3.103 14.596-3.693 20.641 1.922 4.061 5.991-2.949 27.923-12.975 30.73-.037 2.154 7.045 9.398 5.234 21.498-.386 2.604-9.729 17.286-42.979 24.308-19.17 2.953-33.56-7.32-37.01-16.698-.922-2.507-.579-2.072-1.179-4.284-.442-1.624 6.48-13.764 6.34-16.4 0-2.365-8.3-6.324-8.258-7.094 4.069-13.8 17.508-15.62 17.508-15.62"/>
        <path id="name" d="M185.012 17.343c2.925 1.165 1.816 36.212-1.059 51.932l-.352 1.808c-3.27 16.014-15.292 58.943-16.321 61.958l-.056.15c-.86 1.825-27.42 129.68-28.713 139.04l-.047.423c-.16 2.983-23.396 61.671-23.126 65.016.118 1.455-78.705-2.295-78.866-3.546-2.966 0-8.565-13.138-6.523-15.368 1.268-2.231 54.73-10.687 55.74-14.187l.228-.59c1.788-4.41 13.292-31.246 14.005-36.914l.05-.651c1.196-12.248 20.502-102.082 19.22-106.036l-.217-.78c-1.263-4.827-6.75-28.34-11.656-49.518l-9.752-42.498c-3.14-13.865-10.103-44.42-10.397-44.918-.514-.88 42.002 1.729 42.102 1.772l.317.92c.984 2.958 3.875 12.149 3.836 15.629 2.624 9.837.502 26.787 1.139 30.499l.048.237c1.064 4.268-.595 31.917 6.52 51.422.817.026 4.46-37.653 5.27-42.222l.068-.336c1.649-6.23-2.332-53.027-2.372-56.74.084-.738 11.787-3.275 18.11-4.927l1.458-.393c4.43-1.24 21.13-1.361 21.346-1.182zM84.208 25.027c1.365.035 12.507 73.721 11.265 73.56l-.746-.16c-6.468-1.478-21.87-6.884-21.491-2.497-.1 3.192-3.52 16.673-3.781 19.158-.383 3.678 12.11 118.405 12.081 120.33-.021 1.337 14.712 10.455 14.845 14.476l-.02.299s-8.604 41.85-25.794 46.99l-2.118.617c-17.812 5.074-50.475 11.618-50.36 10.316l10.874-28.17c1.795-2.817 6.08-129.163 6.788-137.937l.098-.907c.377-4.097.34-20.603-5.308-25.667-2.235.56-21.017 27.777-22.237 28.37-7.115 1.33-8.699-99.517-8.228-99.863l.321-.106c3.583-1.255 23.452-9.84 42.89-11.767l2.678-.252c15.514-1.576 37.08-6.818 38.243-6.79zm161.142-7.979l-.041.629c-.457 5.509-4.273 30.272-3.987 34.551l.026.26c.442 2.413-5.907 51.602-6.216 57.246l-.01.379c.08 4.684-9.261 44.636-10.076 49.403l-.051.35c-.16 1.574-5.626 16.594-10.548 29.89l-7.79 20.863c-1.78 4.432-2.792 20.49.889 21.571 4.4 1.297 19.568-50.705 23.126-48.49l25.795-4.432-.035.287c-1.015 6.212-23.49 86.236-24.871 85.734-10.472 0-30.79 22.737-43.034 21.64l-.697-.09c-7.412-1.329-32.167 12.708-40.77 19.802-1.777.886-6.342-.531-6.223-.888 2.222-13.594 14.357-41.127 14.527-42.531l.506-1.495c4.247-12.824 13.108-45.93 16.097-59.975l.26-2.182c.905-7.14 3.771-27.817 4.757-35.416l.352-2.845c.693-4.602 12.007-65.672 11.533-69.812 3.558-3.868 11.79-31.305 11.562-38.69 2.224-3.103-9.655-34.183-9.784-34.43l3.423-.567c4.356-.688 12.07-1.794 18.37-2.093 13.786-3.1 32.91 1.331 32.91 1.331zm88.503-3.547c2.04-.58 36.416 4.578 39.87 4.866l.158.011c51.059 2.368 53.179 40.493 53.005 52.635l-.082 3.195s-7.104 74.776-11.564 90.874c-1.624 5.879-25.658 11.2-28.909 11.55 4.113 2.747 26.878 4.307 25.795 14.16l-.146 1.123c-1.141 8.025-7.014 40.13-5.191 46.754l.203.666c1.196 3.612 4.963 11.167 7.28 10.645l.227-.08c.805-.394-7.092 5.871-15.947 12.402l-2.434 1.782c-9.504 6.913-33.766 2.454-33.801 1.772-.136-2.455 9.455-12.628 9.511-17.31l-.023-.423c-.582-4.456 7.137-26.666 6.967-28.049l-.177-1.401c-.57-4.25-1.888-10.498-7.83-9.237l-3.679 15.881c-.768 3.386-1.418 6.33-1.656 7.613-.757 4.064-12.146 20.191-11.414 22.288.639 1.841-2.267 13.497-2.372 13.596-.399.363-20.605 2.658-27.28.588-16.174-10.95-33.243-12.337-33.502-12.705-1.187-1.683-1.481-9.162.296-9.755 10.086-2.905 29.34-2.148 29.65-2.365 2.412-1.697 16.655-40.868 17.746-45.891l.09-.522c.807-5.526 7.56-62.103 7.659-64.328l-1.903-26.871c-1.525-20.949-3.526-47.051-4.28-50.722l-.04-.184c-.13-.513-6.553-40.636-6.227-42.558zm-11.119 1.773c.867.005 9.529 42.77 7.563 43.443.444.886-24.594-6.705-25.795-6.206l-.025.053c-.385 1.145-4.383 20.717-1.768 49.188l.244 2.498c2.375 22.89 3.687 13.497 3.326 15.642-.223 1.326 28.723-1.504 29.945-1.775 2.042-.448-1.826 48.292-4.742 47.876-3.451-.492-20.062.3-25.953 1.567l-.304.068.017.252c.047 2.064-1.369 8.607-7.118 26.457.23.72 8.61.527 11.12 1.332.297-3.103 19.744-14.638 23.423-14.332.84.07-14.498 50.855-15.416 50.684-.9-.172-14.058 7.878-27.871 9.011-2.182-.623-47.367 16.557-47.44 16.552-1.95-1.86 12.305-23.768 12.305-23.768 1.042-1.573 7.56-48.318 7.56-48.318 2.299-9.123 3.805-55.13 3.568-59.25l-.01-.15c-.34-3.479 5.329-84.746 5.407-85.084.127-.515-22.097-21.58-21.268-23.67-.253.635 13.932-4.137 23.423-4.433l.986-.02c10.859-.11 46.312 2.372 48.823 2.383zM529.537 3.722l.505.2c3.6 1.552 22.621 11.107 22.621 14.432.2 2.445-8.4 32.615-9.485 36.201l-.871 1.481c-3.021 5.037-13.108 21.01-17.66 17.729-.555-.4-7.525-11.465-7.563-13.89l-2.704-1.951c-1.707-1.255-3.58-2.734-5.3-4.55-4.923-5.2-10.824 3.546-14.675 5.76-2.339 2.624-4.553 53.727-4.69 58.263l-.668 47.756c-.14 8.257-.283 14.584-.406 15.71l-.016.107.078-.165c.388-.66 2.38-2.603 12.077-1.834 10.845.861 9.816-8.945 13.934-15.366 2.05-2.512 13.956-34.999 13.043-34.872-13.511.716-15.962 13.443-19.566 13.298-1.629-6.131-.619-34.234.132-34.7 1.086-1.241 13.655-4.629 22.103-6.084 4.562-.225 29.775-17.746 29.948-15.365l.008.344c0 5.595-3.75 60.192-4.158 62.897l-2.24 15.668c-2.797 19.097-7.432 48.821-9.325 49.052-6.226-2.362-18.68-15.07-18.68-15.07-1.26 2.601-9.34 27.04-24.014 29.257-5.93 1.772-17.322-5.304-32.614-4.139-5.06.416-24.615 16.981-32.913 21.279 0 .59-3.544-15.285-3.555-15.368l.675-2.321c9.278-32.549 11.39-67.017 11.476-71.857l.003-.295c-.003-1.178 6.881-25.184 8.007-48.761 2.666-6.206-4.834-44.223-5.338-49.648l-4.458-11.838c-4.519-12.106-9.745-27.05-8.884-32.196.34-1.968 29.003-8.07 33.503-8.571l3.605.544c27.543 4.077 34.156 3.111 35.83 5.071l.089.145c1.16 1.797 13.292 19.219 15.031 19.36.374.03 6.525-25.89 7.115-25.713zm24.313 3.844c0-.851 17.176-4.164 30.12-2.465l2.115.29c12.275 1.534 33.535.944 35.959-.335.888 0-5.031 23.163-5.336 24.38-1.335 5.32 7.312 21.794 9.785 27.925l.05.187c.91 4.114 9.648 67.417 10.849 74.347l.07.384c.662 3.361.509 19.902 4.594 29.7l.587 1.381c2.049 4.76 6.973 15.692 9.938 20.046 1.115 1.635-38.862 37.769-39.433 36.94-.172-1.214-3.706-9.9-3.113-11.38l3.717-6.281c3.237-5.541 7.37-13.038 7.403-15.733.164-14.037-9.787-36.054-9.787-36.054-3.76.489-6.003 4.351-7.708 6.206-1.252 1.364-7.045 27.821-6.967 31.915.434 4.775 5.9 19.523 4.002 22.165-1.09 1.522-49.969 17.215-49.7 15.736.122-.658-2.224-7.536-1.666-8.089 6.784-9.532 15.337-24.145 15.787-26.263.579-2.72 1.946-21.72 1.801-26.461l-.023-.678c-.033-6.383 3.743-80.79 2.993-85.624l-.13-.685c-.92-5.55-5.796-45.771-6.958-47.843l-.053-.07c-.49-.389-8.93-22.836-8.896-23.641zM747.683.623l1.855 6.667c2.037 7.442 4.995 18.659 4.77 20.255l-.03.118c-1.187 2.816 11.748 49.6 13.287 60.747l.276 2.305c.923 8.164.967 12.47.967 14.671-.288 3.066 8.597 5.911 9.192 9.457-.065.384-6.822 9.162-17.198 17.435-13.366 10.66-33.59 16.635-34.096 16.254-1.747-1.31-3.961-12.345-4.745-14.184-1.557-3.648-7.024-9.753-8.007-9.753-1.233 0-2.353 9.957-2.962 21.87-.167 3.181 3.261 3.25 2.669 6.206-.463 1.498-50.537 28.299-50.998 27.778-1.653-1.85-.118-24-.592-26.006-.514-2.156-9.063-20.444-9.784-23.937l-.15-.804c-1.086-6.125-5.775-36.88-6.907-40.397l-.061-.173c-1.156-2.856-4.52-48.047-5.758-52.55l-.134-.356c-1.216-3.055-10.103-23.57-11.073-29.673-.18-1.111 46.883-.333 53.732 3.377 1.613-.336-10.003 28.79-9.365 30.188 1.68 3.684 6.468 42.44 7.467 48.378l2.267 12.088 6.226 18.396c4.227.161 1.004-47.062 1.106-49.143l.006-.062c.768-2.993-8.181-15.277-7.115-16.179l1.697-1.394c5.102-4.12 19.533-15.249 26.543-15.896 2.217-.206 3.542 26.219 4.447 29.257l.266.808c2.63 7.394 14.335 27.79 15.747 28.006 2.512 0 1.375-16.063 1.259-19.926l-.01-.475c0-12.35-20.675-42.753-22.31-46.806l-.064-.173c-.864-2.7-13.342-13.964-14.677-15.293 9.038-10.139 51.818-13.17 52.257-11.08zM370.321 51.157l2.263 7.088c1.864 5.966 4.229 13.882 4.398 16.175l.008.561c-.046 5.422-1.033 55.436.002 54.638 7.018.757 9.598 3.036 13.342-1.775 3.472-4.458 7.314-38 7.553-41.09l.009-.134c.275-4.933-3.846-23.418-5.338-27.042-1.452-3.533-7.56-7.092-22.237-8.42zm226.816-5.172c-3.18-.303-3.197 35.945-3.002 42.3l.04.846 1.185 28.961c2.876 1.436 5.602-.338 8.3-1.18 2.222-.696 9.547-6.535 9.488-8.126l-1.28-7.757c-1.62-9.656-3.093-17.836-3.89-21.621l-.344-1.556c-1.761-7.6-8.158-31.645-10.497-31.867z"/>
        <path id="designer" d="M17.184 341.25c.108-.411 5.067-4.117 5.81-3.382l2.785 2.69c2.418 2.299 4.164 3.835 4.666 3.928 3.07.569 9.929 1.13 12.963 1.766 3.555.743 7.312 4.027 8.941 6.175 1.633 2.15 8.85 20.256 9.834 31.916.856 10.147-3.379 29.12-3.902 32.973l-.047.415c-.279 3.749-5.349 10.228-11.994 12.796-7.06 2.728-21.33 9.587-26.972 11.473l-.248-7.185c-.084-2.96-.14-5.922-.06-6.883l.02-.223c.162-3.001.002-32.54.007-33.053l.004-2.342c-.052-12.005-1.162-28.13-1.686-35.106l-.27-3.456s-.143-11.008.15-12.502zm98.042 6.324c1.64.15-3.446 13.044-4.618 12.796-4.935-.994-23.978.197-28.682-.22-.084 2.72.32 6.076.45 7.281.248 2.333-1.343 10.76-1.192 11.765.279 1.817 21.363-6.63 22.421-6.618 1.18.147-.828 14.265-1.118 14.265-1.461.005-12.2 4.708-18.942 7.062-.433 0-.526 8.716.335 8.825 10.116-.884 14.758-6.605 17.043-6.62 1.256-.076 4.32 12.576 3.129 13.089-2.176.208-16.54 6.618-16.54 6.618-3.483.03-21.481 8.334-25.48 8.238l3.877-20.362c1.217-6.539 2.246-12.3 2.236-13.024l-.013-1.44c-.155-8.989-1.67-19.8-1.772-21.588l-.004-.21c.1-1.376-2.507-9.808-3.278-9.856l-.383-2.79c-.39-3.034-.856-7.262-.437-7.211l.565.05c2.526.173 10.872.339 20.554-.197 9.777-1.176 29.556-.3 31.85.147zm-75.299 20.048c-4.363-1.12-7.544-3.115-7.427-2.597.291 1.284.797 17.972.95 20.298l.013.171c.225 2.516-.496 17.226-.275 20.562l.026.303c.081.727-.565 11.083-.565 11.083 2.184.358 6.098-4.173 8.548-6.33 1.8-1.586 7.203-11.248 7.203-19.857 0-9.042-3.765-22.428-8.473-23.633zm101.226-49.758c14.439.273 15.291 9.74 15.648 11.914.33 2.782 2.499 11.637 2.531 14.415.014 1.123-.744 8.545-1.044 9.12-.268.515-11.716.51-12.514 0-1.191-3.092 4.655-5.48 4.766-7.062.144-1.994-5.213-11.914-10.28-12.133-6.256-.37-9.087 7.28-8.941 10.957-.057 4.679 5.95 8.903 7.6 11.032 3.947 3.968 15.444-.221 21.009 6.91 1.294 1.122 1.565 9.782 0 21.474-1.787 11.473-16.128 19.12-27.862 22.65-17.557 3.465-23.476 1.118-23.544-1.472l.027-13.11c.06-8.447.274-18.18 1.015-20.129.896-2.204 10.47-2.682 13.263-3.53.26-.216 1.476.85 3.278 2.501 1.78 1.63 3.016 4.28 2.997 4.51-.985 1.668-7.39 2.37-8.213 3.581-1.402 2.07-.3 10.455-.295 12.868 18.475 8.163 23.42-17.632 21.604-19.048-6.89-5.949-15.036-9.085-19.072-11.361l-2.25-1.307c-.985-.585-1.633-1.068-2.52-2.188-1.332-1.68 2.866-9.218 3.131-11.174l.113-.685c.79-4.423 5.027-24.534 6.295-25.056 3.57-1.438 8.142-4.214 13.258-3.677zm56.77-22.356c-.178 2.022-3.55 12.232-3.873 12.945-.46 1.02-9.536 3.97-9.536 3.97l2.385 37.65-.018.907c-.026 4.504.724 12.557 1.209 12.624 1.418.206 6.67-4.582 7.449-4.262l.162 3.108c.261 4.233.984 11.509 3.34 14.797.196.27-1.217 2.487-2.682 2.912l-1.125.34c-11.126 3.47-34.327 13.742-34.858 13.624-.235-.049 2.383-5.216 4.172-9.633 1.042-2.573 1.245-7.476 1.305-7.794.08-.438 4.48-2.084 5.698-2.207 1.003-.1.499-2.617.45-3.153l-.036-2.886c-.03-4.314-.025-11.531.019-13.762l.013-.494c.055-1.24-1.156-13.499-1.62-17.911l-.166-1.506c-.336-2.55.046-11.869 0-14.119l-3.83 2.085c-2.34 1.256-4.93 2.604-5.165 2.551-2.182-5.352-7.38-10.923-7.38-10.923l2.04-1.787c5.013-4.29 18.03-14.81 25.062-14.722 6.258.15 17.321-5 16.986-2.354zm30.398-16.989c1.69.695 3.1 17.616 3.13 18.164l-.896 15.785-3.352-.216c-2.457-.65-2.98-11.41-3.575-12.542-.964-1.836-5.958 1.395-8.27 2.594-1.788.939-.698 6.705-.993 8.687l-.052.256c-.571 2.087-.893 22.768-1.19 24.12-.645 2.957-.415 8.002.597 10.588l.356.89c1.427 3.5 2.938 6.175 5.007 4.994l1.095-.639c2.172-1.31 4.755-3.217 4.792-6.051l.025-.801c.175-3.674 1.152-9.79.644-9.788-.772 0-5.008 2.351-7.152 2.557l.001-.514c.073-2.358.916-8.883 1.34-9 .97-.265 11.918-6.128 15.198-6.502.7.237 1.57 8.47 1.372 10.409l-.03.202c-.059.291-.516 2.641-.644 3.187l-.026.102c-.747 2.292 1.042 24.314-.523 30.371-5.611.286-6.91-5.675-9.238-3.826-2.412 1.924-8.045 15.887-22.351 18.828-1.192.105-2.928-11.16-2.978-15.025l.023-3.605c.022-11.92-.297-43.701-.068-51.25l.103-2.58c.163-5.837.43-19.391 11.788-20.962l.855-.495c4.562-2.71 13.134-8.707 15.012-7.938zm54.536-20.139c-.469.714-5.758 16.328-6.037 18.936l.024.385c.163 5.487-2.88 51.444-2.928 56.86v.217c.038 3.45.303 7.925.671 10.277.065.414-15.229 10.174-15.532 9.415-.203-1.197 1.018-8.756.557-9.982-1.134-3.022-.628-6.45-1.117-9.603l-1.1-6.316c-1.646-9.175-4.51-24.587-4.823-25.172l1.158 24.234-.02 1.192c-.032 5.05.515 13.247.24 15.368l-.035.639c-.076 2.402.086 8.875.332 10.832.038.3-14.416 6.266-14.416 5.517 0-1.28 1.836-11.086 2.62-15.012l.322-1.535c1.215-4.838-4.475-56.182-4.47-60.302 0-.561-2.075-8.836-1.488-10.91.122-.422 17.346-9.386 17.432-8.98.245 1.11.525 11.489.854 13.383l.285 1.19c.747 3.302 2.315 11.732 2.728 13.65l.048.212c1.118 4.804 5.868 19.05 6.142 19.718 1.215-.416.074-15.995.075-19.34l.003-.245c.079-3.414-.969-15.36-1.194-17.648l-.102-.328c-.595-2.147-2.898-12.875-2.878-14.055.14-.296 11.29-4.809 17.73-5.915.747-.577 5.084 3.067 4.919 3.318zm38.89 18.157c.037-.53 10.976 3.088 15.196 3.088 6.036 0 20.854-4.374 24.586-.881l1.969 1.763c2.516 2.282 5.183 5.22 5.183 10.883 0 11.179-8.454 18.863-12.666 22.652-2.747 2.474-14.254 2.619-16.276 2.867-1.232.15 10.338.9 10.614 7.866.232 5.793-3.127 12.061-1.933 14.565l.45.99c.559 1.215 1.146 2.185 2.23 1.067 1.21-1.245 8.177-13.846 8.045-15.884-.114-1.737 10.389 2.808 9.834 3.97l-1.666 4.024c-2.713 6.364-8.209 18.129-12.673 19.43-.833.714-8.19 2.367-13.748-1.873-2.756-3.452-5.094-10.35-4.989-14.375l.064-1.29c.23-3.83.746-11.702-3.493-12.09l-2.145 10.256c-.827 4.062-1.632 8.197-1.878 10.037-.09.657-31.457 1.889-31.254 1.325.136-.372 4.32-5.443 5.365-5.737l.75-.189c4.246-.985 15.571-2.545 16.198-4.441.856-2.587 2.058-13.827 2.7-20.442l.43-4.712c.048-.593.673-14.807.893-16.544l-.013-.209c-.17-1.789-1.909-14.161-1.774-16.116zm-35.463-15.15c4.323 1.349 13.93 6.527 17.435 7.796 11.38 3.249 12.4 7.075 14.303 7.206.685.118-3.275 10.23-3.765 13.384-1.386-.147-2.214-4.032-6.07-5.59-4.395-1.78-2.097-1.421-6.257-2.204-3.278-.15-2.442 11.66-2.198 11.764.971.249 14.885 1.72 15.754 1.988.243.075-3.316 10.145-3.573 10.145l-.629-.03c-1.169-.082-3.492-.322-4.958-.63l-1.06-.243c-1.703-.42-3.174-.878-5.87-.86-.387.002-1.657 16.782-.893 16.988 15.123.708 14.224-10.418 16.241-10.442 1.113-.144 2.333 13.127 1.787 13.237-1.868.373-7.691 8.89-16.546 12.348l-.814.3c-5.77 2.004-14.268 6.648-17.806 6.472l-.023-1.533c-.008-1.978.055-5.442.533-7.775l.089-.4c.308-1.38 1.073-8.874 1.36-15.746l.65-15.434c-.002-.273 2.386-23.166 2.201-25.13l-.053-1.072c-.166-4.339-.246-16.275.162-14.54zm68.094 31.769c.257-6.14-17.808-2.82-20.327-2.133l-.235.073-.224 12.576c.052.67 8.5 1.211 12.222-.214l.85-.362c2.707-1.096 7.39-2.182 7.714-9.94z"/>
        <path id="engineer" d="M502.855 236.246c.62.683-.908 12.964-1.477 17.527-1.627-.21-8.931-4.96-9.408-5.483-.346-.389-7.54-.427-14.788 3.923-.633-.094.372 25.922.665 26.07 1.142.364 13.279-8.468 18.808-9.358.217-.13 1.777 13.363 1.477 13.368-4.723 2.226-19.304 12.084-19.77 12.181-.446.094-.156 17.081.74 17.378 2.505 0 16.369-16.156 18.735-16.19 1.3-.211 1.968 19.747 1.33 19.903-2.257.556-36.736 23.882-43.675 24.435.665-4.676-2.96-11.73-3.099-12.85.638-1.876 1.79-3.012 1.772-3.044l1.854-.477c2.157-.576 4.12-1.172 4.12-1.228.738-5.055 5.683-21.912 4.429-27.185l-3.413-14.325c-1.258-5.373-2.291-10.03-2.344-11.167v-.133c.088-3.135-2.453-10.502-2.435-11.363.008-.464-6.615 2.194-7.969 2.45-.23-4.074-7.148-11.134-6.342-11.66l7.55-5.063c6.68-4.437 15.822-10.288 20.482-12.015 4.209-1.563 31.431 4.193 32.758 4.306zm40.28-15.224c0 1.78 4.536 12.254 4.426 13.7l.033.503c.254 5.691-.74 40.423-.77 47.453l.002 2.225c-.018 4.128-.179 9.57.146 12.094.064.502-16.812 7.391-17.115 6.463-.204-1.452 2.042-6.646-.442-14.63l-.48-1.48c-2.65-8.043-8.874-25.26-9.258-26.148l.994 32.01 1.003 4.799c.563 2.771 1.18 5.973 1.32 7.344.038.358-16.154 8.038-16.154 7.129l-.027-1.336c-.112-4.249-.53-16-.27-17.27 1.163-5.673 1.588-41.051 1.622-48.062l.002-.66c-.075-.223 1.08-10.027 1.034-11.584-.016-.531 13.043-14.9 13.13-14.41.248 1.406.538 19.446.884 20.946l.272.95c1.834 5.953 11.576 33.942 11.83 34.7 1.196-.505.29-13.175.29-16.976l.002-.33c.08-4.153-4.498-21.95-4.72-24.731-.343-1.018-2.825-19.208-2.584-19.831 3.838-.297 14.72 6.684 14.83 7.132zm63.74-5.72l4.426 9.283.426.703c.635 1.074 1.7 2.982 1.123 2.789l-3.061.704 1.552 36.543-.042 1.627c-.141 6.665-.278 23.788-.29 24.55.005.427 4.085-.223 4.093 0l.002 1.062c-.027 2.61-.223 8.576-.705 8.594l-1.188.198c-7.328 1.32-17.986 4.856-18.583 4.702-.394-.1.075-10.035.223-10.915.078-.5.493.062 1.697-.076 1.058-.118 2.702-.61 2.731-.89l-.063-6.567a1707.38 1707.38 0 01-.03-11.416l.029-3.554c.061-1.66-1.442-37.735-1.488-40.29l-5.31 1.224c-.52.262-2.436-10.027-1.55-10.472.735-.67 8.412-4.013 8.412-4.013l1.861-1.052c2.013-1.116 5.03-2.723 5.735-2.734zm-34.746 10.621l3.952.436c3.334.393 4.919.719 5.71 1.569l.866.451c1.443.776 4.128 2.293 4.153 2.668l-2.067 17.379-3.836-1.336c-.592-1.487-.297-3.443-.884-4.455l-.531-.936c-1.123-1.868-3.407-4.423-10.242-1.296-3.459 1.31-4.25 22.054-4.21 24.168l.004.118c.271 4.094-.337 14.175.665 16.49l.39.869c1.468 3.142 3.333 5.753 5.365 4.701l.775-.406c2.115-1.14 4.5-2.737 4.538-5.387.04-3.13 1.645-9.847 1.104-11.364-.212-.588-5.181-3.37-7.304-3.34-.073-1.514-1.895-10.211-1.107-10.473.887-.297 17.908 4.277 21.47 4.234.442-1.56 1.973 4.943 1.55 6.239l-1.07 3.856-.1.469c-.57 3.12-2.45 19.467-4.363 34.665-4.356-.926-8.749-7.3-9.296-6.908l-.527.452c-1.79 1.485-2.928 1.69-11.645 1.777l-.87-.36c-3.963-1.706-10.16-5.265-10.613-6.82l-.026-.17c-1.55-7.802.986-42.405 1.326-47.238.175-2.415-3.096-10.472-2.434-11.808.413-.634 18.528-8.441 19.257-8.244zm83.363-30.675c-.461.502 4.701 17.99 4.425 19.83l.047.344c.538 4.415 3.566 41.062 3.712 45.147l.005.184c.037 2.434-.807 15.498-.443 17.157.065.292-18.73 13.908-19.033 13.368-.201-.841.013-6.708-.443-7.574-1.002-1.908-2.543-8.624-3.308-11.598l-.57-2.11c-2.517-9.638-3.894-23.895-6.525-23.501l1.557 22.204c.074 1.56.713 15.257.435 16.789-.145 1.09.836 5.588 1.107 7.129.035.208-14.163 6.317-14.163 5.79l.023-.739c.108-2.468.556-9.63.824-10.925l.037-.144c1.204-3.413-.67-51.905-.665-54.808-.442-.894-2.61-7.119-2.653-8.023-.016-.31 15.847-10.759 15.932-10.47.24.774 1.113 7.737 1.494 9.176l.21.641c1.546 4.907 12.869 44.32 13.125 44.77 1.206-.295-1.76-22.71-1.773-25.472l.003-.152c.124-1.976-.825-14.3-1.474-20.096l-.11-.26c-.726-1.93-4.174-13.175-3.948-13.51l.576-.645c2.485-2.723 12.097-13.042 11.596-12.502zm44.19-24.954c.525.338 7.267 16.76 6.787 19.014-1.075-.235-12.28 3.775-12.322 3.786-2.413.116-6.414 3.789-7.521 4.458-.092.022-1.333 19.936-1.108 19.977.965.178 18.512-7.893 18.887-8.02.18-.065 1.136 14.259.884 14.259-.35-.008-8.459 6.937-10.33 7.426-.367-.073-8.604 4.63-8.998 4.68-.373.045 2.12 14.781 2.876 14.93 5.31-1.117 14.455-15.43 16.452-15.452 1.102-.1 1.853 19.289 1.772 19.31-1.94.106-18.002 13.296-18.002 13.296l-.846.26c-3.883 1.242-13.407 4.76-16.638 4.64l-.424-1.821c-.747-3.324-2.167-10.197-1.57-11.992 1.774-.89 2.862-5.316 2.953-6.163l.07-.94c.129-2.287.196-6.88.389-11.306l-.04-.928c-.303-5.78-2.203-36.348-2.19-36.735.008-.23-3.394-2.304-3.836-3.416-.196-2.016-4.444-10.883-3.763-11.142l.754-.304c7.722-3.257 33.945-17.908 35.764-17.817zm39.098-17.677c.526.312 8.894 14.42 8.412 16.489-1.072-.213-7.262.213-7.304.221-2.413.108-12.837 5.996-13.941 6.612-.092.018 2.133 17.192 2.358 17.23.965.164 15.349-10.25 17.337-9.804.18-.057 1.142 13.368.888 13.37-.351-.01-15.987 11.76-16.38 11.81-.37.04.35 13.454 1.11 13.589 9.292-4.01 11.884-14.022 13.57-18.269.445-1.114 3.01-2.37 3.839-2.377 1.101-.092 2.811 25.751 2.728 25.77-1.938.097-15.05 11.587-15.05 11.587-3.096.818-16.86 9.03-20.361 8.91l-.7-3.883c-.813-4.717-1.98-12.229-1.442-13.713 1.775-.818 3.82-2.79 3.911-3.57.177-1.484-1-7.607-.905-12.294l.02-.629c.03-.615-2.227-30.134-2.213-30.523.01-.21-3.024-6.624-3.466-7.647-.196-1.851-3.632-7.936-2.951-8.174l.842-.315c7.431-2.94 27.89-14.472 29.698-14.39zm40.856-23.49c2.267 1.187 12.112 17.494 13.09 21.129 1.805 6.694 3.148 30.924 1.405 33.474-1.429 2.09-11.265 5.268-12.802 6.293l-.122.092.45-.048c2.24-.214 10.655-.718 11.694 2.144 1.25 4.688-1.809 25.07 4.302 26.508 2.241.526 5.98.097 8.262 1.187.627.297-2.4 11.147-2.59 11.436-.874.453-11.665.775-17.476-1.93-2.806-2.14-5.286-21.338-5.316-24.716l.004-.551c-.071-2-1.62-6.156-10.88-7.173l.7 2.765c.661 2.688 1.542 6.526 1.481 7.65-.037.694 3.104 11.798 2.496 11.904l-.235.062c-2.15.63-17.118 5.637-16.912 5.294.348-.588 2.943-9.768 3.117-10.416.622-2.32-.648-17.794-.469-19.192l-.012-.182c-.208-2.164-2.955-22.367-2.792-23.92.121-1.147-3.275-9.226-4.208-10.713.046-.23-5.865-10.465-5.924-10.864-.059-.338 28.965-22.212 32.737-20.234zm-15.183 23.49l.515.899c1.039 1.885 3.349 6.458 4.064 11.02l2.064 12.591c.053.44 8.258-1.778 11.064-4.455 2.71-.764 1.443-11.061 1.837-14.086.238-1.81-6.412-7.534-8.034-10.424-4.677-1.787-9.325 3.265-11.51 4.455z"/>
      </g>
      <g id="Group">
        <mask id="mask-2" fill="#fff">
          <use xlink:href="#path-1"/>
        </mask>
        <g id="tyler-gaw-logo" fill="#292929" mask="url(#mask-2)">
          <path id="ampersand" d="M382.508 304.388c-14.706-8.315-8.427-24.906-2.32-32.695 1.476-1.329 11.848.214 15.333-1.92 8.692-5.317 18.287-14.773 20.055-14.773 9.246 0 17.837 13.831 15.482 24.38-.388 1.729-12.78 14.878-20.644 17.729-2.347.848-4.436-15.71-3.244-15.885 6.76-.974 14.191-2.746 13.27-7.98-.255-1.436-14.532-5.795-24.327 1.554-2.125 1.592-23.447 9.306-1.136 26.713 1.594 1.21 7.053-.392 9.541-.118.367.199-.195 5.921-.15 5.91-3.98 2.365-8.255 4.432-15.922 11.23-6.375 4.685-5.753 17.137-2.58 21.345 1.203 1.592 10.509 6.434 19.83 4.51 13.847-3.178 23.152-9.956 24.625-13 .983-2.037 1.158-10.03-.884-10.787-.163-.33-10.671-.787-15.485 1.18-1.197.492-8.95 3.555-6.865 6.419 1.304 1.79 7.246-1.77 8.489-1.836 1.125-.046.71 7.115 0 7.682-1.78 1.497-13.512 4.95-15.336 3.398-5.124-4.357-.147-20.094 12.046-23.132 1.522-.022 15.204-.907 16.707-.95 9.731-.741 17.135-4.368 19.02-9.31 1.884-4.927.555-9.082-1.178-9.75-5.9-4.14-8.995-.446-11.577 1.994-3.758 2.732-.833 4.845 4.056 3.175.884.446 2.986 3.583 2.654 4.139.327 1.237-10.618 4.432-14.304 3.543-1.454-.73-3.83-18.024 7.522-21.127 11.352-3.103 14.596-3.693 20.641 1.922 4.061 5.991-2.949 27.923-12.975 30.73-.037 2.154 7.045 9.398 5.234 21.498-.386 2.604-9.729 17.286-42.979 24.308-19.17 2.953-33.56-7.32-37.01-16.698-.922-2.507-.579-2.072-1.179-4.284-.442-1.624 6.48-13.764 6.34-16.4 0-2.365-8.3-6.324-8.258-7.094 4.069-13.8 17.508-15.62 17.508-15.62"/>
          <path id="name" d="M185.012 17.343c2.925 1.165 1.816 36.212-1.059 51.932l-.352 1.808c-3.27 16.014-15.292 58.943-16.321 61.958l-.056.15c-.86 1.825-27.42 129.68-28.713 139.04l-.047.423c-.16 2.983-23.396 61.671-23.126 65.016.118 1.455-78.705-2.295-78.866-3.546-2.966 0-8.565-13.138-6.523-15.368 1.268-2.231 54.73-10.687 55.74-14.187l.228-.59c1.788-4.41 13.292-31.246 14.005-36.914l.05-.651c1.196-12.248 20.502-102.082 19.22-106.036l-.217-.78c-1.263-4.827-6.75-28.34-11.656-49.518l-9.752-42.498c-3.14-13.865-10.103-44.42-10.397-44.918-.514-.88 42.002 1.729 42.102 1.772l.317.92c.984 2.958 3.875 12.149 3.836 15.629 2.624 9.837.502 26.787 1.139 30.499l.048.237c1.064 4.268-.595 31.917 6.52 51.422.817.026 4.46-37.653 5.27-42.222l.068-.336c1.649-6.23-2.332-53.027-2.372-56.74.084-.738 11.787-3.275 18.11-4.927l1.458-.393c4.43-1.24 21.13-1.361 21.346-1.182zM84.208 25.027c1.365.035 12.507 73.721 11.265 73.56l-.746-.16c-6.468-1.478-21.87-6.884-21.491-2.497-.1 3.192-3.52 16.673-3.781 19.158-.383 3.678 12.11 118.405 12.081 120.33-.021 1.337 14.712 10.455 14.845 14.476l-.02.299s-8.604 41.85-25.794 46.99l-2.118.617c-17.812 5.074-50.475 11.618-50.36 10.316l10.874-28.17c1.795-2.817 6.08-129.163 6.788-137.937l.098-.907c.377-4.097.34-20.603-5.308-25.667-2.235.56-21.017 27.777-22.237 28.37-7.115 1.33-8.699-99.517-8.228-99.863l.321-.106c3.583-1.255 23.452-9.84 42.89-11.767l2.678-.252c15.514-1.576 37.08-6.818 38.243-6.79zm161.142-7.979l-.041.629c-.457 5.509-4.273 30.272-3.987 34.551l.026.26c.442 2.413-5.907 51.602-6.216 57.246l-.01.379c.08 4.684-9.261 44.636-10.076 49.403l-.051.35c-.16 1.574-5.626 16.594-10.548 29.89l-7.79 20.863c-1.78 4.432-2.792 20.49.889 21.571 4.4 1.297 19.568-50.705 23.126-48.49l25.795-4.432-.035.287c-1.015 6.212-23.49 86.236-24.871 85.734-10.472 0-30.79 22.737-43.034 21.64l-.697-.09c-7.412-1.329-32.167 12.708-40.77 19.802-1.777.886-6.342-.531-6.223-.888 2.222-13.594 14.357-41.127 14.527-42.531l.506-1.495c4.247-12.824 13.108-45.93 16.097-59.975l.26-2.182c.905-7.14 3.771-27.817 4.757-35.416l.352-2.845c.693-4.602 12.007-65.672 11.533-69.812 3.558-3.868 11.79-31.305 11.562-38.69 2.224-3.103-9.655-34.183-9.784-34.43l3.423-.567c4.356-.688 12.07-1.794 18.37-2.093 13.786-3.1 32.91 1.331 32.91 1.331zm88.503-3.547c2.04-.58 36.416 4.578 39.87 4.866l.158.011c51.059 2.368 53.179 40.493 53.005 52.635l-.082 3.195s-7.104 74.776-11.564 90.874c-1.624 5.879-25.658 11.2-28.909 11.55 4.113 2.747 26.878 4.307 25.795 14.16l-.146 1.123c-1.141 8.025-7.014 40.13-5.191 46.754l.203.666c1.196 3.612 4.963 11.167 7.28 10.645l.227-.08c.805-.394-7.092 5.871-15.947 12.402l-2.434 1.782c-9.504 6.913-33.766 2.454-33.801 1.772-.136-2.455 9.455-12.628 9.511-17.31l-.023-.423c-.582-4.456 7.137-26.666 6.967-28.049l-.177-1.401c-.57-4.25-1.888-10.498-7.83-9.237l-3.679 15.881c-.768 3.386-1.418 6.33-1.656 7.613-.757 4.064-12.146 20.191-11.414 22.288.639 1.841-2.267 13.497-2.372 13.596-.399.363-20.605 2.658-27.28.588-16.174-10.95-33.243-12.337-33.502-12.705-1.187-1.683-1.481-9.162.296-9.755 10.086-2.905 29.34-2.148 29.65-2.365 2.412-1.697 16.655-40.868 17.746-45.891l.09-.522c.807-5.526 7.56-62.103 7.659-64.328l-1.903-26.871c-1.525-20.949-3.526-47.051-4.28-50.722l-.04-.184c-.13-.513-6.553-40.636-6.227-42.558zm-11.119 1.773c.867.005 9.529 42.77 7.563 43.443.444.886-24.594-6.705-25.795-6.206l-.025.053c-.385 1.145-4.383 20.717-1.768 49.188l.244 2.498c2.375 22.89 3.687 13.497 3.326 15.642-.223 1.326 28.723-1.504 29.945-1.775 2.042-.448-1.826 48.292-4.742 47.876-3.451-.492-20.062.3-25.953 1.567l-.304.068.017.252c.047 2.064-1.369 8.607-7.118 26.457.23.72 8.61.527 11.12 1.332.297-3.103 19.744-14.638 23.423-14.332.84.07-14.498 50.855-15.416 50.684-.9-.172-14.058 7.878-27.871 9.011-2.182-.623-47.367 16.557-47.44 16.552-1.95-1.86 12.305-23.768 12.305-23.768 1.042-1.573 7.56-48.318 7.56-48.318 2.299-9.123 3.805-55.13 3.568-59.25l-.01-.15c-.34-3.479 5.329-84.746 5.407-85.084.127-.515-22.097-21.58-21.268-23.67-.253.635 13.932-4.137 23.423-4.433l.986-.02c10.859-.11 46.312 2.372 48.823 2.383zM529.537 3.722l.505.2c3.6 1.552 22.621 11.107 22.621 14.432.2 2.445-8.4 32.615-9.485 36.201l-.871 1.481c-3.021 5.037-13.108 21.01-17.66 17.729-.555-.4-7.525-11.465-7.563-13.89l-2.704-1.951c-1.707-1.255-3.58-2.734-5.3-4.55-4.923-5.2-10.824 3.546-14.675 5.76-2.339 2.624-4.553 53.727-4.69 58.263l-.668 47.756c-.14 8.257-.283 14.584-.406 15.71l-.016.107.078-.165c.388-.66 2.38-2.603 12.077-1.834 10.845.861 9.816-8.945 13.934-15.366 2.05-2.512 13.956-34.999 13.043-34.872-13.511.716-15.962 13.443-19.566 13.298-1.629-6.131-.619-34.234.132-34.7 1.086-1.241 13.655-4.629 22.103-6.084 4.562-.225 29.775-17.746 29.948-15.365l.008.344c0 5.595-3.75 60.192-4.158 62.897l-2.24 15.668c-2.797 19.097-7.432 48.821-9.325 49.052-6.226-2.362-18.68-15.07-18.68-15.07-1.26 2.601-9.34 27.04-24.014 29.257-5.93 1.772-17.322-5.304-32.614-4.139-5.06.416-24.615 16.981-32.913 21.279 0 .59-3.544-15.285-3.555-15.368l.675-2.321c9.278-32.549 11.39-67.017 11.476-71.857l.003-.295c-.003-1.178 6.881-25.184 8.007-48.761 2.666-6.206-4.834-44.223-5.338-49.648l-4.458-11.838c-4.519-12.106-9.745-27.05-8.884-32.196.34-1.968 29.003-8.07 33.503-8.571l3.605.544c27.543 4.077 34.156 3.111 35.83 5.071l.089.145c1.16 1.797 13.292 19.219 15.031 19.36.374.03 6.525-25.89 7.115-25.713zm24.313 3.844c0-.851 17.176-4.164 30.12-2.465l2.115.29c12.275 1.534 33.535.944 35.959-.335.888 0-5.031 23.163-5.336 24.38-1.335 5.32 7.312 21.794 9.785 27.925l.05.187c.91 4.114 9.648 67.417 10.849 74.347l.07.384c.662 3.361.509 19.902 4.594 29.7l.587 1.381c2.049 4.76 6.973 15.692 9.938 20.046 1.115 1.635-38.862 37.769-39.433 36.94-.172-1.214-3.706-9.9-3.113-11.38l3.717-6.281c3.237-5.541 7.37-13.038 7.403-15.733.164-14.037-9.787-36.054-9.787-36.054-3.76.489-6.003 4.351-7.708 6.206-1.252 1.364-7.045 27.821-6.967 31.915.434 4.775 5.9 19.523 4.002 22.165-1.09 1.522-49.969 17.215-49.7 15.736.122-.658-2.224-7.536-1.666-8.089 6.784-9.532 15.337-24.145 15.787-26.263.579-2.72 1.946-21.72 1.801-26.461l-.023-.678c-.033-6.383 3.743-80.79 2.993-85.624l-.13-.685c-.92-5.55-5.796-45.771-6.958-47.843l-.053-.07c-.49-.389-8.93-22.836-8.896-23.641zM747.683.623l1.855 6.667c2.037 7.442 4.995 18.659 4.77 20.255l-.03.118c-1.187 2.816 11.748 49.6 13.287 60.747l.276 2.305c.923 8.164.967 12.47.967 14.671-.288 3.066 8.597 5.911 9.192 9.457-.065.384-6.822 9.162-17.198 17.435-13.366 10.66-33.59 16.635-34.096 16.254-1.747-1.31-3.961-12.345-4.745-14.184-1.557-3.648-7.024-9.753-8.007-9.753-1.233 0-2.353 9.957-2.962 21.87-.167 3.181 3.261 3.25 2.669 6.206-.463 1.498-50.537 28.299-50.998 27.778-1.653-1.85-.118-24-.592-26.006-.514-2.156-9.063-20.444-9.784-23.937l-.15-.804c-1.086-6.125-5.775-36.88-6.907-40.397l-.061-.173c-1.156-2.856-4.52-48.047-5.758-52.55l-.134-.356c-1.216-3.055-10.103-23.57-11.073-29.673-.18-1.111 46.883-.333 53.732 3.377 1.613-.336-10.003 28.79-9.365 30.188 1.68 3.684 6.468 42.44 7.467 48.378l2.267 12.088 6.226 18.396c4.227.161 1.004-47.062 1.106-49.143l.006-.062c.768-2.993-8.181-15.277-7.115-16.179l1.697-1.394c5.102-4.12 19.533-15.249 26.543-15.896 2.217-.206 3.542 26.219 4.447 29.257l.266.808c2.63 7.394 14.335 27.79 15.747 28.006 2.512 0 1.375-16.063 1.259-19.926l-.01-.475c0-12.35-20.675-42.753-22.31-46.806l-.064-.173c-.864-2.7-13.342-13.964-14.677-15.293 9.038-10.139 51.818-13.17 52.257-11.08zM370.321 51.157l2.263 7.088c1.864 5.966 4.229 13.882 4.398 16.175l.008.561c-.046 5.422-1.033 55.436.002 54.638 7.018.757 9.598 3.036 13.342-1.775 3.472-4.458 7.314-38 7.553-41.09l.009-.134c.275-4.933-3.846-23.418-5.338-27.042-1.452-3.533-7.56-7.092-22.237-8.42zm226.816-5.172c-3.18-.303-3.197 35.945-3.002 42.3l.04.846 1.185 28.961c2.876 1.436 5.602-.338 8.3-1.18 2.222-.696 9.547-6.535 9.488-8.126l-1.28-7.757c-1.62-9.656-3.093-17.836-3.89-21.621l-.344-1.556c-1.761-7.6-8.158-31.645-10.497-31.867z"/>
          <path id="designer" d="M17.184 341.25c.108-.411 5.067-4.117 5.81-3.382l2.785 2.69c2.418 2.299 4.164 3.835 4.666 3.928 3.07.569 9.929 1.13 12.963 1.766 3.555.743 7.312 4.027 8.941 6.175 1.633 2.15 8.85 20.256 9.834 31.916.856 10.147-3.379 29.12-3.902 32.973l-.047.415c-.279 3.749-5.349 10.228-11.994 12.796-7.06 2.728-21.33 9.587-26.972 11.473l-.248-7.185c-.084-2.96-.14-5.922-.06-6.883l.02-.223c.162-3.001.002-32.54.007-33.053l.004-2.342c-.052-12.005-1.162-28.13-1.686-35.106l-.27-3.456s-.143-11.008.15-12.502zm98.042 6.324c1.64.15-3.446 13.044-4.618 12.796-4.935-.994-23.978.197-28.682-.22-.084 2.72.32 6.076.45 7.281.248 2.333-1.343 10.76-1.192 11.765.279 1.817 21.363-6.63 22.421-6.618 1.18.147-.828 14.265-1.118 14.265-1.461.005-12.2 4.708-18.942 7.062-.433 0-.526 8.716.335 8.825 10.116-.884 14.758-6.605 17.043-6.62 1.256-.076 4.32 12.576 3.129 13.089-2.176.208-16.54 6.618-16.54 6.618-3.483.03-21.481 8.334-25.48 8.238l3.877-20.362c1.217-6.539 2.246-12.3 2.236-13.024l-.013-1.44c-.155-8.989-1.67-19.8-1.772-21.588l-.004-.21c.1-1.376-2.507-9.808-3.278-9.856l-.383-2.79c-.39-3.034-.856-7.262-.437-7.211l.565.05c2.526.173 10.872.339 20.554-.197 9.777-1.176 29.556-.3 31.85.147zm-75.299 20.048c-4.363-1.12-7.544-3.115-7.427-2.597.291 1.284.797 17.972.95 20.298l.013.171c.225 2.516-.496 17.226-.275 20.562l.026.303c.081.727-.565 11.083-.565 11.083 2.184.358 6.098-4.173 8.548-6.33 1.8-1.586 7.203-11.248 7.203-19.857 0-9.042-3.765-22.428-8.473-23.633zm101.226-49.758c14.439.273 15.291 9.74 15.648 11.914.33 2.782 2.499 11.637 2.531 14.415.014 1.123-.744 8.545-1.044 9.12-.268.515-11.716.51-12.514 0-1.191-3.092 4.655-5.48 4.766-7.062.144-1.994-5.213-11.914-10.28-12.133-6.256-.37-9.087 7.28-8.941 10.957-.057 4.679 5.95 8.903 7.6 11.032 3.947 3.968 15.444-.221 21.009 6.91 1.294 1.122 1.565 9.782 0 21.474-1.787 11.473-16.128 19.12-27.862 22.65-17.557 3.465-23.476 1.118-23.544-1.472l.027-13.11c.06-8.447.274-18.18 1.015-20.129.896-2.204 10.47-2.682 13.263-3.53.26-.216 1.476.85 3.278 2.501 1.78 1.63 3.016 4.28 2.997 4.51-.985 1.668-7.39 2.37-8.213 3.581-1.402 2.07-.3 10.455-.295 12.868 18.475 8.163 23.42-17.632 21.604-19.048-6.89-5.949-15.036-9.085-19.072-11.361l-2.25-1.307c-.985-.585-1.633-1.068-2.52-2.188-1.332-1.68 2.866-9.218 3.131-11.174l.113-.685c.79-4.423 5.027-24.534 6.295-25.056 3.57-1.438 8.142-4.214 13.258-3.677zm56.77-22.356c-.178 2.022-3.55 12.232-3.873 12.945-.46 1.02-9.536 3.97-9.536 3.97l2.385 37.65-.018.907c-.026 4.504.724 12.557 1.209 12.624 1.418.206 6.67-4.582 7.449-4.262l.162 3.108c.261 4.233.984 11.509 3.34 14.797.196.27-1.217 2.487-2.682 2.912l-1.125.34c-11.126 3.47-34.327 13.742-34.858 13.624-.235-.049 2.383-5.216 4.172-9.633 1.042-2.573 1.245-7.476 1.305-7.794.08-.438 4.48-2.084 5.698-2.207 1.003-.1.499-2.617.45-3.153l-.036-2.886c-.03-4.314-.025-11.531.019-13.762l.013-.494c.055-1.24-1.156-13.499-1.62-17.911l-.166-1.506c-.336-2.55.046-11.869 0-14.119l-3.83 2.085c-2.34 1.256-4.93 2.604-5.165 2.551-2.182-5.352-7.38-10.923-7.38-10.923l2.04-1.787c5.013-4.29 18.03-14.81 25.062-14.722 6.258.15 17.321-5 16.986-2.354zm30.398-16.989c1.69.695 3.1 17.616 3.13 18.164l-.896 15.785-3.352-.216c-2.457-.65-2.98-11.41-3.575-12.542-.964-1.836-5.958 1.395-8.27 2.594-1.788.939-.698 6.705-.993 8.687l-.052.256c-.571 2.087-.893 22.768-1.19 24.12-.645 2.957-.415 8.002.597 10.588l.356.89c1.427 3.5 2.938 6.175 5.007 4.994l1.095-.639c2.172-1.31 4.755-3.217 4.792-6.051l.025-.801c.175-3.674 1.152-9.79.644-9.788-.772 0-5.008 2.351-7.152 2.557l.001-.514c.073-2.358.916-8.883 1.34-9 .97-.265 11.918-6.128 15.198-6.502.7.237 1.57 8.47 1.372 10.409l-.03.202c-.059.291-.516 2.641-.644 3.187l-.026.102c-.747 2.292 1.042 24.314-.523 30.371-5.611.286-6.91-5.675-9.238-3.826-2.412 1.924-8.045 15.887-22.351 18.828-1.192.105-2.928-11.16-2.978-15.025l.023-3.605c.022-11.92-.297-43.701-.068-51.25l.103-2.58c.163-5.837.43-19.391 11.788-20.962l.855-.495c4.562-2.71 13.134-8.707 15.012-7.938zm54.536-20.139c-.469.714-5.758 16.328-6.037 18.936l.024.385c.163 5.487-2.88 51.444-2.928 56.86v.217c.038 3.45.303 7.925.671 10.277.065.414-15.229 10.174-15.532 9.415-.203-1.197 1.018-8.756.557-9.982-1.134-3.022-.628-6.45-1.117-9.603l-1.1-6.316c-1.646-9.175-4.51-24.587-4.823-25.172l1.158 24.234-.02 1.192c-.032 5.05.515 13.247.24 15.368l-.035.639c-.076 2.402.086 8.875.332 10.832.038.3-14.416 6.266-14.416 5.517 0-1.28 1.836-11.086 2.62-15.012l.322-1.535c1.215-4.838-4.475-56.182-4.47-60.302 0-.561-2.075-8.836-1.488-10.91.122-.422 17.346-9.386 17.432-8.98.245 1.11.525 11.489.854 13.383l.285 1.19c.747 3.302 2.315 11.732 2.728 13.65l.048.212c1.118 4.804 5.868 19.05 6.142 19.718 1.215-.416.074-15.995.075-19.34l.003-.245c.079-3.414-.969-15.36-1.194-17.648l-.102-.328c-.595-2.147-2.898-12.875-2.878-14.055.14-.296 11.29-4.809 17.73-5.915.747-.577 5.084 3.067 4.919 3.318zm38.89 18.157c.037-.53 10.976 3.088 15.196 3.088 6.036 0 20.854-4.374 24.586-.881l1.969 1.763c2.516 2.282 5.183 5.22 5.183 10.883 0 11.179-8.454 18.863-12.666 22.652-2.747 2.474-14.254 2.619-16.276 2.867-1.232.15 10.338.9 10.614 7.866.232 5.793-3.127 12.061-1.933 14.565l.45.99c.559 1.215 1.146 2.185 2.23 1.067 1.21-1.245 8.177-13.846 8.045-15.884-.114-1.737 10.389 2.808 9.834 3.97l-1.666 4.024c-2.713 6.364-8.209 18.129-12.673 19.43-.833.714-8.19 2.367-13.748-1.873-2.756-3.452-5.094-10.35-4.989-14.375l.064-1.29c.23-3.83.746-11.702-3.493-12.09l-2.145 10.256c-.827 4.062-1.632 8.197-1.878 10.037-.09.657-31.457 1.889-31.254 1.325.136-.372 4.32-5.443 5.365-5.737l.75-.189c4.246-.985 15.571-2.545 16.198-4.441.856-2.587 2.058-13.827 2.7-20.442l.43-4.712c.048-.593.673-14.807.893-16.544l-.013-.209c-.17-1.789-1.909-14.161-1.774-16.116zm-35.463-15.15c4.323 1.349 13.93 6.527 17.435 7.796 11.38 3.249 12.4 7.075 14.303 7.206.685.118-3.275 10.23-3.765 13.384-1.386-.147-2.214-4.032-6.07-5.59-4.395-1.78-2.097-1.421-6.257-2.204-3.278-.15-2.442 11.66-2.198 11.764.971.249 14.885 1.72 15.754 1.988.243.075-3.316 10.145-3.573 10.145l-.629-.03c-1.169-.082-3.492-.322-4.958-.63l-1.06-.243c-1.703-.42-3.174-.878-5.87-.86-.387.002-1.657 16.782-.893 16.988 15.123.708 14.224-10.418 16.241-10.442 1.113-.144 2.333 13.127 1.787 13.237-1.868.373-7.691 8.89-16.546 12.348l-.814.3c-5.77 2.004-14.268 6.648-17.806 6.472l-.023-1.533c-.008-1.978.055-5.442.533-7.775l.089-.4c.308-1.38 1.073-8.874 1.36-15.746l.65-15.434c-.002-.273 2.386-23.166 2.201-25.13l-.053-1.072c-.166-4.339-.246-16.275.162-14.54zm68.094 31.769c.257-6.14-17.808-2.82-20.327-2.133l-.235.073-.224 12.576c.052.67 8.5 1.211 12.222-.214l.85-.362c2.707-1.096 7.39-2.182 7.714-9.94z"/>
          <path id="engineer" d="M502.855 236.246c.62.683-.908 12.964-1.477 17.527-1.627-.21-8.931-4.96-9.408-5.483-.346-.389-7.54-.427-14.788 3.923-.633-.094.372 25.922.665 26.07 1.142.364 13.279-8.468 18.808-9.358.217-.13 1.777 13.363 1.477 13.368-4.723 2.226-19.304 12.084-19.77 12.181-.446.094-.156 17.081.74 17.378 2.505 0 16.369-16.156 18.735-16.19 1.3-.211 1.968 19.747 1.33 19.903-2.257.556-36.736 23.882-43.675 24.435.665-4.676-2.96-11.73-3.099-12.85.638-1.876 1.79-3.012 1.772-3.044l1.854-.477c2.157-.576 4.12-1.172 4.12-1.228.738-5.055 5.683-21.912 4.429-27.185l-3.413-14.325c-1.258-5.373-2.291-10.03-2.344-11.167v-.133c.088-3.135-2.453-10.502-2.435-11.363.008-.464-6.615 2.194-7.969 2.45-.23-4.074-7.148-11.134-6.342-11.66l7.55-5.063c6.68-4.437 15.822-10.288 20.482-12.015 4.209-1.563 31.431 4.193 32.758 4.306zm40.28-15.224c0 1.78 4.536 12.254 4.426 13.7l.033.503c.254 5.691-.74 40.423-.77 47.453l.002 2.225c-.018 4.128-.179 9.57.146 12.094.064.502-16.812 7.391-17.115 6.463-.204-1.452 2.042-6.646-.442-14.63l-.48-1.48c-2.65-8.043-8.874-25.26-9.258-26.148l.994 32.01 1.003 4.799c.563 2.771 1.18 5.973 1.32 7.344.038.358-16.154 8.038-16.154 7.129l-.027-1.336c-.112-4.249-.53-16-.27-17.27 1.163-5.673 1.588-41.051 1.622-48.062l.002-.66c-.075-.223 1.08-10.027 1.034-11.584-.016-.531 13.043-14.9 13.13-14.41.248 1.406.538 19.446.884 20.946l.272.95c1.834 5.953 11.576 33.942 11.83 34.7 1.196-.505.29-13.175.29-16.976l.002-.33c.08-4.153-4.498-21.95-4.72-24.731-.343-1.018-2.825-19.208-2.584-19.831 3.838-.297 14.72 6.684 14.83 7.132zm63.74-5.72l4.426 9.283.426.703c.635 1.074 1.7 2.982 1.123 2.789l-3.061.704 1.552 36.543-.042 1.627c-.141 6.665-.278 23.788-.29 24.55.005.427 4.085-.223 4.093 0l.002 1.062c-.027 2.61-.223 8.576-.705 8.594l-1.188.198c-7.328 1.32-17.986 4.856-18.583 4.702-.394-.1.075-10.035.223-10.915.078-.5.493.062 1.697-.076 1.058-.118 2.702-.61 2.731-.89l-.063-6.567a1707.38 1707.38 0 01-.03-11.416l.029-3.554c.061-1.66-1.442-37.735-1.488-40.29l-5.31 1.224c-.52.262-2.436-10.027-1.55-10.472.735-.67 8.412-4.013 8.412-4.013l1.861-1.052c2.013-1.116 5.03-2.723 5.735-2.734zm-34.746 10.621l3.952.436c3.334.393 4.919.719 5.71 1.569l.866.451c1.443.776 4.128 2.293 4.153 2.668l-2.067 17.379-3.836-1.336c-.592-1.487-.297-3.443-.884-4.455l-.531-.936c-1.123-1.868-3.407-4.423-10.242-1.296-3.459 1.31-4.25 22.054-4.21 24.168l.004.118c.271 4.094-.337 14.175.665 16.49l.39.869c1.468 3.142 3.333 5.753 5.365 4.701l.775-.406c2.115-1.14 4.5-2.737 4.538-5.387.04-3.13 1.645-9.847 1.104-11.364-.212-.588-5.181-3.37-7.304-3.34-.073-1.514-1.895-10.211-1.107-10.473.887-.297 17.908 4.277 21.47 4.234.442-1.56 1.973 4.943 1.55 6.239l-1.07 3.856-.1.469c-.57 3.12-2.45 19.467-4.363 34.665-4.356-.926-8.749-7.3-9.296-6.908l-.527.452c-1.79 1.485-2.928 1.69-11.645 1.777l-.87-.36c-3.963-1.706-10.16-5.265-10.613-6.82l-.026-.17c-1.55-7.802.986-42.405 1.326-47.238.175-2.415-3.096-10.472-2.434-11.808.413-.634 18.528-8.441 19.257-8.244zm83.363-30.675c-.461.502 4.701 17.99 4.425 19.83l.047.344c.538 4.415 3.566 41.062 3.712 45.147l.005.184c.037 2.434-.807 15.498-.443 17.157.065.292-18.73 13.908-19.033 13.368-.201-.841.013-6.708-.443-7.574-1.002-1.908-2.543-8.624-3.308-11.598l-.57-2.11c-2.517-9.638-3.894-23.895-6.525-23.501l1.557 22.204c.074 1.56.713 15.257.435 16.789-.145 1.09.836 5.588 1.107 7.129.035.208-14.163 6.317-14.163 5.79l.023-.739c.108-2.468.556-9.63.824-10.925l.037-.144c1.204-3.413-.67-51.905-.665-54.808-.442-.894-2.61-7.119-2.653-8.023-.016-.31 15.847-10.759 15.932-10.47.24.774 1.113 7.737 1.494 9.176l.21.641c1.546 4.907 12.869 44.32 13.125 44.77 1.206-.295-1.76-22.71-1.773-25.472l.003-.152c.124-1.976-.825-14.3-1.474-20.096l-.11-.26c-.726-1.93-4.174-13.175-3.948-13.51l.576-.645c2.485-2.723 12.097-13.042 11.596-12.502zm44.19-24.954c.525.338 7.267 16.76 6.787 19.014-1.075-.235-12.28 3.775-12.322 3.786-2.413.116-6.414 3.789-7.521 4.458-.092.022-1.333 19.936-1.108 19.977.965.178 18.512-7.893 18.887-8.02.18-.065 1.136 14.259.884 14.259-.35-.008-8.459 6.937-10.33 7.426-.367-.073-8.604 4.63-8.998 4.68-.373.045 2.12 14.781 2.876 14.93 5.31-1.117 14.455-15.43 16.452-15.452 1.102-.1 1.853 19.289 1.772 19.31-1.94.106-18.002 13.296-18.002 13.296l-.846.26c-3.883 1.242-13.407 4.76-16.638 4.64l-.424-1.821c-.747-3.324-2.167-10.197-1.57-11.992 1.774-.89 2.862-5.316 2.953-6.163l.07-.94c.129-2.287.196-6.88.389-11.306l-.04-.928c-.303-5.78-2.203-36.348-2.19-36.735.008-.23-3.394-2.304-3.836-3.416-.196-2.016-4.444-10.883-3.763-11.142l.754-.304c7.722-3.257 33.945-17.908 35.764-17.817zm39.098-17.677c.526.312 8.894 14.42 8.412 16.489-1.072-.213-7.262.213-7.304.221-2.413.108-12.837 5.996-13.941 6.612-.092.018 2.133 17.192 2.358 17.23.965.164 15.349-10.25 17.337-9.804.18-.057 1.142 13.368.888 13.37-.351-.01-15.987 11.76-16.38 11.81-.37.04.35 13.454 1.11 13.589 9.292-4.01 11.884-14.022 13.57-18.269.445-1.114 3.01-2.37 3.839-2.377 1.101-.092 2.811 25.751 2.728 25.77-1.938.097-15.05 11.587-15.05 11.587-3.096.818-16.86 9.03-20.361 8.91l-.7-3.883c-.813-4.717-1.98-12.229-1.442-13.713 1.775-.818 3.82-2.79 3.911-3.57.177-1.484-1-7.607-.905-12.294l.02-.629c.03-.615-2.227-30.134-2.213-30.523.01-.21-3.024-6.624-3.466-7.647-.196-1.851-3.632-7.936-2.951-8.174l.842-.315c7.431-2.94 27.89-14.472 29.698-14.39zm40.856-23.49c2.267 1.187 12.112 17.494 13.09 21.129 1.805 6.694 3.148 30.924 1.405 33.474-1.429 2.09-11.265 5.268-12.802 6.293l-.122.092.45-.048c2.24-.214 10.655-.718 11.694 2.144 1.25 4.688-1.809 25.07 4.302 26.508 2.241.526 5.98.097 8.262 1.187.627.297-2.4 11.147-2.59 11.436-.874.453-11.665.775-17.476-1.93-2.806-2.14-5.286-21.338-5.316-24.716l.004-.551c-.071-2-1.62-6.156-10.88-7.173l.7 2.765c.661 2.688 1.542 6.526 1.481 7.65-.037.694 3.104 11.798 2.496 11.904l-.235.062c-2.15.63-17.118 5.637-16.912 5.294.348-.588 2.943-9.768 3.117-10.416.622-2.32-.648-17.794-.469-19.192l-.012-.182c-.208-2.164-2.955-22.367-2.792-23.92.121-1.147-3.275-9.226-4.208-10.713.046-.23-5.865-10.465-5.924-10.864-.059-.338 28.965-22.212 32.737-20.234zm-15.183 23.49l.515.899c1.039 1.885 3.349 6.458 4.064 11.02l2.064 12.591c.053.44 8.258-1.778 11.064-4.455 2.71-.764 1.443-11.061 1.837-14.086.238-1.81-6.412-7.534-8.034-10.424-4.677-1.787-9.325 3.265-11.51 4.455z"/>
        </g>
      </g>
      <g id="outlines" stroke="#A6133B" stroke-dasharray="7" stroke-width="4" transform="translate(22 143)">
        <path id="Oval" d="M56 228c30.928 0 56-25.072 56-56s-25.072-56-56-56-56 25.072-56 56 25.072 56 56 56zM296 156c27.062 0 49-21.938 49-49s-21.938-49-49-49-49 21.938-49 49 21.938 49 49 49zM296 221c13.255 0 24-10.745 24-24s-10.745-24-24-24-24 10.745-24 24 10.745 24 24 24zM576 118c32.585 0 59-26.415 59-59S608.585 0 576 0s-59 26.415-59 59 26.415 59 59 59z"/>
      </g>
    </g>
  </g>
</svg>
