<svg xmlns="http://www.w3.org/2000/svg" viewBox="0 0 310 170" aria-labelledby="title">
  <title id="title">Tyler Gaw - Designer & Engineer</title>
  <g id="f1" transform="translate(3 3)">
    <path class="logo__base logo__amp" id="f1-ampersand" d="M142.17 113.64c-5.49-3.097-3.147-9.278-.867-12.18.551-.495 4.423.08 5.724-.715 3.245-1.981 6.827-5.504 7.487-5.504 3.452 0 6.66 5.153 5.78 9.083-.145.644-4.77 5.543-7.707 6.605-.876.316-1.656-5.853-1.21-5.918 2.523-.363 5.297-1.023 4.953-2.973-.095-.535-5.425-2.16-9.082.579-.793.593-8.753 3.467-.424 9.952.595.45 2.633-.146 3.562-.044.137.074-.073 2.206-.056 2.202-1.486.88-3.082 1.65-5.944 4.184-2.38 1.745-2.148 6.384-.963 7.952.45.593 3.923 2.397 7.403 1.68 5.17-1.184 8.643-3.71 9.193-4.843.367-.76.432-3.737-.33-4.02-.06-.122-3.984-.292-5.78.44-.448.184-3.342 1.325-2.564 2.392.487.667 2.705-.66 3.17-.684.42-.017.264 2.65 0 2.862-.665.558-5.045 1.844-5.726 1.266-1.913-1.623-.055-7.486 4.497-8.618.568-.008 5.676-.338 6.237-.354 3.633-.276 6.397-1.627 7.101-3.468.703-1.836.207-3.384-.44-3.633-2.203-1.542-3.358-.166-4.322.743-1.403 1.018-.31 1.805 1.514 1.183.33.166 1.115 1.335.991 1.542.122.46-3.964 1.65-5.34 1.32-.543-.272-1.43-6.715 2.808-7.871 4.238-1.156 5.45-1.376 7.706.716 1.516 2.232-1.1 10.403-4.844 11.449-.014.802 2.63 3.5 1.954 8.009-.144.97-3.632 6.44-16.045 9.056-7.157 1.1-12.529-2.727-13.817-6.221-.344-.934-.216-.772-.44-1.596-.165-.605 2.42-5.128 2.367-6.11 0-.881-3.099-2.356-3.083-2.643 1.52-5.141 6.536-5.82 6.536-5.82"/>
    <path class="logo__base" id="f1-name" d="M68.697 6.46c1.087.435.675 13.49-.393 19.347l-.13.673c-1.215 5.966-5.679 21.958-6.061 23.081l-.02.056c-.32.68-10.182 48.31-10.662 51.796l-.018.158c-.059 1.11-8.687 22.974-8.587 24.22.044.542-29.224-.855-29.284-1.321-1.1 0-3.18-4.894-2.422-5.725.471-.831 20.322-3.981 20.697-5.285l.085-.22c.664-1.643 4.936-11.64 5.2-13.751l.019-.243c.444-4.562 7.613-38.028 7.136-39.501l-.08-.29c-.47-1.799-2.507-10.558-4.328-18.447l-3.621-15.832c-1.166-5.165-3.752-16.548-3.86-16.733-.192-.328 15.595.644 15.632.66l.118.343c.365 1.102 1.439 4.525 1.424 5.822.975 3.665.187 9.979.423 11.362l.018.088c.395 1.59-.22 11.89 2.421 19.156.304.01 1.656-14.027 1.957-15.729l.025-.125c.612-2.321-.866-19.754-.88-21.137.03-.275 4.376-1.22 6.724-1.836l.541-.146c1.645-.462 7.846-.507 7.926-.44zm-37.43 2.863c.507.013 4.644 27.463 4.183 27.403l-.277-.06c-2.401-.55-8.12-2.564-7.98-.93-.037 1.19-1.307 6.211-1.404 7.137-.142 1.37 4.497 44.11 4.486 44.826-.008.499 5.463 3.895 5.512 5.393l-.007.111s-3.195 15.59-9.578 17.505l-.786.23c-6.614 1.89-18.742 4.328-18.7 3.843l4.038-10.494c.667-1.05 2.258-48.116 2.52-51.385l.037-.338c.14-1.526.126-7.675-1.97-9.562-.83.21-7.805 10.348-8.258 10.57-2.642.494-3.23-37.074-3.055-37.203l.12-.039c1.33-.467 8.707-3.666 15.925-4.384l.994-.093c5.76-.588 13.769-2.54 14.2-2.53zm59.835-2.972l-.016.234c-.17 2.052-1.586 11.277-1.48 12.871l.01.097c.164.899-2.194 19.223-2.308 21.326l-.005.141c.03 1.745-3.438 16.628-3.74 18.404l-.02.13c-.06.587-2.088 6.182-3.916 11.135l-2.892 7.772c-.662 1.651-1.037 7.633.33 8.036 1.633.483 7.266-18.889 8.587-18.064l9.578-1.651-.013.107c-.377 2.314-8.723 32.125-9.236 31.938-3.888 0-11.432 8.47-15.979 8.062l-.258-.034c-2.752-.495-11.944 4.734-15.139 7.377-.66.33-2.354-.198-2.31-.331.825-5.064 5.33-15.321 5.393-15.844l.188-.557c1.577-4.777 4.868-17.11 5.977-22.342l.097-.813c.336-2.66 1.4-10.362 1.766-13.193l.13-1.06c.258-1.715 4.46-24.465 4.283-26.007 1.322-1.441 4.378-11.662 4.293-14.413.827-1.156-3.584-12.734-3.632-12.826l1.27-.211c1.618-.257 4.483-.669 6.822-.78 5.118-1.155 12.22.496 12.22.496zm32.862-1.322c.757-.216 13.522 1.706 14.804 1.813l.059.004c18.959.882 19.746 15.085 19.681 19.608l-.03 1.19s-2.638 27.856-4.294 33.853c-.603 2.19-9.527 4.172-10.734 4.303 1.527 1.023 9.98 1.604 9.578 5.275l-.054.418c-.424 2.99-2.605 14.95-1.928 17.417l.076.249c.443 1.345 1.842 4.16 2.703 3.965l.084-.03c.299-.146-2.633 2.188-5.922 4.62l-.903.664c-3.53 2.575-12.538.914-12.551.66-.05-.914 3.51-4.704 3.532-6.448l-.01-.158c-.215-1.66 2.65-9.934 2.588-10.449l-.066-.522c-.211-1.583-.7-3.91-2.907-3.44l-1.366 5.916a102.079 102.079 0 00-.615 2.835c-.281 1.514-4.51 7.522-4.238 8.303.237.686-.842 5.028-.881 5.065-.148.135-7.651.99-10.13.22-6.005-4.08-12.343-4.597-12.44-4.734-.44-.627-.55-3.413.11-3.634 3.746-1.082 10.895-.8 11.01-.88.896-.633 6.185-15.225 6.59-17.096l.033-.195c.3-2.058 2.807-23.135 2.844-23.963l-.707-10.01c-.566-7.805-1.309-17.529-1.589-18.896l-.015-.069c-.048-.19-2.433-15.138-2.312-15.854zm-4.129.66c.322.003 3.538 15.934 2.808 16.185.165.33-9.132-2.498-9.578-2.312l-.009.02c-.143.426-1.627 7.717-.656 18.323l.09.93c.882 8.528 1.37 5.029 1.235 5.828-.083.494 10.665-.56 11.12-.661.757-.167-.679 17.99-1.762 17.835-1.28-.183-7.449.112-9.636.584l-.113.025.006.094c.018.769-.508 3.206-2.643 9.856.085.268 3.197.196 4.13.496.11-1.156 7.33-5.453 8.696-5.34.312.027-5.383 18.946-5.724 18.882-.334-.064-5.22 2.935-10.349 3.357-.81-.232-17.588 6.168-17.615 6.166-.724-.693 4.57-8.854 4.57-8.854.386-.586 2.806-18 2.806-18 .854-3.399 1.413-20.538 1.326-22.072l-.005-.056c-.126-1.296 1.98-31.57 2.008-31.696.047-.192-8.205-8.04-7.897-8.818-.094.237 5.173-1.541 8.697-1.651l.367-.007c4.032-.042 17.196.883 18.128.887zm76.79-4.302l.186.074c1.337.578 8.4 4.138 8.4 5.376.074.911-3.119 12.15-3.522 13.486l-.323.552c-1.122 1.876-4.867 7.827-6.558 6.604-.206-.149-2.794-4.27-2.808-5.174l-1.004-.727c-.634-.467-1.329-1.018-1.968-1.695-1.828-1.937-4.019 1.321-5.449 2.146-.868.977-1.69 20.015-1.741 21.705l-.248 17.79c-.053 3.076-.106 5.433-.151 5.852l-.006.04.029-.061c.144-.246.884-.97 4.484-.684 4.027.321 3.645-3.332 5.174-5.724.761-.936 5.182-13.038 4.843-12.99-5.017.266-5.927 5.007-7.265 4.953-.605-2.284-.23-12.753.05-12.927.402-.462 5.07-1.724 8.206-2.266 1.694-.084 11.056-6.61 11.12-5.724l.003.129c0 2.084-1.392 22.423-1.544 23.43l-.832 5.837c-1.038 7.114-2.76 18.187-3.462 18.273-2.312-.88-6.936-5.614-6.936-5.614-.468.97-3.468 10.073-8.917 10.9-2.202.66-6.432-1.977-12.11-1.543-1.879.155-9.14 6.326-12.22 7.927 0 .22-1.317-5.694-1.32-5.725l.25-.864c3.445-12.126 4.23-24.966 4.261-26.769l.001-.11c0-.439 2.555-9.382 2.973-18.165.99-2.312-1.795-16.474-1.982-18.495l-1.655-4.41c-1.678-4.51-3.619-10.077-3.299-11.994.126-.733 10.77-3.006 12.44-3.193l1.339.203c10.227 1.519 12.682 1.16 13.304 1.89l.033.053c.43.67 4.935 7.16 5.581 7.212.14.011 2.423-9.645 2.642-9.578zm9.027 1.431c0-.317 6.378-1.55 11.184-.918l.785.108c4.558.572 12.452.352 13.352-.125.33 0-1.868 8.63-1.981 9.083-.496 1.982 2.715 8.118 3.633 10.403l.018.07c.338 1.532 3.583 25.114 4.029 27.696l.026.143c.246 1.252.189 7.413 1.706 11.064l.218.514c.76 1.773 2.589 5.846 3.69 7.467.414.61-14.43 14.07-14.642 13.762-.064-.453-1.376-3.688-1.156-4.24l1.38-2.34c1.202-2.064 2.737-4.857 2.749-5.86.06-5.23-3.634-13.431-3.634-13.431-1.396.181-2.23 1.62-2.862 2.312-.465.507-2.616 10.363-2.587 11.889.16 1.778 2.19 7.272 1.486 8.256-.405.567-18.554 6.413-18.454 5.862.045-.245-.826-2.806-.62-3.013 2.52-3.55 5.696-8.995 5.863-9.783.215-1.013.722-8.092.669-9.858l-.009-.252c-.012-2.378 1.39-30.097 1.111-31.897l-.048-.256c-.341-2.068-2.152-17.05-2.583-17.822l-.02-.026c-.182-.146-3.316-8.508-3.303-8.807zM277.625.232l.688 2.484c.757 2.772 1.855 6.95 1.771 7.545l-.01.044c-.442 1.05 4.362 18.477 4.933 22.63l.102.859c.343 3.041.36 4.645.36 5.465-.107 1.142 3.192 2.202 3.413 3.523-.024.143-2.533 3.413-6.386 6.495-4.963 3.971-12.472 6.197-12.66 6.055-.65-.488-1.471-4.599-1.762-5.284-.578-1.359-2.608-3.633-2.973-3.633-.458 0-.874 3.71-1.1 8.147-.062 1.185 1.21 1.211.99 2.312-.171.558-18.764 10.542-18.935 10.348-.614-.689-.044-8.94-.22-9.688-.191-.803-3.365-7.616-3.633-8.917l-.056-.3c-.403-2.281-2.144-13.739-2.565-15.049l-.022-.064c-.43-1.064-1.678-17.899-2.138-19.576l-.05-.133c-.451-1.138-3.751-8.78-4.112-11.054-.066-.414 17.409-.124 19.952 1.258.599-.125-3.714 10.725-3.477 11.246.623 1.372 2.401 15.81 2.772 18.022l.842 4.503 2.312 6.853c1.57.06.372-17.532.41-18.307l.003-.023c.285-1.115-3.038-5.69-2.642-6.027l.63-.52c1.894-1.534 7.252-5.68 9.856-5.92.823-.078 1.315 9.766 1.65 10.898l.1.301c.976 2.755 5.322 10.352 5.847 10.433.932 0 .51-5.984.467-7.423l-.003-.177c0-4.6-7.678-15.927-8.285-17.436l-.023-.065c-.321-1.006-4.954-5.202-5.45-5.697C261.577.583 277.46-.546 277.625.232zm-140.12 18.825l.84 2.64c.693 2.223 1.57 5.172 1.633 6.026l.003.21c-.017 2.019-.383 20.65 0 20.353 2.607.282 3.565 1.131 4.955-.66 1.29-1.661 2.716-14.157 2.804-15.308l.004-.05c.102-1.838-1.428-8.724-1.982-10.074-.54-1.316-2.807-2.642-8.257-3.137zm84.22-1.926c-1.18-.113-1.187 13.39-1.115 15.757l.015.316.44 10.788c1.068.536 2.08-.125 3.082-.44.825-.258 3.545-2.434 3.523-3.026l-.475-2.89c-.602-3.597-1.149-6.644-1.445-8.055l-.128-.579c-.654-2.831-3.029-11.789-3.897-11.871z"/>
    <path class="logo__title" id="f1-designer" d="M6.992 126.672c.04-.154 1.872-1.541 2.146-1.266l1.029 1.006c.893.86 1.538 1.436 1.724 1.47 1.134.214 3.668.424 4.789.662 1.313.278 2.7 1.507 3.303 2.31.603.806 3.269 7.582 3.633 11.946.316 3.798-1.249 10.898-1.442 12.34l-.017.156c-.103 1.403-1.976 3.828-4.431 4.789-2.608 1.02-7.88 3.588-9.964 4.294l-.092-2.69c-.031-1.107-.052-2.216-.022-2.575l.007-.084c.06-1.123 0-12.179.003-12.37l.001-.877c-.019-4.493-.43-10.528-.623-13.14l-.1-1.292s-.052-4.12.056-4.68zm36.22 2.366c.605.056-1.274 4.882-1.707 4.79-1.823-.373-8.858.073-10.596-.083-.03 1.018.118 2.274.166 2.725.092.873-.496 4.027-.44 4.403.103.68 7.892-2.48 8.283-2.477.436.055-.306 5.34-.413 5.34-.54.001-4.507 1.761-6.998 2.642-.16 0-.194 3.262.124 3.303 3.737-.33 5.452-2.472 6.296-2.478.464-.028 1.596 4.707 1.156 4.9-.804.077-6.11 2.476-6.11 2.476-1.287.011-7.936 3.12-9.413 3.083l1.432-7.62c.45-2.447.83-4.604.826-4.875l-.005-.539c-.057-3.364-.617-7.41-.655-8.08v-.078c.036-.515-.927-3.67-1.212-3.689l-.141-1.044c-.145-1.135-.317-2.718-.162-2.699l.21.02c.932.064 4.015.126 7.592-.075 3.612-.44 10.92-.112 11.766.055zm-27.818 7.504c-1.612-.42-2.787-1.166-2.744-.972.107.48.294 6.726.35 7.597l.006.064c.083.941-.184 6.447-.102 7.695l.01.114c.03.272-.21 4.148-.21 4.148.808.134 2.254-1.562 3.159-2.37.665-.593 2.66-4.21 2.66-7.431 0-3.384-1.39-8.394-3.13-8.845zm37.395-18.623c5.334.102 5.65 3.645 5.781 4.46.122 1.04.923 4.354.935 5.394.005.42-.275 3.198-.386 3.413-.099.193-4.328.191-4.623 0-.44-1.157 1.72-2.05 1.761-2.643.053-.746-1.926-4.459-3.798-4.54-2.31-.139-3.357 2.724-3.303 4.1-.02 1.751 2.198 3.332 2.808 4.13 1.458 1.484 5.705-.084 7.761 2.585.478.42.578 3.661 0 8.037-.66 4.294-5.958 7.156-10.293 8.477-6.486 1.297-8.672.418-8.698-.55l.01-4.907c.022-3.162.102-6.804.375-7.534.331-.825 3.868-1.004 4.9-1.32.096-.082.545.317 1.211.935.658.61 1.114 1.602 1.107 1.688-.364.624-2.73.887-3.034 1.34-.518.775-.11 3.913-.109 4.816 6.825 3.055 8.652-6.599 7.981-7.129-2.545-2.226-5.555-3.4-7.046-4.252l-.83-.489a2.965 2.965 0 01-.932-.819c-.492-.629 1.06-3.45 1.157-4.182l.042-.256c.292-1.656 1.857-9.182 2.325-9.378 1.32-.538 3.008-1.577 4.898-1.376zm20.973-8.367c-.066.757-1.312 4.578-1.431 4.845-.17.382-3.523 1.486-3.523 1.486l.88 14.09-.006.34c-.01 1.686.268 4.7.447 4.725.524.077 2.464-1.715 2.752-1.595l.06 1.163c.096 1.584.363 4.307 1.234 5.538.072.1-.45.93-.991 1.09l-.416.127c-4.11 1.299-12.681 5.143-12.877 5.099-.087-.018.88-1.952 1.54-3.605.386-.963.46-2.798.483-2.917.03-.164 1.655-.78 2.105-.826.37-.037.184-.98.166-1.18l-.013-1.08c-.01-1.615-.01-4.316.007-5.15l.005-.186c.02-.464-.427-5.052-.599-6.704l-.061-.563c-.124-.954.017-4.442 0-5.284l-1.415.78c-.865.47-1.821.975-1.908.955-.806-2.003-2.726-4.088-2.726-4.088l.754-.669c1.851-1.605 6.66-5.543 9.258-5.51 2.312.056 6.399-1.871 6.275-.881zm11.23-6.358c.624.26 1.145 6.593 1.156 6.798l-.331 5.908-1.238-.081c-.908-.243-1.101-4.27-1.321-4.694-.356-.687-2.201.522-3.055.97-.66.352-.258 2.51-.367 3.252l-.02.096c-.21.78-.33 8.52-.44 9.027-.237 1.107-.152 2.995.222 3.963l.13.333c.528 1.31 1.086 2.31 1.85 1.869l.405-.24c.803-.49 1.757-1.204 1.77-2.264l.01-.3c.064-1.375.425-3.664.238-3.663-.285 0-1.85.88-2.642.957v-.193c.027-.882.338-3.324.495-3.368.359-.1 4.403-2.293 5.615-2.433.258.088.58 3.17.506 3.895l-.01.076c-.022.109-.191.988-.239 1.193l-.01.038c-.275.858.386 9.1-.192 11.367-2.073.107-2.553-2.124-3.413-1.432-.891.72-2.972 5.946-8.257 7.046-.44.04-1.082-4.177-1.1-5.623l.008-1.35c.008-4.46-.11-16.355-.025-19.18l.038-.966c.06-2.184.159-7.257 4.355-7.845l.316-.186c1.685-1.014 4.852-3.258 5.546-2.97zm20.146-7.538c-.173.267-2.127 6.111-2.23 7.087l.01.145c.06 2.053-1.065 19.253-1.083 21.28v.081c.014 1.291.112 2.967.248 3.846.024.155-5.626 3.809-5.738 3.524-.075-.447.376-3.276.206-3.736-.419-1.13-.232-2.413-.413-3.593l-.406-2.364c-.608-3.434-1.666-9.203-1.782-9.422l.428 9.07-.007.446c-.012 1.89.19 4.959.088 5.752l-.012.24c-.029.899.031 3.32.122 4.053.014.113-5.326 2.346-5.326 2.066 0-.48.679-4.15.969-5.62l.118-.573c.45-1.812-1.653-21.028-1.65-22.57 0-.21-.768-3.306-.55-4.082.044-.159 6.407-3.514 6.44-3.362.09.416.193 4.3.315 5.01l.105.444c.276 1.236.855 4.391 1.008 5.11l.017.079c.413 1.798 2.168 7.13 2.27 7.38.448-.156.027-5.987.027-7.24l.001-.09c.03-1.279-.358-5.75-.44-6.606l-.038-.122c-.22-.804-1.071-4.82-1.064-5.26.052-.112 4.171-1.8 6.55-2.215.276-.216 1.878 1.148 1.817 1.242zm14.367 6.796c.014-.198 4.055 1.156 5.614 1.156 2.23 0 7.704-1.637 9.083-.33l.727.66c.93.854 1.915 1.954 1.915 4.073 0 4.184-3.123 7.06-4.679 8.478-1.015.926-5.266.98-6.013 1.073-.455.056 3.82.337 3.921 2.944.086 2.168-1.155 4.514-.714 5.45l.167.371c.206.455.423.818.823.4.447-.466 3.021-5.182 2.972-5.945-.042-.65 3.838 1.05 3.633 1.486l-.615 1.506c-1.002 2.382-3.033 6.785-4.682 7.272-.308.267-3.026.886-5.079-.701-1.018-1.292-1.882-3.874-1.843-5.38l.024-.483c.084-1.434.275-4.38-1.29-4.525l-.793 3.839c-.305 1.52-.603 3.067-.694 3.756-.033.246-11.62.707-11.546.496.05-.14 1.596-2.037 1.982-2.147l.277-.071c1.569-.369 5.753-.953 5.984-1.662.316-.969.76-5.175.997-7.65l.16-1.764c.017-.222.248-5.542.33-6.192l-.005-.078c-.063-.67-.705-5.3-.656-6.032zm-13.1-5.67c1.596.505 5.145 2.443 6.44 2.918 4.204 1.215 4.582 2.647 5.284 2.697.253.043-1.21 3.828-1.39 5.008-.513-.055-.819-1.508-2.243-2.091-1.623-.666-.774-.532-2.311-.825-1.212-.056-.903 4.364-.813 4.402.36.093 5.5.644 5.82.744.09.028-1.224 3.797-1.32 3.797l-.232-.011c-.431-.03-1.29-.12-1.832-.236l-.391-.09c-.629-.158-1.173-.33-2.168-.323-.143.001-.612 6.281-.33 6.358 5.587.266 5.255-3.898 6-3.907.41-.055.862 4.912.66 4.954-.69.14-2.842 3.327-6.113 4.621l-.3.112c-2.132.75-5.272 2.489-6.578 2.422l-.01-.573c-.002-.74.021-2.037.198-2.91l.032-.15c.114-.517.397-3.321.503-5.893l.24-5.776c0-.103.882-8.67.814-9.406l-.02-.4c-.061-1.625-.091-6.092.06-5.443zm25.155 11.89c.095-2.299-6.578-1.055-7.51-.798l-.086.027-.083 4.707c.02.25 3.14.453 4.515-.08l.315-.136c1-.41 2.73-.817 2.85-3.72z"/>
    <path class="logo__title" id="f1-engineer" d="M186.716 88.03c.231.253-.339 4.804-.55 6.495-.608-.078-3.333-1.838-3.51-2.032-.13-.144-2.814-.158-5.518 1.454-.236-.035.14 9.606.248 9.66.426.136 4.954-3.137 7.017-3.467.081-.048.663 4.952.551 4.954-1.762.825-7.202 4.478-7.376 4.514-.166.035-.058 6.33.276 6.44.935 0 6.107-5.987 6.99-6 .485-.078.734 7.318.496 7.376-.842.206-13.705 8.85-16.294 9.055.248-1.733-1.104-4.347-1.156-4.762.238-.695.668-1.116.661-1.128l.692-.177c.805-.214 1.537-.434 1.537-.455.275-1.873 2.12-8.12 1.652-10.074l-1.273-5.309c-.47-1.991-.855-3.717-.874-4.138v-.05c.032-1.161-.916-3.891-.909-4.21.003-.172-2.468.813-2.973.908-.086-1.51-2.667-4.126-2.366-4.321l2.817-1.876c2.492-1.645 5.903-3.813 7.641-4.453 1.57-.58 11.726 1.554 12.221 1.596zm15.028-5.642c0 .66 1.692 4.54 1.65 5.077l.013.186c.095 2.11-.276 14.98-.287 17.585v.825c-.006 1.53-.066 3.547.055 4.482.024.186-6.272 2.739-6.385 2.395-.076-.538.762-2.463-.165-5.422l-.179-.548c-.988-2.98-3.31-9.361-3.454-9.69l.37 11.862.375 1.778c.21 1.028.44 2.214.493 2.722.014.133-6.027 2.979-6.027 2.642l-.01-.495c-.042-1.575-.198-5.93-.101-6.4.434-2.102.593-15.213.605-17.81v-.245c-.027-.083.404-3.716.387-4.293-.006-.197 4.866-5.522 4.898-5.34.093.52.2 7.206.33 7.762l.102.352c.684 2.206 4.318 12.578 4.413 12.859.446-.187.108-4.882.108-6.29v-.123c.03-1.54-1.677-8.134-1.76-9.165-.128-.377-1.054-7.118-.964-7.35 1.432-.11 5.492 2.478 5.533 2.644zm23.78-2.12l1.65 3.44.16.26c.236.4.634 1.106.418 1.034l-1.142.261.58 13.542-.016.603c-.053 2.47-.104 8.816-.109 9.098.002.158 1.524-.083 1.527 0l.001.394c-.01.967-.083 3.178-.263 3.184l-.443.074c-2.734.49-6.71 1.8-6.933 1.742-.147-.037.028-3.719.083-4.045.03-.185.184.023.633-.028.395-.044 1.008-.226 1.02-.33l-.024-2.433a628.53 628.53 0 01-.011-4.23l.01-1.318c.023-.615-.538-13.984-.555-14.93l-1.98.453c-.195.097-.91-3.716-.579-3.88.274-.249 3.138-1.488 3.138-1.488l.695-.39c.75-.413 1.876-1.009 2.14-1.013zm-12.964 3.936l1.475.162c1.244.145 1.835.266 2.13.581l.323.167c.539.288 1.54.85 1.55.99l-.772 6.44-1.43-.496c-.222-.55-.112-1.276-.33-1.65l-.199-.348c-.418-.692-1.27-1.639-3.82-.48-1.29.486-1.586 8.173-1.571 8.956l.001.044c.101 1.517-.126 5.253.248 6.111l.146.322c.547 1.164 1.243 2.132 2.001 1.742l.29-.15c.788-.423 1.678-1.015 1.692-1.997.015-1.16.614-3.649.412-4.21-.079-.219-1.933-1.25-2.725-1.239-.027-.56-.707-3.784-.413-3.88.331-.11 6.681 1.584 8.01 1.568.165-.578.736 1.832.578 2.312l-.398 1.43-.038.173c-.213 1.156-.914 7.214-1.628 12.846-1.625-.343-3.264-2.705-3.468-2.56l-.196.168c-.668.55-1.092.626-4.345.658l-.325-.133c-1.478-.632-3.79-1.951-3.959-2.528l-.01-.063c-.578-2.89.368-15.714.495-17.505.065-.895-1.155-3.88-.908-4.376.154-.235 6.912-3.128 7.184-3.055zm31.1-11.367c-.171.186 1.755 6.667 1.652 7.349l.018.127c.2 1.636 1.33 15.216 1.384 16.73l.002.069c.014.902-.301 5.743-.165 6.358.024.108-6.988 5.154-7.101 4.954-.075-.312.005-2.486-.165-2.807-.374-.707-.949-3.196-1.234-4.298l-.213-.782c-.939-3.572-1.453-8.855-2.434-8.71l.58 8.23c.028.577.267 5.653.163 6.22-.054.405.312 2.072.413 2.643.013.077-5.284 2.34-5.284 2.146l.009-.274c.04-.915.207-3.57.307-4.05l.014-.052c.449-1.265-.25-19.235-.248-20.311-.165-.331-.974-2.638-.99-2.973-.006-.115 5.912-3.987 5.944-3.88.09.287.415 2.867.557 3.4l.078.238c.577 1.818 4.802 16.424 4.897 16.59.45-.109-.656-8.415-.661-9.44v-.055c.047-.732-.307-5.3-.55-7.447l-.04-.097c-.271-.715-1.557-4.882-1.473-5.006l.215-.24c.927-1.008 4.513-4.833 4.326-4.632zm16.487-9.248c.196.126 2.711 6.212 2.532 7.046-.401-.087-4.581 1.4-4.597 1.403-.9.044-2.393 1.404-2.806 1.653-.034.007-.497 7.388-.413 7.403.36.066 6.906-2.925 7.046-2.972.067-.025.424 5.284.33 5.284-.131-.004-3.156 2.57-3.854 2.751-.137-.026-3.21 1.717-3.357 1.734-.139.017.791 5.478 1.073 5.533 1.981-.414 5.393-5.718 6.138-5.726.411-.036.691 7.149.661 7.157-.724.038-6.716 4.926-6.716 4.926l-.316.097c-1.448.46-5.001 1.764-6.207 1.72l-.158-.676c-.279-1.231-.809-3.778-.586-4.444.662-.33 1.068-1.97 1.102-2.283l.026-.349c.048-.847.073-2.549.145-4.19l-.015-.343c-.113-2.142-.822-13.47-.817-13.614.003-.084-1.266-.853-1.431-1.266-.073-.747-1.658-4.033-1.404-4.129l.282-.112c2.88-1.207 12.663-6.636 13.342-6.603zm14.587-6.55c.196.115 3.318 5.343 3.138 6.11-.4-.079-2.71.079-2.725.082-.9.04-4.79 2.222-5.201 2.45-.034.007.796 6.371.88 6.385.36.061 5.726-3.798 6.468-3.633.067-.021.426 4.954.33 4.955-.13-.004-5.963 4.358-6.11 4.376-.138.015.13 4.986.414 5.036 3.467-1.486 4.434-5.196 5.063-6.77.166-.413 1.123-.878 1.432-.881.41-.034 1.049 9.543 1.018 9.55-.723.036-5.615 4.294-5.615 4.294-1.155.303-6.29 3.346-7.596 3.302l-.261-1.44c-.304-1.747-.74-4.531-.538-5.081.662-.303 1.425-1.034 1.459-1.323.066-.55-.373-2.82-.338-4.556l.008-.233c.01-.228-.831-11.167-.826-11.311.004-.078-1.128-2.455-1.293-2.834-.073-.686-1.355-2.941-1.101-3.029l.314-.117c2.772-1.089 10.405-5.363 11.08-5.332zm15.242-8.706c.846.44 4.519 6.483 4.884 7.83.673 2.481 1.173 11.46.524 12.405-.534.775-4.203 1.953-4.777 2.333l-.045.034.168-.018c.836-.08 3.975-.266 4.362.794.466 1.737-.674 9.29 1.606 9.823.836.195 2.23.036 3.082.44.234.11-.895 4.131-.966 4.238-.327.168-4.353.287-6.52-.715-1.047-.793-1.973-7.907-1.984-9.16l.002-.203c-.027-.741-.604-2.282-4.06-2.659l.262 1.025c.247.996.575 2.419.553 2.835-.014.257 1.157 4.372.93 4.411l-.087.024c-.802.233-6.386 2.088-6.31 1.961.13-.218 1.099-3.62 1.163-3.86.233-.86-.241-6.594-.174-7.112l-.005-.067c-.078-.802-1.103-8.289-1.041-8.865.044-.425-1.223-3.419-1.57-3.97.017-.085-2.189-3.878-2.21-4.026-.022-.125 10.805-8.23 12.213-7.498zm-5.664 8.705l.191.334c.388.698 1.25 2.393 1.517 4.083l.77 4.666c.02.163 3.08-.659 4.127-1.65 1.012-.284.538-4.1.686-5.22.089-.672-2.392-2.793-2.998-3.864-1.745-.662-3.478 1.21-4.293 1.651z"/>
  </g>
</svg>
