<svg xmlns="http://www.w3.org/2000/svg" fill="none" viewBox="0 0 688 480">
  <path fill="#FFD33D" fill-rule="evenodd" d="M375 237.2s0-1.5-1.6-1.2c-1.4.4-1.7 1.1-1 1.7.7.5 1.8.4 2.6-.5z" clip-rule="evenodd"/>
  <path fill="#AB74F6" fill-rule="evenodd" d="M371 239.2s0-1.5-1-1.2c-1 .4-1.2 1.1-.8 1.7.5.5 1.3.4 1.8-.5z" clip-rule="evenodd"/>
  <path fill="#FFD33D" fill-rule="evenodd" d="M355 194s-.1-1.3-1.1-1c-1 .5-1.1 1.2-.6 1.7.5.5 1.2.4 1.7-.6z" clip-rule="evenodd"/>
  <path fill="#AB74F6" fill-rule="evenodd" d="M303 245.8s-1-1.6-1.6-.3c-.7 1.3-.4 2.3.3 2.5.8.1 1.4-.7 1.3-2.2z" clip-rule="evenodd"/>
  <path fill="#06F501" fill-rule="evenodd" d="M291 158s-.1-1.3-1.1-1c-1 .5-1.1 1.2-.6 1.7.5.5 1.2.4 1.7-.6z" clip-rule="evenodd"/>
  <path fill="#FFD33D" fill-rule="evenodd" d="M266 99.7s0-2.1-1-1.6-1.2 1.6-.8 2.4c.5.8 1.3.7 1.8-.8z" clip-rule="evenodd"/>
  <path fill="#F1F68E" fill-rule="evenodd" d="M259 232.2s0-1.5-1-1.2c-1 .4-1.2 1.1-.8 1.7.5.5 1.3.4 1.8-.5z" clip-rule="evenodd"/>
  <path fill="#9DB4FF" fill-rule="evenodd" d="M219.2 347s3 .3 2.8-1.3c-.2-1.5-1.7-2-3-1.5-1.3.6-1.5 1.8.2 2.8z" clip-rule="evenodd"/>
  <path fill="#A6133B" fill-rule="evenodd" d="M269.2 327s3 .3 2.8-1.3c-.2-1.5-1.7-2-3-1.5-1.3.6-1.5 1.8.2 2.8z" clip-rule="evenodd"/>
  <path fill="#AB74F6" fill-rule="evenodd" d="M270 186.6s-.5-3.5-2.3-2.4c-2 1.2-2.1 3-1 4.2 1 1.2 2.5.6 3.3-1.8zM215 480s2.1.3 2-1.3c-.2-1.5-1.3-2-2.2-1.5-1 .6-1.1 1.8.1 2.8zM502 90.5s-.4-2-2.3-1.4c-2 .7-2.1 1.9-1 2.6 1 .6 2.5.3 3.3-1.2z" clip-rule="evenodd"/>
  <path fill="#06F501" fill-rule="evenodd" d="M38 359.4s.3 2.1 1.7 1.5c1.4-.7 1.6-1.8.9-2.5-.8-.7-2-.4-2.6 1z" clip-rule="evenodd"/>
  <path fill="#9DB4FF" fill-rule="evenodd" d="M502 88s2.1.3 2-1.3c-.2-1.5-1.3-2-2.2-1.5-1 .6-1.1 1.8.1 2.8z" clip-rule="evenodd"/>
  <path fill="#00EB9B" fill-rule="evenodd" d="M340.2 454.5s-.7 2 .3 2.4c1 .4 1.6-.5 1.5-1.7-.1-1.1-.8-1.6-1.8-.7z" clip-rule="evenodd"/>
  <path fill="#06F501" fill-rule="evenodd" d="M334.2 462.3s-.7 1.4.3 1.6c1 .3 1.6-.3 1.5-1-.1-.9-.8-1.2-1.8-.6z" clip-rule="evenodd"/>
  <path fill="#AB74F6" fill-rule="evenodd" d="M555.6 2s1.5.3 1.4-.8c0-1-.8-1.4-1.5-1-.6.2-.7 1 0 1.8z" clip-rule="evenodd"/>
  <path fill="#FFD33D" fill-rule="evenodd" d="M686.5 153s1.5.3 1.5-.7-.7-1.5-1.4-1.2c-.7.3-.9 1-.1 1.8z" clip-rule="evenodd"/>
  <path fill="#F2C0EA" fill-rule="evenodd" d="M15.5 147.9s1.5.6 1.5-1-.7-2.2-1.4-1.8c-.7.5-.9 1.6-.1 2.8z" clip-rule="evenodd"/>
  <path fill="#06F501" fill-rule="evenodd" d="M60.5 52s1.5.3 1.5-.7-.7-1.5-1.4-1.2c-.7.3-.9 1-.1 1.8zM60.5 44s1.5.3 1.5-.7-.7-1.5-1.4-1.2c-.7.3-.9 1-.1 1.8z" clip-rule="evenodd"/>
  <path fill="#AB74F6" fill-rule="evenodd" d="M32.7 83s2-.8 1-2c-.8-1.3-2-1.2-2.5-.3-.5 1 0 2 1.5 2.3z" clip-rule="evenodd"/>
  <path fill="#FFD33D" fill-rule="evenodd" d="M550.3 379s3 .3 2.7-1.3c-.3-1.5-1.7-2-3-1.5s-1.4 1.7.3 2.8zM482.7 393s2-.8 1-2c-.8-1.3-2-1.2-2.5-.3-.5 1 0 2 1.5 2.3zM508.2 219.3s-.7 1.4.3 1.6c1 .3 1.6-.3 1.5-1-.1-.9-.8-1.2-1.8-.6zM610.3 239s3 .3 2.7-1.3c-.3-1.5-1.7-2-3-1.5s-1.4 1.7.3 2.8zM542.7 253s2-.8 1-2c-.8-1.3-2-1.2-2.5-.3-.5 1 0 2 1.5 2.3zM568.2 79.3s-.7 1.4.3 1.6c1 .3 1.6-.3 1.5-1-.1-.9-.8-1.2-1.8-.6z" clip-rule="evenodd"/>
</svg>
