<svg xmlns="http://www.w3.org/2000/svg" fill="none" viewBox="0 0 306 60">
  <path fill="#F8F8F8" fill-rule="evenodd" d="M24 2c3.4 0 6.4.5 9 1.3 2.5.8 4.6 2 6.5 3.5 3.6 2.9 6 7 7 12.2l-10.8 2a16 16 0 00-4.3-7 10 10 0 00-7.2-2.8c-3.8 0-7 1.7-9.4 5a24.6 24.6 0 00-3.9 14.6c0 6.3 1.2 11.2 3.5 14.7s5.4 5.2 9.3 5.2c4 0 7-1 9-2.8 2-2 3-4.4 3-7.4h10.9c0 6.2-2 11-6 14.4-4 3.4-9.4 5.1-16.4 5.1a22 22 0 01-17.6-7.7A32.3 32.3 0 010 30.9c0-9.2 2.3-16.3 6.8-21.5C11 4.5 16.8 2.1 24 2.1zm47.5 14c2.8 0 5.4.5 7.9 1.4 2.4.8 4.6 2.2 6.3 4 4 4 6 9.6 6 16.7 0 7-2 12.4-6 16.4A19 19 0 0171.5 60c-6 0-10.8-1.8-14.5-5.5-4-4-6-9.4-6-16.4 0-7.2 2-12.7 6-16.7 3.6-3.6 8.4-5.4 14.5-5.4zm67.9 0c2.8 0 5.4.5 7.9 1.4 2.5.8 4.6 2.2 6.4 4 4 4 5.9 9.6 5.9 16.7 0 7-2 12.4-6 16.4a19 19 0 01-14.2 5.5c-6 0-10.8-1.8-14.5-5.5-4-4-5.9-9.4-5.9-16.4 0-7.2 2-12.7 6-16.7 3.6-3.6 8.4-5.4 14.4-5.4zm139 24.5c0 3.3.9 6 2.4 8.2 1.6 2.1 4 3.2 7 3.2 4.3 0 6.8-1.9 7.6-5.5h10.2a15 15 0 01-5.8 9.8 19 19 0 01-12 3.8c-5.4 0-10-2-13.8-6a22.7 22.7 0 01-5.7-16c0-6.7 1.9-12 5.7-16.1 3.7-4 8.3-5.9 13.9-5.9 5.8 0 10.3 2 13.5 6.1a23.2 23.2 0 014.3 13c0 2-.1 3.8-.4 5.4h-27zm-168 18.3h-10.1V0h10.1v58.8zm68 0h-10.2V17.1h10.1v8.3c2.6-6 6.3-9 11.4-9 1 0 2.2.2 3.7.6l-.2 10c-1.6-.3-3.2-.4-4.7-.4-6.8 0-10.2 4.6-10.2 14v18.2zm32.3 0h-10.2V3.2h14.6l15.3 33 15.3-33h14v55.6h-10.3V16.5l-15.8 36.2H227l-16.3-37.4v43.5zM78.9 28.1a8.6 8.6 0 00-7.1-3.3c-3.1 0-5.6 1-7.6 3.3-2 2.2-2.9 5.5-2.9 9.9s.9 7.7 2.6 9.9a8.7 8.7 0 007.2 3.3c3 0 5.5-1.1 7.5-3.3 2-2.2 3-5.5 3-10 0-4.3-1-7.6-2.7-9.8zm68 0a8.6 8.6 0 00-7.2-3.3c-3 0-5.6 1-7.5 3.3-2 2.2-3 5.5-3 9.9s1 7.7 2.7 9.9a8.7 8.7 0 007.1 3.3c3 0 5.6-1.1 7.5-3.3 2-2.2 3-5.5 3-10 0-4.3-1-7.6-2.6-9.8zm141-4c-2.8 0-5 1-6.6 2.8a12.5 12.5 0 00-2.9 7.1h17.8c0-4.5-1.4-7.5-4.3-9-1-.6-2.4-1-4-1z" clip-rule="evenodd"/>
</svg>
