<svg xmlns="http://www.w3.org/2000/svg" fill="none" viewBox="0 0 288 71" aria-labelledby="title-limbo">
  <title id="title-limbo">Limbo</title>
  <path fill="#F6F5E4" fill-rule="evenodd" d="M195.4 69.5H176V2.3h22v27.2c1.4-2.8 3.1-5 5.4-6.6 2.2-1.6 5-2.4 8.2-2.4 5.8 0 10.4 2.2 13.6 6.6a31 31 0 014.8 18.7c0 7.8-1.6 13.9-4.7 18.2a15.9 15.9 0 01-13.6 6.4c-3.8 0-7.1-1-9.8-3.3a18.2 18.2 0 01-6-8.9l-.5 11.3zM280.9 27a24 24 0 017 18.4c0 7.9-2.4 14-7 18.4a27.9 27.9 0 01-19.8 6.5c-8.5 0-15-2.2-19.7-6.5a24 24 0 01-7-18.4c0-8 2.3-14.1 7-18.4a27.9 27.9 0 0119.7-6.6c8.5 0 15.1 2.2 19.8 6.6zM51 69.5H0V6h22.4v47H51v16.4zm28 0H57v-48h22v48zm29.6 0h-22v-48h19.8l.5 10.4c1.4-3.7 3.5-6.5 6.3-8.4 2.8-2 6.3-3 10.4-3 3.6 0 6.6.9 9 2.5 2.4 1.7 4.1 4 5.1 7.1 1.6-3.1 3.7-5.5 6.3-7.1 2.7-1.7 5.9-2.5 9.6-2.5 4.7 0 8.4 1.4 11 4.2 2.7 2.9 4 6.8 4 12v32.8h-22V42.4c0-2.1-.3-3.6-.8-4.4-.5-.8-1.4-1.2-2.6-1.2-1.6 0-2.7.6-3.5 1.9-.7 1.2-1 3-1 5.6v25.2h-22.1V42.4c0-2.1-.3-3.6-.8-4.4-.5-.8-1.4-1.2-2.6-1.2-1.6 0-2.8.6-3.5 1.9-.7 1.2-1.1 3-1.1 5.6v25.2zm149.6-33.2c-.6.5-1 1.5-1.3 3-.3 1.3-.4 3.4-.4 6.2 0 2.7.1 4.8.4 6.2.2 1.4.7 2.4 1.3 3 .7.6 1.6.8 3 .8 1.2 0 2.2-.2 2.8-.8.6-.6 1-1.6 1.3-3 .3-1.4.4-3.5.4-6.2 0-2.8-.1-4.9-.4-6.3-.2-1.4-.7-2.4-1.3-3-.6-.5-1.6-.8-2.9-.8-1.3 0-2.2.3-2.9.9zm-51.7 16.6c.9-1.4 1.3-3.8 1.3-7.4 0-3.6-.4-6-1.3-7.4-.8-1.4-2-2-3.7-2-1.6 0-2.8.7-3.6 2.2-.7 1.4-1.1 3.7-1.1 6.8v.8c0 3.2.4 5.5 1.2 7 .8 1.3 2 2 3.5 2a4 4 0 003.7-2zM58.8 16.3c-1.9-1.4-2.8-3.8-2.8-7 0-3.4 1-5.8 2.8-7.2C60.6.7 63.7 0 68 0c4.4 0 7.4.7 9.3 2.1C79 3.5 80 6 80 9.2s-1 5.7-2.7 7.1c-1.9 1.4-5 2.1-9.3 2.1-4.3 0-7.4-.7-9.2-2z" clip-rule="evenodd"/>
</svg>
