<svg xmlns="http://www.w3.org/2000/svg" fill="none" viewBox="0 0 751 564">
  <path fill="#1A1A1A" d="M416.2 553.1h-59l-44-11.3-2.2-11.5-3.3-15.5-3.6-19.6-7.4-22-12.2-39.8-13.8-41-8.6-17.6-4.8-17.8-.4-36.3.8-30.9-3.3-13.4-6.9-14.3-4-1.2-4.1 4.1-10 10.6-9 4.9-12.6 1.2-7.3-3.7-2.5-4-4.8 2.4-7.8 1.2-7.7-1.6-13.8 8.9-10.6 7.8-9.7 3.7-20.3 13.4-9.3.4-8.5.8H97l-10.2-.8-3.9-5.8-2.6-3.8L69.8 314l-13.1 22-7.3 17.5-1.6 23.5 2.7 16 5.7 10.6 5.3 4.7 7 4 4.8-.4-.3-2.3-4.9-5.6.7-13.7 10.6-8.9 16.7-2.5 14.2 7.4 9.8 14.2-.8 20-12.6 17.8-19 12.6-17.7.5-16-.6-16.5-7.4-19-17.9-12.9-28.8L.1 367l1.8-23.3 4.4-27 10.4-33.9 8.6-29.5 10.5-32.6 9.7-35.6 11-32.6 9.9-22.1 6.2-18.4 6.6-17.9 13.1-10.8 20-5.8 19.7-7.3 14.8-5 16.5-11.7 19-8.6 17.1-10.5 22.1-8.6 18.1-3.4 12.6-.8 12.8-3.1 15.4-6.2 7.6-3.1 20.6-1.9 14.2.2 24 1 33.1 2 43.9 1.8 27.7.6s25.6-1.3 28-1.3c2.6 0 41.2-4.9 41.2-4.9l24-5.7 22.3-1 21.4 5.1 27 11 34.1 28.3 22.6 26.3 27 37.5 17.9 25.8 16.5 27.7 7.4 21 5.5 35.5-.6 37 3.7 41.7.6 33.8-3.7 23.5v39.9l-.6 13.5-9.2 27.4L731 418l-2-14.2-1.2-16v-15.4l4.4-22 2.5-22-1.6-18.6-4-23.4-.5-10-1.1-2.5-1.8 12.2-4 29.4-6.2 27.7L718 360l1.8 19-.9 17.2-1.8 22 .6 17.3 4.3 16V468l3.7 17.3 3 14.7 7.5 17.8 5 11-16.7 4.3-13 2.4-13.1 3-16.3 3.2-19.5 4.9-21.2 7.7-14.1 5.7h-14.8l-15-4.5 9.8-24.9 8.1-41 .5-24.4-1.3-22-3.7-24.5-3.7-11.7-6-9-13.8-11.4-6.2-4.4-16.3 9.7-17.8 7.4-18.8-5.3-13.4-9.8-21.1-5-18.3-.7-21.2-4-20-4.5-15-7.8-6.1-2.5-4.5 8.7L407 387l-.4 21.5-2.8 16.7 3.2 35.4 2 33.8 4 29.3 1.7 15.8 1.5 13.5z"/>
  <path fill="#B3B3B3" d="M413.5 556.5H358l-42.7-10.4-1.9-20.1-4.3-16.5-2.5-20.7-7.8-20.8-12.9-39-14-39.7-7.9-17.1-5-18.3V319l.7-32.4-3-11.5-8-16-3.6-3-6.7 4.3-9.8 11-8 3.7-11.5 2.4-7.3-3.7-3.7-7.3-4.3 5-7.3 1.8-8.5-1.3-14.7 8.5L153 288l-9.1 3-20.1 12.9-8.6 2.4h-8l-8.5 1.3-8.5-1.3-5.6-3.7.7-7.2-6 1.2L67.4 313l-14 22.7-6.8 18.2-2.4 23.3 3.7 17.6 7.3 13.5 8.5 4.3 9.2 1.8 5.4-1.8-3.7-4.3-4.8-5.6 2.5-12.1 14.6-8 11.6.6 14 9.2 5 13.4-1.3 13.4-12.2 16.5-14.6 11-17.2 1.8-15.8-.6-16.5-7.4L21.1 423 8.3 394.2 4 366.7l1.8-23.2 4.3-26.8L20.5 283l8.5-29.3 11.6-32.3 9.8-36 9.8-31.8 9.7-22 9.8-22L84 96.3l8.5-7.9 20.7-6.8 19.6-8.5 14.6-4.9L164 56.7l19-8.6 17-10.3 22-8.6 18.9-4.3 11 .6 14-2.4 15.3-7.4 9.8-3.6 17.7-1.8 15.2 1.2 23.8 1.2 31.1 1.3 45.2 1.8 29.3 1.2s23.8-1.8 26.2-1.8c2.4 0 40.9-5 40.9-5l25.6-5.4 20.2-.6 21.3 4.9L615 21.3l29.9 22.6 23.8 28 26.9 37.3 17.6 25.6 16.6 27.5 7.2 20.7 6.2 34.8-.6 36.6L746 296l.6 33.6-3.7 23.1v39.8l-.6 13.4-6.1 17.7-3-12.2.5-9.1-3.7-11 .7-20.2 4.3-26.8 2.4-20.1-3-19-3.7-22-2.5-12.7v-9.8l-5.5 23.7-5 30.6-6 27.5 2.5 16.4 1.8 19-1.8 16.4-1.9 22 .6 17 4.3 16v16.4l3.7 17.1 3.1 14.6 7.3 17.8 1 13.6-12.2 3.2-10.1 5-13.9 5.6-17.9 4.5-19.5 4-19 9.4-12.4 1.7-17 1.6-12.2-2.5 13-33.4 7.4-39.6 1.2-26.3-1.2-22.5-5.5-24.5-3.7-11.6-7.3-8.5-14-11.6-6.8-5-20.7 11.8-14 6.7L530 390l-15.9-9.3-20.8-4.8-18.2-.6-21.4-5-19-4.2-15.2-7.3-8.5-6.7-7.4 13.4-.6 17.8v25l-3.6 15.8 3.7 36 1.8 34.2 4.9 33 1.8 18.3 1.8 11z"/>
  <path fill="#E6E6E6" d="M101.5 264.8l4.8-6.3 6.8-3.3 7.1-2.8 5.5-4.5 2.2-5.5 3.9-2.2 4.5-5.3 2.4-6 3.5-6.2 1-6.5-1.3-5-2.4-8.3-3.9-3.4-10.8-.8-8.5 2.4-3.7 2-4.7 8.2-1.8 5-.7 8.2-3.3 6.8-6.7 5.8-4.7 9.8-1.4 9.5 1 5.6 1.6 3.7.8-4.8v-6l1-6.2 1.7-3.6 2.8-3.3 1.2-.6-.1 4.1c0 .6-1 5.5-1 5.5l-1.7 3.2-1.6 3.1-.6 5 1.8 6.4V258l3.2-6.7 2.3-2.8-1.2 3.3-.9 5.7.5 3.7 2.2-5.7-.8 9.3zM67.2 183l4.5-17.6 7.1-21 1.4-4.5-.7-11.3 7.3-15.9 10.7-14.6 13.9-6.5 9.2.2 14.4 4.4 13.8 2.4 14.6-.8-5.1 7.6-8.2 13.8 1.4 8.7.3 9-13.9 12.5-10 11.4-11 6.4-9 2.5H101l-10 2.1-15.1 9.3-7.1 6.8-7.4 6.5 5.8-11.4z"/>
  <path fill="#E6E6E6" d="M72.3 232.4L65.5 245l-1.3 10-3.8 7-.9 5.5-1.6 3.3 4.1 7 .2 16.3-.2 10-2 4.1 6.4-2.7 5-4.9 4.7-4.9 5.4-7.6 5.8-3 1.8-11-3.5-12.6-6-10 2.5-4.6 6-5.1 3.5-9-9.3-.8-4.8-5.7-2.2-4.6L72 218l-.5 8.3.8 6z"/>
  <path fill="#D9D9D9" d="M454.2 148.2l13.4 37 8.2 35.8 3.6 27.7 6.5 30.1-2.4 26.9 4 22 16.7-17.2 12.2-20.7 11-7.3 5.3 15.5 14.3-19.6-7-24-7.7-21.2-.8-21.9 8.6-23.2 14.6-28.5-8.2-14.6-25.6-19.1-20.7-13.9-1.6 18.3-7.4 15.9-15.9-12.6-14.2-7-17-4-7-.8-10.2-1.2 27.3 27.6z"/>
  <path fill="#E6E6E6" d="M70 402.5l2-12 14.8-8 8.2.5 3.6.2 8.2 5.5 5.6 3.4-7.1-.6-4.9-1.8-6 2.4-5.3-.7-5.4 4.8-6 4-.9 4.6L80 409l-4.5.4-5.5-7z"/>
  <path fill="#333" d="M243.4 257.4l5.5-4.9 9.8-7.3 7.5-10.3 2.2-7.1 7.9-7 4.8-6.5 4.2-5.8 4.8-9 5.8-6.7 9.6-11.8 6.3-7.3 4.4-5.5 4-5 7.6-10.2 5.4-10.6 6.5-11.4 4.6-14.1 1.4-12.2 2.5-10.6.2-6.8 2.7-4.6V74l2.5 11.6-1.6 9 .8 13.8-2.2 22.8.5 15.1-3.2 5.8-8.7-4.4-7.3 17.7-11.2 26.3-6.2 22.8-7.6 10.2-9 12.2-2.9 8.5-7.3 10-11.2 15.7-5.6 12.2-3.9 7.6-5.1 8.7-2.4 3.2-1.2-17.8-2.8-10.1-4.7-9.6-3.5-5.9-3.9-2z"/>
  <path fill="#4D4D4D" d="M211.4 276.4l-4.3-8.7-1.3-8.6-.6-7.8 1.1-6 4-3-.7-7.2-6.3-9.8-5.1-10.2.8-10.6 6.8-9 .8-9.9.8-7.8 4-4.6 3.6-9.2-1.1-10 2.1-6.8-1.3-12 5.7-10.9 3-14.6-.8-12.4-4.1-9.7-3.8-6.3-4.3-1.8-13.3 8.9-7.4 9.4-6 10-1.3 5.1-.2 5.5 2.1 2.7 2.5 3.5-1.4 5.6-.3 10.3-.5 12.5v8.6l.3 2.4 2.4-2.7 1.9-14 1-14.6 2-4.9 2-3.2 2 1.3 2.8 2 .5 7.5-3.8 9.4-1.9 12.5-1 7.8-.4 6.2 1.7 7.8 1.6 8.7.3 10.3-.8 12-.6 9.3.3 11.4.6 10 1.6 11.8 1.6 7.8 3.2 9 2 3.5 7.5 3.5zm-13-7.8l-4.1 3.5-3.3 1.7h-6l-6-1.7-7.1 5.6-8.3 3.8s-5.1 5-6 5c-.8 0-5.7 4-5.7 4l-5.8.9-11.2 6.3-10.4 7-7.6 2.9-12.3.8-5.3.6-8.5-1.2-4.3-1.8-2.8-3.1.3-3.3 4.1-2.4s7.1-2.8 8.5-3.1c1.4-.3 7.4-5.8 7.4-5.8l3.5-8.1 2.5-8.5 1.4-7.7-.6-6.9 4.4-2.8 6.3-3.8 3.8-4.3 5.8-5.6.6-8.7 1.8 7.4-1.3 9s-1.6 3.6-.6 3.8c1 .3 3 4 3 4l.6 3.5-5 7 .4 5 .8 3.3 3.3 3 5.7.8 7.4.7c.8 0 10.7-2.5 10.7-2.5l8-5 4.9-2 8.4-19.4 1.1-9.8-.6-11.8 1.2-8.2 1.6-11-.8-13.4-3-9.6-2-9.3-1.6-9.6v-9.1l3 8 1.4 5.4 3.8 5.6 1.1 6.3.3 7 2.5 9.4 2.1 8.2-.2 5.5.5 9.9 1.4 14.2 1.3 9.8 2.3 9.6 3.2 11z"/>
  <path fill="#666" d="M283.7 257s3.4 4 3.4 5 1.6 6.2 1.6 7c0 .8 1.1 8.7 1.1 8.7s4.2 8.9 5 9.7c.8.8 5.6 11.2 5.6 11.2l3.8 6.3 1 7.4.6 12 2 10.4 1 12.7 2.3 12.8v9.6l2.4 13 2.7 12.7 3.3 17 2.6 14.2 2.5 9.2.6 1.9 1.8 7.5 1.6 6.8 2.2 6 .8 7.6v4.6l-2.2-8.7-1.6-6-3-10.3-1.3-6.5-3.6-6.5-3-6-3.2-9-2.4-7.5-2-5-3.2-5-4.9-6.5-1.8-5.4-2.5-4.6-4.4-7.1-3 .5-4.3 7.6-3.3 10.4-1 11 2.5 10.6 1 5.2.6 4.9-8.4-23-6.7-17.7-6.6-15.2-2.7-11.4-1.6-5.4-.3-11.7-.3-28 .6-20.5.2-7.6 2.5-9.5 7-9.5 7.4-7.8 8.3-8.1-.7 6z"/>
  <path fill="#4D4D4D" d="M79 296.6l-5.6 3.4-4.6 3.3-5 3.5-1.8.3-1.8 1.3-1.2 4.3-3.5.5-5.1 4.1-4.4 6.5-1 6.2-2.8 2.3-1.3 4.3-3.5 4.3-2.3 3 1.2 4.6-2.3 2.7 1.1 6.8-2.4 6.2.5 8.2 1.4 2.7-.8 5.7 3.5 6.2 3.5 5.7 2.7 3.3L45 401l2.4 5 4.4 2.8c.8.7 1.7 1.6 2.4 2.5l4.1.6 3.6.2-5.2-4-6.2-9-3.9-11.7-1.3-16.8 1.9-16 3.5-10.8 6-12.2 6.4-11.2 8.2-12 5.2-6.7 2.6-5zM66 448.1l6.6-3.6 6.8-4.6 3.5-4H89l9.2-6.6 2.7-6.1s1.7-10 2.2-10.9c.6-.8 3-5.7 3-5.7l1.9-5.4-1.3-7-1.7-4.3-1-3.3 7 5.2 1.8 2.1 3.1 6.8 1.3 5.2v6.4l-.2 6.6-5.5 7.8-6.5 7-6.2 5.5-5.4 4.3-3.8 3.8h-6.3l-11 .8-4.7.6-1.6-.6z"/>
  <path fill="#666" d="M391.5 100.6s21.4 14.7 24.5 16c3 1.1 34.1 21.8 34.1 21.8l22.6 26.9 20.1 22.6-5.4 29.3-17.1 29.9.6 36.6 9.7 36.6 9.8 16.5 21.3 23.2 22.6 7.3 26.9 6.1-33 2.5-34.6-.6-30.6-12.9-17.8-39.6-9.7-66-9.2-32.3-5.8-18-8.2-30.2-15.2-28-5.6-47.7z"/>
  <path fill="#333" d="M75.8 409.3l4.7.3c.8 0 5-1.1 5-1.1s2.6-.8 2.8.5l.6 3.8-1.6 3.3-3.3 1.8-5 2.3-5-.4-5.2-1.8-3.5-3.6-2-2.4 8.2 1.3 3.2.3 3.3-1-2.2-3.3zm535-4.4l-3.2-11.4-6.1-11.7-4.5-9.4-7.3-12.2-5.3 1.2-9 4-12.2 3.3-15.4 4-12.7-1.1h-18.7l-7.3 2.4-14.4 1.1L478 369l-7.1-3.8-7.8-10.2-.4-10.6-6.5-14.6-9.3-19.5-1.2-16.3-2.5-22-3.2-18.3 3.2-14.6-7-8.2-6-10.6-9.8-13.8 5 14.3 1.2 16.7-1.3 14.5-1.6 14.7-1.2 20L420 304l-.8 14.6-.8 6.5-1.5 9.7-1 5.7-2.4 6.1-3.4 4.5 4.6 4.5 9.4 6.1 11 5.3 12.2 2.9 9.3 1.2 9.4 2 9.3 2 8.8.5 9.2 2 12.2 1.2 9.8 2.5 9.7 6.4 13.4 6.5 8.1 3.2 5-2.4 7.7-3.2 9.5-6.6 11.2-5.6 5.7 3.7 11 7.3 7.3 7 7.7 14.1-.8-6.9z"/>
  <path fill="gray" d="M413.5 557l-11-.3h-12.2l-15-.8 3.6-7.8 7-13 3.2-9.3 2-17.1-6.9-15 2-16.3-2-13.9-7.3-13-4.5-9V436l4.9 2-3.6-11-.8-14.6-1.3-15.5-5.3-10.6-5.3-13.8-5.6-13 4.8-13 5.3-12.7 11.8-14.2 9.8-17.1 6.5-10.2 3.2-12.2 11-11 6.5-2.8 7.8-2.9.4 23.3-2.9 26.8-1.2 17.5-.8 7.3-3.7 11.8-5.3 7.8-4.5 6-.8 15.9.5 22.8-1.3 11.8-2.4 9 1.6 16.2 1.6 18.3 1.6 23.6.9 17.9 3.2 22 2.1 15.4 2.4 20.4zm-62.2-1.5l-4.5-14.7-5.7-16.2-2-18-3.3-14.6-2.4-14.3-.8 12.7.3 10.6-3.2 13-4.9 8.5-4 7.8-4.6 11.7-1.6 4.5 10.6 3.2 9.4 1.7 16.7 4z"/>
  <path fill="#999" d="M304 295l-4.8-15-4-17.5-5.4-8-2.4-5.4 6.1-15.4 11-14.7 8.5-20.3 8.5-13.9 9-20.3 5.3-17.5 11-28 4-27.3.3-9-1.5-7.7-6.5-9.4-12.6-11 11.4-2 15.9-.4 9.3 12.6 17.1 17.5 7 12.2 4.8 22 8.6 15 6 13.9 2.9 13.8 9 13.4-18-8.5 4.1 16.6 6.1 14-14.2-8.7 5.7 14.3.8 10.1-11-2.8 3.7 11.4-7.3-.4 8.1 16.3-10.6-3.3 7 12.2-20-5.6-15.9-5.8-11.4-.8-9.7 1.3-6.5 14.6-3.3 6.5-7.3.4-6.1 7.3.8 6.1-6.5 9-7 18.3z"/>
  <path fill="#333" d="M714.4 357.6l-5.1 14.8-4.1 18.3-4.4 15-6.2 16.7-6.9 19.6-5.7 18.3-2 15.8 1.2 21.2 2.5 12.6s2 8.1 2.8 9.4c.8 1.2 6.2 11 6.2 11l5.2 7.3.8 1.6 11.4-2 10.2.4 8.2-2.5 9-2.8-5-17.5-7.7-19.1-6-24.2-1.1-5.9-.2-16.7c0-1.3-3.7-22-3.7-22l-.4-17.3 2-18.5 1.3-13-1.3-11-1-9.5z"/>
  <path fill="#666" d="M648.7 60.3l8.9 13 5 18.8.3 4 1.6 13.4 5 24.5 6 11.8 14.2 4.9 22 .8-9.8-13.9-.8-11.4 2-6-12.4-19.3-13.6-17.3-9.7-13.9-9-10.6-5.7-3.2-6.9-2.5 2.9 7zm8 135.1l-18.2 15-14.2 12.7-8.2 7.7-15.9 23.6-5.3 15.9-8.9 17-9.8 12.7-4 11-11.8 17.4-10.2 12.2 20-5.6 10.5-11.4 8.2-2.5 9.7-.4 3.3 3.7 2.4 6.9v11.4l1.7 10.2 2 12.6 6.1-16.7 5.7-18.7 9.3-13 15.5-18.8-6.5-28-2-26 6.9-13.1 11-20.8 2.8-15z"/>
  <path fill="#333" d="M732.9 180l3.2 17.9v17.5l-1.2 20.3-4 12.5-2.5 13.4-.3 8.4 4 21 2.6 20.9 2.6 12.1-2 11.3-3.2 26.5-2.4 13.8.3 15.5 4.8 10.5-2.7-14.6 3.2-27.2 6.5-25.6.8-10.6-3.2-25.6-.8-20.8-2.9-11.8 2.5-19.5.8-20.8.4-15.8-.8-15.5-5.7-13.9z"/>
  <path fill="gray" d="M175.4 157l-4.6-4.6-2 2.7-1.5 4.3 3.5 17.7-.8 14.1 3.7 14.4-5.7-1.9-6.5 3.2-5.6 12.8-4.7 8.1-1 9-5 6.8-1.8 7.5-2.2 2.2-4.3 3.6-2.8 1.3-6.1 7.6 2.4 13 10.8 4.6c.8.3 14.2-1.3 15-1.6a862 862 0 0017.6-9.2l9.7-24.4 1.1-24.5 1.4-17.6-5.2-27.6s-4-11.4-4-12.2c0-.8-1.4-9.3-1.4-9.3z"/>
  <path fill="#666" d="M706.4 265.4l-18.9 37.9-15.9 33.5-9.7 28-12.2 20.8-8.6 20.8-6 7.9 9 11.6 8.6 9.2 1.3 15.2 12.1 12.2 8 20.2 7.1 14.6L680 476l2-15.9 5.7-18.2 7-19.6 6-16.7 4.5-15 4-18.3 5.2-14-1.9-13.7 5.8-29.7 4-25.8 6.1-27.6 6.5-25.5-16.3 12.2-12.2 17z"/>
  <path fill="gray" d="M109.4 193.7s5.6.1 6.2.3c.6.2 8.4 0 8.4 0l5.8-1 2.6-.2 6.6-2.9h3.9l2.6 2.5 1.9 3.1-.7 6.8h-5l-9.3-.4-8.7-.6-3.6 1-3.2.1h-3.2l-5-3.8-1-3.6 1.7-1.3zm101-114.2l9-13.9L237 50.2l8.2-5.3 13.4-4.5h7.7l-5.7 9.3-6.5 7.8-9.3 5.3L243 73l-1.7 5.6-6.9-6-4-2.1v9.8l.8 3.3-12.8 4-8.1-8.1z"/>
  <path fill="#999" d="M208 253.6l.5 7.3s-.5 3.7.8 5.3c1.2 1.5 3.7 5.3 3.7 5.3l1.2 1.6s4.4.8 5.7 0c1.2-.8 6.1-2.8 6.1-2.8l4-5 4-5.2 5.4-3.2 8.1-6.2-8.5 3.7s-3.7 3.3-5 3.3c-1 0-7.6 2-7.6 2l-7.4.4-5.7-2.4-5.3-4zm-9.8-38.5l.8-10.6 6.8-9 1.6-17.7 4-4.6 3.6-9.2-1.1-10 2.1-6.8 7.1-3.5 5.7-.8 3.3 2.9 3.6 9.3-1.2 9-8.5 7.7-7.7 6.1-5 10.2-.8 10.1v7l-.4 13 1.7 6.5.3 9.8-2 4.9-1.7 3-.8-7.3-3.2-8.3-8.2-11.7z"/>
  <path fill="#333" d="M198.4 268.6l-3.4-10.1-3.4-13.6-1-10.4-.4-10.6-.8-8.4.2-6-1.5-7.2-2.2-7.3-1.5-3-.1 3.2.8 4.3.8 11.6-1.3 11-.6 12v12l-1.8 6.3-4.9 11.2-3.3 7.5-.3 1.5-.2 2.4-1.6 2.7 4.8-3.3 2.3-1.4c.6-.3 1.2-.4 1.8-.5.6 0 4.3 1.3 4.3 1.3l3.2.3 2.7-.3s2.3-1 3.4-1.7c1.4-1 2.7-2.2 4-3.5zm92.2 12.7l5.3 9.1 5.5 10 2.5 5.9 1.6 14.4 2 15.7 1.3 11 2 11.8.2 10.6.4 6.4 2.6 7.8 3.3 16.4 4.2 20.6 3.7 13.4 2.4 10.8 3.2 12.9 1.8 10 1.8 8-.6 4.3-.6-7-3.3-13.8-4-16.6-3.8-16.4-2.3-6.4-3.6-8.5-2.4-9.4-4-13.9-4.7-19.9-2.6-20.3-2.5-19-.6-13.1-1.4-11.2-3-9.6-4.4-14z"/>
  <path fill="gray" d="M632.2 192.4l-7.6 9-13 2.1-11.8 1.3h-9.7L575 212l-5.9 15.6-1.8 13.7.8 14.6-1.6 18-1.7 15.4-4 15.9-5.7 17.2-3.7 15.3 11.8-11 9.6-12.4 16.9-25 14.2-28.5 2.4-13.8 6.6-13.9 4.8-7.2 5.8-11.9 6-7.7 2.7-14"/>
  <path fill="#999" d="M101 199.7l-4.3 1.6-3.5 1.7-1.1 2.6-.7 2.8v3l2.4 1.2h3.4l4.8-1.8 1.6-1.2 3.4-1.9 1.3-1.3V202l-2.9-2.6-4.4.4z"/>
  <path fill="#666" d="M93.5 200l4.5-1.3c.3 0 5-2.5 5-2.5l3-1.5 1.5-.8 2.8-.7-2 2 1.7 1.3 2.2 2.8 1.5.8c.2 0 .6 1.2.6 1.2l.2 2-1.7 4.1-3.2 4.5-1.3 1.5-1 1.2.6-3.3-.2-2.1-.6-3-.9-2.7-2.6-2.5-1-1.4-2.7.2-2.7.2h-3.7z"/>
  <path fill="#1A1A1A" d="M90.9 212.2l2.3-3 2.2-2.3v-3.7l4-3.9 5-1.2 3.7 2.2.8 4.8s-1.5 3.1-2 3.1c-.4 0-4.9 2-4.9 2l-3.6-1-1.3-.2-2.7.8-3.5 2.4zm-8-3.7l.8 5 3.7 4.1 4 2.6 3.4.6-3.2-2.2-3-2.3-3-2.4-2.7-5.4zm12 10.4l5.5-.5 5.3-2.7 3.6-4.4 3.4-4.4 1.7-3.2-.8 3.5-3.4 4.7-3.6 4.3-5.8 3.4h-4.4l-1.6-.7zm-14.6-19.7l3.4-5.8 3.1-4 4-2.4 4.3-1.5 5.3-.5-5.7-.6-5 2-3.6 2.2-3.1 3.7-2.7 7z"/>
  <path fill="#1A1A1A" d="M83.9 204.5l1.3-5.6 2.5-3.6 4.3-2.7 5.8-1.8 4.5.4h2.1l3.4-.5 3.4-1.5-4 .7-2.3.5-2.7.3-4.1-.6-6.5 1.7-4.2 2.4-2 2.6-1.7 3 .2 4.7zm11.7 10.6l5.2-.2s3.3-2.1 3.7-2.2c.4-.2 3.2-3.9 3.2-3.9l-1.8 3.4-3.5 2.5-1.7.8-5-.4zm-6.3-1.8l-1.7-2V208l1.3-3.5 1.3-2.3-2.1 2-1 3.3-.3 2.8.6 2.4 1.9.6z"/>
  <path fill="#EDEDED" d="M98.9 202.7v-1.9l.5 1.8.5-1.2v1.2l1.1-1-.5 1 2-.4-1.6.7h1.7l-1.4.3 1.4.8-1.6-.2 2.2 1.2-2.2-.4 1 .6h-1.2l1.1 1.2s-1.5-1.2-1.4-1l.1 2.6-.7-1.4-.6 1.6-.3-2.5-.7 2V206l-1.5.9 1.3-1.4-1.7.7L98 205l-1.9.3 1.3-.7-1.3-.5h1.6l-1-1 1.3.7-1-1.9 1.1 1.1-.2-1.8.9 1.6zm8.7 1.7l-1-.6-.8.6-.3.6-.1.6.1.5v.6l.7.3.8-.7.8-.2-.2-.9v-.8z"/>
  <path fill="#4D4D4D" d="M93.6 197.9l3.1-2.2 2.8-2.3 1.5-1.3 1-1 2.3-.6-2 1-2.2 2.4-2.2 1.6-4.3 2.4zm10 11.6l-2.2 1.7-3 .9-3 .4h-1.6l4.2.3 3-.8 2.6-2.5zm-20-2.3s1.8-3.1 2-3.2l2.6-2.1 2.5-1h2l2.2-.3h1.4l-2.8.5-2.7.3-2.6 1.3-2.2 2.1-2.4 2.4z"/>
  <path fill="gray" d="M87.6 199.9l1.5-2.8 3.4-3 2.9-1.2 2.6-.6-2.6 1.2-3.2 1.6-2.4 2-2.2 2.8z"/>
  <path fill="#4D4D4D" d="M116.6 204.9l-3.4 6.2-4.2 6.1-2.8 3-5.5 3.5-4 1.2-3 .5-3.1 2.3-1.4 1.8 4.5-3.2 4-.2 5.2-2-4.3 1.2 6.3-3.3 4.3-4 5-6.7-.3.7 1-1.4 1.7-5.7z"/>
  <path fill="#4D4D4D" d="M107.9 220l-5 4 4-2.2 2.2-1.8-1.6 2.8-2.5 2.6-3.8 2.7-4 1.4-3.7.6-2.2 3.1 2.7-2.6 3-.3 3.6-.8 4.5-2.7 3.2-2.3 1.4-3.7 2.6-4 1.6-4.8-1.5 2.1-4.5 5.8z"/>
  <path fill="#4D4D4D" d="M109.2 218l-4.3 4-6.3 3.2 4.3-1.2 5-4 4.5-5.9 1.5-2.1.3-.7-5 6.7z"/>
  <path fill="#E6E6E6" d="M87 208.3s1.7-2.3 2-2.5l3.1-2.7 3.6-1.7 2.5-1.4-3.4.6-3.2 1.3-2.6 1.5-1.1 1.2-.8 1.5-.5 2-.3 1.6.8-1.4zm-3.3-3.5l1.5-5.9c.6-1 1.2-1.8 2-2.7.3-.2.3-.7.5-1l2.8-1.8 3.2-1.4 2.4-.5 3.8.4-2.9.2-2.8.7-2 .9-3 2-1 1.9-1.4 2.4-1.5 2.4-1.6 2.4zm8 17s3.9.2 4.8 0c1 0 4.5-1.6 4.7-1.6l5.1-3 3.6-4.2 2.1-2.9 1.2-1.5-1.8 3.6-1.9 2.9-1.6 1.8-1.8 2.3-3 2.5-2.7 1-3.6.2s-2.5 0-2.9-.3l-2.2-.9z"/>
  <path fill="#E6E6E6" d="M79 204l2.4-6.4 2-3.5 2.6-3.4.8-1.2 3.7-2.2c1-.5 2.1-1 3.2-1.3l4.2-.8 3.4-.3-4.2 1.5-3.7 1.7-2.8 1.5-4.2 2.8-1.8 2.1-2.2 3.4L79 204z"/>
  <path fill="#CCC" d="M35.1 435.9l-3.6-11.4-3.3-8.2-5.7-8.1-5.6-11.4-3.3-17.1.4-19.5 1.2-13 2.5-7 2-10.5 7.3-13.9 2.5-14.6 4.8-34.2 5.7-16.7 4.5-19.1 11-18.7 8.5-17.9 6.1-17.1 4-16.3 7-19.9-1.6-12.6 7.3-15.9 7-9 9.3-7.2 14.2-6.6 7-5.3 16.2-5.6 4.9-5 4.5-6.9-13 4.5-15 6.6-14.3 5.3L95 86.8 83.6 95l-6.1 15.8L70 129 58.7 158l-8.9 26.4-6 24-4.6 14.7-6.9 21.1-5.3 17.5-5.7 16.7-7.7 27.7-3.7 10.1L7 336.6l-2.9 25.2-.4 6.6 3.7 23.5 5.3 13.8 7.7 17.2 7.7 7.7 7 5.3zm243-419.1l6.4.4 9.8.8 8.6 5.8-1.2 4L313.8 38l6.1 5 10.6 11.2 16.3-2.4s10.2.4 11.4.8c1.2.3 16.3-.4 16.3-.4l13.8 1.2 6.5 4.1 19.1 1.2 16.7 2 17 6.5c1.3.4 22 8.6 22 8.6l37.5 15.9 22 8.5 16.2 7.7 20 6.1-7.4-24.8s9-4 10.6-4c1.7 0 14.2-7 14.2-7l13.4-8.9L584 53l5-5.3V42l17.8-2 11 1.6 16.2 8.1-4.8-8L616 31l-20-11-9.3-1.2-11.9-1.2-7.7-4.9-6.9-5.6-9-1.7L542 5l-21.6 5.3-22.8 2.5-32.5 2.8-14.2 1.2-30.1-1.6L385 14l-45.2-2.5-27.2-1.6-22 1.6-12.5 5.3zm321 542.4h6.4l6.1-3 7.4-11.7 5.6-22.4-1.1-36.6 1.1-17.5-2-18.3-.4-17.5-.4-15.5-6.9-8.1-3.3-7.3-7.7-3.7 8.3 16.4 4.7 19.8 2 25.3-.4 19-1.1 17.1-4.2 19.6-2 12.6-5.7 13.8-6.5 18zM172.8 153.5c.3-1 1.1-15.7 1.1-15.7l3.5-12.2 2.8-7.4 5.1-14.9 8.7-11.4 8.7-6.4 9.7-8.5 10-13.5s9.3-9.3 10.4-9.5c1-.3 11.9-7.9 11.9-7.9l-5.7-1.8-15.4 4.3L207 58l-16 16.2L183 86l-11.1 7.3-10 5-10.3 8.8-2 13.3 2.2 16.6-4 17.6-6.8 14.6-3.3 9 7.9 19 1.8 15.1 1.7 9.8 1.1 9.3.5 3 12.2-24.7 8.4-3.3c.8-.3 5.1-2.7 5.1-2.7l-3-40.4-.5-9.9v.1z"/>
  <path fill="#CCC" d="M78.4 188l10.9-7.3 10.3-.6 7.4 1.9 8.5 4.7 4.5 1-4.5-9.6-11.2-9.4-8.7-2.8-16 8-3.7 7.3-1.3 8.7.8 8.8 3-10.6zM623 58l-8.6 30.5-21.4 32.4-26.2 35.4-14.7 40.3-11 40.2 36-24.4 14.7-7.3 22-.6 12.2-1.8 8.5-9.2.6-28.1 14-31.7 5.6-19-14-25.6-9.9-17.6-7.8-13.5zM286.2 248l-3.3 5.5 4.9 11.8 3 15.2 9.8 18.3 3.7 7.4 1.8 20.7 2.5 14.7L311 363v9l7.3 31.2 8.5 39 8 34.2 1.8 23.8 19 25 4.2 9.8 14.7-10.4 4.8-23.1-19.5-30.6-10.4-24.4 19 9.2-20.8-33.6-4.9-36 4.9-20.7 1.2-19.6-11.5-25.6-.7-12.8 9.2-15.9 23.8-24.4 8-19.5-11.5-13.6-18.2-5.2-8.4 4.3-2.7 7.1L332 251l-8.9 3.5-7 6.5-4.8 11-4.9 8.7-10.8-23.7-9.5-8.8zm-69.8-103.6l25-7.9 20.8 6.1 30.5-15.2 11.6-23.2 14-17.1-13.4-1.9-23.8 12.2-8.6-14.6-20.7-6.7-9.2 3.7-14.6 4.8-8 2.5 3.1 14.6-3 22.6-5 8.6 1.3 11.5z"/>
  <path fill="#F2F2F2" d="M15.4 296.7l-5 17L8 326l-3.5 20.6-.5 18.2 1.6 14 4.8 7.2 1-9.8-4-12 4.4-20.5-.2-13.9 8.3-11.6 4.7-9 .5-9.8 1.4-16-2-9.7-.4-3.8-5.2 15.2-3.5 11.6zM265 236.5l1.4-5.7 4.4-5.4-5.8-2.5-.2-4.3 3.8-1-6.8-7.7-5.7-7.6-4.9-4.9-1.3 5.8 4.8 10.5.3 7.6-2.7 10 1.3 4.1 1.4 9 .9 3.2 4.5-5.4 4.6-5.7zm25.3-87.3l-12-4.1-4.6.8-5.7 1.9-4 3.8 9.2 3.3 23.3.5c.8 0 10.3-1.3 10.3-1.3l8.4-3.8-9.2 9.2-11.4 2.7h-10.5l-4.4-.3-4.9 3.3-2.1 5.4-2.2-6.8-2.5-3-1.6 4.4-5.4-6.3-3-2.1 2.5-9.6 8.6-6.7 7.3-5.2 11.7-4.9 7.6-3 12.8-2.6 5.4-.3s6.4.3 7.8 1l5.2 4.1 3.2 6 1 5.1-5.3 6.8-4.1-9.5-4.9-3.3-6 5.5-4 4.3-6.5-1-1.4 3.7-8.6 2zm7.2-138.5l17.5-.4 34.2 2 35 1.7 15 2.4 27.3 16.7 11 15.5-25.3-9L388.7 24l-28.5 3.3-33.7-2-14.3-6.6-14.6-8.1zM198.3 267s-2.8-7.5-3.3-8.3c-.4-.9-3.2-13.5-3.2-13.5l-1.9-18-.3-9-.3-7 .3-2.4-2-9.7-2.7-7.4v-9l-1.3-5.4-3.8-5.5-1.9-7.5-1.8-4.5-1.3-3.4-2-2.9 4.3 4.3 2.8 5.7 3.9 3.8 3.5 7.7.2 8 .8 8.8 2 4.9 1.5 8.6 1 7.8.5 8.2.1 10.6 1.5 13.4 1.4 11.4 2 10.3z"/>
  <path fill="#1A1A1A" d="M84.4 295.6c.8 0 9.3-.7 10.1-1 .8-.5 7.4-6 7.4-6l6.5-11.5 3.3-9.8-.2-5.8-.4-4.2-3.3 1.2s-5 6.4-4.7 5.8l1.4-4.2 2.3-2.9 5-2.4 3.5-1.3s3.7-1.6 4.5-1.8c.8-.2 3.9-2.8 3.9-2.8l1.2-2.3 2.6-4.4-1.3-6.3 3.9 5.1-1.3 6.6-3 5-5.2 3.4-.2 4.9-2 5-2 4.7-2.4 7.2-5.7 8.6-4.6 6.8-5.2 4.6-7.7 1.6-6.9.3.5-4.1z"/>
  <path fill="#333" d="M108.6 229.9l-7.4 6.4-1.8 3.3-1 5.3L96 251l-2.1 6.5s-.3 5.7-.2 6.1c.1.4-.3 6.8-.3 6.8l-1 6.9 2.3-7c.2-.9 0-6.8 0-6.8l.2-5.9 2.3-7.5 2.6-6.7.3-3.4s1.7-3.4 2.2-3.5c.5-.1 6.2-6.7 6.2-6.7zm5.8 16.7l-5.3 1.9-3.5 1.8-3.7 4.2-1.8 5-1 5-.6 5-.3 3 .6 4.2s0-3.9.2-4.5l.3-3.3.6-4.7 1.3-5.5 2.1-4.5 3.5-3.5 3.7-1.9 3.9-2.2zm5-9.2l-.4 5.3-1 5.3-1 3.5 1.8-3.6c.2-.3.7-4.5.9-4.9.1-.4-.2-5.7-.2-5.7z"/>
  <path fill="#262626" d="M131.2 249.9c.4 0 2.2-1.6 2.2-1.6l3-5.2 2-7.1c.2-.4.4-5.1.4-5.1l.6-3.8v4.3c.1.3-.3 6-.3 6l-1.1 4.3-1.4 3.5-2.7 4.2-2.7.5z"/>
  <path fill="#333" d="M107.4 226l-2.5 2.9-3.4 2.2-2.5.8-2 1.8-2.4 3.7-3.5 7-1 4-1 3.4v7.7l.9 2.4-.3-2.4v-4.3l.4-4.5L92 245l2.8-6.2 3-4.2s1.3-1.9 1.6-1.9l2.9-1 3-2.3 2.2-3.2zm24.7-47l2.2 5.3 2.8 5.8 2 4.2 3.3 7.4 1.7 3.9 1.6 5.7 1 3.8 1.2 4.6.3 3.4v3c0 .5.9-3.9.9-4l-1.7-7.8-1.3-5-2.1-6.6-3-6-2.5-5.5-1.4-3.5-2-3.9-3-4.8zm-2.3 2.5l2.7 5.8 1.6 4.5 2.4 7.5 1.3 5.8.9 7 .1 4.8v2l.5-7.1-.8-7-1.4-6-2.2-6.8-1.7-5-3.4-5.5z"/>
  <path fill="#666" d="M125 180.4l3.3 4.7 2.3 5.3 1.3 4.4.7 5.5.1 2.7v4.5l.7-4.9-.8-7.6-1.6-5.3-2.2-5.3-3.7-4zm.1 6.4l2.5 4.7 1 3.2.2 4.4-.4 3.8-1.1 3.1.8-5.1-.3-5.8-1.1-4-1.6-4.3zm-1 7.2l.8 4.3.2 4.6-1.4 4s-1.6 2.3-1 2.2c.4 0 2.6-4.3 2.7-4.6l.7-4.7-.7-3.3-1.4-2.5zm-6-6.8l.4 4.3.5 3.7v3.3l-.2 3.4-.6 2.8-.9 2.8 2.3-5.3.2-4.5c.1-.4-.3-5-.3-5l-1.5-5.5z"/>
  <path fill="#666" d="M129.4 203.5l-2.8 3.4-3.4 4-2.8 3.8-.6 3.8s1.3-3.8 1.6-4c.3-.4 3.1-4.1 3.5-4.4.5-.2 3.2-3.4 3.2-3.7l1.3-3z"/>
  <path fill="#333" d="M134.4 175.6s4.9 5.8 5.5 6.1c.5.3 2.7 5 2.7 5l1.3 5.6 1.4 5 .3 5.7.7-6.2-1.2-5-1.9-5.6-2.8-5.5-4-5.1h-2z"/>
  <path fill="#4D4D4D" d="M154.8 147.4l2.4 9.4 2.9 8.8 4 10.2 1.8 6.3 3.6 9.6 2.2 7.5 1 5.7.8 6 .1-6.3-1-6.2-2-7.5-3.8-9.2-1.9-6.5-4-10-3-8.6-3.1-9.2z"/>
  <path fill="#333" d="M163.7 180.5l.4 5.9 1.6 6.6 3 8.4 1.4 4.2s1.3 4 1.7 4.5c.4.4 2.5 4.5 3 4.7.3.3 3.4 6.2 3.4 6.2l4.5 5 4.3 4.8-4-5.4-4.2-5-3.6-6-2.8-5-2.2-5.2-3-10-2.2-8-1.3-5.7zm-16.4 2.6l2.6 6.2 1.6 7.2.8 6.2.2 3.5s.5 4 .9 4.2c.4.2 3 3.7 3 3.7l-2.2-4.3-1-4.3-.2-5-.6-4.4-1.6-7.3-3.5-5.7zm29.1 37.3l3 10 1.7 6.5 1.6 7.4 1.9 8.2 1.6 5.4s1.3 4.2 1.6 4.6c.4.5 2.5 6.1 2.5 6.1l-1.8-6.3-1.6-4.6-1.7-6.6-1.8-7.4-1.2-6.8-2-7.2-3.8-9.3z"/>
  <path fill="#262626" d="M146.6 245.3l-1.9 3.3-1.7 2.7-2.8 2.3-1.7.4h2.7l3.1-2.9 1.9-3 .4-2.8zm-.8 5.2l-1.2 4.7-2.8 4.8-1.7 4.1-2.3 4.7-1.6 4.6-1.9 3-3 4.7 2.5-5.8s1.9-3 2-3.5l1.8-5 2-4.4 2-4.5 1.9-3.5 2.3-4z"/>
  <path fill="#333" d="M127.7 93.5l1.6 3.2-.4 4.3.7 3.7.8 2.8-.8 5.1.8 4.3 2.4 5 1.9 3-.6 3.6 1.6-3.9-2-3.8s-2.3-4.1-2.3-4.7l-.4-5.5.8-4s-1.4-4.5-1.4-5.1l.2-4.7-2.9-3.3zm2-6.3l6.3 9.2 3.1 5.8-1.2 5.7 1.4 5.3.4 6.6v6.9s.8-7.4 1-8c.2-.5-.2-4.7-.2-5.5 0-.9-1.6-4.8-1.4-5.4l.8-6.6c0-.6-3.9-7.3-3.9-7.3l-6.2-6.7zm12.2-7.5l-1.4 3.4s2.7 7.5 3.3 8c.6.4 3.8 8.3 3.8 8.3l3.5 5.9 5.3 9.4 5.5 8.9-9-18.3-4.2-7.3-3.5-8-3-6.9-.3-3.4zm-63.2 109l-1.4 5.2-.8 5.7v5.5l.5 3 1.4 5.3-.5-5.5-.3-4.3s0-6.2.2-6.5l.9-8.4zM75 208.2v4.7l1.2 2.5 2 2.6-1.4-3c0-.3-1.2-2.7-1.2-2.7l-.6-4zM86.7 254l-2.3 5.7-1.6 4-.7 3.4-.7 4 2.2-6.5 1.6-5 1.5-5.6zm1 6.7l-1.3 6.8-1 5-1.2 4.6-.5 3.3-.8 5.2.1 5.4.9-6.1 1-6.5 1.2-5.2 1.5-6.2v-6.3zm-11.2-3.5s2 4.5 2.4 4.8c.3.3 1.8 4.9 1.8 5.2l-.3 6.2-1 5.8-1.4 4.4-1.6 5.3-1.9 2.6 3.1-3.4 2-6.7 1.3-5.8.5-8.6-1.7-5.6-3.2-4.2zm16.8 19.8l-2.7 5L89 286l-1.4 3.4v4.2l.6 2.3v-5l1-3.8s2-5 2.4-5.2c.5-.2 1.7-5.1 1.7-5.1z"/>
  <path fill="#999" d="M109.6 158.5l5-5.1s7-4.6 8.1-5c1.1-.2 10.5-4.8 11-4.8s5-1.3 5-1.3l-10.1 4.8-5.9 2.4-7.9 5-5.2 4zM96 139.2c1.5-1.3 4.9-4.3 5.5-4.6.5-.4 7-4.5 7.7-5.1l6.4-5c.4-.2 5.9-6.3 5.9-6.3l-4.5 6.4-6.8 5.2s-7.6 5.4-8.1 5.5c-.6.1-6 4-6 4zm35.1-2.8c.4-.5 7.4-4.2 7.7-4.4l7.4-4.1s4.2-2.5 5.1-2.5l6.3.2s4.9 2.7 5.8 3c1 .4 5.8 4 5.8 4l-7.4-4-4.1-2.2-6.5-.2-8.3 4.2-11.8 6z"/>
  <path fill="gray" d="M141.2 107.5l3.4 6.4 2.8 6.7 1.4 4 1.9 4.7 1.2 3.2.5 4 .2-4.4-1.4-3.3c0-.8-2-5.1-2-5.1l-1-5.3c-.3-.4-2.6-4.5-2.6-5.2 0-.6-4.4-5.7-4.4-5.7zM69 210l-1.5 8.5-.9 7.8s-1 9.9-.7 9.2c.3-.6 1.4-9.2 1.6-9.8.3-.6 1.1-8.2 1.4-9 .2-.8.1-6.7.1-6.7zm4.2 5.6s.8 6.1 1.4 6.9c.6.7 3.4 7.7 3.4 7.7l1.5 6 3 6.2 3 5.9 1.7 2-4-8.7-2.9-6.2-1.5-6.3-3.4-7.4-2.2-6.2z"/>
  <path fill="#999" d="M130.5 209l-4.2 3.7-4.5 3-4.4 3.6-4.2 6.1 5.3-5.8 4.5-3.6 4-3.1 3.5-4z"/>
  <path fill="#666" d="M148.2 157.3l3.6 15 3 8.6 2.4 7.4.6 4.5 1.8 4-.8-4.2-.5-5.8-2.2-6.7-3-8.7-4.9-14.1z"/>
  <path fill="#333" d="M160.2 232.7l-2.7 11.7-2.5 6-4.6 3.8-4.3 3.2-3 5.4 4.9-5.1 4.3-3.3s3.8-2.7 4.3-3.5c.6-.8 2.7-6.8 2.7-6.8l.9-11.4zM148 174.1s.2 5.4.8 6.3l2.1 2.4 2.7 9.5 2.3 7.8 4.9 9.5 3 3.9-2.3-5.2-4.3-9.3-2.4-8-2.2-8.7-2.5-2.8-2.1-5.4zm15.4 56.2l3.3 10.6 1 9.2.7 9.2-1.1 12s2.1-10.4 2.7-11.4c.5-1-.6-11.4-.6-11.4l-1-9-5-9.2zm-39.3 2.4l3.2-7 2.8-8.2.5-4.8.8 5.1-2.4 8.4-5 6.5zm44.8-86.7c-.3.7-.6 8.3-.6 8.3l.7 7.4 2.2 6.2 1.5 10.4 1.6 6.7 1.3 5.8 4.3 8.2 3.7 4.7-2.9-5.3-4-7.9c-.4-.5-1.6-6.1-1.6-6.1l-2.2-12.7-.7-4.9-2-6.2-.5-6.6-.8-8zm11.1 59l6.2 7.3 3.8 4.8-2.8-5.2-7.2-6.8zm-3 1.8l3.8 5.7 4 4.8c.6.4 2.5 4.2 2.5 4.2l1.5 5.5-.4-5.8-2.7-4.7c-.3-.5-4.2-4.6-4.2-4.6l-4.5-5.1zM71.4 261.9l.1 8-.6 5.3s1 6.7.8 7.3c-.2.6-1 12.8-1 12.8l2-6.4c.2-.6.4-9.5.4-9.5v-7.7l-1.7-9.8zm-40.6 8.8l9.9 10.8 6.3 7.9 3.4 6.9s4.9 3.7 5.5 5.1l2.8 5.9 1.7 6.7 2.5 1.4-1-5.5-.5-3.8c0-.6-3.4-5.7-3.4-5.7l-6-5-3.6-6.6-6.4-8.2-11.2-10zm9.5-12.4L56.9 272l4.5 11.2 2.2 8.1 2.3 9 2 4.9.8-3-1.4-4-2.5-8.1s-1.6-7.3-2.2-8.1c-.5-.8-5-11-5-11l-17.3-12.8zm-12.5 29.9l8.6 11.8 3.7 7.5 4.6 5.7 2 6.1.5 6.5 6.2 3-4.6-3.7-.7-6.2c0-.6-1.4-5.5-1.8-6.7-.4-1.1-3.5-4.9-3.5-4.9l-2.6-3.8-2.6-4.3-9.8-11z"/>
  <path fill="#333" d="M33.3 281l5.7 5 7.1 11.3 6 7.1 5 8.6.4-2.7-4.2-6.9-6.1-7.1-7.2-10.5-6.7-4.7zm-11.8 20.2L39.4 320l5 6.1s2.8 3.7 3.4 4.1c.6.4 5 2 5 2l-2.6-3.4-4.9-4.5-5.5-6.1-18.3-16.9zm13.2 5.5s4.7 8 5.3 8.3c.6.4 4.3 4 4.3 4l6.5 3.3-6.1-4.6-3.8-4-6.2-7z"/>
  <path fill="#666" d="M14.4 307l5.2 7.2c.2.4 7 6.7 7 6.7l7.7 4.6 6.4 2.2-6.2-3-7.4-4.9-6.9-6.6-5.8-6.2zm3.1 17.6s6.7 6.3 7.7 6.7c1 .3 7.4 4.6 8.2 4.9l7.2 3.2 4.3.7-4.2-1.6-7-3.3-8.7-5-7.5-5.6zm10.2 1.4c1 1 2.2 2 3.4 2.8.4 0 5.8 3 6.5 3.2l4.9 1.6 5.1.8-5-1.5-5-1.9-6.4-3-3.5-2zM14 330.4l9.1 6.6 7.4 5.1s4.1 3 4.8 3.2l6.2 2 3.3.1-3.5-1-5.7-2-5.2-3.5-16.4-10.5zm-4.8 14.2s9.8 5.8 10.4 6c.7 0 13.4 2.2 13.7 2.2h5.9l5.8-.2-6 1.3-6.2-.3-13.8-2.2-10.4-6.7-1.5-2 2 1.9zm3-6.2l7.8 6.2 5.4 2.3 10.2 1.7-9.6-2.4-5.6-2.4-8.1-5.4zm0 15.5l11.5 5.5 6.2.4H36l6.2-.6-6.2-.2h-6.4l-6-.4-11.5-4.7zm-1.3 4.5l6.5 4.8c.6.3 8.2 1.6 8.2 1.6l7 .3 6.3-.7 2.2-1-2.8.3-5.7.5h-7.2l-7.6-1.6-6.9-4.2z"/>
  <path fill="#1A1A1A" d="M35.6 356.8h5.3l3.2-.7 2.4-1.3-2.8.6-3.1.6-5 .8zm2.5-14.6l5 2.1 2.5.2 4-.4-3.6-.2-2.6-.2-5.3-1.5zm1.1-6.9l3.9 1.9 3.3.5 3 .1 3.1-.3-2.8-.2-3.1-.3-3.3-.6-4-1zm24.7-31l1 4.1-.1 4.8v2.2l.6-2.1.2-4.9-1.7-4zm-13.5 11.5l1.3 2.6 3.3 3.1 4.7 1.5-4.3-2-3.3-3.1-1.7-2.1zm-10.1 34.5l2.8.8H47l1-.5h-5l-2.7-.3zm-.6-9.4l3.9 1.2 4.7-.1 2.8-1.1-3 .5-4.7.2-3.7-.7zm4.2-12.3l4.2 2.3h3.7l4.1-.1-4-.3-3.5-.2-4.5-1.7z"/>
  <path fill="#4D4D4D" d="M527.1 362.2l4.4-13.4 10.5-16.3s7.4-9.7 8.7-11c1.2-1.2 10.1-16.2 10.1-16.2L569 291l15.3-23.3 8.4-13.2 6.8-12 8.3-13.8 11.7-15 7-10.2 9-8.6 7.9-9 11.7-9.3 15.2-7.3-14.4 9-12.5 10.1-9.8 10.6-7.3 7-6 10-13.8 17.4-10.4 17.2-13.2 21.8-13.1 20-9.8 17.7-10.6 15.4-6.7 8.6L533 350l-5.9 12.2zm104.3-90.3l-2 7.3-2.7 3.7 2.4 7.7-6 6.6-1.7 9.7-3.7 13.8-4.3 9.8-.6 7.7-3.4 7 .6 10.5-.3 12.7-5 9.3 6.3-8.1s.7-12.2 1-13.4c.4-1.3-1.3-10.6-1.3-10.6l4-7 .3-8 4.7-10.2 3-13 2.3-9 6.4-7.7-2.7-7 2.7-4.4v-7.4zM382.2 73.3s9.7 31.8 11 33.4c1.2 1.6 12.2 24.8 12.2 24.8l8.1 22.4 13.9 20.8 10.1 16.6 7 24 5.2 26.5v24.4l2.9 36.3-1.3-36.3.5-24.4-5-27.7-6.8-24.4-4.1-18.3-9-20.7-11.4-23.2-12.6-22-7.7-14.6 6.5 17.5 15.4 28 12.3 26 5.3 13.1 2.5 9.7-9.4-13.8-11.8-17.9-8.6-23.2-12.2-25.2-13-31.8zm26.8 30.2s13.4 22.4 15.1 23.2c1.7.8 7.7 8.1 7.7 8.1l6.2 15.9 10.1 16.6 10.6 16.7 5 11-3.4-13.4-10.6-15.5-10.1-16.6-6.2-15.1-8.5-9.8-15.9-21zm8.2-13l12.2 20 11.8 16.5 5.7 12.3 7.3 18.3 5.7 21.1-3.7-21.5-7.3-17.9-5.7-13-12.6-18-13.4-17.8zm46 109l5.2 30.9 1.3 17.1.3 23.2-2 28-2.4 12.3-4.1 22 6-24.9 3-23.6 1.2-27.3-1.2-18.2-3-24-4.4-15.5z"/>
  <path fill="#999" d="M565.3 159.2h5.7l13-8.5 12.6-13.9 12.2-7.3 14.7-8.1-14.7 10.1-11.4 7-12.6 14.2-13.8 9-5.7-2.5zm-61.4 46l3.2 12.6L512 228l-2.5-11-5.6-11.8z"/>
  <path fill="#999" d="M514.8 200.7l-3.2 14.2-6.1 19.5-1.6 13.5-5.3 14.6-8.6 22.8-4.9 11 6.5-10.5 9-23.6 5.3-14.7 2.4-15.9 5.7-17.5.8-13.4zM471.5 99.8l2.8 14.7 8.6 11.9 9.8 10.9 6.5 8 15.2 9.6-14.1-10.6-6.5-7.9-10-11.4-8.5-11.4-3.8-13.8zm115 6.2l-8 4.1-9.8 10-6 8.2-4.6 9.5 6.5-9.8 6.5-8.4 9.5-9 6-4.6zm17.4 58.4L593.6 176l-12.4 12.8-2.8 6-4.9 7.8-7.6 7.3-7.3 4.7 9-3.9 7.6-8.4 5-8.4 2.8-5.1 14.4-14.4 6.5-10z"/>
  <path fill="#4D4D4D" d="M547.2 246.5l-6.5 12.5-6.2 8.4-8.5 7.3 10-7s5.2-7 6.2-7.9c1-.8 5-13.3 5-13.3z"/>
  <path fill="#999" d="M493 146.2l5.4 7.3 2.2 10.9.8 15.4-2.7 7.6-1.1 8.1-3.3 10.4-4.9 10 6.6-10.3s3.2-9.3 3.2-10.3l.6-7.9 3-7.6-.9-16.2-2.4-10.4-6.5-7z"/>
  <path fill="#4D4D4D" d="M556.5 181.4c-.8.6-7.4 8.5-7.4 8.5l-1 7-2.8 7.6-3.5 5-3.3 5.9-5 5.6 6.7-5.4 4-7 2.8-5 2.1-5.6 1.4-7.6 6-9z"/>
  <path fill="#999" d="M457.2 116.3l4.6 6 5.4 11.1 7.6 11.7 8.1 11.4 4.6 3.8 6 6.8-4.6-8-5.1-4-8-11-7.5-11.5-5.2-11.7-6-4.6zm33.4 87.1l2.7 11.2.2 9.1-1.9 10.6-2.7 5.5-5.4 12.1-1.9 7.4 3.5-7.6 4.9-11.4 2.7-5.2 2.2-11.4-.6-10-3.7-10.3z"/>
  <path fill="#4D4D4D" d="M524.7 216.2l-1.9 5.1-2.4 4.7-3.3 4.8 5-4.6 2.3-5.7.3-4.3z"/>
  <path fill="#999" d="M516 220.5l3.8 11.1.3 8-1 8.8-3 5.2-3.3 6.8-3.3 6 4.6-5.8 3.3-6.7 3-5.7.8-9.2-.3-8-4.8-10.5z"/>
  <path fill="#999" d="M510 248.4l1.7 5.8-1.4 3.2 2.7 9.5-.8 9.7-2.7 8.2-3.2 10.3-3.8 7.8-2.5 8.2-1.6 11.1-3.2 20.6 5.9-31.7 3-8.7 5.2-12.2 4.3-14.1 1.1-9.7-2.7-9 1-3.8-3-5.2z"/>
  <path fill="#666" d="M8 360.6s6.4 3.4 7.2 4c.8.7 5 3.3 6.1 3.5 1.3.2 11.4.4 11.4.4l8.1-.6 3.5-.4-6.8 1.8-8.6.5s-6.8 0-7.6-.5l-7-3.2-6-3.7-.3-1.8zm0 9.2l10 2.4 9.2 2h4.5l7-1 4.6-1.2H38l-7 .6h-3.6l-9.3-1.8-6.5-1.3-3.7.3zm1.7 3.4l8.8 4.3s6.9.6 7.7.8h8.5c1.2 0 8.1-1.3 8.1-1.3l-6 2.3-8.2.2-9.7-.8-6.5-2.8-2.7-2.7zm1 12.4l9 .6c.8 0 10.8-1.4 10.8-1.4l9.3-2.8 3.3-1.3-7.8 3.5-7.9 1.8-8.1 1.4-8.5-1.8zm2.9 4.7l8.7.2c1 0 10.6-1.4 10.6-1.4l7.1-.4 3.9-1.4-4 2.2-6.8.4-10.8 2-8.7-1.6z"/>
  <path fill="#1A1A1A" d="M45.1 389.7l-4 2-4.4.8-4.2 2.3-3.7 1.8 5.7-1.8 3.1-1.3a39 39 0 014-1 17 17 0 003.5-2.8zm-1-6.7l-5.3 2-6.5 1.2-7 1s6.4.4 7.3.2l7.7-1.6L44 383zm4.9 18.3l-5.1 2.7-6 .1-4.4 1.3 5.3-.5 5 .2 5.2-3.8z"/>
  <path fill="#666" d="M13.6 399.6l8.4 1h9.7c.8 0 5-1.1 6.2-1.4 1.2-.2 7-4.2 7-4.2l-5.5 5.5-7.9 1.4-9.8-.2-8.1-2zm7.7 13.5l9-1.9s6.3-2.6 7.5-2.8c1.2-.2 8.6-3 8.6-3l2.8-1.1-7 4-5.8 2.1-6.2 2.3-9 .4zm-8.8-9.4l8.6 2 6-.1 8.2-2.3-8.1 3.5h-6.7l-8-3zm13.9 16.9s6.3-1.6 7.1-2l8-3.9 5.2-3.5L50 407l-2.5 5-5.6 4.5-8.2 3.3-7.3.8zm7.3 9c1-.3 7.2-5 7.2-5l5.8-5.2 4-6.5 1.8-4.5-1.6 7.1-4 6.3-5.7 4.7-7.5 3z"/>
  <path fill="#1A1A1A" d="M58.6 412.3l-4.4 3-6.9 1.5-5.8 1.6s5.5-.2 6-.4l7.2-1.4 3.9-4.3z"/>
  <path fill="#666" d="M46 270.1c1.6 1.7 7.9 14.2 7.9 14.2l3.5 6.8 4.6 8v3.6l-1.6-4s-3.5-5.2-3.8-6l-3.2-7.1L46 270zm17.4-48.8c-.6.8-1.4 12.2-1.4 12.2l-1.6 8-3.3 6.1-.6 6L52 258l3.2-5s0-5 .6-5.8c.5-.8 3.2-7.3 3.2-7.3s1.6-5.2 1.6-6.5c0-1.4 2.8-12 2.8-12z"/>
  <path fill="#666" d="M52.3 243.8l10.3 12.5 4.3 2 3 6.4 5.1 8.1-6.8-7.5-2.4-5.2-4.4-2.7-9.1-13.6zm5.4-31.7l-2.2 11.7-5.4 6.8-1.7 5-1.6 7.1-4 2.2 2.4-3.2 1.8-6.3 1.4-6.5s5.2-5 5.5-5.7l3.8-11.1zm85.1 60.5l6.5-3 6.3-5.5s6-1.8 7-1.8c1.1 0 9.3-2.7 9.3-2.7l-9.8 4.6-5.7 1-6.3 5.8-7.3 1.6zM39.5 432.3l5.7-2.7 6.2-5.1 3.8-3.5 3.5-6.3-3 8.2-5.3 4.8-5 3.5-5.9 1.1zm11.1 7l4.4-5.6 1.8-5.4.9-6.5 1.3-5.2.3 5.4-1.1 7.3-2.4 5.5-5.2 4.6zm11.2 2l2.4-9 .3-6-.6-5.3-1.3-5 3.2 5.8.3 6.2-1.4 7.3-3 6zm12.1.5l-.3-8.4-1.6-7-3-8.7 4.1 8.1 1.6 7.9-.8 8.1zm6.3-19.8l4 9.8-.5 6.2-1 7.1 2.9-7v-6.6l-5.4-9.5zm12.5-26.5l1.6-5.8 3-5-1.7 5.9-3 4.9zm-5.8 6.7l-1-8.4-2-3-4.3-2.1 3.5 3.5 1.7 3 2.1 7zm-3 3.9l-3.5-6.6-3.2-3.8-3.8-.2 3.5 1.6 2.5 3.2 4.6 5.8zm-4 3l-3.2-6.6-4.4-1.4 3.6 2.7 4 5.2zm9.5-1.4l3.3-6.3 2.1-3.8 2-1.9 1-4.6 1.9-3-.8 4.3-.8 4.4-2.7 3-2.2 4-3.8 3.9zm3.5 2.7l6-5.5 3.8-2.4 3.8-3.5.8-4.9 1-2.5.3 5-1.3 4.5-4.3 3-4.1 2.8-6 3.5zm-4.6-6.8L90 397l.5-6.5-2.4-5.4 1 6.2-.8 7v5.2zm6.8 10.6l8.1-2.5 4.6-4.3 4-6.8-1 5.1-3.8 5-4 3-8 .5zm-.8 4.6l6.5-.9 5.4-3 5.7-4.3 2.1-2.1-3.7 6-5.2 2.9-5.4 2.2-5.4-.8z"/>
  <path fill="#666" d="M88.6 419l6 3 6.4.3 6.8-1.1 5.2-1.4-7.6 3.3-5.2.8-6.5-.5-5-4.4zm-3.3 3.9l6.3 4.8 3.8 1 3.7.6 5.8 1.4-6.8-.3-5.2-.8-3-1-4.6-5.7zm-4 3.5l5.6 7a43.2 43.2 0 0011.7 3.6l-8.6-.6-5.2-1.9-3.5-8.1zm-3.6 6l6 5.6 6.8 3.3-8.2-2.7-4.6-6.3z"/>
  <path fill="#1A1A1A" d="M441.7 238.4l-3.3 13-1.3 16.6-.6 9.8 1.7 12.1.6 13.3-.8 16-4.7 13.9-5.1 5.4-6.6 7 8-6.5 5.6-6 4.3-14 .6-16.3v-13l-1.9-12.5.8-9.2.8-16.9 2-12.7z"/>
  <path fill="#333" d="M400.2 190.7l12 7.5s9.4 9.5 10 10.4c.5.8 4 17.8 4 17.8l-.2 9.5-.6 10-.7 11.2-1.4 11.1-.6 8.7 2-9.2L426 257l.4-11 .3-10.6.2-9.6-4-17.9-10.3-10.7-6.5-4.1-5.9-2.5zm29 8l1.6 12-.2 12.5-.8 8.2c0 .3-2.5 6.1-2.5 6.1l3.7-5 .6-9.5.4-12.6-2.8-11.7zm8.2 13l1.7 10.2 1.7 7.6 1.9 6.6 1.4 3.7.2 7.2-1.2 8.7-1.3 8.3 2.8-12.7 1.4-5.1-1-6.6-1.3-4.3-1.7-6.1-2-7.8-1-6.1-1.6-3.5z"/>
  <path fill="#1A1A1A" d="M443.8 314.2l1.7 14c0 .9-4.3 12.7-4.3 12.7l-6.5 7.7-7.2 6.3 9-6.1s5.5-7 6.1-7.4c.7-.4 4.6-13.7 4.6-13.7l-3.4-13.5zm8.3 4.3c.3 1 1.7 11.2 1.7 11.2l-2.2 6.9-4.3 11-6.1 6.9s7.5-5.7 8-6.3c.5-.7 3.6-11.4 3.6-11.4l2.5-7.7c.2-1-3.1-10.6-3.1-10.6z"/>
  <path fill="#333" d="M455.6 279s2.2 12.4 3.3 14c1 1.4 6.3 13.7 6.3 13.7l5.7 15.5s-4.7-16.5-4.5-17.2c.2-.6-6.1-12.9-6.1-12.9l-4.7-13zm-2.2-23l4 12.6 4.1 12.2 5 7.4s4.4 5.4 4.6 6l2.5 11.6-.2 7.8 1.8-8.1-2.9-11.9-5.3-6.4-4.7-7L459 268l-5.5-12zm1-47.2l6.2 14.3 1.3 10.4-.2 11.4-1.6 14.1 3.1-14.6.4-11.2-1.9-11.1-7.3-13.3zm-6.5-28.4l7.1 15.3 1 6.4 1.2 5.7 6.1 7.6-4.7-8-1.2-5.3-1.2-7-8.3-14.7z"/>
  <path fill="#1A1A1A" d="M466.2 337l-3.5 9.4-4.4 8.9-3.7 4.7-5.6 3.2s6.6-1.8 7-2.4l3.9-6c.4-.5 4-9.1 4-9.1l2.3-8.8z"/>
  <path fill="#999" d="M458 139.7s8 14.4 8.7 15l7.7 7.6 5.8 8.1c.6.8 2.9 5.3 4 6.1 1.2.8 5.2 5.1 6.6 6.3 1.4 1.2 6 9.6 6 9.6l3 8.5-2.5-10.8-5.6-8.3-6.6-6.8-4.3-5.6-5.6-8.2-7.7-7.5-9.5-14zm11 32.7s7.1 8.6 8.4 9.3c1.2.8 5 4.3 5.3 5.5.2 1.2.4 8.3.8 9 .4.9.9 1.8 1.2 2.8l-1 3.9s.8 3 1.4 3.8c.6.8 2 5.6 2 5.6l3.8 6.6-2.7-8-2.5-5.4-.6-4.3s1.3-1.4 1-2.2c-.5-1.2-1.1-2.5-1.8-3.7l-.6-9-6-5.9-8.6-8z"/>
  <path fill="#1A1A1A" d="M465.2 349l-.2 4.3.8 2.6-.2 3-1.2 4-.5 2.6 1.3 3.2.4-3.2.2-3 .8-4.1v-3.7l-.8-2.2-.6-3.5zm-34.4-109.9l-.6 9.8.4 10.4.6 6v11.9l-.8 4.7-3.5 5.9 4.5-5.3.8-5.3.2-4.3-.2-7.5-.6-6.5-.2-9.8-.6-10z"/>
  <path fill="#333" d="M437 223.9l1.5 12.2-1.2 6.1-1.6 4.3-.2 7.1 1-7 1.8-3.8 1.3-7-2.5-12z"/>
  <path fill="#1A1A1A" d="M440.8 282.7l-4.4 6.5-1.2 1.6-3.4 4.9-.6 5 .2 6-1.2 5.3-2.5 4.9-4.4 8.7 5.7-8.1 2.4-5.3 1.4-6.1-.6-5.7.6-4.3 8-13.4z"/>
  <path fill="#333" d="M454.8 304.7l1.8 8.5.4 4.9.4 6 1.2 5.1-.3 7.8 1.4-8-1.4-5.2-.3-6-.2-6.2-3-7zm-16-142.9l2.4 5.3 3.7 4.3 2.4 4.1 3.6 6.1 2.7 4 2.8 3 1.6 3.5.3 5.6 1.2-5.6-2-4-3.7-4.3-5.3-8.9-2.8-4.5-3.7-3.9-3.2-4.7zm-13.9 122.5l.6 7.3-.2 5-2.4 6 3.8-5.9.2-5.7-2-6.7zm68.5 20.4c-.6.3-4.9 8.5-4.9 8.5l-5.8 2.4-4.3 5.3-4.7 5.3-3.2 5.1-3.9 2.9-4.5 1.8 5.7-1.2 4-2.8 3-5.2 5-6.1 3.5-4.2 6.1-2.7 4-9.1z"/>
  <path fill="#4D4D4D" d="M473.3 236.5l.6 10.4 3.5 11 2 4.8 3.3 11 1.6 8.4 1.2 8.7-.6 13.6-.6 6.4-1.2 11.5-1 7.4-2.7 8.3 3.9-7.7.8-7.8 1-11.7 1.2-7.2.3-13.2-1.1-8.7-1.8-8.8-3.5-11.2-2.2-5.3-3-10-1.7-10zm-26.7 27.3l-4 12.2-1.4 12 .6 10.8 1.6 9.8 3.1 10.7-1.4-11.2s-1.8-9-1.8-10l-.7-11 2.3-13 1.7-10.3z"/>
  <path fill="#1A1A1A" d="M451.1 351.7l-4.3 5.4s-4.8 4.4-5.4 4.4l-8.2 1.2 8.4-.3 6.5-4.9 3-5.8zM436.7 336c-.8.8-4.5 9.8-5.3 10.4-.8.6-4.9 6.9-4.9 6.9l-7 3 6.3-4.5 4.8-6.4 2.5-5.6 3.6-3.8zm-2.4-83.8a264 264 0 00-6.2 15.2l-2 6.4-1.2 10.5.4 12.2 2 11-.2-11.6-.8-12 1-10 2.3-6.5 4.7-15.2zm-1.9 66.5l-4.9 10.8-1.2 4.7-.6 5.5.9 6 .5-7 .6-4.8 1.5-5.3 3.2-9.9zm39.7 32.7l-1.8 5.7-2 4.1-4.4 4.3-6 1.4-6.5 2.4 8.3-1.4 6-2.4 3.7-3.7 2.3-4.8.4-5.6zm14 9.6l-1.6 4.9-3.7 5.3-7.5 2.4 8.4-1.4 3.8-5.7.6-5.5zm-4.8-17.3l.4 9.4-3 6.5-4.2 5.5-.6 4.4-3.6 2.9 4.9-1.8.6-5.3 3.8-5.1 3.5-7.1-1.8-9.4zm14 26l-1.9 3-4.2 2.1 5-1.2 1.1-3.8zm-3.5-13.2l.2 4.7-1 3.6-2.5 4.1-.3.4-1.9 3-3.6 2.2 4.7-1.3 5-8.1.7-3.7-1.3-4.9zm34.8 11.9s-.4 4-.8 4.6c-.3.7-4 4-4 4l-6.8 3.6 7.8-2.7 4.6-4.3.5-5.4c0-.6-1.3-7.5-1.3-7.5v7.7zm-20.5-4v4.5l-1.3 3.3-2 2.3-4.5 2 6-1.4 2.4-3 1-4.2-1.8-4.2.2.8z"/>
  <path fill="#1A1A1A" d="M530.6 340.9s2.5 8.3 3 9.3c.4 1.1 1 8.4 1 8.4l2 3.8-2.9 3.5-.6 4.5v3.3l-2.1 5.7-5.2 4.4 6-3.5 2.8-6.5-.2-5.1c.1-1 .4-2 .6-2.9l2.9-3.4-1.9-4-1.4-9-4-8.5zm7.4 27.5l1.8 6.9-.8 6.2-2.2 4.9-1 4.3 2.6-3.9 2.2-5.4.5-6.3-3.1-6.7zm14.3-3.6l.2 9-1.9 5.7-4.9 6.9-6.9 3.7 8-2.5 5-8.1s2.5-4.5 2.3-6l-1.9-8.7zm-118.5-152L431 218l-1.6 6.5.4 5.3 2.4 5.9 1.7 4L435 250s.4-9.5.2-10.6c-.2-1-1.8-4.8-1.8-4.8s-2.5-4.5-2.7-5.3c-.2-.9-.4-5-.4-5l1.6-6 1.8-5.5zm7.6 134.8l-5.5 7.5-5.5 4.3-3 .6 3.2.2 6.3-4.7 4.5-7.9z"/>
  <path fill="#1A1A1A" d="M556.3 366.9l-.2 6.5.2 7.3-4 7.6-5.6 6.5 6.7-6 4.1-7.9-.6-7.5-.6-6.5zm14.9 1.2l-2.3 6.1-.4 3.9-3.9 4.2-1.6 4 3.3-4 3.8-3.6v-4.5l1-6z"/>
  <path fill="#1A1A1A" d="M561.2 361.4l1.6 3.3.4 4.2v4.3l-1 6v.1l-4.3 8.3-2.4 3.7 4.1-3.2 3.6-9.2 1.3-6.1-.3-4.9-.4-3.7-2.6-2.8zm28.9-3.3l-1.4 6.7-5.3 5-5.1 6-4.5 4.3 5.5-3.4 5.5-6.6 5.3-4.5v-7.5zm-12.8-6l1 4.6v3.5l-2 8-3 9 4.6-9.3 1.4-8.1V356l-2-4zm20.1 16v7.5l-2.6 4.5-4.7 3.7 5.5-2.4 2.8-5.8-1-7.5zm-5.7-14.4l1.5 6 .8 6-2.3 4.9-1.8 3.4-2 8.6 3-7.5 2-4.5 2-5.1-.7-5.9-2.5-5.9zm14.8 30.3l-1.6 6.7.6 5 2 6.2 2.1 4.5-.8-5-1.8-5.6-.7-6.1.2-5.7zm-6.4-6.1l-.5 6.3-3.4 2.6-4.9-1.2 4.3 2.5 4.8-2.9-.3-7.3zm-57.2-17.1l2.7 5.9-.5 5.1-.4 6.9-1.8 4.3.6 10 .6-9.8 1.8-4 .5-7.4.1-5.3-3.6-5.7zm-26 0l.1 6-1 6.2.2 3.2 2.5 6.6-1-6.6-.4-3.6 1-5.5-1.4-6.3z"/>
  <path fill="#666" d="M115.9 245h-4.3l-3.8 1.7-3.5 1.2-2.2 1-2.7 2.7-2 5.5v3.6l1.4-4.9 2.4-4 3.1-2.9 4-1.4 3.8-1 3.8-1.5zm-6.7 19l-.6 7-1.5 6.4-2.8 6-4.2 5-3.5 3-4.3 2 4-3 3.1-2.9 4.3-4.8 2.6-6 1.5-6.2 1.4-6.5zm-21.6 36.8l5 .4 4.6-.6 3-1.2 4.5-3.1 3.9-5.6-2.5 6.4-5.7 3.9-5.3 1.4-5-.2-2.5-1.4zm34.6-43.4l-1 5.3-3.5 5.5-1.6 4.8-1 4.6-2.8 3.8-2.3 4.1-3.8 6 5.3-5.6 2-4.4 2.8-3.5 1-4.9 1.7-4.9 3.2-5v-5.8zm8.2-12.8l-1.7 6.4-1.6 3.4-3 2 3.6-1.2 2.2-4.2.5-6.4zm-4.3 19.2v5l.6 5.8 2.2 6.8-1.4 5.3-.6 5-.2-5 1-4.6-2-6.7-.6-6.3 1-5.3z"/>
  <path fill="#1A1A1A" d="M87 302.2s.6 1.4 1.2 1.9l3.5 2.2 3.9 1.2 3.8.3 5.7-1.1 6-1 5.2.4-5.3-1.4-6.3.8-5 1-3.9-.2-3.7-1.4-3-1.9-2-.8z"/>
  <path fill="#999" d="M68.9 232.7l-1.6 8.3.6 6.3 1 4.9 1.4 2.5 1.9 4.2 1.6 2.8 1.4 7-.6-7.6-1.8-3.6-2-4.5-1.7-5.5-.4-6.5.2-8.3z"/>
  <path fill="#666" d="M107.8 300.1c.3-.4 5-3.7 5-3.7l2-3.4 2-4 2-6.2 2-4.4 3.2-3.5-2.3 4.5-2 4.3-2 5.5-2.2 4.3-2.3 3.4-5.4 3.2z"/>
  <path fill="#1A1A1A" d="M119.6 271.8l1-4s1.3-2.1 1.8-2.3a29 29 0 012.5-.6l-2.3 1.5-1.3 1.7-1.7 3.7z"/>
  <path fill="#666" d="M126.5 270.4c.2-.7-.2-4-.2-4l1-1.5v-.3l.5-1.9.2-2.9 2-1.6 3-2 1.6-2.5 1.4-1.4 1.3-1.7 1.8-.6 1.7-3.5-1.2 3.8-2 1.3-1.7 2-1.7 1.9-1.9 2-2 1.4-1.4 1.6-.4 2.8-1.5 3.3-.5 3.8zm-11.7 28.2l3.2-2.6 1.5-2.2 1.9-3.2-1.2 3.7-1.5 2.2-4 2.1z"/>
  <path fill="#666" d="M113.1 300.2c.7 0 5.3-2.4 5.3-2.4l3.8-3.8 3.4-3.8 2.6-3.3 1.3-3 2.9-3.6-2.7 4.7-1.5 3.3-3.6 4-3 3.6-3.4 3.4-5 1zm18.2-12.2l2.5-1.4 2-2.7 1.7-3.6.7-3.5.7-2.9 1.5-3.5 2-3-1.4 3.4-1.7 3.8-.7 4.4-1.2 4-2.4 3.4-3.7 1.6zm8.6-1.4a45 45 0 002.5-2.6l2.6-4.5 2.5-4 2-2.4 2.5-2.2 3-1.8-4.6 4.2-3.3 4.3-2.3 4-2 3.7-3 1.3z"/>
  <path fill="#1A1A1A" d="M137.4 291l4.1-1.1 4.9-3.3 3.2-2.6 1.4-3.8 1.4-4-.7 4.2-1.5 4.3-4.2 3-4.2 3-5-.1"/>
  <path fill="#999" d="M96.8 131.5l-6.7 1.9-3.3 1.6-5 3.9-4.2 4.2-5.3 8.6-2 5.3 4.7-6.7 4-6.6 6.2-5.8 5.9-3.1 5.7-3.3zm7 33.2l-6.8-1.3h-5.6l-6.8 2.7-6.2 4.3-1.4 5.3-2.2 6.7-.6 7 2.2-7.6 2.2-6.9 3.5-5.3s6.3-3.5 7-3.7c.6-.2 5.9-.8 5.9-.8l8.9-.4z"/>
  <path fill="#999" d="M124 173.2l-5-5.4-6-4.1-5.5-2-4-1.3-5.7-.2-9.6 1.6s8.6-.6 9.6-.4c1 .2 4.7 0 5.7.3l8 2.4 5.8 3.8 6.7 5.3zm-28.2-5.9l5.2 1.7 10.5 5 3.4 3.3 4.3 6.5 2.2 6.1-3-5.6-4.1-6-3.5-3.2-10.2-4.9-4.8-2.9zm-23.6 13.9l-.8 9.2 2.6 9.1-1.4-9.6-.4-8.7zm14.6-22.8l-7.7 4.2-4.7 6-2 5.4-1.7 6.4 2.7-6L76 168l4.1-4.2 6.7-5.3zM36 261.6l5.5 1.7 7 3.3 3.3 2.5h5l4.7 2.4 4 4.5 2.3 4.6.8 6.3-2-5.4-2-4.3-4-4-3.8-2.7-5-.2-4.1-2.5-6.4-3-5.3-3.2zm24.7 166.3l-.6 5.3-2.9 5.3-4 3-3.1 1-5 1 6.2-.3 4-2L59 438l2-5-.4-5.2zm-24.2-15.2l-6.3 1.6-5.3.2-7-.8 5.5 1.8h6l7-2.8zm47.6-6.6l-.4-5.6a100 100 0 00-1.9-4.3l-3-3.5-5.1-1.8 4.8.4 4.4 3.7 2 5.3-1 5 .2.8zM22.5 282.9l4.5 1.8 7.1 4 4.3 4.4 3.3 5.7-2.3-6.6-4.7-4.4-7.7-4-4.5-1zM7.1 347.8l4.5 3 3.4 2.7 2.8 4 3.5 2.3 5.7 1.6-6.3-.8-3.7-2.2-2.8-4-3-2.7-4.1-4zm.2 25.8l6.5 5.1 5.7.8 6 1.2 6.4.5-6.1.3-6.5-1-6.8-1.2-5.2-5.7zm58.1 43l1.7 5.2 2.7 7.5L72 433l-.3 7.2-3.6 4.8-4.5 2 4-3.4 3-4 .3-5.8-1.6-3.7s-3.2-6.4-3.2-7.2l-.7-6.4zm29-12l5-2.7 2.7-4.7.8-4-.4-5.4 1.4 5.1-1 5.5-3 4.7-5.6 1.4zm-2 8.3l5.4.8h5.2l5.2-.4 4.2-1 2.7-1-2.8 2.4-6 1.3-6-.7H96l-3.5-1.4zm13-321l-9 .6-5.4 3.8-5.7 5.7-3.8 7-6 13.6-1 6.5-1.7 7 4.4-8 .5-6 5.7-12.8 4.1-7.3 6.5-5.7 3.5-2.2 8-2.2zm-28.2 63.8l-8.1 5.2-1.3 2.6-3 6.5-2.5 6.1v.2l-1.9 9.5.5 5.7V202l2.2-10.9-1.1-6 4-14.6 4.1-9 7.1-6zM54 191.5l1 8.6.6 3.9 2.7 6.7 2.4 5.7 3 3.6 3.8 5.5 1.7 5 2.1 8.5-.5-9-2.2-5.7-4-5.7-2.5-3-2.5-5.7-2.7-6-1-6.2-2-6.2z"/>
  <path fill="#999" d="M91.6 152l5.4-1.1 6.1-1.9s4.4 0 5.5.3c1.2.2 1.9.5 3.8 1 2 .6 5.2 3.3 6.5 3.7 1.4.4 5.7 6.2 5.7 6.2l2.5 4.3 1.2 9.3-2.6-8.8-2.7-4.6-5-5-6.1-3.7-6-1.4-3.6.3-6 1.9-4.7-.5z"/>
  <path fill="#666" d="M83.2 171.1c.8-.2 6-2.4 6-2.4l5.1.2 8.4 4 2.7 2 3.3 3.8-4.6-3-3-1.8-6-2.5-5-1.1-7 .8z"/>
  <path fill="#666" d="M79.5 187.5c.2-.8.2-5.3.8-6l.9-1.4 1.8-2.7 4-2.2 4.1-.3 4.4.3 5.4.8-5.6.3-5-.3-4.8 1.4-2.7 3.2-3.3 6.9z"/>
  <path fill="#999" d="M95 101.2l8-4 7.5-.6 8.2 1 3.5 2.2 3.3 3.5c.8.8 1.5 1.8 2.2 2.7.5 1.1 3.2 5.5 3.2 5.5l4.6 5.1-6-4-4-5.5-4.4-5.1-6.1-3.5s-5.5-.6-6.3-.3c-.8.2-6.2.6-6.2.6l-7.4 2.4zM87 143.3l-4.7 1.8-7 2-4 4-2.8 3s-3.3 4.7-4 5c-.7 0-3.6 4-4.9 5.6l-.6.8-2.7 9.8.6 8.1 1-8.4 2.5-9 3.2-4 5.4-6.2 6-6 4.9-3 7-3.5z"/>
  <path fill="#999" d="M60 175.5l-2.7 4.1-1.8 2.7-4.9 8.1-1.9 6v7.6l-.3 5.6-2.7 6.8-3.5 6.8-1 7.3 2.9-7 3.2-6.5 2.5-6.8.3-6 .5-8.4 1.7-5.7 7.8-14.6zm-20.9 59.7l-1.6 5.4.3 4.6 3 5.5 4.3 3.8 3.8 3 4.6 5.9-3.5-7.6-4.6-3.2-3.8-3.5-2.7-5 .2-9z"/>
  <path fill="#CCC" d="M117.9 109.9l-4.7-3.6-4.8-.5-6.6 1-5.4 3.3-6 6.2-4.6 7.7-5 5.4 6.7-4.6 6-9 5.6-5.4 6.3-2.7 4.9-.3 7.6 2.5zM89.7 127s3-.6 3.6-1.2l3.3-2.6h2.5l3.4 2.2 1.3.7 1.6-3.5 1.2-3.7 1.8-2-2.8 1.6-1.5 2.9-.4 2.4-3.7-1.4-3.8-.4-3.3 1.8-3.2 3.2z"/>
  <path fill="#999" d="M68.5 190.5l.6 5.2.8 2.2v4l-.8 4 2-3.8v-4.4l-1-3-1.6-4.2z"/>
  <path fill="#CCC" d="M106.8 144.3l2.2-1.4 1.4-3 1.4-3.3 1-1.8 2.3-1.7 2.6-1.1-2 2.2-2 1.6-1.4 2.9-1.5 3.2-4 2.4z"/>
  <path fill="#666" d="M158.2 209.6l2 6.4 3.3 5.5 2.7 3.6 3.4 3.7 2.5 3 1.2 3.5 1.6 8.1-2-7.3-1.5-3.2-2.6-3.3-3.6-3.5-2.5-3.7-3.4-5.4-1-7.4zm20.6 36.3l-.2 6.5-1 4.5-2 2.8-1.5 3.5s2.2-2.3 2.6-2.9l1.9-2.8 1-5.6c.2-.6-.8-6-.8-6zm-27.5-34.2l1.6 5.7 1.2 5.5-.1 5.5-1 4.5-.9 5-1.8 5 3-5.2.7-5.3s1.6-4.4 1.6-5.2c0-.8 0-5.1-.2-5.7l-1.9-5.7-2.2-4.1z"/>
  <path fill="gray" d="M152.7 74l-1.4 4.4-.4 5-1.3 4.8-.8 4.5v4.5s-1.2 3-1.2 3.6l-.2 7.1 1-6.1 1.4-4.6.3-5 1.2-4.3 1.4 2.5 1.4 2.7.2 3.3v3.8l.6 2.5 1.7 4.9 3.2 4 1.4 3.7-.3-4s-3.3-4-3.3-4.5c0-.6-1.9-5-1.9-5l-.6-4 .2-5.3-2-2.8-1.6-2.9.2-4.4.6-3.7.2-4.8zm-5.3 56.6l-2 3.2-.4 1.2-.4 1.6-.8 3.7.2 3 1 3.7-.8 6 1.6-6-1-4.3.2-4 2.4-8.1z"/>
  <path fill="gray" d="M151.1 109.2s1.3 3.9 1.3 4.7c0 .8 1.2 5.6 1.2 5.6l1.8 2.7 1.3 3.7 2.6 3.8 1.2 4.3 2.3 6 1.4 5.1-.2 4.7s1.4-3.7 1.2-4.4l-1.6-5.7-2-6-1-4.2-4-6.3-.6-2.2-1.9-2.5-1-4.9-2-4.4zm-15.9 100.2l.6 5.3c.2.7.2 5 .2 5l-.6 3.8-1.4 5.5-1.4 2.8 2.8-3.8 1-4.7.4-5.7-.2-3.5-1.4-4.7z"/>
  <path fill="#CCC" d="M135 130.1s-3.6 3.7-3.6 4.3c0 .6-1.5 3.8-1.3 4.7.2.8 0 3.8 0 4.4l.3 6.8-.6 5-1.9 3.9 2.8-3.5.7-5.6-.2-6.6-.2-4.6 1.6-4.3 2.4-4.5z"/>
  <path fill="#999" d="M137.7 76l-5.1 1.6L130 80l-1 1-2.2 3.8-1.2 4.3.8 2.5V96l1.2-4.5-.6-3.2 1-3.9 3.1-3.7 3.1-2.4 3.4-2.4zm2.4 77l.4 7.2.2 2.7.3 3 .8 1.9 1.4 3.8 1 3 .8 7 .2-7.1-1-3.7-1.5-4.3-.8-3.2-.4-5.3-1.4-5z"/>
  <path fill="#333" d="M173.3 215.7l-.4 5.1.4 4.7 1 3.7-.2 5.7-1.1 7.2-.1.7.4 5 2.5 4.4c-.5-1.5-1-3-1.3-4.5l-.6-5.7 1-5 .6-3.3v-5l-1-3.4-.2-3.8-1-5.8z"/>
  <path fill="#999" d="M183.8 71.9l8.5.5 3.5 1c1.8 1.4 4 6.8 4 6.8l.6 7.4.8-7.4c0-.8-2.5-5.6-2.5-5.6l-2.4-2.5-4-.8-8.5.6z"/>
  <path fill="#999" d="M172.5 68.6s1.8 3.5 2.6 4c.8.6 2.5 2.2 3.6 2.5 1.5.3 3 .5 4.6.6 1.5-.2 3-.2 4.6 0 1.7.3 3.5.8 5.2 1.3l2.1 2.2 1.4 4.6-.8 6.5-.6-6.3-1-4.3-2.8-2.1-5.7-.8h-5.2L177 76l-3-2.2-1.5-5.2zM162 82.4l.2 8.2 1.4 7.6 1.9 4.3 3.8 5.2-2.7-6-1.9-3.8-1.4-7.3-1.3-8.2zm-5.2 13.1l4 10 4.1 6.5c.5.8 1.2 5.2 1.2 5.2l2.1 1.6.8 3.5 2 2.5 2 4.9.4 4 .8-4.6-2.2-5.4-2.1-2.7-.6-2.7-2.5-2.2-.7-4.6-4.1-6.8-5.2-9.2zm48.3-9.5l2.7-2.8 3-5.6 1.6-5.7 3.3-4.1-2.2 4.6-2 6.2-2.6 5.2-3.8 2.2z"/>
  <path fill="#333" d="M196 182l-2.4-6-.2-7.3.2-8.4.8-5.4v-6l2.5-7.8-1.1 8.7.3 6.2-1.1 5.4-.6 8.7.3 5.4 1.4 6.5zm2 11.1l-.9-7 .6-9.5-.8-8.2.5-7.2v-8l.3-5.1-.6-4.3 1.7 5.1-.3 6v7.3l-.3 6.8.6 5.7-.3 4-.3 7.4-.3 7zm.7 10l.6-7.6 1-10.4-.2-7.1v-6.6l.4-7.5-.6-5.3.4-4.3-1.2-8 2 6.2v7l.3 4.8-.3 7.3.3 7.8v6l-.9 9-1.8 8.8z"/>
  <path fill="#666" d="M198.1 204.8l-.6 5.4-1 2-.7 1.5 1.5.2h2.8l2-1 2.5.2-2.4-1.2-2.2 1.2-2.3-.4 1-2.4.2-2.5-.8-3z"/>
  <path fill="#999" d="M189.4 47c1.6-1.3 12.5-7.8 12.5-7.8l11.9-2s5.3.8 6.5 1.6c1.2.8 8.5 3.2 8.5 3.2l2.5 2.5 2.4 7-4.4-7.4-10.2-3.7L213 39l-10.2 1.7-13.4 6.1zm-21.6 12.2L162 64l-3.2 6-.5 1 3.7 9.7L167 90l6.1 5.3.8 16 1.2-6.2V93.7l-6.5-5.7-5-8.5-2.4-8.6 2.5-5.3 4-6.4zm11.3 96.4L176 149v-8.5l2-9 3.3-6.9 3.2-6.9-1.2 7.7-3.6 7.4-1.6 8.9-.5 6.1 1.6 7.8zM192.6 53l4.5 4 1.6 3.8 1.6 4 1.3 4.5 4.8 6.5-2.8-6.9-2.8-9.8-3-4-5.2-2zm83.2-28.8s5-3.7 6.6-3.7l7.7.4 6.9 1.6 7.3 4 3.3 5.3 2.4 11.4-4-9.7-5-5.7-5.6-3.3-9-2-10.6 1.7zm-37.2 3.2l10.5 2 7.4-.8s7.3-.4 9.3.4c2 .8 9.8 5.7 9.8 5.7l1.6 9.4-2.8-7.8L265 31l-8.6-.8-8.9 1.3-9-4.1zm87.9 32.1l7.7 4.9 5.7 6.1 4.4 5.3-.3 9.8-3.7 13.4 1.6-13.8.8-8.6-4.5-5.2-4.8-5.3-7-6.6zm-44.8 31l-6.5 7.3-4.1 9.3-4 6.5-7.4 7.3 8.6-5.6 4.5-7 4-9.7 1.3 4 2 4.1 2.8 4.9-.4 5 2.5-5-2.5-5.7-2.8-5.3-.5-3.2 2.5-7zM26.6 269l1.6 8.9v8.6s-.8 4.4-.8 5.6c0 1.3-2 9-2 9l-2 7-3.8 6-6 7.7-3.7 6.5-.6 9.6 1.8-8.8 3.7-7 4.5-6.3 3.7-5.6 1.6-2.4 1.9-6.5 2.2-10.4.4-5.5V278l-2.5-9zm2.3 46.3L23 327l-3 5.3-1.2 7.1-2 5.6-1 4.8-.3 8.6-.4 6.3v3.7l.4 6.2.6-5.9V364l.2-8.7.5-5.5 1.2-6 2-4.8 1-6.5 3.7-6 4-11zm-18.6 50.9l.6 6.5 1.6 6.5.7 4.9.2 6.9 1 5 1.7 5.8 3.6 7.5 1.6 3.7-.8-4.5-3.3-7-1.8-6-1-4.9-.2-7-.4-5-1.9-6.3-1.6-6.1z"/>
  <path fill="#999" d="M41.2 275l-1.6 7.7-.4 5.3-1.8 6-1 6-2 3.4-1.7 6.3-1.2 6.1-1.4 5.5-4.1 6.2 4.9-5.6 1.6-5.8 1.2-7.4 1.6-5.7 2.5-3 .8-6 1.7-5.7.3-5 .6-8.3zm-15.8 73.8l-1.8 7.3-.6 7.8.3 6.5-.8 4.7.5 5.2.6 5.3.8 5.1 1.8 7-.6-7.2-.8-5.3-.9-4.9-.6-5.2 1-4.5-.1-6.7.2-7 1-8.1zm12.4 74l4.5 6.2 5 2.4 5.2 1 5.6 2.8 2.5.8h5.3l4.4-1 6.4-1.6-6.8.9-4 .8h-5l-2.5-1-5.8-3-4.8-.7-4.9-2.5-5.1-5z"/>
  <path fill="#4D4D4D" d="M417.9 271.5l-6 10.6-8.1 11.1-6.6 10.3-4 7-3.8 10.6-1.6 9.3-.6 13.8 1.9-13.3 1.4-9.8 3.5-9.5c.2-.8 5-8.1 5-8.1l6.7-10s7.2-9 7.6-9.8l4.6-12.2z"/>
  <path fill="#4D4D4D" d="M401.9 303.7l-5.8 9.8-2.7 9.3-1 9.5v9.2l.5 9.7.5 13.9 1 11.7 1.4 9.2 2 8.1s0-6.8-.3-7.8-1.1-8.5-1.4-9.5c-.2-1-1-12.3-1-12.3l-.6-13.2-.6-10.4-.2-8.6 1.3-9.2 2.2-8.7 4.7-10.7z"/>
  <path fill="#333" d="M411.3 303l-4 9.2s-2.5 6-2.2 6.8c.3.8-2.7 7.6-2.7 7.6v6.8l.3 8.3-.3 8.5-.3 9.2 1.7-9.5.5-8.6-.5-8 .2-6.8 3-8.9 2.2-6.8 2.1-7.9zm-3.8-2.8l-5 12-3.9 9-3 7.8-1.6 7.3s-1.9 6.8-1.9 7.6l-.6 14.2s-.2 7.5.3 8.3c.6.8.6 7.6.6 7.6s.8-15.1 1-16c.3-.9 0-13.8.6-14.9.7-1.1 2.5-9.7 2.5-9.7l3.5-11.7 4-8.7 3.5-12.8z"/>
  <path fill="#4D4D4D" d="M387.4 321.7l-1.6 17.3v14.1l2.2 17.4 1.4 4.6 3.2 7.4 2.2 4.5-6.5-10.3-1.7-6-2.4-17.6.3-14 3-17.4z"/>
  <path fill="#4D4D4D" d="M417.6 260l-.8 4.7-1.1 8.1-6 8.2-3.8 5.4-4.9 7-5.1 6-3.8 5.8-4.9 10.2-2.7 10-1.4 7.7s0-7.4.3-8.2l2.8-10.3 4.5-10 4.3-6.8 5-6 6-8 4.9-6.6 3.2-5.4 1.3-7.3 2.2-4.4z"/>
  <path fill="#333" d="M381 327.6l-2.5 15.3-2.7 9.2-.3 8.1c0 1.1 2.2 12 2.2 12l3.8 7.6 3.5 6.7 5.2 5.1 2.4 1.7-4.6-6.3-1.8-2.7-3.6-6-3.3-6.7-2.4-11.1V352l2.7-9.5 1.4-14.9z"/>
  <path fill="#4D4D4D" d="M368.2 365.3l4.1 8.2L378 384s5.1 8.6 6 9.2l8 7.6 5.5 2.1 1.9.3-5 .6-3.6-2-8-7.5-6.2-9.2-5.4-10.6-3-9.3zm47-110.3l-3 8.6-5.5 8.5-7 10.3-6.8 9.7-4.3 9.8-1.4 6.5.2 13.3s-2.7-12.2-2.1-13c.5-.8 2.1-8.7 2.1-8.7l3.9-8.7 8.9-11.6 6.5-9.8 3.8-7 4.7-8z"/>
  <path fill="#4D4D4D" d="M416.5 242.5c-1 1-8.4 17.6-8.4 17.6l-6.5 9.5-9 12.2-5.2 10.8-3.5 10.6-2.4 10.5v7.2l-1.6-7.3 3.5-12.2 4-12.2 3.6-9.5 9.5-11.7 6.8-9 9.2-16.5zm-41.2 71s-4.7 13.9-5 15.5c-.2 1.6-2.9 13.5-2.9 13.5l-.6 8.5a92.8 92.8 0 006 17l3.3 8.7-1.9-9.8-3.8-9.2-2.2-7.6s.3-7.3.8-8.1c.6-.8 3.3-13.3 3.3-13.3l3-15.2z"/>
  <path fill="#4D4D4D" d="M378 316c-1 1.4-4.1 14.1-4.1 14.1l-1.4 10.5.8 6-1 6.2.8 8.2s.2-6.8.6-7.6c.3-.8 1.3-6.8 1.3-6.8l-.8-6.2 1.6-10.6c.3-1.1 2.2-13.8 2.2-13.8z"/>
  <path fill="#999" d="M323.3 333.7l9.7 3.7 10.6.8 14.2-.8c1.3 0 8.2-1.3 8.2-1.3l5.7-.4 11.4-3.3-11.8 5.3-6.6.5-7.7.8-14.2.8-11-.4-8.5-5.7zm0 22.8l5.6 13.9 2.4 8.1 4.9 9 10.2 10.1-11-8.6-6-8.9-2.6-9.7-3.6-13.9z"/>
  <path fill="#4D4D4D" d="M344.3 405l9.3 9.7 5.4 7 4.6 7.4 5.7 5.4 8.7 6.5 6.7 9.5 7.7 11.7-9-10.3-6.5-9.5-9-6.8-5.4-5.2-5.1-7.8-5.2-6.5-7.9-11.2z"/>
  <path fill="#4D4D4D" d="M333.8 402.5s6.8 11.4 7.6 12l7.9 6.1c1 .8 5.4 5.5 5.4 5.5l6.1 6.2 5.8 6.5 3.8 4.6 5.4 3.3 5.7 2 6.8 2 3.5 3-4.4-1.8-6.7-2.2-6-1.9-5.7-3.5-9.2-10-6.5-7.4-5.5-5.4-7.5-6.2-6.5-12.8zm4.6 17.1l6.7 5.7 10.4 10.3 4 3.2 6 7.1 7 5 5.2 4.2 4.6 6.5 7.6 3.8-8.1-2.4-5-6.6-5.3-4.3-7.4-5-6-6.7-3.4-3.5-10.6-10.5-5.7-6.8zm11.1 18.2s6 6 7.6 7c1.6 1 9.5 7.9 9.5 7.9l5.1 6.5 3.6.8s3.2 4 3.8 5a39 39 0 0012.7 9.7l-7-2.7-6.2-5.8-3.6-4.3-3.8-1.3-5.7-6.6-9-7.8-7-8.4zm1.4-79.2l6.2 11.6 3.8 9.5 9 10.9 6.5 5.4 10.2 4.6-11-3.2-6.9-6.6-9.2-10.2-3.8-9.3-4.8-12.7z"/>
  <path fill="#999" d="M351.4 426.9l3.3 10 2.4 7.9s3.2 10.3 3.8 11c.6.8 4.6 6.4 5.7 6.9 1.1.4 6 3.5 6 3.5l6.2 8-7.3-6.6-4.6-3.5-7-6.8-4.7-12-1.9-7.3-1.9-11.1z"/>
  <path fill="#1A1A1A" d="M277.8 262.8l5.6-11.1 3.8-6.3 3.9-7.9 1-4.9 5.4-10c.5-.7 5-12 5-12l2.7-9.2 3.2-10 .3-7.9 2.1-7-.8 7.6-.2 7.6-3.3 10.9-3 10-4.9 11-5.4 10.1-.8 5.2-4.3 7.9-3.6 6.7-6.7 9.3zm-4.2-12.3l1.4-8.6.8-6 3.5-5.5 3.6-4.3 4.8-5 5-5.4 2-3.8 2-4.3 1-5.3v6l-1.8 4.8-2.4 4.8-5.5 4.6-3.8 4.3-4 4.8-2.8 5.3-1.3 7.6-2.5 6zm-13.9 10.7l4.4-2.5 6-6.4.8-4.4.5-7.9v-6.5l2.4-5.4-1 5.7.2 6.2-.5 8.7-1 5.2-6.4 6.2-5.4 1z"/>
  <path fill="#4D4D4D" d="M321.5 170.6s-3 6.2-3.5 9c-.5 2.7-1 7-1 7l-.6 7.6v6l-2.2 9.4-3.5 4.1-1.3 7-1.2 9.3 1.2 6 .2-6 1.7-9.5.8-5.4 3.2-5 2.7-9.6v-5.7l1.1-12.3 2.4-11.9zm-15.4 53.1l-4.6 6.6-4.1 6.7-.2 4.7.5 6.5v5.1l-.8 5.7 2.5-5.4.2-8.1-.5-7.4 3.8-7.3 3.2-7z"/>
  <path fill="#4D4D4D" d="M331.9 163l-5 12.8-1.3 6.5-4.3 6.5-6 9.4-2.7 4.4-2.1 6.2 3.7-5.4 4.1-6.5 5.7-9.2 3.8-5.4.8-7L332 163zm-17.1 63.4l-7.9 8-2.7 4.8-2.7 9-1.4 8.4-5.1 10-1.4 7.6 1 7.6 1-7.3 1-8.4 5.7-10 .5-8.2 3-9 3.6-5.1 5.4-7.4z"/>
  <path fill="#333" d="M270.9 260.4c-.6 1.8-2.2 8.1-2.2 8.1l-.3 3.3.5 4.8 1.9 5.8 3.8 4.3-2.5-5.5-1.8-4.9-.6-4.9.8-4 .4-7zm-6.8 24.1l.8 10.6 2.7 8.4 4 7 4.7 4.6 2.7 2.8-3.3-5.2-3-3.5-3.5-5.7-3.2-8.7-2-10.3zm18.7-21.4l-.9 6 1.7 3.7-.3 4.6 1.4 3 3 5.2-2-5.7-1-2.5.3-4.3-1.4-3.8-.8-6.2zm-8.4 3.3l-.8 5 .2 4.1.9 4.7 2.1 4.9 3.8 3.5 3 3.5-1.9-4.6-4.3-4-1.7-4.4-.5-5-.8-7.7z"/>
  <path fill="#1A1A1A" d="M263.7 245.8l-4.4 3.7-2.8 2.9-2 3.2-1.5 4.1-.2 4.7 1.9-4.7 1.4-3.9 2.6-3.9 3.1-3 1.9-3zm30.6-43.5l1 5.1-.4 4.3-1 4-3.3 6 2.5-6.2 1-3.8.2-3.7v-5.7zm9.6-15.6l-.6 5.9.1 4.7-.6 6.5-1.6 5 .8-5.9.6-5.6-.6-5 1.9-5.6zM287.4 211l.2 6.5-1.7 5-2.8 4.5 4.3-4 1-5.3-1-6.7z"/>
  <path fill="#333" d="M271.2 299.1l-.4 6.3-.4 7 .8 6.3-1.5 8.1.5 12.2.8 6.6 3.6 10.8 2.2 2.4-1-3L272 345l-.8-7.6v-10l1.3-7.9-1-7.3-.3-13zm4.6-7.2a45 45 0 002.6 3.8c.6.6 1.6 2 2.7 2.6a22 22 0 004.5 1.3l2.4 1.6 2.5 2 3.6 1.4 2.7 2.9-3.7-2-3.3-1.5-2.6-2.2-2.7-1.6-3.8-1-3-3-2-4.3zm9.5 12.3l3.3 4.5 3 1 3.5 3.5 2.9 2.6 3.8 1.3-4.2-.2-3-2.9-3.5-3.5-2.7-1-3-5.3zm-4-.8l4.3 8 3.4 2.6 5 3.9 2.5 2.4 2.9.8 2.8.6-3.8.2-4-1-2.5-2.8-7.1-5.7-3.5-9z"/>
  <path fill="#333" d="M262.8 290.8l4.4 4s2 2 2.7 2.3c.6.4 2.6 3.3 2.6 3.3l2.3 5.3 3 4.9 3.2 3.2 2.1 2 3.7 3.5 2.7 4 2.2 3.5 3.9 1 3.8 1H295l-4.5-1.3-2-4.1-3-3.5-2.7-3.1-5.3-5.3-3.4-4.9-2.3-5-2.6-3.9-2.9-2-3.4-4.9zm13 26.7s3.9 9.7 4.5 10c.6.2 7.1 7 7.7 7.2.7.2 6.7 5 6.7 5l5.1 2 5.7 1.8-6.5-1-4.5-2-7.8-5.3-8-8-3-9.7zm12.4 34.2l4.2 5.8 1.7 3.5 2 3.2 2 3 2.6 3 3.4 3.4 3.1 2-4-1.6-3-3.2-2.6-3.1-2.2-3-2.2-4.2-1.6-3-3.4-5.8zm4.9 14.2l4 7.8 3.6 7.1 3.7 4.2 3.1 2.9 2.8 2.7c.4.2 4 7 4 7l-4.4-6.3-3.1-3-3-2.8-3.7-4.7-4.2-7.9-2.8-7zm2.8 10.7l3.1 5.3c0 .4 4 6.9 4 6.9l3.9 3.4 2.9 3.4 2.4 3.8 3.2 3.5-6.4-6.9-3.3-4-3-2.6-6.8-12.8zm.6 7l5.5 8.3 3.9 3.9 2.7 4.3 1.8 3.4 2 2.9 3.7 3.6 1.6 3.7-3.2-3.7-2.7-2.6-3.4-5.5-3.1-5-3.9-3.8-4.9-9.5zm-4.6-2.2l2.6 5 4.3 9.4 4 5.5 5.8 6.3 2.4 4.5 4.3 3.8 3.8 8 2 6.5-2.8-6.1-3.7-7.6-4.4-3.6-2.9-5-5.3-6-4.4-6-4-9-1.7-5.7zm-21.7-44.5l-.8 5.6s-1.6 6.3-1.4 7.1c.2 1.6.2 3.3.2 4.9l.4 9.4.5 5 2.2 5.1 2 3.5 1 7.7.4-8.3-2.8-4.1-2-4.3-.3-4.6-.3-9.6.1-5.5 1.3-6.1-.5-5.8zm41.6 118.5l5.5 1.6 4.2 3.5 3.3 5 1 4.5.4 7-1.4 7-2.2 6.2-.4 3.4-1.5 5.3 2.7-4.8.2-4 2.4-5.6 1.5-6.8-.2-6.9-1.4-6.2-3.3-5-4.9-3.8-5.9-.4z"/>
  <path fill="#333" d="M314.2 458.8l-3.6-1.4h-2.7l-2 1.2-1.8 3 3-2.2 2.9-.6h4.2zm-10.3-.6l-1.3 4.3v4.5l1.5 5-2.4-5V462l2.2-3.9zm11.4 4l-3.1-1.3-3.3.2-2 1.4-1.2 1.6 3.2-1.4 1.9-1 4.5.6zm-2 2.1l-3.8 1-2 2.3-1.4 2.8-.4 2.7s-.2 2.9 0 2.2l1.4-4.3 1.6-2.8 1.3-1.6 3.2-2.3zm7 5.3l-.2 6.1-.8 4-1.6 4.4-1.8 4.7-1.7 1.6-2.4 3.2 2.8-2.4 2.5-2.2 1.4-4.3 1.4-3.9 1-4.5-.6-6.7z"/>
  <path fill="#333" d="M323 476.5l-3.2-2.2-2-1-3.3.8-2.9 1.4-2.7 2.7-.8 1.8 3.3-2 2.8-1.9 1.9-1 2.6.2 4.3 1.2z"/>
  <path fill="#999" d="M319.3 483l-2.6 1s-.8.7-2.7.3l-2.8-.6-3-1.3s1.2 2 2 2.2l2.2.7 2.8.2 3.3-.9 2.6-1.2 1.4-1.4-3.2 1zm-6.6-37l2.5 3.2 1.7.8 2 2.4 1.8 1.8c.4.3 2 2.7 2 2.7l1.3 2.2a21.1 21.1 0 005.2 3l-2.7-2.2-2.2-1.4-1-2-2.1-3-2-1.8-2-2.1-1.9-1-2.6-2.6zm2.1 5.8l-3-2.7a12 12 0 00-2.4-1 23.7 23.7 0 00-6.5-.4l-3.2.8-1 1.5 1.8-.9 3-.9h2.8l2.8.3 2.3 1.1 3.4 2.2zm-26-34l2.8.3 2.2.4c.5 0 2.5 1.5 3 1.7.5.5 1 1 1.3 1.6l1 2.5-.4-2.8-1.7-1.9c-.2-.3-3.3-1.7-3.3-1.7l-2.3-.5-2.6.4zm25 20.7c.6 1.2 1.2 2.4 2 3.6.4.3 3.5 4.3 3.8 4.4l3.4 2.2 2 2.5 1.7 2.3 1.4 2.3.4 2.5-1-2.3-1.3-2.2-1.9-2.2-1.8-2.3-3-2.2-4.4-4.6-1.3-4z"/>
  <path fill="#333" d="M310 429.6l3.1 1.1 1.7 1.2c.6.4 2 3.1 2 3.1l1 3 .2 2.4c.2-.8.2-1.6.2-2.4l-.7-3.6c-.1-.3-2.5-3-2.5-3l-1.9-1.2-3.1-.6zm-4.5-21.2l2 4.5c.9 1 1.8 2 2.8 2.8l2.3 2.2 1.4 1.8 1.4 2.7 1.4 3.3 2 2.3 3 2.1-3.1-1.6-2.4-2.6-1.3-3.1-1.5-2.7-1.8-2-2.2-2.2-2.4-2.7-1.6-4.8zm1.6 9l2.7 3.8 3.7 3.3 2 1.3 2.6 3.5 2.6 3.3.5 3.9-.8-3.3c0-.3-2.6-3.3-2.6-3.3l-2.7-3.6-1.8-1.4-3.8-3.3-2.4-4.3z"/>
  <path fill="#333" d="M309.7 423.9l2.4 2.7 2 1.3 1.6 1.4 1.4 1 1.4 2.3.4 3.8-.9-3.5-1.2-2-1.7-1.3-1.6-1.4-1.8-1-2-3.3zm10.6 17.6l1 3.4a24 24 0 002.3 2l1.6.7 1.5 1.8-2-1.3-1.4-.7-2.5-2-.5-4zm-20 5.6l-1.5 1.6-.7 2.3-.3 2 .3 2.3-.6-2.1.1-2.5.5-2.2 2.1-1.4zm32.3 42.7l-.3 3.5-.8 2.7-2.3 2.5-1.9 1.8-2.2 2.3-3 .8 2.8-1.3 1.8-2 2-2 2.4-2.6.6-2.3.9-3.4z"/>
  <path fill="#333" d="M332.9 494.2l-1.7 4.4-2 3-3.2 2.4-3 1.7-2.4 1.5-2.9 1.4 3.7-1.2 2.8-1.7 2.8-1.6 3.1-2.6 1.4-2.3 1.3-2.6v-2.4z"/>
  <path fill="#333" d="M310.7 502.5l3 2.8 3.7.5c.6 0 5.2-1.4 5.2-1.4s-4.4 1.9-4.7 1.9h-4.3l-2.9-3.8zm23.1 2.5l-2 3.8s-2 2.1-2.3 2.2c-.4 0-2.8 1-3 1.1l-3.8 1 4.1-.4 3.4-1.3 2.4-1.8 1.2-2 1.2-3.6v-5.1l-1.2 6.1zm.9 8.1l-4.1 3.5-3.7 1.5-3 .7-2.8.5h3.4l2.8-.7 3.8-1.4 3.6-4.1zm4.3 4.6c-.5.3-3.9 4.8-3.9 4.8l-3.6 2.7-2.8.9h-5.4l-2 .7 2.4-.2h2.9l2.5.2 3.2-1 3.7-3.1 3-5zm.9 7.1l-4.6 3.7-2.5 1h-3.2l-3.2-.2-3.3.6h-2l-2.5 1.4-1.3 1.8 2.5-2 2.2-.6 3.4-.5 3.8-.2 3.9.4 2.5-.7c.4-.1 2.6-1.7 2.6-1.7l1.7-3zm.7 4.7l-3.5 3-3.4 2.5-1.6 1.3-2.5.6-2.3-.2-3.3-.3-2.5.4 3 .2 2.8.2 2.6.2 3.3-.6 2.5-2 2.2-2 2.4-1.8.3-1.5zm.8 4l-3 2.9-2.8 1.1-2 .6 2.8.2 3.2-1.2 1.7-2v-1.6zm.4 7.9l-3.4-.6-2.3.4-2.9 1.5-2 .6H326.5l-2.2.5-2.3.6 3-.1 2.9-.2 4-.1 2.9-1.2 3-1 4-.4z"/>
  <path fill="#999" d="M311.4 506.6s1.3 2.7 1.6 3l2.1 1.2 3.1.1 3.3-.3-3.2.8-3.2-.2-2.7-1.1-1-3.5zm.7-17.2l-2.3.5s-1.2 1.7-1.2 2.1v3.1l1 4-.2-4.2V492l.9-1.4 1.8-1.2z"/>
  <path fill="#333" d="M276.6 335.3l2 3.2s0 1.8.5 2.4c.4.7 1.2 2.6 1.7 3 .5.7 1 1.4 1.3 2.1l2.6 1.8-2.8-1.2-1.6-2.1-2.1-3v-2.7l-1.6-3.5zm4 17.2l2.2 6.6 1.6 4.6 4.2 7 3.7 5.4 2.3 3.8 3.1 3.6-4.6-7.6-3.8-5.5-4-6.8-1.8-4.5-3-6.6zm-3.2 4.7l2.1 9 .7 5.7 1.4 5.3.7 5.3-.7 9.4 1.5-9.9-1-5.4-1.2-4.9-.7-5.7-2.8-8.8z"/>
  <path fill="#999" d="M305.7 429l-3 3c-.4.2-2 3.3-2 3.3l-2.3 2s-1.5 2.4-1.7 3c-.2.7-.3 3.4-.3 3.4v4.7l.6-5 .4-2.8 1.5-2.7 2.6-2.2 1.9-3.4 2.3-3.2zm.4 6.6s1.9 2.7 2.7 3l2.5 1.8 2.1 2 3 3.7-5.1-4.7-3.1-2.3-2-3.5zm-7 9.5s2.8-2.2 3.5-2.2c1.2-.2 2.3-.5 3.5-1l2.7.5 2.5 1.5 1.3 1-2.5-1-3-1.3-4.3 1-3.6 1.5z"/>
  <path fill="#333" d="M285.3 338.4l3 2.1 4.5 5c.5.5 2 5.5 2.5 5.9.4.3 5.2 6.4 5.2 6.4l4.8 4.6 1.9 1.8-4.3-3-3-3.2-5.6-6.3-2.1-5.6-4.3-4.7-2.6-3zm-10.8 21.5l1.2 6.4 1.4 3.2 2.1 5.8-.3 4.4-.3 13 .8-12.1.6-5.3-2.1-5.8-1.7-4-1.7-5.6zm-10.3-34.3s2.3 6.4 3 7c.9.5 3.1 4.7 3.1 4.7l5.2 6.1-5.2-7.5-2.7-4.4-3.4-5.9zm50.7 194.6l2.6 2c1 .6 4.7 1.6 4.7 1.6l7.8-.8-5.3 1-3.3.3-3-1.1-3.5-3z"/>
  <path fill="#1A1A1A" d="M261 263.3l-1.7 2-1.7 4-.8 4.4v4.4l.8-4.2.8-4.6 1.6-3.4 1-2.6z"/>
  <path fill="#1A1A1A" d="M261 255.2l.9 2.6 1.2 5.3.2 4.3-.4 5.4-1.3 6.4-.8 4.8.3-4.8 1.2-7.2.4-6.2-.8-5.4-1-5.2z"/>
  <path fill="#333" d="M260.1 302.7l.2 3.5.6 6.4 2 6.4 3.2 5.5 2.4 3.7 4.5 4.3-4-5-3-4.2-3.1-6-1.7-7.5-1-7.1z"/>
  <path fill="#333" d="M260.5 286.1l.4 6.7 1.5 6 2.4 5.1 1.9 5.3v3.1l-1 4.4-2 6.4-1 2.6 2.6-4.2 1.2-5.5.7-4.4-.4-3.6-2.6-6.4-2.3-7.3-1.4-8.2zm-.4 49.7l1.8 5.1 2.3 3.8 3 2.9 2.4 1.2 4.6 1.3 4.8.6-4.8-1.3-4-1.1-3.4-1.9-2.8-3.2-3.9-7.4zm0-15l1.8 7.4 2.4 6.2 4.4 4.5-3.7-5-2.3-6.1-2.7-7zm1 27.2l2.5 6.9 3.3 4.5 1.7 1.2 6 1.5-5.6-2.3s-1.9-1.5-2.1-2c-.3-.6-2.6-3.4-2.6-3.9 0-.4-3.1-6-3.1-6v.1zm2 15.3l3 5.5 4.9 6.3 3.5 2.7 6 2.9 3.4 1-5.3-2.8-4.5-2.2-3.8-3.2-3.5-5.1-3.7-5z"/>
  <path fill="#999" d="M289.8 436.7l.2-3.5 2.3-3.3 4-2-3.6 3.5-1.6 2.2-1.3 3zm-10.6-33s4.7 4.3 5.3 4.5c.6.2 5.3 2.2 6 2.2l6.5 1 6 4.3-6.2-3.4-6.4-.8-6.2-2.2-5-5.6zm6.4-2.2l3.6-3.9 3.5-1.2 4.9-.2 3-.8-3-.3-5 .5-3.6 1.2-3.4 4.7zm52.5-190l.3 5.8-2.2 7.5-4.6 9.8-3.3 13.6-1.6 7.6.6 8.9.2 10.8-.5 6-1.9 5 3-4.1.5-7.1.6-11.7-.6-7.5 2.2-12 3.2-11.4 4.4-10.6 1.6-4.9-1.9-5.7z"/>
  <path fill="#4D4D4D" d="M330.8 186.8l-4.3 11.4-2.5 9-4.9 7.4-3.8 7.5-2.4 3-5.7 7.6-6 8.2 9.5-10 6.8-9.9 5-9.1 4.2-6.8 1.4-8.2 2.7-10z"/>
  <path fill="#999" d="M314.8 340.4l6.2 4.3c.8.5 8.4 3 9.8 3.3 1.3.3 16.6.8 16.6.8l7.2-.8 7.9-1.4-8.6 3-9.3.2-13.3-.8-9.8-3-6.7-5.6zm1.3-44.7s6.8 4.8 9 5.9c2.2 1 15 3 15 3h15.4l9.7-.9 7.1 1.7 3.5 2.7-5.4-2.1-6.2-1.1-8.7.8-18-.6-13-2.5-8.4-7z"/>
  <path fill="#4D4D4D" d="M331.9 209.6l-2.5 8.2-3.5 9.8-2.8 5.1-5.6 6.5-4.9 7.9-2.7 4.8-1.1 6.8 2.5-6.5 3-5.7 5-7.9 6-7.3 2.8-6.5 3.8-15.2z"/>
  <path fill="#999" d="M323.7 253.3l-1.8 12.3-4.4 7-4.3 9-2.7 7-1.1 9.2.8 7.9 2.2 9-.9-11.8-.5-10 2.7-9.7 6.2-12 3.6-7 .2-10.9z"/>
  <path fill="#4D4D4D" d="M324 239.2l-6.2 10.6-4 9.5s-2 3.8-2.2 4.6c-.3.8-3.9 7-3.9 7l-2.2 10.6.3 8.1 1.1-9.4 2.5-9.3 4.6-9.2 5.1-11.4 5-11.1zm25.8 154.1c.6.8 6.7 11.4 9 13 2.2 1.6 14.3 12.5 14.3 12.5s10.3 7.8 11.4 8.1c1.1.3 9.7 4 9.7 4l-9.5-2.6-12.2-8.1-14.6-12.3-8.1-14.6zm.3 10.3c1.3 1 13.5 16.2 13.5 16.2s11.9 8 12.8 8.2c.8.2 9.7 6.8 9.7 6.8l9.5 4.9-9.5-3.3-11-7.4-12.6-8-12.4-17.4zm11.4-15.2l4.3 10.8 4.8 9 9.5 7 8 .8s-7 1-7.8.8c-.9-.2-10.3-7.6-10.3-7.6l-5.3-8.8-3.2-12zm52.3-50.2s-2.7 2.7-3.6 2.7l-3 .6h-8l7.5 1.4 5-.9 2.1-3.8zm-1.1-100.6c-1.4 1.4-11 15.7-11 15.7l-5.8 7.6-2.7 6.8-4.6 8.4-7 14.2-3.3 12.4-4.4 11.7-6 12.7 5.8-14.7 6-19 2.9-10 6.2-10.8 5-10 6.7-10.3 12.2-14.7z"/>
  <path fill="#4D4D4D" d="M413.8 225l-9.5 15-12.5 16.3-6.5 11.4-4.3 11.1-5.7 13.9-4.1 8.6-3.8 15.5-6.3 11.4-3.5 6.5 3.9-9.5 5.4-9.8L370 300l4.6-10 5.7-13.4 4.3-12.4 7.7-11.4 11.6-14.6 9.8-13.1zm-7.6-25l2.6 3.8 1.3 2.8 2.2 3.7 1.2 2.6 1.7 2.3 2 2 1.4 2.4 1.4 1.9.8 4-1.6-3.2-1.8-2.4-2.2-3.1-1.3-1.6-2-2.3-2.3-1.4-3-1-3-1.5-3-2-3.4-2.6-1.8-2.5-2.4-3.2-2.1-2-3-2-.8-2.6 1.6 2 2.8 1.7 3.3 2.4 2.4 4.5 6.3 4.9 3.5 1.7 2.6 1.1 1.5.5-1.8-3.7-1.9-3.7-1.2-3.4z"/>
  <path fill="#4D4D4D" d="M394.6 257.5l3-1.9 5-1 4.4.2 3.7 1.5c1 .4 2.6 2 2.6 2l3.1 3.3 3 4.3 1 1.2-3.6-3.7-2.9-3-2.6-2.5-2.8-1.9-4.1-.2-4 .2-5.8 1.5zm5.5-62l1.2 4.6 2.7 4 1.2 3.3 1.4 3.1s1.9 4.2 2 4.9c.2.6 3.1 4.4 3.1 4.4l2 1.7 2.5.8 1.9 1.2 1.6 2.2 1 2.5 1.2 2.6-2.2-2-2-3.7-2.8-2.2-2.3-.6-2.7-2.3-2.6-5.3-4.3-9.9-2.4-4.1-.5-5.1zm3.7 48.3l3.8.2 4.7 1.8 2.9 3.5 2.8 2.6 2.6 2.7.7 2.3.3 3.4-1.2-3.7-1.4-2.4-3.2-2.9-2.5-2.8-2.4-2-4.3-1.5-2.8-1.2zm-1.9 28.5c1.3-.4 2.6-.6 3.9-.8h5.9s.6-.5 2.4.3c1.7.7 3.3 1.7 4 2 .9.2 3 3 3 3l-3.5-1.8-3.7-2.1-3.1-.4-4.6.2-4.3-.4zm-.4-39.9l4.5 1.4 2.2 3s2.7 2.2 3.5 2.4c.8.2 1.4 1.2 2.4 1.8 1 .7 3.9 4.1 3.9 4.1l1.6 2.8 1.5 4 1 4.2v-4.5l-1.6-3.7-1.7-3.4-4-4.3-2.9-2-2.6-2-2.7-3.3-5.1-.5zm7-5.3l3 4 2.8 4 2 2 3 3 1.3 2.5 1.5 5.7-.5-5.5-1.6-3.2-3-3.3-1.8-1.8-3.1-4.3-3.6-3zm11.3 44.6l-3-2.6-4-.3-3.4-.6-3 .3-3.1-1.3-2.7-2-2-1.9-4.7-2-2.6-.9-5.7-1.2-7.7-3.6 7.8 2.7 5.2 1.2c1 .3 2.2.5 3.3.6a37 37 0 014.6 1.9l3 2.6 3 2 4.9.5 3.7.6 3.6.2 2.8 3.8zm-.4 11.4l-2.6-.4-4.1-1-4.5-3.3-2.6-2-4.7-1.7 3.9 2.3 3.7 3 4.6 3.1 3.2.4 3.1-.4zm-2.8 7.1l-4.3-3.3-3.7-1.6-2.7-1.6-4-.6-3.9-1-4-.7-6.1-1.2h-4.5l-4.4-.2-6-.2 6.1 1 6.1.5 4.5.1 5.5 1.3 6.3 1.2 3.9.8 3.6 2 3 1.5 4.6 2zm-55 74l1.9 7 2.6 5.8 2.6 4.2 1.3 3.8 3.2 4.7 3.9 3.2 4 3.5-3.2-4.3-3.9-3.2-3-4.3-1.7-4.5-2-3.4-2.6-6.1-3-6.4zm-1.2 20.6c.6.2 5 7.5 5 7.5l5 7.8 2.8 5 5.6 6.2s5 1.2 6.2 2c1.3.7 5.3 2 5.3 2l-4.6-2.8-6.2-2-5.5-6.2-2.6-4.9-4.9-7.3-6-7.3zm-21.1-227.6l-.4 6.5-1.5 5.7-.8 7.3-1.6 4-.4 5.6.8 5.8.4-5.6.4-4.9 1.7-5 1.4-8.7 1-5-1-5.7zm1.2 23.8c-.2.6 1 7.5 1 7.5l3 4.5 3.2 3 3.2 1.7-2.8-2.7-2.9-3-2.7-4.1-2-7zm-3.5 15.5l-1 3.8-.4 4.7-.4 4.6-1 4.3-.8 5.9-.2 5 1.2 9.9.2-10.2v-4.6l.8-7.1.8-5.3.4-5.3.4-5.7z"/>
  <path fill="#4D4D4D" d="M322.4 196.2l1.2 6.2s2.5 4.6 3.5 5.2c1 .6 5.7 2.7 5.7 2.7l6.7 1.4s4 2.2 4.8 2.9l3.3 3 6.3.8h5.9l-5.5-1.3-6.3-.6-2.8-3-5.3-3.1-6.9-1.4-5.3-2.3-2.9-4.4-2.4-6zm-25.2 82.2l3.2-3 4-2.3 5.8-1.2 4.9-1.2 2-1.3c.8 0 1.7 0 2.5.2.6.2 4.4 0 4.4 0l3.7-1.2 3.9-1.6-5.3 1.2-3.3.2-4.4.2h-2.7l-2.4 1.4-7.2 1.7-4.5 1.4-2.8 2.6-1.8 3zm73.2 210.7l5.3-2.8 2-2.5 4.3-2 5.9-2.6 4.7-3.2 2-2.5 2.5-3.3-2 4.7-4.2 3.5-4.9 3-4.4 1.8-3.5 1.7-2 2.6-5.7 1.6zm3 6.6l3.7-.2 6.1-1.7 3.6-1.8 6.2-3.2 3.2-2.7 3.9-4.7-3.5 5.5-4.8 4.3-6.1 2.9-6 1.8-6.2-.2zm0-18l5.1-1.6 6-2.4 5.2-2.9 3.3-3.2 2.2-3.8 1.6-3-2.6 7.4-5 4.2-5 2.5-5.9 2.5-4.8.3zm-5.2-50.6s3.8 3.9 4.2 4.5c.5.6 8.8 7.7 9.4 7.7.6 0 7.5 3 7.5 3l5.1 4.8 3 6.1c.3.6.7 4 .7 4l-1.7-4.3-2.8-4.8-5-4.7-7-3.1-9.8-7.9-3.6-5.3zm30.5 68s-4.7 4.4-5.3 4.6a84 84 0 00-6.8 3.3c-.6.4-6.9 2.5-6.9 2.5l-7-.2 8 1.2 6.7-2.7 7.4-3.3 3.9-5.5zm-41.1-6.1l4.7 4.4 3.4 2.5 2.2 4.4 1 5.3-.5 5.7-3.5 2.7-3.9.2 4.5-1.7 1.8-2.2.6-4.7-.3-3.8-2-1.5-2.5.2.8-1.2 1.6-.2-1-2.6-3-2.3-4-5.2z"/>
  <path fill="#4D4D4D" d="M342.1 505.6l3.7-2 2.3-.4 1.7-.2 5.6.2 3.4.4 5.3.4h1.9l-3.3.8-5-.4-5.2-.4-5 .4-5.4 1.2zm9 21.2l1.9 1.8 4-.2 4.3-1 2-.1 3-.3 3.3-.6 2.6.4-4.3.8-7.3.8-3.2.8-3.5 1-2.7-1v-2.4zm30.5-123.5l3.8 5.9s4 3.9 5 4l6.2 1.1-5.3-1.6-2.6-1.7-2.7-2.6-4.4-5zm2.8 18.3l4.7 4.7 2.4 5.3 3 2.7 3.5.8-3.2-1.7-2.4-2.7-2.5-4.6-5.5-4.5zm6.1 90.3l4.3 1.9 6.3.4 3.5-.9-2.7 1.9-5 .2-3.1-.8-3.3-2.7zm-.8 13.7s3.5 1.8 4 1.8l4.5.2 6.4-.6 2.2-.2-7.7 1.9h-5l-3.6-1.3-3.7-3.5-1.8-1.8 4.7 3.5zm-20.1 15.6h5.5l5.6-1.2 5-2 4-4.5 2.9-3.2-3.5 5.8-4.2 3.7-4.5 1.4-4.5.8-6.3-.8z"/>
  <path fill="#4D4D4D" d="M357.4 533.5l4-.4 6-2.8 2.8-2.1 3-3 5-2 5-.9 5.7.8-6.3.5-5.3.8-3.3 1.6-3.6 3.2-3.3 2.5s-5.5 3.3-6 3l-3.7-1.2zm.2 17.3h6.9l8.1-1.6 7-3.7 4.2-4 2.8-2 4.7-1.7 5.3-.3-4.8 1.3-4.7 1.6-2.9 2.3-5.3 4.5-6 3.2-7.6 1.4-7.7-1zm11.1-31.7l4.3-.8 6-3.5 3.8-3.7 4.5-4 4.8-2 6.4-.5 4.2.4-6 .6-4.8.7-4.8 2.4-4.7 4.3-3.7 3.2-5 3-5-.1z"/>
  <path fill="#4D4D4D" d="M350.2 446.8l3.1 5.6 4 7.7 7.4 4.6 5 3.5 9 5.1 3.7 3.5a90 90 0 013.9 6.2l2.4 4.1 1.9 7.8 3.4 7.7 1.5 6.5-2.5-6-3.3-7-2.3-8.3-3-5.4-3.7-5.3-4.9-4.1-6-3.7-5.8-3.8-7-4.5-3.6-5.2-3.2-9z"/>
  <path fill="#4D4D4D" d="M361.5 466.6l7.2 5.5 6.4 6.5 4.2 6.1 2.7 4.7 3.2 7.3 2.9 5 2.4 5.5 2.7 4 4.8 5.6-6.2-5.5-3.5-5.5-3-6.7-5-9.5-4-7-5.1-5.8-4.7-5.2-5-5zm3.6 12l5 7.1 3.1 6.5s4.3 2.3 3.9 3.3a37 37 0 004.3 8.5l1.4 7.1 4 6.6 4 3.8-4.5-3-4.3-6.3-1.3-4.7-1.6-5-3.4-6.4-3.3-2.7-3.2-6.5-4.1-8.3zm39.8-250.4l-3.6 8.9-9 11.2-7.3 8.3-6.5 10.2-4 8.2-4.1 13.6-1.7 7-1.8 7-1.6 9.2-2.9 7.1-2.4 8-3.2 6.8 2.8-10 4.9-14.3 4-17 4.7-18.6 6.4-10.8 9-12.8 11.7-13.3 4.6-8.7zm-12.3-2.5L382 235l-8.2 10-4 7.5-5.3 17.3-.5 9.5-1 12.2v-13l.4-9.1 6.4-19.4 6-10.5 12.3-11.4 4.5-2.3z"/>
  <path fill="#4D4D4D" d="M393 233.2l-8.6 11.8-8 16.6-5.8 10.3-3.3 8.7-3 17.5-1.2 7.2-6.3 14.2 5.3-16 3.8-19 3.3-12.6 8-14.8 8.2-16 7.6-7.9zm-19.8 1.9l-7 15.7-6.2 13.4-1.8 7.9.8 5.3V292l-.6 6.3-.8 8.4-1.4 6.9-3.5 7.7-3.7 9.2 3.5-11.6 3.5-9 2.2-19-.3-14-.5-5.8 2.6-9.5 5.5-12.7 7.7-13.8z"/>
  <path fill="#4D4D4D" d="M410.5 294.5L401 291l-8.5-.6h-6.8l-6.2-.6-8-.6-10.8 1.6-7.7.8h9.2l11-1.4 10.7.8 10.6.4 7.5.8 8.4 2.3zm-19.8 7l-10 1.1-7.7-.6-7.1-1.8-5.5-.5-8.7.5-5.5 1.2 9-.4 7.2-.2 12.2 2 8.6.5 7.5-1.7zm-33.3 81.9s3.8-1.6 4.4-2c.6-.5 7.2-2.5 7.2-2.5l5.6-.2s6.4 1.4 6.9 1c.4-.4 3.7 0 4.9-.2l6-1 4.4-1.9 3-3.4s-1.3 4.3-2.4 4.9c-1 .6-6.7 1.8-6.7 1.8l-9.2.7-7.5-1-5.9.5-10.7 3.3z"/>
  <path fill="#1A1A1A" d="M179.3 270.7l5.7 1.2 4.9-1.6 3.2-3.8-3.5 3-4.2 1.3-6-.1zm5.8-22.7s.8 5.4 1.1 5.9c.3.4.8 3 1.3 3.7.4.6 1.6 4 1.6 4l-3.3-5.8a78 78 0 01-1-4.8l.3-3zm.6-16.1l2.8 5.8.7 5-.6 4.8.5 5.6.8 2.8v-3.3c.1-.5-.5-5.4-.5-5.4l.5-4.5-1-5.7-3.2-5.1z"/>
  <path fill="#B3B3B3" d="M366.3 61.6s-.4 8.1.5 9.3c.8 1.3-.5 15.4-.5 15.4l5.3 20 2 15 3.7 21.2 7.7 16.7 10.2 14.7-12.2-24-6.1-23.7-3.7-22.3-4.8-17.5v-15l-2-9.8z"/>
  <path fill="#B3B3B3" d="M374.9 92.5l5.7 26.8 6 22.4 7 12.2 5.2 11-4-13-7-12.6-6-22-7-24.8zM353.7 70s2.5 11.8 3.3 13c.8 1.3 1.6 19.1 1.6 19.1l-.8 14.7 2.8 15.4 7.4 13.5 5.2 8.5-4.5-11.4-7.2-15-1.7-20.8V93.3l-1.2-13-4.9-10.2z"/>
  <path fill="#B3B3B3" d="M393.6 134.8l-11.8-3.3h-9.4l-11.8.8-10.2 5 12.7-3.3 15-.4 15.5 1.2zm-11.4-29.7l-7 1.6-9.7 4.5 12.2-3.3 4.5-2.8z"/>
  <path fill="#B3B3B3" d="M363.9 96.1l.8 22 4.9 16.7 6.5 18 4.5 15.4v17.5l1.6-19.2-4.5-15.4-6-17.1-5-15.9-2.8-22z"/>
  <path fill="#999" d="M347.6 226.7l-2.2 15-2.1 15.5-1.8 20.8s2.2 16.6 2.5 15c.3-1.6 0-14.1 0-14.1l1-20.9 2.2-15.8.4-15.5zM315.4 359l4.5 19.5 3.7 16.6s5.7 16 6.5 17.2c.8 1.2 7.8 14.6 7.8 14.6l6.9 11.4-13-19.5-8.6-18.7s-6.1-20.8-6.1-22c0-1.2-1.7-19.1-1.7-19.1zM340 484.3l1.8-4.6.6-1.5 4.5-3.7 6.9 1.6 5.7 6.6 4 8.5-5.6-7.7-5.3-5.8-5.7-1.2-6.9 7.8z"/>
  <path fill="#999" d="M326.8 389s-1.2 8.2-1.2 10.2.9 16 .9 16l1.6 17.5 1.6 9.8 2.9 8.9 6.5 10.1 6.9 4.5-6.5-7-5.3-9.2-4-18-1.6-16.3-1.3-15-.5-11.4zm45.6-158.6l-9.3 5.7-10.1 12.2-2.5 11.7.4 12.2 1.3 10.2-.5 8.2 2-10.6a122 122 0 00-.7-13.9l.8-13.4 8.5-13 10.1-9.3z"/>
  <path fill="#4D4D4D" d="M354.1 422.3l8.2 2.2 5.6-2.5 5.2-3.2 5.2-5 6.4-1.5-7.2.5-4.6 4.3-5.5 3.9-4.9 2.1-8.4-.8zm33.1-153.2l-6.8.5c-1 0-9.8 2.3-9.8 2.3l-10 3-5.4 3.7-5.4 7.8-9 5.2 10-4 5.5-8.2 8.1-4.4 11.1-3 11.7-3z"/>
  <path fill="#B3B3B3" d="M352.1 125l2 14.3 3.7 11.8 5.7 13 6 17 2.1 19.2-3.2 13.4-6.6 13.9 9.4-15.5 2.8-16.7-4-19.9-9-21.6-5.3-15-3.6-13.9z"/>
  <path fill="#999" d="M320.7 59.2c2.3 2 4.5 4.2 6.6 6.4l7.3 8.6 1.6 6.5v9l.4 12.1 2 11-3.6-10.1-.8-13.5.4-9-4.5-9.3-9.4-11.7zM212.1 244.6l3.7 7.3 6 .5 8.7-1.3h10.1l-10.1-2-12.2 1.2-6.2-5.7zm58.6-25.2s7.4-4.9 8.2-6.1c.8-1.3 5.6-9 6-10.1.5-1.2 5.4-9 5.4-9l7.7-9.4 8.5-13 7.7-9.8 7-7.7 6-8.6 6.1-8L322 149l-9.3 11.9-10.6 13.4-9.8 14.2-7.4 10.6-6 11-8 9.3zM226.7 32l8.6.8h9.4l7.7 1.6 9-.4 10.1-2.4 5.3-1.3 6.5.8-6.1.9-14.2 3.6-11.8.4-7.8-1.2-8.9-.4-7.7-2.4z"/>
  <path fill="#B3B3B3" d="M355.5 157.6l4.6 9.5 2.7 12 1.6 12.4 3.8 12 4.7 7.8 6 9.7-9.6-18.1-3-11.7-2.1-12.7-2.7-12.5-6-8.4zm-8.7-26.6l-2 13.8-3.7 7.6v8.7l2.7 11.6.8 7.7.5-8.7-2.7-10.8v-8.7l3.8-8.2.6-13z"/>
  <path fill="#B3B3B3" d="M359.2 195.8l3-5.7 5.2-4.3 6.8-2 10.8-1.5-11.1 3-6 1.5-4.6 4.4-4 4.6z"/>
  <path fill="#333" d="M608.6 388l5-3.1 5.8-7.6 2.7-9.8v-8.1l2.2-8 .8-10 .2-10.2s-.5-10.6.3-11.1 1.9-7.4 1.9-7.4l1.9-6 .8-7.5.8 9.2-3 7-1.6 7.6-.5 13.6-.3 13.3-1 5.2-1.4 5v9.5l-2.2 7.1-3.3 5.7-6 5.4-3.1.3z"/>
  <path fill="#333" d="M613.7 399.5l4.6-3.2s3.8-1.6 4.6-2.2a89 89 0 004-11.7l2-7.6 2.4-12.4.3-18.2-1.1-16.6-.5-8.6 1.8 13.3 1 21-.7 14.3-3 12-4.8 14.5-4.1 3.5-6.5 2zm6.5 11.1l5.7-2.7 7-3.2s3.8-3 4.4-4l3-6.8-1.7 6.7-3.6 4.3-5.4 2.5-9.4 3.2zm13.8-14s3.8-8.2 4.3-9c.5-.8 3-13.6 3-13.6v-14l-1.3-14-2.7-14-.8-13 .2-7.4 1.1-8.3v13.5l.8 15.4 3 18.5 1 14.9-.7 13.3-2.7 11.7-5.2 6z"/>
  <path fill="#4D4D4D" d="M662.5 194.7l-8.4 4-13 9.6-14.7 16.8-7.3 10.6-6.8 14.9-7.3 13.9-13.6 22.2-4.3 9.8-8.1 11-3.3 7.6-6.5 9-6 9-4.6 8.4a45 45 0 00-1.8 5.7l-.3 7.5 2.1-8.9 3.8-8.6s11.1-16 11.4-16.9c.3-.8 4-6.5 4-6.5l3.8-7.3 7.7-12 10.3-17.9 13-23.5 6.7-14.7 7.1-10.8 17.9-20.1 18.2-12.8zm-65.9 65.1l-9.8 18.5-5.6 11-5.2 11.5-5.7 8.4-7.3 8.2-7.9 5-17.6 10.1-7.9 7 10.3-11 16.8-8.4 8.7-7.4 6.5-8.4 10-19.2 14.7-25.3z"/>
  <path fill="#333" d="M625.7 416.2l3.9-4.1 4-4 4.3-2 4.7-1.3-4.5 2.6-3.9 1.4-3.8 3.9-4.7 3.5zm-1.9 6s2.9.4 3.5.2l6.1-2 6.7-2.2 6.2-1.9 2.8-2 4.9-5.3 2.2-4.7-1.9 6.1-5.8 5.6-5.3 2.7-6.2 1.5-6 2-4.3 1-2.9-1z"/>
  <path fill="#333" d="M640 413l2.6-4.9 3.7-5.8-1-6.3v-5.7l1.8-3.7 1.4-3.7 2.5-4.3-1.8 5.2-2.3 5.3-.8 2.6v5.5l.8 3 1.4-1.4c.6-.4 1.7-2.7 1.7-2.7l2.2-4.8 1-5.5.6-3 1.3-1.5-.7 3-.8 4.1-1 4.9-2.2 4.4-3.1 5-2 3.8-2.5 3.2-2.8 3.4zm-22.4 17.7l1-3.4 4.6-2.2 7.2-1.3-7.2 2.5-3.9 1.6-1.7 2.8zm8.7-1.4h7.7s4.3-1.6 5.1-1.6c.8 0 8.1-3.8 8.1-3.8l3.5-4 2.6-3 4.7-6.1-5.6 5.9-4.2 4.3-2.8 3.1-6.5 2.8-4.7 1.4-7.9 1zM644 306.5l-3 6.3-.5 10.8.5 7.3 1.6 8.1 1.6 6.3 3 8.8-2-9.1L642 330l-.6-12.9.8-4.4 1.9-6.3z"/>
  <path fill="#333" d="M643.2 349.6l1.2 10.8 2.7 8.3 1.1 6.4.6 3.6v8.1l1-12.3-3-8.6-1.4-6.3-2.2-10zm-70 15.5c-1-1.5-2.2-9.6-2.5-10.2-.2-.6 0-9.1 0-9.1l3.1-11.3 6.3-8 4.7-8.6 4-6.8 6.4-12-6.8 15.1-4.2 7.3-4.5 7.6-4.9 6.3-3 11-.4 5 1.8 13.7zm14-7.3c-.2-.8-3-7.8-3-7.8l-1-8.1c0-.6 2.2-9.4 2.2-9.4l5-8.7 2.7-5.7 2.3-9.4 7-8.7-6.3 9.5L594 320l-4 7.1-4.1 7.4-1.4 7.7.8 7.5 2 8.2z"/>
  <path fill="#333" d="M597.2 364l2.4-4.9c.2-.6 0-5.4 0-5.4l-3-5.5-1.6-3.2-1.9-4.7-.8-5.6 2.2 7.2 3.3 6.3 2.8 5.3.3 5.5-3.7 5z"/>
  <path fill="#333" d="M592.3 349.6l-1.6-5.3-.4-7.1 1.4-6.3 1.9-3.4s3-4 3.6-4.4l4.3-2.5-5.5 2.2-4.7 6.5-1.6 6.7v7.5l2.6 6.1z"/>
  <path fill="#333" d="M583.2 356.7l5-4c.7-.7 2.5-8.4 2.5-8.4s1-5 1.8-5.7c.9-.6 5.3-5.5 5.3-5.5l2.9-4.5 2.8-5.8 1-7.8-.1 9-4.7 8.8-3.9 4-3 4.7-2 5.2-1.8 7.2-5.8 2.8zm38.2 81.6l8.5-1.8 11-3.9 8-5.5 5.9-5.9 4-4.5-5.6 7.3-6.1 6-6.6 4.3-11 3.6-8 .4z"/>
  <path fill="#333" d="M623.8 444l5.5 1 8-1.6 5.9-3.5 6.3-4.8 4.3-4.5 5.9-4.9 4.4-5.3 4.9-3.9 5-3-5.8 5-4.5 4-4.9 5.6-5.3 4-4.8 5-6.6 4.7-6.3 3-7.5 1-4.5-1.8zm83-72.4l-6.1-1-5.5-.6-5.2.3-5.1.5-2.9.4h-3.7l4 .8 4.2-.6 6-.6h4.4l10 .8zm-1 6.5l-5.5.8-6.7.4-4.3-.8-6.5-.6-5.3.4-4.9 2.4-4.6 3.3-2.5 3 8.2-5.4s3.8-2.5 5.3-2.5c1.4 0 5.6-.4 6.5-.2.9.3 7.7 1.5 7.7 1.5l7.3-.6 5.4-1.7zm-11.4 4.9l-4.7.8s-4 1.6-5.4 2.4c-1.5.8-4.3 4.3-4.3 4.3l-4.5 3.7c-1.2.6-2.4 1.2-3.7 1.6l-4.8.6-3.7.2-6.7 3.5 7-2.5 7.8-1c.7 0 6.1-1.8 6.1-1.8l5.7-5.3 5-3.5 6.2-3z"/>
  <path fill="#333" d="M704.4 391.3l-7.7.6-4.5-.8c-1.2 0-4.3-1-5.1-1.2l-5-1-3.8-.5-3.2-.1-4.5 1-4.4 2-3.1 2 6-2.2 4.4-1.2 7.9-.2 7.1 1.6 6.7 1.2 4.5.2 4.7-1.4z"/>
  <path fill="#4D4D4D" d="M565.3 335.5l-1.8 3.7-3.1 6.7-1.4 4.1-.6 4.4-.2 3.4.3 3.6.5-3.8v-2.4l.4-3.4 1.1-4 2-5.3 2.8-7z"/>
  <path fill="#4D4D4D" d="M572 325.7l-3.6 7.8-1.9 4.6-1.5 3.4-3 6.3-4.6 5.8-4 2.7-3 2.1 5.1-2.7 3.4-3 3.9-4.9 3-6.6 3.3-7.2 2.8-8.3zm2-19.5l-5.2 7.3-7.5 7-3.5 1.8-6.5 3.9-3 3.2-4.1 6.5-5.2 3.8-3.5 1.2-5.1 1.9-3 1.7 6.1-2 6.8-2.7 5-3.9 4.5-6.9 4.7-4 5.3-2.9 3.4-2.5 6.7-6.5 4.2-6.9zm.6 22.2l-3.1 6.6-3.5 6.6-2.7 6.7-.6 4.8v3.9l1.4 2.5 1.4 3.8-.6-4.2-1.5-2.6.3-6 2-6 3.3-7 3.6-9z"/>
  <path fill="#4D4D4D" d="M568.5 337.1l-3.2 7.1-2.5 5.6-1 4.1-.4 4 1 3.1 2 4-1.6-4.3-.8-3.4.8-5 1.7-4.7 2.7-6.1 1.3-4.4zm-.1 9.1l-1.2 5.2.2 5.3 1.3 4.8 1.7 3.2 1.6 2.5-1-3-1.8-3-.8-3.3-.5-5.3.5-6.4zm54.2-21.1l.9 6-.6 9.2-.7 8.8-.8 7.2-3.1 7.3-1.2 4.3.9-7 2.8-5 .8-6.7.3-9.5.7-8.1V325zm-40.5-45.7l-5.2 7-5.3 8.7-4 6.7-5 7.1-2.8 5.6-6.6 4.2-6.8 3.8-5.4 1.6-3 2.2 3.6-1.6 5.4-1.7 8-4.2 5.4-3.7c.4-.1 3-6 3-6s4.9-7 5.3-7.2c.3-.2 4.4-7.5 4.4-7.5l4.7-7.6 4.3-7.4z"/>
  <path fill="#4D4D4D" d="M570.7 281.8l.8 3.7 1.5 3.2s3.2 4 3.7 4l2.8 2 3 1.8 3.6 2.3 2.9 3.5 1.5 3.4.8 7.2-1.3-7-1.7-3-2.7-3.8-3.4-2.1-3.7-2-2.5-1.8-4-4.8-1.3-3.8v-2.8zm-68.5-21.7l.2 5 .8 3.1v4.5l-.4 7.5-.2 5.6.8 3.2.8 2.6V289l-.8-3.5.5-9.1.1-6.5-.6-4-1.2-5.8z"/>
  <path fill="#4D4D4D" d="M515 280.6l-5 1.5-3.7.8-3.7 2.9-2.8 2-3.7 5-4.5 2.7-3.4 1.4 4.6-1 4.3-2.8 4.1-5.1 5-3.9 6-1.6 2.8-1.9zm-24.2 21.2l.6 4c.2.7 3.1 5.6 3.1 5.6l3 3.9 4.5 4.4 5.6 4-4.8-4.9-4.9-4.4-2.6-3.7-3-5.2-1.5-3.7z"/>
  <path fill="#4D4D4D" d="M503.9 311l-4.1 3.6-4.3 5.5-5.5 6-6.7 4.2-7.8 1.8 8.4-.8 7.7-5.3 5.7-6.7 4.9-5.5 1.7-2.8zm14.6-2c-.8.4-4.1 5.2-4.1 5.2l-4.3 5.5-3.4 2.8-2.7 5.6-2.6 5-2.7 2.9-6.2 2.6 7-1.4 3.5-4.5 2.6-6.1 2.3-3.8 3.7-3.1 4.5-6.3 2.4-4.5zM501 327.4l-4.9 3.2-4.3 3.7-4 4.2-4.5 6.4-4 3.2-8.6 2.4 9.1-1.6 5.3-4.5 4.5-6.3 5.5-5.3 5.9-5.4zm-17.3 9.5l-7 1.4-8.3 3.9-4 2.7-5.1 1.6-7.7.1 8.3.7 7.7-2.9 5-3 6.2-2.6 5-1.9zm-36.6-102l6.5 6.6 4.9 6.1 5.3 9 3 5.5 3.9 4.4 5.4 2.8-5.2-3.8-3-4.3-4.1-6.7-6.6-10.2-4.2-4.4-6-5zm17.9 30.8l2.8 5.5 4.3 6 2.9 5.2 4 5.3 2.9 2.4-4.3-2.4-4.3-6.5-3.6-5.8-3.3-4.4-1.4-5.3zm27.8 33l-4-2.7-4.5-1.2-4.7.6-3.5 3.3 4.7-2.5 3-.2 5.2 1.6 3.8 1zm-31-10.5s-5 3.6-6 3.7c-1 .2-5.5 1.9-5.5 1.9l-3.8 4.7-1.5 4-3.7 4.7 5.2-4.3 1.8-5 3.5-3.7 5.4-1.6 4.5-4.4zm16 11.9l-5.7 2.6-4 2.9-4.2 3.7-3.4 5.4-1.2 3.3s-5.3 4-4.5 3.8c.8-.2 5.9-4 5.9-4l1.8-3.7 3.3-5 5.5-4.8 6.5-4.2z"/>
  <path fill="#999" d="M483.8 147.7l-.6 5s-.2 5-.1 5.6l1.6 5 .7 6.6.5 9.5.6 7.2 1.3 6.3 3 5.3 3.5 3.3s3 2.2 3.3 2.8c.2.7 2.7 5.6 2.7 5.6l1 6.3-1.8-6-2.6-5.1-3-2.9-3.5-3-3.5-7-1.4-8-1.2-12.8-.2-7.2-1.6-5.5-.1-6.8 1.4-4.2zm77.6 63.5l-8.6 7.6-4.1 6.4-2 3.8-1 3.9-3.1 3.3-3 5-.6 2.4-2.7 6-1.5 3.2-4 4.2 5.6-4.6.8-2.9 2.6-6.7 3.8-6.3 3.5-4.6.5-3.1 3.7-6.2 3-4 7.1-7.4z"/>
  <path fill="#999" d="M584.2 190.3l-5.6 1-6.2 3.9-2.5 5.3-2 3.3-1.8 3-1.9 3-3.1 4.6-1.5 4-1.2 3.2-3.6 3.4-2.2 5-3.8 2.5-5.6 1.4-4.5.7-3.8.1 4.3.4 5.7-.9 5-1.5c.5-.2 4.3-3.4 4.3-3.4l1.3-4 4-3.9 1.4-4.4 3.3-5.9 5.5-8.6 3.5-7 5.7-3.5 5.3-1.7zm4.2-14l-9 1.4-5.2 1.2-3.5.4h-6.1l7.6.6 5.4-1 5.5-1 5.3-1.6zm-10.8 7l-4.3 1.4-3.8 1.8-5 4.2-4.3 4-3.3 1.1-4.2.5-6.8-.2 7.7 1 4.7-.8c.6-.2 5.3-3.2 5.3-3.2s3.8-4.2 4.2-4.3c.4-.1 5.3-3 5.3-3l4.5-2.6z"/>
  <path fill="#999" d="M571.5 176.2l-5.1 3-5 5-2.4 5.5-1.3 3.3-2.2 4-2.2 3.6-2.4 3.4-1.2 4-1.4 3.4-2.5 2.2 3.7-2.5 1.3-4.6 1.9-4 3.8-6 4-7.4 1.5-4.3 5.3-5.3 4.2-3.3zm14.9 22.9l-6.6 2-4.3.4-3.6.8-5.8.6-5.3-.3 5.5 1.1 7.6-1.2 4-.4 3.7-.7 4.8-2.3z"/>
  <path fill="#4D4D4D" d="M577.6 208.7l-5.6 7-3.5 4.7-3.8 4.6-2.6 4.3-3 4-2.8 2.4-3.2 1.8 5.1-2 2.7-3 4.4-6.7 4.5-5.8 3.7-5.2 4-6z"/>
  <path fill="#999" d="M561.8 223.7l-3.1 6-2.6 4-1.9 4.7-3 4.3-2.8 4.3-3.6 4s-5.7 3.8-5.3 3.7l6.5-3.7 4.7-5.8 4.5-7 2.2-5.3 3.1-5.3 1.3-3.9zm-10.9-53.2l-3.8 4.6-3.3 5-4.6 5.1-3.7 1.3-5.9.7h6.2c.6 0 3.8-1.4 4.3-1.5.4-.1 4.9-5.3 5.2-5.8l2.7-4.7 3-4.7zm-9 33h3s3.3.7 3.8 1l4.6 3.4 4 4 6 2.8 5.1 1.2 9.9.4-9.9.3-7.4-2.2-4.1-2-4.1-4.1-4-3.1-3.5-.7-3.4-1z"/>
  <path fill="#999" d="M541.2 174.1c-.6.6-2.5 5.5-2.5 5.5l-1 3.5-1.3 5.1-.6 7.8-.5 5.3-.4 5.8-.1 3.7.6 5 1.2 6.9-2-7-.6-8.7 1.3-12.8.9-7.7 2-7.2 3-5.2z"/>
  <path fill="#999" d="M541.2 218.3l-3 2.4-4.1 2.7-1.5 4.4-3.8 2.9-2 2.2-1.4 3-1 6 1.8-6.2 2.2-3.4 4-3.5 1.5-1.7c.6-.5 1.7-4 1.7-4l5.6-4.8zm-5.6 13.9l-4.6 9.5-3.4 5.5-1.3 5.6-1.7 3.4-1.5 5.5-2.4 4.8-2.2 4.7 3.5-5.5 2.9-6.7 1.2-4.5 1.2-3.4 1-3.3 3.9-6.6 3.4-9z"/>
  <path fill="#999" d="M502.6 224s2.9 3.6 3.3 3.8c.4.3 4.2 5 4.2 5l5.7 5.7 2.8 2.5 3.9 2.4 5.4 1.4 4 1.4 5.8 2.5 4.7 2.6 4.6 7.4-5-6.9-4.8-2.3-5.4-2.6-4-1.5-5.3-1.3-5.4-3.2-6.2-6.2-4.3-5.2-4-5.5zm10.3 18.3l3 .7 4.3 3.4 2.8 4s2.1 4 2.5 4.1c.5.2 2.7 3.1 2.7 3.1l2.6 1.6 2.9 1.4 2.2 1.8 3 3 3.9 3.5-5-3.2-3.9-3.7-3.7-2.5-3-1.6-2.6-3.8-2.9-4.4-3.2-3.7-2.9-2.5-2.7-1.2zm-51.8-46.2c.6.1 7 5.3 7 5.3s4.2 6.2 4.8 6.3c.7.1 5.5 3.5 5.5 3.5l3.2 3.2 3.1 6 2.3 5.4s2.3 5.3 2.9 5.5c.5.3 3.5 5.2 3.5 5.2l5.3 6.1 3.7 4.7 4.8 4.5 3.8 1.9 4.7 1.5 5.2 1.8 7.3 4.3-7.7-3.5-4.8-2-5-1.5-4.6-2.4-5.1-5-3.4-4.4-5.6-6.7-3-4.5-3.2-6-3.5-7.8-2.7-4.1-3.4-2.9-4-2.3-4.6-6-6.5-6.1z"/>
  <path fill="#999" d="M486 214.1c.4 0 3.8 1.1 4.2 1.3.5 0 5.1 3 5.5 3 .3.2 3.4 4.5 3.8 4.7.4 0 2.6 3.8 2.6 3.8l.8 3.4 1.3 2.7 5 6.3 1.2 4.4 2.8 4.3-3.4-3.8-1.3-4.4-4.5-6.2-2-3.2-1-3.4-2.7-4-3-3.7-5.4-3-4-2.2zm3-46.2l3.8 2.4 4.9 5.6 2.8 4 2.7 3.6s2.7 5 3 5.3c.4.2 3.8 4.3 3.8 4.3l5 3.7-5.2-2.9-4.3-4.6-3-5.4-3.1-4.3-2.9-3.8-4-4.5-3.4-3.4zm-14 27.5l5 3.4s1.6 2.6 2 2.7c.4.1 4 2.6 4 2.6l3.8 2.3-4.9-2-3.5-2.2-2.1-3.1-4.4-3.7zm73.5-72.2l2.1 5.7.3 4.5-1.8 5.9-2.3 4.6-3 2.7 4.1-3 2.7-6.5 1.4-5c0-.7-.7-4.3-.7-4.3l-2.8-4.6z"/>
  <path fill="#999" d="M507.7 136.4l6 4 3 4.4 5.3 5.3 1.9 1.3 5.8.3 5-3s4.3-3.4 4.6-3.5a49 49 0 003.5-4.2l1.8-3.4 2.5-1.6c-.7.6-1.3 1.3-1.8 2l-2.1 4.4-4.1 4.2-4.2 3-5 3-6.3-.2-3-2.1-4.2-4.6-3-4.3-5.7-5zm23.9 23.8l-3.7 4.9-.8 6-.6 5.8-1.4 4.6-1.8 5-1.5 3.8-.2 4.9-1.6 2.5-3.8 4.4-5.6 4.1 5.7-5 3.7-4.6 1.1-2.3.1-4.4 2-6.4 2.6-7 .5-5.8 1-6.3 4.3-4.2zm34.6-24.5l4 2.7h6.6c.6 0 6.4-2.6 6.4-2.6l5.3-4.6s3-3.7 3.5-4c.4-.1 4-3 4-3l-3.6 3.8-4.3 4.8-3.1 3-2.4 1.8-5.8 1.5h-6.5l-4.1-3.4zm-5 3.5l-4.6 4.3-4.3 7.4-3 4.2-3 2.9-4 1-2.1 1.3-2.6 2.7-4.2.8-1.8 1.7 2.6-1 4.2-1.1 2.7-2.7 2.6-1.5c1.3-.4 2.5-.8 3.8-1l3.3-3.4 3-5 4-6 3.3-4.6z"/>
  <path fill="#999" d="M571.2 150.7l-3 3.6-3.9 4.6-4.3 4-3.8.2-4.6-1.4-3.2-2-2-3.1-3-1.5H540l3.1.6 2.9 1.6 2.5 3.1 2.8 2 4.8 1.5h3.6l3-1.7 4-4.6 4.6-7zm-44.4-5.6l-2 4.5-2.5 2.7-3 4-1.2 4.6-1.8 5.7-.6 5-2.5 3.8-1 3.6-.8 5.4-2 4.5-2 3.7-.6 4.7s1.3 5.4 1.3 5l-.5-5.2.5-4.3s2.5-5.4 2.8-5.5c.4-.1 2.3-7 2.3-7l.9-5 3-4.3-.2-4.5 2.4-6.6 1.6-4.1 3-4.3 2-2.2.9-4.2zm1.1 40l4.1 5.6s6 4.4 6.4 4.4c.4 0 7.2 2.5 7.2 2.5l5 .4 7.8.7h-7.5l-5-.3-7.7-2.6-6.2-4.3-4-6.4zm30.8-9.9l5.9-.2s4.3-3.9 5-3.9l4-.8c.5 0 7.7-4 7.7-4l5.8-4.8 4.2-6 4.5-3.9-3.7 4.3-4.5 6.3-6 5-7.5 4-4.3.6s-4.5 3.8-5 4l-6-.6zm-34.4-58.1l4.6.6 6.6-.8c.4 0 6-1.9 6-1.9l6.4.2 6.6-.4 5.1-2.4-5 3.3-6.7.1-6.5-.2-6.1 2-6.4.8-4.6-1.3zm-26.8-11.7c.5 0 4.6 3.2 4.6 3.2l2.8 1.7s.6 2.6 1.4 3c.8.3 4.3 3 4.3 3l2 3.3s3.3 2.2 3.8 2.3l6.8 1.5-7.1-.7-4.5-3-1.6-3-4.1-2.9-2-3-3-2-3.4-3.4zm36.3 35.5l3.4-3.7 6.1-3.8 3.7-.6 5-.7 2.8-1.8 4.7-3.4 2.3-2.7 2.4-2 4.9-.6h5.4l3 1.7-3.4-1-5-.1-4.6.7-2.7 2.7-2.6 3-5 3.2-2.8 1.4-4.7.2-3.7 1-5.4 3.5-3.8 3zm-35.1-28l5.2 5.2s7.1 6.2 7.5 6.2c.5 0 3.1 5.5 3.1 5.5l2.5 5.5.7 3.3-1 3.9-4 5 3.5-5.4.8-3.8-2.4-6.8-3.7-6.6-7.4-6-4.8-6zm37.6 46.3l3.9 4 5.1 4.2c1.9 2.4 4.1 4.4 6.5 6.2l4.2 3 3.1 1 3.2.2-3.3.5-3.9-1.3-4.2-3.3-4-3.4-2.8-2.8-4.3-3.7-3.5-4.6z"/>
  <path fill="#4D4D4D" d="M557.8 289.8l-2.5 7.7-2.8 5.1-5.5 5.5-5.8 3.5-7.8 3.4-4.5 3.9 5.4-2.8 4.8-2.7 8.7-4.8 5.6-6.5 3-5.6 1.4-6.7z"/>
  <path fill="#4D4D4D" d="M551.6 294l-5 5.4-4.5 5.9-3.7 5.4-1 3.2-1.3 5-1.2 4-4 5.1-2 1.7-4.6 2.3-5.3 3-2.1 3-3.7 1.6-5 2.5 5.5-1.8 4-1.8s1.6-2.5 2.1-2.7l5-3.1 4.8-2.5 2.3-2.3 4-4.6 1.2-4.6 2-5.3 1.5-4.3 4.2-5.8 3.9-5 2.9-4.3zm-50 64.7v3.5l-1.2 5-3 5-3.5 2.6 4.4-2.1 3-5.8 1.3-5.1-1-3.1z"/>
  <path fill="#4D4D4D" d="M510.5 367.7l-2.5 2.8-3.1.8-3.5.3-3.4-.5-5 1.2-4.7 1.8 6.4-1.7 3.6-.6 4.1.6c.5 0 6.4-1.5 6.4-1.5l1.7-3.2zm16.3-13.9l-1.8 4-2.6 4.1-2.7 1.7-5.8 1.9-2.7 1 3.4-.4 6.3-2.4 2.7-2 2-4.1 1.2-3.8zM512.5 309l.3 4.1 1 3.6-.5 4.8-2 3.8-3.7 5.7-2.3 3.2 4.1-4 3.5-6.4 1.5-3 .2-5.7-1-3-1.1-3zm3.1 26.9l-1 5.2-2 6.5s-3 3-3.2 3.4c-.2.4-4.6 3.4-4.6 3.4l-4 1.6 5-1.4 5-4.3 3.3-4 1.4-6.3.1-4.1z"/>
  <path fill="#4D4D4D" d="M525.1 312l-.6 8.4-2.2 5.8 1.6 4.7-.6 5.7-3.6 4.9-3 2.2-4.8.6-6.6 1.4-4.8 3.4 5.5-3s6.4-1 6.8-1.2l5.3-1.2 4.3-4.4 2-3.9.3-5.3-1.5-3.8 2.2-6.4-.3-8z"/>
  <path fill="#4D4D4D" d="M504.5 337.6l-.5 4.8.1 2.2.7 4.6-1.6 4-4.8 3.3-3.1 4.3-3.1 3-4.4 1.8 5.5-1.4 3.6-3.9 2.6-3.3 4.6-4 1.4-4.4-.5-4.6-.5-6.4zm-5.7-4.7l-.4 6-1 4.9-3.3 4.2s-2.9 3-3.3 3.2c-.4.2-3 2.7-3 2.7l-2.3 4.7-3 2.5 4.8-2.7 1.3-4 4.1-3.7 3.7-4 2-3.9.4-9.9zm121.6-166l-5.3 6.8-7.5 8.3-4.9 5-4.7 4.8-5 2.8 7-2.6 4.7-5.3 5.3-5.7 7.7-9 2.7-5zM598 177.2l4.1-4.9 6-5.7 5.4-4.4 2.6-3.5 3.7-4 3.7-4 3.8-2.8-3.5 4-4.5 5-2.5 3-4.1 4.5-5.3 4.3-9.4 8.5z"/>
  <path fill="#4D4D4D" d="M612.7 168.8l8.5-7.1 5-5.7 4.6-6 1.6-3.6 2.2-6.7 3.1-6.3 3-4.9 3-7.1 1.2-7-.9 8.5-4.3 10.3-3 4.5-3.3 9-3.8 6.6-5.1 7-11.8 8.5z"/>
  <path fill="#4D4D4D" d="M655.6 113.2l-.7 6.8s-2.6 10-3.2 10.1c-.5.2-3.5 5-3.5 5s-3.6 3.2-4 3.8c-.5.6-4.7 4-4.7 4s-2.6 3.3-3.2 3.7c-.6.5-3.7 1.9-3.7 1.9l-5 1.2h-7l8.4 1 6.7-2.2 5-5 5.6-4.8 4.4-5.5 3.3-5.2 2.4-10.6-.8-4.2zm-12.2 38.3l-6.5 4.9-7.1 6.9-5 6.3-2.6 4.4-3.3 3.7-1 1-4.8 3.9 11.4-9.4 2-4.5 5.1-5.6 7.7-7.4 4-4.2zm-9.4 14.8l-5.3 7.7-4.6 7.8-5.7 4.7-7 3.9-5.7 5 7-4.7 7.3-4 5.5-5 4.3-7.2 4.2-8.2zm-17.7 25.9l-5.3 5.2-4.9 4.7-4.4 3.3-8.4 5.1-5.5 6.6s6.2-5.6 6.8-5.8c.6-.2 7.7-5 8.3-5.1.6-.2 6-4.7 6-4.7l5.6-6 1.8-3.3zm4 2.6L614 201l-5.5 6.3-5 5.5-4.1 7.3-6.4 8-6.9 9.2 9-9.8 6.7-9 2.6-5.3 5.3-5.7 5.5-6.1 5.3-6.7z"/>
  <path fill="#4D4D4D" d="M612.4 185.7l3.1 8.1s2.2 4.9 2.9 5c.6.2 2.9 4.6 2.9 4.6l2 4.3 1.8 7.4-.4-8.1-3-5.2-2.7-4.1-2.7-4.7-3.9-7.3zm-8 10.1l3.4 7 3 6 2.9 4.5 4.8 5.3 6 4.7-7-3.9-5-5.5-4.1-6.5-2.2-5.3-1.9-6.3zm-13.9 40L580 246.6l-7.1 10.7-4.3 4.5-5.3 5.5-5.5 9.2-5 7.5-10 14.2 11.8-15 4.9-7.6 5-7.8 6.2-6.6 4.8-5.3 6.4-9.5 8.7-10.4z"/>
  <path fill="#4D4D4D" d="M620 208.5l-10.2 9.5-11.2 11.2-8.1 6.7-6.8 3.2-6 3.5-7.8 6.5 8.6-5.7 6.9-3.9 7.3-3.8 8.6-8s10.2-9.5 10.8-9.8c.6-.2 7.9-9.4 7.9-9.4zM567 258.3l-6.7 7.7-7.3 8.7-2.9 8.2-2 4.9-5.7 8.5-7 4.7 8.8-4.7 5.5-9.7 4.3-11.4 8.5-10 4.5-7zm13.4-1.4l-5.5 6.9-4.4 8.1-2.5 8.1-1.2 8 2.6-9.2 2.3-6.9 5.5-8.7 3.2-6.3zm-53.3 7.3l-2.6 7v5.6l-2 8-1.3 5.2-1 4.5-2 5.9-1.6 6.7-1 5.3v6.3l.1 6.3 2.3 7.3-1-7.5-.4-6.5.2-7 1.4-6.4 3.2-11 2.9-11.4 1.2-6.3.2-5 1.4-7z"/>
  <path fill="#4D4D4D" d="M536.6 272.7l-1.6 10.4-2.7 10.5-3 5.5-.4 5.8-1.3 7.7-.6 6.3-3 7.5-6 6-5 2.8 6-2.5 6.2-6.5 3.2-9.5.6-7.6 1.5-10 3-6.3 3-11.4v-8.7zm30.7-4.7s7.3 2.7 8.1 3.3c.8.6 5.8 6.5 5.8 6.5l2.6 3.5 5.2 3.8 4.7 1.3 5.6.2-6.6 1-6.1-1.9-4.9-4.3-4.4-6-4-4-6-3.4zm10.8-30.6a168.4 168.4 0 0011.8 14.4l3 6.1 5.3 6.7s3 2.4 3.9 2.8l7.4 3-7.2-4.2-3.8-2.8-4.7-6.3-2.9-6-5.5-6.4-7.3-7.3zm-1.4-5.8l-6.6 6-5.5 7.5-1.4 6.2-2 6.1-3.3 5 4.5-5 2.2-6.9 1.9-6 5.7-7.6 4.5-5.3z"/>
  <path fill="#4D4D4D" d="M584.4 206.8l-5.9 6.7-2.9 3.7-3.2 5.7-3.3 4.8-1.8 5.8v8l.6 6.8.8-7.7-.2-7.6 2.2-5.6 3.5-6.1 5-6.1 5.2-8.4zm2.4-3.3l5.6 5.8c.6.4 5.4 5.4 6 5.9.6.4 2.6 4.4 3 5 .5.6 4 7 4 7l4 5 5.6 4.1-5-5-3.7-4.8-4.6-7.9-2.4-4.7-7-6.3-5.5-4zm-6.3 20l4.7 1.6c2.3 1.4 4.6 2.9 6.7 4.5.6.6 3.7 5 4.3 5.3.5.4 3.9 5.3 3.9 5.3l2.8 6.9 3.7 3.7-4.5-3-3-7-3.8-5.1-4.4-5.3-5.7-4-4.7-3zm13 17.5l4 11.4 1.5 7.1-1 10.2-4 5.7s-6.4 6.9-5.8 6.5c.7-.4 7.2-6.5 7.2-6.5l3.7-5.8 1-10.5-1.9-7.4-4.7-10.7zm-28.7-8.8l-5.2 9.6-3.9 8-4.7 4.2-3.2 4-3.5 7.4-.4 5.7 2-6.1 3.1-7 4.4-4.6 3.7-3.9 3.7-7.7 4-9.6zm-5.4 20l-4.1 7.9-3 5.9-5.6 7.1-3.6 4.3-3.5 2.2-2.2 6 3-5.4 4-2.6 4.6-5.5 5.5-7.5 2.8-6 2-6.4zm-14 31.7l-8.4 13-5.3 4.3-6 2.5-5.4 1h-4.7l-4.7-.4-5.3 1.6 6.2-.6 5.9.4 7.3-.6 7.3-3 5.7-4.6 7.3-13.6z"/>
  <path fill="#4D4D4D" d="M571 265.2l-5.6 8.3-5.2 12.4-1.3 8.2-2.8 8.1-3.7 2.7-7 1-5.6-.7-5.7-1.8-4-1.4-4.7-1.3-6 .2 6.3 1 5.1 1.5 7 2.4 6.8 1 8.7-.8c.6 0 3.8-3.4 3.8-3.4l3-8.8 1-8.1 5.3-11.8 4.6-8.7z"/>
  <path fill="#4D4D4D" d="M592.1 241.8l-3 5.3-3.4 4.3-.3.4-1.6 5-3.3 4.3-4 3.1-7.6 2.2 8.2-1.2 4.7-4 3.2-5 2-4.9 3.5-4.2 1.6-5.3zm76-3.3l-7.2 2.7-6.3-.2-6.4-.8-8.3 2.4-3.7 3.3-5.2 6.3-3.7 2.2-6.5.9h8.3l3.5-3.7 5.5-6.2s3.7-2.6 5.3-2.6c1.6 0 5.3-1.4 5.3-1.4l8.3 1.2c1 .3 6.7-.6 6.7-.6l4.5-3.5z"/>
  <path fill="#4D4D4D" d="M642.4 230.4l-4 .6-6.4 3.3-5.3 4.5-6.1 7.9-4.5 8.8-4.3 10.3-.2 3.5.7 3.4.8-4s-.2-3.5.4-4.1c.6-.6 4.9-11.6 4.9-11.6l4-7s5.3-6.9 6-7c.6-.2 5.4-4.3 5.4-4.3l5.3-2.5 3.3-1.8zm38.4-22l-3 3.3-4.8 3-4 .5H665l-2.8 1.8-3.7 3.1-3.7-1-3.4 1.2-6 2-4.6 1-3.7 2.3-6.9 1.6-4 .4-5.5-1.4-3.1-.2 3.4 1.3 5.1 1.2 6-.4 6.2-1.9 3.1-2 7.2-1.7 6-2s3.3 1.2 4.1 1.2a24 24 0 004.7-3.8l3.5-1.4 6.9-.9 5.7-3.8 1.2-3.3zm-35 47.9l-5.9.1-2.5 2.2-2.2 2-5 5.2-5 4.5-5.4 3.8-4.5 2.7 5.7-2.2 6.1-4.5 6.9-6.8 4.3-4.2 3.2-1.7 4.3-1.1z"/>
  <path fill="#4D4D4D" d="M629.8 257.9l-5.7 2.4-6.5 7.1-1.5 4.3-3.8 7.3-4.5 5.5-2.3 3-2.2 7.6-.8 4.9v6.9l-1 8.1 2.2-8v-7.4l1.4-6.8 1.4-5.3 4.1-4.6 4.7-6.1 2.3-5.7 2.4-4 4.9-6 4.9-3.2z"/>
  <path fill="#4D4D4D" d="M613.5 265.8l1 11.2.7 8.3-.5 8.6-.6 8.3-.2 9.6-1.2 5.9-2.5 5.9 1.9 11s-.8-10.8-.5-11.5c.4-.6 2.3-6.2 2.3-6.2l.8-6.8.4-11.1 1-11.2-.1-9.8-2.5-12.2zM640 238l4.4 10.4 5.5 9 3.9 3.4s5 6.5 5.6 6.8c.7.2 9.6 6.4 9.6 6.4l-5-4.6-4-2.9-5.5-6.1-4-4.3-5-8.1-5.5-10z"/>
  <path fill="#4D4D4D" d="M620.8 224.5l8.5 1s6.4 3.5 7.2 4.3l4.3 5.7s4.4 5 5.5 5.7c1 .6 4.6 4.7 5.2 4.9l5.3 1.6h7.1l-7.4-1.2-4.4-1.3s-5.5-5.3-5.7-5.9c-.1-.6-4.6-4.8-4.6-5.5 0-.6-4.4-5.9-4.4-5.9l-6-3.7-2.5-.6-8 .9zm8.5-10.7l3.9-9.6 6.5-7 6.7-5.5 4-2.8 4.6-2.9 5.5-1.4 5.5-1-6 2.3-5.5 1.4-6.2 4.3-5.3 4.4-4.3 4.3-4.3 4.3-5 9.2zm-18.3 5c.2.6 3.7 7.5 4.5 8.3l5 5.8 5 4.4s1.6 5.5 2.5 6.1c.8.7 2.8 4.5 2.8 4.5s5.5 5.5 5.5 5c0-.7-4.7-6.2-4.7-6.2l-2.8-4.3-2.3-6-5-4.6-5.2-5-5.3-8zm3.7 12l-3.9 7-3 8.3c-.3.6-4.7 4.7-4.7 4.7l-2 5.2-5 5.1-3 2.9s-3.4 2.2-4 2.4c-.7.2-7.2.8-7.2.8l8.4.5s4.8-3.7 5.6-4.1c.8-.4 6.4-7.3 6.4-7.3l1.8-5.2 5.1-4.6 2.9-8.8 2.6-6.9zm-5.3 34.8s-1 3.1-.6 4c.4 1-1.4 9-1.4 9l-4.7 6.3-5.9 8.6-3.9 4-3.7 5.6-1.3 5.8 2.6 12.2-.2-5.8-.8-7 2-6.3 8-8.7s4.4-7.5 5.2-8.6c.8-1 4.4-6.9 4.4-6.9l1.2-8.1-.9-4zm-4-10.6l9.3 4.7 7 7.7 4.6 8.6.8 4.5 2.8 3.2 5.8 2.2-5.1-3-2.7-2.9-.6-4.6-4.9-9-7.3-7.7-9.7-3.7z"/>
  <path fill="#4D4D4D" d="M616.6 249.7l5.6 3.7 5.7 4.5s3.9 4.6 4.5 5c.6.5 1.6 9.6 1.6 9.6l-1.4 8.1 1.8 6.2 2.7 9.1 2 6-1-7-2.4-10-1.9-4.4s1-9 1.2-9.6c.3-.5-1.6-9.8-1.6-9.8l-5-4.7-6.8-4.6-5-2zm31.9-15.2c1.2-.2 8-2.7 8-2.7h11.3l7.9-2.6 7.5-3.3 6.4-3.5 10.1-8.3-9.7 9.4-6.5 3.9-8 3.4-7.3 2.5H661l-4.2-.2-8.3 1.4zM634.2 361l-1.6 11.8s-1 8.1-1.2 8.7l-3.1 9.4-3.1 5-4.7 3s-4.6 2-3.8 2c2-.3 3.8-.8 5.7-1.4 1-.4 3.8-2.5 4.5-3.5l3.2-6.3s2.2-8.1 2.7-8.7a54 54 0 001.4-8.8V361zm-7.7-58.4l-5.7 3.3-3.5 1.6-3.8.4-3.7.2-5.7 1.6-5.3 2.3-4.3 2.6-4.6 2.6-5.1.7-5.3-.2 6.2 1.6 8.6-3s5.3-3.6 6.8-3.7c1.5-.2 6.5-3.1 6.5-3.1l6.3-.6 6.3-.8 6.3-5.5zm4.5-18l-7.8 4.2-4.4 1.9-5 3.8-3.6.8-2.6-.8-5.6-.8-4 2.5-6.1 1-6.6-1.3-6.6 3.1-6.8 1.2 8-.1 6-3.1c2 .6 4.1 1 6.2 1.2 2.9.2 6.5-1.2 7.5-1.4 1.3-.5 2.5-1 3.7-1.7l5.4 1.4s6-.8 6.6-1c.7-.2 4.5-3.9 4.5-3.9l4.7-2.2 6.5-4.9zm-9.2 29.6l-6.7 1.6-6.1 4-3.9 4.2-4 3.5-6 1.4 8-.6s3.7-4.4 4.3-4.5c.6-.2 4.7-4.1 4.7-4.1l4.4-2.5 5.3-3zm-1.6 14l-6.8.7-6.4 3.9-4.4 4.8-1.8 6.1-1 4.7c-.2.6-3.2 4-3.2 4l-4.3 4.4-1.4 5.8s2.5-5.6 3.3-6c.8-.5 4.4-4.6 4.4-4.6l3-4.4 1.7-6.3 1.3-4.3 4.4-4 4.4-2.5 6.8-2.2zm4 10l-4.6 6.5-3.9 8.2-3 4.9-5.1 5-5.3 4.5-5 .8 6 .4s4.9-5 5.5-5.3a71 71 0 005.7-6.1l3.2-6.1 3.5-6.7 3-6.1z"/>
  <path fill="#4D4D4D" d="M619.8 335l-6 5.3-5.6 3.8c-.4.2-1.7 2.8-2.7 5l-.4.6-1.2 2.5.4 6.2 1 4.6.7 7-2 5.2-2 4.3s-4.4 3.5-3.6 3.3c.8-.2 5.1-3.5 5.1-3.5l2.5-6.3 1.6-4.7-1.3-7.5-1.2-6.2 1.7-4.8 2.6-4.7 6.1-4.6 4.3-5.5zm-7.5 31s.1 5 .4 5.6c.2.6 3.4 5.9 3.4 5.9s1.5 2.6 2.9 3.2c1.4.7 5.9 2 5.9 2l-4.5-2.8-3.3-3.2-3.4-5.8-1.4-4.8zm-2 8.2l-3 5 1 4.4s3.3 3.4 4 3.7l6.7 1.8 2.4 1.2 2 3.1 2.9 6.1 5.1 2.5-4.3-3.7-2.8-6.1-2.2-3-2.9-1.7-7-1.5-2.4-3.2-1.4-3.5 1.8-5zm-48.7-50.8l-6.3 7.8-2.7 5.6s-3.2 3.9-3.8 4.3c-.7.5-5 2.3-5.5 2.5l-4 .8-7 .4-5.1.6-4 3.2 4.4-2s4.7-1 5.8-.8c1 .3 6.2-.4 7.2-.4s7.2-2.3 7.2-2.3l6.3-5.5 3.2-6.3 4.3-8zm-3.7 13.2l-6.5 11-.8 5.5v6.7l-.8 5.5-3 3.4-5 1.9 6.2-1.7 3-3.8 1-6.4v-6.4l.8-4.5 5.1-11.2z"/>
  <path fill="#4D4D4D" d="M543.3 314.2l2.4 6 5.2 9.5 4.8 5.9 6.1 5.5 6 3.4 6.4.8 7.4.3 8 .6 4.4 3.2-6-2.5-6.7-.6-8.5-.2-6.5-1.2-5.9-3.5-6.8-6.7-5.3-5.3-4.4-9-.6-6.2zM524.6 342l-4.1 8-3.6 5.4-5.2 3.2-5.4 1.7-4.3 3.5 3.6-5 5.3-1.4 4.7-2.6 4-5.9 5-7zm-14.3-73.9s2 7.4 3.3 7.9c1.2.5 3 3 3 3s2 4.2 2.7 4.4a36 36 0 013.3 1.2h4l3.1 3c1.4.5 2.7.8 4 .9l4.5.2 3 1.6c1.2.8 6.2 2.7 6.2 2.7l4.7-.6 5-4.7-5.4 3.4-3.5.7-6-2.7-4-2h-4.7l-3-.5-3.7-3.6-4 .4-2.9-1.4-2.2-4.3-3.7-2.8-3.7-6.8zm15.7 22.4l-5.7.8-4.2 2.5-4.7 3.4-3 4-4.3 1-7.8.5-4.3-1.6 4.7.4 7.3-.8 3.7-.6 2.9-3.7 4.8-3.7 4.7-2.2h6zm58.6 16.1l-4.3 4.3-5.7 2.4-7.1-.4-4.3-2-3.8-3.3-4.3-4.7-3.4-3.6-3-1-3.8-.3-6 2.9-6 4.7 7.4-4.3 4.6-1.8 4 .1 3.6 3 4.4 4.2 4.7 4 6.1 3.5h5l5.6-1.6 3.5-1 2.8-5.1zm-35.6 6s2.2 4.2 2.8 4.6c.7.4 5.3 5.8 5.3 5.8l4 1.7 9.3.6 5-.8 6.2-.4c.6 0 3.4-.4 4-.2.6.3 3 .4 3.9.8l6.3 3 5.2 3-5-4.1-7.1-3.6-4.1-.6-4.7.6-5.3.5-5.6.5h-5.8l-4.3-1.8-4.1-3.5-6-6.2z"/>
  <path fill="#999" d="M310.6 319l5.6 6.6 9 4.9 7 .8h8.9l7 1.2 4.4 5 3.7 6-9-9-7-1.2-9.3-.4-9-1.6-8-4.9-3.3-7.3z"/>
  <path fill="#999" d="M322.4 317.4l5.7 4.5 2.8 4.9-1.6 10.5-1.7 8.6 1 8.5 4 10.2 5.3 6.9-3.3-9-3.7-9.3-1.2-7.7 2-12.3.4-8-3.6-6.2-6-1.6z"/>
  <path fill="#999" d="M317.1 322.3l-1.2 7.2.2 7.3 2.2 10.2 2.4 6 3.7 4.1 2.3 1.6 7.3 2.5 4 2 4.3 4.1-5-3-4.7-2.3-5.5-2.2-3.7-1.9-3.3-3.8-3.2-7.7-2.3-9.6v-8l2.5-6.5zm13-26.2l-.6 3.5.4 4.8 1 3.9 1.9 5.1.8 5.3v-5.5l-1.9-5-1-4.1-.4-4.4-.2-3.6zM17.5 329.2l-2.7 5-3.7 5.5-2.6 5.9-1.8 5.6-.6 7 .8 8.5.2-9 .8-6.9 2.6-6.9 2.9-5.3 3.3-5.7.8-3.7zm12 27.5l-1.5 7.5v6.6l1 5.7 2.7 6.1s-1.4-5.9-1.4-6.7c0-.9-1-8-1-8v-4.6l.2-6.6zM27.6 424s4.3 6.1 5 6.5c.6.3 5.2 4.3 5.2 4.3l6.3 2.2 5.5-.2 3.2-1.9 5.1-2.5 4.7-1.2-4.5.4-4 1.5-4.1 2-4.5.5-4.3-.9-3.6-1.6-4.5-4-5.5-5.1z"/>
  <path fill="#B3B3B3" d="M302.3 15.2l9.2-2.2h11.7l9.7 1.4 7.1 1.3 9.5.3 7.3-1-7.5 2.3-9.6-.2-7.8-1.4-6.5-1.3-7.6-.6-15.5 1.4zm76 7.9s5.5 1.6 6.5 1.6l7.6.2 6.8-1.8s8.1-3.6 9.3-3.6c1 0 11.3-1.6 11.3-1.6l12.7.3 13.6 1.4 6.8 2.1 10 4.3-11-3.2-6.3-2.2-12.2-1.1-10-.5-6.8.5-10 1.7-6.3 2.7s-6.8 2.1-7.6 2.1l-9.3-.2-5.2-2.7zm143.2-6l10-4.3 5.4-1.9 2.7-.8 10-1.7h9.8s7.4 1.1 8.5 1.7c1 .5 4.9 2.7 6.5 3.2 1.6.6 6.4 3.5 6.4 3.5s5.8 2.5 6.6 2.7c.8.2 6.2 5.4 6.2 5.4l7.6 3.3-7.9-1.9-4-3.8-4.6-2.7-6.8-3-6-3.5s-6-2.5-6.8-2.7c-.8-.3-9.8-1.1-9.8-1.1l-9.2.3-24.6 7.3z"/>
  <path fill="#999" d="M697.3 126.1l6.4 6.8 10.6 11.7 5.7 10.3 1.9 12L723 184l-3 13.9-1.4 13.9-.2-14.5 3-13-.9-17-2.4-12-5.4-10.3-9.8-10.9-5.6-8zM477.8 67.2l12 4.3 16 4.7c1 .4 11.3 1.9 13.8 1.6 2.4-.2 8.9-1 10.2-1 1.4 0 10.4-1.7 11.4-1.7l8-.2 9.4.5c1.4 0 7.6-.8 7.6-.8l5.4-2.7-5.7 3.8s-6 1-6.7 1l-10.3-.8-7.9.6-11.7 1.8-10 .9-14.4-1.9-16.8-4.6-10.3-5.5zm-60.5-28.7l.6 3.2-1.4 5.2.5 10-.2 9.5.2 6.8c0 .8-2.1 7-2.1 7l-.6 10.1.3 9 3 6.5s-1.9-6-1.6-7c.2-1.2-.3-10.1-.3-10.1l.8-9 1.9-6.2V63.2L418 55l.3-8.3 1-5.5-2-2.7zm19.8 9.8l5-2.7c.8-.6 4.8-4.7 5.8-5l8.7-3s7.9-1 8.7-1.3L471 34l10-.8c1.3-.2 2.6-.2 3.9-.2 1.2 0 2.4.3 3.5.7l6.2 2.7-4.8-.8-9.3-1.3-8.2.5-6.8 3.2-6.1.9-6.5 1.3-4.2 2.2-5.6 4.6-6 1.4zm25.5.5l-7.6 3.3-3.5 3.2-3.8 3.8-3 6v8.1l.8 10.4.8-11.4-.2-7.1 4-6.5 5.7-5 6.8-4.8z"/>
  <path fill="#999" d="M438 40.7l-.8 7.6-5 6-7.3 8-3 2.8-6.2 3.8-6.3 1.4 8-.6 6.7-4.3c.8-.6 8.1-9.3 8.1-9.3l6.2-7.3-.4-8.1zm58.5 12.7s3.3.6 4 .6l6.9-.6 4.6-3.5 4.3-4.6 3.8-2.5 4-1.3 5.7-.3 6.6 2.7-5.4-.7-3.3-.8-4 .8-3.9 1.6-3.2 2.4-4.6 4.6-5 3.5-6.7.3-3.8-2.2zm35.3-30.3l5.1-5.4L542 13l4.1-3.2 7.6-2.7-6.7 4-6 4.6-4.6 4.7-5.2 6.4-3.3 6.8 1.7-7.6 2.2-3z"/>
  <path fill="#999" d="M537.7 22.5l2.7-3 6.3-3.8 2.4-2.2s3.5-1.6 5-1.6a16 16 0 004.5-1.6L565 8l4 .5-7.3 2.2-8.7 3-5.7 3.5-5.2 3.3-4.3 2.1zm10 5.1L550 22l3.3-4.7 7.3-3.5 4.3-.8 7.7-1 6.7-.3-8.6 2.7-6.8.5-5.4 1.3-4.7 2.5-2.7 4.9-3.2 4zM367.7 61.1l6.4 5.1s6 2.3 7 3.1c1 .9 4.3 2.9 5.3 3.7l6 5.5s5 3 5.7 3.8c.8.8 3.7 5 3.7 5l5.5 3s2.5 4 3.3 4.5c.8.4 8.5 6 9.1 6.2.6.2 5.7 3.1 5.7 3.1l8.2 1.9 6.5.8-7.2.4-8.3-2-5.9-3.3-8.1-5.8-3.7-4.3-4-2.6-2.3-1.6-3.3-4.5-5.4-3.6-6.6-6.2-5-3-6.8-3.3-5.8-5.9z"/>
  <path fill="#999" d="M400.7 36l-2.7 7.9-2.4 4.4-1.4 6.2-1.3 6v5.1l.6 6 .7 3.8v3l.4 6.6s1.8 5.9 2.5 6.3c.6.3-1.5-6.8-1.5-6.8l-.4-6.2-.4-5.2-1-8 1-7.4 1.6-7.5 2.7-6c.4-.8 1.6-8.3 1.6-8.3z"/>
  <path fill="#999" d="M392.1 32l.5 8.4L394 44l.8 4.5 1 3.8 2.9 4.7 2.4 2.6-3.5-2.2-3-5.1-1.2-5.3-1.3-3.8-.8-3.3.8-8zm-10.3 6.6l.8 6.3-.8 3.7 1.6 5 .2 3.3 1.4 4.5.7 3.8 2 3.5 2.6 2.8 3.5 2.7 5.7 3.6 3.8 1-3.6-2-5-3.7-4.8-3.6-3.3-4.7-.8-4-1.4-7.2-1.6-4.8.8-4.5-1.8-5.7zm-19.4 40.9l5.6 3.3 4 2.6c.6.4 3.9 3.7 5 4l3.6 1.7c.9.3 4.2 3 4.2 3l5 3.5 3.4 1.7c.8.4 3.7 3.4 4.7 3.8l9.1 3-10-2-4.9-4.5-4.2-2-5.1-3.7-5-3.2-3-1.4-3.8-3.5-8.6-6.3zm-6-15l6.1 1.7s5.7.8 6.5 1.3l8.1 4.3 5.5 3.8s5.3 3.9 6 4c.9.3 3.5 3.3 4.4 3.8 1.6.6 3.3 1.1 5 1.4l3.6.2 2.7.2h5.1l4 1 7.9 3.3 7.2 5-8.1-4.5-7.5-3-4.3-1-12.2-.4-4.9-1.9-4-3.4-6-4.3-5.6-3.7-8.2-4.3-5.5-1-5.9-2.4z"/>
  <path fill="#999" d="M370.8 31.6l.6 7.2.4 6.7 2.2 6.7 3.1 7.3 4.7 7.2 3.4 2.6 5.1 2.2h3.3l4 .2 3.5 2.7-2.9-3.9-5.6.2-3.7-.8-3.7-1.8-3.4-3-4.3-6.8-3.2-8.3-1.9-6-1.6-12.4z"/>
  <path fill="#4D4D4D" d="M630.4 242.4l2.4-3.3 3.3-1.2c.8-.2 3-2.6 3-2.6l3.5-2 4.5-2.1 2.4-2 5-2.7 4.2-.2 2.5-1.8 3.8-2.7 6.1-.6h7.4l-9.4 1.4-4.7.6-5.7 4.1-4 .4-6.6 4.4-4.2 2.4-3.1 1.9-2.2 1.6-1.9 1.6-3 .6-3.3 2.2zm-21.2-29l7.7-6 6.5-6.5s2.5-4 3-4.3c.7-.1 5.8-4.3 5.8-4.3l3.8-4.6 7.2-5.5 6-5.3 6-4.1-16.7 12-5.3 3.3-1.6 3.2-5.7 4.1-3.5 5.3-6.9 6.5-6.3 6.1z"/>
  <path fill="#4D4D4D" d="M648.5 149.2l-5.8 8.8-2.2 4.3-.4 2.4-3.2 4-1.2 3.4-1.5 4.6-2.2 6.5-2.7 3.3-3.7 6.4-.8 3.3-.2 5.1 1.6 5 1.5 4.8-.4-5.5-1.5-4.9.9-5.1 1.8-5.2 2.9-5.2 2-2 2.2-7.1 1.4-4.9s.6-2.2 1.3-2.6c.6-.5 3-4.1 3-4.1l.9-3 2.2-4.3 4-8z"/>
  <path fill="#4D4D4D" d="M679.8 146.4l-5.9 5.7-5.7 6.1-5 4.7-5.2 6.5-5.9 4.3-6.5 5.4-8 4.5-4.4 2.7 9.2-7.3 4-2.3 7.1-5.5 3.7-2.6 7.1-8.2 5-4.8 5-5.3 5.5-4zM639 188.5l5.3 3.7 4.3 1 6.9-1.7 4.3-3.6s5.6-2.7 6.3-2.7c.6 0 3.8-.8 4.4-.8.7 0 6.8-2 6.8-2l3.4-1.4-6.5 3.7-4 1-5.4.8-4.8 2.4-4.1 4.1-6.7 1.2-5-.4-5.2-5.3zm-6 26.2l5.6.2 6.1-2.6 5.5-3.1 5-1.2 5.6-2.2s1.6-1 2.5-1c.8 0 5.8-2 5.8-2l3.4-.7 1.3-.4 4.7-.6 3 1h-4l-7.4 1.6-5.9 2-6.3 2.3-6.1 1.8-2.8 1-4.5 2.9-6 2.6-5.6-1.6zm49.1 5.2c.8 0 4-1.3 4-1.3l6-2.4 3.7-3.1 4-2.8 3.1-3.5 3.1-2-2.4 2.8-3.3 3.9-4 2.8-4.1 3-6 2.6h-4z"/>
  <path fill="#4D4D4D" d="M669.6 197.3l3.7 1.4 3.3 2.2s3.2 4.5 4 5c.9.3 3.5 3.4 3.5 3.4l3.9 2-4.5-1-4.1-4-3.7-4.2-3.3-2.6-2.8-2.2z"/>
  <path fill="#4D4D4D" d="M657 201.7s4.7-1 5.3-1l5.5-.6 2.8-.6 4.5-1.9 3.1-2.4 5.7-3.5 3.4-1.6-2.6 2.5-6.1 3.8-3.9 2.6-3.7 1.7-4.2.6-4.7.4h-5zm-8-3.2l6 4.9 3 4.6 3.9 4.7 4.3 5.3 4.9 3.3 2.4 4.4 2.5 2.7 5.5 4s3.3 2.5 3.9 2.7l-5.4-2.2-5.7-4.4-3.2-4.2-1.4-2.5-4.4-3-4.6-5.5-4.3-5.5-3.1-3.7-4.2-5.6zm2 66.3l7.2-.7 8-2.8 7.3-3.3s9.5-2.6 10.1-2.6l4-1 5.8-3.3 5.7-4.6-5.7 6.1s-6.1 4-7 4c-.7 0-5.8.9-5.8.9l-7.1 2-6.7 3.3-8.2 2.5-7.7-.5zm-10.5 6.1l1 9 2.7 7.6 1 9 1.6 9 1.2 8.3 2 10.8 1.1 13.2.2-13.8-1.8-11-1.8-8.8-1.7-9.1-.6-8.2-2.7-6.9-2.2-9zm-4-7l4 .5 5.1-1.7c1-.4 1.8-1 2.6-1.6l2.5-1.6s2-3 2.9-3c.8 0 2.8-1.3 2.8-1.3l5.6-1.8 3.8-2.9 5-2 6.2-1.4 2.8-.3-4.5 2.3-5.9 1.6-4.4 1.7-2.7 1.8-6.7 2.5-3.7 3-2.6 3-8 2.7-4.8-1.4z"/>
  <path fill="#4D4D4D" d="M626.1 306.9l5-3.9s4.1-3.7 4.7-4l4.5-2.5c.8-.6 2.7-3.5 2.7-3.5l1.2-3.4c1.2-1 2.4-1.7 3.7-2.5.6-.2 3.7-1.6 4.5-1.6 1.7 0 3.5-.3 5.3-.6l4.2-1.5 4.7-2.2-5 3.7-4 1.6-4 .2-4.8 1-3 2-2 4.1-4.1 4.5-4.7 3-3.8 4.2-5 1.4z"/>
  <path fill="#999" d="M521.7 47.5l4.3-4.3 2.7-3.6 6-1.9 8.5-.8 9.2.8 8.6 2.5s2.5 3 4.7 3.5l12.2 3.5 6-.2-6.8 1.8-12-4-4.6-2.4-6.8-2.5-7-1.4H541l-7.9 1.4-3.2 1.3-8.2 6.3z"/>
  <path fill="#999" d="M531 60.8l3.2-3.6 3-7v-4l-.3-4.4 3-8.7 4-3.3 6.6-2.7 3.8-4 6.2-3.8 8.2-2.2 11.1-.3-10.6 1.7-9 2.4-5.1 3.5-3.8 4.6-4.3 1.4-5.4 3.2-2.5 6-.8 5.2.2 4.8-1.9 4.9-1 4.1-4.6 2.2zm-78.7 1l-5 9.3-4 9-1.8 7 .8 9.5 3.5 8.6 3.2 11.7-1.8-12.5s-3-7.4-3.3-8.6c-.3-1.3-1-8.7-1-8.7l2.6-8.7 4.3-8.7 2.5-7.9zm-144-39.6l5.7 7.3 7.3 8 6.2 5.7 7.4 5.6 5.4 2 3 2.3 3.2 3-3-4.8-3-2.5-4.8-1.6-7.6-6-6-5.4-6.8-7.6-7-6zm48.8 3.8l1 8 4.2 8.4 7 8.6 5.2 3 6.2 1.3 7.3 1.9-6.8-3.2-6-1.4s-4.3-2.4-4.9-3.2l-7.2-8.2-3.3-7.3-2.7-7.9zM222 87l3 11.2 1.5 8c.3.8-1 11.8-1 11.8l-.3 9.7 1.3 6.3.3-7v-9.3l1-12-1.5-8.3L222 87zm45 5.7l6.2-4.5 5.4-3.6 6.3-1-5.2 2.1-4.3 2.7-8.5 4.3zm45.5 53.2l-2.1 7.6-3.3 7-5.7 7.1-7.4 4-5 5-2.8 4-3 7.1-1.6 4.6-1.1 6.2-2.7 5 4.6-5.5.8-6.2 2.5-7.7 4-6.2 6-5.2 7.6-5 5.4-7.6 3.6-7.4.2-6.8zm-108.2 72.4l3.3 7.3 2.1 6 2.5 4.6 2.1 6.6 2.2 4.3 5.3 5.3 2.8 3.4-1.3-4.4-5.7-6-2.2-4-2.2-6.8-2.4-4.9-1.9-6.2-4.6-5.2zm47.2 6l5.7-3.5 3.5-4.4 4-6.2 2.2-4.3 1.7-6.3 1-7.3-.2 9.5-2.7 7.8-2.5 4.7-4.3 5.7-8.4 4.3zm-26 17.4l-8.5-8.5-1.9-10.8-1.3-9.2v-12.7l2.7-12.5 4-6.6-2.9 7.7-2 8-.7 6.6.5 12.2 1.4 9.2 1.8 7.6 6.8 9z"/>
  <path fill="#999" d="M220.1 123.4l5 1.9 3.1 2.7 4.1 6 2 4.6 1 6.8 1.9 6.2s.3-5.4 0-6.5l-1.6-7.8-3.2-6-3.9-5.2-4-2.7H220zM77.2 137.8l-5.5 4-5.6 6-3.5 5-1.7 3.7.3 12 1-10.7 2.3-6 4.3-4.8 5.1-4.6 3.3-4.6zm102-56.7l4.6-2.5 4-3 3-4.3 3-4.6a36 36 0 013.3-3.2l6-4.6-6.6 3-5.2 4.8-3.2 6.2-3.8 3.6-5.2 4.6z"/>
  <path fill="#666" d="M699.5 147.6L698 154 695 163l-3 4.2-3.7 6.7-3.9 7.8-2.8 3.4-4.5 5.2-4.6 4 6.5-4.3 4.3-5.3 3.6-4.4 3.3-7.4 3.6-6.3 2.9-4.4 2.4-9.6.4-5zm11.8 18.7l-3.6 7.2-4.9 5.8-4.3 7-1.6 3.8-4.5 4.5-5.5 3.6 6.7-3.2 5.3-6.1 1.9-4.3 4.2-6.5 4-5.7 2.3-6zm2.5 24s2.6.7 3.2 1l4 3 4 6.8 3 5 3.5 8.9 2 6.5v8l-1-8.5-2.2-6-3.3-8.8-4.3-7.1-2.8-4.3-2.4-2-3.7-2.4zm4.6-3.2l4 3.8 3.4 5.1 2.8 3.9 3 5.7 1.5 7-.2-7.4-3.2-6.3-3.1-4.1-3.3-4.9-4.9-2.8zm1-8l4.5 3.3s3.3 5.3 3.9 5.7c.6.3 2.7 4 2.7 4l3 6-1.8-7-3.1-4-3.7-5.7-5.5-2.3zm-3.8 26.7l6.7 7.3 2.9 5.3 2.8 7.3 1.7 7 1 6.7v7l-1.3-7.6-1.2-7.6-4.3-12.4-2.6-5.5-5.7-7.5z"/>
  <path fill="#666" d="M715 220.8l5.3-3.8 4.4-5.7 4.3-6.7 1.8-5 .9-8.4.2-7-1.4 7.1-.8 7.6-1.7 4.6-2.7 5.5-3 4-3.4 3.8-4 4z"/>
  <path fill="#999" d="M723.1 160.2l3.5 12 .2 7v8.7l-.6 9-3 6.5 4.6-6.8.6-10.7-.6-7.4-.2-7.5-4.5-10.8zM633.6 54.7l8.8 7.9 4.8 6.3 3.3 6.5 2.4 9 1.2 11 2.3 7.9L653 95l-1-10.4-2.4-8.9-3.2-6.5-4.4-5.9-8.3-8.7zM609.2 29l9 1.8 6 2.1a206.5 206.5 0 0113.9 7.5l6.5 5.6 3.4 3.7 3.1 3.6-4.5-3.9-5-4.6-6.2-4.7-6.7-4-6.7-3-12.8-4.1z"/>
  <path fill="#999" d="M643.2 68.1l4 6.5 2 5.7 1.1 8.6 1.6 7 2.5 6 2.4 6.2 2.3 7.8-3.3-7.3-2.6-6.6-2.7-5.3-1.4-7.5-.8-9L646 75l-2.8-6.9zm18 53.5l-5 3.8-5.5 1.6-5.5.7-5.8.6-4.7 1.4-5.3 3.5-7.8 4.3s8.4-4 9.2-4c.8 0 6.1-3.1 6.1-3.1l4-1.5 7.8-.6 7-1.6 5.6-5.1zm6.8 24.2l2 6.7 4.9 4.7 5.3 4.3 6.3 3 8 2 6 1.9 5.6 4.6 5.8 5.5 4 6.1-5.2-5.6-6.1-5.8-4.9-3.8-5.6-1.6-8.2-2.5-6.7-3-5.3-4.3-5.1-5-.8-7.2z"/>
  <path fill="#999" d="M649.9 68.1l-1.2 4.2-2.3 4.3-2.6 2.5-3 3.6 4.4-3.5 2.8-3.4 1.7-3.3.2-4.4zm2.6 4.6v5.6l-1.2 4.6-1.8 2.5-4.4 3.5-7.2 3-4 .6s3.7.7 4.4.4l8.7-4 3.4-2.9 2.7-3.9.9-4.5-1.5-4.9zm1.5 59l-5.5 2-6 1-6.5.7-3.8.4-6.5 1.5-3.9 1.6-5.7 4.8 6.8-3.8 4.6-2.3 10.4-1.2 7.3-1.2 6.1-1.2 2.7-2.3z"/>
</svg>
