<svg xmlns="http://www.w3.org/2000/svg" fill="none" viewBox="0 0 319 480">
  <path fill="#FAFF11" fill-rule="evenodd" d="M317 480s2.1.3 2-1.3c-.2-1.5-1.3-2-2.2-1.5-1 .6-1.1 1.8.1 2.8z" clip-rule="evenodd"/>
  <path fill="#FF1EDB" fill-rule="evenodd" d="M140 359.4s.3 2.1 1.7 1.5c1.4-.7 1.6-1.8.9-2.5-.8-.7-2-.4-2.6 1z" clip-rule="evenodd"/>
  <path fill="#292929" fill-rule="evenodd" d="M21.3 318.6s-1 2.2 1 2.4c2 .2 3-.8 2.6-2-.5-1-2-1.4-3.6-.4zM71.3 438.6s-1 2.2 1 2.4c2 .2 3-.8 2.6-2-.5-1-2-1.4-3.6-.4z" clip-rule="evenodd"/>
  <path fill="#FF1EDB" fill-rule="evenodd" d="M68 248.4s.4 2.1 2.3 1.5c1.9-.7 2.1-1.8 1.1-2.5s-2.5-.4-3.4 1zM117.5 147.9s1.5.6 1.5-1-.7-2.2-1.4-1.8c-.7.5-.9 1.6-.1 2.8z" clip-rule="evenodd"/>
  <path fill="#FF7575" fill-rule="evenodd" d="M43.1 84s1.3-.5.7-1.4c-.5-.8-1.3-.8-1.7-.1-.3.6 0 1.3 1 1.5z" clip-rule="evenodd"/>
  <path fill="#00EB9B" fill-rule="evenodd" d="M24 290s.2 1.3 1.1 1c1-.5 1.1-1.3.6-1.8-.5-.4-1.3-.2-1.7.7z" clip-rule="evenodd"/>
  <path fill="#FF1EDB" fill-rule="evenodd" d="M162.5 52s1.5.3 1.5-.7-.7-1.5-1.4-1.2c-.7.3-.9 1-.1 1.8zM162.5 44s1.5.3 1.5-.7-.7-1.5-1.4-1.2c-.7.3-.9 1-.1 1.8z" clip-rule="evenodd"/>
  <path fill="#FAFF11" fill-rule="evenodd" d="M134.7 83s2-.8 1-2c-.8-1.3-2-1.2-2.5-.3-.5 1 0 2 1.5 2.3z" clip-rule="evenodd"/>
  <path fill="#292929" fill-rule="evenodd" d="M.2 266.4s-.6 1.4.4 1.6c1 .1 1.5-.5 1.4-1.3-.2-.7-1-1-1.8-.3zM60.2 126.4s-.6 1.4.4 1.6c1 .1 1.5-.5 1.4-1.3-.2-.7-1-1-1.8-.3z" clip-rule="evenodd"/>
</svg>
