<svg xmlns="http://www.w3.org/2000/svg" fill="none" viewBox="0 0 790 480">
  <path fill="#FF3C3C" fill-rule="evenodd" d="M477 237.2s0-1.5-1.6-1.2c-1.4.4-1.7 1.1-1 1.7.7.5 1.8.4 2.6-.5z" clip-rule="evenodd"/>
  <path fill="#FEFEFB" fill-rule="evenodd" d="M473 239.2s0-1.5-1-1.2c-1 .4-1.2 1.1-.8 1.7.5.5 1.3.4 1.8-.5z" clip-rule="evenodd"/>
  <path fill="#FF3C3C" fill-rule="evenodd" d="M457 194s-.1-1.3-1.1-1c-1 .5-1.1 1.2-.6 1.7.5.5 1.2.4 1.7-.6z" clip-rule="evenodd"/>
  <path fill="#FEFEFB" fill-rule="evenodd" d="M405 245.8s-1-1.6-1.6-.3c-.7 1.3-.4 2.3.3 2.5.8.1 1.4-.7 1.3-2.2z" clip-rule="evenodd"/>
  <path fill="#292929" fill-rule="evenodd" d="M393 158s-.1-1.3-1.1-1c-1 .5-1.1 1.2-.6 1.7.5.5 1.2.4 1.7-.6z" clip-rule="evenodd"/>
  <path fill="#FF3C3C" fill-rule="evenodd" d="M368 99.7s0-2.1-1-1.6-1.2 1.6-.8 2.4c.5.8 1.3.7 1.8-.8z" clip-rule="evenodd"/>
  <path fill="#F1F68E" fill-rule="evenodd" d="M361 232.2s0-1.5-1-1.2c-1 .4-1.2 1.1-.8 1.7.5.5 1.3.4 1.8-.5z" clip-rule="evenodd"/>
  <path fill="#9DB4FF" fill-rule="evenodd" d="M321.2 347s3 .3 2.8-1.3c-.2-1.5-1.7-2-3-1.5-1.3.6-1.5 1.8.2 2.8z" clip-rule="evenodd"/>
  <path fill="#A6133B" fill-rule="evenodd" d="M371.2 327s3 .3 2.8-1.3c-.2-1.5-1.7-2-3-1.5-1.3.6-1.5 1.8.2 2.8z" clip-rule="evenodd"/>
  <path fill="#FEFEFB" fill-rule="evenodd" d="M372 186.6s-.5-3.5-2.3-2.4c-2 1.2-2.1 3-1 4.2 1 1.2 2.5.6 3.3-1.8zM317 480s2.1.3 2-1.3c-.2-1.5-1.3-2-2.2-1.5-1 .6-1.1 1.8.1 2.8zM604 90.5s-.4-2-2.3-1.4c-2 .7-2.1 1.9-1 2.6 1 .6 2.5.3 3.3-1.2z" clip-rule="evenodd"/>
  <path fill="#292929" fill-rule="evenodd" d="M140 359.4s.3 2.1 1.7 1.5c1.4-.7 1.6-1.8.9-2.5-.8-.7-2-.4-2.6 1z" clip-rule="evenodd"/>
  <path fill="#9DB4FF" fill-rule="evenodd" d="M604 88s2.1.3 2-1.3c-.2-1.5-1.3-2-2.2-1.5-1 .6-1.1 1.8.1 2.8z" clip-rule="evenodd"/>
  <path fill="#00EB9B" fill-rule="evenodd" d="M442.2 454.5s-.7 2 .3 2.4c1 .4 1.6-.5 1.5-1.7-.1-1.1-.8-1.6-1.8-.7z" clip-rule="evenodd"/>
  <path fill="#292929" fill-rule="evenodd" d="M436.2 462.3s-.7 1.4.3 1.6c1 .3 1.6-.3 1.5-1-.1-.9-.8-1.2-1.8-.6z" clip-rule="evenodd"/>
  <path fill="#FEFEFB" fill-rule="evenodd" d="M657.6 2s1.5.3 1.4-.8c0-1-.8-1.4-1.5-1-.6.2-.7 1 0 1.8z" clip-rule="evenodd"/>
  <path fill="#FF3C3C" fill-rule="evenodd" d="M788.5 153s1.5.3 1.5-.7-.7-1.5-1.4-1.2c-.7.3-.9 1-.1 1.8zM21.3 318.6s-1 2.2 1 2.4c2 .2 3-.8 2.6-2-.5-1-2-1.4-3.6-.4zM71.3 438.6s-1 2.2 1 2.4c2 .2 3-.8 2.6-2-.5-1-2-1.4-3.6-.4z" clip-rule="evenodd"/>
  <path fill="#292929" fill-rule="evenodd" d="M68 248.4s.4 2.1 2.3 1.5c1.9-.7 2.1-1.8 1.1-2.5s-2.5-.4-3.4 1z" clip-rule="evenodd"/>
  <path fill="#F2C0EA" fill-rule="evenodd" d="M117.5 147.9s1.5.6 1.5-1-.7-2.2-1.4-1.8c-.7.5-.9 1.6-.1 2.8z" clip-rule="evenodd"/>
  <path fill="#9DB4FF" fill-rule="evenodd" d="M43.1 84s1.3-.5.7-1.4c-.5-.8-1.3-.8-1.7-.1-.3.6 0 1.3 1 1.5z" clip-rule="evenodd"/>
  <path fill="#00EB9B" fill-rule="evenodd" d="M24 290s.2 1.3 1.1 1c1-.5 1.1-1.3.6-1.8-.5-.4-1.3-.2-1.7.7z" clip-rule="evenodd"/>
  <path fill="#292929" fill-rule="evenodd" d="M162.5 52s1.5.3 1.5-.7-.7-1.5-1.4-1.2c-.7.3-.9 1-.1 1.8zM162.5 44s1.5.3 1.5-.7-.7-1.5-1.4-1.2c-.7.3-.9 1-.1 1.8z" clip-rule="evenodd"/>
  <path fill="#FEFEFB" fill-rule="evenodd" d="M134.7 83s2-.8 1-2c-.8-1.3-2-1.2-2.5-.3-.5 1 0 2 1.5 2.3z" clip-rule="evenodd"/>
  <path fill="#FF3C3C" fill-rule="evenodd" d="M652.3 379s3 .3 2.7-1.3c-.3-1.5-1.7-2-3-1.5s-1.4 1.7.3 2.8zM584.7 393s2-.8 1-2c-.8-1.3-2-1.2-2.5-.3-.5 1 0 2 1.5 2.3zM.2 266.4s-.6 1.4.4 1.6c1 .1 1.5-.5 1.4-1.3-.2-.7-1-1-1.8-.3zM610.2 219.3s-.7 1.4.3 1.6c1 .3 1.6-.3 1.5-1-.1-.9-.8-1.2-1.8-.6zM712.3 239s3 .3 2.7-1.3c-.3-1.5-1.7-2-3-1.5s-1.4 1.7.3 2.8zM644.7 253s2-.8 1-2c-.8-1.3-2-1.2-2.5-.3-.5 1 0 2 1.5 2.3zM60.2 126.4s-.6 1.4.4 1.6c1 .1 1.5-.5 1.4-1.3-.2-.7-1-1-1.8-.3zM670.2 79.3s-.7 1.4.3 1.6c1 .3 1.6-.3 1.5-1-.1-.9-.8-1.2-1.8-.6z" clip-rule="evenodd"/>
</svg>
