<svg version="1.1" id="Layer_1" xmlns="http://www.w3.org/2000/svg" xmlns:xlink="http://www.w3.org/1999/xlink" x="0px" y="0px"
	 width="641px" height="176px" viewBox="0 0 641 176" style="enable-background:new 0 0 641 176;" xml:space="preserve">
<g>
	<path style="fill-rule:evenodd;clip-rule:evenodd;fill:#F9F9F9;" d="M589.2,90.1c-0.5,7.7-1.1,15.1-1.4,22.4
		c-0.3,9.6,0.2,19.2,1.7,28.7c1.3,8,11.7,18,19.3,18.7c4.3,0.4,5.2-3.5,5.6-6.7c1.3-9.1,1.4-18.3-0.6-27.3
		c-2.4-10.5-4.6-21-10.7-30.4c-4.1-6.4-3.5-13.9-1-21.2c0.4-1.2,2.3-2.8,0.5-3.9c-1.4-0.9-3.4-0.5-4.8,0.4c-3.7,2.4-7.3,5-11.2,7.1
		c-6.9,3.7-10.1,3.1-14.1-3.8c-1.8-3.1-3.6-2-5-0.1c-2,2.8-3.8,5.8-4,9.5c-0.1,1.4-0.4,2.7-1.9,3.2c-1.8,0.5-2.7-0.9-3.5-2.1
		c-1.9-2.9-0.7-6.5-2-9.7c-2.3,2.9-4.7,5.8-6.9,8.7c-2.4,3.2-5.5,4.2-9.1,2.6c-2.1-0.9-2.9-0.3-3.8,1.5c-3.5,6.8-5.7,6.8-10.3,0.6
		c-2.6-3.4-5.7-6.5-7.4-10.5c-1.1-2.5-2.3-1.9-3.4,0c-3,5.6-7.5,10-11.7,14.6c-2.5,2.7-5.7,4.6-9.3,5.5c-5,1.2-7.6-0.6-8.1-5.7
		c-0.1-1.1-0.2-2.3-0.3-3.8c-2.8,1.5-5.3,2.6-7.7,4c-3.8,2.2-7.7,1.9-10.8-0.7c-2.6-2.1-4.3-1.5-6.5,0c-3.9,2.8-7.8,4.3-12.4,1.3
		c-2.7-1.8-4.6,1.6-7.3,1.6c-5.6,0-11,0.2-16.6,3c-9.9,4.8-15.4-3.2-13.8-14.8c0.2-1.1,0.6-2.2,1-3.4c0.7-2.4,2.1-5.4-1.6-6.1
		c-3-0.5-6.1,0.7-6.9,4.3c-0.7,3.1-1.1,6.2-1.7,9.3c-1.1,6-4.9,10.1-9.7,13.4c-4.2,2.9-7.8,1.1-8.6-4c6.4,2.9,9.2,1.8,12.6-4.9
		c2.4-4.7,3.1-9.9,3.9-14.9c0.9-5.3,7.6-8.4,12.4-7.3c2.5,0.6,4.2,2,3.7,4.9c-0.5,3.2-0.3,6.5-1.5,9.8c-1.4,3.8-0.8,7.5,3.1,10.1
		c4.1,2.7,7.3,0.2,10.5-1.7c2-1.2,1.5-3.4,0.8-4.9c-2.9-6.2-0.4-12.1,1.2-17.9c0.9-3.1,4.1-3.8,6.5-3.8c2.4,0,3.2,2.6,3.5,5.2
		c0.5,4.5-1.7,8.3-2.8,12.4c-0.7,2.7-3.4,5.5,0.3,7.8c2.3,1.4,9.7-1.2,10.3-3.9c0.7-3.4,1.2-12.7,5.5-14.8c3.8-1.9,8.7,4,11.2,0.6
		c0.6-0.8,1.5-2.1,2.9-1.4c1.4,0.7,0.8,2.1,0.7,3.1c-0.6,3.7,0,5.4,0.1,9c0.1,4.6,3.3,7.1,7.7,5.2c6.8-3,13.4-6.5,17.4-13.3
		c1.4-2.4,3.8-3.6,5.9-5.2c2.5-1.7,3.6-0.9,4.2,1.7c0.5,2.3,0.8,4.6,1.6,6.8c1,2.6,2,3.7,4.7,0.8c6.6-7.3,5-15.3,3.3-23.7
		c-1.3-6.4-3.7-12.7-2.3-19.5c0.9-4.2,1.8-8.4,5.5-11.2c4.3-3.3,7.9-2.3,9.4,2.9c2.2,7.4,3.2,15,0.6,22.5c-1.5,4.4-2.4,8.9-4.7,13.1
		c-3.6,6.3,1.3,10.9,4.3,15.8c1.3,2.1,3.6,3.3,4.4,5.9c0.2,0.8,0.8,2,2,1.8c1.2-0.1,1.5-1.3,1.7-2.2c0.8-3.6,1.5-7.2,2.2-10.7
		c0.3-1.6,0.2-3.9,2.3-3.8c2.5,0.1,1.8,2.5,1.6,3.9c-0.6,3.4,0.2,6,3.7,7.2c3.3,1.2,4.3-1.7,5.9-3.4c3.1-3.5,4.7-8,7.2-12
		c0.9-1.4,1.9-3.2,3.7-2.8c2,0.5,1.4,2.7,1.7,4.3c0.4,2.5-1.6,5.1,0.2,7.9c2.1-2.3,3.9-4.5,6-6.3c3.2-2.8,5.9-2.2,8,1.4
		c3.3,5.7,4.8,6.2,10.7,3c3.9-2.1,7.8-4.5,11.7-6.6c2-1.1,4-2.1,6.6-1.4c2.1,0.6,3.7-0.8,5.1-2.4c2.1-2.3,4.2-3.2,6.4-0.1
		c0.8,1,2,1.8,3.1,2.4c1.3,0.8,2.9,1.2,2.2,3.2c-0.7,1.9-2.1,2.3-4,1.9c-2.9-0.6-6.2-3.1-8.8,0.1c-3.1,3.8-4.6,8.5-4.3,13.4
		c0.3,5.8,3.8,10.6,6.1,15.7c8.1,17.7,11.6,36,8.1,55.2c-1.7,9.4-9.4,11.9-17.6,7.3c-14.5-8.2-18.7-20.8-17.8-36.3
		c0.6-10.8,1.6-21.5,3.1-32.2C586.6,92.8,586.4,91,589.2,90.1z M518.1,62.5c6.4-5.5,6.7-27.1,3.5-32.9c-1.3-2.3-2.6-2.3-4.1-0.3
		c-1.1,1.5-1.6,3.2-2.1,5C512.7,44,515.3,53.1,518.1,62.5z M504.2,85.6c-1.2-1.2-2.6-2.2-3.4-3.6c-1.8-3.2-3.7-2.4-6.1-0.7
		c-3.1,2.2-3.1,5.7-3.8,8.8c-0.9,3.4,1.1,4.4,4,3.2C498.7,91.8,501.9,89.1,504.2,85.6z M432.7,86.8c2.5-4.8,3.4-9,3.9-13.3
		c0.1-0.9,0-2.2-1.1-2.5c-1.6-0.5-1.7,1.1-2.2,2C430.9,77.1,431.1,81.3,432.7,86.8z M450.3,90c4.3,1.5,11.3-0.3,12.7-3.9
		c0.6-1.6,1.5-10.8,0.9-9.7C462.2,79.7,449.2,66.9,450.3,90z"/>
	<path style="fill-rule:evenodd;clip-rule:evenodd;fill:#F9F9F9;" d="M181.5,100.2c0.5,3.3-4,4-5.4,3.5c-5.4-1.7-10.5,6-15.3,0.5
		c-2-2.4-3.2-5.3-3.5-9.5c-0.1-2.1-0.4-4.3-0.8-6.4c-0.2-0.9-0.1-2.1-1.4-2.3c-1.2-0.2-1.7,0.8-2.4,1.6c-3.3,3.9-5.2,8.4-6,13.4
		c-0.8,4.8-1.7,9.5-5.1,13.3c-3.1,3.6-4.7,3.3-6.8-0.7c-1.5-2.9-1.1-5.8-1.2-8.9c-3.7,0-2.8,5.3-6.8,5.1c-1-2.5,0.3-4.9,1.7-6.5
		c7-8.2,6-18.3,6.7-27.9c0.8-11.6,2.6-23.1,4.4-34.5c0.4-2.5,2.4-3.9,4.5-4c2.8-0.1,4,2.6,4.4,4.7c1.3,6,0.9,12.1,0.7,18.3
		C149,72,143,82.4,139.2,93.4c-1.8,5.3-0.6,10.7-0.2,16.6c3.2-1.7,3.5-4.4,4-6.9c1.1-5.5,2.2-11.1,5.2-16c0.5-0.8,0.9-1.9,1.7-2.4
		c2.1-1.7,4.1-4.5,7.3-3.4c3.5,1.2,3.5,4.2,3.7,7.7c0.4,4.4,1.6,7,2.3,10.5c0.3,1.3,1,2.6,2.7,2.3c1.7-0.2,3-1.3,2.8-3
		c-0.5-5.8,3.3-9.9,5.8-14.5c1.6-3,6.2-4.2,8.7-1.4c0.7,0.8,1.8,2.4,2.5,2.3c7.7-1.6,2.1,4.7,3.2,7.7c0.8,2.4-1.3,6.5,1.7,7.1
		c3,0.6,3.7-3.7,5.2-5.9c1.2-1.7,1.4-4.1,2.4-6c1.2-2.3,2.3-5.2,5.9-3.3c2.5,1.3,3.2-1.1,4.3-2.3c1.3-1.5,2.7-2.6,4.7-1.9
		c2.2,0.7,1.4,2.7,1.5,4.3c0.2,1.8,0,3.7,0.4,5.5c0.5,2.2,0.3,5.6,2.8,5.9c2.8,0.4,5.1-1.9,6.6-4.5c2.5-4.3,1.6-9.2,1.5-13.6
		c-0.1-6.8,0.4-13.6,0.5-20.4c0.1-6,0-11.9,0-17.9c0-2.9-0.1-6.2,3.3-7c3.7-0.8,4.6,2.9,5.5,5.2c2.8,7.5,4,15.3,2.7,23.3
		c-0.7,3.8-0.5,7.6-1.3,11.4c-0.3,1.6,0,4.1-2,4c-2.5-0.1-1.2-2.6-1.1-4c0.8-10.2,1.9-20.3-0.2-30.5c-0.3-1.7-0.6-3.2-3.6-4.7
		c0.2,14.5,0.3,28.4,0.5,42.2c1.9,0.5,2.5-2.3,5.2-2.3c-3.1,9.5-8,19.6-1.1,29.5c2-6.5,2-13,2.2-19.5c0.2-6.1,3.2-11.5,4.9-17.3
		c0.4-1.3,2.3-1.9,3.9-1.6c4.2,0.8,6.6,3.5,8.1,7.3c1.5,3.9-1,5.9-3.6,7.7c-1.6,1.1-3.3,2.2-5,3.1c-3.7,1.9-4,3.6-1,6.7
		c4.7,4.8,9.1,5.4,14.7,2c0.6-0.4,1.3-1.1,1.5-1.8c1.8-8,2.8-8.9,6.2-14.6c1.9-5.9,1.9-5.9,4.8-6c1.1,0,6,1.7,6.8,4.8
		c2.7,9.9,2.4,15.7-4.5,23.8c-4.5,5.4-10.1,2.1-15.3,1.2c-5.5-0.9-11.2-1-16-4.7c-1.6-1.2-2.6,1-2.7,2.9c-0.3,3.3-0.7,6.6-1.1,9.9
		c-0.3,2.1-1.4,3.8-3.5,4.4c-2.1,0.6-2.7-1.5-3.8-2.7c-3.3-3.7-2.6-8.4-3.3-12.8c-0.4-2.8-1.2-3.4-3.8-2c-8,4.5-10.3,3.4-12.7-5.6
		c-0.4-1.4,0.3-3-1-4.4c-2.3,1.7-2.6,4.1-2.9,6.5c-0.2,1.9-0.7,3.7-2.8,4.3c-2.2,0.6-2.2-1.4-2.9-2.6c-1.2-2-2.2-1-2.8,0.4
		c-1.1,2.2-2.3,4.4-4,6.3c-2.3,2.7-5.8,2.5-6.7,0c-1.8-5-4.7-4.6-7.8-3.9c-0.7-2.9,3.2-2,3.7-4.3c0.2-1,0.2-2.8-0.4-3.8
		c-1.4-2.1-4.6-4.1-6.2-2.9c-2.6,2-4.1,7.2-4.1,10.3C173,101.4,180,99.1,181.5,100.2z M275.7,84.7c-0.1-3.9-0.4-3.2-2.2-5.8
		c-0.7-0.9-1.3-2.1-2.7-1.9c-1.3,0.2-5.5,11.2-7.9,17.4c-0.5,1.4-3,3-0.4,4.6c2.3,1.4,4.4,2.3,7.2,0
		C274.6,94.9,274.9,89.3,275.7,84.7z M140.8,76.3c4.7-10.4,6.7-21.1,3.7-32.3C141.2,54.5,141.5,65.5,140.8,76.3z M240.2,82.1
		c-0.5,3.1,0.6,2.5,2.8,2.6c2.9,0.1,7.7-3.5,7.7-5.8c-0.1-4-3.4-7-6-6.8C242.8,72.7,241.5,79.8,240.2,82.1z"/>
	<path style="fill-rule:evenodd;clip-rule:evenodd;fill:#F9F9F9;" d="M372.8,92.7c-4.5,4.1-11.9,5.2-16.1,3.2
		c-2.6-1.3-3.2-3.7-3.5-6.2c-0.2-1.6,0.3-3.3,0.6-4.9c0.5-2.3,1.7-5.1-0.5-6.5c-2.7-1.7-5.8-0.6-8.5,1c-1.2,0.7-1.7,1.7-1.4,3.3
		c1.3,7.1-0.4,11.2-5.7,13.1c-5.1,1.9-9.1,0.2-11.4-4.9c-0.7-1.5-1.9-1.6-2.8-0.7c-1.9,2-7.1,0.4-6.5,4.8c1.3,8.8,1.1,17.7,0.8,26.4
		c-0.5,14.2-0.2,28.9-7.8,42c-0.6,1-1.2,2-1.9,2.9c-4.5,6.2-8.4,6.3-12.9,0.2c-4-5.5-4.7-11.9-4.9-18.4c-0.7-15.6,2.6-30.8,5.4-46
		c2.8-15.2,5.3-30.5,8.2-45.6c1.6-8.1,3.7-16.1,7.4-23.6c1-2,1.9-3.4,4.2-3.3c2.8,0.2,2.6,2.6,2.9,4.5c1.7,10.7,0.7,21.2-2.2,31.6
		c-1,3.7-2.5,7.3-3.4,11c-0.5,2.2-3.3,4.6-1,6.6c5.5,4.8,7.8,4.9,12.5,1.4c1.6-1.2,2.9-2.7,4.4-4c3.3-3,6.4-5.6,11.8-4.4
		c2.9,0.6,6.4-2,9.8-2.7c5.7-1.2,10.3,2.7,8.8,8c-2.7,9.5,1.4,13.4,10.2,11.3C370.2,92.5,371,92.7,372.8,92.7z M314.5,36.3
		c-1.6,1.7-1.9,3.3-2.5,4.8c-3,7.2-3.2,15-4.7,22.5c-4.8,24.9-10.4,49.7-12.6,75.1c-0.6,7.3-0.6,14.6,2.3,21.5
		c1,2.3,1.9,5.2,4.5,5.6c2.3,0.4,3.4-2.2,4.6-4c1.8-2.6,3.2-5.3,4-8.5c5.1-20.3,5.1-40.7,1.9-61.2c-0.2-1.6-0.7-3.2-2.6-3.8
		c-1.6,2-2,4.8-5.5,7.3C308.3,75.2,317.8,57.1,314.5,36.3z M335.1,92.2c3.3-0.1,5.3-2.2,5.5-5.2c0.2-3.7-4.1-4-6-4.4
		c-2-0.4-4.8,2.7-5,5.2C329.4,90.7,332.2,91.9,335.1,92.2z"/>
	<path style="fill-rule:evenodd;clip-rule:evenodd;fill:#F9F9F9;" d="M102.1,98.9c-0.1-10-0.7-19.9-0.7-29.9
		c0-9.1-0.3-18.1-0.2-27.2c0-4.9-0.8-6.3-5.6-5.2c-10.4,2.6-20.9,4.9-31.1,8.2c-10.7,3.4-21.7,5.7-32.3,9.5
		c-3.9,1.4-7.9,2.7-11.3,5.2c-2,1.5-4.2,0.8-6.2,1.2c-1.7,0.3-3-0.1-3.2-2.1c-0.1-1.8,0.9-2.5,2.5-3.1c14.8-5.9,30-10.5,45.3-14.6
		c19-5.1,38.1-9.6,57.3-13.8c18.6-4.1,37.5-6.8,56.2-10.1c6.3-1.1,12.6-2.5,19-3.5c1.7-0.3,4.1-0.8,4.7,1.5
		c0.5,1.9-13.6,4.7-14.5,4.9c-24.1,4.8-48.4,8.2-72.4,13.8c-3.9,0.9-5.1,2.3-4.5,6.9c0.2,1.6,0.3,3.3,0.4,4.9
		c0.3,12.5,0.2,25.1,1.1,37.5c0.7,9.8,0.3,19.6,2,29.3c0.4,2.3,0.9,4.6,1.3,6.8c0.4,1.8,0.5,3.5-1.7,4c-1.8,0.4-2.9-1.1-3.1-2.6
		C104,113.3,103.1,106.1,102.1,98.9z"/>
	<path style="fill-rule:evenodd;clip-rule:evenodd;fill:#F9F9F9;" d="M543.8,51.8c-1.3,3-3.2,4.9-2.7,7.6c0.1,0.8-0.5,1.6-1.5,1.7
		c-1.3,0-1.7-1-1.8-2C537.5,55.4,539.2,53,543.8,51.8z"/>
</g>
</svg>
