<svg xmlns="http://www.w3.org/2000/svg" fill-rule="evenodd" viewBox="0 0 895 24">
  <path fill="#fff" d="M.861 12.462C2.088 8.751 2.139 2.28 2.139 2.28s151.476.273 158.926-.171c7.451-.444 95.714.25 103.609.523 16.989.587 76.306 1.423 112.609-.053 16.08-.654 92.233.462 105.383-.201 13.151-.662 105.987.634 116.727.092 10.739-.543 105.162-.923 126.754.081C747.74 3.555 895 .698 895 .698s-1.153 5.646-.563 10.929c.374 3.349-.211 6.456-.87 7.421-.223.106-61.602.84-68.259.719-6.657-.122-60.694.162-84.46.974-23.767.813-127.028.144-133.395.718-6.367.574-104.279-.182-115.035.476-10.755.658-88.962-.062-115.221.384-37.084.631-98.619-.371-111.464-1.02-12.846-.649-82.159 1.612-104.868-.105C138.155 19.477.029 23.698.029 23.698s-.271-7.902.832-11.236zm204.09 3.9s-1.507-2.095-2.991-.504c-1.484 1.591-.349 2.988.261 3.582.61.594 3.988-1.56 2.73-3.078zm401.108 2.216s.344-4.131.886-5.691c.543-1.559 1.955-1.276 1.791-.222-.164 1.054-.483 7.143-2.677 5.913zm-261.085-3.237s-1.507-2.095-2.991-.504c-1.484 1.59-.35 2.988.26 3.582.61.593 3.988-1.56 2.731-3.078zm295.248-1.022s1.507-2.095 2.991-.504c1.484 1.591.35 2.988-.261 3.582-.61.594-3.988-1.56-2.73-3.078zm-625.301 0s-1.507-2.095-2.991-.504c-1.484 1.591-.35 2.988.26 3.582.61.594 3.988-1.56 2.731-3.078zm485.278-1.021s1.508-2.095 2.991-.504c1.484 1.59.35 2.988-.26 3.582-.61.593-3.988-1.56-2.731-3.078zm-345.441-2.001s-2.287-2.776-4.094-.623c-1.807 2.153-.108 4.003.787 4.786.895.784 5.187-2.155 3.307-4.163zm717.144-2.306s3.505-.587 3.505 2.249c0 2.836-2.469 3.11-3.648 3.11-1.178 0-2.564-5.084.143-5.359zm-181.487.263s2.287-2.776 4.094-.623c1.808 2.153.108 4.003-.787 4.786-.894.784-5.187-2.155-3.307-4.163zm11.46-1.284s3.505-.588 3.505 2.248c0 2.836-2.469 3.111-3.648 3.111-1.179 0-2.564-5.085.143-5.359zm70.011-2.043s3.505-.588 3.505 2.248c0 2.836-2.469 3.111-3.648 3.111-1.178 0-2.564-5.085.143-5.359zm-446.915.22s-1.507-2.095-2.991-.504c-1.484 1.591-.35 2.988.26 3.582.61.594 3.988-1.56 2.731-3.078zm109.021 1.127s4.049-.302 5.642 0 1.541 1.772.496 1.772c-1.044 0-6.983.634-6.138-1.772zM103.939 6.253s4.049-.303 5.642 0c1.593.302 1.541 1.771.496 1.771-1.044 0-6.983.635-6.138-1.771zm416.264-2.149s1.507-2.095 2.991-.504c1.484 1.591.349 2.988-.261 3.582-.61.594-3.988-1.56-2.73-3.078z"/>
</svg>
