<svg xmlns="http://www.w3.org/2000/svg" fill-rule="evenodd" viewBox="0 0 1500 1500">
  <path fill="#000" d="M.897.281h1500v1500H.897z"/>
  <path fill="#fff" d="M121.435 255.472s2.337 2.815 3.767.593c1.429-2.223.619-4.07-1.125-4.408-1.743-.338-3.101 1.102-2.642 3.815zm34.607-189.521s4.341 1.303 4.443-2.228c.101-3.532-1.968-4.939-4.066-3.977-2.097.961-2.629 3.58-.377 6.205zm571.782 413.732s-3.357 1.35-1.772 3.459c1.584 2.11 3.551 1.925 4.43.345.879-1.581-.007-3.366-2.658-3.804zM276.775 1063s4.341 1.302 4.443-2.229c.101-3.531-1.968-4.938-4.066-3.977-2.097.962-2.628 3.58-.377 6.206zm408.881-105.452s-3.058-3.418-4.927-.45c-1.869 2.968-.808 5.27 1.472 5.56 2.28.29 4.056-1.669 3.455-5.11zm-70.88 130.129s-2.614 3.785.61 5.033c3.223 1.247 5.194-.301 4.99-2.648-.204-2.347-2.446-3.714-5.6-2.385zm306.015-315.24s-1.372-6.095-5.489-3.886c-4.118 2.209 3.964 8.335 5.489 3.886zm90.021 325.456s-3.058-3.418-4.926-.45c-1.869 2.968-.809 5.27 1.472 5.56 2.28.29 4.056-1.669 3.454-5.11zm-637.9-685.28s-.404-4.075-3.104-3.031c-2.699 1.044-3.101 3.237-1.704 4.697s3.544 1.071 4.808-1.666zm9.619-9.554s-.404-4.075-3.103-3.031c-2.7 1.043-3.101 3.237-1.704 4.697 1.396 1.46 3.544 1.07 4.807-1.666z"/>
</svg>
