<svg xmlns="http://www.w3.org/2000/svg" fill-rule="evenodd" viewBox="0 0 1501 1501">
  <path fill="#3b4fcb" d="M.282.172h1500v1500H.282z"/>
  <path fill="#f6f5e4" d="M134.55 1458.22s3.318 1.543 3.658-1.078c.339-2.621-1.184-3.943-2.904-3.501-1.72.441-2.331 2.324-.754 4.579zm-49.91-186.077s4.482-.683 3.06-3.917c-1.421-3.235-3.893-3.62-5.377-1.852-1.483 1.767-.842 4.36 2.317 5.769zM426.207 50.853s-2.455 2.657-.12 3.885c2.336 1.227 4.034.217 4.151-1.587.117-1.805-1.448-3.038-4.031-2.298zm386.107 1237.17s4.481-.683 3.06-3.918c-1.421-3.234-3.893-3.619-5.377-1.852-1.483 1.768-.842 4.361 2.317 5.77zM592.795 500.716s-4.227-1.779-4.644 1.703c-.418 3.483 1.527 5.109 3.711 4.394 2.185-.715 2.951-3.245.933-6.097zm535.512 664.823s-.74 4.54 2.707 4.286c3.447-.253 4.565-2.497 3.375-4.529-1.19-2.033-3.801-2.309-6.082.243zM850.135 284.537s-3.851-4.92-6.625-1.16 7.153 5.833 6.625 1.16zm96.593 203.716s-4.228-1.779-4.645 1.704c-.417 3.482 1.527 5.108 3.712 4.393 2.184-.715 2.95-3.245.933-6.097zM76.774 142.268s-2.11-3.509-4.103-1.41c-1.992 2.1-1.415 4.254.472 4.975 1.888.721 3.661-.551 3.631-3.565zm4.6-12.753s-2.111-3.51-4.103-1.41c-1.993 2.099-1.416 4.253.472 4.974 1.887.721 3.661-.551 3.631-3.564z"/>
</svg>
