<svg xmlns="http://www.w3.org/2000/svg" fill-rule="evenodd" viewBox="0 0 1501 1501">
  <path fill="#292929" d="M.212.571h1500v1500H.212z"/>
  <path fill="#ccc" d="M1398.33 733.512s-.15-4.057-2.931-3.134c-2.782.923-3.324 3.081-2.011 4.587 1.314 1.505 3.499 1.208 4.942-1.453zm-10.278 9.074s-.15-4.057-2.932-3.134c-2.781.923-3.323 3.081-2.01 4.586 1.314 1.506 3.498 1.209 4.942-1.452zm-44.118-122.447s-.353-3.643-2.784-2.606-2.797 3.02-1.545 4.279c1.253 1.258 3.186.829 4.329-1.673zM1208.881 757.53s-2.862-3.516-4.928-.651c-2.067 2.865-1.145 5.191 1.131 5.573 2.275.382 4.185-1.486 3.797-4.922zm-60.746-100.269s-.353-3.642-2.784-2.605c-2.431 1.036-2.797 3.02-1.545 4.278 1.253 1.259 3.186.83 4.329-1.673zm-40.843 57.289s-.15-4.057-2.931-3.134c-2.782.922-3.323 3.08-2.01 4.586 1.313 1.505 3.498 1.208 4.941-1.452zm-18.634 7.098s-.15-4.057-2.932-3.134c-2.781.923-3.323 3.081-2.01 4.586 1.314 1.506 3.498 1.209 4.942-1.452zM980.7 1029.303s6.063.899 5.658-3.801c-.406-4.699-3.416-6.17-6.101-4.495-2.685 1.674-3 5.245.443 8.296zm136.03-432.242s-1.222-7.96-6.28-5.38c-5.057 2.579-5.585 6.984-2.748 9.594 2.836 2.61 6.908 1.427 9.028-4.214zM974.535 960.084s4.289-1.664 2.322-4.507c-1.967-2.842-4.467-2.667-5.616-.611-1.148 2.057-.061 4.447 3.294 5.118zm-110.779 136.583s6.063.899 5.658-3.801c-.406-4.699-3.416-6.17-6.101-4.495-2.685 1.674-3 5.245.443 8.296zM191.04 1435.94s3.536.768 3.409-1.867c-.127-2.635-1.858-3.587-3.473-2.773-1.614.814-1.884 2.789.064 4.64zm599.489-328.281s3.427-1.304 1.9-3.413c-1.527-2.11-3.515-1.947-4.452-.388-.938 1.558-.104 3.339 2.552 3.801zm333.912-661.897s-.997-6.1-5.278-4.081c-4.281 2.02-4.746 5.405-2.362 7.386 2.384 1.982 5.826 1.042 7.64-3.305zM795.74 1053.565s3.426-1.305 1.899-3.414c-1.527-2.11-3.514-1.947-4.452-.388-.938 1.558-.104 3.339 2.553 3.802zm45.855-77.524s7.884 1.249 7.224-4.362c-.661-5.611-4.605-7.451-8.036-5.535-3.432 1.916-3.738 6.162.812 9.897zm219.851-500.348s-2.861-3.516-4.928-.65c-2.067 2.865-1.145 5.191 1.131 5.573 2.276.382 4.185-1.486 3.797-4.923zM65.9 1453.474s3.854 1.088 3.955-1.847c.102-2.936-1.732-4.108-3.599-3.311-1.867.797-2.348 2.973-.356 5.158zm-4.933-12.565s3.854 1.088 3.956-1.847c.101-2.936-1.733-4.108-3.6-3.311-1.867.798-2.347 2.973-.356 5.158zm433.291-376.711s.611 4.546 3.824 3.139c3.213-1.407 3.628-3.907 1.904-5.427-1.724-1.52-4.293-.897-5.728 2.288zm-61.511-64.082s.464 3.627 2.864 2.517c2.4-1.11 2.707-3.102 1.416-4.321-1.291-1.218-3.211-.731-4.28 1.804zm-36.489 14.99s.463 3.627 2.864 2.517c2.4-1.11 2.707-3.103 1.416-4.321-1.291-1.219-3.211-.731-4.28 1.804zM801.78 334.702s6.064.898 5.658-3.801c-.405-4.7-3.416-6.17-6.101-4.496-2.685 1.675-3 5.246.443 8.297zm-6.164-69.219s4.288-1.665 2.321-4.507c-1.967-2.842-4.467-2.668-5.615-.611-1.149 2.056-.062 4.446 3.294 5.118zm511.418 1053.95s-1.954 3.599.866 4.251c2.82.653 4.384-.937 4.048-2.929-.336-1.993-2.331-2.876-4.914-1.322zm-19.361-3.575s-1.954 3.599.866 4.251c2.82.653 4.383-.937 4.047-2.929-.336-1.993-2.331-2.876-4.913-1.322zM562.121 491.342s3.535.768 3.408-1.867c-.126-2.636-1.858-3.587-3.472-2.773-1.615.814-1.884 2.789.064 4.64zm100.555-209.899s7.884 1.248 7.223-4.363c-.66-5.611-4.604-7.451-8.036-5.534-3.431 1.916-3.737 6.162.813 9.897zm-67.325 11.718s3.536.768 3.409-1.868c-.127-2.635-1.858-3.587-3.473-2.772-1.614.814-1.884 2.789.064 4.64zM436.98 508.876s3.854 1.088 3.956-1.848c.101-2.935-1.733-4.107-3.6-3.31-1.867.797-2.347 2.973-.356 5.158zM177.428 952.062s-2.287 5.814 2.36 6.298 6.775-2.21 5.78-5.175c-.995-2.965-4.381-3.948-8.14-1.123zM733.879 63.195s4.288-1.664 2.321-4.507c-1.967-2.842-4.467-2.667-5.616-.611-1.148 2.057-.061 4.447 3.295 5.118zM304.005 765.492s.611 4.546 3.824 3.139c3.213-1.407 3.628-3.907 1.904-5.427-1.724-1.521-4.293-.897-5.728 2.288zm128.043-269.181s3.854 1.088 3.955-1.847c.102-2.936-1.732-4.108-3.599-3.311-1.867.797-2.348 2.973-.356 5.158zM689 108.796s3.426-1.305 1.9-3.414c-1.527-2.11-3.515-1.947-4.453-.388-.937 1.559-.104 3.34 2.553 3.802zM183.884 877.727s.463 3.627 2.863 2.517c2.401-1.11 2.708-3.102 1.416-4.321-1.291-1.218-3.211-.731-4.279 1.804zm371.97-640.937s3.854 1.088 3.956-1.848c.101-2.935-1.733-4.107-3.6-3.31-1.867.797-2.347 2.973-.356 5.158zm-.178-19.943s3.854 1.088 3.955-1.848c.102-2.935-1.732-4.107-3.599-3.31-1.867.797-2.348 2.973-.356 5.158zm-75.389 103.885s4.288-1.665 2.321-4.507c-1.967-2.842-4.467-2.667-5.616-.611-1.148 2.057-.061 4.447 3.295 5.118zM645.886 67.327s3.426-1.304 1.899-3.414c-1.527-2.109-3.515-1.946-4.452-.388-.938 1.559-.104 3.34 2.553 3.802zM119.609 814.163s-1.57 3.345 1.013 3.715c2.583.37 3.909-1.159 3.497-2.906-.411-1.746-2.262-2.384-4.51-.809zM145.18 684.86s-1.954 3.599.866 4.251c2.82.653 4.384-.937 4.048-2.93-.336-1.992-2.332-2.876-4.914-1.321zm-13.325 2.505s-1.954 3.599.866 4.251c2.82.652 4.384-.938 4.048-2.93-.336-1.992-2.331-2.876-4.914-1.321z"/>
</svg>
