<svg xmlns="http://www.w3.org/2000/svg" fill-rule="evenodd" viewBox="0 0 1501 1501">
  <path fill="#f6f5e4" d="M.9.828h1500v1500H.9z"/>
  <path fill="#ff3030" d="M1384.67 1269.11s2.767-2.394.516-3.778c-2.252-1.384-4.082-.536-4.384 1.214-.302 1.75 1.165 3.078 3.868 2.564zm-190.187-30.734s1.214-4.368-2.319-4.397c-3.533-.029-4.897 2.068-3.893 4.146 1.004 2.077 3.633 2.555 6.212.251zm-1142.06-438.1s1.419 3.329 3.495 1.702c2.077-1.628 1.852-3.591.254-4.437-1.598-.846-3.365.076-3.749 2.735zm1286.74 154.839s1.214-4.368-2.319-4.397c-3.533-.029-4.897 2.068-3.893 4.146 1.004 2.077 3.633 2.555 6.212.251zM531.046 832.69s-3.355 3.127-.349 4.935c3.005 1.807 5.285.7 5.528-1.585.244-2.286-1.75-4.022-5.179-3.35zm825.895-216.01s3.838 2.537 5.02-.712c1.181-3.248-.407-5.187-2.749-4.935-2.342.252-3.663 2.521-2.271 5.647zM439.322 509.358s-6.066 1.496-3.774 5.568c2.293 4.071 8.252-4.134 3.774-5.568zm225.408-4.619s-3.355 3.127-.349 4.934c3.005 1.808 5.285.701 5.528-1.585.244-2.285-1.751-4.021-5.179-3.349zm-26.06-176.204s-4.066.486-2.968 3.164c1.099 2.678 3.3 3.035 4.731 1.608 1.432-1.426.999-3.565-1.763-4.772zm-9.749-9.423s-4.066.487-2.967 3.165c1.098 2.678 3.3 3.034 4.731 1.608 1.431-1.426.998-3.565-1.764-4.773z"/>
</svg>
