<svg xmlns="http://www.w3.org/2000/svg" fill-rule="evenodd" viewBox="0 0 1501 1501">
  <path fill="#fff" d="M.251.688h1500v1500H.251z"/>
  <path fill="#b50003" d="M122.64 1242.15s2.225 2.905 3.741.74c1.515-2.165.778-4.042-.951-4.448-1.729-.406-3.142.979-2.79 3.708zm42.01-188.018s4.287 1.472 4.527-2.053c.24-3.525-1.773-5.012-3.906-4.133-2.134.879-2.768 3.474-.621 6.186zm868.671-923.924s-3.407 1.217-1.907 3.387c1.501 2.17 3.474 2.063 4.414.518.94-1.545.125-3.364-2.507-3.905zm-231.22 1275.23s4.287 1.472 4.527-2.052c.239-3.525-1.773-5.012-3.907-4.133-2.133.878-2.767 3.474-.62 6.185zm170.35-799.387s-2.921-3.536-4.905-.643c-1.984 2.892-1.014 5.234 1.253 5.613 2.267.379 4.118-1.508 3.652-4.97zm166.424 837.296s-2.761 3.68.412 5.053c3.172 1.373 5.202-.097 5.09-2.45-.112-2.353-2.299-3.806-5.502-2.603zm161.799-909.595s-1.133-6.145-5.334-4.099c-4.2 2.046 3.635 8.484 5.334 4.099zm-8.818 225.283s-2.922-3.536-4.905-.643c-1.984 2.892-1.015 5.234 1.252 5.613 2.268.379 4.119-1.508 3.653-4.97zM681.311 49.274s-.244-4.088-2.982-3.151c-2.739.937-3.226 3.114-1.887 4.627 1.338 1.514 3.499 1.209 4.869-1.476zm9.987-9.17s-.244-4.087-2.983-3.15c-2.738.937-3.225 3.113-1.887 4.626 1.339 1.514 3.5 1.209 4.87-1.476z"/>
</svg>
