<svg xmlns="http://www.w3.org/2000/svg" viewBox="0 0 900 900">
  <style>
    :root {
      --base: #F8F8F8;
      --mellow: #F1F68E;
      --boo: #9DB4FF;
      --wine: #c01458;
      --orange: #E9B581;
      --greeee: #00EB9B;
      --pank: #F2C0EA;
    }

    @media (prefers-color-scheme: light) {
      :root {
        --base: #3f3d31;
        --mellow: #ece800;
        --boo: #224bce;
        --wine: #a6133b;
        --orange: #bc7630;
        --greeee: #00aa4e;
        --pank: #b85aa9;
      }
    }
  </style>
  <path id="white" fill="var(--base)" d="M609.975 879.79c.19 1.527-.744 2.358-1.858 2.188-1.114-.17-1.565-1.204-.553-2.478 1.011-1.274 2.411.29 2.411.29zm173.01-122.04c.248 1.565-2.709 1.217-2.709 1.217-1.706-1.042-1.592-2.228-.305-2.762 1.287-.535 2.767-.022 3.014 1.544zm-14.135-13.12c.585.847-.729 1.37-.729 1.37-1.018-.185-1.338-.9-.979-1.525.36-.626 1.122-.691 1.708.155zm-218.852-41.36c-.038 1.048-1.508.66-1.508.66-.76-.781-.576-1.558.136-1.843.712-.285 1.411.134 1.372 1.183zM238.85 634.63c.585.847-.729 1.37-.729 1.37-1.018-.185-1.338-.9-.979-1.525.36-.626 1.122-.691 1.708.155zm448.914-5.662c.898 1.282-1.06 2.032-1.06 2.032-1.53-.303-2.026-1.38-1.502-2.308.524-.927 1.665-1.006 2.562.276zm-475.99-3.338c.879.846-1.092 1.37-1.092 1.37-1.528-.186-2.008-.9-1.468-1.525.54-.626 1.682-.691 2.56.155zm620.772-30.461c.675-.486 1.4.081 1.453 1.655.053 1.572-1.426 1.114-1.426 1.114-.815-1.105-.703-2.284-.027-2.77zM96.998 556.824c.08 1.572-2.14 1.114-2.14 1.114-1.221-1.105-1.052-2.284-.04-2.77 1.014-.485 2.1.083 2.18 1.656zm554.204-106.132c.524-.927 1.665-1.006 2.562.276.834 1.19-.794 1.922-1.03 2.02l-.029.012c-1.531-.303-2.027-1.38-1.503-2.308zm71.783-12.943c.248 1.566-2.709 1.218-2.709 1.218-1.706-1.042-1.592-2.228-.305-2.762 1.287-.535 2.767-.022 3.014 1.544zM92.893 379.396c.445 1.476-.507 2.817-2.586 2.576-2.078-.241-1.055-3.136-1.055-3.136 1.681-1.406 3.195-.917 3.64.56zm-24.706-53.011c.889-.675 1.621-.401 1.784.346.163.749-.362 1.404-1.383 1.245-1.022-.158-.401-1.591-.401-1.591zm71.217-19.02c1.025.704.778 1.86-1.131 2.51-1.91.65-2.273-1.451-2.273-1.451.853-1.473 2.38-1.761 3.404-1.058zm333.58-1.576c.126 1.528-.497 2.36-1.24 2.19-.742-.17-1.043-1.205-.368-2.48.674-1.273 1.608.29 1.608.29zM541 299.162c-.514.946-1.29 1.051-1.758.516-.467-.535-.274-1.302.715-1.63.99-.327 1.043 1.114 1.043 1.114zm4-2c-.77.946-1.936 1.051-2.637.516-.7-.535-.411-1.302 1.073-1.63 1.484-.327 1.564 1.114 1.564 1.114zm-20-43.078c-.454.972-1.223 1.139-1.72.65-.498-.489-.353-1.26.613-1.662.967-.403 1.107 1.012 1.107 1.012zm-85-7.505c-.79 2.467-2.305 2.985-3.361 1.843-1.057-1.142-.86-3.069 1.023-4.197 1.883-1.129 2.338 2.354 2.338 2.354zm417.998-34.31c-.038 1.05-1.508.66-1.508.66-.759-.78-.576-1.557.136-1.842.712-.285 1.411.134 1.372 1.182zM672 150.533c-.8 1.485-2.317 1.806-3.369 1.129-1.05-.677-.846-1.832 1.042-2.522 1.887-.69 2.327 1.393 2.327 1.393zm-468.236-9.565c.834 1.19-.794 1.922-1.03 2.02l-.029.012c-1.531-.303-2.027-1.38-1.503-2.308.524-.927 1.665-1.006 2.562.276zm679.207-14.763c1.287-.535 2.767-.022 3.014 1.544.248 1.566-2.709 1.218-2.709 1.218-1.706-1.042-1.592-2.228-.305-2.762zm-650.973-14.936c-.038 1.05-1.508.66-1.508.66-.759-.78-.576-1.557.136-1.842.712-.285 1.411.134 1.372 1.182zm0-8c-.038 1.05-1.508.66-1.508.66-.76-.78-.576-1.557.136-1.842.712-.285 1.411.134 1.372 1.182zm495-42.054c.054 1.05-1.425.744-1.425.744-.815-.737-.702-1.523-.027-1.846.675-.325 1.4.054 1.453 1.102zM299.687 45.968c1.197 1.282-1.412 2.032-1.412 2.032-2.042-.303-2.704-1.38-2.005-2.308.699-.927 2.22-1.006 3.417.276zM40.235 42.306c.92-.6 1.63-.259 1.749.508.12.768-.437 1.38-1.441 1.129-1.004-.251-.308-1.637-.308-1.637z"/>
  <path id="yellow" fill="var(--mellow)" d="M434.819 805.169c1.013-.486 2.1.082 2.179 1.655.08 1.572-2.14 1.114-2.14 1.114-1.221-1.105-1.052-2.284-.04-2.77zm-47.826-266.454c.148 1.56-2.07 1.262-2.07 1.262-1.26-1.013-1.146-2.2-.163-2.755.983-.557 2.084-.068 2.233 1.493zM92 349.945c.424-.981 1.188-1.17 1.7-.698.514.471.392 1.242-.562 1.671-.954.43-1.138-.973-1.138-.973zm337-57.783c-.514.946-1.29 1.051-1.758.516-.467-.535-.274-1.302.715-1.63.99-.327 1.043 1.114 1.043 1.114zm7-2.419c-.513 1.418-1.29 1.577-1.758.774-.467-.802-.274-1.953.715-2.444.99-.492 1.043 1.67 1.043 1.67zm14.996-21.692l.004.033c-.454.972-1.223 1.139-1.72.65-.498-.489-.353-1.26.613-1.662.879-.366 1.075.77 1.103.98z"/>
  <path id="blue" fill="var(--boo)" d="M504.352 522.305c1.379-.598 2.444-.258 2.624.51.18.767-.655 1.38-2.161 1.128-1.506-.251-.463-1.638-.463-1.638zM389.013 404.222c1.31-.557 2.78-.068 2.978 1.493.197 1.56-2.761 1.262-2.761 1.262-1.68-1.013-1.527-2.2-.217-2.755zm289.222-124.916c.919-.6 1.63-.259 1.749.508.12.768-.437 1.38-1.441 1.129-1.004-.251-.308-1.637-.308-1.637z"/>
  <path id="red" fill="var(--wine)" d="M889.971 473.205c1.287-.535 2.766-.022 3.014 1.544.248 1.567-2.709 1.218-2.709 1.218-1.706-1.043-1.592-2.228-.305-2.762zM264.142 47.475c.36-.626 1.122-.691 1.708.155.585.847-.729 1.37-.729 1.37-1.018-.185-1.338-.9-.979-1.526z"/>
  <path id="orange" fill="var(--orange)" d="M36.626 858.087c.712-.285 1.411.134 1.372 1.183-.038 1.048-1.508.66-1.508.66-.759-.781-.576-1.558.136-1.843zm170-240c.712-.285 1.411.134 1.372 1.183-.038 1.048-1.508.66-1.508.66-.759-.781-.576-1.558.136-1.843zM208 419.424c.64-1.473 1.785-1.761 2.553-1.058.769.702.584 1.858-.849 2.51-1.432.65-1.704-1.452-1.704-1.452zm72.142-356.95c.36-.625 1.122-.69 1.708.156.585.846-.729 1.37-.729 1.37-1.019-.185-1.338-.9-.979-1.525z"/>
  <path id="green" fill="var(--greeee)" d="M371.686 881.29c1.197 1.709-1.412 2.71-1.412 2.71-2.043-.404-2.704-1.84-2.005-3.077.699-1.237 2.22-1.341 3.417.367zM186.7 794.247c.513.471.391 1.242-.563 1.671-.954.43-1.138-.973-1.138-.973.425-.981 1.188-1.17 1.701-.698zM635 704.945c.425-.981 1.188-1.17 1.701-.698.513.471.391 1.242-.563 1.671-.954.43-1.138-.973-1.138-.973zM92.701 552.247c.513.471.391 1.242-.563 1.671-.954.43-1.138-.973-1.138-.973.425-.98 1.188-1.17 1.701-.698zm419.283-37.025c.12 1.15-.437 2.07-1.441 1.692-1.004-.377-.308-2.456-.308-2.456.92-.898 1.63-.387 1.749.764zm162.009-368.507c.148 1.56-2.07 1.262-2.07 1.262-1.26-1.013-1.146-2.2-.163-2.756.983-.556 2.085-.067 2.233 1.494z"/>
  <path id="pink" fill="var(--pank)" d="M655.626 765.174c.712-.57 1.411.268 1.372 2.366-.038 2.096-1.508 1.32-1.508 1.32-.76-1.562-.576-3.117.136-3.686zm-470-560.043c.712-.427 1.411.2 1.372 1.774-.038 1.572-1.508.99-1.508.99-.76-1.171-.576-2.337.136-2.764z"/>
</svg>
