<svg xmlns="http://www.w3.org/2000/svg" width="90" height="96" fill="none" viewBox="0 0 82 96">
  <path fill="color(display-p3 1 0 0)" d="M70.497 94.753 65.59 28.551l-4.588 66.202H56.16L49.372 1.247h4.716l4.747 63.709 4.43-63.71h4.874l5.035 64.458 4.365-64.457H82l-6.66 93.506zM35.98 0c6.564 0 11.47 19.574 11.47 47.003C47.45 76.426 42.545 96 35.98 96c-6.66 0-11.503-19.574-11.503-48.997C24.477 19.574 29.321 0 35.98 0m0 16.208c-4.27 0-6.723 12.343-6.723 31.792 0 20.197 2.453 31.792 6.723 31.792 4.206 0 6.691-11.595 6.691-31.792 0-19.45-2.485-31.792-6.69-31.792M20.488 94.753H14.02L4.46 23.688v71.065H0V1.247h6.468l9.56 72.686V1.246h4.46z"/>
</svg>