<svg xmlns="http://www.w3.org/2000/svg" fill-rule="evenodd" viewBox="0 0 947 1424">
  <path fill="#222" d="M123.502 697.758c-.311-3.824-.251-63.532.447-66.362 4.427-17.946-30.329-50.376-37.457-72.156-7.129-21.78-14.742-69.884-12.723-85.228 2.019-15.344 3.376-32.373 12.152-37.7 4.517-2.743 11.96-11.892 19.235-6.886 0 0-13.049-62.337-15.625-89.212-2.3-24.003-12.956-121.022 20.734-157.248 41.989-45.151 58.741-81.806 137.38-108.201 46.064-15.461 55.349-27.409 91.892-30.453 36.543-3.045 157.706-16.824 217.148 52.858 59.441 69.682 100.022 121.126 106.437 156.343 6.415 35.218 12.392 92.6 10.368 116.1-2.025 23.5 4.726 107.987 12.509 133.821.861 2.858 21.03 63.433 21.03 63.433l26.645 47.413s44.944 55.658 47.097 57.516c8.511 7.348 26.875 30.634 48.589 63.085-.82.098 39.191 59.454 49.761 83.366 10.914 24.69 20.694 79.802 24.881 92.626 11.392 34.894-6.716 167.781-11.533 204.42-5.674 43.158-30.117 97.95-34.017 105.586-11.331 22.186-82.87 102.649-152.45 128.972-19.785 7.484-78.557 21.738-79.064 21.789-2.591-1.763-125.437-5.036-125.287-5.498-6.747 7.713-114.963-43.919-137.24-61.096 0 0-86.722-80.605-102.593-93.724-34.693-28.679-91.727-71.125-92.579-69.476-26.57-30.709-102.542-107.259-91.703-114.337-16.177-2.833-52.823-137.316-49.932-147.814 30.879-112.096 69.024-155.742 95.898-181.937z"/>
</svg>
