<svg xmlns="http://www.w3.org/2000/svg" fill="none" viewBox="0 0 112 135">
  <path fill="#FFC320" d="M40.5 10l6 20.5c9.5-7 15-.5 15-.5 6.5-6.5 12.7-1.8 16 1 2.5 1 3.5-2.5 8.5-3 8.5.5 13 14.2 15 19l7.5 28c3 8.5 5.8 29.2-7 44-16 18.5-40 16.5-48.5 14.5s-20-14.5-24.5-18-16.5-7.5-22-13-8-14-5.5-20c2-4.8 8-8.5 14.5-7l14 4L26 67l-5-17c-2.5-8.5-7.1-23.9-7.5-27.5C13 18 10.3 6 22 1.5c9-3.5 15.5 1 18.5 8.5z"/>
  <path fill="#292929" fill-rule="evenodd" d="M63.4 28.4L61.5 30l-.4-.4c-1-.9-3.4-2.7-7.2-2.3-2 .2-4.6 1.1-7.4 3.2l-6-20.5C37.5 2.5 31-2 22 1.5c-10.7 4.2-9.3 14.6-8.7 19.8l.2 1.2c.4 3.3 4.3 16.5 6.8 25.2L21 50l5 17 3.5 12.5-14-4a12.7 12.7 0 00-14.5 7c-2.5 6 0 14.5 5.5 20a55 55 0 0013.8 8.4c3.3 1.7 6.4 3.2 8.2 4.6l4.5 4c5.5 5 13.6 12.5 20 14 8.5 2 32.5 4 48.5-14.5 12.8-14.8 10-35.5 7-44L101 47l-.7-1.6c-2.2-5.7-6.6-17-14.3-17.4-2.5.3-4 1.3-5.3 2.1-1.1.8-2 1.4-3.2.9-3-2.6-8.3-6.6-14.1-2.6zm-9 34.1l-6.2-24.2a8 8 0 003-1.4 8.5 8.5 0 013.2-1.6h1l.3.2c.3.4.7.7 1.2 1L63.6 65a4 4 0 107.8-1.8l-6.2-26a8 8 0 002-1.4c.8-.9 1.2-1 1.2-1h.3a20 20 0 013.6 2.3 8 8 0 002.2 1.4l4 19.9a4 4 0 108-1.6l-3.9-18.5c1.3-.5 2.3-1.2 2.6-1.5a11.4 11.4 0 01.8-.5l.4.3c.8.7 1.7 1.8 2.7 3.5 1.6 2.6 2.7 5.5 3.7 8l.6 1.6 7.4 27.5a44.2 44.2 0 012.2 17c-.5 6.9-2.6 14-7.6 19.7-13 15-33 13.7-40.6 12-.8-.3-2.2-.9-4.3-2.2-1.9-1.2-4-2.8-6-4.6-2.2-1.8-4.2-3.7-6-5.4l-.3-.2-4.8-4.2c-1.7-1.4-4-2.6-5.8-3.5a428.7 428.7 0 01-6.2-3 39 39 0 01-9.2-5.9c-4-4-4.7-9-3.8-11.2a4 4 0 011.9-1.9c1-.5 2-.7 3.2-.4l13.8 3.9a8 8 0 009.9-9.9l-3.5-12.5-5-17-.7-2.3a1209.9 1209.9 0 01-6.5-23.6v-.3l-.3-1.8c-.3-2.3-.5-4.3-.1-6.4.2-1.1.5-2 1-2.5.4-.6 1.1-1.3 2.8-2 2.7-1 4.1-.6 5-.2.9.5 2 1.7 3 4L37 26.5l.1 1 9.5 37a4 4 0 107.8-2z" clip-rule="evenodd"/>
</svg>
