<?xml version="1.0" encoding="utf-8"?>
<!-- Generator: Adobe Illustrator 23.0.4, SVG Export Plug-In . SVG Version: 6.00 Build 0)  -->
<svg version="1.1" id="Layer_1" xmlns="http://www.w3.org/2000/svg" xmlns:xlink="http://www.w3.org/1999/xlink" x="0px" y="0px"
	 viewBox="0 0 2081 2075" style="enable-background:new 0 0 2081 2075;" xml:space="preserve">
<style type="text/css">
	.st0{fill-rule:evenodd;clip-rule:evenodd;fill:#222222;}
</style>
<path class="st0" d="M0.4,895.5l2-894.3c0,0,1821.2-1.1,1826.4-1.8c1.5-0.2,251.3,0.8,251.9,0.9c7.4,1-1.3,832.7-1.3,832.7
	S1918.2,694,1897.5,682.6c-20.1-26.2-156.4-41.6-185.7-52.8c-15.3-5.8-57.8-15.5-58.6-15.6c-21.5-3.1-89.9-8-93.8-7.8
	c-91.9,11.7-144,26.5-164.2,33.2c-12.2,4-36.2,27.8-36.9,29.6c-3.9,6.9-26.2,38.2-27.6,83.5c-3,97.3,2.6,182.4,13.3,244.1
	c6.4,36.9,16.5,184.2,18.2,202.5c0.5,5.6,21,98.5,24,111.5c7.9,34.2,81.9,406.3,96.2,484.9c14.7,80.6,17.2,80.6,19.5,118.1
	c0.1,2.2,1.4,158.6,1.4,158.6H0.8L0.4,895.5z"/>
</svg>
