<svg xmlns="http://www.w3.org/2000/svg" fill-rule="evenodd" viewBox="0 0 2081 2075">
  <path fill="#222" d="M956.994 1826.25c-9.007-51.521-91.708-385.542-91.708-385.542-86.128-308.673-109.673-524.368-181.197-616.414-19.406-3.047-37.953-4.234-56.948-6.066-46.36-4.471-89.616-.058-126.719 3.911-2.714.29-7.752-56.638-10.421-56.302-2.669.336-5.063 8.662-9.573 7.907-4.404-.737 4.32 51.128.026 51.899-29.243 5.251-70.914 12.983-125.485 27.802-11.489 3.12-41.466 13.114-57.135 18.755-.753.271-3.848-18.266-6.076-42.803-1.857-20.443-6.044-43.956-7.249-64.817-1.579-27.326-6.081-49.026-7.108-48.717-13.13 3.951-12.062 6.551-21.949 10.986-1.101.494.794 23.539 4.794 51.681 2.436 17.138 6.383 37.164 6.344 54.18-.068 29.312 6.307 50.755 5.377 51.216-58.446 28.949-124.544 76.261-140.947 93.331-7.269 7.565-9.455-1.055-9.455-1.055s-18.004-159.82-14.537-164.612c-27.734 9.213-75.75 67.714-94.003 87.645C8.304 904.39.382 895.49.382 895.49s-3.349-116.26 18.861-163.696c74.506-173.157 265.275-281.542 413.903-346.009 1.785-.774 12.106 84.114 13.893 84.83 4.092 1.64 3.195-3.199 4.224-6.893.438-1.575-8.216-82.755-6.72-83.379 81.35-33.962 155.011-57.281 180.082-69.257 116.988-55.887 496.333-120.221 507.19-122.4 10.858-2.179 46.01-18.512 80.597 1.67 289.993 88.697 457.054-111.147 473.785-145.149 27.985-16.896 79.737-27.881 126.889-34.633 5.293-.758 10.527-1.462 15.663-2.116 1.491-.19 18.167 221.013 21.635 220.02 41.179-11.782 33.969-170.08 37.752-224.099 1.563-5.422 25.416-3.041 25.986-2.963 7.377 1.003 42.74.053 55.924 43.949 12.018 50.355 30.504 133.512 48.945 219.818 1.223 5.72-14.765 30.626-18.691 34.982-11.529 12.79-52.956 21.846-50.663 31.101 1.021 4.119 83.149-1.673 87.185 18.462 22.525 91.977 35.992 177.687 41.742 216.708 12.761 86.594-52.56 102.945-73.376 107.568-10.642 2.364-90.739-201.784-96.587-212.451-9.788-17.855-22.897-25.387-22.634-21.71.211 2.948 68.847 234.752 61.099 248.879-31.042 11.086-64.603 13.28-72.43 14.55-15.488 2.514-63.289 23.165-83.973 11.792-20.083-26.166-54.696-52.776-84.02-63.922-15.305-5.817-26.491-10.439-32.715-12.655-1.328-.474-2.407-.949-3.298-1.079-21.472-3.125-41.379-8.662-62.47-11.666-.611-.087-3.335 1.81-6.364-1.182-.889-.878-9.821-41.177-17-81.925-7.292-41.39-14.192-82.905-16.292-84.38-4.05-2.846-2.978-4.494-6.47-.778-1.397 1.487 3.415 38.182 5.336 77.034 2.143 43.344 1.326 89.252-2.601 89.445-20.824 1.023-25.585 3.179-47.005 2.502-18.644-.59-35.343 5.079-47.794 6.788-33.384 4.581-65.116 14.963-85.349 21.676-12.192 4.046-13.551-28.122-15.36-27.634-14.288 3.848-3.098 17.86-2.465 22.935.889 7.122-7.862 17.129-8.548 18.926-3.924 6.9-26.22 38.151-27.627 83.544-3.017 97.262 2.558 182.381 13.301 244.055 6.434 36.941 16.506 184.234 18.248 202.479.537 5.622 21.035 98.529 24.03 111.523 7.88 34.196 81.88 406.313 96.223 484.885 14.713 80.594 17.184 80.632 19.536 118.124.135 2.152 1.427 27.255.203 32.304-.941 3.882-17.429-3.258-20.379-.204-2.033 2.105-6.966-6.51-9.059-3.984-3.738 4.511-2.021 22.161-6.521 26.151-3.07 2.723-16.829-11.921-19.852-9.237-4.864 4.317.065 31.212-5.02 33.732-8.329 4.129-25.845-34.716-32.209-30.593-11.559 7.489-6.421 24.456-8.939 26.005-13.755 8.465-11.506-10.189-31.562-12.098-9.187-.874-9.754 24.439-15.832 26.788-1.182.457-2.379-.506-3.408-.897-8.218-3.126-10.103-11.533-18.127-10.796-10.869.999-7.838 31.711-10.816 31.078-5.533-1.175-23.756-28.645-27.621-27.007-7.912 3.354-9.874 31.069-11.065 31.238-16.392 2.324-30.255-20.653-32.81-19.073-7.498 4.639-8.724 15.777-16.778 19.975-10.652 5.552-14.267-17.838-25.376-12.336-10.12 5.013-1.926 31.108-12.376 35.533-4.034 1.709-14.496-15.402-26.774-21.603-4.612-2.329-2.632 21.849-7.199 23.678-5.52 2.211-19.083-18.89-27.481-15.721-9.369 3.535-6.91 28.947-13.094 30.262-4.347.924-14.98-15.223-19.999-18.266-8.552-5.185-5.789 22.509-13.538 25.556-5.923 5.124-15.192-25.237-22.979-20.682-2.489 1.455-8.607 22.149-17.069 18.554-10.635-4.518-29.006-14.681-29.006-14.681s-51.272-179.664-60.279-231.185zm83.35-935.79s6.3 29.292 5.288 37.857c-1.013 8.564 2.025 23.828 3.037 32.694 1.013 8.866 2.48 28.943 2.48 32.735 0 3.791-1.012 33.411-1.012 39.461 0 6.049-1.764 35.562-1.764 44.428s-1.468 33.155-8.519 38.225c-7.052 5.071-14.294 15.597-20.859 18.64-6.565 3.042-32.87 17.656-38.91 20.176-6.039 2.519-12.343 5.526-19.134 12.851-6.791 7.325-26.653 20.444-25.607 29.365 1.406 11.984 6.479 16.256 15.816 17.758 9.338 1.501 44.682-15.07 53.011-18.865 8.33-3.795 18.581-21.092 25.368-23.607 6.787-2.516 18.802-21.313 27.092-28.115 8.289-6.802 24.086-34.426 28.851-49.797 4.766-15.371 1.99-41.418 4.766-53.485 2.777-12.067-4.726-51.615-6.229-66.233-1.503-14.618-7.02-51.421-12.047-62.018-5.027-10.597-17.821-37.171-23.86-43.221-6.04-6.049-6.194 13.176-7.768 21.151zm-197.61-290.705c1.401 1.661 3.387 3.476 7.179 2.339 3.793-1.138-29.238-78.068-29.238-80.009 0-1.941-.644-9.814-.644-11.166 0-1.352 10.436-13.171 10.436-13.171s-3.782-3.253-7.547-2.666c-3.765.588-15.398 8.977-15.398 8.977l-17.419 10.187-11.663 4.638s-1.886 6.588.127 6.839c2.013.251 14.137-1.943 14.137-1.943l8.024 1.761s14.089 21.286 14.095 21.389h-.001c.001.001 26.511 51.165 27.912 52.825zm844.9-151.812s38.851-9.819 45.003-19.433c7.427-11.609 13.451-4.564 13.451-4.564 1.255 11.574-3.38 42.452-3.38 42.452s-37.677 23.684-55.074-18.455zM1260.409 345.47c-7.59-14.329-39.575-13.932-40.654 3.293-1.281 20.447 22.974 100.517 32.97 119.388 5.113 9.651 21.671 2.948 27.011-6.162 5.339-9.11-9.33-97.648-19.327-116.519zm277.769-8.059c-.408-4.841-4.253-18.393-6.005-24.42-1.752-6.027-8.845-27.819-8.845-27.819l-4.014-12.553s19.689-4.174 23.041-2.834c3.351 1.34 15.552 16.356 24.397 53.546 8.845 37.19-1.035 46.811-2.21 48.578-1.174 1.767-15.753 4.084-15.753 4.084s-10.091-32.426-10.611-38.582z"/>
</svg>
