<svg xmlns="http://www.w3.org/2000/svg" id="Layer_1" x="0" y="0" version="1.1" viewBox="0 0 2081 2075" xml:space="preserve">
  <path fill="#222" fill-rule="evenodd" d="M.4 895.5l2-894.3S1823.6.1 1828.8-.6c1.5-.2 251.3.8 251.9.9 7.4 1-1.3 832.7-1.3 832.7s-161.2-139-181.9-150.4c-20.1-26.2-156.4-41.6-185.7-52.8-15.3-5.8-57.8-15.5-58.6-15.6-21.5-3.1-89.9-8-93.8-7.8-91.9 11.7-144 26.5-164.2 33.2-12.2 4-36.2 27.8-36.9 29.6-3.9 6.9-26.2 38.2-27.6 83.5-3 97.3 2.6 182.4 13.3 244.1 6.4 36.9 16.5 184.2 18.2 202.5.5 5.6 21 98.5 24 111.5 7.9 34.2 81.9 406.3 96.2 484.9 14.7 80.6 17.2 80.6 19.5 118.1.1 2.2 1.4 158.6 1.4 158.6H.8L.4 895.5z" clip-rule="evenodd"/>
</svg>
