<svg xmlns="http://www.w3.org/2000/svg" fill-rule="evenodd" viewBox="-5 0 2086 2075" aria-labelledby="the-work-title" role="img">
  <style>
    :root {
      --base: #222;
      --the-work: #f8f8f8;
      --so-far: #F0B67B;
    }

    @media (prefers-color-scheme: light) {
      :root {
        --base: #4d352e;
        --the-work: #edf8f2;
        --so-far: #e7f097;
      }
    }
  </style>
  <title id="the-work-title">The Work So Far</title>
  <path fill="var(--base)" d="M2078.6 566.4c-5.8-39-22.8-123.3-45.3-215.3-4-20.1-114.6-10.4-115.6-14.5 0-4 54.2-24.4 70.7-37.7 7.9-5.3 15.1-24.7 13.9-30.4-16.5-89.8-43.5-183.5-55.5-233.8-10.6-29.7-39.5-22.1-46.9-23.1-7.9 9.9 2.6 118.2-7.9 177.7-5.7 31.8-29.8 57.1-48.2 62.8-3.5 1-25.8-213.4-38.3-231.9-47.2 6.8-93.8 27.4-107.3 35.7-10.6 10.6-28.7 34.3-52.5 58.8-2.1 2.2 16.5 13.2 8.6 13.9-9.5.8-30.5-2.5-43.6 6.6-68.7 47.6-155.9 81.9-247 86.5-4.7.2-1.4 11.8-5.9 11.9-3.3 0-7.9-13.2-11.2-13.2-37.4 0-72.7 3.3-126.2-23.1-34.6-20.2-78.3-9.4-89.2-7.3-2.4.5-24.4 5.7-56.4 11.4-3.1.6-6.2 55.5-11 55.9-7 .6-1.4-54.7-4.4-54.2-38.6 7.1-87.6 21.1-140.9 32.1-3.8.8-11 20.7-21.6 20.7-1.8 0 2.3-18-1.8-17.2-104.1 22.1-212 49.5-266 75.3-15.3 7.3-57.1 25.4-100.6 40.1-27.7 9.4-47.8 17.6-79 32.8-4.4 2.2 21.6 132.5 21.1 134.1-.9 1.3-28.4 12.3-31 14.1-1.8-.7-11-139.7-12.8-138.9C278 460.8 93.7 558.6 19.2 731.8c-22.2 47.4-16 162.3-16 162.3s3.2 4.3 7.9-.9c8.5-37.5 73.6-96 101.3-105.2-3.5 4.8 9.2 188.2 9.2 188.2s2.2 8.6 9.5 1.1c17.4-44.2 74.9-71.7 133.3-100.6-3.7-6.3-7-12.3-6.9-41.6 0-17-2.5-36.4-5-53.5-4-28.1-7-63.9-5.9-64.4 9.9-4.4 22.5-13.9 35.7-17.8 1-.3 6.3 37.1 7.9 64.4 1.2 20.9 4.1 43 5.9 63.4 2.2 24.5 6.2 35.9 6.9 35.7 15.7-5.6 24.8-17.8 64.4-24.8 64.4-6.9 80.3-14.9 109-24.8 4.3-.8-20.3-176.1-15.9-175.4 8.9-5.9 23.1-8.6 25.8-8.9 2.7-.3 15.1 182.6 17.8 182.3 37.1-4 78.5-10.4 124.8-5.9 19 1.8 41 3.9 60.4 6.9 22.8 7.9 47.6 51.5 64.4 113.9 32.3 119.7 51.1 297.9 111.5 514.5 0 0 82.7 334 91.7 385.5s60.3 231.2 60.3 231.2 18.4 10.2 29 14.7c8.5 3.6 14.6-17.1 17.1-18.6 7.8-4.6 17.1 25.8 23 20.7 7.7-3 5-30.7 13.5-25.6 5 3 15.7 19.2 20 18.3 6.2-1.3 3.7-26.7 13.1-30.3 8.4-3.2 22 17.9 27.5 15.7 4.6-1.8 2.6-26 7.2-23.7 12.3 6.2 22.7 23.3 26.8 21.6 10.4-4.4 2.3-30.5 12.4-35.5 11.1-5.5 14.7 17.9 25.4 12.3 8.1-4.2 9.3-15.3 16.8-20 2.6-1.6 16.4 21.4 32.8 19.1 1.2-.2 3.2-27.9 11.1-31.2 3.9-1.6 22.1 25.8 27.6 27 3 .6-.1-30.1 10.8-31.1 8-.7 9.9 7.7 18.1 10.8 1 .4 2.2 1.4 3.4.9 6.1-2.3 6.6-27.7 15.8-26.8 20.1 1.9 17.8 20.6 31.6 12.1 2.5-1.5-2.6-18.5 8.9-26 6.4-4.1 23.9 34.7 32.2 30.6 5.1-2.5.2-29.4 5-33.7 3-2.7 16.8 12 19.9 9.2 4.5-4 2.8-21.6 6.5-26.2 2.1-2.5 7 6.1 9.1 4 3-3.1 19.4 4.1 20.4.2 1.2-5-.1-30.2-.2-32.3-2.4-37.5-4.8-37.5-19.5-118.1-11.1-60.6-57.6-295.9-82-416-7.2-35.6-12.5-61.1-14.3-68.9-3-13-23.5-105.9-24-111.5-1.7-18.2-18-165.1-24.5-202.1-10.7-61.7-15.2-142-15.2-239.8 1.4-45.4 6-71 9.9-77.9 9.9-18.5 28-23.3 27.1-30.4-5.3-21.8-8.6-25.1 11.9-32.4 1.8-.5-1.6 35.1 10.6 31 20.2-6.7 51.2-16.6 84.6-21.1 12.5-1.7 27.6-7.2 46.2-6.6 22.5-1.3 26.7-1 47.6-2 3.9-.2 4.1-40.5 2-83.9-1.9-38.9-7.3-83.1-5.9-84.6 3.5-3.7 9.2-1.5 13.2 1.3 2.1 1.5 15.2 49.8 22.5 91.2 7.2 40.7 20.5 74.6 21.1 74.6 21.1 3 21.5 6.8 42.9 9.9.9.1 18.5 5.5 19.8 5.9 6.2 2.2 16.4 6.1 31.7 11.9 27.1 13.2 64.5 43.2 84.6 69.4 20.7 11.4 67.1-4.8 82.6-7.3 7.8-1.3 41.3-6.7 72.3-17.8 7.7-14.1-71.5-264.6-71.7-267.5-.3-3.7 31 10.6 40.3 38.3 5.8 10.7 79.2 214.4 89.8 212 20.7-4.3 82.5-25.4 73-104.8zm-871-231.8c1.1-17.2 41-18.8 55.5-1l10.9 28.7c8.1 20.8 24.2 104.2 18.8 113.3-5.3 9.1-38.5 15.3-43.6 5.6-21.1-33.9-43.8-116.7-41.6-146.6zm53.8 1029.2c-15.6 18.9-111.8 44.7-131.1 51.5-19.1 6.7-114 33.5-129.6 12.5s34.8-30.2 43.6-32.7c8.8-2.5 103.5-24.6 117.2-29.5 13.7-5 73.1-34.5 90-33 16.9 1.5 9.9 31.2 9.9 31.2zm-77.3-256.1c24.6-34.5 53.9-30.3 62.8-28.1 8.9 2.1 8.1 32.7 8.1 32.7-41.9 26.1-87.4 37.5-90.7 34.7s-4.8-4.8 19.8-39.3zm-119.2-838s7.9 105.7 14.5 129.9 32.6 106.6 43.2 122 17.6 28.6 18.9 30.4c1.3 1.8 23.3 28.6 26 30.8 2.6 2.2-2.6 5.3-4.8 2.6-2.2-2.6-42.7-55.5-45.4-61.7-2.6-6.2-35.7-64.7-45.8-123.3-10.1-58.5-14.1-118.4-6.6-130.7zM913.3 749.8c-3.8 1.1-13.5-11.2-14.9-12.9l-56.8-116.3c-1.4-1.7-21.1-44.3-21.1-44.3l-9.2-18.5c0-.1-11.9-21.8-11.9-21.8l-10.6-9.2s-90.5 48.6-92.5 49.5c-7.6 3.8 50.5-44.6 50.5-44.6l43.9-22.8 15.2-9.2s51.1-28.8 54.8-29.4c23.8-16.8 36.7-15.9 36.7-15.9s-73.7 55.1-73.7 56.5 5.3 14.6 5.3 16.5c.1 2.1 88.1 221.3 84.3 222.4zM909 451.6c-1.3-2.2-4-.9-6.6-.9s-1.8-3.1-.9-4.4c.9-1.3 3.5-4.8.4-8.4s-4-7.5-5.7-12.3c-1.8-4.8-25.1-49.3-25.1-49.3s-4.8-16.3-5.7-20.3c-.9-4-5.7-17.2-5.7-19.4 0-2.2 2.2-4.4 3.5-3.5 1.3.9 6.6 11 9.7 14.5 3.1 3.5 7.9 11.9 9.2 15 1.3 3.1 4.4 14.1 6.2 16.7 1.8 2.6 12.8 25.5 14.5 27.7s14.5 26.4 16.3 28.2 30.8 48.4 32.6 50.2 36.1 52.4 37.4 54.2c1.3 1.8 34.8 49.3 37 52 2.2 2.6 30.4 48.9 31.7 51.1 1.3 2.2 15.4 34.3 15.4 34.3s-3.1 2.6-4.8 2.6-5.7-2.6-8.8-4.8c-3.1-2.2-20.3-28.6-22.9-33.5-2.6-4.8-16.3-20.7-18.9-22.5-2.6-1.8-33.5-46.2-34.8-49.3s-53.7-83.2-54.6-85.4c-.9-2.2-18.1-30.3-19.4-32.5zm42.2 763.1c-9.3-1.5-14.4-5.8-15.8-17.8-1-8.9 18.8-22 25.6-29.4 6.8-7.3 13.1-10.3 19.1-12.9 6-2.5 32.3-17.1 38.9-20.2 6.6-3 13.8-13.6 20.9-18.6 7.1-5.1 8.5-29.4 8.5-38.2s1.8-38.4 1.8-44.4c0-6.1-3.7-34.9-3.7-38.7 0-3.8-1.6-21.5-2.6-30.4-1-8.9.8-27.3 1.9-35.8 1-8.6-5.3-37.9-5.3-37.9 1.6-8-13.2-73.7-7.1-67.7 6 6 37.2 72.6 42.3 83.2 5 10.6 7 53.9 8.5 68.5s9 54.2 6.2 66.2c-2.8 12.1 0 38.1-4.8 53.5-4.8 15.4-20.6 43-28.9 49.8-8.3 6.8-20.3 25.6-27.1 28.1-6.8 2.5-17 19.8-25.4 23.6-8.4 4-43.7 20.6-53 19.1zm2.7 441.7c-1.2-2.5 2.5-9.1 8-10.4 5.5-1.3 55.6-10.8 60.9-13.5 5.3-2.7 48.8-6.8 56.3-8.9 7.5-2.2 45.5-9.2 45.5-9.2l6.3 31s-23.2 2.1-27 2.1c-3.8 0-30.8 3-40.6 3-9.7 0-45 4.9-62 5.9s-46.3 2.5-47.4 0zm104.6 106.8c-9.6 1-53.1 3.1-63.2 3.1-10.1 0-17.1-.2-16.4-2.6s9.3-9.4 25.7-11.4c20.2-2.5 64.9-8.4 64.9-8.4l76.1-12.2s2.8 13.8 3.5 16.5c.7 2.7-81 14-90.6 15zm70 84.5c-46.7 14.5-55.9 8.4-59 8.6 0 0 40.5-18.5 51.7-21.6 11.3-3.1 84.1-23.3 92.1-22.9 4 .1-38.1 21.3-84.8 35.9zm95.2-211.3c-1.4-2.9-9.8-45-7.8-46s94.1-24.6 94.7-20c.6 4.6 14.6 59.5 10 59.6-46 1.2-95.5 9.2-96.9 6.4zm12.6 101.2l-1.7-22.6s70.7-8.9 80.7-8.9c9.9 0 6.2 10-34.5 19.8-40.7 9.7-44.5 11.7-44.5 11.7zm114.1 118c2.7-1.2 21.5-7.1 21.5-7.1s1.9 14.2 2.2 20.3c.1 1.5-77.5 30.8-85.4 32.1-7.8 1.3-13.3-15.2-13-19.5 0 .1 72.1-24.7 74.7-25.8zm218.8-1482.3c-1.2 1.8-22.8 7.9-22.8 7.9s-12.4-39.4-12.9-45.6c0 0-6.2-21.7-7.9-27.7-1.8-6-7.9-22.8-7.9-22.8l-5.3-15.9s26.4-5.6 29.7-4.3c3.4 1.3 20.2 19 29.1 56.1 8.9 37.3-.8 50.5-2 52.3zM1670 445l18.5-4.6s37.7-9.2 43.6-22.5c10.6-11.9 19.2-25.1 19.2-25.1 1.3 11.6 2.3 77.3 2.3 77.3s-55.9 35.6-83.6-25.1z"/>
  <path fill="var(--the-work)" d="M988.2 1892.2s54.6-4.3 134.9-30.9c21.2-7 85.9-27.4 130-47.2 61.2-27.5 168.2-55.6 189.6-62.4 8.1-2.6 42 106.5 29.7 144.1-11.2 34.1-214.5 98.3-233.2 81.3-.7-.6-3.5-3.7-6.6-8.5-1.4-2.2-2.8-4.5-4-6.8-1.6-3.2-3.9-6.6-4.4-10.5-.7-5.4-3-10.1-3.8-14.9-.1-2.8-12.3 21.3-17.3 32-7.6 16.2-29.5 31-48.1 37.9-35.7 13.2-111.7 31-129.9 30.4-4.8-.1-8.8-23.5-11.3-31.3-3.2-10-7.4-19.4-6.8-25.6.5-4.5 133.9-16.2 173.9-52 1.6-4.6.9-11.4 1.2-17.4.3-7.3-1.8-13.1-5.3-12.7-30.1 3.2-163.9 54.4-175.4 51.8-1.6-.4-3.2-11.4-8.4-22.9-2.6-5.4-5.6-26.3-4.8-34.4zm65.6 120.6s2.5 1.2 2.3 3.6c-.2 2.4.2 3-1.7 3.3-1.9.3-4.1-1.3-4.1-2.4s1.3-4.6 3.5-4.5zm20.3-30.4s.1 3.5-.1 5.9c-.2 2.4 1.8 8.5-.1 8.8-1.9.3-3.3-9.1-3.3-10.2 0-1.1 1.2-4.6 3.5-4.5zm109-9.7s2.7-.7 4.1 1.2c1.4 2 2.1 2.2.8 3.6-1.3 1.5-4 1.7-4.7.8s-2-4.2-.2-5.6zm-172.1-40.5s2.7-.7 4.1 1.2c1.4 2 2.1 2.2.8 3.6-1.3 1.5-4 1.7-4.7.8s-2.1-4.3-.2-5.6zm337.9-92.8c-40.2 14.1-96.1 33.8-97.6 34.6-2.9.8 9.8 52.2 22.5 51.1 13.3.4 110-41.5 115.5-46.8 2.1-2 4.3-7.6 3.8-14.4-.5-6.8 1.1-15.3-1.1-22-2.6-7.6-1.1-14.7-2.8-16.6 0 0-17 6-39.2 13.7.6-.4.4-1.3.6-3 .2-2.5-2.7-3.8-2.7-3.8-2.6-.2-4 3.5-4 4.7s2.5 2.8 4.7 2.5c.2.1.3.1.3 0zm-32 74.1s2.4 1 2.3 3.1c-.2 2.1.2 2.6-1.7 2.8-1.8.2-3.9-1.1-3.9-2.1 0-.9 1.2-4 3.3-3.8zm107.3-10.2s3.2 1.4 3 4.1c-.2 2.7.2 3.4-2.2 3.7-2.4.3-5.2-1.5-5.2-2.7s1.5-5.3 4.4-5.1zm-180.4-1.6s2.7-.7 4.1 1.2c1.4 2 2.1 2.2.8 3.6-1.3 1.5-4 1.7-4.7.8s-2-4.2-.2-5.6zm-107.3-31.8s2.2 1.1 2.1 3.5c-.1 2.3.1 2.9-1.5 3.1-1.7.3-3.6-1.2-3.6-2.3s1-4.5 3-4.3zm-191.4-191s139.6-9.4 181.3-12.4c37-2.6 152-9 152-9s140.3-10.9 145.8-5.7c9 8.7 7.8 34.5 12.3 70 1 7.7-329.2 106.9-329.2 106.9s-108.3 45.5-120 46.2c-2.6.2-10.2-30-11.5-43.1-2-19.9-8.3-42.2-8-46.5.3-4.3 53.4-1 65.1-1.4 11.7-.4 133.5-25.7 133.5-25.7s-1.6-7.3-2.7-10.8c-2.6-8-4-32-4-32s-57 8.4-87.1 12.1c-26.1 3.2-113.8 16.3-113.8 16.3S948 1720.3 947 1712c-1.7-15.1-1.8-27.7-1.9-33.1zm280.9 161.5s2.5 1.2 2.3 3.6c-.2 2.4.2 3-1.7 3.3-1.9.3-4.1-1.3-4.1-2.4 0-1.1 1.2-4.6 3.5-4.5zm-226.4-16.1s.8-3.9 4.3-4.5c3.5-.6 4.1-1.3 5.2 1.3 1.1 2.5-.4 6.1-2 6.5-1.6.4-6.9-.1-7.5-3.3zm455-12.3s3.2 1.4 3 4.1c-.2 2.7.2 3.4-2.2 3.7-2.4.3-5.2-1.5-5.2-2.7s1.5-5.2 4.4-5.1zm-387.3-11.9s3.5 1.4 3.2 4.1c-.2 2.7.2 3.4-2.4 3.7-2.6.3-5.7-1.4-5.7-2.7.1-1.3 1.8-5.2 4.9-5.1zm-63.4 1.8s1.5.9 1.4 2.6c-.1 1.7.1 2.2-1.1 2.4-1.2.2-2.5-.9-2.5-1.7 0-.9.8-3.4 2.2-3.3zm201.6-22.9s2.4 1.1 2.2 3.5c-.2 2.3.2 2.9-1.7 3.1-1.8.3-3.9-1.2-3.9-2.3.1-1.1 1.3-4.4 3.4-4.3zm-49.7-9.6s1.5.9 1.4 2.6c-.1 1.7.1 2.2-1.1 2.4-1.2.2-2.5-.9-2.5-1.7 0-.8.8-3.4 2.2-3.3zm281.4-9.6s2.7-.7 4.1 1.2c1.4 2 2.1 2.2.8 3.6-1.3 1.5-4 1.7-4.7.8s-2-4.3-.2-5.6zm-221.4-51l1.6 43.3s89.6-13 138.7-34.8c3.1-1.4.5-23-2.9-24.2-11.7-4-99.3 5.8-136 13.2-2.4-.4-5.5-.6-6.8-.7-2.3-.2-3.5 2.2-3.5 2.2-.2 2.1 3.5.6 4.6.6.4 0 2.4.3 4.3.4zm-16.9 20.4s3.5 1.4 3.2 4.1c-.2 2.7.2 3.4-2.4 3.7-2.6.3-5.7-1.4-5.7-2.7.1-1.4 1.8-5.3 4.9-5.1zm168.6-.9s2.4 1.1 2.2 3.5c-.2 2.3.2 2.9-1.7 3.1-1.8.3-3.9-1.2-3.9-2.3.1-1.1 1.3-4.5 3.4-4.3zm-392.8-8.1s2.4 1.1 2.2 3.5c-.2 2.3.2 2.8-1.7 3.1s-3.9-1.2-3.9-2.3c.1-1.1 1.2-4.5 3.4-4.3zm109.5-21.7s2.5 1.2 2.3 3.6c-.2 2.4.2 3-1.7 3.3-1.9.3-4.1-1.3-4.1-2.4 0-1.2 1.2-4.7 3.5-4.5zm326.9-10.8s2.4 1.1 2.2 3.5c-.2 2.3.2 2.8-1.7 3.1s-3.9-1.2-3.9-2.3c0-1.1 1.2-4.4 3.4-4.3zm-436.6-.4s2.2 1.1 2.1 3.5c-.1 2.3.1 2.9-1.5 3.1-1.7.3-3.6-1.2-3.6-2.3s1-4.4 3-4.3zm180.5-17.2s2.4 1.1 2.3 3.2.2 2.7-1.7 2.9c-1.9.3-4-1.1-4-2.2 0-1 1.2-4.1 3.4-3.9zm151.6 0s2.3 1 2.1 3.1c-.2 2 .2 2.5-1.6 2.8-1.7.2-3.7-1.1-3.7-2s1.2-4.1 3.2-3.9zm98.4-10.2s2.4 1 2.2 3.1c-.2 2.1.2 2.6-1.7 2.8-1.8.2-3.9-1.1-3.9-2.1.1-.9 1.3-3.9 3.4-3.8zm-490.3-120.3s48.7 36.1 144.1 5.1c73.6-24 164.2-42.6 198.9-50.2 34.3-7.6 106.9-40.2 119.6-45.4 4.9-2 14.2-7.8 19.7 54.2 1.8 19.8 19 69.8 24.1 123-8.7 8.1-82.5 2.3-82.5 2.3s-2.3-9-5-19.9c-2.8-11.5-5-25.3-6.3-33.8-2.1-13.7-5.7-25.1-6.8-28-1.6-4.1-116.9 27.1-126.2 33.8-5.2 3.7 8.9 59.6 8.9 59.6s-54 6.9-53.8 5.9c-.5-2.4-6.8-19.4-7.5-24.7-2-14.8-6.8-30-6.8-30s-64 19.2-76.6 20.1c-23.2 1.7-81.5 17-121 25.3-11.6 2.4-15.5-30.3-17.5-43.5-2.7-19.1-8.7-42-5.3-53.8zm270.6 87.3s2.4 1.1 2.2 3.5c-.2 2.3.2 2.9-1.7 3.1-1.8.3-3.9-1.2-3.9-2.3.1-1.1 1.2-4.5 3.4-4.3zm-226.2-15.6s.8-3.9 4.3-4.5c3.5-.6 4.1-1.3 5.2 1.3 1.1 2.5-.4 6.1-2 6.5-1.6.4-6.9-.1-7.5-3.3zm44.8-2.1s1.5.9 1.4 2.6c-.1 1.7.1 2.2-1.1 2.4-1.2.2-2.5-.9-2.5-1.7 0-.9.8-3.4 2.2-3.3zm343.4-2.6s2.4 1.1 2.2 3.5c-.2 2.3.2 2.9-1.7 3.1-1.8.3-3.9-1.2-3.9-2.3s1.2-4.5 3.4-4.3zm-300.2-29.6s3.5 1.4 3.2 4.1c-.2 2.7.2 3.4-2.4 3.7-2.6.3-5.7-1.4-5.7-2.7s1.7-5.3 4.9-5.1zm88.4 1.8s1.5.9 1.4 2.6c-.1 1.7.1 2.2-1.1 2.4-1.2.2-2.5-.9-2.5-1.7s.8-3.4 2.2-3.3zm-194.4-2s1.5.9 1.4 2.6c-.1 1.7.1 2.2-1.1 2.4-1.2.2-2.5-.9-2.5-1.7.1-.9.8-3.5 2.2-3.3zm3.2-18.9s2.4 1.1 2.2 3.5c-.2 2.3.2 2.8-1.7 3.1s-3.9-1.2-3.9-2.3c.1-1.1 1.3-4.4 3.4-4.3zm120.3-2.4s1.5.9 1.4 2.6c-.1 1.7.1 2.2-1.1 2.4-1.2.2-2.5-.9-2.5-1.7s.8-3.5 2.2-3.3zm164.7-8.9s3.5 1.4 3.2 4.1c-.2 2.7.2 3.4-2.4 3.7s-5.7-1.4-5.7-2.7 1.8-5.3 4.9-5.1zm161.5-11s2.4 1.1 2.2 3.5c-.2 2.3.2 2.9-1.7 3.1-1.8.3-3.9-1.2-3.9-2.3s1.3-4.4 3.4-4.3zm-21.8-119.7c9.3-18.4-1.8-161-36.1-179-15.2-8-139.2 47.7-204.8 48.5-22.8.3-115.2 40.4-130.4 46-69.1 25.3-137.9 7.2-115.2 124.9 18.8 98 86.9 95.7 170 68.7 83.1-26.8 296.5-69.4 316.5-109.1zm-112.9 109.6s2.4 1.1 2.2 3.5c-.2 2.3-.3 9.7-2.2 10s-.6-7.8-.6-8.9c.1-1.1-1.5-4.8.6-4.6zm-51.7 2.6s1.5.9 1.4 2.6.1 2.2-1.1 2.4c-1.2.2-2.5-.9-2.5-1.7s.8-3.4 2.2-3.3zm-252.5-8s1.5.8 1.4 2.4c-.1 1.6.1 2-1 2.2-1.1.2-2.4-.9-2.4-1.6s.7-3.1 2-3zm-5.6-2.7s1.1-.4 1.5.3c.4.7.7.7 0 1.3-.6.6-1.7.8-1.9.5-.2-.3-.4-1.6.4-2.1zm5.4-2.4s1.3.6 1.2 1.9.1 1.6-.9 1.7c-1 .1-2.1-.7-2.1-1.3 0-.6.6-2.4 1.8-2.3zm364-17.3s1.5.9 1.4 2.6.1 2.2-1.1 2.4c-1.2.2-2.5-.9-2.5-1.7s.8-3.5 2.2-3.3zm-167.9-12.8s2.4 1.1 2.2 3.5c-.2 2.3.2 2.9-1.7 3.1-1.8.3-3.9-1.2-3.9-2.3.1-1.1 1.3-4.5 3.4-4.3zm230.7-17.7s1.5.9 1.4 2.6c-.1 1.7.1 2.2-1.1 2.4-1.2.2-2.5-.9-2.5-1.7.1-.9.8-3.4 2.2-3.3zm-383.1-13.4s3.6 1.7 3.3 5.3c-.2 3.5.2 4.3-2.5 4.7-2.7.4-5.8-1.9-5.8-3.5s1.8-6.7 5-6.5zm261.1-134.2c.6-.1 1.1-.1 1.7-.1 7.2-.5 12.6-1.5 12.6-1.5s4.4-3.9 1-4.9-12.1 1.5-21.6 3.1c-1.1.2-2.2.4-3.3.7-26.3-4.2-75.1 24.5-124.7 42.6-39.4 14.4-133.9 29.2-138.8 50.1 0 0-6.2 44.5 38.8 43.8 48.9-.7 243.6-48.8 249.8-90.5 2.5-15.4 7.2-34.3-15.5-43.3zm52.7 111.9s3.6 1.7 3.3 5.3c-.2 3.5.2 4.3-2.5 4.7-2.7.4-5.8-1.9-5.8-3.5.1-1.7 1.8-6.8 5-6.5zm-408.6 3.3s1.5.9 1.4 2.6c-.1 1.7.1 2.2-1.1 2.4-1.2.2-2.5-.9-2.5-1.7.1-.9.8-3.4 2.2-3.3zm-8.1-8.1s1.5.9 1.4 2.6c-.1 1.7.1 2.2-1.1 2.4-1.2.2-2.5-.9-2.5-1.7s.8-3.4 2.2-3.3zm-9-21.9s2.4 1.1 2.2 3.5c-.2 2.3.2 2.9-1.7 3.1-1.8.3-3.9-1.2-3.9-2.3.1-1.1 1.3-4.5 3.4-4.3zm476.9-1s2.4 1.1 2.2 3.5c-.2 2.3.2 2.8-1.7 3.1-1.8.3-3.9-1.2-3.9-2.3.1-1.2 1.3-4.5 3.4-4.3zm-30.9-10.9s3.6 1.7 3.3 5.3c-.2 3.5.2 4.3-2.5 4.7-2.7.4-5.8-1.9-5.8-3.5s1.8-6.7 5-6.5zm-421-25s.8-3.9 4.3-4.5c3.5-.6 4.1-1.3 5.2 1.3 1.1 2.5-.4 6.1-2 6.5-1.6.4-7-.1-7.5-3.3zm382.3-14.5s2.7 1.2 2.5 3.7c-.2 2.4.2 3-1.9 3.3-2.1.3-4.4-1.3-4.4-2.4.1-1.2 1.4-4.8 3.8-4.6zm-96.7-362.2c10.2.3 53.8 27.5 66.8 30.9 25.4 6.6 29.5 47.8 23.6 89.2-1.1 7.6 16.5 23-3.7 36.6-37 24.9-148.6 119.2-156.8 113.6-3.2-6.2 2.4-22.7 8.9-41.4 4.7-13.4 11.6-25.8 18.7-35.7 9.8-13.6 14.3-23.4 14.3-23.4 27.9-4.4 71.7-13.5 94.5-29.2 20.6-14.1 12.3-38.8 10.4-56.1-2.2-20.3-33.9-14.1-64.1-9.1-54.7 9.1-104 170-132.4 197.6-34 33-203.5 76.6-216 45.2-9.7-24.5-20.1-45.4-27.8-67.2-5.7-16.3-10.9-31.5-13.5-45.6-6.6-35.6-9.4-60.8-5.8-68.5 8-16.8 32.2-6.4 73.7-28.2l.5-.3c-.7.6 20.6 78.1 25.9 99.6 4.9 19.8 12.3 39.4 25.6 37.8 22.8-2.7 89.5-.6 122.4-34.4 20.9-21.4 36.3-66.9 39.4-84.1 3.5-19.3 2.1-53.3 2.7-78.6.3-16.7 2.2-30.2 4.4-30.9 17.6-6.4 41.7-17.4 88-18h.1l.2.2zm-295 313.4s2.7 1.2 2.5 3.7c-.2 2.4.2 3-1.9 3.3-2.1.3-4.4-1.3-4.4-2.4.1-1.2 1.4-4.7 3.8-4.6zm250-12.1s2.7 1.2 2.5 3.7c-.2 2.4.2 3-1.9 3.3-2.1.3-4.4-1.3-4.4-2.4 0-1.2 1.3-4.7 3.8-4.6zm-251.8-11.2s3.6 1.7 3.3 5.3c-.2 3.5.2 4.3-2.5 4.7-2.7.4-5.8-1.9-5.8-3.5 0-1.7 1.8-6.7 5-6.5zm170.8-29.3s2.7 1.2 2.5 3.7.2 3-1.9 3.3c-2.1.3-4.4-1.3-4.4-2.4s1.3-4.8 3.8-4.6zm260.4-11.2s3.6 1.7 3.3 5.3c-.2 3.5.2 4.3-2.5 4.7-2.7.4-5.8-1.9-5.8-3.5s1.8-6.7 5-6.5zm-262.3-12.2s3.6 1.7 3.3 5.3c-.2 3.5.2 4.3-2.5 4.7-2.7.4-5.8-1.9-5.8-3.5s1.8-6.7 5-6.5zm-208.3-2.6s.8-3.9 4.3-4.5c3.5-.6 4.1-1.3 5.2 1.3 1.1 2.5-.4 6.1-2 6.5s-7-.2-7.5-3.3zm319.7-56.2s3.6 1.7 3.3 5.3c-.2 3.5.2 4.3-2.5 4.7-2.7.4-5.8-1.9-5.8-3.5s1.8-6.7 5-6.5zm-317-40.6c-3.6.7-12 4.5-17.9 11.4-6.2 7.3-4.9 15.1-4.9 15.1s9-8.8 15.2-14.2c5.1-4.5 11.2-5.2 11.2-5.2s-.1-7.8-3.6-7.1zm50.5-369.6c3.3-.9 7.9-3.7 7.5-8.2-3.4-16.6-13-51.2-20.5-71.9-8-22.1-65.7-161.8-65.7-168.2 0-4.3 17.6-18.6 33.4-24.2 14.1-5.1 37.9-29.6 40.6-30.9 1.1 3 34.2 59 40.3 67.4 1.3 2 56.7 86.1 72.7 103.7 17.9 19.9 29.1 52.2 48.2 58.3 3.5 1.1 14.7-4 13.3-7.4-38.1-89-164.3-231.8-194.7-315.2-3.1-8.4-18.9-32.7-18.9-35.1.1-4.3 42-72.4 53.3-88.1 3.1-3.2 79.8-21.1 134.5-30.6-4.6 87.6.7 239.3 75.2 345.9 54.2 77.6 110.3 90.8 152.8 90.1-6.8 1.6-16 4.4-16.3 6.2 0 0 0 2.6 2.2 1 2-1.5 18.1-5.3 21-7.4 32.8-1.7 56.3-15 64.2 3.5 1.1 1.9-20.8 11.1-30.4 35.7-5.9 27.1-4 87.9-5.9 122.9 7.5 66.4-1.9 92.1 6.6 159.9-8.7-4.5-60.4 10.6-109 12.9-42.5 2-91.8 12.3-115.9 20.8 0 0-5.3-40.9-10.2-68.3-4.8-26.5-13.4-51.2-15-55-1.4-3.3-14.6-15.5-20.7-34.9-7.6-24.5-28.5-45.6-28.5-45.6s-4.5 28.9 0 55.2c3.2 18.7.6 36.6 1.4 42.8 1.1 8.2 1.2 26.3 4.8 48.1 3 21.8.7 37.9 3.7 65.6-1.7 1-56.1 17.9-109 53.5-41.7 28.1-92 47.9-123.9 55.5 0 0-5.7-44-16.8-81.2-10.3-34.7-10.2-71.1-13.1-82-5.5-20.6-15.5-40.4-19.7-58.1-7.9-33.9-26.8-57.7-33.3-68.2-3.8-6.2-18-26-49.8-27.5-7-.3-20.6-139.7-22.8-176.4 6.9-9.9 21.5-16.7 64.5-44.7 34.9-22.7 70.8-46.5 76-42.1 4.3 3.6 62.6 113.8 62.6 113.8 16 40.2 39.6 88.6 52.6 104 .3 9.9 10.8 53.9 12.5 53.4 1.8-.8-1.9-34.7-3.8-49zm-94.7 328s-5.5 1.8-3.2 5.5 5.6 3.7 7.1 1.2c1.6-2.5.3-5.6-3.9-6.7zm312.4-38.5s2.7 1.2 2.5 3.7c-.2 2.4.2 3-1.9 3.3-2.1.3-4.4-1.3-4.4-2.4.1-1.2 1.4-4.7 3.8-4.6zm69.1-51.7s3.6 1.7 3.3 5.3c-.2 3.5.2 4.3-2.5 4.7-2.7.4-5.8-1.9-5.8-3.5s1.8-6.7 5-6.5zm-404.4-10.5s-2.6 2.3-.4 3.7c2.1 1.3 3.8.5 4.1-1.2s-1.2-3.1-3.7-2.5zm2.6-19s-5.5 1.8-3.2 5.5c2.4 3.8 5.6 3.7 7.1 1.2 1.7-2.4.4-5.6-3.9-6.7zm324-4s-5.5 1.8-3.2 5.5c2.4 3.8 5.6 3.7 7.1 1.2s.4-5.6-3.9-6.7zm-132.6-19s-3.8.4-2.9 3c1 2.6 3 3 4.4 1.6 1.5-1.3 1.1-3.4-1.5-4.6zm-732-446.2c.2 2.9 25.1 151.5 26 192-2 4.2-41.1 19.3-41.5 22.4-1 .1-5.4.4-6.1.6-.6.1-25.5 2.5-25 5 .2 1.2 28.8.6 31.5.3v.2h-.8s-21.8.6-21.6 1c.1.2 3.9 4.8 5.2 4.5 4.5-1.1 15.2-1.5 17.5-1.6 2.8 35.3 13.8 145.7 12.5 144.8-4.7 1.2-25.9 21.2-53.7 35-28.8 14.2-61.3 51-69.9 59-4.9 2.5-17.4-140.9-13.9-178.3-4.8-1.1-72.3 38.6-108 102.1-4.3 10 6.3-125.7 14.9-150.8 0 0 31.8-79.9 92.5-136.3 41.6-38.7 85.9-83.8 134.4-105.5l5.6-2 .4 7.6zm1013.8 442.9s4.6-.1 3.7-2.8c-.9-2.8-3.4-3.3-5.1-2.1-1.8 1.3-1.6 3.5 1.4 4.9zm7.1-13.2s4.6-.1 3.7-2.8c-.9-2.8-3.4-3.3-5.1-2.1-1.8 1.3-1.6 3.5 1.4 4.9zm-99.9-15.2s4.6-.1 3.7-2.8c-.9-2.8-3.4-3.3-5.1-2.1-1.8 1.2-1.6 3.4 1.4 4.9zm-172-14.1s-5.5.6-4.1 4.8 4.3 4.8 6.3 2.7c2-2.2 1.5-5.5-2.2-7.5zm-838.3 2.4s-2.3 2.1-.3 3.4c2 1.3 3.5.6 3.7-1 .2-1.6-1.1-2.8-3.4-2.4zm1008.9 2s4.6-.1 3.7-2.8-3.4-3.3-5.1-2.1c-1.8 1.2-1.5 3.4 1.4 4.9zM785 902.2s2.4 2.5 3.7.3c1.2-2.2.3-3.9-1.4-4.1-1.7-.2-2.9 1.3-2.3 3.8zm107.6-16.6s-3.8.4-2.8 3 3 3 4.4 1.6c1.3-1.3 1-3.4-1.6-4.6zM221 877.1s-1.8 1.7-.3 2.6c1.5.9 2.7.3 2.9-.9s-.8-2.1-2.6-1.7zm664.2-8.9s-3.8.4-2.9 3 3 3 4.4 1.6 1-3.4-1.5-4.6zm232.2.3s-2.3 2.6-.1 3.7c2.2 1.1 3.9.1 4-1.6.1-1.8-1.4-2.9-3.9-2.1zm-934.6-6.6s-1.8 1.7-.3 2.6c1.5.9 2.7.3 2.9-.9.2-1.2-.7-2.1-2.6-1.7zm250.4-354.6c1.3 17.8 2.5 31.1 3.9 32.3 1.2 1.1 17.5-5.9 36-12.8 4.3-1.6-22-135.6-22-135.6-.9-3.7 16.8-10.4 35.2-17 41.5-14.8 119.3-48.2 124.4-46.2 1.3.7 15.3 173.9 19.3 189.9 4 16.1 29 276.3 25.8 281.4 3 3-36.2-6.4-70.1-1.5-38.1 5.6-77.8 8.4-77.8 8.4l-14.6-183.7c1.9-2.7-2.6-49.7-3.9-49.7-1.7 0 1 40.9.9 48.3-.1 0-.2 0-.3.1-8.5 1.2-32 5-36.5 12.8-.5.9 19.2 162.5 16.8 173.5-1.1 5.3-53.1 17.4-88 20.5-34.4 3.1-74.6 27.6-76.4 26.6-3.5-2-18.7-190.7-21.6-210.8-11.3-78.1-16.9-115.1-22.2-155.9 0-4.4 36.1-28.9 77.5-44.8 37-18.6 78.6-42.8 85-42.8 2.2-.4 5.5 62 8.2 101.6-1-.8-2.2-1.5-3.1-1.7 0 0-3 1.8-3 5.2 0 3.5.3 2.8 3.5 2.8 1.6.2 2.5-.3 3-.9zM178.6 841.8s-1.8 1.7-.3 2.6c1.5.9 2.7.3 2.9-.9.2-1.2-.8-2.1-2.6-1.7zm617.5-5.7s-5.5 1.8-3.2 5.5 5.6 3.7 7.1 1.2c1.7-2.5.4-5.6-3.9-6.7zm-639.5-9.3s-1.8 1.7-.3 2.6c1.5.9 2.7.3 2.9-.9.2-1.2-.8-2.1-2.6-1.7zm173.3-13.6s-1.9-.9-2.7 1.4c-.7 2.3-.5 3.2 1.2 3.8 1.8.6 3-1.1 3.6-2.2.6-1.1-1.2-2.4-2.1-3zm625.2 1.1s2.4 2.5 3.7.3c1.2-2.2.3-3.9-1.4-4.1-1.7-.1-2.9 1.3-2.3 3.8zm-624.2-10.2s-1.9-.9-2.7 1.4c-.7 2.3-.5 3.2 1.2 3.8 1.8.6 3-1.1 3.6-2.2.6-1.1-1.2-2.4-2.1-3zm856.4-1.4s4.6-.1 3.7-2.8-3.4-3.3-5.1-2.1c-1.8 1.3-1.6 3.4 1.4 4.9zm-290.9-1.9s2.4 2.5 3.7.3c1.2-2.2.3-3.9-1.4-4.1-1.7-.2-2.9 1.3-2.3 3.8zM74.5 790.6s-2.3 2.1-.3 3.4c2 1.3 3.5.6 3.7-1s-1.1-2.8-3.4-2.4zm622.4-1.2s-2.6 2.3-.4 3.7c2.1 1.3 3.8.5 4.1-1.2.3-1.7-1.1-3-3.7-2.5zm497.5 3.1s4.6-.1 3.7-2.8c-.9-2.8-3.4-3.3-5.1-2.1-1.8 1.3-1.6 3.5 1.4 4.9zm-7.1 0s4.6-.1 3.7-2.8-3.4-3.3-5.1-2.1c-1.8 1.3-1.6 3.5 1.4 4.9zm-502.6-8.4s-2.6 2.3-.4 3.7c2.1 1.3 3.8.5 4.1-1.2s-1.1-3-3.7-2.5zm141.8-8.9s-5.5 1.8-3.2 5.5c2.4 3.8 5.6 3.7 7.1 1.2 1.7-2.4.4-5.5-3.9-6.7zM634.7 778s-1.9-.9-2.7 1.4c-.7 2.3-.5 3.2 1.2 3.8s3-1.1 3.6-2.2c.6-1.1-1.2-2.4-2.1-3zm-395.3-16.5s-2.7.3-2 2.1 2.2 2.1 3.1 1.2c1-1 .7-2.4-1.1-3.3zm799.7-10.6s-5.5 1.8-3.2 5.5c2.4 3.8 5.6 3.7 7.1 1.2 1.7-2.5.4-5.6-3.9-6.7zM52.6 749s-4.1.9-2.6 3.8c1.5 2.8 3.8 3 5 1.3 1.3-1.8.6-4.1-2.4-5.1zm102.1-1.3s-5.3 1.2-3.4 4.5 4.9 3.5 6.5 1.5.8-4.8-3.1-6zm234.3 1.7s-2.3 2.1-.3 3.4c2 1.3 3.5.6 3.7-1 .2-1.6-1.1-2.9-3.4-2.4zm-154.9-.3s-2.7.3-2 2.1c.7 1.9 2.2 2.1 3.1 1.2 1-1 .7-2.4-1.1-3.3zM929.9 729s-3.8.4-2.9 3c1 2.6 3 3 4.4 1.6 1.4-1.3 1-3.4-1.5-4.6zm315.3.9s4.6-.1 3.7-2.8-3.4-3.3-5.1-2.1c-1.8 1.3-1.6 3.4 1.4 4.9zM443.7 725s-1.8 1.7-.3 2.6c1.5.9 2.7.3 2.9-.9.2-1.2-.8-2.1-2.6-1.7zm-249.3-1.3s-2.4.4-1.7 2c.8 1.6 2.1 1.8 2.9.9.8-.9.5-2.2-1.2-2.9zm674.7-15s-3.8.4-2.9 3 3 3 4.4 1.6c1.5-1.3 1.1-3.4-1.5-4.6zm-463.5 1.1s-1.8 1.7-.3 2.6c1.5.9 2.7.3 2.9-.9.2-1.2-.8-2.1-2.6-1.7zm832.3 1.6s4.6-.1 3.7-2.8-3.4-3.3-5.1-2.1c-1.8 1.3-1.5 3.4 1.4 4.9zM542.6 702s-1.9-.9-2.7 1.4c-.7 2.3-.5 3.2 1.2 3.8s3-1.1 3.6-2.2-1.3-2.5-2.1-3zm1343.9-359.8l23.1.7v.1h1.1l6.2.2-.2-.3c26.7-.2 32.8 2.4 50.5 1.1 42-3.2 60.8 9.9 60.8 9.9s10.1 56.1 17.8 83.2c12.6 44.1 24.5 111.4 26.4 157.9 1.5 36.1-25.8 61.4-64.7 71.3-4.3 1-30.4-66.7-48.9-117.6-9.1-25-20.1-63.1-29.5-81.1-19-36.4-45.7-64.2-61.2-52.9 4.2 28.9 27.1 85 39.2 137.3 18.5 64.1 33.7 132.1 33.7 132.1s-43.1 14.7-66.7 17.2c-20.1 2.1-33 13.9-70 10.6-10.6-2.6-62.1-55.5-63.4-58.1 0-6.6 27.1-35.9 25.8-72-2.9-77.4-5.8-185.6-9.2-217.3-7.1-64.9-31.5-146.3-36-173.8-1.9-11.7-10.7-36.7-25.9-49.7-11.2-9.6-16.2-12.2-25.9-16.3-7.9-3.4-16.7-8.5-14.1-11.5 32.7-38.8 27.8-40.9 46.8-55.5 13-12 75.6-31.5 100.7-32.4 5-.6 32.1 242.5 35.4 242.8 11-5.4 59.7-34.7 62.4-90.5 2.6-53.2-1.7-131.8 2-158.6.7-4.9 29.6 2 32.7 8.3 23.6 47.8 61.2 236.2 59.9 242.9-3.2 16.4-7.7 24.3-30.5 35-25.7 12-47.6 20.1-53.7 30l-48.4 3.4-7.2 1.7 10.8 2.2 20.2-.3zM929.9 695.5s-3.8.4-2.9 3 3 3 4.4 1.6c1.4-1.3 1-3.3-1.5-4.6zm-554.4-4s-1.9-.9-2.7 1.4c-.7 2.3-.5 3.2 1.2 3.8 1.8.6 3-1.1 3.6-2.2.6-1.1-1.3-2.4-2.1-3zm552.5-5.3s-3.8.4-2.9 3 3 3 4.4 1.6 1.1-3.3-1.5-4.6zm105.8 3.7s0 2.6 2.2 1 22-6.2 21.5-8.1c-.3-1.3-23.2 4.3-23.7 7.1zM163.7 688s-1.8 1.7-.3 2.6c1.5.9 2.7.3 2.9-.9.2-1.2-.8-2.1-2.6-1.7zm941.3.4s6.6-.2 5.3-4.6c-1.3-4.4-4.7-5.3-7.3-3.2-2.5 2-2.2 5.5 2 7.8zm-103.4-6.7s-2.3 2.6-.1 3.7 3.9.1 4-1.6c.1-1.7-1.4-2.9-3.9-2.1zm-464.1-1.3s-1.9-.9-2.7 1.4c-.7 2.3-.5 3.2 1.2 3.8 1.8.6 3-1.1 3.6-2.2.6-1.1-1.3-2.5-2.1-3zM109.3 678s-4.1.9-2.6 3.8c1.5 2.8 3.8 3 5 1.3 1.3-1.8.6-4.1-2.4-5.1zm150.9 0s-2.3 2.1-.3 3.4c2 1.3 3.5.6 3.7-1 .2-1.6-1.1-2.8-3.4-2.4zm728.8-.4s-2.3 2.6-.1 3.7 3.9.1 4-1.6c.1-1.8-1.5-2.9-3.9-2.1zm272 3s2.7 2.2 3.7-.1c1-2.3 0-3.9-1.8-3.9-1.7 0-2.8 1.6-1.9 4zm536.1-6.7s2.7 1.2 2.5 3.7.2 3-1.9 3.3c-2.1.3-4.4-1.3-4.4-2.4 0-1.2 1.3-4.8 3.8-4.6zm-595.9-.9s2.7 2.2 3.7 0c1-2.3 0-3.9-1.8-3.9-1.7-.1-2.7 1.5-1.9 3.9zm-465.6-17.9s-6.7 2.2-3.8 7c3 4.8 6.9 4.8 8.7 1.6 1.9-3.2.3-7.2-4.9-8.6zm573.2 5.6s4.6-.1 3.7-2.8-3.4-3.3-5.1-2.1c-1.8 1.3-1.6 3.4 1.4 4.9zm486.4-10.1s3.6 1.7 3.3 5.3c-.2 3.5.2 4.3-2.5 4.7-2.7.4-5.8-1.9-5.8-3.5s1.8-6.8 5-6.5zm-1125-6.8s-2.5-2.6-3.8-.2c-1.3 2.4-8.8 13.4-7 12.9 2-.6 11.6-10 10.8-12.7zM405.8 651s-1.9-.9-2.7 1.4-.5 3.2 1.2 3.8c1.8.6 3-1.1 3.6-2.2.7-1.1-1.2-2.5-2.1-3zm-252.9 2s-1.8 1.7-.3 2.6c1.5.9 2.7.3 2.9-.9.2-1.2-.7-2.1-2.6-1.7zm976.8-10.2s4.6-.1 3.7-2.8-3.4-3.3-5.1-2.1c-1.8 1.3-1.6 3.5 1.4 4.9zm421.5-196.9c-1.2 9.9 3.9 48.4 6.3 76.1 2.9 34.9 2.5 92.2-1 91.2-13.8 0-39.1-1.1-78.7 6.4-26.9 5.1-63.9 11.5-88.5 21.5-16 6.5-6.9-32.6 2-45.6 26.4-56.8 35.4-115 27.7-179-13.6-114.2-52.8-189.6-52.8-189.6 12.1-1 56.7-7.7 80.2-11.5 116.5-18.8 123.4-61.4 180.2-79.4 27.4-8.7 66.5 4.4 77.1 28.9 11.7 26.9 44.5 167.6 44.9 200.8-2.6 64.1-90.7 69.2-88.2 75.4 31.6 78.8 92.1 40.8 92.1 40.8 1.7 27.7 11.5 77 2.6 113.6-7 28.9-20.8 52.6-29.1 49.5-21-15.4-46.1-17.4-64.2-23.1-25.3-8-47-4.4-48.3-13.8-3-21-15.8-63.7-21.1-86.9-4.5-19.6-10.2-66.6-21.2-79.4-7-1.2-11.2-.9-14-.1-.2-1.5-3-18.4-3.2-19.7-.9-5.9-4-6.3-4-6.3l1.2 30.2zM576.5 623.3s-3.7-.4-3.7 3c0 3.5.8 4.6 4 4.6s4.5-2.8 4.8-4.5c.3-1.6-3.4-2.7-5.1-3.1zm768.1-394.5s53 87 61 177.8c7.4 84.9 4.8 204.9-67.9 218.7-54.8 14.5-93.4 11.9-146-29.1-104.7-81.4-135-286.6-113.6-387.1 10.6-9.3 91.2-19.2 91.2-19.2 29.6-2.4 49 18.2 78.2 27.3 35.2 10.9 95.7 7.8 97.5 7.7l-.4 3.9zM490.3 621.4c.1-.1.2-.1.3 0h-.3zm1538.1-15s3.6 1.7 3.3 5.3c-.2 3.5.2 4.3-2.5 4.7-2.7.4-5.8-1.9-5.8-3.5s1.8-6.7 5-6.5zm-617.2 10s-4.6-.1-4.7-1.9c-.1-1.9 1.8-5.2 3.3-4.6 1.4.6 4.7 5.4 1.4 6.5zm207.9-14.3s6.5-.2 6.7 2.4c.3 2.6-2.2 7.5-4.3 6.7-2.1-.8-7.1-7.2-2.4-9.1zm98.5-2.7s3 3.4 1.7 4.8c-1.3 1.3-5.1 2.2-5.6.6s.8-7.1 3.9-5.4zm-1220.6.9s-1.9-.9-2.7 1.4-.5 3.2 1.2 3.8c1.8.6 3-1.1 3.6-2.2.6-1.1-1.3-2.5-2.1-3zm-68.1-1.4s-2.3 2.1-.3 3.4c2 1.3 3.5.6 3.7-1s-1.1-2.8-3.4-2.4zm909.7-5.7s-3.4.6-2.4 2.8c1.1 2.3 3 2.5 4.1 1.2 1.1-1.3.7-3.1-1.7-4zm-49.7-2.2s-4.9.8-3.4 4c1.5 3.2 4.3 3.6 5.9 1.7 1.7-1.7 1-4.3-2.5-5.7zM876.6 247.1c8.1-1.7 12.9-2.5 13.3-2.2 1.5 1.8 2.9 6.5-10.8 31.8-8.6 10.9-10.9 20.7-14.5 24.7-4.6 5.2-135.3 40.6-146.4 45.6-1.7.6.7 23.9.7 23.9s34-15.5 62.8-27.1c29.4-11.8 67-26.2 71.6-26.6 1.6 2.7-.6 11.2 1.3 17.2 3 9.1 6.3 19.2 9.7 28.6.7 3.6-126.2 64.7-126.2 64.7l-6.6 28.4s129.6-80.4 135.4-77.9c2.2.9 10.5 27.9 16.3 35.9 5 6.9 13.4 23.5 14.5 26-4.6 4.4-73 43.8-135 75.2-51.7 26.2-110.1 91.3-114.8 88.8-3-1.6-7.1-68.9-15.8-130.3-7.5-53-14-141.6-13-146.4 1.1-6.3 33.7-17.4 44.3-21.8 18.3-7.6 40.8-15.8 63.6-21.9 55.8-14.8 118.7-30 147.3-36.1 1 2.7.1 22.9 2 22.9 1.2 0 1.9-18 .3-23.4zM164 591.9s-2.4.4-1.7 2c.8 1.6 2.1 1.8 2.9.9.9-.9.5-2.2-1.2-2.9zm139.1-8.1s-3.7-.4-3.7 3c0 3.5.8 4.6 4 4.6s4.5-2.8 4.8-4.5c.4-1.7-3.4-2.7-5.1-3.1zm903.8-1.8s-3.4.6-2.4 2.8c1.1 2.3 3 2.5 4.1 1.2s.7-3.1-1.7-4zm-10.1-9.1s-3.4.6-2.4 2.8c1.1 2.3 3 2.5 4.1 1.2 1.2-1.3.7-3.1-1.7-4zm265.9.7s.3 3.6-.8 3.8c-1.1.2-3.4-1-3.1-2.2.2-1.2 2.9-4.2 3.9-1.6zm-509.6-5.2s-5.5 1.8-3.2 5.5c2.4 3.8 5.6 3.7 7.1 1.2 1.6-2.5.3-5.6-3.9-6.7zM665 571.7s-2.6 2.3-.4 3.7c2.1 1.3 3.8.5 4.1-1.2.2-1.8-1.2-3-3.7-2.5zm1007.7.2s1.6-.3 1.6.8-.5 2.3-1.2 2.3-2.1-.6-1.9-1.4c.2-.8.4-1.7 1.5-1.7zM667.1 560.4s-5.5 1.8-3.2 5.5c2.4 3.8 5.6 3.7 7.1 1.2 1.6-2.5.4-5.6-3.9-6.7zm118.9-3.9s-3.4.6-2.4 2.8c1.1 2.3 3 2.5 4.1 1.2 1.2-1.2.7-3-1.7-4zm-540.8.1s-2.7.3-2 2.1c.7 1.9 2.2 2.1 3.1 1.2 1-1 .8-2.5-1.1-3.3zm701.8-8.5s-5.5 1.8-3.2 5.5c2.4 3.8 5.6 3.7 7.1 1.2 1.6-2.5.4-5.6-3.9-6.7zm909.2-2.5s3.6 1.7 3.3 5.3c-.2 3.5.2 4.3-2.5 4.7-2.7.4-5.8-1.9-5.8-3.5s1.8-6.7 5-6.5zm-1617.3 4.3s-2.7.3-2 2.1 2.2 2.1 3.1 1.2c.9-.9.7-2.4-1.1-3.3zm774.6-8.5s-3.4.6-2.4 2.8c1.1 2.3 3 2.5 4.1 1.2 1.2-1.2.8-3-1.7-4zm10.2-9.1s-3.4.6-2.4 2.8c1.1 2.3 3 2.5 4.1 1.2 1.2-1.2.7-3-1.7-4zm61.1 4s6.6-.2 5.3-4.6c-1.3-4.4-4.7-5.3-7.3-3.2-2.5 2-2.2 5.5 2 7.8zm284.1-5s-3.4.6-2.4 2.8c1.1 2.3 3 2.5 4.1 1.2s.7-3.1-1.7-4zm-91.1-9.1s-3.4.6-2.4 2.8c1.1 2.3 3 2.5 4.1 1.2 1.2-1.3.7-3.1-1.7-4zm692.6-13.6s3.6 1.7 3.3 5.3c-.2 3.5.2 4.3-2.5 4.7-2.7.4-5.8-1.9-5.8-3.5s1.8-6.7 5-6.5zm-1211-1.6s-3.8.4-2.9 3c1 2.6 3 3 4.4 1.6 1.4-1.3 1-3.4-1.5-4.6zm-85.7-10.5s2.4 2.5 3.7.3c1.2-2.2.3-3.9-1.4-4.1-1.7-.1-3 1.3-2.3 3.8zM1637 486s6.5-.2 6.7 2.4c.3 2.6-2.2 7.5-4.3 6.7-2.1-.7-7.1-7.2-2.4-9.1zm-126.1 3.8s2.8-.5 2.8 1.3-.9 3.6-2.2 3.6c-1.3 0-3.7-.9-3.3-2.1.3-1.3.7-2.7 2.7-2.8zm-242.2-160.1c-11.9-18.9-63.4-20.5-66.8 1.5-4 26 27.1 130.1 42.7 154.7 9.1 14.4 42.4 3.8 50.6-7.1 8.2-11-10.9-124.5-26.5-149.1zM781.2 480s-3.8.4-2.9 3c1 2.6 3 3 4.4 1.6 1.5-1.3 1.1-3.4-1.5-4.6zm-432.1-1.4s-1.9-.9-2.7 1.4c-.7 2.3-.5 3.2 1.2 3.8 1.8.6 3-1.1 3.6-2.2.7-1.1-1.2-2.5-2.1-3zm1508.7-7.5s2.7 1.2 2.5 3.7c-.2 2.4.2 3-1.9 3.3-2.1.3-4.4-1.3-4.4-2.4 0-1.3 1.4-4.8 3.8-4.6zm-1084-8.5s-3.8.4-2.9 3 3 3 4.4 1.6 1.1-3.4-1.5-4.6zm696.6-3.2s2.8-.5 2.8 1.3-.9 3.6-2.2 3.6-3.7-.9-3.3-2.1c.3-1.3.7-2.8 2.7-2.8zm469.6-11.7s3.6 1.7 3.3 5.3c-.2 3.5.2 4.3-2.5 4.7-2.7.4-5.8-1.9-5.8-3.5s1.8-6.7 5-6.5zm-824.2 3.5s-3.4.6-2.4 2.8c1.1 2.3 3 2.5 4.1 1.2 1.2-1.3.7-3.1-1.7-4zm410.7-3.8s-3.6-.1-3.7-1.2c-.1-1.2 1.4-3.2 2.5-2.8 1.1.4 3.8 3.3 1.2 4zm-651.2-9.2s-5.5.6-4.1 4.8c1.4 4.2 4.3 4.8 6.3 2.6 2-2.1 1.4-5.4-2.2-7.4zm-167.7-10.7s-5.5 1.8-3.2 5.5 5.6 3.7 7.1 1.2c1.6-2.4.4-5.6-3.9-6.7zm479.1 3.4s-3.4.6-2.4 2.8c1.1 2.3 3 2.5 4.1 1.2 1.2-1.2.7-3.1-1.7-4zm245.8-18.1s-4.6-.1-4.7-1.9c-.1-1.9 1.8-5.2 3.3-4.6 1.4.6 4.7 5.4 1.4 6.5zm143.5-1.7s-2.8 0-2.9-1.2c-.1-1.1 1.1-3.1 2-2.7 1 .4 3 3.2.9 3.9zm-732.3-2.4s2.4 2.5 3.7.3c1.2-2.2.3-3.9-1.4-4.1-1.7-.2-2.9 1.3-2.3 3.8zM580 398.4s-1.9-.9-2.7 1.4c-.7 2.3-.5 3.2 1.2 3.8 1.8.6 3-1.1 3.6-2.2.6-1-1.3-2.4-2.1-3zm152.6-7.4s-2.5-2.6-3.8-.2c-1.3 2.4-8.8 13.4-7 12.9 2-.6 11.6-10 10.8-12.7zm52.4 4.1s2.4 2.5 3.7.3c1.2-2.2.3-3.9-1.4-4.1-1.7-.1-2.9 1.3-2.3 3.8zm594-4.8s-3.4.6-2.4 2.8c1.1 2.3 3 2.5 4.1 1.2s.8-3-1.7-4zm-20.2 0s-3.4.6-2.4 2.8c1.1 2.3 3 2.5 4.1 1.2s.7-3-1.7-4zm-335.1 0s-3.4.6-2.4 2.8c1.1 2.3 3 2.5 4.1 1.2 1.2-1.2.7-3-1.7-4zm802.2-7s3.6 1.7 3.3 5.3c-.2 3.5.2 4.3-2.5 4.7-2.7.4-5.8-1.9-5.8-3.5s1.8-6.7 5-6.5zm-111.6.1s6.5-.2 6.7 2.4c.3 2.6-2.2 7.5-4.3 6.7-2.1-.8-7.1-7.2-2.4-9.1zm-1138.4 3.9s-1.9-.9-2.7 1.4c-.7 2.3-.5 3.2 1.2 3.8 1.8.6 3-1.1 3.6-2.2.7-1.1-1.2-2.5-2.1-3zm1066.4 2s1.6-.3 1.6.8-.5 2.3-1.2 2.3-2.1-.6-1.9-1.4c.2-.7.4-1.6 1.5-1.7zm-1093.7-10s-.1-2.6-2.3-.9c-2.2 1.7-21.9 6.8-21.3 8.6.5 1.4 23.2-4.8 23.6-7.7zm993.2 6.6c-2.5-6.2-11.4-34.6-12.6-45.8-1.2-11.2-20.1-63.6-21.7-73.5 4.8-4.8 18.9-5.4 31.6-7.5 13.8-2.3 27.1 31.6 34.5 55.5 6.8 22 8.1 62.8-4.7 66.4-14.7 4.1-21.1 7.3-27.1 4.9zm-213.4-5.7s-3.4.6-2.4 2.8c1.1 2.3 3 2.5 4.1 1.2 1.2-1.2.7-3.1-1.7-4zm619-7s3.6 1.7 3.3 5.3c-.2 3.5.2 4.3-2.5 4.7-2.7.4-5.8-1.9-5.8-3.5s1.8-6.8 5-6.5zm-1272.5 3.5s-2.6 2.3-.4 3.7c2.1 1.3 3.8.5 4.1-1.2s-1.2-3-3.7-2.5zm846.7 2.4s-3.6-.1-3.7-1.2c-.1-1.2 1.4-3.2 2.5-2.8 1.2.3 3.8 3.3 1.2 4zM1136 370s-3.4.6-2.4 2.8c1.1 2.3 3 2.5 4.1 1.2s.8-3-1.7-4zm-163-10.1s-3.4.6-2.4 2.8c1.1 2.3 3 2.5 4.1 1.2 1.2-1.2.7-3.1-1.7-4zm496.6-1.9s2.1-.4 2.1 1.1-.7 3-1.6 3c-.9 0-2.8-.7-2.5-1.8.3-1.1.6-2.3 2-2.3zm-567.4-8.2s-3.4.6-2.4 2.8c1.1 2.3 3 2.5 4.1 1.2 1.2-1.3.7-3.1-1.7-4zm385.7 0s-3.4.6-2.4 2.8c1.1 2.3 3 2.5 4.1 1.2s.7-3.1-1.7-4zm-97.2-10.2s-3.4.6-2.4 2.8c1.1 2.3 3 2.5 4.1 1.2 1.2-1.2.7-3-1.7-4zm-486.3-.1s-3.4.6-2.4 2.8c1.1 2.3 3 2.5 4.1 1.2 1.2-1.2.7-3.1-1.7-4zm-44.6-12s-2.6 2.3-.4 3.7c2.1 1.3 3.8.5 4.1-1.2s-1.2-3-3.7-2.5zm789.4-8.9s-4.6-.1-4.7-1.9c-.1-1.9 1.8-5.2 3.3-4.6 1.4.6 4.7 5.3 1.4 6.5zM1024.6 301s-2.5-2.6-3.8-.2c-1.3 2.4-8.8 13.4-7 12.9 2-.6 11.5-10 10.8-12.7zm-266.9 2.1s-3.8.4-2.9 3 3 3 4.4 1.6 1.1-3.4-1.5-4.6zm60.8-13.2s-3.8.4-2.9 3 3 3 4.4 1.6 1.1-3.4-1.5-4.6zm948.4-3.4s1.7.9 1.6 2.7c-.1 1.8.1 2.2-1.2 2.4-1.3.2-2.8-1-2.8-1.8s.9-3.4 2.4-3.3zm-957.4-5.9s-3.8.4-2.9 3 3 3 4.4 1.6 1.1-3.4-1.5-4.6zM1919.9 267s3.6 1.7 3.3 5.3c-.2 3.5.2 4.3-2.5 4.7-2.7.4-5.8-1.9-5.8-3.5s1.8-6.8 5-6.5zm-720.8 2.3s-2 2.8.4 3.7c2.4.8 3.9-.4 3.7-2.1-.1-1.8-1.8-2.7-4.1-1.6zm399-1.7s-4.6-.1-4.7-1.9c-.1-1.9 1.8-5.2 3.3-4.6 1.4.6 4.7 5.3 1.4 6.5zm78.8-6.3s-3 3.4-4.5 2.3-2.8-4.8-1.3-5.5c1.4-.7 7.1-.1 5.8 3.2zm-724.1-2.8s-3.4.6-2.4 2.8c1.1 2.3 3 2.5 4.1 1.2s.7-3.1-1.7-4zm81.3-4.5s-5.5 1.8-3.2 5.5c2.4 3.8 5.6 3.7 7.1 1.2 1.6-2.5.3-5.6-3.9-6.7zm542.4 2.7s-4.6-.1-4.7-1.9c-.1-1.9 1.8-5.2 3.3-4.6 1.5.6 4.8 5.3 1.4 6.5zM1118 244.4s-7.9 2.4-4.7 7.1c3.2 4.7 7.8 4.6 10.1 1.3 2.3-3.2.6-7.1-5.4-8.4zm210.7.4s-5.5 1.8-3.2 5.5c2.4 3.8 5.6 3.7 7.1 1.2 1.6-2.4.4-5.6-3.9-6.7zm-81.3 3.5s-3.4.6-2.4 2.8c1.1 2.3 3 2.5 4.1 1.2s.7-3-1.7-4zm156.2-6.5s6.5-.2 6.7 2.4-2.2 7.5-4.3 6.7c-2-.8-7-7.3-2.4-9.1zm-227.1-36.1s-3.4.6-2.4 2.8c1.1 2.3 3 2.5 4.1 1.2 1.2-1.2.8-3-1.7-4zm640.5-2.8s1.7.9 1.6 2.7c-.1 1.8.1 2.2-1.2 2.4-1.3.2-2.8-1-2.8-1.8s.9-3.4 2.4-3.3zm143.3-29s3.6 1.7 3.3 5.3c-.2 3.5.2 4.3-2.5 4.7-2.7.4-5.8-1.9-5.8-3.5s1.7-6.7 5-6.5zm-6.7-11.5s2.1.9 2 2.6c-.1 1.8.1 2.2-1.5 2.4-1.6.2-3.4-.9-3.4-1.8s1-3.3 2.9-3.2zm-334-2.5s-3 3.4-4.5 2.3-2.8-4.8-1.3-5.5 7.1-.1 5.8 3.2zm31-10.7s-3 3.4-4.5 2.3-2.8-4.8-1.3-5.5 7.1-.1 5.8 3.2zm30.1-37.8s1.7.9 1.6 2.7c-.1 1.8.1 2.2-1.2 2.4s-2.8-1-2.8-1.8.8-3.4 2.4-3.3zm70.1-15.8c-3 .1-6.6 7.1-8.4 8.8 0 0-6.3 9.9-5.1 9.3 5.8-2.6 11-10.3 11-10.3s6-2.5 7.4-5.2-1.6-2.8-4.9-2.6zm24.2-43.4s3.6 1.7 3.3 5.3c-.2 3.5.2 4.3-2.5 4.7-2.7.4-5.8-1.9-5.8-3.5s1.8-6.7 5-6.5zm140.2-22.7s2.1.9 2 2.6c-.1 1.8.1 2.2-1.5 2.4-1.6.2-3.4-.9-3.4-1.8s1-3.3 2.9-3.2z"/>
  <path fill="var(--so-far)" d="M991.88 1891.9s54.235-7.736 134.045-34.379c21.057-7.029 83.301-26.728 127.055-46.516 60.854-27.522 169.842-53.337 191.073-60.112 3.734-1.195 13.673 21.695 19.843 50.896 3.345 15.836 7.911 32.998 10.501 48.996 2.919 18.024 2.435 34.448-1.04 45.096-1.831 5.608-11.903 12.535-23.175 20.667-13.573 9.791-32.164 17.627-46.001 22.994-26.743 10.373-57.21 19.09-84.69 28.129-39.084 12.856-73.108 16.384-80.142 9.057-1.611-1.679-13.27-22.282-16.387-40.293-.085-2.759-12.262 21.299-17.232 32.042-7.511 16.233-29.367 31.034-47.776 37.878-35.5 13.198-113.175 29.752-129.144 30.431-2.436.328-10.679-23.083-11.197-31.293-.631-9.98-8.92-21.561-6.328-26.713 2.129-4.232 133.731-22.538 173.45-58.314 1.181-3.464.746-7.063 1.476-10.111 1.038-4.332-1.911-10.576-2.774-10.817-29.727 4.899-167.268 51.212-178.122 50.093-4.765-.492-3.156-11.442-8.396-22.897-.984-2.152-2.702-6.568-3.025-11.805-.523-8.499-4.678-17.69-2.014-23.029zm61.948 120.948s2.51 1.205 2.344 3.625c-.167 2.421.168 2.992-1.742 3.277-1.91.285-4.094-1.28-4.094-2.421 0-1.141 1.237-4.639 3.492-4.481zm20.249-30.424s.11 3.478-.056 5.899c-.167 2.42 1.819 8.533-.091 8.818-1.909.286-3.345-9.095-3.345-10.236 0-1.142 1.237-4.64 3.492-4.481zm109.003-9.691s2.693-.705 4.128 1.25c1.434 1.955 2.057 2.175.784 3.628-1.274 1.454-3.951 1.673-4.687.802-.736-.871-2.048-4.341-.225-5.68zm-172.122-40.566s2.693-.705 4.128 1.25c1.434 1.955 2.057 2.174.784 3.628-1.274 1.454-3.951 1.673-4.687.802-.736-.871-2.048-4.341-.225-5.68zm381.578-104.972s-136.467 45.631-138.824 46.827c-2.89.772 9.78 47.761 22.396 46.696 13.238.397 113.049-42.797 118.534-48.125 1.679-1.631 1.723-6.873 2.522-12.287.767-5.195.015-10.656.004-13.095-.051-10.282-3.031-19.422-4.632-20.016zm-75.598 86.265s2.412 1.046 2.253 3.148c-.16 2.102.161 2.597-1.675 2.845-1.835.248-3.935-1.111-3.935-2.102 0-.991 1.189-4.028 3.357-3.891zm107.272-10.14s3.187 1.368 2.976 4.116c-.211 2.749.213 3.396-2.211 3.72-2.424.324-5.198-1.452-5.198-2.748 0-1.296 1.57-5.268 4.433-5.088zm-180.381-1.578s2.693-.705 4.128 1.25c1.434 1.955 2.057 2.175.784 3.628-1.274 1.454-3.951 1.673-4.687.802-.736-.871-2.048-4.341-.225-5.68zm-107.367-31.89s2.23 1.148 2.083 3.455c-.148 2.308.149 2.851-1.548 3.123-1.697.272-3.638-1.219-3.638-2.307 0-1.088 1.099-4.422 3.103-4.271zm-187.077-190.92s139.261-14.201 180.657-17.166c36.774-2.633 150.601-6.57 150.601-6.57s139.492-10.258 144.88-5.007c8.949 8.724 9.329 40.415 13.78 75.918.969 7.723-328.798 102.678-328.798 102.678s-115.562 45.731-117.782 44.893c-2.219-.838-10.318-32.067-11.595-45.166-1.938-19.881-9.489-38.755-9.201-43.017.292-4.313 51.818-5.554 63.434-5.962 11.616-.409 133.418-22.141 133.418-22.141l-7.182-41.729s-55.607 11.166-85.504 14.856c-25.967 3.204-113.111 12.508-113.111 12.508s-9.297-19.401-9.514-27.776c-.4-15.402-3.987-30.97-4.083-36.319zm276.565 161.51s2.51 1.204 2.344 3.625c-.167 2.42.168 2.991-1.742 3.276-1.91.285-4.094-1.279-4.094-2.42 0-1.142 1.237-4.64 3.492-4.481zm122.013-8.114s2.88 1.251 2.689 3.764c-.19 2.512.193 3.105-1.998 3.401-2.191.296-4.698-1.328-4.698-2.513 0-1.185 1.419-4.816 4.007-4.652zm-348.347-8.013s.835-3.893 4.291-4.504c3.457-.611 4.144-1.272 5.197 1.272 1.052 2.544-.399 6.112-2.002 6.509-1.603.396-6.939-.1-7.486-3.277zm454.969-12.269s3.187 1.368 2.976 4.116c-.211 2.748.213 3.396-2.211 3.72-2.425.324-5.199-1.452-5.199-2.748 0-1.296 1.571-5.268 4.434-5.088zm-387.278-11.905s3.465 1.352 3.235 4.069c-.229 2.717.232 3.357-2.404 3.677-2.636.32-5.653-1.436-5.653-2.716 0-1.281 1.708-5.207 4.822-5.03zm-63.424 1.761s1.543.87 1.441 2.618c-.102 1.749.103 2.161-1.071 2.367-1.174.206-2.516-.924-2.516-1.749 0-.824.76-3.35 2.146-3.236zm201.637-22.898s2.38 1.148 2.222 3.455c-.157 2.307.16 2.851-1.651 3.122-1.811.272-3.883-1.219-3.883-2.306 0-1.088 1.173-4.422 3.312-4.271zm-49.765-9.555s1.543.87 1.441 2.618c-.102 1.748.103 2.161-1.07 2.367-1.174.206-2.517-.924-2.517-1.749 0-.824.76-3.35 2.146-3.236zm281.458-9.689s2.693-.705 4.128 1.25c1.434 1.955 2.057 2.175.784 3.628-1.274 1.454-3.951 1.673-4.687.802-.736-.871-2.048-4.341-.225-5.68zm-218.666-50.971l4.41 39.924s81.055-15.341 129.811-37.224c3.123-1.402.884-12.405-2.512-13.577-11.813-4.075-96.32 1.234-131.898 8.666-2.429-.676-6.457-.819-8.047-.936-2.302-.171-3.461 2.207-3.461 2.207-.162 2.142 3.512.556 4.598.562.743.004 4.737.591 7.099.378zm-19.618 20.361s3.466 1.352 3.236 4.069c-.229 2.717.232 3.357-2.404 3.677-2.637.32-5.653-1.436-5.653-2.716 0-1.281 1.708-5.207 4.821-5.03zm168.588-.854s2.38 1.148 2.223 3.455c-.158 2.307.159 2.851-1.652 3.123-1.811.271-3.883-1.22-3.883-2.307 0-1.088 1.173-4.421 3.312-4.271zm-392.843-8.113s2.38 1.148 2.222 3.455c-.157 2.307.16 2.85-1.651 3.122-1.811.272-3.883-1.219-3.883-2.306 0-1.088 1.173-4.422 3.312-4.271zm109.528-21.724s2.51 1.205 2.344 3.626c-.166 2.42.168 2.991-1.742 3.276-1.909.285-4.094-1.279-4.094-2.42 0-1.142 1.237-4.64 3.492-4.482zm326.852-10.729s2.38 1.148 2.222 3.455c-.157 2.307.16 2.85-1.651 3.122-1.811.272-3.883-1.219-3.883-2.306 0-1.088 1.173-4.422 3.312-4.271zm-436.589-.426s2.23 1.148 2.083 3.455c-.148 2.307.149 2.851-1.548 3.123-1.697.272-3.638-1.219-3.638-2.307 0-1.088 1.099-4.422 3.103-4.271zm180.521-17.241s2.446 1.074 2.284 3.233c-.162 2.159.163 2.668-1.697 2.922-1.861.255-3.989-1.141-3.989-2.159 0-1.017 1.205-4.138 3.402-3.996zm151.625-.001s2.268 1.016 2.118 3.057c-.15 2.041.151 2.522-1.574 2.763-1.725.24-3.699-1.079-3.699-2.041s1.118-3.912 3.155-3.779zm98.417-10.141s2.408 1.031 2.249 3.102c-.16 2.072.161 2.56-1.671 2.804-1.832.244-3.927-1.095-3.927-2.071 0-.977 1.186-3.971 3.349-3.835zm-486.415-117.764s51.775 29.691 143.554.26c73.277-23.497 162.677-42.795 197.143-50.439 34.044-7.55 104.651-40.214 117.343-45.396 4.827-1.971 16.413-5.333 21.932 56.707 1.763 19.818 18.861 69.782 23.991 123.027-8.669 8.062-82.003 2.305-82.003 2.305s-13.502-68.564-16.597-76.464c-1.622-4.138-117.496 21.851-126.714 28.542-5.15 3.738 8.836 61.416 8.836 61.416s-55.388 5.813-55.239 4.805c-1.109-5.306-11.061-53.182-11.061-53.182s-65.193 18.537-77.8 19.457c-23.084 1.683-82.255 13.712-121.197 23.223-8.927 2.181-14.096-27.918-14.385-41.255-.409-18.949-11.201-41.181-7.803-53.006zm266.657 84.724s2.38 1.148 2.223 3.454c-.158 2.307.159 2.851-1.652 3.123-1.811.272-3.883-1.219-3.883-2.307 0-1.087 1.173-4.421 3.312-4.27zm-226.154-15.539s.836-3.893 4.292-4.504c3.457-.611 4.144-1.272 5.197 1.272 1.052 2.544-.4 6.112-2.003 6.509-1.602.396-6.938-.1-7.486-3.277zm44.767-2.13s1.543.87 1.441 2.618c-.102 1.749.103 2.161-1.071 2.367-1.174.206-2.516-.924-2.516-1.748 0-.825.76-3.351 2.146-3.237zm343.384-2.615s2.381 1.149 2.223 3.455c-.158 2.307.159 2.851-1.652 3.123-1.811.272-3.882-1.219-3.882-2.307 0-1.088 1.173-4.421 3.311-4.271zm-300.21-29.57s3.465 1.352 3.236 4.068c-.23 2.717.232 3.357-2.405 3.678-2.636.32-5.652-1.436-5.652-2.717 0-1.281 1.708-5.207 4.821-5.029zm88.449 1.76s1.543.871 1.44 2.619c-.102 1.748.104 2.16-1.07 2.366-1.174.206-2.517-.924-2.517-1.748s.761-3.351 2.147-3.237zm-194.397-2.028s1.543.87 1.441 2.618c-.102 1.749.103 2.161-1.071 2.367-1.173.206-2.516-.924-2.516-1.748 0-.825.76-3.351 2.146-3.237zm3.19-18.841s2.381 1.148 2.223 3.455c-.158 2.307.159 2.85-1.652 3.122-1.811.272-3.882-1.219-3.882-2.307 0-1.087 1.173-4.421 3.311-4.27zm120.333-2.456s1.543.87 1.441 2.618c-.102 1.748.103 2.16-1.071 2.366-1.174.206-2.517-.924-2.517-1.748s.761-3.35 2.147-3.236zm164.672-8.86s3.465 1.352 3.236 4.069c-.23 2.716.231 3.357-2.405 3.677-2.636.32-5.652-1.436-5.652-2.717 0-1.281 1.707-5.207 4.821-5.029zm161.5-10.996s2.38 1.149 2.223 3.455c-.158 2.307.159 2.851-1.652 3.123-1.811.272-3.883-1.219-3.883-2.307 0-1.088 1.173-4.421 3.312-4.271zm-134.66-10.141s2.38 1.148 2.223 3.455c-.158 2.307-.341 9.739-2.152 10.011-1.811.272-.606-7.77-.606-8.858 0-1.087-1.604-4.759.535-4.608zm117.007-107.844c9.434-18.366-4.45-165.61-38.637-183.933-15.102-8.095-135.592 48.815-201.147 49.209-22.804.137-115.342 36.511-130.624 41.99-56.362 20.211-114.193 14.535-122.848 75.935-1.973 13.995 2.046 31.175 7.719 53.529 2.661 10.486 6.388 19.603 9.505 28.066 5.558 15.093 11.705 26.421 23.71 35.863 34.226 26.92 77.806 24.519 135.281 6.311 83.229-26.367 296.742-67.455 317.041-106.97zm-168.796 110.459s1.542.87 1.44 2.618c-.102 1.748.103 2.16-1.07 2.366-1.174.206-2.517-.924-2.517-1.748s.76-3.351 2.147-3.236zm-252.405-8.018s1.478.802 1.381 2.415c-.098 1.612.099 1.993-1.026 2.183-1.124.19-2.411-.853-2.411-1.613s.729-3.091 2.056-2.985zm-5.653-2.712s1.127-.352 1.55.333c.423.684.654.746.036 1.331-.619.585-1.703.754-1.93.453-.227-.302-.485-1.557.344-2.117zm5.385-2.36s1.284.627 1.199 1.886c-.085 1.259.086 1.555-.891 1.704-.978.148-2.096-.666-2.096-1.259 0-.594.633-2.413 1.788-2.331zm364.046-17.335s1.542.87 1.44 2.618c-.102 1.748.104 2.16-1.07 2.366-1.174.207-2.517-.924-2.517-1.748s.76-3.35 2.147-3.236zm-167.92-12.756s2.381 1.148 2.223 3.454c-.158 2.307.159 2.851-1.652 3.123-1.811.272-3.882-1.219-3.882-2.307 0-1.087 1.173-4.421 3.311-4.27zm230.693-17.669s1.543.87 1.441 2.618c-.102 1.749.103 2.161-1.07 2.367-1.174.206-2.517-.924-2.517-1.748 0-.825.76-3.351 2.146-3.237zm-383.137-13.448s3.573 1.746 3.337 5.253c-.237 3.508.239 4.335-2.479 4.749-2.719.413-5.828-1.854-5.828-3.508s1.76-6.723 4.97-6.494zm250.802-132.86c3.983-.589 8.445-1.167 12.057-1.426 7.181-.514 12.553-1.503 12.553-1.503s4.409-3.896 1.03-4.857c-3.379-.961-12.061 1.546-21.555 3.061-7.664 1.223-11.995 4.316-13.609 5.706-28.497 4.538-69.908 23.313-109.661 37.591-39.46 14.173-133.993 28.236-139.008 49.11 0 0-10.196 39.972 34.748 39.65 48.868-.35 231.643-48.873 251.312-81.414 8.835-14.616 14.273-37.132-16.578-44.932-3.316-.838-7.101-1.139-11.289-.986zm63.068 110.548s3.573 1.746 3.336 5.254c-.236 3.508.239 4.335-2.479 4.748-2.718.414-5.828-1.854-5.828-3.508 0-1.653 1.761-6.723 4.971-6.494zm-408.624 3.307s1.543.87 1.441 2.618c-.103 1.749.103 2.161-1.071 2.367-1.174.206-2.517-.924-2.517-1.748 0-.825.761-3.351 2.147-3.237zm-8.1-8.113s1.543.87 1.441 2.618c-.102 1.748.103 2.16-1.071 2.366-1.174.207-2.517-.924-2.517-1.748s.761-3.35 2.147-3.236zm-8.96-21.884s2.381 1.148 2.223 3.455c-.157 2.307.159 2.851-1.652 3.122-1.81.272-3.882-1.219-3.882-2.306 0-1.088 1.173-4.422 3.311-4.271zm476.879-1.014s2.381 1.148 2.223 3.455c-.157 2.307.159 2.85-1.651 3.122-1.811.272-3.883-1.219-3.883-2.306 0-1.088 1.173-4.422 3.311-4.271zm-30.946-10.834s3.573 1.746 3.337 5.254c-.237 3.508.239 4.335-2.479 4.748-2.718.414-5.828-1.854-5.828-3.508 0-1.653 1.76-6.723 4.97-6.494zm-420.991-24.987s.836-3.893 4.292-4.505c3.457-.611 4.144-1.272 5.197 1.272 1.052 2.545-.4 6.112-2.003 6.509-1.602.397-6.938-.1-7.486-3.276zm382.32-14.567s2.703 1.218 2.524 3.665c-.179 2.446.181 3.023-1.876 3.311-2.056.289-4.409-1.293-4.409-2.446 0-1.154 1.332-4.69 3.761-4.53zm-121.538-193.096s-50.753 85.474-42.904 101.427c8.182 5.672 161.521-32.741 198.734-57.135 20.35-13.339 20.214-48.399 17.756-86.682-2.8-43.609-6.953-133.988-24.24-137.286-6.165-1.176-28.442-2.963-51.271 2.881-13.102 3.354-58.493 6.167-68.25 6.177-46.084.047-75.334 11.618-87.653 17.881-5.165 2.626-2.957 79.503-13.193 110.968-5.402 16.604-31.74 46.48-52.816 67.612-33.247 33.336-82.286 41.783-105.059 44.234-13.201 1.42-20.218-13.08-24.821-32.969-4.992-21.565 81.556-65.841 118.016-90.692 12.276-8.367 2.763-74.69 4.3-84.984-5.572-9.051-82.206 34.278-146.819 72.167-42.987 25.208-66.045 17.88-73.977 33.069-7.621 14.595 6.57 97.193 45.86 184.18 15.117 33.468 181.342-8.541 215.58-41.121 28.615-27.229 78.347-193.221 132.948-201.64 30.159-4.65 59.547-10.091 63.765 9.895 3.645 17.271 7.38 32.536-13.306 46.423-22.92 15.386-64.834 31.58-92.65 35.595zM899.123 1304.63s2.703 1.218 2.524 3.664c-.178 2.447.181 3.024-1.875 3.312-2.057.289-4.409-1.293-4.409-2.447 0-1.153 1.332-4.689 3.76-4.529zm249.941-12.101s2.703 1.217 2.524 3.664c-.179 2.447.181 3.024-1.875 3.312-2.057.288-4.41-1.293-4.41-2.447 0-1.153 1.332-4.689 3.761-4.529zm-251.768-11.223s3.573 1.746 3.336 5.254c-.236 3.508.239 4.335-2.479 4.748-2.718.414-5.828-1.854-5.828-3.508 0-1.653 1.761-6.723 4.971-6.494zm170.769-29.344s2.704 1.218 2.525 3.665c-.179 2.447.18 3.023-1.876 3.312-2.056.288-4.409-1.293-4.409-2.447 0-1.154 1.332-4.69 3.76-4.53zm260.406-11.153s3.573 1.746 3.336 5.253c-.236 3.508.239 4.335-2.479 4.749-2.718.413-5.828-1.854-5.828-3.508s1.761-6.723 4.971-6.494zm-262.233-12.17s3.573 1.746 3.336 5.254c-.236 3.507.239 4.334-2.479 4.748-2.718.413-5.828-1.854-5.828-3.508s1.761-6.723 4.971-6.494zm-208.37-2.676s.835-3.893 4.292-4.505c3.456-.611 4.144-1.272 5.196 1.272 1.053 2.544-.399 6.112-2.002 6.509-1.603.397-6.938-.1-7.486-3.276zm380.492-25.72s3.573 1.745 3.336 5.253c-.236 3.508.239 4.335-2.479 4.748-2.718.414-5.828-1.854-5.828-3.508 0-1.653 1.761-6.723 4.971-6.493zm-60.749-30.425s3.573 1.746 3.336 5.253c-.236 3.508.239 4.335-2.479 4.749-2.718.413-5.828-1.854-5.828-3.508s1.761-6.723 4.971-6.494zm-263.245-20.283s3.573 1.746 3.336 5.253c-.236 3.508.239 4.335-2.479 4.748-2.718.414-5.828-1.854-5.828-3.507 0-1.654 1.761-6.724 4.971-6.494zm-53.807-20.352c-3.575.721-11.969 4.486-17.888 11.362-6.25 7.261-4.919 15.121-4.919 15.121s8.996-8.78 15.167-14.198c5.096-4.473 11.201-5.25 11.201-5.25s.014-7.756-3.561-7.035zm433.432 3.04s2.703 1.218 2.525 3.665c-.179 2.446.18 3.023-1.876 3.312-2.057.288-4.409-1.294-4.409-2.447 0-1.154 1.332-4.69 3.76-4.53zm-334.119-30.425s2.703 1.218 2.524 3.665c-.179 2.447.181 3.023-1.875 3.312-2.057.288-4.409-1.293-4.409-2.447 0-1.153 1.332-4.69 3.76-4.53zm168.942-52.667s2.704 1.218 2.525 3.664c-.179 2.447.18 3.024-1.876 3.312-2.057.289-4.409-1.293-4.409-2.446 0-1.154 1.332-4.69 3.76-4.53zm69.047-51.72s3.573 1.746 3.336 5.254c-.236 3.507.239 4.334-2.479 4.748-2.718.413-5.828-1.854-5.828-3.508s1.761-6.723 4.971-6.494zm130.876 2.778s-4.375-.445-8.625-.132c-6.885.509-10.451 4.333-10.451 4.333s5.531-.439 10.731-.075c3.251.227 10.391 2.939 10.391 2.939l-2.046-7.065z"/>
</svg>
