<svg xmlns="http://www.w3.org/2000/svg" fill="none" viewBox="0 0 515 879">
  <mask id="mask0" width="515" height="879" x="0" y="0" maskUnits="userSpaceOnUse">
    <path fill="#C4C4C4" d="M0 0h515v879H0z"/>
  </mask>
  <g fill="#000" fill-opacity=".1" mask="url(#mask0)">
    <path fill-rule="evenodd" d="M434.3 280.4l-25 15.5a5.4 5.4 0 00-2.6 4.8l1.2 28.8c.1 1.9 1.2 3.6 3 4.5l26.4 13.3a5.7 5.7 0 005.5-.3l25.1-15.5c1.7-1 2.7-2.9 2.6-4.8l-1.3-28.8c0-1.9-1.2-3.6-3-4.5L440 280a5.7 5.7 0 00-5.6.3zM520.3 606.4l-29 5.4c-2 .3-3.6 1.7-4.2 3.5l-9.3 27.3a5.4 5.4 0 001.2 5.3l19.7 21.9a5.7 5.7 0 005.3 1.8l29-5.4c2-.3 3.5-1.7 4.1-3.5l9.3-27.3c.6-1.8.2-3.8-1.1-5.3l-19.8-22a5.7 5.7 0 00-5.2-1.7zM457.6 570.9l1.7 14-9 10.8 14.3-2.5 10.6 9.7-3.2-14.8 10.4-10-14 2.1-10.8-9.3zM405.6 485.2l12.3 6.9 3.4 13.6 6.4-13 14.1-2.7-13.8-6.3-1.9-14.2-6.6 12.6-13.9 3.1zM410.6 384.3L424 380l12.3 7-5-13.6 7.7-12.2-14 5.8-11.7-8.4 4.5 13.4-7.2 12.3zM451.2 262.2l13.7 3.1 7.2 12.1 2.4-14.2 12.8-6.7-15-2-6-13.2-2.7 14-12.4 7z" clip-rule="evenodd"/>
    <path d="M390.3 418c-1.2-1.8-1-4.2.2-6l1.7-2.2a5.4 5.4 0 015.5-2.1l54.8 12.6c4.7 1 5.7 7.3 1.6 9.8l-47.9 29.5a5.4 5.4 0 01-6-.2l-2.2-1.7a5.4 5.4 0 01-2.1-5.6l7-18.8-12.6-15.3z"/>
    <path fill-rule="evenodd" d="M429.4 517.7a22.4 22.4 0 0131.2-5.6 22.4 22.4 0 017 31c-7.8 11.7-32.6 18.9-39.7 20.7l-2 .5s-5.6-32.9 3.5-46.6zm25 17.7a7.6 7.6 0 10-12.7-8.4 7.6 7.6 0 0012.7 8.4zM522 210.6c9 8.1 9.3 22.3.7 31.7a22.4 22.4 0 01-31.6 2.2c-10.4-9.4-13.8-35-14.5-42.4l-.2-2s33.4-.6 45.5 10.5zm-21.3 22a7.6 7.6 0 1010.2-11.2 7.6 7.6 0 00-10.2 11.2zM354.4 720.4l37.2 17.6c2.5 1.2 5.3 1 7.5-.6l32.8-23.3a7.5 7.5 0 003-6.9l-4.4-41a8 8 0 00-4.5-6.2l-37.2-17.7a7.5 7.5 0 00-7.5.6l-32.8 23.3a7.5 7.5 0 00-3 7l4.4 40.9a8 8 0 004.5 6.3zM347 365.5l-31-27.1a7.5 7.5 0 00-7.3-1.5l-38 13.5a7.5 7.5 0 00-4.7 5.8L259 397a8 8 0 002.6 7.2l31 27.1c2 1.8 5 2.4 7.4 1.5l38-13.5a7.5 7.5 0 004.7-5.8l6.9-40.7a8 8 0 00-2.6-7.2zM461.5 730l-17.2 9.5-18.7-6 10.6 17-7.2 18.8 17.6-11.7 18.3 8.3-10-17.2 6.6-18.7zM331.6 266.2l-13.8 14-19.6-.4 15 13.3-1.4 20 13.5-16.3 19.9 2.7-14.5-13.5.9-19.8zM380.2 135.1l3.2 19.4-12 15.6 19.7-4.3 15.3 13-5.2-20.5 14-14.4-19.5 3.6-15.5-12.4zM494.9 53l16.2 11.1 3.1 19.4 10.5-17.2 20-2.2-18.5-10.3-.9-20-10.7 16.6-19.7 2.7zM367.7 611.7l-19.6 1.6-14.6-13.1 2.7 19.9-14.2 14.2 20.9-3.5 13.3 15-2.1-19.7 13.6-14.4zM318.4 463.3l-18.6 6.3-17.3-9.2 7.4 18.7-10.3 17.2L299 488l16.5 11.3-6.8-18.6 9.7-17.3z" clip-rule="evenodd"/>
    <path d="M467.7 821c-2.9.8-6-.2-7.9-2.6l-2.5-3.1a7.5 7.5 0 01-.7-8.3l38-68.7a7.5 7.5 0 0113.7 1.6l21.2 75.5c.9 3-.2 6-2.5 8l-3.1 2.4a7.5 7.5 0 01-8.4.7L493 809.8 467.7 821zM440.4 60.2c1-2.9 3.6-4.9 6.7-5l4-.2c3-.1 5.8 1.6 7 4.3l33.7 70.9c2.9 6-3 12.5-9.3 10.2l-73.7-26.8a7.5 7.5 0 01-5-6.7l-.1-4c-.2-3 1.5-5.9 4.3-7.1l26.6-8.6 5.8-27z"/>
    <path fill-rule="evenodd" d="M317 515a31.3 31.3 0 0141.3 15.8c7.6 16 1.3 34.7-14 42-17.6 8.4-52.4-.8-62.3-3.7l-2.7-.9s16.9-43.4 37.6-53.2zm17.2 39a10.6 10.6 0 10-9.2-19 10.6 10.6 0 009.2 19zM365.3 189.2a31.3 31.3 0 0133.1 29.4c1.5 17.6-11 33-27.8 34.4-19.4 1.7-48.8-19.2-57-25.4l-2.2-1.7s31-34.7 53.9-36.7zm2.4 42.7a10.6 10.6 0 10-1.9-21.1 10.6 10.6 0 001.9 21.1zM505.5 987.3l52.7-4.4a9.6 9.6 0 008-5.5l21.3-47c1.5-3.1 1-6.8-1-9.6l-31.3-42.6a10.2 10.2 0 00-9-4.1l-52.7 4.4a9.6 9.6 0 00-8 5.5l-21.4 47a9.6 9.6 0 001.1 9.6l31.3 42.6a10.2 10.2 0 009 4zM339.3-1l-52 9.3c-3.5.7-6.3 3-7.4 6.3L263 63.4a9.6 9.6 0 002 9.5l35.2 39.4a10.2 10.2 0 009.4 3.2l52-9.4c3.5-.7 6.3-3 7.4-6.3L385.9 51c1-3.2.3-6.9-2-9.5L348.6 2.2a10.2 10.2 0 00-9.3-3.3zM268.9 598.2L217 588.1c-3.4-.7-7 .5-9.2 3.2l-33.3 39.3a9.6 9.6 0 00-1.6 9.6l18.6 49.5a10.2 10.2 0 007.6 6.4l51.8 10c3.5.8 7-.5 9.2-3l33.3-39.5a9.6 9.6 0 001.6-9.5l-18.5-49.5a10.2 10.2 0 00-7.6-6.4zM187.7 498l-6.2 24.4-22 12.2 25.2 5.1 11.4 23.2 4.4-26.8 23.8-9.9-24.8-5.7-11.8-22.5zM157.3 321.3l16 19.4-3.3 25 19.1-17.3 25.4 4.5-19-19.4 6.2-25-19.3 16.6-25.1-3.8zM231.7 156.4l25 1.8 16 19.5.5-25.8 20.8-15.3-27.1.5-14-21.7-1.1 25.4-20.1 15.6zM379.2-20.2L400-6.1l4 24.9 13.4-22L443-6.2l-23.6-13.2-1.2-25.8-13.8 21.4-25.2 3.5zM450.3 858l-20.7 14.5-24.6-5.2 15.8 20.4-6.6 25 20.9-17.4 24.4 8-15-20.5 5.8-24.7zM300.1 725.2l-16.6 19-25.1 1 20.2 15.9-.3 25.8 16-22 25.7 2-19.5-16.2-.4-25.5z" clip-rule="evenodd"/>
    <path d="M175.7 199.4c-.7-3.8 1-7.7 4.3-9.8l4.3-2.8c3.2-2 7.4-2 10.6.2l83 57a9.6 9.6 0 01-3.7 17.3L175 279c-3.8.7-7.7-1-9.8-4.3l-2.8-4.3c-2-3.2-2-7.5.2-10.6l24-26.8-11-33.6z"/>
    <path fill-rule="evenodd" d="M331.7 783.5a40.1 40.1 0 0156-9.1 40.1 40.1 0 0111.7 55.6c-14.2 20.6-58.7 32.8-71.6 36l-3.5.8s-9.3-59 7.4-83.3zm44.3 32.3a13.6 13.6 0 10-22.4-15.4 13.6 13.6 0 0022.4 15.4zM175.5 391a40.1 40.1 0 0155.7 11.1 40.1 40.1 0 01-8.6 56.2c-20.6 14.3-66.6 10-79.7 8.5l-3.6-.4s12.1-58.6 36.2-75.4zm30.2 45.8a13.6 13.6 0 10-15.6-22.3 13.6 13.6 0 0015.6 22.3zM530.9-60c9.6 19.5.8 43.4-19.5 53.4a40.1 40.1 0 01-54.2-17c-11-22.6.1-67.4 3.6-80.1l1-3.5s56 20.9 69 47.2zM481-37a13.6 13.6 0 1024.4-12.2A13.6 13.6 0 00481-37zM102.5 903l61.2 30.8c4 2 8.8 1.8 12.5-.7l55.3-37.5c3.7-2.5 5.7-6.9 5.3-11.4L231 816a13.2 13.2 0 00-7.2-10.7l-61.2-30.7c-4-2-8.9-1.7-12.5.8l-55.4 37.4a12.4 12.4 0 00-5.3 11.4l5.9 68.2a13.2 13.2 0 007.2 10.7zM103.6 313L53 266.8c-3.4-3-8.1-4-12.3-2.7l-63.5 21c-4.2 1.5-7.3 5.1-8.2 9.6l-12.9 67.2a13.2 13.2 0 004 12.2l50.6 46.2c3.4 3 8 4.1 12.3 2.7l63.4-21c4.2-1.4 7.4-5 8.2-9.5l13-67.3a13.2 13.2 0 00-4.1-12.2zM81.5 147.4L58 170.2l-32.6-1.4 24.6 22.7-3.1 33.3 23-26.6 33 5.2-23.7-23 2.2-33zM167.2-68.5l4.6 32.3-20.5 25.4 32.8-6.3 25 22.2-7.8-34.2L225-52.7l-32.5 5.4-25.3-21.2zM128.6 722.9l-32.5 2-23.8-22.4 3.7 33.2-24 23.1 34.7-5 21.6 25.4-2.8-32.8 23.1-23.5zM52.3 474.5l-31.1 9.8-28.5-15.9 11.7 31.3-17.8 28.3L19 514.6l27 19.5L35.6 503l16.8-28.4zM47.9 560.3a52 52 0 0168.1 27.8 52 52 0 01-24.6 69.3c-29.7 13.3-87.2-3.3-103.5-8.5l-4.4-1.4s29.6-71.6 64.4-87.2zM75 626a17.6 17.6 0 10-14.5-32.2A17.6 17.6 0 0075.1 626zM140.3 20.9a52 52 0 0154 50A52 52 0 01147 127c-32.4 2-80.4-33.7-93.9-44.3l-3.6-3s52.9-56.5 91-58.8zm2.5 71a17.6 17.6 0 10-2.3-35.2 17.6 17.6 0 002.3 35.2z" clip-rule="evenodd"/>
  </g>
</svg>
