<svg xmlns="http://www.w3.org/2000/svg" fill="none" viewBox="0 0 1474 1466">
  <path fill="#000" fill-opacity=".1" fill-rule="evenodd" d="M739 1051l-25.4-12.6a5.1 5.1 0 01-2.8-4.3l-1.5-27.6c0-1.8.8-3.5 2.4-4.5l24-15.1a5.5 5.5 0 015.3-.3l25.4 12.5c1.6.8 2.7 2.5 2.8 4.3l1.5 27.6c0 1.8-.8 3.6-2.4 4.6l-24 15a5.4 5.4 0 01-5.3.3zM462.2 881.1l4.6-27.9a5.1 5.1 0 013.3-4l26-9.3c1.7-.7 3.7-.3 5 1l21.4 18.5a5.5 5.5 0 011.8 5l-4.6 27.9a5.1 5.1 0 01-3.3 4l-26 9.4c-1.7.6-3.6.2-5-1L464 886a5.5 5.5 0 01-1.8-5zM463.8 582.8l10.6-26.3c.7-1.7 2.3-3 4.1-3.2l27.4-3.5c1.8-.2 3.6.6 4.8 2l16.8 22.8a5.4 5.4 0 01.6 5.3l-10.5 26.2c-.7 1.8-2.3 3-4.1 3.2l-27.4 3.5c-1.8.3-3.7-.5-4.8-2L464.5 588a5.4 5.4 0 01-.7-5.2zM747.6 414.7l28 3.8c2 .2 3.5 1.4 4.2 3.1l10.2 25.7c.6 1.7.3 3.7-.9 5.1l-17.8 22a5.5 5.5 0 01-5 2l-28-3.8a5.1 5.1 0 01-4.1-3.2L724 443.8c-.7-1.7-.4-3.7.8-5.2l17.9-22a5.5 5.5 0 015-1.9zM1015.5 591.1l24 14.9c1.6 1 2.6 2.7 2.5 4.6l-1.2 27.5c-.1 1.9-1.2 3.5-2.9 4.4l-25.3 12.7a5.4 5.4 0 01-5.3-.2l-24-14.9a5.1 5.1 0 01-2.5-4.6L982 608c.1-1.8 1.2-3.5 2.9-4.3l25.3-12.7a5.4 5.4 0 015.3.2zM933.1 903.5l27.9 5c1.8.4 3.3 1.7 4 3.4l8.8 26.2c.6 1.7.2 3.7-1 5l-19 21a5.4 5.4 0 01-5 1.8l-27.9-5.1a5.1 5.1 0 01-4-3.4l-8.8-26.1a5.1 5.1 0 011-5.1l19-21a5.5 5.5 0 015-1.8zM688.1 997.4l2.3 13.3 11.2 7.4-13.7 1.7-7 11.8-1.2-14.4-12.3-6.3 13.5-2 7.2-11.5zM602.4 964.6l2.3 13.3 11.2 7.5-13.7 1.6-7 11.9-1.3-14.5-12.3-6.3 13.5-2 7.3-11.5zM534.2 906.4l-1.7 13.4 8.6 10.4-13.6-2.4-10.2 9.3 3-14.2-9.9-9.6 13.5 2 10.3-8.9zM993.2 869.4l-1.7 13.4 8.6 10.4-13.6-2.4-10.2 9.3 3-14.2-9.9-9.6 13.5 2 10.3-8.9zM480.8 811l-6 12.2 4.7 12.6-12-6.8-12.8 5.5 7.6-12.4-6.2-12.4 12 6.4 12.7-5zM1043 787.4l-11.8 6.5-3.3 13-6-12.3-13.6-2.7 13.2-6 1.9-13.6 6.3 12 13.3 3zM468 719.4l-9.9 9.2V742l-9-10.6-13.7.6 11.4-8.9-1.4-13.7 9 10.2 13.6-.2zM484 640.4l-13.2 3-7 11.5-2.2-13.6-12.3-6.4 14.4-2 5.7-12.6 2.6 13.4 12 6.7zM1038.2 690.6l-12.9-4-11.7 6.6 4.8-13-7.4-11.6 13.5 5.5 11.1-8-4.3 12.8 6.9 11.7zM623.3 479.8l-13.1 3-7 11.5-2.2-13.6-12.3-6.4 14.4-2 5.7-12.6 2.6 13.4 12 6.7zM712.3 449.8l-13.1 3-7 11.5-2.2-13.6-12.3-6.4 14.4-2 5.7-12.6 2.6 13.4 12 6.7zM838.5 447.8L828 456l-1.2 13.4-8-11.2-13.8-.5 12.1-8-.3-13.8L825 447l13.5.9zM929.7 504.3l-13.4 1.6-8 10.8-1-13.8-11.4-7.6 14.5-.5 6.9-12 1.3 13.6 11 7.9zM548.3 532.8l-13.1 3-7 11.5-2.2-13.6-12.3-6.4 14.4-2 5.7-12.6 2.6 13.4 12 6.7zM999.3 573.8l-13.1 3-7 11.5-2.2-13.6-12.3-6.4 14.4-2 5.7-12.6 2.6 13.4 12 6.7zM791.9 997.4l7.4 11.2 13.3 2.3-11.8 7-1.7 13.7-7-12.7-13.7-.8 11.5-7.2 2-13.5zM892.7 960.6l4.5 12.7 12.4 5.4-13.2 4-5 12.9-3.6-14-13.2-4.1 13-4.3 5.1-12.6z" clip-rule="evenodd"/>
  <path fill="#000" fill-opacity=".1" d="M636.6 1032.8c.8 2 2.6 3.2 4.7 3.2h2.8c2 0 3.9-1.2 4.7-3.2l20.8-49.7a5.1 5.1 0 00-6.7-6.7l-49.7 20.8c-2 .8-3.2 2.7-3.2 4.8v2.7c0 2 1.3 4 3.2 4.7l18.6 5 4.8 18.4zM429.6 792.6c-1 1.8-.9 4 .4 5.7l1.6 2.2a5.1 5.1 0 005.4 1.8l52.2-13.6a5.1 5.1 0 001.2-9.4l-46.6-27c-1.8-1-4-.8-5.7.4l-2.2 1.7a5.1 5.1 0 00-1.8 5.4l7.2 17.8-11.7 15zM537.7 483.5c-2 .3-3.8 1.7-4.3 3.8l-.7 2.6c-.5 2 .2 4.1 1.8 5.4l42.7 32.9a5.1 5.1 0 008.2-4.8l-7.3-53.4c-.2-2-1.7-3.7-3.7-4.2l-2.7-.7c-2-.6-4.1.2-5.4 1.8l-9.6 16.7-19-.1zM872.6 442.6c-1-1.9-3-3-5-2.8l-2.8.3c-2 .2-3.8 1.6-4.4 3.5L844.2 495a5.1 5.1 0 007.3 6.1L899 476c1.8-1 3-3 2.7-5l-.2-2.7c-.2-2-1.6-3.8-3.6-4.5l-19-3.3-6.4-17.8zM1057.7 723c1-1.8 1-4-.2-5.7l-1.6-2.2a5.1 5.1 0 00-5.4-2L998 725c-4.4 1.1-5.4 7-1.5 9.5l45.9 28.2c1.8 1 4 1 5.7-.2l2.2-1.6a5.1 5.1 0 002-5.4l-6.7-18 12-14.6z"/>
  <path fill="#000" fill-opacity=".1" fill-rule="evenodd" d="M865.6 983.5a21.5 21.5 0 00-26.2-15.6 21.5 21.5 0 00-16.7 25.4c3 13.1 22.8 28 28.6 32l1.6 1.1s16.2-27.6 12.7-43zm-28.5 7.4a7.3 7.3 0 1114.2-3.3 7.3 7.3 0 01-14.2 3.3zM585.4 964.4c7.9-8.5 7-22-2-30.3-8.9-8.2-22.5-8-30.3.6-9.1 9.9-10.1 34.5-10.2 41.6v2s31.9-2.3 42.5-13.9zm-22.1-19.2A7.3 7.3 0 11574 955a7.3 7.3 0 01-10.7-10zM466.4 705c11.4 2 22.4-6 24.5-18 2.1-12-5.4-23.2-16.9-25.3-13.2-2.3-34.6 10.2-40.6 14l-1.6 1s19.1 25.6 34.6 28.3zm4.3-29a7.3 7.3 0 11-2.6 14.3 7.3 7.3 0 012.6-14.3zM1020.2 818.5a21.5 21.5 0 00-29.9-5.3 21.5 21.5 0 00-6.7 29.6c7.4 11.2 31.2 18 38 19.9l1.9.4s5.4-31.5-3.3-44.6zm-24 17a7.3 7.3 0 1112.2-8.1 7.3 7.3 0 01-12.2 8zM628.9 468.7a21.5 21.5 0 0027 14 21.5 21.5 0 0015.2-26.2c-3.8-13-24.4-26.6-30.4-30.4l-1.6-1s-14.6 28.5-10.2 43.6zm28-9a7.3 7.3 0 11-14 4 7.3 7.3 0 0114-4zM931.5 524.3c-8.6 7.8-8.9 21.4-.7 30.3 8.2 9 21.7 10 30.3 2.2 10-9 13.2-33.6 13.9-40.6l.2-2s-32-.6-43.7 10zm20.4 21.1a7.3 7.3 0 11-9.8-10.8 7.3 7.3 0 019.8 10.8zM1092 1012.6l-35.6 17a7.1 7.1 0 01-7.2-.6l-31.4-22.3c-2-1.5-3.2-4-3-6.7l4.3-39.2a7.5 7.5 0 014.3-6l35.7-17a7.2 7.2 0 017.2.6l31.4 22.4c2 1.4 3.2 4 3 6.6l-4.3 39.2a7.6 7.6 0 01-4.3 6zM666.6 1168.2l-26.5-29.3a7.2 7.2 0 01-1.6-7l12.3-36.6c.8-2.4 3-4.2 5.5-4.7l38.8-7.3a7.6 7.6 0 017 2.4l26.5 29.2c1.8 2 2.4 4.7 1.5 7.1l-12.2 36.5c-.9 2.5-3 4.3-5.5 4.7l-38.8 7.3a7.6 7.6 0 01-7-2.3zM341.8 907.8l-19.5-34.3a7.2 7.2 0 010-7.2l20-33a7.2 7.2 0 016.3-3.4l39.5 1.3a7.6 7.6 0 016.3 3.8l19.5 34.3c1.3 2.3 1.3 5 0 7.3l-20 33a7.2 7.2 0 01-6.3 3.3l-39.5-1.3a7.6 7.6 0 01-6.3-3.8zM404 452l28.4-27.4a7.2 7.2 0 017-1.8l36.9 11.1c2.4.7 4.3 2.8 4.9 5.3l8.5 38.6a7.6 7.6 0 01-2.1 7l-28.4 27.5a7.2 7.2 0 01-7 1.7l-37-11a7.2 7.2 0 01-4.8-5.4l-8.5-38.5a7.6 7.6 0 012.1-7.1zM829 312l37-13.4c2.5-.9 5.2-.4 7.2 1.3l29 25.2c2 1.7 2.9 4.3 2.3 6.9l-8 38.6a7.6 7.6 0 01-4.8 5.6l-37.1 13.4c-2.5 1-5.2.4-7.1-1.3l-29.1-25.2a7.2 7.2 0 01-2.3-6.8l8-38.7a7.6 7.6 0 014.8-5.6zM1099 672.6l29.8-26c2-1.6 4.7-2.2 7-1.3l36.3 13c2.5.8 4.2 3 4.7 5.5l6.5 39a7.6 7.6 0 01-2.5 6.9l-29.7 26a7.2 7.2 0 01-7 1.4l-36.4-13c-2.4-.8-4.1-3-4.6-5.6l-6.5-38.9a7.7 7.7 0 012.4-7zM989.4 1021.9l16.5 9 17.9-5.8-10.1 16.4 6.8 18-16.8-11.2-17.5 8 9.5-16.5-6.3-18zM879.3 1087.2l16.5 9 17.9-5.7-10.1 16.4 6.9 18-16.9-11.3-17.5 8 9.5-16.4-6.3-18zM756.6 1111.3l13.2 13.5 18.8-.4-14.5 12.8 1.4 19.2-12.9-15.7-19 2.6 13.8-13-.8-19zM1114 577.5l13 13.4 18.9-.3-14.4 12.7 1.3 19.2-12.9-15.6-19 2.6 13.8-13-.8-19zM606 1087.1l8 17 18 5.9-17.9 7.3-5 18.5-7-19-18.9-3.8 17.4-7.7 5.5-18.2zM1067.3 452l-3 18.5 11.4 15-18.8-4.1-14.7 12.5 5-19.7-13.4-13.8 18.7 3.5 14.8-12zM494.8 1021.6l1.4 18.8 14.7 11.8-19.3.5-11.3 15.5.2-20.2-16.2-10.3 19-1 11.5-15zM422.2 935.8l-8.2 17 6.7 17.5-16.9-9.3-17.6 7.8 10.3-17.4-8.8-17 16.9 8.6 17.6-7.2zM957.4 373.4L942 383.9l-3 18.6-10-16.4-19.1-2.1 17.6-10 1-19.1 10.2 16 18.8 2.5zM367.4 644.2l-8.2 17 6.7 17.5-16.9-9.2-17.6 7.8 10.4-17.5-9-17 17 8.6 17.6-7.2zM411.7 521l-8.2 16.9 6.8 17.5-17-9.2-17.5 7.8 10.3-17.4-8.9-17.1 17 8.6 17.5-7.2zM519 381.2l-.1 18.8 13.7 12.9-19.3-1-12.5 14.6 1.8-20.1-15.4-11.6 19 .5 12.7-14.1zM659.7 330.5l-9.9 16 4.9 18.2-15.9-11-18.3 6 12.1-16.3-7-17.9 15.9 10.4 18.2-5.4zM360.3 772.1l-8.1 17 6.7 17.5-17-9.2-17.5 7.8 10.3-17.4-8.9-17.1 17 8.6 17.5-7.2zM796 314.6l-8.2 17 6.7 17.5-16.9-9.2-17.6 7.8 10.3-17.4-8.8-17.1 16.9 8.6 17.6-7.2zM1079.3 908.5l18.7 1.5 14-12.5-2.5 19 13.5 13.7-20-3.4-12.7 14.4 2-18.9-13-13.8zM1126.5 766.4l17.8 6 16.6-8.8-7 17.9 9.8 16.5-18.6-8.1-15.8 10.9 6.5-17.9-9.3-16.5z" clip-rule="evenodd"/>
  <path fill="#000" fill-opacity=".1" d="M983.5 1109c2.8.8 5.8-.2 7.6-2.5l2.3-3c1.8-2.2 2-5.3.7-7.9l-36.3-65.8a7.2 7.2 0 00-13.2 1.5l-20.3 72.4c-.8 2.8.1 5.8 2.4 7.6l3 2.3c2.3 1.8 5.4 2 8 .7l21.6-16 24.2 10.7zM541.5 1127c1 2.7 3.7 4.5 6.6 4.6h3.8c2.9 0 5.5-1.6 6.7-4.2l30.3-68.8a7.2 7.2 0 00-9.2-9.6l-69.9 27.7a7.2 7.2 0 00-4.5 6.5v3.9c-.1 2.9 1.6 5.5 4.2 6.7l25.8 7.5 6.2 25.7zM297.3 741a7.2 7.2 0 00.4 8l2.2 3a7.2 7.2 0 007.5 2.7l73-18a7.2 7.2 0 001.9-13.2l-64.7-38.3a7.2 7.2 0 00-8 .4l-3 2.3a7.2 7.2 0 00-2.6 7.5l9.8 25-16.5 20.6zM542.7 339.5c-2.8-.6-5.7.6-7.3 3l-2.1 3.3a7.2 7.2 0 000 8l42.2 62.2a7.2 7.2 0 0013-2.7l13.7-74c.5-2.8-.7-5.7-3.1-7.2l-3.2-2.1a7.2 7.2 0 00-8 0L567.8 348l-25-8.4zM1009.7 380.2a7.2 7.2 0 00-6.4-4.8l-3.8-.2a7.2 7.2 0 00-6.9 4.1l-32.2 68a7.2 7.2 0 009 9.7l70.6-25.7c2.7-1 4.5-3.5 4.7-6.4l.1-3.8c.2-2.9-1.5-5.6-4-6.8l-25.6-8.3-5.5-25.8z"/>
  <path fill="#000" fill-opacity=".1" fill-rule="evenodd" d="M1128 815.9a30 30 0 00-39.7 15 30 30 0 0013.3 40.4c17 8 50.3-.8 59.8-3.6l2.5-.8s-16.1-41.6-36-51zm-16.6 37.4a10.2 10.2 0 118.8-18.3 10.2 10.2 0 01-8.8 18.3zM864.4 1105.6a30 30 0 00-34.9-24.1 30 30 0 00-25.7 33.7c3 18.5 29 41 36.7 47.3l2.1 1.6s25.2-36.8 21.8-58.5zm-40.3 7.5a10.2 10.2 0 1120.1-3.1 10.2 10.2 0 01-20 3.1zM477.7 1011a30 30 0 001.5-42.4A30 30 0 00437 965c-14 12.5-19 46.6-20 56.4l-.3 2.7s44.6 1.3 61-13.3zm-28-29.9a10.2 10.2 0 1113.4 15.2 10.2 10.2 0 01-13.5-15.2zM1081.6 503.8A30 30 0 001050 532a30 30 0 0026.6 33c18.6 1.6 46.8-18.4 54.6-24.3l2.2-1.7s-29.8-33.2-51.7-35zm-2.3 41a10.2 10.2 0 111.8-20.3 10.2 10.2 0 01-1.8 20.2zM360.1 628.6a30 30 0 0038.7-17.4 30 30 0 00-15.5-39.4c-17.3-7-50.1 3.6-59.4 6.9l-2.6.9s18.5 40.6 38.8 49zm14.4-38.4a10.2 10.2 0 11-7.7 18.8 10.2 10.2 0 017.7-18.8zM683.1 345.8a30 30 0 0032.6 27.2 30 30 0 0028.6-31.4c-1.3-18.6-25.3-43.4-32.4-50.3l-2-1.9s-28.3 34.5-26.8 56.4zm40.8-4a10.2 10.2 0 11-20.3 1.4 10.2 10.2 0 0120.3-1.3zM947.2 1268.3l-50.4-4.2a9.2 9.2 0 01-7.6-5.3l-20.5-45c-1.4-3-1-6.5 1-9.2l30-40.8a9.8 9.8 0 018.7-3.9l50.4 4.2c3.4.3 6.3 2.3 7.6 5.3l20.5 45c1.4 3 1 6.5-1 9.2l-30 40.8a9.7 9.7 0 01-8.7 4zM375 1166.8l-10.6-49.5c-.7-3.3.4-6.7 2.9-8.8l37.1-32.6c2.5-2.2 6-2.8 9.2-1.7l47.7 16.9a9.8 9.8 0 016.2 7.1l10.6 49.5c.7 3.3-.4 6.7-2.8 8.9l-37.2 32.6a9.2 9.2 0 01-9.1 1.7l-47.7-17a9.7 9.7 0 01-6.3-7zM182.4 668.8l.4-50.6c0-3.4 1.8-6.5 4.7-8l43.3-23.8a9.2 9.2 0 019.3.3l43 26.9a9.7 9.7 0 014.5 8.3l-.4 50.7c0 3.3-1.9 6.4-4.7 8L239 704.3a9.2 9.2 0 01-9.3-.3L187 677a9.8 9.8 0 01-4.5-8.3zM545 203.1L594 191c3.3-.8 6.7.2 9 2.5l33.7 36.1c2.2 2.4 3 5.9 2 9.1l-15.4 48.2a9.8 9.8 0 01-7 6.5l-49 12.2c-3.3.8-6.7-.2-9-2.6l-33.8-36a9.2 9.2 0 01-2-9.1l15.4-48.3a9.8 9.8 0 017-6.5zM1106.5 321.5l49.9 9c3.3.6 6 3 7 6l16.1 46.8c1 3 .3 6.5-1.9 9l-33.8 37.8a9.8 9.8 0 01-9 3l-49.8-9c-3.3-.5-6-2.8-7-6l-16.1-46.7c-1-3-.3-6.6 1.9-9l33.8-37.8a9.8 9.8 0 019-3zM1174 895.6l49.7-9.7c3.3-.6 6.6.5 8.7 3l32 37.8c2 2.5 2.7 6 1.5 9.1l-17.8 47.4a9.8 9.8 0 01-7.3 6.2l-49.6 9.6c-3.3.7-6.7-.5-8.8-3l-32-37.7a9.2 9.2 0 01-1.5-9.2l17.8-47.4a9.8 9.8 0 017.3-6.1zM827.4 1212.5L840 1233l23.6 5.1-21.8 11.7-4 24.3-11.4-23.3-24.6-2.4 21.1-12 4.6-24zM663.2 1214l12.4 20.7 23.6 5.1-21.7 11.7-4 24.4-11.5-23.4-24.6-2.4 21.2-12 4.6-24zM511.5 1161.8l6 23.4 21 11.7-24.2 4.8-10.9 22.2-4.2-25.6-22.8-9.5 23.8-5.4 11.3-21.6zM1251.8 799.6l5.9 23.4 21 11.7-24.1 4.9-10.9 22.1-4.2-25.6-22.8-9.4 23.7-5.5 11.3-21.6zM360.1 1038l-2 24 16 18-24.5-3.4-17.6 17.3 4.5-25.5-18.4-16.5 24.2 2.7 17.8-16.6zM1280.9 630.3l-15.3 18.7 3 23.9-18.2-16.6-24.3 4.3 18.1-18.6-5.9-24 18.5 16 24-3.7zM278.9 893.6l-10.5 21.8 8.6 22.5-21.7-11.9-22.6 10 13.3-22.3-11.4-22 21.7 11.2 22.6-9.3zM253.5 751.6l-20 13.5-3.8 23.8-12.8-21.1-24.5-2.7 22.6-12.7 1.2-24.6 13.2 20.5 24.1 3.3zM1209.6 472.4l-24 1.7-15.3 18.7-.5-24.7-19.9-14.7 26 .4 13.3-20.7 1.2 24.3 19.2 15zM380.5 392.8l-20 13.6-3.8 23.8-12.8-21.2-24.5-2.7 22.6-12.6 1.2-24.7 13.2 20.5 24.1 3.3zM509.1 284.6l-20 13.5-3.8 23.8-12.8-21-24.6-2.8 22.7-12.7 1.2-24.6 13.2 20.5 24.1 3.3zM718 198.6l-12 20.8 6.8 23.2L692 229l-23.3 8.2 15-21.3-9.7-22.7 20.7 12.8 23.2-7.5zM906.9 233l-21.3 11.5-6.3 23.2-10.5-22.3-24.2-5.2 23.9-10.3 3.7-24.4 11 21.8 23.7 5.8zM290.3 530.2l-20 13.5-3.8 23.8-12.8-21-24.5-2.8 22.6-12.6 1.2-24.7 13.2 20.5 24.1 3.3zM1068.3 303.2l-20 13.5-3.8 23.8-12.8-21.1-24.6-2.7 22.7-12.7 1.2-24.6 13.1 20.5 24.2 3.3zM1000.2 1144.5l19.8 13.8 23.6-4.9-15.2 19.5 6.3 23.9-20-16.6-23.4 7.7 14.4-19.6-5.5-23.8zM1144 1017.3l16 18.1 24 1-19.4 15.2.3 24.7-15.3-21-24.6 2 18.7-15.6.4-24.4z" clip-rule="evenodd"/>
  <path fill="#000" fill-opacity=".1" d="M764.7 1305.3a9.2 9.2 0 0010 2.1l4.6-1.8a9.2 9.2 0 005.8-8.3l2.1-96.4a9.2 9.2 0 00-15.6-6.8l-69.2 67.2a9.2 9.2 0 00-2.1 10l1.8 4.5a9.2 9.2 0 008.4 5.8l34.2-3.7 20 27.4zM262.8 1040.6a9.2 9.2 0 004.3 9.3l4.2 2.5c3.2 2 7.2 1.8 10.2-.4l78-56.8a9.2 9.2 0 00-4.1-16.5L260 964.4a9.2 9.2 0 00-9.2 4.3l-2.6 4.2c-2 3.2-1.7 7.3.5 10.3l23.7 25-9.6 32.4zM240.4 455a9.2 9.2 0 00-4.7 9.2l.5 4.9c.5 3.6 3 6.7 6.6 7.7l92.6 27a9.2 9.2 0 0010.6-13.4l-47-84.2a9.2 9.2 0 00-9.1-4.6l-5 .5c-3.6.5-6.7 3-7.7 6.7l-5.2 34-31.6 12.3zM771.3 167.7a9.2 9.2 0 00-10.1-1.3l-4.4 2.2a9.2 9.2 0 00-5 8.8l6.6 96.2a9.2 9.2 0 0016.1 5.4l62.8-73.2a9.2 9.2 0 001.3-10l-2.2-4.5a9.2 9.2 0 00-9-5l-33.7 6.8-22.4-25.4zM1263.2 513.5c.7-3.6-1-7.3-4-9.3l-4.2-2.7c-3.1-2-7.1-2-10.2.1l-79.5 54.6a9.2 9.2 0 003.6 16.6l95 17c3.6.7 7.3-1 9.3-4l2.6-4.2c2-3.1 2-7.2-.1-10.2l-23-25.6 10.5-32.3z"/>
  <path fill="#000" fill-opacity=".1" fill-rule="evenodd" d="M1113.8 1073.1a38.5 38.5 0 00-53.7-8.7 38.5 38.5 0 00-11.2 53.2c13.6 19.8 56.3 31.5 68.6 34.5l3.4.8s8.8-56.6-7.1-79.8zm-42.5 31a13 13 0 1121.5-14.8 13 13 0 01-21.5 14.7zM634.8 1224.8a38.5 38.5 0 00-23.1-49.2 38.5 38.5 0 00-50.3 20.9c-8.6 22.4 5.8 64.2 10.3 76l1.2 3.2s51.7-24.6 61.9-50.9zm-49.5-17.5a13 13 0 1124.3 9.4 13 13 0 01-24.3-9.5zM266.7 870.8a38.5 38.5 0 0029-46 38.5 38.5 0 00-44.6-31.1c-23.6 4.8-51 39.5-58.6 49.6l-2 2.8s48.6 30.3 76.2 24.7zm-11.9-51.2A13 13 0 11260 845a13 13 0 01-5.2-25.5zM1263.4 697a38.5 38.5 0 00-53.4 10.8 38.5 38.5 0 008.3 53.7c19.7 13.8 63.8 9.7 76.3 8.2l3.5-.4s-11.6-56-34.7-72.2zm-29 44a13 13 0 1115-21.4 13 13 0 01-15 21.4zM382.6 370.8a38.5 38.5 0 0054 5.7 38.5 38.5 0 008.2-53.8c-14.6-19-57.9-28.3-70.3-30.6l-3.4-.6s-5.8 57 11.5 79.3zm40.6-33.3a13 13 0 11-20.6 16 13 13 0 0120.6-16zM923 265.1a38.5 38.5 0 0018.7 51.1 38.5 38.5 0 0051.8-16.3c10.7-21.6 0-64.5-3.4-76.7l-1-3.3s-53.7 20-66.1 45.2zm47.8 22a13 13 0 11-23.4-11.7 13 13 0 0123.4 11.6zM1333.4 1187.7l-58.6 29.4a12 12 0 01-12-.7l-53-36a11.9 11.9 0 01-5.1-10.8l5.5-65.4a12.6 12.6 0 017-10.2l58.6-29.4a12 12 0 0112 .7l53 36c3.5 2.3 5.5 6.5 5 10.8l-5.5 65.4a12.6 12.6 0 01-7 10.2zM632.1 1462l-45.1-47.7a12 12 0 01-2.8-11.7l19-61.1a12 12 0 019-8l64.1-13.6a12.6 12.6 0 0111.8 3.7l45.1 47.6c3 3.1 4.1 7.6 2.8 11.7l-19 61.1c-1.3 4-4.7 7.2-9 8l-64.1 13.6a12.6 12.6 0 01-11.8-3.7zM82.7 1041.4L49 985a11.9 11.9 0 01-.2-12l31.9-55.5c2.1-3.7 6.1-6 10.5-6l65.6.8a12.6 12.6 0 0110.6 6.1l33.8 56.3c2.2 3.7 2.3 8.3.2 12l-32 55.5a12 12 0 01-10.4 6l-65.6-.8a12.5 12.5 0 01-10.7-6.1zM169.1 281.6l46.1-46.6c3.1-3 7.6-4.3 11.6-3.2l61.8 17.1c4 1.1 7.2 4.5 8.3 8.7l15.6 63.7a12.6 12.6 0 01-3.3 11.9L263 379.8c-3.1 3-7.5 4.3-11.6 3.2l-61.8-17.1c-4-1.1-7.2-4.5-8.3-8.7l-15.6-63.7a12.6 12.6 0 013.3-11.9zM870 33.2l61.2-23.7c4-1.5 8.6-.8 11.9 1.9l49.3 40.8c3.3 2.7 4.8 7 4 11.3l-11.8 64.6a12.6 12.6 0 01-7.9 9.4l-61.1 23.7c-4.1 1.6-8.7.9-12-1.8l-49.3-40.9c-3.2-2.7-4.8-7-4-11.3l11.9-64.5a12.6 12.6 0 017.8-9.5zM1332.3 622.4l48.4-44.2c3.2-3 7.7-4 11.8-2.6l60.8 20.1c4 1.4 7 4.8 7.8 9.1l12.4 64.4a12.6 12.6 0 01-3.9 11.7l-48.4 44.3a12 12 0 01-11.8 2.6l-60.7-20.2a12 12 0 01-7.9-9l-12.4-64.5a12.7 12.7 0 014-11.7zM1163.2 1206.8l27.7 14.4 29.5-10.3-16.2 27.6 12 29.7-28.3-18-28.8 13.9 15.2-27.7-11.1-29.6zM982.7 1319.5l27.7 14.5 29.5-10.3-16.2 27.6 12 29.6-28.3-18-28.9 13.9 15.3-27.7-11.1-29.6zM779.6 1364.2L802 1386l31.2-1.3-23.5 21.7 3 31.9-22-25.5-31.6 5 22.6-22.1-2-31.5zM1353.5 463.8l22.3 21.8 31.3-1.3-23.5 21.7 3 31.9-22-25.5-31.6 5 22.5-22.1-2-31.5zM528.6 1329.5l14 28 29.8 9-29.3 12.8-7.7 31-12.4-31.2-31.4-5.8 28.6-13.4 8.4-30.4zM1271.3 256.9l-4.3 31 19.6 24.3-31.5-6-23.9 21.2 7.5-32.8-22.7-22.5 31.2 5.1 24.1-20.3zM341.3 1224.8l3 31.1 24.8 19.1-32 1.5-18.2 26.3-.4-33.6-27.4-16.6 31.5-2.3 18.7-25.5zM217.3 1084.9l-13 28.4 11.9 29-28.4-14.8-29 13.6 16.5-29.3-15.3-28 28.4 13.7 29-12.6zM1085.9 130.4l-25.5 18.1-4.3 31-17.2-27-31.8-2.7 29-17.1.7-32 17.7 26.1 31.4 3.6zM115.4 602.4L102.5 631l11.8 29L86 645l-29 13.6 16.6-29.3-15.4-28L86.5 615l29-12.7zM184.5 396l-13 28.4 11.9 28.9-28.4-14.7-29 13.6 16.5-29.4-15.4-28 28.5 13.8 29-12.7zM357.4 159.7l.7 31.3 23.2 21-32-1-20.2 24.8 2.2-33.6-26-18.6h31.5l20.6-23.9zM589.5 70.3l-15.8 27 8.7 30-26.7-17.6-30.2 10.5 19.4-27.5-12.4-29.5L559.4 80l30-9.6zM108.5 815.3l-13 28.4 11.9 29L79 857.8l-29 13.6 16.5-29.3-15.4-28 28.5 13.7 28.9-12.6zM815.3 38.8l-13 28.4 12 29-28.5-14.8-29 13.6 16.6-29.3-15.4-28 28.4 13.7 29-12.6zM1308.3 1015l31.2 2 22.8-21.5-3.6 31.8 23 22.2-33.2-4.9-20.7 24.4 2.7-31.5-22.2-22.5zM1381.4 777.1l29.8 9.4 27.3-15.2-11.1 30 17 27-31.1-12.8-26 18.7 10.2-29.9-16-27.2z" clip-rule="evenodd"/>
  <path fill="#000" fill-opacity=".1" d="M1156.5 1351.8a12 12 0 0012.6-4.4l3.8-5a12 12 0 00.8-13.2l-62.8-108a12 12 0 00-21.9 3l-31 121a12 12 0 004.3 12.5l5 3.8a12 12 0 0013.3.8l35.3-27.3 40.6 16.8zM422.8 1398.2a12 12 0 0011 7.3h6.4c4.8 0 9.1-2.9 11-7.3l47.8-115.5a12 12 0 00-15.7-15.5l-115 48.6a12 12 0 00-7.3 11v6.4c0 4.8 3 9.2 7.4 11l43.1 11.5 11.3 42.5zM2.5 766a12 12 0 001 13.2l3.9 5a12 12 0 0012.5 4.1l120.6-32.8a12 12 0 002.7-21.9l-109-61.2a12 12 0 00-13 1l-5.1 3.9a12 12 0 00-4.1 12.6L29.2 731 2.5 766zM395.5 89.5a12 12 0 00-12.1 5.4l-3.4 5.4a12 12 0 00.4 13.2l72.3 102a12 12 0 0021.5-5l20-123.4a12 12 0 00-5.4-12l-5.4-3.4a12 12 0 00-13.3.5l-32.7 30.3-42-13zM1173 139.7a12 12 0 00-11-7.6l-6.3-.2c-4.8 0-9.2 2.7-11.1 7l-51 114.1a12 12 0 0015.1 16l116.4-45.4a12 12 0 007.6-10.8l.2-6.3a12 12 0 00-7.1-11.2l-42.8-12.8-10-42.8z"/>
  <path fill="#000" fill-opacity=".1" fill-rule="evenodd" d="M1385.7 859.3c-24.6-11-53.8 1-65.3 26.6a49.8 49.8 0 0023.6 66.4c28.4 12.8 83.5-3.1 99.2-8.1l4.2-1.4s-28.4-68.5-61.7-83.5zm-26.1 63a16.9 16.9 0 1113.9-30.9 16.9 16.9 0 01-13.9 30.8zM958.5 1350.6a49.8 49.8 0 00-58.8-38.8 49.8 49.8 0 00-41.4 57c5.5 30.6 49.7 67 62.7 77.2l3.5 2.7s40.6-62.2 34-98zm-66.6 14a16.9 16.9 0 1133.3-6 16.9 16.9 0 01-33.3 6zM312.4 1207.7a49.8 49.8 0 001-70.4 49.8 49.8 0 00-70.4-4.2c-22.8 21.2-29.6 78-31.1 94.4l-.4 4.5s74.2.6 101-24.3zm-47.7-48.5a16.9 16.9 0 1123 24.8 16.9 16.9 0 01-23-24.8zM1297.1 342.5a49.8 49.8 0 00-51.7 47.9 49.8 49.8 0 0045.4 53.8c31 2 77-32.3 90-42.4l3.4-2.8s-50.7-54.2-87.1-56.5zm-2.3 68a16.9 16.9 0 112.1-33.6 16.9 16.9 0 01-2.1 33.7zM102.8 576.7a49.8 49.8 0 0063.7-30.2 49.8 49.8 0 00-27.3-65c-29-11.1-83.2 7.8-98.5 13.7l-4.2 1.6s32.2 66.8 66.3 79.9zm22.5-64.3a16.9 16.9 0 11-12.1 31.6 16.9 16.9 0 0112.1-31.6zM629 94.8a49.8 49.8 0 0055.1 43.9 49.8 49.8 0 0046.4-53.1c-2.9-31-43.7-71.2-55.7-82.4l-3.3-3S625.7 58.4 629 94.8zm67.6-8a16.9 16.9 0 11-33.7 3 16.9 16.9 0 0133.7-3z" clip-rule="evenodd"/>
</svg>
