<svg xmlns="http://www.w3.org/2000/svg" fill="none" viewBox="0 0 343 70">
  <path fill="#F8F8F8" fill-rule="evenodd" d="M333.3 30.4v-10c0-2.2.2-4 2.1-5.3.4-.2 1.4-.8 2.6-.8a5 5 0 012.5.8c1.9 1.2 2 3 2 5.2v35.2a5 5 0 01-1.9 4c-1 .8-2 .9-2.6.9-1 0-1.6-.3-1.9-.5-1.1-.5-2-1.6-2.6-2.7l-.2.1c-1.2 1.2-3.5 3.4-7.7 3.4-1.1 0-3.6-.2-6.1-1.7-5.2-3-8-9.1-8-15 0-2.8.7-10.6 7.6-14.6.9-.6 3.5-2 6.9-2 3 0 4.8 1.2 7.3 3zM63.8 51.6c-.1.3-.4.8-.5 1.5-.2 1 0 2.7 1.6 4.2 3.8 3.5 11.3 3.5 12.3 3.5 3.6 0 5.8-.5 7.2-1 3-1.2 8.7-4.5 8.7-13 0-.9 0-2.8-.8-4.8-1.9-4.7-7.1-6.7-8.6-7.3h-.1c-1.4-.6-2.7-1-4-1.3h-.2c-1.6-.5-4.1-1.2-5.2-2.5-.4-.5-.4-1-.4-1.3 0-.3 0-.8.4-1.6.7-1 1.8-2 4.6-2 1.2 0 2.3.2 2.7.4l1.4.4c1 .4 1.7.7 3 .7 2.6 0 3.6-2 4-3 .2-.6.2-1 .2-1.4 0-1-.5-2-1.1-2.9-.8-1-1.8-1.5-2.3-1.8l-.1-.1c-1.3-.6-4-1.5-7.8-1.5-8 0-12 3.9-13.6 6.9-1.2 2-1.7 4.2-1.7 6.5 0 2.5.5 7.2 6.2 9.9l1.4.6c.3 0 .5.2.7.3l4.8 1.5 1 .3c1.8.6 3 1 3.9 1.7.9.7 1.3 1.9 1.3 3 0 1.8-1.2 3.1-2.7 3.7-.8.2-1.5.4-2.3.4-2.2 0-4.4-.7-5.3-1l-.3-.1L71 50a9 9 0 00-3.2-.8c-1.6 0-3 1-4 2.4zM110 28.2h-1.5l-.1-2.7a45.9 45.9 0 010-2.9c0-.2 0-1.1-.2-1.9-.5-1.7-2.3-3-4.2-3a5 5 0 00-4.4 2.9 8 8 0 00-.3 3.4v4.2c-2 0-3.6.3-4.7 2-.2.4-.7 1.2-.7 2.3 0 .5 0 1.3.7 2.3 1 1.7 2.7 1.9 4.6 2v17.4c0 2.2.1 4 2.1 5.3a4 4 0 002.5.7c1 0 1.9-.3 2.6-1 1.9-1.3 2-3.1 2-5.4v-17c2.4 0 3.7 0 4.7-.6 1.2-.7 2.1-2.2 2.1-3.7 0-1.3-.6-2.2-.8-2.6-1.2-1.5-2.6-1.7-4.4-1.7zm15.4 15.9V54c0 2.1-.2 4-1.8 5.3-.8.6-1.8 1-2.8 1a5 5 0 01-2.6-.9c-1.9-1.3-2-3-2-5V34.1l.1-1.8a4.6 4.6 0 014.7-4.5 4 4 0 011.6.3c1.4.4 2.1 1.6 2.9 3 1.8-1.6 3.8-3.5 6.4-3.5.9 0 1.7.3 2 .5a5 5 0 012.6 4.2c0 .4 0 1.3-.7 2.1-1 1.2-2.5 1.7-4 2-.2.2-.5.3-.7.3l-.3.1c-.8.3-2.7 1-4 2.5-1.3 1.3-1.4 2.7-1.4 4.7zm20.1 3h18.3c.6-.2 1-.5 1.5-1 1-1 1-2.4 1-2.9 0-.6 0-1.7-.3-3-.6-3.5-2.1-6.3-4.8-8.7-3.9-3.6-8-4-10-4a15 15 0 00-12.4 6.4c-3 4.1-3.2 8.4-3.2 10.3 0 2.3.4 8.2 5.2 12.4 4.2 3.8 9 4 11 4 1.5 0 7.4-.2 11.4-3.3 2-1.5 2.5-2.7 2.5-4 0-1.9-1-2.9-1.6-3.2-.8-.5-1.7-.6-2-.6-1.4 0-2.8.7-4.1 1.4l-.5.2a9.4 9.4 0 01-4.7 1.3 7.8 7.8 0 01-6.5-3.3c-.3-.5-.5-.9-.8-2zm-.4-6.3h12.2c0-.5-.2-1-.4-1.6-.2-.7-.7-2.4-2.7-3.4-.5-.3-1.5-.8-2.8-.8a6.3 6.3 0 00-5.4 3.4c-.5.8-.7 1.6-1 2.4zm34.3 6.3h18.2c.6-.2 1-.5 1.6-1 1-1 1-2.4 1-2.9 0-.6 0-1.7-.3-3-.7-3.5-2.2-6.3-4.8-8.7-4-3.6-8-4-10-4a15 15 0 00-12.4 6.4c-3 4.1-3.3 8.4-3.3 10.3 0 2.3.5 8.2 5.2 12.4 4.3 3.8 9 4 11.1 4 1.5 0 7.3-.2 11.4-3.3 2-1.5 2.4-2.7 2.5-4 0-1.9-1.1-2.9-1.7-3.2-.7-.5-1.7-.6-2-.6-1.4 0-2.8.7-4 1.4l-.5.2a9.4 9.4 0 01-4.8 1.3 7.8 7.8 0 01-6.4-3.3c-.4-.5-.6-.9-.8-2zm-.5-6.3h12.3l-.4-1.6c-.3-.7-.8-2.4-2.8-3.4-.4-.3-1.4-.8-2.8-.8a6.3 6.3 0 00-5.4 3.4l-.9 2.4zM217 28.2h-1.5v-2.7V24v-1.4c0-.2 0-1.1-.2-1.9-.6-1.7-2.4-3-4.3-3a5 5 0 00-4.4 2.9 8 8 0 00-.3 3.2v4.4c-2 0-3.5.3-4.6 2-.3.4-.7 1.2-.7 2.3 0 .5 0 1.3.6 2.3 1.1 1.7 2.7 1.9 4.7 2v17.4c0 2.2 0 4 2 5.3a4 4 0 002.5.7c1 0 2-.3 2.7-1 1.8-1.3 1.9-3.1 2-5.4v-17c2.4 0 3.7 0 4.7-.6 1.2-.7 2-2.2 2-3.7.1-1.3-.5-2.2-.8-2.6-1.1-1.5-2.6-1.7-4.4-1.7zm5.4 9.7c0-2.1.4-8.4 4.3-13.4 1.7-2.3 4-4.1 6.5-5.4 1.7-.9 5-2.3 9.8-2.3 3 0 7.7.8 10.1 2.7 1.3 1 2.2 2.5 2.2 4 0 1.1-.5 2.3-1.2 3-.4.6-1.1 1.3-2.7 1.3-1.2 0-2.2-.4-3.2-.7l-1.2-.4c-2-.6-3.4-.8-4.2-.8-.5 0-1.7.1-3.2.6-3 1.1-7.1 4.5-7.1 12.2 0 .9 0 3.2.8 5.4.7 2 3.2 7.3 9.8 7.3 1.3 0 2.5-.1 4.8-1l1.3-.4c1.1-.5 1.8-.7 2.6-.7.4 0 .8 0 1.5.4 1.5.7 2.4 2.3 2.4 4 0 2.4-1.4 3.7-3.3 4.9a17 17 0 01-9.4 2.1c-.8 0-3 0-5.1-.5-3.9-.8-7.6-2.9-10.3-6a24.3 24.3 0 01-5.2-16.3zm45.1 16v-9.8c0-2 .1-3.4 1.4-4.7 1.4-1.4 3.2-2.2 4-2.5h.3l.8-.3c1.4-.4 3-.9 4-2 .6-1 .6-1.8.6-2.2a5 5 0 00-2.6-4.2c-.3-.2-1.1-.5-2-.5-2.5 0-4.6 1.9-6.4 3.5-.8-1.4-1.5-2.6-2.9-3a4.6 4.6 0 00-4.3.5 4.6 4.6 0 00-2 3.7V54.3c0 2.2 0 3.8 2 5.1a5 5 0 002.6.8c.9 0 2-.3 2.7-1 1.6-1.2 1.8-3 1.8-5.2zM304 47h-16.3c.3 1.2.5 1.6.9 2.1.7 1 2.8 3.3 6.4 3.3 1.2 0 2.5-.1 4.7-1.3H300l.2-.2c1.3-.7 2.7-1.4 4-1.4.4 0 1.3 0 2.1.6.5.3 1.7 1.3 1.7 3.3-.1 1.2-.5 2.4-2.5 4-4.1 3-10 3.3-11.4 3.3-2 0-6.8-.3-11.1-4.1a16.7 16.7 0 01-5.2-12.4c0-1.9.3-6.2 3.3-10.3a15 15 0 0112.3-6.4c2 0 6.2.4 10 4 2.7 2.4 4.2 5.2 4.9 8.8l.3 2.8v.1c0 .5 0 1.9-1 3-.5.4-1 .7-1.6.8h-2zm-4.4-6.2h-12.3c.2-.8.4-1.6 1-2.4 1-2 3-3.4 5.3-3.4 1.4 0 2.4.5 2.8.8 2 1 2.5 2.7 2.8 3.4l.4 1.6zM327 51.9c-2.6 0-6.7-2-6.4-8.3.2-2.7 1.2-5.3 3.6-6.6.4-.3 1.5-.8 2.9-.8 2.7 0 5 2 5.8 4.5.5 1.2.5 2.7.5 3 0 1-.2 5.5-3.4 7.4-1.2.7-2.5.8-3 .8z" clip-rule="evenodd"/>
  <path fill="#A159FF" fill-rule="evenodd" d="M43 46.1l8.2-7.8c.6-.6 1-1.3 1-2.7v-10c0 .8-.6 2-1 2.4L43 35.8V46zM0 56.3c0 1.6.5 2.4 1.1 3L9 66.7a9 9 0 006.2 2.5 9 9 0 006.3-2.5l8.4-8 .4-.4V47.4l-.4.4-9 8.7a8 8 0 01-5.7 2.2 8 8 0 01-5.5-2.2l-8.4-8C.5 47.7 0 47 0 46.5v9.8z" clip-rule="evenodd"/>
  <path fill="#5D3491" d="M32.1 36L43 46.1V35.8l-5.4-5.2L32 36z"/>
  <path fill="#B882FF" fill-rule="evenodd" d="M51.2 28.2c.6-.6 1-1.3 1-2.7v-10c0 .7-.6 2-1 2.4L43 25.7V36l8.2-7.8zm-21 9.1a5 5 0 01-.4.4l-9 8.7a8 8 0 01-5.7 2.2 8 8 0 01-5.5-2.2l-8.4-8a4 4 0 01-1.2-2v9.8c0 1.5.4 2.3 1 2.9l8 7.5A9 9 0 0015 59a9 9 0 006.3-2.4l8.4-8 .4-.4V37.3z" clip-rule="evenodd"/>
  <path fill="#5E3E87" d="M37.6 30.8L43 36V25.7l-5.4 5.1z"/>
  <path fill="#DCC2FF" d="M51.2 18l-2 1.8-27.8 26.5a9 9 0 01-6.3 2.5A9 9 0 019 46.3L1.1 39C.5 38.3 0 37.5 0 36V26c.1.6.6 1.6 1 2l8.6 8.2a8 8 0 005.5 2.2 8 8 0 005.6-2.2l23.8-22.7L51 7.1c.5-.4 1.1-1.4 1.3-2.1l-.1 10.2c0 1.4-.5 2.2-1.1 2.8z"/>
  <path fill="#F8F8F8" d="M15.1 38.5A9 9 0 019 36l-7.5-7a4.5 4.5 0 010-6.6 5 5 0 017 0l6.7 6.4 29-27.4a5 5 0 016.8 0 4.5 4.5 0 010 6.5L21.4 36a9 9 0 01-6.3 2.5z"/>
</svg>
