<svg xmlns="http://www.w3.org/2000/svg" fill="none" viewBox="0 0 52 70">
  <path fill="#A159FF" fill-rule="evenodd" d="M43 46.1l8.2-7.8c.6-.6 1-1.3 1-2.7v-10c0 .8-.6 2-1 2.4L43 35.8V46zM0 56.3c0 1.6.5 2.4 1.1 3L9 66.7a9 9 0 006.2 2.5 9 9 0 006.3-2.5l8.4-8 .4-.4V47.4l-.4.4-9 8.7a8 8 0 01-5.7 2.2 8 8 0 01-5.5-2.2l-8.4-8C.5 47.7 0 47 0 46.5v9.8z" clip-rule="evenodd"/>
  <path fill="#5D3491" d="M32.1 36L43 46.1V35.8l-5.4-5.2L32 36z"/>
  <path fill="#B882FF" fill-rule="evenodd" d="M51.2 28.2c.6-.6 1-1.3 1-2.7v-10c0 .7-.6 2-1 2.4L43 25.7V36l8.2-7.8zm-21 9.1a5 5 0 01-.4.4l-9 8.7a8 8 0 01-5.7 2.2 8 8 0 01-5.5-2.2l-8.4-8a4 4 0 01-1.2-2v9.8c0 1.5.4 2.3 1 2.9l8 7.5A9 9 0 0015 59a9 9 0 006.3-2.4l8.4-8 .4-.4V37.3z" clip-rule="evenodd"/>
  <path fill="#5E3E87" d="M37.6 30.8L43 36V25.7l-5.4 5.1z"/>
  <path fill="#DCC2FF" d="M51.2 18l-2 1.8-27.8 26.5a9 9 0 01-6.3 2.5A9 9 0 019 46.3L1.1 39C.5 38.3 0 37.5 0 36V26c.1.6.6 1.6 1 2l8.6 8.2a8 8 0 005.5 2.2 8 8 0 005.6-2.2l23.8-22.7L51 7.1c.5-.4 1.1-1.4 1.3-2.1l-.1 10.2c0 1.4-.5 2.2-1.1 2.8z"/>
  <path fill="#F8F8F8" d="M15.1 38.5A9 9 0 019 36l-7.5-7a4.5 4.5 0 010-6.6 5 5 0 017 0l6.7 6.4 29-27.4a5 5 0 016.8 0 4.5 4.5 0 010 6.5L21.4 36a9 9 0 01-6.3 2.5z"/>
</svg>
