<svg xmlns="http://www.w3.org/2000/svg" fill="none" viewBox="0 0 496 532">
  <path fill="#00E866" fill-rule="evenodd" d="M202.3 524.2L17.9 393.6A42 42 0 01.4 355.5l21.3-224a42 42 0 0124.4-34.2L251.8 3.8a42.4 42.4 0 0142 4L478 138.4a42 42 0 0117.5 38.1l-21.3 224a42 42 0 01-24.4 34.2l-205.7 93.5a42.4 42.4 0 01-42-4z" clip-rule="evenodd"/>
  <mask id="mask0" width="496" height="532" x="0" y="0" maskUnits="userSpaceOnUse">
    <path fill="#00E866" fill-rule="evenodd" d="M202.3 524.2L17.9 393.6A42 42 0 01.4 355.5l21.3-224a42 42 0 0124.4-34.2L251.8 3.8a42.4 42.4 0 0142 4L478 138.4a42 42 0 0117.5 38.1l-21.3 224a42 42 0 01-24.4 34.2l-205.7 93.5a42.4 42.4 0 01-42-4z" clip-rule="evenodd"/>
  </mask>
  <g fill-rule="evenodd" clip-rule="evenodd" mask="url(#mask0)">
    <path fill="#FA00FF" d="M349.4 264.4s-.1-1.6-1.6-1.2c-1.4.4-1.7 1.2-1 1.8.6.6 1.8.4 2.6-.6z"/>
    <path fill="#FFF500" d="M345.4 266.6s0-1.6-1-1.2c-1 .3-1.2 1.2-.7 1.7.4.6 1.2.5 1.7-.5z"/>
    <path fill="#FA00FF" d="M329.6 217.5s-.1-1.6-1-1.1c-1 .4-1.2 1.2-.7 1.8.5.5 1.3.3 1.7-.7z"/>
    <path fill="#FFF500" d="M278.3 273.8s-.9-1.7-1.5-.3c-.7 1.4-.4 2.5.3 2.7.8.2 1.4-.7 1.2-2.4z"/>
    <path fill="#F51E01" d="M266.5 178.2s-.1-1.5-1-1c-1 .4-1.2 1.2-.7 1.8.5.5 1.3.3 1.7-.8z"/>
    <path fill="#FA00FF" d="M241.9 114.7s0-2.4-1-1.8c-1 .5-1.2 1.7-.8 2.6.5.9 1.3.7 1.8-.8z"/>
    <path fill="#F1F68E" d="M235 259s0-1.6-1-1.3c-1 .4-1.2 1.2-.8 1.8.5.6 1.3.5 1.8-.5z"/>
    <path fill="#9DB4FF" d="M195.8 384s2.9.4 2.7-1.3c-.2-1.7-1.7-2.2-3-1.6-1.2.6-1.4 1.9.3 3z"/>
    <path fill="#A6133B" d="M245 362.3s3 .3 2.8-1.4c-.2-1.7-1.7-2.2-3-1.6-1.2.6-1.4 1.9.3 3z"/>
    <path fill="#FFF500" d="M245.8 209.3s-.4-3.8-2.3-2.6c-1.8 1.3-2 3.4-1 4.6 1 1.2 2.5.7 3.3-2zM191.5 529s2.2.3 2-1.4c0-1.7-1.2-2.2-2.2-1.6-1 .6-1 1.9.2 3zM474.6 104.6s-.4-2.2-2.3-1.5c-1.9.8-2 2-1 2.8 1 .7 2.5.4 3.3-1.3z"/>
    <path fill="#F51E01" d="M17 397.6s.3 2.3 1.7 1.6c1.4-.7 1.6-2 .9-2.7-.8-.8-2-.5-2.5 1.1z"/>
    <path fill="#9DB4FF" d="M474.5 101.9s2.2.3 2-1.4c0-1.7-1.2-2.2-2.1-1.6-1 .6-1.1 1.9.1 3z"/>
    <path fill="#00EB9B" d="M315 501.2s-.6 2.2.4 2.6c1 .5 1.5-.5 1.4-1.8-.1-1.3-.8-1.8-1.7-.8z"/>
    <path fill="#F51E01" d="M309.2 509.7s-.7 1.5.3 1.8c1 .3 1.5-.4 1.4-1.2-.1-.9-.8-1.2-1.7-.6zM39.2 62.6s1.5.4 1.5-.7c0-1.2-.6-1.6-1.3-1.3-.7.3-1 1.1-.2 2zM39.2 53.9s1.5.4 1.5-.8c0-1.1-.6-1.6-1.3-1.2-.7.3-1 1.1-.2 2z"/>
    <path fill="#FFF500" d="M11.8 96.4s2-.8 1-2.2c-.8-1.4-2-1.3-2.5-.3s0 2.2 1.5 2.5z"/>
    <path fill="#FA00FF" d="M455.6 434.2s1.9-.8 1-2.2c-.9-1.4-2-1.3-2.5-.3s0 2.2 1.5 2.5zM480.7 245s-.6 1.5.3 1.7c1 .3 1.6-.4 1.5-1.2-.2-.8-.9-1.2-1.8-.5z"/>
  </g>
</svg>
