<svg xmlns="http://www.w3.org/2000/svg" fill="none" viewBox="0 0 367 368">
  <path fill="#FFC500" d="M183.5 367a183.5 183.5 0 110-367 183.5 183.5 0 010 367z"/>
  <path fill="#F0AE00" d="M367 184.4A183.5 183.5 0 110 179c3 98.5 84 167.3 183.5 167.3S364 277.5 366.9 179l.1 5.4z"/>
  <path fill="#FFD33D" d="M323.8 178.1c0 74.5-62.8 135-140.3 135-77.5 0-140.3-60.5-140.3-135s62.8-135 140.3-135c77.5 0 140.3 60.5 140.3 135z"/>
  <path fill="#fff" d="M280.6 194.3l18.4 46.4 46.4 18.4-48.3 16.4-16.5 48.3-15.4-51.4-49.3-13.3 47.3-17.5 17.4-47.3z"/>
</svg>
