<svg xmlns="http://www.w3.org/2000/svg" fill="none" viewBox="0 0 50 50">
  <path fill="#87947C" fill-opacity=".5" d="M28.7 50c2.7 0 5-.7 5-1.5s-2.3-1.4-5-1.4-4.9.6-4.9 1.4c0 .8 2.2 1.5 5 1.5z"/>
  <path fill="#FFD33D" d="M18.5 38.6s2 1.5 8.4 1c6.3-.4 9-2.2 9-2.2-2.6 5-5.1 8.6-7.8 10.7-3.3-3.6-6.6-6.8-9.6-9.5z"/>
  <path fill="#EFB900" d="M18.5 38.6c1.4-1.2 4.1-2 8-2.2 3.9-.3 7 0 9.5.9a17 17 0 01-8.9 2.7c-4 .4-6.8-.1-8.6-1.4z"/>
  <path fill="#FFC500" d="M25.3 35.3a17.1 17.1 0 110-34.3 17.1 17.1 0 010 34.3z"/>
  <path fill="#F0AE00" d="M42.4 18.1a17.1 17.1 0 11-34.2-.5c.2 9.2 7.8 15.7 17 15.7 9.4 0 17-6.5 17.2-15.7v.5z"/>
  <path fill="#FFD33D" d="M38.4 17.6c0 7-5.9 12.6-13.1 12.6-7.3 0-13.1-5.6-13.1-12.6S18 5 25.2 5c7.3 0 13.2 5.7 13.2 12.6z"/>
  <path fill="#fff" d="M34.3 19.1l1.8 4.4 4.3 1.7-4.5 1.5-1.6 4.5-1.4-4.8-4.6-1.2 4.4-1.6 1.6-4.5z"/>
</svg>
