<svg xmlns="http://www.w3.org/2000/svg" fill="none" viewBox="0 0 269 46">
  <path fill="#F8F8F8" fill-rule="evenodd" d="M260 16.2V6.7c0-2.1.2-3.9 2-5.1.4-.3 1.4-.8 2.6-.8 1 0 2 .5 2.3.7 1.8 1.2 2 3 2 5v33.6l-.1.3c0 .8-.1 2.4-1.8 3.7-1 .9-2 1-2.5 1-.9 0-1.5-.4-1.8-.5a6.3 6.3 0 01-2.5-2.6l-.2.1c-1.1 1.1-3.3 3.3-7.4 3.3-1 0-3.4-.2-5.9-1.6a17 17 0 01-7.6-14.6c0-2.6.6-10 7.2-13.9a13 13 0 016.7-1.9c2.9 0 4.6 1.2 7 2.8zM1.3 36.6c-.1.3-.4.8-.5 1.4-.2 1 0 2.6 1.5 4 3.6 3.5 11 3.4 11.8 3.4h.1a19 19 0 006.8-1c2.9-1 8.4-4.3 8.4-12.5 0-.7 0-2.6-.8-4.5-1.8-4.5-6.8-6.5-8.2-7h-.1c-1.3-.5-2.6-1-3.9-1.3h-.1c-1.6-.4-4-1-5-2.4-.4-.5-.4-1-.4-1.2 0-.3 0-.8.4-1.5.6-1 1.7-2 4.3-2a9.7 9.7 0 014 .8c.9.4 1.7.7 2.8.7 2.6 0 3.6-1.9 3.9-2.8l.2-1.4c0-1-.4-2-1-2.8-.8-1-1.7-1.5-2.2-1.8H23C22 4 19.3 3.1 15.6 3.1 8 3.2 4.2 6.9 2.6 9.8 1.5 11.7 1 13.8 1 16s.5 7 6 9.4c.4.3.8.4 1.3.6l.7.3 4.5 1.4 1 .3c1.8.7 3 1 3.7 1.7.9.7 1.3 1.8 1.3 3 0 1.6-1.1 2.9-2.6 3.4-.7.3-1.4.4-2.2.4-2.1 0-4.2-.7-5-1h-.3L8.2 35a8.6 8.6 0 00-3.1-.8c-1.5 0-3 .9-3.8 2.3zm44.3-22.4h-1.5v-2.7-1.4-1.3c0-.3 0-1.1-.2-1.8-.5-1.7-2.3-3-4-3a4.9 4.9 0 00-4.3 2.8c-.4 1-.3 2.6-.3 3.1v4.2c-1.9.1-3.4.3-4.4 2-.3.3-.7 1.1-.7 2.2 0 .4 0 1.3.6 2.2 1 1.6 2.6 1.8 4.5 1.9V39c0 2.1.1 3.9 2 5a4 4 0 002.4.8c.9 0 1.8-.3 2.5-1 1.8-1.2 1.8-3 1.9-5.1V22.4c2.3 0 3.6 0 4.5-.6 1.2-.7 2-2.1 2-3.5 0-1.2-.5-2.1-.8-2.5-1-1.5-2.5-1.6-4.2-1.6zm14.8 15.2v9.5c0 2-.2 3.8-1.8 5-.7.7-1.7 1-2.6 1-.9 0-1.7-.3-2.5-.8-1.8-1.3-1.8-2.8-1.8-4.9V20v-1.7a4.4 4.4 0 014.5-4.4c.7 0 1.3.2 1.5.3 1.4.5 2 1.6 2.8 2.9 1.7-1.5 3.7-3.3 6.1-3.3.9 0 1.7.3 2 .4 1.4.8 2.5 2.4 2.5 4 0 .5 0 1.3-.7 2-1 1.2-2.4 1.7-3.8 2-.2.2-.5.3-.8.3l-.2.1c-.8.3-2.6 1-3.8 2.3-1.3 1.4-1.3 2.7-1.4 4.6zm19.3 2.9h17.6c.5-.2 1-.5 1.4-.9 1-1 1-2.3 1-2.9 0-.5 0-1.6-.3-2.8-.6-3.4-2-6-4.6-8.4a14.1 14.1 0 00-9.6-3.8c-2.4 0-8 .7-11.9 6.1-2.8 4-3.1 8.1-3.1 9.9 0 2.2.4 7.9 5 11.9 4 3.6 8.7 4 10.6 4 1.4 0 7-.3 11-3.3 1.9-1.5 2.3-2.6 2.3-3.8 0-1.8-1-2.8-1.6-3.2a4 4 0 00-1.9-.5c-1.3 0-2.7.7-3.9 1.3l-.5.3a9 9 0 01-4.5 1.2 7.5 7.5 0 01-6.2-3.2c-.3-.5-.5-.8-.8-2zm-.4-6h11.8l-.4-1.6c-.3-.7-.8-2.3-2.6-3.3a6 6 0 00-2.8-.7 6 6 0 00-5.1 3.2 7 7 0 00-.9 2.3zm33 6h17.5c.5-.2 1-.5 1.4-.9 1-1 1-2.3 1-2.9 0-.5 0-1.6-.3-2.8-.6-3.4-2-6-4.6-8.4a14.1 14.1 0 00-9.6-3.8c-2.4 0-8 .7-12 6.1-2.7 4-3 8.1-3 9.9 0 2.2.4 7.9 5 11.9 4 3.6 8.7 4 10.6 4 1.4 0 7-.3 11-3.3 1.9-1.5 2.3-2.6 2.3-3.8 0-1.8-1-2.8-1.6-3.2a4 4 0 00-1.9-.5 9 9 0 00-3.9 1.3l-.5.3a9 9 0 01-4.5 1.2 7.5 7.5 0 01-6.2-3.2c-.3-.5-.5-.8-.8-2zm-.5-6h11.8l-.4-1.6c-.3-.7-.8-2.3-2.7-3.3a6 6 0 00-2.7-.7 6 6 0 00-5.1 3.2 7 7 0 00-.9 2.3zm36.6-12.1h-1.5v-2.7-1.4-1.3c0-.3 0-1.1-.2-1.8-.5-1.7-2.3-3-4.1-3a4.9 4.9 0 00-4.2 2.8c-.4 1-.3 2.6-.3 3.1v4.2c-2 .1-3.4.3-4.5 2-.2.3-.7 1.1-.7 2.2 0 .4.1 1.3.7 2.2 1 1.6 2.6 1.8 4.5 1.9V39c0 2.1 0 3.9 2 5a4 4 0 002.3.8c1 0 1.8-.3 2.6-1 1.7-1.2 1.8-3 1.9-5.1V22.4c2.3 0 3.5 0 4.5-.6 1.1-.7 2-2.1 2-3.5 0-1.2-.6-2.1-.8-2.5-1-1.5-2.5-1.6-4.2-1.6zm5.1 9.2c0-2 .5-8 4.2-12.9a20 20 0 0115.7-7.3c2.8 0 7.3.8 9.6 2.6 1.2 1 2.1 2.4 2.1 3.8 0 1.1-.4 2.2-1.1 3-.4.5-1.1 1.2-2.7 1.2-1 0-2-.4-3-.7l-1.2-.4c-1.8-.6-3.2-.7-4-.7-.5 0-1.6 0-3 .6-3 1-6.9 4.2-6.9 11.6 0 .9 0 3 .8 5.2.7 2 3 7 9.4 7a12 12 0 004.6-1c.5 0 .9-.2 1.2-.4a7 7 0 012.6-.6c.3 0 .7 0 1.4.4 1.5.7 2.3 2.2 2.3 3.8 0 2.3-1.4 3.6-3.1 4.7-2 1-4.3 2-9 2-.8 0-3 0-5-.4-3.7-.8-7.3-2.8-9.8-5.7a23.3 23.3 0 01-5-15.8zM196.8 39v-9.5c.1-2 .2-3.2 1.4-4.6a10.5 10.5 0 014.9-2.6c1.4-.4 2.8-.9 3.7-2 .7-.8.7-1.6.7-2 0-1.7-1-3.3-2.5-4.1-.3-.1-1-.4-2-.4-2.4 0-4.3 1.8-6 3.3-.8-1.3-1.5-2.4-2.8-2.9-.3-.1-.8-.3-1.6-.3-.5 0-1.5 0-2.6.8-1.7 1.2-1.8 2.8-1.8 3.6l-.1 1.7v19.3c0 2 0 3.6 1.9 4.9.7.5 1.6.8 2.5.8.9 0 1.8-.3 2.6-1 1.6-1.2 1.7-3 1.7-5zm35-6.7h-15.6c.2 1.2.4 1.5.8 2 .6 1 2.7 3.2 6.1 3.2a9 9 0 005-1.5c1.3-.6 2.6-1.3 4-1.3a4 4 0 011.9.5c.5.4 1.6 1.4 1.6 3.2 0 1.2-.5 2.3-2.4 3.8-4 3-9.5 3.2-10.9 3.2-2 0-6.6-.3-10.7-3.9a16 16 0 01-5-11.9c0-1.8.3-6 3.1-9.9 4-5.4 9.5-6.1 12-6.1 1.8 0 5.8.4 9.6 3.8 2.5 2.3 4 5 4.6 8.4l.3 2.8a4 4 0 01-1 2.9c-.5.4-1 .7-1.5.8h-2zm-4.3-6h-11.7a7 7 0 01.8-2.3 6 6 0 015.2-3.2 6 6 0 012.7.7c1.9 1 2.4 2.6 2.6 3.3l.4 1.5zM254 37c-2.4 0-6.4-2-6-8 0-2.6 1-5 3.4-6.3.4-.3 1.4-.8 2.7-.8 2.6 0 4.8 2 5.6 4.3.5 1.2.5 2.6.5 3 0 .9-.1 5.2-3.3 7-1.2.7-2.4.8-2.9.8z" clip-rule="evenodd"/>
</svg>
