<svg xmlns="http://www.w3.org/2000/svg" fill="none" viewBox="0 0 522 520">
  <path fill="#FFD33D" fill-rule="evenodd" d="M308.3 518L90 460a42 42 0 01-29.8-29.7L2 213a42 42 0 0111-40.6L173 13a42.4 42.4 0 0140.7-11L432 60.2a42 42 0 0129.8 29.7L520 307.2a42 42 0 01-11 40.5L349 507.1a42.4 42.4 0 01-40.7 11z" clip-rule="evenodd"/>
  <mask id="mask0" width="522" height="520" x="0" y="0" maskUnits="userSpaceOnUse">
    <path fill="#FFD33D" fill-rule="evenodd" d="M308.3 518L90 460a42 42 0 01-29.8-29.7L2 213a42 42 0 0111-40.6L173 13a42.4 42.4 0 0140.7-11L432 60.2a42 42 0 0129.8 29.7L520 307.2a42 42 0 01-11 40.5L349 507.1a42.4 42.4 0 01-40.7 11z" clip-rule="evenodd"/>
  </mask>
  <g fill-rule="evenodd" clip-rule="evenodd" mask="url(#mask0)">
    <path fill="#fff" d="M348.4 256.4s-.1-1.6-1.6-1.2c-1.4.4-1.7 1.2-1 1.8.6.6 1.8.4 2.6-.6z"/>
    <path fill="#8D3DFA" d="M344.4 258.6s0-1.6-1-1.2c-1 .3-1.2 1.2-.7 1.7.4.6 1.2.5 1.7-.5z"/>
    <path fill="#fff" d="M328.6 209.5s-.1-1.6-1-1.1c-1 .4-1.2 1.2-.7 1.8.5.5 1.3.3 1.7-.7z"/>
    <path fill="#8D3DFA" d="M277.3 265.8s-.9-1.7-1.5-.3c-.7 1.4-.4 2.5.3 2.7.8.2 1.4-.7 1.2-2.4z"/>
    <path fill="#F51E01" d="M265.5 170.2s-.1-1.5-1-1c-1 .4-1.2 1.2-.7 1.8.5.5 1.3.3 1.7-.8z"/>
    <path fill="#fff" d="M240.9 106.7s0-2.4-1-1.8c-1 .5-1.2 1.7-.8 2.6.5.9 1.3.7 1.8-.8z"/>
    <path fill="#F1F68E" d="M234 251s0-1.6-1-1.3c-1 .4-1.2 1.2-.8 1.8.5.6 1.3.5 1.8-.5z"/>
    <path fill="#9DB4FF" d="M194.8 376s2.9.4 2.7-1.3c-.2-1.7-1.7-2.2-3-1.6-1.2.6-1.4 1.9.3 3z"/>
    <path fill="#A6133B" d="M244 354.3s3 .3 2.8-1.4c-.2-1.7-1.7-2.2-3-1.6-1.2.6-1.4 1.9.3 3z"/>
    <path fill="#8D3DFA" d="M244.8 201.3s-.4-3.8-2.3-2.6c-1.8 1.3-2 3.4-1 4.6 1 1.2 2.5.7 3.3-2zM190.5 521s2.2.3 2-1.4c-.1-1.7-1.2-2.2-2.2-1.6-1 .6-1 1.9.2 3zM473.6 96.6s-.4-2.2-2.3-1.5c-1.9.8-2 2-1 2.8 1 .7 2.5.4 3.3-1.3z"/>
    <path fill="#F51E01" d="M16 389.6s.3 2.3 1.7 1.6c1.4-.7 1.6-2 .9-2.7-.8-.8-2-.5-2.5 1.1z"/>
    <path fill="#9DB4FF" d="M473.5 93.9s2.2.3 2-1.4c0-1.7-1.2-2.2-2.1-1.6-1 .6-1.1 1.9.1 3z"/>
    <path fill="#00EB9B" d="M314 493.2s-.6 2.2.4 2.6c1 .5 1.5-.5 1.4-1.8-.1-1.3-.8-1.8-1.7-.8z"/>
    <path fill="#F51E01" d="M308.2 501.7s-.7 1.5.3 1.8c1 .3 1.5-.4 1.4-1.2-.1-.9-.8-1.2-1.7-.6zM38.2 54.6s1.5.4 1.5-.7c0-1.2-.6-1.6-1.3-1.3-.7.3-1 1.1-.2 2zM38.2 45.9s1.5.4 1.5-.8c0-1.1-.6-1.6-1.3-1.2-.7.3-1 1.1-.2 2z"/>
    <path fill="#8D3DFA" d="M10.8 88.4s2-.8 1-2.2c-.8-1.4-2-1.3-2.5-.3s0 2.2 1.5 2.5z"/>
    <path fill="#fff" d="M521.2 411s3 .3 2.7-1.4c-.3-1.7-1.7-2.3-3-1.7-1.3.6-1.4 1.9.3 3zM454.6 426.2s1.9-.8 1-2.2c-.9-1.4-2-1.3-2.5-.3s0 2.2 1.5 2.5zM479.7 237s-.6 1.5.3 1.7c1 .3 1.6-.4 1.5-1.2-.2-.8-.9-1.2-1.8-.5zM513.7 273.7s2-.9 1-2.3c-.8-1.3-2-1.3-2.5-.3s0 2.2 1.5 2.6z"/>
  </g>
</svg>
