<svg width="267" height="227" viewBox="0 0 267 227" xmlns="http://www.w3.org/2000/svg">
<path d="M0 1.43986C1.41564 1.43986 23.2167 -0.249935 26.6143 0.0316534C30.012 0.313257 45.0177 1.43972 56.0596 8.19767C67.1016 14.9558 74.18 28.4727 71.6318 58.0395C69.5932 81.6925 44.8439 93.5618 30.4043 96.0024L33.416 137.948L45.8672 199.959L58.4443 225.866H28.0293L26.6143 217.981L11.042 102.812L0 1.43986ZM38.085 33.2201C31.7058 33.2201 29.0469 33.7484 21.25 35.5492L24.0215 56.8578L27.8066 76.6127C31.6761 75.9557 39.4513 75.4188 43.7549 73.6166C48.0584 71.8145 52.1412 69.2604 53.6787 64.1C55.0964 59.3416 55.2734 52.9966 53.6787 45.7709C52.0838 38.5454 43.8614 33.2204 38.085 33.2201Z"/>
<path d="M71.9151 81.4108C73.3327 81.1523 86.3547 80.2852 89.752 82.5377C94.4161 85.6304 98.8061 94.0779 100.222 103.933C101.542 113.128 99.8578 138.353 98.627 145.173L78.0713 139.886L61.2373 141.296L59.7403 158.566C59.2684 161.476 58.797 165.037 62.4776 178.835C64.1547 185.122 74.7765 181.65 75.0596 178.835C75.2862 176.581 76.5369 158.879 77.0088 146.584L95.792 150.989C96.1695 156.996 94.225 175.799 91.7334 191.794C88.619 211.786 74.7458 214.32 69.9326 214.039C65.1195 213.757 59.7403 210.096 52.9453 200.241C46.1503 190.385 42.0996 150.681 42.0996 148.992C42.0995 147.301 41.0061 137.978 44.4034 111.511C47.1216 90.3362 65.4031 82.2555 71.9151 81.4108ZM79.1133 107.884C77.4142 103.943 70.8868 103.469 67.7725 105.065C64.6581 106.661 59.7989 110.037 59.7989 116.344V129.855L70.2539 128.329L80.5498 125.665C80.6442 120.878 80.4723 111.038 79.1133 107.884Z"/>
<path d="M78.7091 72.4005L79.8416 49.5918L96.8293 48.1839L146.094 40.2994L140.431 59.4474L126.841 132.66L113.574 205.461L140.431 202.213H177.598L187.138 217.901L133.919 223.05L83.9818 225.626L94.5643 202.213L104.474 150.119L118.347 65.0792L99.6606 67.3319L78.7091 72.4005Z"/>
<path d="M180.635 7.07201L108.438 16.9276V37.7651L160.415 28.5973L140.431 101.122L123.75 195.973L144.112 194.919H183.958L172.425 174.617L166.876 177.565L146.094 179.635L149.364 162.992L166.876 70.9883L192.628 5.65245L180.635 7.07201Z"/>
<path d="M182.901 65.5165C189.597 65.5166 197.376 67.6269 201.519 71.7469C203.218 73.4365 207.459 81.0423 210.081 87.6063C212.075 92.6003 219.424 106.711 220.839 117.173C221.123 128.342 221.236 153.723 219.424 165.888C217.159 181.093 203.569 186.444 199.605 187.007C195.641 187.57 186.016 182.501 182.901 180.53C179.787 178.559 171.576 163.916 171.293 161.945C171.009 159.973 166.196 141.389 165.913 138.573C165.63 135.757 164.78 126.747 164.497 119.426C164.214 112.104 167.162 92.2138 169.994 83.203C172.259 75.9943 175.855 67.3254 182.901 65.5165ZM191.019 98.0419C188.565 98.4412 180.919 98.564 180.24 111.021C179.56 123.479 182.504 131.888 183.259 140.173C185.336 149.156 187 158.634 190.117 162.37C192.999 165.825 197.221 165.976 198.636 165.776C201.185 164.578 205.494 161.26 205.494 148.085C205.494 134.909 205.21 131.427 204.455 126.436L200.61 108.964C199.2 105.631 195.745 98.5685 191.019 98.0419Z"/>
<path d="M265.008 24.3457L251.981 50.9098C248.813 41.455 248.249 37.38 237.638 32.9545C230.842 30.1204 225.369 30.7255 222.538 36.3573C219.707 41.989 230.446 63.7593 231.455 66.4055C236.089 78.5609 242.34 91.267 248.869 107.881C256.136 126.372 266.027 160.312 266.706 162.79C267.556 165.888 266.423 183.065 265.008 193.483C263.595 203.876 251.76 209.506 245.237 212.608L245.189 212.631C238.677 215.729 220.556 216.292 215.743 214.884C211.893 213.758 202.774 203.521 198.81 198.734L219.584 182.746C221.849 186.125 226.758 188.323 229.476 190.125C232.874 192.378 241.981 190.439 245.189 185.452C250.25 177.581 243.568 158.136 241.1 150.771C238.632 143.406 234.146 133.015 227.068 112.647C221.783 96.596 207.759 66.279 206.4 62.2241C203.514 53.6137 196.262 39.3021 198.81 26.0675C201.358 12.8328 218.847 7.62025 222.538 7.62024C229.216 7.62023 243.555 8.00237 246.788 9.34199C254.234 12.4274 260.666 21.0605 265.008 24.3457Z"/>
</svg>
