<svg width="682" height="122" viewBox="0 0 682 122" xmlns="http://www.w3.org/2000/svg">
<g clip-path="url(#clip0_1476_1285)">
<path d="M162.315 0.00732422C151.291 0.00732422 144.626 5.45439 144.626 16.8299C144.626 47.3841 146.594 58.8441 146.594 75.4555C146.594 80.2861 146.341 86.4847 139.397 86.4847C132.454 86.4847 132.2 80.2861 132.2 75.4555C132.2 58.8441 134.168 47.3841 134.168 16.8299C134.168 5.45439 126.988 0.00732422 115.491 0.00732422C99.4838 0.00732422 92.0671 6.99139 92.0671 51.8093C92.0671 96.6273 107.678 121.515 139.406 121.515C171.134 121.515 186.744 96.6273 186.744 51.8093C186.744 6.99139 180.4 0.00732422 162.315 0.00732422Z"/>
<path d="M45.9786 0.00732422C24.2437 0.00732422 2.965 13.7052 2.965 37.0727C2.965 68.3363 49.0703 71.8579 49.0703 83.5543C49.0703 86.2314 48.0566 88.1062 43.0727 88.1062C32.4545 88.1062 28.366 75.4893 17.8491 75.8693C11.4292 76.0973 0 87.6417 0 94.8707C0 106.5 13.9296 121.515 39.6347 121.515C65.3397 121.515 85.3514 110.705 85.3514 84.0272C85.3514 48.5073 39.7614 48.1864 39.7614 36.2704C39.7614 34.0156 41.9577 31.5834 45.4971 31.5834C54.5864 31.5834 55.1185 37.1994 67.8993 40.2227C73.8377 41.633 83.4676 34.4547 85.892 23.0286C88.4515 10.9943 70.9741 0.00732422 45.9786 0.00732422Z"/>
<path d="M563.011 85.7765C552.427 85.7765 547.266 87.9891 534.24 87.9891C524.939 87.9891 524.137 83.8426 524.137 81.9678C524.137 78.6911 526.908 77.0105 533.843 77.0105C552.402 77.0105 566.289 81.7398 566.289 60.948C566.289 40.1563 549.943 45.4091 536.833 45.4091C527.431 45.4091 524.137 44.0748 524.137 39.3455C524.137 34.6163 526.95 33.8225 536.538 33.8225C546.615 33.8225 550.011 35.047 559.835 35.047C569.659 35.047 575.64 30.7062 575.64 19.1281C575.64 6.59559 573.697 0 542.974 0C505.79 0 495.171 2.93888 495.171 59.2843C495.171 115.63 498.888 121.508 533.15 121.508C573.275 121.508 577.625 113.206 577.625 101.451C577.625 89.695 572.27 85.7596 563.011 85.7596V85.7765Z"/>
<path d="M305.927 0.00732422C273.717 0.00732422 279.537 40.8223 265.828 40.8223C252.109 40.8223 257.929 0.00732422 225.728 0.00732422C204.45 0.00732422 194.482 28.9317 194.482 67.1709C194.482 114.446 196.34 121.523 218.945 121.523C231.278 121.523 235.333 112.082 235.333 104.608C235.333 84.3228 232.562 77.7694 232.562 69.9662C232.562 66.3095 233.973 63.9533 237.183 63.9533C249.719 63.9533 242.091 104.895 265.828 104.895V104.836L265.844 104.895C289.581 104.895 281.953 63.9533 294.489 63.9533C297.699 63.9533 299.11 66.3095 299.11 69.9662C299.11 77.7694 296.339 84.3228 296.339 104.608C296.339 112.082 300.394 121.523 312.727 121.523C335.332 121.523 337.19 114.446 337.19 67.1709C337.19 28.9401 327.222 0.00732422 305.944 0.00732422L305.927 0.00732422Z"/>
<path d="M456.229 0.00732422C424.02 0.00732422 429.84 40.8223 416.13 40.8223C402.412 40.8223 408.232 0.00732422 376.031 0.00732422C354.752 0.00732422 344.784 28.9317 344.784 67.1709C344.784 114.446 346.643 121.523 369.248 121.523C381.581 121.523 385.635 112.082 385.635 104.608C385.635 84.3228 382.865 77.7694 382.865 69.9662C382.865 66.3095 384.275 63.9533 387.485 63.9533C400.021 63.9533 392.393 104.895 416.13 104.895V104.836L416.147 104.895C439.884 104.895 432.256 63.9533 444.792 63.9533C448.002 63.9533 449.412 66.3095 449.412 69.9662C449.412 77.7694 446.642 84.3228 446.642 104.608C446.642 112.082 450.696 121.523 463.029 121.523C485.634 121.523 487.493 114.446 487.493 67.1709C487.493 28.9401 477.525 0.00732422 456.246 0.00732422L456.229 0.00732422Z"/>
<path d="M661.895 66.7064C661.895 57.8729 676.078 59.2663 676.078 35.9664C676.078 12.6665 661.895 0.00732422 625.344 0.00732422C599.757 0.00732422 583.538 2.52395 583.538 55.5083C583.538 108.493 586.512 121.515 605.468 121.515C624.423 121.515 622.371 105.072 622.371 96.1628C622.371 87.2533 619.566 76.0889 626.628 75.6075C633.031 75.1684 633.884 80.8266 636.511 89.4743C640.777 103.502 648.971 121.515 666.465 121.515C678.832 121.515 682 112.833 682 104.616C682 91.0113 661.895 74.7292 661.895 66.698V66.7064ZM629.196 51.708C618.045 51.5475 618.206 45.9822 618.206 39.6147C618.206 33.2471 617.885 27.5129 628.241 27.5129C636.207 27.5129 642.576 31.0176 642.576 38.3395C642.576 45.6613 640.346 51.8684 629.204 51.708H629.196Z"/>
</g>
<defs>
<clipPath id="clip0_1476_1285">
<rect width="682" height="122"/>
</clipPath>
</defs>
</svg>
