<svg width="681" height="136" viewBox="0 0 681 136" xmlns="http://www.w3.org/2000/svg">
<g clip-path="url(#clip0_1471_1163)">
<path d="M623.47 4.22958C633.677 4.41515 644.07 3.67284 654.277 3.30167C661.514 2.93052 668.381 3.1161 675.062 3.1161C678.217 3.1161 679.887 4.78632 679.887 7.94119L679.516 24.829C679.516 28.1694 677.66 29.8397 674.319 29.0974C670.793 28.5406 666.154 27.7983 660.772 27.6127C646.668 27.056 642.028 27.2415 631.636 27.2415C628.11 27.2415 625.883 28.9118 625.141 32.4378L624.955 32.9945C624.398 35.7782 624.398 37.634 624.584 40.2322L625.141 48.3977C625.512 52.1093 627.553 53.9651 631.265 54.1507C641.286 54.3363 651.864 54.1507 663.927 53.9651C667.082 53.7795 668.938 55.4498 668.752 58.7902L668.195 72.5232C668.01 75.8636 666.154 77.1627 662.999 76.9771C653.534 75.8636 643.142 76.0492 632.193 76.0492C628.296 75.8636 626.254 78.0906 626.069 81.8022L625.326 105C625.141 109.268 627.553 111.124 631.636 110.567C647.41 108.526 661.143 110.938 675.804 109.454C679.145 109.083 681 110.753 681 113.908L680.815 128.383C680.815 131.538 678.959 133.208 675.804 132.837C670.051 132.28 662.442 131.909 649.637 131.909L606.954 132.466C603.799 132.466 602.314 130.61 602.314 127.455C602.685 122.259 602.5 115.392 602.685 102.773C603.242 77.905 602.314 43.5726 601.201 8.6835C601.015 5.52864 602.871 3.85842 606.026 3.85842L623.47 4.22958Z"/>
<path d="M553.146 135.435C534.959 135.435 523.824 127.455 515.473 115.578C506.379 102.402 504.152 85.5138 503.781 68.0693C503.41 49.8824 507.493 31.8811 516.586 18.5193C524.01 7.57003 535.516 0.332397 551.104 0.332397C573.374 0.332397 581.168 6.27097 589.891 18.5193C593.045 22.9732 595.644 30.9532 596.757 37.2629C597.499 40.7889 595.829 43.2015 592.303 44.1294L582.653 46.9131C578.941 48.0266 576.343 46.3563 575.415 42.4591C572.26 28.9118 563.909 23.3444 553.888 23.3444C545.166 23.3444 538.299 27.2416 534.216 34.2936C529.206 42.6447 526.422 54.7075 526.422 67.8837C526.422 88.2975 532.546 111.495 552.218 112.609C562.61 113.165 568.549 109.268 572.817 101.845C574.302 99.2468 575.601 96.4631 576.529 93.6793C577.642 89.5966 579.684 88.1119 583.395 89.2254L593.602 92.3803C597.128 93.4938 598.798 96.2775 597.499 99.8035C594.716 108.711 590.447 117.619 585.251 122.63C577.086 130.61 567.435 135.435 553.146 135.435Z"/>
<path d="M493.832 2.37381C497.915 2.18823 499.957 4.41519 499.585 8.31239C498.843 19.2616 498.286 35.036 498.472 63.4298C498.657 98.69 497.358 114.65 498.101 127.455C498.286 131.352 496.431 133.579 492.533 133.579H477.316C473.975 133.579 471.748 132.095 470.264 129.125C463.768 116.135 444.097 82.359 431.849 55.6354C429.807 51.1815 426.838 51.9238 427.023 56.7489C427.023 73.8223 427.209 91.8236 427.58 97.5766C428.323 112.794 428.137 120.589 428.694 126.156C429.25 130.239 427.766 132.466 423.683 132.466L410.878 132.651C407.166 132.651 404.939 130.61 404.754 126.898C403.64 101.103 405.496 32.4378 404.197 8.31239C404.011 4.41519 405.682 2.18823 409.579 2.00266C415.332 1.81707 421.642 2.00266 427.209 2.18823C430.549 2.18823 432.591 3.67288 433.89 6.82774C444.282 32.0667 460.057 60.0893 470.82 84.2148C472.862 88.6687 476.202 88.112 476.202 83.1013C476.388 56.9345 476.017 29.4686 475.46 8.31239C475.274 4.41519 477.501 2.18823 481.399 2.37381H493.832Z"/>
<path d="M400.681 125.785C403.094 129.868 401.795 132.651 396.97 132.651H380.453C377.113 132.651 374.7 130.981 373.587 127.826L365.792 103.886C364.864 101.103 363.008 99.9891 360.225 99.9891C339.996 99.8035 329.604 99.0612 321.81 100.36C319.397 100.917 317.912 102.402 317.17 105C314.201 114.279 311.788 122.259 310.489 127.826C309.561 131.538 307.52 133.022 303.623 132.651C299.354 132.094 294.9 132.094 290.447 132.28C286.178 132.651 284.137 130.61 285.621 126.341C299.911 86.2561 318.284 30.3964 324.593 7.38445C325.521 4.044 327.563 2.37378 331.089 2.37378H349.832C353.173 2.37378 355.4 3.85843 356.513 7.01328C366.906 35.7782 382.866 81.0599 391.588 103.886C395.299 114.835 397.712 120.774 400.681 125.785ZM327.191 73.2655C326.078 76.7915 327.748 78.6473 331.46 78.2762C336.285 77.905 342.595 78.0906 351.502 78.2762C355.029 78.4617 356.699 76.4204 355.585 72.8943L344.079 38.0052C342.595 33.5513 339.254 33.9224 337.77 38.562C334.244 50.4391 330.717 62.1307 327.191 73.2655Z"/>
<path d="M253.699 133.022C249.616 133.208 247.575 131.167 247.946 126.898C248.502 121.702 248.317 117.99 248.502 113.165C249.059 88.1119 248.874 54.5218 247.946 29.4684C247.76 26.3136 245.904 24.8289 242.935 24.8289L228.274 25.2001C225.305 25.3857 222.892 25.2001 220.109 25.5713C215.84 25.9424 213.799 24.0866 213.984 20.0038C214.356 15.9211 214.541 11.6527 214.356 7.56995C214.17 3.48718 216.026 1.63138 220.109 1.81696C226.418 2.18812 235.883 2.3737 246.276 2.3737L302.692 2.55928C306.589 2.55928 308.631 4.78625 308.445 8.68343L308.074 19.8183C307.888 23.7155 305.661 25.5713 301.764 25.2001C295.454 24.6434 286.361 24.4578 276.711 24.4578C273.556 24.4578 271.886 26.3136 271.886 29.2829L271.514 56.9343C271.143 87.9263 271.514 114.093 272.442 126.898C272.813 130.795 270.958 132.837 267.246 132.651C262.792 132.466 258.153 132.651 253.699 133.022Z"/>
<path d="M209.399 25.0146L202.161 35.0359C200.305 37.6341 197.893 37.6341 195.295 35.2215C179.149 20.0039 149.827 20.1895 149.271 34.6648C148.714 45.9852 165.416 51.5526 180.263 57.6767C209.584 69.925 221.461 81.9878 221.461 102.216C221.461 126.713 198.821 134.321 178.407 133.579C145.745 132.837 129.97 119.289 121.062 109.083C119.021 106.67 119.392 104.257 121.805 102.216L132.012 93.8649C134.424 91.8235 136.651 92.1947 138.693 94.6072C148.343 106.113 164.303 113.165 178.036 113.165C188.057 113.165 196.779 110.567 197.15 100.546C197.707 86.6273 176.551 80.5031 163.932 75.678C137.022 65.4711 125.516 53.0372 125.516 33.1801C125.516 12.024 142.59 2.00262 166.53 2.1882C178.592 2.1882 188.428 5.8998 195.48 9.42583C200.305 11.6528 203.646 14.0653 208.656 18.1481C210.883 20.1895 211.069 22.602 209.399 25.0146Z"/>
<path d="M117.712 126.341C117.897 130.239 116.041 132.466 112.144 132.651C107.69 132.837 103.236 132.651 98.7825 132.466C95.0709 132.28 93.0295 130.239 92.8439 126.527C92.2872 111.681 92.2872 93.1226 92.1016 79.0185L90.9881 8.86907C90.9881 4.7863 93.2151 3.11608 97.1123 3.11608C101.566 3.30166 106.577 3.30166 111.031 2.9305C114.928 2.74491 117.341 4.60072 117.155 8.49791C117.155 16.4779 116.413 21.303 116.413 44.5005C116.413 58.0479 116.227 104.257 117.712 126.341Z"/>
<path fill-rule="evenodd" clip-rule="evenodd" d="M24.5086 2.55957C49.5617 2.55965 65.5218 9.98237 74.0584 21.6738C83.523 34.4789 87.6054 50.068 87.2342 68.2549C86.6775 92.0089 80.3679 109.268 68.6766 120.031C60.5111 127.454 49.3758 131.723 33.0448 132.466C25.6216 133.023 16.8992 133.208 5.76449 132.651C1.86749 132.651 -0.173907 130.424 0.197111 126.527C0.753849 119.104 0.753693 114.836 1.12485 93.4941C1.15665 92.1744 1.17594 90.6198 1.18735 88.8672L1.09653 86.168C1.09653 82.8477 3.06156 81.4893 6.49985 81.4893C10.4292 81.6402 14.8498 81.6397 18.7791 81.3379C22.2174 81.187 24.3462 82.6969 24.1825 85.8662C24.1825 87.8231 24.1201 91.2615 24.037 95.1104C24.0573 98.6102 24.0913 101.903 24.1375 105C24.3232 108.155 25.9928 109.825 29.1473 109.825C39.9108 109.454 49.0045 107.598 55.8709 99.2471C61.9951 91.8239 63.4803 81.6167 63.4803 67.8838C63.2947 38.7479 53.0878 28.1693 29.5194 27.0557C26.3646 26.8701 24.6942 28.5405 24.6942 31.6953L24.5653 40.583C24.5838 41.8423 24.5946 42.9211 24.5946 43.7422C24.7641 46.9501 22.5597 48.4779 18.9989 48.3252C14.9291 48.0197 10.3499 48.0201 6.28012 48.1729C2.71919 48.1728 0.684416 46.7972 0.684416 43.4365L0.693205 43.1807H0.662932C0.42154 30.0501 0.158463 17.3119 0.0115644 8.49805C-0.174014 4.60091 1.86739 2.55962 5.76449 2.55957H24.5086Z"/>
<path d="M42.46 53.7393C44.2292 53.7714 46.0306 53.6428 47.7998 53.5784C49.0543 53.5141 50.2445 53.5462 51.4025 53.5462C51.9493 53.5462 52.2388 53.8358 52.2388 54.3826L52.1745 57.3098C52.1745 57.8888 51.8528 58.1783 51.2738 58.0497C50.6626 57.9532 49.8585 57.8245 48.9256 57.7923C46.4809 57.6958 45.6767 57.728 43.8754 57.728C43.2642 57.728 42.8782 58.0175 42.7495 58.6287L42.7173 58.7252C42.6208 59.2077 42.6208 59.5294 42.653 59.9797L42.7495 61.3951C42.8138 62.0384 43.1677 62.3601 43.811 62.3922C45.5481 62.4244 47.3816 62.3922 49.4725 62.3601C50.0193 62.3279 50.341 62.6174 50.3088 63.1964L50.2123 65.5768C50.1801 66.1558 49.8585 66.381 49.3116 66.3488C47.6711 66.1558 45.8697 66.188 43.9719 66.188C43.2963 66.1558 42.9425 66.5418 42.9103 67.1852L42.7817 71.2061C42.7495 71.9459 43.1677 72.2676 43.8754 72.1711C46.6096 71.8173 48.99 72.2354 51.5312 71.9781C52.1102 71.9138 52.4318 72.2033 52.4318 72.7501L52.3997 75.2592C52.3997 75.806 52.078 76.0955 51.5312 76.0312C50.534 75.9347 49.2151 75.8703 46.9956 75.8703L39.5971 75.9668C39.0503 75.9668 38.7929 75.6452 38.7929 75.0983C38.8573 74.1976 38.8251 73.0075 38.8573 70.8201C38.9538 66.5097 38.7929 60.5587 38.5999 54.5113C38.5678 53.9644 38.8894 53.6749 39.4363 53.6749L42.46 53.7393Z"/>
<path d="M23.8134 74.9375C23.8777 75.6452 23.5239 76.0312 22.8162 75.999L20.468 75.9347C19.7925 75.9669 19.4386 75.613 19.503 74.9053C19.6638 72.7501 19.7281 68.2467 19.6638 62.8748L19.5995 54.4791C19.5995 53.8358 19.9855 53.4498 20.6288 53.4498L23.0414 53.4176C23.7169 53.4176 24.0707 53.8036 24.0385 54.4791C23.942 56.1518 23.8777 58.6609 23.8134 61.4273C23.7812 62.0063 24.1029 62.2958 24.6497 62.2958C27.6413 62.2636 29.507 62.2636 30.8902 62.2314C31.4048 62.1993 31.6943 61.9098 31.6622 61.3629C31.63 58.9504 31.5657 56.4092 31.5657 54.447C31.5978 53.7714 31.9839 53.4176 32.6272 53.4176L34.8467 53.4498C35.4901 53.4498 35.8761 53.8358 35.8761 54.4791L35.8118 62.8748C35.7474 68.2467 35.7474 72.7501 35.8761 74.9375C35.9404 75.613 35.6188 75.9669 34.9111 75.9669L32.6915 76.0312C32.016 76.0634 31.6622 75.6774 31.6943 75.0018C31.7587 73.9082 31.7265 72.6858 31.7909 69.2117C31.823 68.5362 31.7909 67.6677 31.7909 66.6384C31.7587 66.0593 31.4692 65.7698 30.9223 65.802C29.6356 65.8663 27.7378 65.8985 24.5854 65.8342C24.0385 65.8342 23.7169 66.1237 23.7169 66.6705L23.749 72.6215C23.7812 73.4578 23.749 74.069 23.8134 74.9375Z"/>
<path d="M8.30805 76.0632C7.60037 76.0953 7.24653 75.7415 7.31086 75.0017C7.40736 74.101 7.3752 73.4576 7.40736 72.6213C7.50387 68.2787 7.4717 62.4564 7.31086 58.1138C7.27869 57.567 6.95702 57.3097 6.44235 57.3097L3.90113 57.374C3.38646 57.4062 2.96828 57.374 2.48577 57.4383C1.74592 57.5027 1.39208 57.181 1.42425 56.4733C1.48859 55.7656 1.52075 55.0258 1.48859 54.3181C1.45642 53.6104 1.77809 53.2887 2.48577 53.3209C3.57946 53.3853 5.21999 53.4174 7.02136 53.4174L16.8002 53.4496C17.4757 53.4496 17.8296 53.8356 17.7974 54.5111L17.7331 56.4411C17.7009 57.1167 17.3149 57.4383 16.6394 57.374C15.5457 57.2775 13.9695 57.2453 12.2968 57.2453C11.7499 57.2453 11.4604 57.567 11.4604 58.0817L11.3961 62.8746C11.3318 68.2465 11.3961 72.7821 11.5569 75.0017C11.6213 75.6772 11.2996 76.031 10.6563 75.9988C9.88424 75.9667 9.08006 75.9988 8.30805 76.0632Z"/>
</g>
<defs>
<clipPath id="clip0_1471_1163">
<rect width="681" height="136"/>
</clipPath>
</defs>
</svg>
