<svg xmlns="http://www.w3.org/2000/svg" width="82" height="53" fill="none" viewBox="0 0 82 53">
  <path fill="currentColor" d="m.174 46.135-.064.017c-.133.035.083-.146.03-.399.032-.03.147-.133.099-.153l-.13-.056c-.048-.02.2-.44.211-.626a.9.9 0 0 0 .172-.215l.28-.461.33-.527c.156-.251.312-.497.486-.743l.535-.753c.082-.114.159-.227.231-.347.204-.337.439-.637.673-.956l.78-1.065.162-.225c.241-.335.447-.696.732-1 .066-.07.155-.094.199-.201.04-.097.172-.178.134-.315l.13-.16.067.106c.383-.388-.125-.291.243-.512.105-.293.238-.385.46-.75.135-.22.285-.417.43-.633l.546-.813c.134-.199.232-.406.358-.612l.33-.538.575-.91.17-.266c.018.003.102.045.091.056l-.068.075-.005.037c-.002.016.014.077.024.065l.057-.072.017-.097c.006-.032.107-.073.137-.09-.015-.095.082-.17.119-.24l.24-.454.133.045c.026.01.044-.057.063-.1l.065.125c.055-.074.074-.125.071-.192l-.182.057c-.01-.061-.025-.142-.055-.135a.24.24 0 0 0-.097.074l-.249.334c.106-.227.438-.91.648-1.05l.06.102c.011.017.102.015.104-.004l.008-.096.05-.228c-.105.06-.113.078-.21.114l.832-1.511.344-.613c.078-.14.144-.324.271-.422.086-.032.176-.064.234-.095.078-.04.055-.201.092-.25l.187-.25.06-.079c.012-.017-.031-.08-.036-.08l-.08.071c-.013.012-.037-.002-.065-.006l.048-.122c.01-.03.107.003.138.01.007-.018.025-.058.013-.064l-.073-.04.185-.013c.092-.128.195-.287.129-.475l-.115.206c.009.019-.043-.027-.045-.038l.152-.223c.008-.012.064-.001.08.003-.008-.002.051-.281.074-.33l.19-.396c.1-.207.252-.398.326-.614.106-.31.124-.146.271-.477l.145-.323c.02-.044.044-.1.067-.143l.31-.573c.194-.361.129-.337.07-.525-.066-.214-.22-.401-.312-.6-.12-.259-.209-.505-.377-.747-.095-.135-.123-.314-.18-.46-.17-.435-.252-.46-.36-.751-.048-.132-.133-.245-.214-.367-.263-.396-.044-.213-.28-.62l-.207-.355a7 7 0 0 1-.35-.67c-.043-.1-.123-.196-.11-.313.012-.11-.062-.204-.167-.256-.042-.022-.002-.14-.016-.177a9 9 0 0 0-.264-.63l-.168-.349-.134-.278c-.19-.394-.27-.387-.408-.681l-.125-.268c-.055-.118-.11-.23-.152-.358l-.106-.319-.109-.207c-.073-.138-.148-.277-.216-.418s-.115-.306-.204-.436c-.09-.13-.153-.32-.256-.532-.057-.117-.235-.241-.26-.368-.048-.232-.074-.271-.212-.502l-.31-.517c-.135-.227-.265-.428-.39-.663-.112-.208-.254-.422-.334-.64-.216-.2.002-.23-.254-.437-.038-.031-.07-.123-.081-.17a1.7 1.7 0 0 1-.289-.44c-.042-.091-.166-.222-.174-.307-.036-.39-.088.028-.221-.513l-.153-.166c.04.004.046.005.058.01l.081.041a2 2 0 0 0-.273-.529c-.055-.01-.135-.025-.162-.052-.035-.035-.002-.09.018-.151.031-.096-.188-.413-.238-.524-.062-.139-.11-.267-.188-.4-.045-.077-.118-.171-.152-.245l-.217-.462-.414-.835-.442-.908-.384-.817c-.05-.105-.036-.233-.154-.319-.146-.109-.092-.278-.03-.433l-.175-.015c.075-.523-.034-.126.009-.576l.234-.07-.074-.26a.3.3 0 0 1-.001-.107c.005-.024.08-.056.094-.036l.102.132.162-.188a.3.3 0 0 1 .078-.05c.019-.009.042.053.045.072l.02.11c.017.103.113-.09.198-.156.053-.043.225.19.33.106l.193-.157c-.027-.102.156-.196.158-.194l.056.038c.029.019.095.062.124.05l.134-.054.08.188.125-.213c.098.067.137.178.14.3l.038.036c.016.014.103.007.095-.012l-.034-.085c-.013-.032-.057-.106-.029-.124l.125-.077.035-.03a1 1 0 0 1-.074-.031c-.058-.048-.005-.221.052-.265l.061.138c.012.025.055.028.1.047.028.02.117.064.15.04.08-.06.106-.176.117-.287.19.214 0 .272.226.271.014 0 .043-.04.033-.048l-.06-.047c-.053-.04-.077-.17-.061-.25.237-.01.14.265.292.287a.5.5 0 0 1 .202.055c.055.042.09.157.064.228l-.132-.118c-.012.06-.042.13-.019.147l.101.076c.027.032.066.08.027.032.036-.13.336-.204.243-.244l-.079-.034c-.026-.012-.144-.012-.135-.037.12-.359-.09-.158-.01-.305.018-.032.07-.113.1-.1.146.059.1.226.182.199.032-.01.071-.056.1-.092l.022-.028.072.05.228-.14a.46.46 0 0 1 .243-.065c.068.004.129.11.163.188.054.015-.074-.126.165-.177.015-.003.008.043.003.055l-.06.125c-.013.027.09.06.099.061-.08.072-.137.151-.15.24l.143-.064c.104-.046.074.223.14.245l.109-.15c.007-.009.053-.015.054-.005.018.15.233.55.328.701.182.29.197.5.324.512.021.002.106-.035.091-.047l-.074-.063a.9.9 0 0 0-.126-.265l-.181-.293c-.022-.035-.015-.12-.066-.146s-.07-.096-.079-.15l-.01-.08c-.002-.011.021-.003.064.003l.062-.05c.024-.02-.258-.116-.118-.31.017-.024.113-.03.117-.007l.02.122.009.06c.01.065.025.12.047.196l.067-.012.063-.095c.01-.016.052.047.059.07.005.017.091-.005.099-.022.028-.063.09-.194.138-.247.008-.01.088 0 .09.01a.1.1 0 0 1 .005.048l-.035.235c.086.01.185.03.186.065a.7.7 0 0 1-.027.15c.021.26.191.355.184.448-.002.025.042.115.066.1l.11-.062.144.13c.013.013.067-.013.085-.018.017-.005-.006-.031-.044-.06-.053-.043-.054-.125-.029-.208.05-.161-.154-.282-.312-.289-.006-.018-.009-.08.013-.083l.106-.02c.215-.04-.17-.112-.138-.185l.083-.188c.011-.023.118.045.117.071-.006.147.07.27.23.313.12.032-.122-.248-.15-.39l-.027-.138.064.09c.01.014.025.042.031.044.02.006.107.006.098-.01l-.034-.072a.34.34 0 0 1-.008-.298l.03-.054c.01-.015.072.034.067.05-.101.375-.005.18.004.237l-.01-.06c-.002-.017.015-.055.023-.072.009-.015.059.022.065.038l.073.198a.45.45 0 0 0-.196.077c-.053.046-.039.156 0 .214.155.23.3.64.368.607l.1-.05.14.103.052-.043-.021-.126c.176-.148-.006-.234.084-.37.033-.05.144-.077.227-.062l-.107.122.044.066c.012.018.06-.02.084-.036.017-.066.036-.129.026-.055.044.047.054.064.063.057l.07-.06.044-.04c0-.064 0-.136.022-.046a.7.7 0 0 0 .375.042l-.076-.292c.182-.076.103-.182.188-.232.033-.02.104-.006.185.002l.077-.347q.065.095.213.116l.174.08c.096-.034.178-.063.276-.08.19-.036.214.266.404.117l.045.126.094-.176c.097.17.15.328.267.484.048.064.11.16.154.214.143.169.285.31.387.5.13.247.34.44.489.673l.33.52c.081.126.155.254.231.386l.501.872c.158.274.318.525.45.81l.57 1.251.188.347.235.614.325.74c.079.178.177.345.267.528l.232.468c.03.063.205.564.377.612l.284-.669.153-.36c.092-.215.21-.422.285-.648.113-.344.248-.66.418-.987a.33.33 0 0 1 .136-.157c.175-.12.208-.365.306-.54.143-.257.269-.49.393-.756l.25-.261v-.308c.1-.036.136-.066.177-.129l.289-.45c.145-.227.306-.418.401-.664.118-.302.365-.429.232-.691-.005-.01-.006-.041.006-.038l.123.034.185-.346c.072-.133.169-.251.255-.379.066-.098.115-.231.198-.314.16-.16.201-.26.28-.477l.123-.343a.3.3 0 0 1 .068-.086c.021-.015.093-.01.098.014a.4.4 0 0 1-.002.127l-.087.194c-.036.081-.385.35-.2.53l.192-.289.068.027.08.03c.046.02.153.039.18.008.026-.03-.012-.136-.05-.155l-.188-.093c-.008-.004.016-.044.017-.052l.013-.063c.052-.253.049.021.214-.312l.157-.317.161.098.05-.006c0 .081-.013.108.015.111.044.005.14.016.145-.009l.025-.148c-.005-.002.063.01.058.022l-.033.085a2 2 0 0 0-.107.374l.164-.18c.096-.106.209-.32.186-.333l.106.063.19-.314c.103-.172.295-.067.318-.302.002-.017.034-.048.046-.059.02-.016.052.054.056.077l.013.075.106-.13.048.093-.096.078c-.01.008-.044.035-.035.042l.09.064.195-.25c.018-.023.052-.046.044-.062l-.036-.076.193-.096c.156.006.047-.124.229-.344l-.079.003c.062-.192-.025.036.331-.05.012-.004.068.01.075.003l.048-.054c.01-.01.045-.045.046-.034l.012.1c.003.026.068.067.097.07.166.014-.063-.179.32-.273l.036.089.213.002a.3.3 0 0 0 .065-.018c.077-.048-.157.268-.055.362.13-.153.204-.3.269-.477.105-.055.084-.176.14-.158l.107.034c.006.001-.014.046-.015.05l-.007.058c-.001.018.07.065.076.047l.025-.077.028-.038.105.05c.019-.014.044-.033.05-.035l.08-.025c.022-.007.054.052.049.075l-.058.232.121-.103.13.06.064.028c.013.005.012-.01.016-.055.005-.082.02.005.16-.121l.048-.043c.034-.03-.148.36-.104.494.205-.052.083-.239.266-.24.03 0 .047.069.042.095l-.014.067-.012.056c-.003.015.037.057.049.046a.3.3 0 0 0 .04-.056l.043-.111.028-.067.036.067c-.019.053.063.037.076-.005.044-.144-.039-.279-.226-.295.034-.152.117-.327.265-.403l.067.139c.002.005.04.03.042.036l.023.07c-.002-.005.217-.044.288-.223l.04.028.055.038c.065.044.209-.234.206-.378L29.15 0c.015.004.068.054.054.074l-.069.09c-.031.042-.1.102-.098.142.007.1.059.064.112.195l.086.212c-.013.011-.06.047-.059.053l.044.122.015.044.137-.132c.032-.032.146-.026.18.004l.157.148c-.018.074.116.07.163.073.1.004.073.114.119.081l.059-.043c.033-.023.063-.119.056-.134-.051.028-.11.023-.102.002l.048-.13.3.227c.088-.032.222-.152.185-.272l.189-.079.018-.076c.004-.015.037.001.066.015l.157.079c-.037.047-.109.133-.135.176-.01.016.02.07.037.062.498-.232.21-.116.368-.351.01-.016.089.038.085.056l-.066.298c-.005.022.016.103.021.125s.088-.019.111-.01l.141.055c.072.028-.156.149-.13.394l-.065.112.051.022c.021.008.057-.042.068-.063l.105-.206.056-.116c.04-.085.187.1.23.003l.035-.077.096.085-.113.096c-.104-.04-.02.006.018.034.129.096.032-.036.286-.225l.07.03.009-.077c.002-.017-.032-.05-.049-.04l-.076.047c-.02.013-.08-.027-.1-.042s.042-.063.07-.065l.403-.026c.01 0 .067.016.074.014l.054-.011c.015-.003 0 .026-.016.062-.1.235.11-.008-.135.61-.018.044-.042.1-.048.13-.007.03.067.071.125.1.163-.334-.038-.253.197-.457.036-.031.076-.105.128-.179.118.08-.31.47-.005.45l.326-.527.04-.063c.176-.267-.248.648-.107.462l.16-.172.043-.046c.054-.058.04.14.038.24-.004.168-.03-.022-.077.263-.004.023.058.059.073.039l.068-.094c.004-.005.052-.027.056-.032.105-.11-.089-.126-.017-.2l.139-.143c.017-.018.09-.052.105-.032l.067.093.116.16-.034.08c-.006.013.025.035.04.05.014.017.025-.076.038-.093l.11-.14c.13.167.381.063.273.238l-.215.35a2 2 0 0 0-.115.214c.383.117.107.212.302.297.022.01.065.018.06.028l-.026.048-.025.05c-.066.13.296.179.219.291-.057.083-.114.12-.192.112l.017.05.024.067H34.3l-.12.002c.155.161-.014.2-.03.283-.035.18-.072.372-.159.549-.002.03.056.107.08.086.162-.141-.004-.182.068-.233.043-.03.22-.155.248-.228l.138-.355a.5.5 0 0 1 .052-.078c.015-.018.066.027.058.05l-.05.13.18-.03.089-.03c.027-.01.026-.09.018-.115l-.037-.12c-.007-.024.104-.035.116-.012.036.064-.01.294-.124.367-.05.031-.108.067-.094.092l.065.118.039.087c.01.023-.068.04-.111.045-.027.004-.048.096-.024.107l.096.041c-.019.11-.037.17 0 .279.072-.13.122-.237.175-.368l.077-.032c-.072-.073-.065-.153 0-.232l.136.084c.342-.258.033-.588.515-.557.04.003.088.01.107.028s.029.092 0 .095l-.142.012-.095.311c-.005.016-.018.04-.015.046l.07.154c.006-.021.018-.058.019-.067l.003-.074c0-.01.035-.027.043-.018l.038.045c.008.01.03.037.036.037l.112.003c.056 0-.116-.153.025-.249l.052-.035c.01-.007.051.007.046.017l-.05.091.058.057.116-.18a.4.4 0 0 1 .048-.057l.057-.05c.015-.014-.087-.03-.108-.028l-.082.011c-.016.002-.044-.03-.033-.042.015-.017.078-.077.1-.076l.24.013c.077.153-.045.247-.162.33l.07.113c.01.018.001.108.024.107l.122-.002c.02 0 .052-.05.04-.063-.155-.165-.192-.037-.181-.098l.018-.098c.014-.072.196.09.238-.009l.065-.152.07-.017c.013.033.028.09.038.08l.066-.06.038-.035.048-.033c.069-.048.05.083.114.094l.15.027.126-.105c.03.037-.02.102-.03.118l-.028.042-.026.04c-.003.005.017.033.022.035l.048.022a.3.3 0 0 0 .067.005l.06-.01.039-.007.014.05.014.052.015.054.046.034q.017-.058.021-.067l.062-.097c.053-.034.072-.043.04-.004a.48.48 0 0 0-.099.456l.036.142c.005.023.025.08.033.103.01.026.107-.031.142-.044.205.341-.215.418.012.58.015.011.061.067.045.074-.022.011-.092.034-.106.053-.055.072-.198.4-.19.497h.118c.109 0-.026.096-.084.238-.07.17-.128.32-.206.476-.145.287-.268.575-.403.867l-.266.572c-.162.35-.407 1.144-.691 1.616-.224.37-.252.48-.42.866l-.293.678c-.063.144-.096.31-.165.454l-.813 1.705-.28.57-.342.654v.07c.001.065-.129-.108-.23.327-.019.08-.15.16-.184.223l-.227.427c-.044.082.027.243-.092.294-.026.002-.072-.009-.08.005l-.046.09-.03.056c-.005.013.03.029.035.04l.015.05c-.032-.012-.074-.03-.081-.027-.03.011-.092.061-.1.09-.01.035.047.096.085.148-.43.344-.285.224-.441.675a1.54 1.54 0 0 0-.365.686c-.155.164-.186.3-.253.5-.084.25-.373.863-.523 1.06l-.165.218c-.153.202-.224.43-.32.652l-.114.265-.16.34-.122.247c-.029.057-.084.152-.137.152-.023 0-.086-.01-.08 0 .007.01.025.035.032.042l.054.052a.8.8 0 0 1-.194.12l-.384.74-.208.39-.739 1.357-.28.534-.392.722-.382.705-.333.586a5 5 0 0 0-.164.314c-.064.13-.2.27-.216.417-.012.114.136.248.18.346.195.44.43.69.458.751.064.146.112.269.19.4.064.11.175.23.218.33.156.353.214.452.44.784l.182.264c.093.134.155.25.22.391.12.255.303.485.455.729.135.216.25.43.418.637.314.39.55.809.782 1.24l.1.186c.071.132.129.24.23.355.095.11.148.263.223.39.053.09.145.196.16.283.01.049.015.096.034.12l.206.277c.118.159.206.325.304.488l.279.466.243.431.097.184c.088.165.283.367.35.526l.057.138c.047.114.468.718.608.962.088.152.18.284.276.427l.21.31.214.329.235.371.241.365.365.54.854 1.392.398.655c.184.303.348.597.502.913l.741 1.517.628 1.301c.14.29.274.559.397.852.048.114.125.21.195.317.115.174.136.405.218.591.042.096.083.178.078.283-.03.603.086.227.105.588.016.309.143.5.098.524l-.11.058-.044.023c-.02.01-.044.064-.044.085v.06l-.002.066-.001.069-.002.06c0 .007-.02.045-.025.048l-.04.031-.04.03c-.068.053-.11.015-.14-.02l-.031-.037-.033-.035c-.014-.017-.066-.039-.09-.03l-.044.018-.05.02c-.061.023-.155.013-.181-.011l-.036-.035-.059-.055-.044-.006-.056.031c.003.17-.143.287-.33.263-.234-.03-.057.16-.485-.062-.084-.044-.279.029-.38.053l-.236.058-.127-.119-.408-.139c-.036.054-.09.17-.063.223l.046.088c.012.023-.046.068-.072.084l-.16.098-.06-.142c-.038-.086-.185.066-.374-.279l-.033-.058c-.005-.01-.027-.001-.034.009l-.032.054c-.077.128-.318.015-.354.188l-.012.06c-.044.213-.976-.167-.996-.453l-.006-.077c0-.01-.007-.005-.046-.003-.044.042-.097.112-.085.155l.028.097c.005.018-.08.01-.102.008l-.2-.012a.1.1 0 0 0-.042.012l-.03.038-.051.068c-.04.053-.109-.234-.255-.301l-.15.154c-.118.05-.173.107-.177.228l-.06.013-.134.028c-.01.002.007.072.004.08l-.033.09c-.035.097-.524-.337-.6-.418s-.07-.223-.21-.21c.038.504.162.344.217.54l.014.049.014.048.008.06c.006.05-.043.078-.064.06l-.042-.034-.037-.031-.037-.03a.2.2 0 0 1-.026-.045l-.019-.135c-.004-.026-.04-.037-.096-.053-.036.09.035.047.035.155v.035c0 .014-.042-.021-.062-.037l-.037.014-.007.036c.04.078.079.196.058.28l-.12-.114-.075-.076a1 1 0 0 0-.019.076l-.009.11c-.001.028-.09.014-.107-.01l-.087-.13-.06.057c-.09-.036-.412-.128-.498-.01-.024.032-.072.115-.114.11l-.186-.02c-.16-.016-.29-.526-.48-.674l-.105.012c-.065.006-.069.049-.085.122l-.028.12c-.005.019-.025-.012-.055-.047l-.062-.073-.039.07c-.047.085.178.378.055.522l-.073-.06-.015.063-.014.09c-.003.023-.107-.028-.12-.048a1.1 1.1 0 0 1-.11-.382c.108.028.224-.004.24-.057.018-.065-.147-.23-.15-.232-.035-.04-.154.032-.215.038-.075-.044-.215.042-.243.065-.033.027.057.125.075.164l.023.048c.017.036-.008.15-.07.18l-.05.024-.046.023c-.007.003-.067.044-.105-.002l-.256-.303-.085-.001c-.007 0-.031.03-.032.036l-.018.063-.022.077c-.018.065-.095-.104-.15.014l-.022.048a.2.2 0 0 1-.066.03c-.293.028-.048-.458-.297-.485-.023.094-.04.169-.049.186a.7.7 0 0 1-.12-.146l-.036-.092c-.04-.103-.096.133-.172.065-.119-.107-.136-.296-.168-.187l-.034.116a.2.2 0 0 0 .006.041l.023.029c.007.01.03.032.031.037l.03.084c.007.017-.037.032-.11.066l-.122-.258c-.003-.006-.032-.035-.038-.035l-.18-.006c-.112-.004-.172-.182-.134-.035l.03.123a.4.4 0 0 0 .041.05c.017.016-.073.097-.097.076-.162-.14-.294-.423-.407-.615l-.19-.32-.339-.613c-.06-.11-.087-.26-.154-.37l-.122-.2-.34-.618c-.114-.21-.241-.395-.328-.62-.101-.266-.152-.396-.31-.625-.063-.09-.145-.182-.173-.272-.06-.194-.137-.36-.218-.547-.17-.392-.257-.394-.348-.631a1.5 1.5 0 0 0-.259-.427l-.02-.06a1 1 0 0 0-.108-.223l-.2-.3c.065-.055.07-.06.062-.051l.063.064c.015.015.04.063.053.085l.024.043c.007.014.018.035.023.042l.614.922c.022-.055.033-.078.029-.085l-.028-.047-.024-.041-.026-.044-.448-.717c-.199-.319-.316-.648-.592-.93l-.014-.051c-.002-.01-.013-.031-.02-.044l-.022-.048-.024-.052a.3.3 0 0 0-.028-.043l-.034-.034-.032-.031-.024-.038-.027-.045-.026-.045-.025-.043-.024-.04-.024-.042-.026-.043c-.008-.014-.02-.037-.026-.044l-.03-.04c-.002-.004-.052-.032-.055-.038l-.206-.342c-.038-.064-.005-.023-.06-.084l-.034-.038-.029-.033-.03.023.02.048.024.043.025.044c.015.028.06.08-.005.16l-.057-.043-.375-.584c-.204-.317-.323-.67-.578-.95l-.163-.181-.45-.803c-.037-.067-.065-.131-.097-.204l-.165-.373-.063-.01-.122.22c-.022.04-.077.068-.157.09l-.177.444c-.159.164-.25.306-.223.521-.201.392-.287.27-.359.47-.076.212-.185.387-.282.585l-.182.37-.335.576-.372.669-.431.793-.289.51a5 5 0 0 1-.326.515l-.335.448c-.478.64-.272.526-.52.905-.09.139-.2.287-.274.432l-.386.77c-.114.23-.06.236-.225.573-.104.21-.192.417-.274.64-.032.088-.017.254-.083.313-.12.106-.216.199-.292.347-.064.136-.026.344-.046.5-.028.014-.064-.058-.077-.081l-.026-.044a.2.2 0 0 1-.015-.041v-.07c0-.016-.075-.02-.092-.018-.007 0-.019.024-.027.038l-.035.062-.015-.115c-.004-.03-.081-.048-.113-.041l-.083.018c-.158.034-.105.352-.074.363.054.02.124.035.197.03.028.003.05.066.057.088l.02.049c.001.003-.032.038-.038.036l-.075-.01-.045-.02-.043-.021a.3.3 0 0 0-.058-.01l-.07.005-.058.003-.043.005s-.126-.044-.088-.053c0 0 .018-.032.028-.046l.025-.04.026-.04c.004-.007.065-.092.022-.092l-.061-.007-.07-.008c-.027-.004-.094-.001-.096-.04l-.002-.041c-.003-.052.007-.034-.037-.06l-.053-.03-.023-.035-.028-.042c-.008-.014-.005.017-.004.053l-.09.42c-.063-.096-.094-.13-.145-.144l-.309-.09.071-.194c.005-.013-.019-.059-.033-.05l-.068.046c-.352.411-.265.151-.683.261-.057.015-.183-.08-.195-.132-.018-.075-.063-.19-.124-.201-.04-.008-.11-.01-.107-.028l.017-.115a.35.35 0 0 0-.05-.153l-.038.069-.024.054c.03.138.026.264-.137.313l-.008.066a.1.1 0 0 1-.039.04l-.062.009a.2.2 0 0 1-.059-.016l-.04-.03c-.01-.007-.038-.034-.043-.036l-.182-.087c-.043.04-.062.065-.065.054-.058-.191-.001-.219.055-.338l.088-.186c-.161-.08-.1-.232-.158-.217l-.062.017c-.01.113-.021.23-.06.328l-.09.222c-.189.288.07-.595-.114-.244l-.038.072c-.027.05-.054.128-.095.146-.046.02-.178-.038-.187-.083l-.033-.166c0-.005.008-.037.01-.043.054-.05.115-.166.068-.204-.036-.03-.097.008-.15.032l.012.38a.4.4 0 0 1-.03.067l-.113.13c-.011.013-.04.037-.05.047-.106.09-.035-.37-.031-.394.012-.08-.026-.215-.086-.256-.016-.01-.1.03-.105.013l-.027-.084-.05-.197c-.004-.016.013-.073.017-.09.005-.023-.066-.052-.09-.039-.303.159-.257.3-.435.385-.03.014-.092-.052-.099-.082l-.02-.094c-.003-.018-.038-.054-.045-.037l-.051.111a.3.3 0 0 0 .005.068l.016.06a.2.2 0 0 0 .032.038l.041.032.036.027a.1.1 0 0 1 .008.03l-.011.039c-.002.005-.038.049-.052.068-.013.016-.068-.028-.079-.045s-.065.055-.083.066c-.107.066-.221-.086-.218-.083l-.022-.02-.046.122-.058-.014-.026-.057c-.024-.05-.06-.026-.089-.02l-.067.015c-.013.003-.015-.054-.024-.065l-.194-.24a.3.3 0 0 0-.074.05l.001.06c-.017.028-.031.052-.025.04q-.016-.046-.016-.056l.003-.095c0-.025-.079-.007-.102.01l-.042.03-.05.036-.186-.28c-.269.115-.202.202-.285.224-.11.03-.348.052-.445-.042l-.062.028c-.015.007-.045.024-.052.025l-.092.02c-.021.004-.048-.052-.052-.071l-.013-.059-.012-.055c-.003-.016-.024-.086-.04-.077l-.075.043-.048.013-.028-.041-.032-.047h-.045l-.027.052-.023.046c-.021.01-.084.037-.08.019l.019-.106.036-.202a.3.3 0 0 0-.031-.08c-.1-.085-.327.074-.383.163-.04.061.084.163-.02.142l-.15-.03a.3.3 0 0 0-.067.015l-.041.028-.039.027-.05.027-.035-.04-.027-.03-.022-.013-.04-.01c-.036-.01-.052-.041-.053-.082l-.004-.071-.03-.028-.022.067c-.047.146-.086.065-.094.108 0 0-.028-.035-.03-.04l-.02-.06-.007-.018-.045.024-.047.024-.044.022-.048.023c-.044.022-.118.01-.171 0l-.065-.011-.064-.012-.058-.01-.053-.007-.036.038-.032.034-.058.05c.005.06-.02 0-.039-.052l-.017-.053-.015-.046c-.003-.007-.032-.053-.03-.06l.055-.17-.113-.017-.195.261a.3.3 0 0 1-.046.04l-.057.025c-.006.003-.03-.02-.039-.028l-.038-.032-.067-.055c-.018-.015-.057.047-.083.081l-.125.006c-.253.013-.077-.098-.394-.277l-.039.014-.082.093-.06.066c-.074.084.008-.073-.152-.208-.086-.073-.138-.12-.233-.123-.053-.001-.133-.022-.156 0l-.128.132-.088-.13.032-.05.034-.051c.021-.032-.014-.128-.065-.127-.079.001-.151.013-.198.115-.01.02-.093-.024-.083-.044.18-.348.082-.4.368-.68-.163-.01-.224.108-.318.197l-.156.148-.07.019-.013-.042-.019-.058-.016-.05-.026.019-.018.044-.026.064c-.023.055-.138.093-.235.12l-.042-.028.025-.046.023-.042.024-.045.028-.053.036-.067c.009-.016.053-.068.033-.066-.037.004-.096.017-.101.036l-.016.067a.2.2 0 0 1-.032.044l-.223.15c-.021.013-.084.043-.11.056-.024.01-.064-.054-.046-.07l.082-.08.037-.037.035-.034.036-.035.039-.029.039-.028.042-.031a.14.14 0 0 0 .024-.051l-.015-.063c-.004-.017-.063-.022-.08-.015l-.05.02-.039.003h-.046a.2.2 0 0 0-.04.011l-.04.034c-.027.023-.144.065-.15.032l-.03-.149-.014-.072-.136.095-.045.031a.73.73 0 0 1-.26.383l-.037.03a.3.3 0 0 1-.05.016l-.069.005a.1.1 0 0 1-.04-.036l.003-.066.003-.067c0-.019-.045-.083-.055-.067l-.048.074-.047.07L0 46.615c.032-.097.217-.183.087-.253-.019-.01-.09-.044-.076-.06l.081-.083c-.004.004.132-.075.076-.086zM28.34.608c0-.03-.027-.053-.06-.053s-.059.024-.059.053.026.053.06.053c.032 0 .059-.024.059-.053m.805.56.02-.078c.002-.013-.042-.024-.053-.016l-.05.04c-.021.016 0 .074.01.098.006.015.069-.026.073-.044m2.107.064-.132-.12c-.041.053-.101.123-.078.155l.102.138zm-.131.22-.215-.012-.07-.175-.202.083c.128.086.222.163.31.273zm-1.124-.066c-.04-.056-.217-.096-.286-.005-.053.049.295.087.282.117.008-.018.018-.094.004-.113m.322.026c0-.041-.038-.075-.084-.075s-.085.034-.085.075c0 .042.038.076.085.076.046 0 .084-.034.084-.076m.623.25-.107.053-.05-.125-.145.157.226.068c.051.016.08-.097.075-.152m.309.07c-.007-.1-.045-.11-.085.013zm2.59.025c0-.012-.05-.021-.065-.018-.097.02-.232.15-.16.27.117-.034.23-.155.226-.252m-1.258.331a.27.27 0 0 0 .171-.252c-.112.034-.218.116-.17.252m-.274-.144-.056.142.103.032.056-.142zm-24.789.25c.035-.035-.147-.094-.164-.047-.028.08-.01.187.021.224zm26.05 0c-.018-.02-.06-.06-.068-.049l-.04.058a.6.6 0 0 0-.095.2l.202-.21zm-5.27.596c.094-.09.255-.389.244-.505-.33.16-.055.167-.291.373a.3.3 0 0 0-.046.096c-.004.02.076.049.092.036m4.816-.374c-.007-.1-.045-.109-.085.013zm-27.287.215c.018-.024.027-.118-.006-.118L5.68 2.51l.038.096c.008.02.096.043.11.024m17.152-.01q.136-.024.108-.118zM6.426 2.81c.007-.069-.051-.205-.114-.218-.114-.023-.204.116-.165.199zm1.132-.186c0-.025-.023-.045-.05-.045-.029 0-.051.02-.051.045s.022.045.05.045.05-.02.05-.045m19.903.159.029-.13c.004-.018-.073-.007-.077.011l-.023.108c-.003.015.066.02.071.01m-21.638.231-.26-.293.118.393zm17.705-.192-.128-.082c-.058.079-.085.148-.062.242zm-19.136.318c.072-.174.088-.244.109-.366l-.207.158c.025.064.06.14.098.208m.305-.14c.015-.037.036-.094.045-.129.009-.033-.088-.07-.135-.076-.008.055.022.111.09.205m1.257-.074-.01-.123c0-.02-.065-.035-.084-.025-.025.013-.016.103.01.113zm2.989-.034-.148-.137a1 1 0 0 0-.042.134c-.005.032.125.02.19.003m-3.79-.01.028.071c.007.016.073.013.068-.004l-.02-.071c-.004-.011-.08-.007-.075.003m1.534.009c.014.031.055.083.065.063l.038-.077c.007-.014-.109 0-.102.014zm2.372.013v.148h.113v-.148zm-3.635.314-.16-.22.034.257c.007.023.067.068.093.063.026-.004.051-.074.033-.1m4.715.131c.116-.226-.052-.267-.227-.352.005.093.094.139.16.179l-.043.112c-.009.025.098.086.11.061m-4.03-.25c-.008-.023-.092-.09-.1-.064l-.027.096c-.009.032.018.132.055.138l.13.023zm17.18.011c.01-.032-.052.013-.047.037.005.025.034.08.062.078l.073-.003-.087-.112m-17.628.159-.05-.11c-.034.057-.063.095-.043.107s.1.022.092.003m-.775-.038c-.007-.013-.117-.003-.11.01l.034.057.129.222c.017-.074-.024-.229-.053-.289m27.305.03-.09.281c-.005.016.043.067.05.054.09-.155.098-.07.04-.335m-23.069.113-.065-.07c-.009-.01-.027-.004-.027.009 0 .025-.002.089.012.077.009-.008.09-.008.08-.016m13.607-.06-.124-.019c-.04.134-.061.206-.082.337.113-.111.122-.153.206-.317m9.595.397c.068-.13.135-.262.188-.42-.138.108-.276.235-.188.42m-26.41-.156-.25-.145c0 .041.033.136.073.162.043.027.186.008.177-.016m-2.571.041c.04-.01-.011-.155-.052-.144-.032.009-.091.088-.07.11.017.02.096.041.122.034m20.649-.16-.135.073.035.052.135-.071zm-1.144.213c.113.046.183.037.194-.005a.4.4 0 0 0 .003-.137zm10.384-.044.034-.068c.006-.012-.05-.029-.058-.019l-.058.069c-.056.015-.017.018.082.018m-28.45.151.041-.212a1.6 1.6 0 0 0-.223.133zm17.41-.134.007.093c0 .013.06-.005.06-.018l.003-.064c0-.013-.07-.024-.07-.011m2.089.136.025-.143c-.054.043-.1.11-.025.143m7.753.015.068-.11c.01-.017-.063-.052-.077-.046zm2.563.022a.17.17 0 0 0 .041-.172l-.163.15c-.013.013 0 .098.02.1q.02 0 .032-.012zm2.15-.063c.014-.053-.05-.135-.102-.118l-.126.244c.027.023.2-.03.227-.126m-11.732.247.121-.31c-.114-.033-.183.058-.208.153l-.034.129c-.008.028.11.057.12.028M5.142 3.882c.034-.036-.06-.14-.093-.118l-.113.082c.073.035.178.066.206.036m-.315.111c.045-.032.084-.095.082-.132-.001-.027-.076-.045-.115-.047l.032.179m31.065-.147-.129.002.002.096.129-.002zm-12.86.235.108-.058c.02-.01-.02-.072-.046-.104zm9.513-.085c0-.03-.026-.054-.06-.054-.033 0-.06.024-.06.054s.027.053.06.053c.034 0 .06-.023.06-.053m3.821.206c.092-.028.099-.108.054-.165zm-2.02.14.01-.183c-.038.044-.06.072-.077.095-.015.023.043.088.066.087M9.18 4.176l-.076.052.075.087.076-.052zm18.013.122c.022-.023-.066-.022-.107-.007-.03.013-.036.085-.029.141zm-5.68.893.163-.334c.008-.016-.02-.082-.034-.095-.013-.014-.035.021-.054.051-.162.263-.197.224-.188.359.002.021.103.04.113.019m.694 1.057c.15-.03.17-.134.11-.236zm-.323-.04c.127.004.14-.048.098-.118zm.125.115c.119-.044.179-.12.081-.215zm-.47.702c.098.125.215.073.258-.043zm-10.817 1.45-.135-.214a1.5 1.5 0 0 1-.268-.11.25.25 0 0 0-.037.18c.02.064.12.114.174.099l.037-.08c.007-.013.058.014.063.029l.038.117c.006.02.106-.005.129-.021m12.41 1.497.332-.215c-.207-.112-.122-.168-.149-.35l-.26.51c-.025.05.038.146.096.164.024.008.078-.04.058-.054zm-.157.52.094-.12c.015-.02-.065-.058-.085-.071l-.044-.045c-.01-.01-.064.012-.062.025.019.142.074.066.084.128zm-.838.878.152-.16.239.197c.296-.183.174-.368.267-.66.035-.11.164-.191.053-.308l-.194.22c-.029.032.015.146-.045.157l-.086-.117-.193-.01-.015.197c.331.28-.3.034-.178.483m-.068-.368c.012-.097.02-.151-.003-.148l-.119.015zm.079.636c0-.024-.12.019-.125.051-.004.027.017.077.032.108zm-8.767 2.927-.032-.131c-.005-.02-.05.003-.113.03zm.707.21-.144-.13c-.018.022.002.1.03.115a.3.3 0 0 0 .113.015m.404.809-.145-.328c-.015-.034-.056-.092-.048-.114.017-.022.073-.059.055-.065-.021-.008-.061-.022-.08-.019-.011.002-.068.017-.065.014.003-.002-.014-.037-.014-.034l.08-.031-.08-.132c-.019-.032-.16-.031-.15-.017l.129.138-.206.107c.174.044.295.202.304.337a.8.8 0 0 0 .22.143m-.812-.629c-.009-.028-.076-.072-.106-.078-.022-.004-.09.035-.09.056-.007.092.105.282.262.236zm-.938.48c.017-.019.037-.111.01-.127l-.094-.059c-.049.06.002.17.083.186m1.245.134a.8.8 0 0 1-.117-.138l-.05-.082c-.009-.016-.088.012-.085.03.008.053.068.155.104.217zm.59.29-.068.056.102.1.07-.057zM12.094 26.91c0-.038-.036-.07-.079-.07s-.079.032-.079.07c0 .04.035.07.079.07.043 0 .079-.03.079-.07m-1.411 2.498c0-.03-.027-.054-.061-.054s-.061.024-.061.054.027.055.06.055c.035 0 .062-.025.062-.055m-.667 1.094c-.02.002-.104.003-.046.01l-.15.243c.173-.068.275-.262.196-.253m-.48.699c.043.004.122-.007.124-.032.003-.032.004-.073.004-.115zm-.43.716-.104.155.06.031.104-.155zm.032.86c.002-.021-.07-.054-.08-.037l-.032.065c-.011.02-.004.083.005.104s.094.047.095.024zm-.469.51c-.01.022.053.074.075.064a.4.4 0 0 0 .102-.063l.228-.328c-.189-.092-.174.183-.263.192l-.15.016.045.044c.01.01-.024.05-.037.075m-.17.111-.024.1.107.02.024-.1zm-.029.227-.154.042.035.103.154-.043zm-.415.25c.06-.032.077-.126.018-.126-.037 0-.033.107-.018.127m-1.058 1.742c.027-.018.103-.063.09-.09l-.06-.12-.154.163c-.017.018.028.109.049.096zm-1.377 1.83c.088.051.199-.108.12-.146-.072-.035-.177.112-.12.145m16.054 3.045.15.305c.063.131.255.021-.15-.305m-19.186 5.89-.269.314c-.05.06.032.118.119.137.13.03.25-.386.15-.452m.554.72c.005-.02-.081-.044-.087-.027l-.03.096c-.007.023.055.025.074.025.013 0 .034-.06.043-.095m5.242.792.074-.208a.3.3 0 0 0-.006-.094c-.004-.018-.081.013-.094.028l-.169.202zm-1.05-.034c.074 0 .1-.176.006-.174-.078.002-.087.173-.005.174M43.174 49.135l-.064.017c-.133.035.083-.146.03-.399.032-.03.148-.133.099-.153l-.13-.056c-.048-.02.2-.44.211-.626a.9.9 0 0 0 .172-.215l.28-.461.33-.527c.156-.251.312-.497.486-.743l.535-.753q.123-.169.231-.347c.204-.337.439-.637.673-.956l.78-1.065.162-.225c.241-.335.447-.696.732-1 .066-.07.154-.094.199-.201.04-.097.172-.178.134-.315l.13-.16.067.106c.383-.388-.125-.291.243-.512.105-.293.238-.385.46-.75.135-.22.285-.417.43-.633l.546-.813c.134-.199.232-.406.358-.612l.33-.538.575-.91.17-.266c.018.003.101.045.091.056l-.068.075-.005.037c-.002.016.014.077.024.065l.057-.072.017-.097c.006-.032.107-.073.137-.09-.015-.095.082-.17.119-.24l.24-.454.133.045c.026.01.044-.057.063-.1l.065.125c.055-.074.074-.125.071-.192l-.182.057c-.01-.061-.025-.142-.055-.135a.24.24 0 0 0-.097.074l-.249.334c.106-.227.438-.91.648-1.05l.06.102c.011.017.102.015.104-.004l.009-.096.049-.228c-.105.06-.113.078-.21.114l.832-1.511.344-.613c.078-.14.144-.324.271-.422.086-.032.176-.064.234-.095.078-.04.055-.201.092-.25l.187-.25.06-.079c.012-.017-.031-.08-.036-.08l-.08.071c-.013.012-.037-.002-.065-.006l.048-.122c.01-.03.107.003.138.01.007-.018.025-.058.013-.064l-.073-.04.185-.013c.092-.128.195-.287.129-.475l-.115.206c.009.019-.043-.027-.045-.038l.152-.223c.008-.012.064-.001.08.003-.008-.002.051-.281.074-.33l.19-.396c.1-.207.252-.398.326-.614.105-.31.124-.146.271-.477l.145-.323c.02-.044.044-.1.067-.143l.31-.573c.194-.361.129-.337.07-.525-.066-.214-.22-.401-.312-.6-.12-.259-.209-.505-.377-.747-.095-.135-.123-.314-.18-.46-.17-.435-.252-.46-.36-.751-.048-.132-.133-.245-.214-.367-.263-.396-.044-.213-.28-.62l-.207-.355a7 7 0 0 1-.35-.67c-.043-.1-.123-.196-.11-.313.012-.11-.062-.204-.167-.256-.042-.022-.002-.14-.016-.177a9 9 0 0 0-.264-.63l-.168-.349-.134-.278c-.19-.394-.27-.387-.408-.681l-.125-.268c-.055-.118-.11-.23-.152-.358l-.106-.319-.109-.207c-.073-.138-.148-.277-.216-.418s-.115-.306-.204-.436c-.09-.13-.153-.32-.256-.533-.057-.116-.235-.24-.26-.367-.048-.232-.074-.271-.212-.502l-.31-.517c-.135-.227-.265-.428-.39-.663-.112-.208-.254-.422-.334-.64-.216-.2.002-.23-.254-.437-.038-.031-.07-.123-.081-.17a1.7 1.7 0 0 1-.289-.44c-.042-.091-.166-.222-.174-.307-.036-.39-.088.028-.221-.513l-.153-.166c.04.004.046.005.058.01l.081.041a2 2 0 0 0-.273-.529c-.055-.01-.135-.024-.162-.052-.035-.035-.002-.09.018-.151.031-.096-.188-.413-.238-.524-.062-.139-.11-.267-.188-.4-.045-.077-.118-.171-.152-.245l-.217-.462-.414-.835-.442-.908-.384-.817c-.05-.105-.036-.233-.154-.319-.146-.109-.092-.278-.03-.433l-.175-.015c.075-.523-.034-.126.009-.576l.234-.07-.074-.26a.3.3 0 0 1-.001-.107c.005-.024.08-.056.094-.036l.102.132.162-.188a.3.3 0 0 1 .078-.05c.019-.009.042.053.045.072l.02.11c.017.103.113-.09.198-.156.053-.043.225.19.33.106l.193-.157c-.027-.102.156-.196.158-.194l.056.038c.029.019.095.062.124.05l.134-.054.08.188.125-.213c.099.067.137.178.14.3l.038.036c.016.014.103.007.095-.012l-.034-.085c-.013-.032-.057-.106-.029-.124l.125-.077.035-.03a1 1 0 0 1-.074-.031c-.058-.048-.005-.221.052-.265l.061.138c.012.025.055.028.1.047.028.02.117.064.15.04.08-.06.106-.176.117-.287.19.214 0 .272.226.271.014 0 .043-.04.033-.048l-.06-.047c-.053-.04-.077-.17-.061-.25.237-.01.14.265.292.287a.5.5 0 0 1 .202.055c.055.042.09.157.063.228l-.13-.118c-.013.06-.043.13-.02.147l.101.076c.027.032.066.08.027.032.036-.13.336-.204.243-.244l-.079-.034c-.026-.012-.144-.012-.135-.037.12-.359-.091-.158-.01-.305.018-.032.07-.113.1-.1.146.059.1.226.182.199.032-.01.071-.056.1-.092l.022-.028.072.05.228-.14a.46.46 0 0 1 .243-.065c.068.004.129.11.163.188.053.015-.075-.126.165-.177.015-.003.008.043.003.055l-.06.125c-.013.027.09.06.099.061-.08.072-.137.151-.15.24l.143-.064c.104-.046.074.223.14.245l.109-.15c.007-.009.053-.015.054-.005.018.15.233.55.329.701.181.29.196.5.324.512.02.002.105-.035.09-.047l-.074-.063a.9.9 0 0 0-.126-.265l-.181-.293c-.022-.035-.015-.12-.066-.146s-.07-.096-.078-.15l-.011-.08c-.002-.011.021-.003.064.003l.062-.05c.024-.02-.258-.116-.118-.31.017-.024.114-.03.117-.007l.02.122.009.06c.01.065.025.12.047.196l.067-.012.063-.096c.01-.015.052.048.059.07.005.018.091-.004.099-.02.028-.064.09-.195.138-.248.008-.01.088 0 .09.01a.1.1 0 0 1 .005.048l-.035.235c.086.01.185.03.186.065a.7.7 0 0 1-.027.15c.021.26.191.355.184.448-.002.025.042.115.066.1l.11-.062.144.13c.013.013.067-.013.085-.018.017-.005-.006-.031-.044-.06-.053-.043-.054-.125-.029-.208.05-.161-.154-.282-.312-.289-.006-.018-.009-.08.013-.083l.106-.02c.215-.04-.17-.112-.139-.185l.084-.188c.011-.023.118.045.117.071-.006.147.07.27.23.313.12.032-.122-.248-.15-.39l-.027-.138.064.09c.01.014.025.042.031.044.02.006.107.006.098-.01l-.034-.072a.34.34 0 0 1-.008-.298l.03-.054c.01-.015.072.034.067.05-.101.375-.005.18.004.237l-.01-.06c-.003-.017.014-.055.023-.072.009-.015.059.022.065.038l.073.198a.45.45 0 0 0-.196.077c-.053.046-.039.156 0 .214.155.23.3.64.368.607l.1-.05.14.103.052-.043-.021-.126c.176-.148-.006-.234.084-.37.033-.05.144-.077.227-.062l-.107.122.044.066c.012.018.06-.02.084-.036.017-.066.036-.129.026-.055.044.047.054.064.063.057l.07-.06.044-.04c0-.064 0-.136.022-.046a.7.7 0 0 0 .375.042l-.077-.292c.183-.076.105-.182.189-.232.033-.02.104-.006.185.002l.077-.347q.065.095.213.116l.174.08c.096-.034.178-.063.276-.08.19-.036.214.266.404.117l.045.126.094-.176c.097.17.15.328.267.484.048.064.11.16.154.214.143.169.285.31.387.5.13.247.34.44.489.673l.33.52c.081.126.155.254.231.386l.501.872c.158.274.318.525.45.81l.57 1.251.188.347.235.614.325.74c.079.178.177.345.267.528l.232.468c.03.063.205.564.377.612l.284-.669.153-.36c.092-.215.21-.422.285-.648a6.6 6.6 0 0 1 .418-.987.33.33 0 0 1 .136-.157c.175-.12.208-.365.306-.54.143-.257.269-.49.393-.756l.25-.261v-.308c.1-.036.136-.066.177-.129l.289-.45c.145-.227.306-.418.401-.664.118-.302.365-.429.232-.691-.005-.01-.006-.041.006-.038l.123.034.186-.346c.07-.133.168-.251.254-.379.066-.098.115-.231.198-.314.16-.16.201-.26.28-.477l.123-.343a.3.3 0 0 1 .068-.086c.021-.015.093-.01.098.014a.4.4 0 0 1-.002.127l-.087.194c-.036.081-.385.35-.2.53l.192-.289.068.027.08.03c.047.02.153.039.18.008.026-.03-.012-.136-.05-.155l-.188-.093c-.008-.004.016-.044.017-.052l.013-.063c.052-.253.049.021.214-.312l.157-.317.161.098.05-.006c0 .081-.013.108.015.111.044.005.14.016.145-.009l.025-.148c-.005-.002.063.01.058.022l-.032.085a2 2 0 0 0-.108.374l.164-.18c.096-.106.209-.32.186-.333l.106.063.19-.314c.103-.172.295-.067.318-.302.001-.017.034-.048.046-.059.02-.016.052.054.056.077l.013.075.106-.13.048.093-.096.078c-.01.008-.044.035-.035.042l.09.064.195-.25c.018-.023.052-.046.044-.062l-.035-.076.192-.096c.156.006.047-.124.229-.344l-.079.003c.062-.192-.025.036.331-.05.012-.004.068.01.075.003l.048-.054c.01-.01.045-.045.046-.034l.012.1c.004.026.068.067.097.07.166.014-.063-.179.32-.273l.036.089.213.002a.3.3 0 0 0 .065-.018c.077-.048-.157.268-.055.362.13-.153.204-.3.269-.477.105-.055.084-.176.14-.158l.108.034c.005.001-.015.046-.016.05l-.007.058c-.002.018.07.065.076.047l.025-.077.028-.038.105.05c.019-.014.044-.033.05-.035l.08-.025c.022-.007.054.052.049.075l-.058.232.121-.103.13.06.064.028c.013.005.012-.01.016-.055.005-.082.02.005.16-.121l.048-.043c.034-.03-.148.36-.104.494.205-.052.083-.239.266-.24.03 0 .047.069.042.095l-.014.067-.012.056c-.003.015.037.057.049.046a.3.3 0 0 0 .04-.056l.043-.111.028-.067.036.067c-.019.053.063.037.076-.005.044-.144-.039-.279-.227-.295.035-.152.118-.327.266-.403l.067.139c.002.005.04.03.042.036l.023.07c-.002-.005.217-.044.288-.223l.04.028.055.038c.065.044.209-.234.206-.378L72.15 3c.015.004.068.054.054.074l-.069.09c-.031.042-.1.102-.098.142.007.1.059.064.112.195l.086.212c-.013.011-.06.047-.059.053l.044.122.015.044.136-.132c.033-.031.147-.026.18.004l.158.148c-.018.074.116.07.163.073.1.004.073.114.119.081l.059-.043c.033-.023.063-.119.056-.134-.051.028-.11.023-.102.002l.048-.13.3.227c.088-.032.222-.152.185-.272l.189-.079.018-.076c.004-.015.037.001.066.015l.157.079c-.037.047-.109.133-.135.176-.01.016.02.07.037.062.498-.232.21-.116.368-.351.01-.016.089.038.085.056l-.066.298c-.005.022.016.103.021.125s.088-.019.111-.01l.141.055c.072.028-.156.149-.13.394l-.065.112.051.022c.021.008.057-.042.068-.063l.105-.206.056-.116c.04-.085.187.1.23.003l.035-.077.096.085-.113.096c-.104-.04-.02.006.018.034.129.096.032-.036.286-.225l.07.03.009-.077c.002-.017-.032-.05-.049-.04l-.076.047c-.02.013-.08-.027-.1-.042s.042-.063.07-.065l.403-.026c.01 0 .067.016.074.014l.054-.011c.016-.003 0 .026-.016.062-.1.235.11-.008-.135.61-.018.044-.042.1-.049.13s.068.071.126.1c.163-.334-.038-.253.197-.457.036-.031.076-.105.128-.179.118.08-.31.47-.005.45l.325-.527.042-.063c.175-.267-.249.648-.108.462l.16-.172.043-.046c.055-.058.04.14.038.24-.004.168-.03-.023-.077.263-.004.023.058.059.073.039l.068-.094c.004-.005.052-.027.056-.032.105-.11-.089-.126-.017-.2l.139-.143c.017-.018.09-.052.105-.032l.067.093.116.16-.034.08c-.006.013.025.035.04.05.014.017.025-.076.038-.093l.11-.14c.13.167.382.063.273.238l-.215.35a2 2 0 0 0-.115.214c.383.117.107.212.302.297.022.01.065.018.06.028l-.026.048-.025.05c-.066.13.296.179.219.291-.057.083-.114.12-.192.112l.017.05.024.067H77.3l-.12.002c.155.161-.014.199-.03.283-.035.18-.072.372-.159.549-.002.03.056.107.08.086.162-.141-.004-.182.068-.233.043-.03.22-.155.248-.228l.138-.355a.5.5 0 0 1 .052-.078c.015-.018.066.027.058.05l-.05.13.18-.03.089-.03c.027-.01.025-.09.018-.115l-.037-.12c-.007-.024.104-.035.116-.012.036.064-.01.294-.124.367-.05.031-.108.067-.094.092l.065.118.039.087c.01.023-.068.04-.111.045-.027.004-.048.096-.024.107l.096.041c-.019.11-.037.17 0 .279.072-.13.122-.237.175-.368l.077-.032c-.072-.073-.065-.153 0-.232l.136.084c.342-.258.033-.588.515-.557.04.003.088.01.107.028s.028.092 0 .095l-.142.012-.095.311c-.005.016-.018.04-.015.046l.07.154c.006-.021.018-.058.019-.067l.003-.074c0-.01.035-.027.043-.018l.038.045c.008.01.03.037.036.037l.112.003c.056 0-.115-.153.025-.249l.052-.035c.01-.007.052.007.046.017l-.05.091.058.057.116-.18a.4.4 0 0 1 .049-.057l.056-.05c.015-.014-.087-.03-.108-.028l-.081.011c-.017.002-.045-.03-.034-.042.015-.017.078-.077.1-.076l.24.013c.077.153-.046.247-.162.33l.07.113c.01.018.001.108.024.107l.122-.002c.02 0 .052-.05.04-.063-.155-.165-.192-.037-.181-.098l.018-.098c.014-.072.196.09.238-.009l.065-.152.07-.017c.013.033.027.09.038.08l.066-.06.038-.035.048-.033c.069-.048.05.083.114.094l.15.027.126-.105c.03.037-.02.102-.03.118l-.028.042-.026.04c-.003.005.017.033.022.035l.048.022a.3.3 0 0 0 .067.005l.06-.01.039-.007.013.05.015.052.015.054.046.034q.016-.058.021-.067l.062-.097c.053-.034.072-.043.04-.004a.48.48 0 0 0-.099.456l.035.142c.006.023.026.08.034.103.01.026.107-.031.142-.044.205.341-.215.418.012.58.016.011.061.067.045.074-.022.011-.092.034-.106.053-.055.072-.198.4-.19.497h.118c.109 0-.025.096-.084.238-.07.17-.128.32-.206.476-.145.287-.268.575-.403.867l-.266.572c-.162.35-.407 1.144-.691 1.616-.224.37-.252.48-.42.866l-.293.678c-.063.144-.096.31-.165.454l-.813 1.705-.28.57-.342.654v.07c.001.065-.129-.108-.23.327-.019.08-.15.16-.184.223l-.227.427c-.044.081.027.243-.092.294-.026.002-.072-.009-.08.005l-.046.09-.03.056c-.005.013.03.029.035.04l.015.05c-.032-.012-.074-.03-.081-.027-.03.011-.092.061-.1.09-.01.035.047.096.085.148-.43.344-.285.224-.441.675a1.54 1.54 0 0 0-.365.686c-.155.164-.186.3-.253.5-.084.25-.373.863-.523 1.06l-.165.218c-.153.202-.224.43-.32.652l-.114.265-.16.34-.122.247c-.029.057-.084.152-.137.152-.023 0-.086-.01-.08 0 .007.01.025.035.032.042l.054.052a.8.8 0 0 1-.194.12l-.384.74-.208.39-.739 1.357-.28.534-.392.722-.382.705-.333.586a5 5 0 0 0-.164.314c-.064.13-.2.27-.216.417-.012.114.136.248.18.346.195.44.43.69.458.751.064.146.112.269.19.4.064.11.175.23.218.33.156.353.214.452.44.784l.182.264c.093.135.155.25.22.391.12.255.303.485.455.729.135.216.25.43.418.637.314.39.55.809.782 1.24l.1.186c.071.132.129.24.23.355.095.11.147.263.222.39.053.09.145.196.161.283.01.049.015.096.034.12l.206.277c.118.159.206.325.304.488l.279.466.243.431.097.184c.088.165.283.367.35.526l.057.138c.047.114.468.718.608.962.088.152.18.284.276.427l.21.31.214.329.235.371.241.365.365.54.854 1.392.398.655c.184.303.347.597.502.913l.741 1.517.628 1.301c.14.29.274.559.397.852.048.114.125.21.195.317.115.174.136.405.218.591.042.096.083.178.078.283-.03.603.086.227.104.588.017.309.144.5.1.524l-.11.058-.045.023c-.02.01-.044.064-.044.085v.06l-.002.066-.001.069-.002.06c0 .007-.02.045-.025.048l-.04.031-.04.03c-.068.053-.11.015-.14-.02l-.031-.037-.033-.035c-.014-.017-.066-.039-.09-.03l-.044.018-.05.02c-.061.023-.155.013-.181-.011l-.036-.035-.059-.055-.044-.006-.056.031c.003.17-.143.287-.33.263-.234-.03-.057.16-.485-.062-.084-.044-.279.029-.38.053l-.236.058-.127-.119-.408-.139c-.036.054-.09.17-.063.223l.046.088c.012.023-.046.068-.072.084l-.16.098-.06-.142c-.038-.086-.185.066-.374-.279l-.033-.058c-.005-.01-.027-.001-.034.009l-.032.054c-.077.128-.318.015-.353.188l-.012.06c-.045.213-.977-.167-.997-.453l-.006-.077c0-.01-.007-.005-.046-.003-.044.042-.097.112-.085.155l.028.097c.005.018-.08.01-.102.008l-.2-.012a.1.1 0 0 0-.043.012l-.028.038-.052.068c-.04.053-.109-.234-.255-.301l-.15.154c-.118.05-.173.107-.177.228l-.06.013-.134.028c-.01.002.007.072.004.08l-.033.09c-.035.097-.523-.337-.6-.418s-.07-.223-.21-.21c.038.504.162.344.217.54l.014.049.014.048.008.06c.006.05-.043.078-.064.06l-.042-.034-.037-.031-.037-.03a.2.2 0 0 1-.026-.045l-.019-.135c-.004-.026-.04-.037-.096-.053-.036.09.035.047.035.155v.035c0 .014-.042-.021-.062-.037l-.037.014-.007.036c.04.078.079.196.058.28l-.12-.114-.075-.076a1 1 0 0 0-.019.076l-.009.11c-.001.028-.09.014-.107-.01l-.087-.13-.06.057c-.09-.036-.412-.128-.498-.01-.024.032-.072.115-.114.11l-.186-.02c-.16-.016-.29-.526-.48-.674l-.105.012c-.065.006-.069.049-.086.122l-.027.12c-.005.019-.025-.012-.055-.047l-.062-.073-.039.07c-.047.085.178.378.055.522l-.073-.06-.015.063-.014.09c-.003.023-.107-.028-.12-.048a1.1 1.1 0 0 1-.11-.382c.108.028.224-.004.24-.057.018-.065-.147-.23-.15-.232-.035-.04-.154.032-.215.038-.075-.044-.215.042-.243.065-.033.027.057.125.075.164l.023.048c.017.036-.008.15-.07.18l-.05.024-.046.023c-.007.003-.067.044-.105-.002l-.256-.303-.085-.001c-.007 0-.031.03-.033.036l-.017.063-.022.077c-.018.065-.095-.104-.15.014l-.022.048a.2.2 0 0 1-.067.03c-.292.028-.047-.458-.296-.485-.023.094-.04.169-.049.186a.7.7 0 0 1-.12-.146l-.036-.092c-.04-.103-.096.133-.172.065-.119-.107-.136-.296-.168-.187l-.034.116a.2.2 0 0 0 .006.041l.023.029c.007.01.03.032.031.037l.03.084c.007.017-.037.032-.11.066l-.122-.258c-.003-.006-.032-.035-.038-.035l-.18-.006c-.112-.004-.172-.182-.134-.035l.03.123a.4.4 0 0 0 .041.05c.017.016-.073.097-.097.076-.162-.14-.294-.423-.407-.615l-.19-.32-.339-.613c-.06-.11-.087-.26-.154-.37l-.122-.2-.34-.618c-.114-.21-.241-.395-.328-.62-.101-.266-.152-.396-.31-.625-.063-.09-.145-.182-.173-.272-.06-.194-.137-.36-.218-.547-.17-.392-.257-.394-.348-.631a1.5 1.5 0 0 0-.259-.427l-.02-.06a1 1 0 0 0-.108-.223l-.2-.3c.065-.055.07-.06.062-.051l.063.064c.015.015.04.063.053.085l.024.043c.007.014.018.035.023.042l.614.922c.022-.055.033-.078.029-.085l-.028-.047-.024-.041-.026-.044-.448-.717c-.199-.319-.316-.648-.592-.93l-.014-.051c-.002-.01-.014-.031-.02-.044l-.022-.048-.025-.052a.3.3 0 0 0-.027-.043l-.034-.034-.032-.031-.024-.038-.027-.045-.026-.045-.025-.043-.024-.04-.024-.042-.026-.043c-.008-.014-.02-.037-.026-.044l-.03-.04c-.002-.004-.052-.032-.055-.038l-.206-.342c-.038-.064-.005-.023-.06-.084l-.034-.038-.029-.033-.03.023.02.048.024.043.025.044c.016.028.06.08-.005.16l-.057-.043-.375-.584c-.204-.317-.323-.67-.578-.95l-.164-.181-.449-.803c-.037-.067-.065-.131-.097-.204l-.165-.373-.063-.01-.122.22c-.022.04-.077.068-.157.09l-.177.444c-.159.164-.25.306-.223.521-.201.392-.287.27-.359.47-.076.212-.185.387-.282.585l-.182.37-.335.576-.372.669-.431.793-.289.51a5 5 0 0 1-.326.515l-.335.448c-.478.64-.272.526-.52.905-.09.139-.2.287-.274.432l-.386.77c-.114.23-.06.236-.225.573-.103.21-.192.417-.274.64-.032.088-.017.254-.083.313-.12.106-.216.199-.292.347-.064.136-.026.344-.046.5-.028.014-.064-.058-.077-.081l-.026-.044a.2.2 0 0 1-.015-.041v-.07c0-.016-.075-.02-.092-.018-.007 0-.019.024-.027.038l-.035.062-.015-.115c-.004-.03-.081-.048-.113-.041l-.083.018c-.158.034-.105.352-.074.363.054.02.124.035.197.03.029.003.05.066.057.088l.02.049c.001.003-.032.038-.038.036l-.075-.01-.045-.02-.043-.021a.3.3 0 0 0-.058-.01l-.07.005-.058.003-.043.005s-.126-.044-.087-.053c0 0 .017-.032.027-.046l.025-.04.026-.04c.004-.007.065-.092.022-.092l-.061-.007-.07-.008c-.027-.004-.094-.001-.096-.04l-.002-.041c-.003-.052.007-.034-.037-.06l-.053-.03-.023-.035-.028-.042c-.008-.014-.005.017-.004.053l-.09.42c-.063-.096-.094-.13-.145-.144l-.309-.09.071-.194c.005-.013-.019-.059-.033-.05l-.068.046c-.352.411-.265.151-.683.261-.057.015-.183-.08-.195-.132-.018-.075-.063-.19-.124-.201-.04-.008-.11-.01-.107-.028l.017-.115a.35.35 0 0 0-.05-.153l-.038.069-.024.054c.03.138.026.264-.137.313l-.008.066a.1.1 0 0 1-.039.04l-.062.009a.2.2 0 0 1-.059-.016l-.04-.03c-.01-.007-.038-.034-.043-.036l-.182-.087c-.043.04-.062.065-.065.054-.058-.191-.001-.219.055-.338l.088-.186c-.161-.08-.1-.232-.158-.217l-.062.017c-.01.113-.021.23-.06.328l-.09.222c-.189.288.07-.595-.114-.244l-.038.072c-.027.05-.054.128-.095.146-.047.02-.178-.038-.187-.083l-.033-.166c0-.005.008-.037.01-.043.054-.05.115-.166.068-.204-.036-.03-.097.008-.15.032l.012.38a.4.4 0 0 1-.03.067l-.113.13c-.011.013-.04.037-.05.047-.106.09-.035-.37-.031-.394.012-.08-.026-.215-.086-.256-.016-.01-.1.03-.105.013l-.027-.084-.05-.197c-.004-.016.013-.073.017-.09.005-.023-.066-.052-.09-.039-.303.159-.258.3-.435.385-.03.014-.092-.052-.099-.082l-.02-.094c-.003-.018-.038-.054-.045-.037l-.051.111a.3.3 0 0 0 .005.068l.016.06a.2.2 0 0 0 .032.038l.041.032.036.027a.1.1 0 0 1 .008.03l-.012.039c-.001.005-.037.049-.051.068-.013.016-.068-.028-.079-.045s-.065.055-.083.066c-.107.066-.221-.086-.218-.083l-.022-.02-.046.122-.058-.014-.026-.057c-.024-.05-.06-.026-.089-.02l-.067.015c-.013.003-.015-.054-.024-.065l-.194-.24a.3.3 0 0 0-.074.05l.001.06c-.017.028-.031.052-.025.04q-.016-.046-.016-.056l.003-.095c0-.025-.079-.007-.102.01l-.042.03-.05.036-.186-.28c-.269.115-.202.202-.285.224-.11.03-.347.052-.445-.042l-.062.028c-.015.007-.045.024-.052.025l-.092.02c-.021.004-.048-.052-.052-.071l-.013-.059-.012-.055c-.003-.016-.024-.086-.04-.077l-.075.043-.048.013-.028-.041-.032-.047h-.045l-.027.052-.023.046c-.021.01-.084.037-.08.019l.019-.106.036-.202a.3.3 0 0 0-.031-.08c-.1-.085-.327.074-.383.163-.04.061.084.163-.02.142l-.15-.03a.3.3 0 0 0-.068.015l-.04.028-.039.027-.05.027-.035-.04-.026-.03-.023-.013-.04-.01c-.036-.01-.052-.041-.053-.082l-.004-.071-.03-.028-.022.067c-.047.146-.086.065-.094.108 0 0-.028-.035-.03-.04l-.02-.06-.007-.018-.045.024-.047.024-.044.022-.048.023c-.044.022-.118.01-.171 0l-.065-.011-.064-.012-.058-.01-.053-.007-.036.038-.032.034-.058.05c.005.06-.02 0-.039-.052l-.017-.053-.015-.046c-.003-.007-.032-.053-.03-.06l.055-.17-.113-.017-.194.261a.3.3 0 0 1-.047.04l-.057.025c-.006.003-.03-.02-.039-.028l-.038-.032-.067-.055c-.018-.015-.057.047-.084.081l-.124.006c-.253.013-.077-.098-.394-.277l-.039.014-.082.093-.06.066c-.074.084.008-.073-.152-.208-.086-.073-.138-.12-.233-.123-.053-.001-.133-.022-.155 0l-.128.132-.09-.13.033-.05.034-.051c.021-.032-.014-.128-.065-.127-.079.001-.151.013-.198.115-.01.02-.093-.024-.083-.044.18-.348.082-.4.368-.68-.163-.01-.224.108-.318.197l-.156.148-.07.019-.013-.042-.019-.058-.016-.05-.026.019-.018.044-.026.064c-.023.055-.138.093-.235.12l-.042-.028.025-.046.023-.042.024-.045.028-.053.036-.067c.008-.016.053-.068.033-.066-.037.004-.096.017-.101.036l-.015.067a.2.2 0 0 1-.033.044l-.224.15c-.02.013-.083.043-.11.056-.023.01-.063-.054-.045-.07l.082-.08.037-.037.035-.034.036-.035.039-.029.039-.028.042-.031a.14.14 0 0 0 .024-.051l-.015-.063c-.004-.017-.063-.022-.08-.015l-.05.02-.038.003h-.047a.2.2 0 0 0-.04.011l-.04.034c-.027.023-.144.065-.15.032l-.03-.149-.014-.072-.136.095-.045.031a.73.73 0 0 1-.26.383l-.037.03a.3.3 0 0 1-.05.016l-.069.005a.1.1 0 0 1-.04-.036l.003-.066.002-.067c.001-.019-.044-.083-.054-.067l-.048.074-.047.07-.102-.041c.032-.097.217-.183.087-.253-.019-.01-.09-.044-.076-.06l.081-.083c-.004.004.132-.075.076-.086zM71.34 3.608c0-.03-.027-.053-.06-.053s-.059.024-.059.053.026.053.06.053c.032 0 .058-.024.058-.053m.805.56.02-.078c.002-.013-.042-.024-.053-.016l-.05.04c-.022.016 0 .074.01.098.006.015.069-.026.073-.044m2.107.064-.132-.12c-.041.053-.101.123-.078.155l.102.138zm-.131.22-.215-.012-.07-.175-.202.083c.128.086.222.163.31.273zm-1.124-.066c-.04-.056-.217-.096-.286-.005-.053.049.295.087.282.117.008-.018.018-.094.004-.113m.322.026c0-.041-.038-.075-.085-.075-.046 0-.084.034-.084.075 0 .042.038.076.084.076s.085-.034.085-.076m.623.25-.107.053-.05-.125-.145.157.226.068c.051.016.08-.097.075-.152m.309.07c-.007-.1-.045-.11-.085.013zm2.59.025c0-.012-.05-.021-.065-.018-.097.02-.232.15-.16.27.117-.034.23-.155.226-.252m-1.257.331a.27.27 0 0 0 .17-.252c-.113.034-.218.116-.17.252m-.275-.144-.056.142.103.032.056-.142zm-24.789.25c.035-.035-.147-.094-.164-.047-.028.08-.01.187.021.224zm26.05 0c-.018-.02-.06-.06-.068-.049l-.04.058a.6.6 0 0 0-.095.2l.202-.21zm-5.27.596c.094-.09.255-.389.244-.505-.33.16-.054.167-.291.373a.3.3 0 0 0-.046.096c-.004.02.076.049.092.036m4.816-.374c-.007-.1-.045-.109-.085.013zm-27.287.215c.018-.024.027-.118-.006-.118l-.142-.002.038.096c.008.02.096.043.11.024m17.152-.01q.136-.024.108-.118zm-16.555.188c.007-.069-.051-.205-.114-.218-.114-.023-.204.116-.165.199zm1.131-.186c0-.025-.022-.045-.05-.045s-.05.02-.05.045.022.045.05.045.05-.02.05-.045m19.904.159.029-.13c.004-.018-.073-.007-.077.011l-.023.108c-.003.015.066.02.071.01m-21.638.231-.26-.293.118.393zm17.705-.192-.129-.082c-.058.079-.084.148-.061.242zm-19.136.318c.072-.174.088-.244.109-.366l-.207.158c.025.064.06.14.098.208m.305-.14c.015-.037.036-.094.045-.129.009-.033-.088-.07-.135-.076-.008.055.022.111.09.205m1.257-.074-.01-.123c0-.02-.065-.035-.084-.025-.025.013-.016.103.01.113zm2.989-.034-.148-.137a1 1 0 0 0-.041.134c-.006.032.124.02.189.003m-3.79-.01.029.071c.006.016.072.013.067-.004l-.02-.071c-.004-.011-.08-.007-.075.003m1.534.009c.014.031.055.083.066.063l.037-.077c.007-.014-.109 0-.102.014zm2.372.013v.148h.113v-.148zm-3.635.314-.16-.22.034.257c.007.023.067.068.093.063.026-.004.052-.074.033-.1m4.715.131c.115-.226-.052-.267-.228-.352.006.093.095.139.16.179l-.042.112c-.009.025.097.086.11.061m-4.03-.25c-.008-.023-.092-.09-.1-.064l-.027.096c-.009.032.018.132.055.138l.13.023zm17.18.011c.01-.032-.052.013-.046.037.005.025.034.08.061.078l.073-.003-.087-.112m-17.628.159-.05-.11c-.034.057-.063.095-.043.107s.1.022.092.003m-.775-.038c-.007-.013-.117-.003-.11.01l.033.057.13.222c.017-.074-.024-.229-.053-.289m27.305.03-.09.281c-.005.016.043.067.05.054.09-.155.098-.07.04-.335m-23.069.113-.065-.07c-.009-.01-.027-.004-.027.009 0 .025-.002.089.012.077.009-.008.09-.008.08-.016m13.607-.06-.124-.019c-.04.134-.061.206-.082.337.113-.111.122-.153.206-.317m9.595.397c.068-.13.135-.262.188-.42-.138.108-.276.235-.188.42m-26.41-.156-.25-.145c0 .041.032.136.073.162.043.027.186.008.177-.016m-2.572.041c.041-.01-.01-.155-.051-.144-.032.009-.091.088-.07.11.017.02.096.041.122.034m20.65-.16-.135.073.035.052.135-.071zm-1.144.213c.113.046.183.037.194-.005a.4.4 0 0 0 .003-.137zm10.384-.044.034-.068c.006-.012-.05-.029-.058-.019l-.058.069c-.056.015-.017.018.082.018m-28.45.151.041-.212c-.065.03-.124.066-.223.133zm17.41-.134.007.093c0 .013.06-.005.06-.018l.003-.064c0-.013-.07-.024-.07-.011m2.089.136.025-.143c-.054.043-.1.11-.025.143m7.753.015.068-.11c.01-.017-.063-.052-.077-.046zm2.563.022a.17.17 0 0 0 .041-.172l-.163.15c-.013.013 0 .098.02.1q.02 0 .032-.012zm2.15-.063c.014-.053-.05-.135-.102-.118l-.126.244c.027.023.2-.03.227-.126m-11.732.247.121-.31c-.114-.033-.182.058-.208.153l-.034.129c-.008.028.11.057.12.028m-19.873-.096c.034-.036-.06-.14-.093-.118l-.113.082c.073.035.178.066.206.036m-.316.111c.046-.032.085-.095.083-.132-.001-.027-.076-.045-.115-.047zm31.066-.147-.129.002.002.096.129-.002zm-12.86.235.108-.058c.02-.01-.02-.072-.046-.104zm9.513-.085c0-.03-.026-.054-.06-.054-.033 0-.06.024-.06.054s.027.053.06.053c.034 0 .06-.023.06-.053m3.821.206c.091-.028.099-.108.054-.165zm-2.02.14.01-.183c-.038.044-.06.072-.077.095-.015.023.043.088.067.087M52.18 7.176l-.076.052.075.087.076-.052zm18.013.122c.022-.023-.066-.022-.107-.007-.03.013-.036.085-.029.141zm-5.68.893.163-.334c.008-.016-.02-.082-.034-.095-.013-.014-.035.021-.054.051-.162.263-.197.224-.188.359.002.021.103.04.113.019m.694 1.057c.15-.03.17-.134.11-.236zm-.323-.04c.127.004.14-.048.098-.118zm.125.115c.119-.044.179-.12.081-.215zm-.47.702c.098.125.215.073.258-.043zm-10.817 1.45-.135-.214a1.5 1.5 0 0 1-.268-.11.25.25 0 0 0-.037.18c.02.064.12.114.174.099l.037-.08c.007-.013.058.014.063.029l.038.117c.006.02.106-.005.129-.021m12.41 1.497.332-.215c-.207-.112-.123-.168-.149-.35l-.26.51c-.025.05.038.146.095.164.025.008.08-.04.06-.054zm-.157.52.094-.12c.015-.02-.065-.058-.085-.071l-.043-.045c-.01-.01-.065.012-.063.025.019.142.074.066.084.128zm-.838.878.152-.16.239.197c.296-.183.174-.368.267-.66.035-.11.164-.191.053-.308l-.194.22c-.029.032.015.146-.045.157l-.086-.117-.193-.01-.016.197c.332.28-.298.034-.177.483m-.068-.368c.012-.097.02-.151-.004-.148l-.118.015zm.078.636c.001-.024-.118.019-.124.051-.004.027.017.077.032.108zm-8.766 2.927-.032-.131c-.005-.02-.05.003-.113.03zm.706.21-.143-.13c-.018.022.002.1.03.116a.3.3 0 0 0 .113.014m.405.808-.145-.327c-.016-.034-.056-.092-.048-.114.017-.022.073-.059.054-.065-.02-.008-.06-.022-.079-.019-.011.002-.068.017-.065.014.003-.002-.014-.037-.014-.035q.001.002.08-.03l-.08-.132c-.019-.032-.16-.031-.15-.017l.129.138-.206.107c.174.044.295.202.304.337a.8.8 0 0 0 .22.143m-.812-.628c-.009-.028-.076-.072-.106-.078-.022-.004-.09.035-.09.056-.007.092.105.282.262.236zm-.938.48c.017-.019.037-.111.01-.127l-.094-.059c-.049.06.002.17.083.186m1.245.134a.8.8 0 0 1-.117-.138l-.05-.082c-.009-.016-.088.012-.085.03.008.053.068.155.104.217zm.59.29-.068.056.102.1.07-.057zM55.094 29.91c0-.038-.036-.07-.079-.07s-.079.032-.079.07c0 .04.035.07.079.07.043 0 .079-.03.079-.07m-1.411 2.498c0-.03-.027-.054-.061-.054s-.061.024-.061.054.027.055.06.055c.035 0 .062-.025.062-.055m-.667 1.094c-.02.002-.104.003-.046.01l-.15.243c.173-.068.275-.262.196-.253m-.48.699c.043.004.123-.007.124-.032q.004-.05.004-.115zm-.43.716-.104.155.06.031.104-.155zm.032.86c.002-.021-.07-.054-.08-.037l-.032.065c-.011.02-.004.083.005.104s.094.047.095.024zm-.469.51c-.01.022.053.074.075.064a.4.4 0 0 0 .102-.063l.228-.328c-.19-.092-.174.183-.263.192l-.15.016.045.044c.01.01-.024.05-.037.075m-.17.111-.024.1.107.02.024-.1zm-.029.227-.154.042.035.103.154-.043zm-.415.25c.06-.032.077-.126.018-.126-.037 0-.034.107-.018.127m-1.058 1.742c.027-.018.103-.063.09-.09l-.06-.12-.154.163c-.017.018.028.109.049.096zm-1.377 1.83c.088.051.199-.108.12-.146-.072-.035-.177.112-.12.145m16.054 3.045.15.305c.063.131.255.021-.15-.305m-19.186 5.89-.269.314c-.05.06.032.118.119.137.13.03.25-.386.15-.452m.553.72c.006-.02-.08-.044-.086-.027l-.03.096c-.007.023.055.025.074.025.013 0 .034-.06.043-.095m5.243.792.074-.208a.3.3 0 0 0-.006-.094c-.004-.018-.081.013-.094.028l-.169.202zm-1.05-.034c.074 0 .1-.176.006-.174-.078.002-.087.173-.005.174"/>
</svg>