<?xml version="1.0" encoding="UTF-8"?>
<svg xmlns="http://www.w3.org/2000/svg" viewBox="0 0 1420 880">
  <g id="post-image-realign-2020-logo-2018" fill="none" fill-rule="evenodd" stroke="none" stroke-width="1">
    <path fill="#F8F8F8" d="M0 0h1420v880H0z"/>
    <g id="logo-2018" fill="#000" transform="translate(406 224)">
      <path id="Fill-1" d="M607.787 328.832c-1.414.413.917 13.933-2.42 16.018-.67.578-10.544 2.659-15-.795-2.212-2.812-3.571-11.768-3.489-15.046.059-2.352-.627-35.51-8.125-36.882 0 0 1.301 24.177 1.227 26.462-.03.885.24 10.793.617 11.898.22.64 3.373 10.893 2.906 11.028-.517.15-15.972.473-15.807.015.27-.753 3.668-10.758 3.8-11.582.479-2.97-.064-36.368.073-38.152.036-.486-.984-37.605-.854-39.683.093-1.466-.619-19.996-.44-21.409.036-.293-4.358-7.232-4.406-7.741-.043-.43 18.006-6.905 20.896-4.381 1.742 1.52 5.23 9.173 5.982 13.816 1.383 8.558.562 48.038-.776 51.294-1.135 2.768-5.032 3.871-6.654 4.073-.908.114 6.033.57 7 5.002.082.374.992 42.53 5.68 44.367 3.75 1.47 1.387-8.754 1.874-8.879 1.014-.26 6.739.455 7.916.577zM243.994 301.85c-.057 3.86-.993 5.535-2.78 8.99-1.375 2.656-9.003 3.062-10.625 3.264-.986.122 6.733.28 6.956 5.954.187 4.72-1.896 11.36.483 14.3.87 1.078 1.379 2.21 2.48 1.056.97-1.015 2.882-8.347 2.776-10.005-.092-1.415 7.245 1.907 6.8 2.854-.3.636-1.647 13.395-6.492 14.832-.669.58-6.572 1.926-11.031-1.528-2.211-2.812-2.602-8.178-2.52-11.456.06-2.351.14-14.435-3.99-12.932 0 0-1.07 13-.816 14.14.091.402 2.211 7.778 1.744 7.913-.517.15-12.079.45-11.914-.01.27-.752 3.867-8.103 4-8.927.477-2.969.123-11.973.26-13.757.037-.487.428-21.234.604-22.647.037-.294-2.378-8.498-2.263-10.193.03-.43 8.236 1.357 11.533 2.144 3.58.854 12.86 2.31 14.11 6.25 1.252 3.939.722 7.26.685 9.758zm204.104-17.18c-1.288-2.716-1.561-5.279-2.037-6.308-.773-1.666-2.921-8.197-8.853-5.718-4.82 2.014-3.188 32.92-3.12 34.17.216 4.155.946 19.144 1.758 21.491 1.232 3.557 4.7 4.626 6.497 3.462 1.828-1.183 1.392-5.185 1.424-8.213.033-3.176.285-7.58-.154-9.118-.171-.597-1.78.146-3.5.176-.062-1.534-2.08-5.46-1.44-5.729.718-.3 14.147-2.71 17.033-2.754.168-.002-.451 5.666-.795 6.978-.052.2-4.415.38-4.515.916-.39 2.132.678 12.25 1.112 28.33-3.53-.938-4.318-4.42-4.76-4.02-1.76 1.926-1.287 4.326-9.012 4.422-8.72.107-10.088-11.523-10.04-14.688.106-7.19-1.056-37.621-.78-42.524.139-2.45.695-13.006 3.462-18.368.334-.645 9.202-4.603 9.793-4.404 4.976.68 7.063 5.012 7.92 6.165.329.188 4.996-.044 5.02.454l-5.013 15.28zm77.77 57.637c-2.472.042-9.414-.412-12.25-.558 0 0-.917-8.328-.27-11.056 1.336.374 2.311.208 2.385-.754.148-1.93.343-19.426.526-25.317.024-.765.565-55.851.575-56.335.007-.262-2.141.63-3.066.778-.159-2.297-.126-8.782.425-9.078 5.326-2.849 18.581-8.346 20.108-8.24.426.385 1.042 9.9.654 12.468-.871-.267-3.245-1.379-3.278-1.366-1.957.132-5.319 2.587-7.764 3.374-.074.024.727 49.101.91 49.149.782.203 5.653-.687 6.856-.906.41-.074 2.26-2.253 2.563-2.4.146-.071.068 12.665-.139 12.666-.284-.01-1.726-1.334-2.037-1.424-.298-.087-7.515 1.362-7.834 1.417-.302.053-1.549 26.247-.936 26.415 12.134.576 9.506-1.746 11.124-1.767.893-.117.463 12.662.396 12.686-1.57.119-6.542.246-8.949.248zm-150.833 0c-2.473.042-9.415-.412-12.251-.558 0 0-.41-6.406.239-9.134 1.333.375 2.31.209 2.382-.754.148-1.928.389-4.749.571-10.64.024-.765.044-17.491.168-19.563.06-1.765.29-5.17.304-5.653.004-.262-2.144 1.327-3.07 1.475-.158-2.297-.208-6.951.344-7.247 5.328-2.849 23.192-10.077 24.718-9.97.426.385.552 8.252.163 10.82-1.114-.12-2.951-1.07-3.277-1.366-.237-.218-6.892 2.239-11.854 4.686-.433-.055-.122 19.546.076 19.63.782.204 6.11-.83 6.859-.905.408-.075 2.237-1.29 2.538-1.437.148-.071.18 9.64-.023 9.64-.285-.01-1.73-1.334-2.038-1.424-.297-.086-7.514 1.362-7.834 1.418-.304.052-.695 11.57-.082 11.738 12.134.576 9.506-1.747 11.126-1.768.89-.116.92 10.61.48 10.7-1.544.313-7.134.31-9.539.312zm99.873-90.963c.046.004.067.017.06.042-.142 2.076-.27 8.538-.657 9.21-.206.359-1.24-1.29-1.888-1.531l-2.743.949-.414 41.954c-.124 4.335-.074 30.371-.087 31.126.006.384 1.368.107 1.935.177.321-.023 1.672-1.042 1.679-.836.034 1.067.304 9.558-.161 9.578-5.797.249-14.9.258-15.408.115-.319-.09-.284-8.329-.167-9.124.065-.45.767.645 1.742.52.86-.108 2.715.031 2.737-.22-.055-2.858-.393-34.678-.337-36.395.05-1.5-.213-32.637-.25-34.949 0 0-2.951 1.02-3.149 1.069l-.01.001c-.422.238-1.302 2.274-1.853 2.373-.118-.759-.99-8.185-.687-8.2.873-.045 9.333-3.025 10.504-3.299 2-.469 8.238-2.546 9.115-2.561h.04zm-72.95 68.247c-.121 4.012.263 12.738.026 14.647-.117 1.286 2.618 5.84 2.837 7.65.03.247-12.908.543-12.908-.077 0-1.277 2.574-7.361 2.815-8.355.975-4.02.778-45.748.782-49.167 0-.47-2.802-4.438-2.84-5.501-.012-.365 10.083-4.067 10.153-3.731.202.96-.565 5.901-.285 6.926.47 1.723 12.067 38.775 12.287 39.329.999-.354-1.568-24.462-1.516-26.734.065-2.836-.376-13.378-.556-15.278-.276-.693-3.015-5.43-2.817-5.855.158-.344 12.62-4.414 12.16-3.687-.376.591-2.146 6.925-2.367 9.092.302 2.567 1.66 50.769 1.696 54.387.03 2.865 2.56 6.49 2.858 8.445.052.34-14.163.742-14.408.11-.163-.994 3.075-7.72 2.706-8.739-.908-2.507-5.065-13.903-5.997-16.378-1.841-4.886-5.025-14-5.36-14.649l.734 17.565zm85.512 0c-.12 4.012.265 12.738.026 14.647-.117 1.286 2.618 5.84 2.84 7.65.027.247-12.908.543-12.908-.077 0-1.277 2.571-7.361 2.812-8.355.975-4.02 1.025-74.158 1.03-77.577 0-.47-2.804-4.437-2.841-5.5-.013-.366 10.082-4.068 10.153-3.732.202.96-.564 5.901-.286 6.926.469 1.723 12.425 60.025 12.645 60.578.999-.354-1.475-32.787-1.377-35.058.1-2.325-.528-21.383-1.052-28.203-.278-.693-3.014-5.43-2.819-5.855.159-.344 12.076-4.436 11.613-3.71-.373.592-1.596 6.948-1.818 9.115.302 2.567 1.412 79.179 1.45 82.797.03 2.865 2.562 6.49 2.857 8.445.052.34-14.163.742-14.408.11-.163-.994 2.402-7.245 2.033-8.264-.908-2.507-5.015-21.544-5.523-24.141-2.218-11.298-3.808-34.254-6.032-33.774l1.605 43.978zm53.058 22.158s.243-7.849-.08-10.767c1.335.375 2.252-.81 2.326-1.773.145-1.929.123-23.116.308-29.007.024-.765.845-60.988.856-61.471.006-.263-2.511 1.008-3.436 1.156-.159-2.297.588-9.411.795-9.457 4.882-1.074 19.419-7.033 20.27-7.223.428.384.382 9.951.476 12.602-.71-.148-2.863-1.86-3.017-1.799-1.96.133-5.69 1.374-7.732 2.245-.072.03.17 54.65.352 54.697.782.203 4.984-.844 6.185-1.063.41-.074 2.374-1.005 2.678-1.151.146-.072-.048 11.416-.254 11.417-.282-.01-1.915-.72-2.224-.81-.297-.087-6.657.905-6.976.96-.302.053-1.334 29.937-.721 30.105 2.402.108 8.618.27 9.598-.026.134-.27 2.334-1.475 2.588-1.508.89-.117-.727 13.159-.794 13.183-1.573.119-8.473-.364-10.877-.362l-10.321.052zM94.446 319.703c.275-2.365.335-17.298-1.122-18.918-3.63-4.035-9.033.43-12.126-2.196-10.665-9.058-8.026-30.826-7.872-34.209.01-.223-.055-19.998 11.344-19.692 11.584.31 13.13 9.5 13.415 11.988.266 3.184 1.381 18.251 1.408 21.428.01 1.288 1.822 4.973 1.582 5.628-.217.595-9.515.514-10.156-.075-.177-.771 1.615-3.614 1.704-5.424.113-2.282-1.533-14.645-1.639-16.923-.086-1.86-2.364-8.035-3.605-8.26-1.457-.264-4.048.628-4.894 3.913-.715 1.929-2.009 10.824-2.017 11.72-.05 5.356 2.528 17.6 3.852 20.037 1.17 4.707 11.796-.54 16.262 7.63 1.038 1.284 1.591 17.256 1.521 21.582-.027 1.105.629 22.863-14.06 22.9-10.92.028-16.42-12.399-16.36-16.476.046-3.118.119-8.378 1.153-12.262.955-3.585 7.527-6.755 10.363-7.202.5-.079 1.916-1.769 2.873-2.897.43-.506 2.16 11.516 1.534 11.11-1.633-1.056-2.67-1.619-2.948-1.783-1.517-.895-3.167.14-3.823 1.524-1.126 2.373-.937 5.146-.933 7.907.004 2.222 2.388 8.426 7.293 8.323 4.904-.103 6.546-3.287 7.251-9.373zm51.222-38.897c-2.018-2.216-3.222-7.826-3.7-8.855-.771-1.666-5.338-4.261-7.192-3.17-1.504.891-2.134 9.879-2.5 11.403-.458 1.894-.344 21.77-.582 23-.52 2.685.896 20.802 1.708 23.15 1.231 3.557 4.699 4.626 6.497 3.461 1.827-1.182 1.391-5.184 1.423-8.212.034-3.176.034-10.664-.405-10.663-.62 0-2.259-.324-3.98-.136-.06-1.535-1.691-7.036-1.323-7.15.776-.24 15.054.417 17.686.078.583.224-.54 5.917-.781 7.252-.052.288-4.485-.001-4.538.183-.597 2.083.644 28.371.362 29.235-4.503.261-2.636-3.599-4.502-1.918-1.938 1.745-1.926 2.319-8.55 2.319-8.72 0-10.088-11.523-10.041-14.688.107-7.189-.519-43.777-.242-48.68.229-4.06 1.999-20.15 11.584-18.84 4.977.68 7.55 4.315 9.158 5.06 1.356.63 5.224-.685 5.248-.186l-5.33 17.357zm54.37 59.53c-2.473.042-9.415-.412-12.252-.559 0 0-.41-6.405.239-9.133 1.335.375 2.31.209 2.384-.754.147-1.929.425-8.156.608-14.047.03-.97.157-7.243.154-7.532-.002-.223-.428-17.416-.305-19.487.173-4.909.6-4.465-1.47-4.535-.158-2.297-.037-8.047.06-8.017 3.467 1.102 10.615 3.6 13.425 4.63 9.134 2.647 8.817 1.72 10.344 1.827.55.096-1.283 8.236-1.672 10.804-1.114-.12-1.091-3.108-4.183-4.377-3.529-1.449-5.292-2.314-8.63-2.952-.432-.055-.349 22.367-.152 22.45.782.204 5.488.283 6.24.295 1.724.026 2.363-1.667 3.063-1.45.192.06.163 9.817-.041 9.818-.47.003-1.24-1.008-2.714-1.32-1.782-.378-4.45-.068-7.046-.05-.307.001-.732 14.976-.12 15.144 12.135.577 9.507-1.746 11.126-1.767.891-.116.919 10.61.48 10.7-1.544.313-7.133.31-9.538.312zm-83.15-40.34c-.122 4.336-.503 29.095-.517 29.85.006.384 1.796.198 2.214.275 1.138.21 1.38-1.505 2.005-1.175.036 1.068.314 11.076-.15 11.096-5.796.248-14.577.258-15.085.114-.32-.09-.359-9.605-.243-10.4.065-.45.767.645 1.744.52.859-.109 3.342.031 3.363-.22-.053-2.858-.278-28.14-.222-29.857.05-1.5-.414-23.026-.54-24.246-.27-2.62.244-14.02.207-16.33 0 0-1.05-.46-1.785-.778-1.44-.417-4.109.311-4.458.21.314-.673.162-9.858.83-9.953.873-.044 8.113 2.342 10.7 3.466 2.056.894 8.235 2.297 8.124 3.903-.143 2.076-.393 9.04-.65 9.771-.37 1.05-1.966-2.716-2.91-3.21l-2.766-.986.139 37.95zm48.868 16.74c-.12 4.012-.866 12.583-1.105 14.492-.116 1.286 2.316 6.88 2.535 8.688.03.247-11.9.592-11.9-.029 0-1.277 2.633-7.552 2.875-8.546.976-4.02 1.051-54.793 1.055-58.211 0-.47-1.667-5.81-1.194-7.532.097-.352 9.546 3.23 9.617 3.565.202.96-1.489 5.92-1.21 6.946.47 1.722 2.59 10.473 2.882 11.766.896 3.99 6.334 31.2 6.553 31.753 1-.354-.48-27.85-.43-30.122.066-2.836-.02-8.165-.2-10.066-.277-.693-1.491-7.748-1.475-8.802.159-.343 11.919 4.163 11.457 4.89-.375.591-3.678 4.23-3.9 6.396.303 2.567-.469 45.146-.431 48.764.03 2.866 2.544 7.003 2.842 8.958.051.34-12.598.807-12.843.174-.163-.994 3.076-7.72 2.707-8.738-.909-2.508-2.59-6.027-2.983-8.644-.444-2.965-5.295-31.915-5.63-32.563l.778 26.861zm-107.983 23.05c-2.472.042-11.363-.09-14.2-.236 0 0-.63-8.93.02-11.66 1.334.376 1.14-.097 1.162-2.162.146-1.929-.554-27.624-.276-28.575.28-.96-.422-33.67-.377-34.994.072-2.097.16-15.152.121-18.374-.003-.276-.983-.685-1.53-.755-.158-2.297-.114-11.731.308-11.62 1.054.284 12.621 4.043 15.432 5.074 9.134 2.647 10.466 3.611 12.095 4.293.241.1-2.224 16.246-2.73 15.1-.572-.325-2.433-4.693-3.262-5.07-3.5-1.518-8.906-4.159-12.243-4.798-.433-.055-.272 11.809-.18 13.643.178 3.562.94 22.437 1.048 23.969.196 2.773.046 12.48.243 12.565.782.203 6.188.42 6.94.432 5.032.201 3.517-1.257 4.941-1.309.192.06.139 11.07-.066 11.071-1.035.006-1.179-1.728-12.045-1.651-.307.002-1.268 22.923-.655 23.09 12.988.577 12.67-1.584 14.288-1.605.892-.117.624 13.201.505 13.26-1.544.313-7.133.31-9.539.312zM12.506 223.421c2.467.664 7.58 2.103 10.02 2.844 2.856.868 5.468 3.48 6.79 6.081 1.325 2.604 1.951 5.284 2.577 8.06.578 2.558 2.561 35.242 2.084 38.762-.381 2.81-1.14 30.93-1.277 34.102-.198 4.569-2.137 20.763-7.451 23.96-5.645 3.397-17.294 1.054-20.773 1.953 0 0-.128-6.78 0-9.372.15-1.16 3.084-.224 3.039-1.147-.432-9.014-1.092-45.965-1.092-46.615-.002-19.127.528-48.267.516-49.866-.006-.851-2.939-.55-2.939-.55s.09-9.404.671-9.434c.35 0 6.988.993 7.835 1.222zm12.103 25.834s.506-10.547-3.28-11.968c-3.509-1.318-5.726-2.155-5.627-1.524.25 1.61.267 33.132.383 34.922.204 3.17-.31 22.244-.056 25.418.072.888.269 31.693.269 31.693 1.758.415 2.203-.1 4.826-1.255 3.84-1.69 3.293-9.697 3.606-11.829.478-3.262.94-34.724.94-36.469.001-2.067-.736-21.987-1.061-28.988zm201.703 57.628c.042.563 3.434 1.77 6.24.454 2.077-.974 4.846-1.573 5.122-8.288.215-5.213-9.967-5.734-10.916-5.36l-.446 13.194zm352.022-24.472c.041.562 2.865.55 5.669-.766 2.076-.974 1.546-23.461 1.85-27.326.183-2.312-.614-22.401-1.857-26.094-.497-1.478-4.278 1.186-6.607 1.487 0 0 .943 15.017 1.095 18.878l-.15 33.82z"/>
      <path id="Fill-2" d="M272.387 317.693c-13.708-8.17-7.254-26.626-.306-36.631 13.627-19.629 26.316-16.867 34.91-16.868 10.52 0 19.9 8.593 17.222 22.152-.438 2.224-11.774 9.829-20.718 13.492-2.669 1.092-7.53-11.349-6.172-11.57 7.692-1.253 15.97-3.13 14.923-9.857-.289-1.848-13.074-6.856-24.22 2.59-2.416 2.046-20.481 16.628-1.454 32.991 1.812 1.558 3.294 2.073 6.124 2.424.417.253-.595 6.137-.54 6.125-5.66 2.11-12.44 6.855-20.95 13.924-11.987 9.955 1.263 39.839 28.656 38.92 30.773-1.033 30.547-33.723 25.786-35.719-.183-.425-11.937-3.292-17.413-.763-1.363.63-10.256 5.716-7.886 9.396 1.484 2.302 5.582-.412 6.994-.5 5.05-.316 2.214 7.478-1.417 10.928-2.025 1.925-11.61 1.518-13.683-.476-5.83-5.599.557-27.586 14.022-27.802 1.727-.028 17.162.932 18.873.877 10.847-.35 19.215-1.529 21.362-7.883 2.142-6.332.777-11.02-1.196-11.88-2.847-1.456-11.14-4-13.052-2.863-5.576 3.315-4.486 9.392 1.076 7.246.365-.141 2.338 5.636 2.433 6.046.371 1.591-9.525 4.107-17.842-.618-1.656-.94 2.652-20.56 16.31-21.393 16.763-1.024 18.658 6.684 20.81 10.278 4.617 7.705-1.254 32.022-15.942 29.9-.046 2.765 5.193 12.44 3.134 27.993-.44 3.344-4.881 22.58-42.614 24.756-20.85 1.203-36.285-9.592-40.209-21.645-15.39-47.253 12.979-53.57 12.979-53.57zm-195.493 66.92s-27.629-.302-29.387.066c-1.757.368-14.297-.229-20.11-.459-5.813-.23-19.997.721-19.997.721s-.894-26.737 1.159-32.325c0 0 6.643-.776 15.306-.146 7.82.569 31.72-.17 38.192.146 11.22.548 53.73-.204 63.52.568 8.572.676 48.024.106 52.547-.292 3.147-.277 35.216.096 35.216.096l16.802.012 14.91.58s.065 2.678.321 6.517c-.599-.267-.297 6.247.46 5.588.686 6.93 1.949 14.998 4.245 18.885.888 1.502-24.305-1.366-35.8.243-6.58.921-27.01.453-32.981-.026-4.36-.35-33.856-.654-42.365-.224-8.51.43-24.441-.547-31.975.019-2.448.183-6.479.251-10.806.259.63-.81-19.257-.227-19.257-.227zM374.249 353c14.795-.252 37.014-.652 43.929-.892 10.671-.371 52.64.751 62.46.751s48.81.122 51.968.122c3.158 0 36.926-.437 36.926-.437l28.632.574s-.132 29.383.82 30.844c.81 1.24-31.013.312-31.013.312s-25.891-.34-34.288.222c-4.364.292-55.197-.68-60.013.2-4.814.882-35.567-.225-35.567-.225l-28.593.094-26.302.518-31.19-1.152s8.52-18.855 8.337-30.7c0 0 4.01-.064 9.96-.164-.022.955.342 1.942.674 2.356.582.723 2.909-1.464 2.909-1.464.225-.324.334-.649.351-.959zm-176.5 10.48c.374 1.533-1.266 1.928-2.039 2.934-.211.275-.62.368-.93.56-.67.412-1.918.25-1.973 1.134-.065 1.038 1.175 1.492 1.892 1.87 3.033 1.594 1.1 4.283 13.128 7.836.902.266-.018 3.432-1.116 3.164-.963-.235-4.318-.775-5.22-1.093-10.84-3.82-8.988-5.9-12.376-8.04-.48-.304-1.084-.397-1.641-.543-1.618-.422-1.985-.274-2.05 1.548-.055 1.528-1 2.107-1.844 2.907-.486.46-.92.217-1.387 0-.593-.274-.623-.778-.496-1.351.746-3.372.263-6.89 1.044-10.254.198-.854.19-1.61-.146-2.447-.374-.93-.49-1.945.132-2.876.31-.463.615-.747 1.242-.622 2.178.433 4.362.54 6.57.089 1.349-.277 2.7.21 4.029.41 1.593.239 3.14 2.633 3.18 4.773zm208.406 17.073c-1.424.031-1.962-.542-1.465-1.92.955-2.646 1.536-5.416 2.456-8.065.823-2.365.558-3.406-1.321-4.972a77.074 77.074 0 01-4.293-3.824c-1.224-1.183-1.211-2.264-.122-3.302 1.133-1.078 2.46-1.03 3.295.322.597.966 1.415 1.519 2.285 2.035.762.452 1.548.925 2.036 1.656.742 1.112 1.387.767 2.138.13 1.143-.97 1.597-2.509 2.6-3.613.783-.862 1.623-1.537 2.719-1.707.931-.145 1.769.268 2.123 1.22.32.863-.33 1.464-.91 1.91-2.515 1.935-4.121 4.619-5.471 7.53-1.309 2.822-2.223 5.754-2.585 8.914-.273 2.371-1.634 3.645-3.485 3.686zm170.697-18.429c.14 1.78.274 3.855.239 5.947-.013.782.375 1.11.996 1.216 2.235.382 2.235.611.143 2.424-1.107.956.178 2.598.4 3.757.592 3.027 1.692 4.469-1.426 4.469-2.268 0-1.951-.815-2.108-2.114-.188-1.552-.123-5.01-.442-6.512-2.36-.821-2.151-.7-3.436-.84-.929-.101-2.509-.977-3.438-.993 0 0-2.801 3.327-3.722 5.811-.184.502-.184 1.577-.458 2.016-.332.533-4.449.53-4.967-.339-.534-.894.978-3.455 1.334-3.712.764-1.523 7.492-9.445 8.326-10.303 1.31-1.35 2.804-3.049 3.7-4.766 1.137-2.183.89-1.608 2.2-1.55 1.37-.004 1.594.081 2.086 1.904.404 1.106.439 1.5.573 3.585zm-454.622-2.937c.636.026 1.159.227 1.565.726 1.376 1.687 3.317 2.335 5.122 3.238.434.217 1.8 1.643 2.102 1.376 1.385-1.22 4.8-3.675 6.06-5.107.966-1.097 1.838-1.124 2.582-.297.667.743.466 2.191-.61 2.99-1.656 1.229-3.19 2.621-4.686 4.042-2.775 2.638-5.061 5.607-5.45 9.872-.149 1.624-1.092 2.99-2.648 3.652-.654.279-1.268.341-1.777-.256-.446-.523-.795-1.114-.547-1.888.023-.072.035-.152.068-.219 1.157-2.346 1.478-5.07 2.926-7.298 1.236-1.901 1.17-2.621-.679-3.675-1.782-1.017-3.276-2.472-5.056-3.465-.863-.482-1.623-1.08-1.231-2.35.377-1.222 1.402-1.148 2.26-1.341zm252.399 6.757c-.636 2.117-2.479 6.21-3.633 8.05-.632 1.011-1.263 2.028-1.517 3.295-.133.653-.36 1.608-1.29 1.631l-2.404-1.636c-.367-1.538.614-3.21 1.437-4.126 2.116-2.362 2.91-5.337 3.676-8.323.482-1.872 1.67-3.221 2.646-4.71.953-1.449.953-1.449 3.231.765.526.716 3.913 7.703 4.703 9.597l1.995-3.34s2.724-6.307 3.388-8.276c.62-2.226.62-2.226 3.095-1.071 1.226.726 1.226.726.603 2.154-.734 1.686-1.285 3.45-2.073 5.016-.81 1.613-1.48 3.309-2.33 4.894-.836 1.555-2.935 7.394-3.028 8.183-.465 1.828.026 1.828-1.932 1.828-1.673.014-1.44-.642-1.656-1.499-.83-3.31-4.664-12.379-4.911-12.432zm-150.09 1.785c2.46 2.977 5.707 4.656 8.667 6.773 2.051 1.331 2.051 1.331.773 3.093-1.485 2.056-1.485 2.056-3.004.85-.193-.1-.41-.188-.558-.346-2.211-2.342-5.137-3.61-7.47-5.768a7.04 7.04 0 00-1.226-.938c-1.77-1.032-2.42-.737-2.808 1.45-.248 1.393-.753 2.653-1.292 3.914-.715 1.888-.928 2.436-2.71 1.57-2.327-1.043-1.902-1.12-.771-3.223 1.405-2.696 2.086-5.703 3.38-8.452 1.178-2.508 2.777-4.87 2.853-7.894.022-.904.358-1.631 2.316-.89 1.869.71 1.478 1.274 1.12 2.126-.354.842-.857 1.608-1.25 2.433-.23.487-.417 1.096.041 1.499.37.324.84.05 1.18-.24 1.702-1.457 3.78-2.204 5.59-3.45.728-.5 1.353-1.025 2.12.025 1.57 1.982.449 1.773-.137 2.33-.682 1.624-2.266 1.848-3.44 2.588-1.178.743-2.3 1.504-3.375 2.55zm-196.547 9.105c-1.863.017-1.853-.302-2.12-1.608-.324-1.59-1.77-2.14-2.603-3.267-1.155-1.562-2.498-2.972-3.83-4.372-.7-.737-1.097-.577-1.315.456-.722 3.417-2.247 6.5-3.456 9.712-.419 1.113-1.49 1.556-2.274 1.15-.94-.486-1.226-1.484-.735-2.699 1.395-3.455 2.719-6.93 3.676-10.572.298-1.137.43-2.249.53-3.389.098-1.136.377-2.262 1.445-2.59 1.15-.354 2.06.339 2.7 1.425 1.82 3.09 4.64 5.231 6.654 8.163 1.048 1.527 1.699 1.386 2.342-.506.952-2.797 2.907-4.919 4.037-7.58.366-.863.137-1.233 2.08-.73 1.268.626.688 1.055.695 1.755.007.672-.317 1.168-.676 1.663-1.834 2.534-2.804 5.548-4.032 8.42-.288.673-.162 1.36-.217 2.046-.017 2.39-.017 2.39-2.901 2.523zm43.464-15.43c.099-.373 3.153-2.128 3.153-2.128.636.027 2.436 3.503 2.843 4.028 1.376 1.775 2.045 7.005 3.85 7.955.434.228 5.565-11.21 5.968-11.238 2.131-.143 4.228 9.429 5.531 9.836 1.324.414 8.001-8.991 8.636-9.75.966-1.155 2.787.672 3.53 1.542.668.782-5.109 8.718-5.778 9.382-1.502 1.488-4.253 5.59-5.735 7.102-1.61 1.643-4.533-8.015-6.089-7.318-.655.293-4.03 8.846-6.22 8.014-1.93-.733-5.629-8.856-7.322-10.658-.694-.74-2.724-5.418-2.367-6.766zm442.642 17.465c-.792-.158-1.994-.35-3.175-.643-1.385-.345-2.142-.689-3.527-.41-1.343.15-3.611-.874-3.435-3.405.197-2.873.466-1.533 1.267-1.703 3.72 2.56 6.591 4.363 12.226 2.458.761-.252 2.6-1.783 2.046-2.352-.566-.584-1.324-2.58-2.055-2.967-.823-.434-2.9-1.312-3.672-1.805-2.197-1.404-2.283-2.066-1.858-4.274.202-1.036 2.366-2.987 3.67-3.189 1.302-.202 2.62-.645 8.006-.904.248-.005 1.029 2.053.827 2.233-.97.813-2.502.347-3.794.284-1.421-.07-4.297.86-5.45 1.777-1.545 1.232 1.613 2.723 4.597 3.647 2.153.524 3.082 3.93 2.954 5.806-.126 1.831-.75 3.817-2.541 4.325-1.852.525-3.731 1.055-6.086 1.122zm-463.195-12.51l10.658.067c1.185.617-1.645 3.85-2.092 4.239-.452.393-9.324.082-9.293.464.002.833-1.434 2.808-1.005 3.089.62.73 9.155-.08 9.386.73.057.198-1.814 3.543-1.701 3.57.666.162-10.777.545-12.51-.287-2.262-1.003-1.849-1.076-.75-3.098 1.367-2.59 2.028-5.481 3.285-8.123 1.147-2.41 2.364-3.653 2.436-6.558.022-.869.351-1.014 2.381-.888 2.08.13 10.82.08 11.368.573.308.278.732 3.31-1.46 3.329-.728.006-7.664-.742-8.23-.468-1.147.713-1.341 2.314-2.473 3.361zm484.907 9.2c.414 1.243.234 1.727.048 2.031-.42.676-1 1.08-1.813.83-.75-.231-1.198-.831-1.358-1.588-.17-.788.21-1.579.911-1.953 1.526-.817 1.617-.184 2.212.68zm53.97.092c.797.606.854 1.01.834 1.302-.043.648-.317 1.2-1.016 1.44-.649.221-1.215.05-1.634-.362-.434-.431-.464-1.135-.091-1.727.81-1.288 1.126-.92 1.908-.653zm-107.91 2.084c-1.173.616-1.676.49-2.004.33-.729-.355-1.213-.923-1.08-1.827.121-.839.65-1.399 1.375-1.676.758-.29 1.593.01 2.064.707 1.027 1.524.413 1.709-.356 2.466zm-24.221-16.981c.636-3.025.742-2.882 3.477-2.036.877.272.877.272.482 1.707-.313 1.127-.931 4.401-1.268 5.487-.71 2.276-.065 4.317.86 6.225 1.033 2.134 3.89 1.879 5.093-.36 1.515-2.822 2.281-5.94 3.002-9.072.104-.449.182-.904.269-1.358.573-2.673.573-2.673 2.86-2.104 2.316.576 2.043.691 1.632 2.89-.136.727-.251 1.555-.564 2.162-1.463 2.84-2.441 5.895-3.587 8.873-1.192 3.103-5.066 5.61-7.95 4.748-1.639-.49-2.795-2.022-4.033-3.278-3.09-3.136-.735-11.684-.273-13.884zm-306.137 10.139c.007-.075.011-.149.01-.222.365-3.826 1.448-7.257 4.43-9.736 1.358-1.126 2.76-1.745 4.53-1.622 2.403.167 4.726.368 6.551 2.357 1.267 1.38 1.997 2.966 2.042 4.944.069 3.08-.687 5.824-2.78 7.988-1.2 1.242-2.075 2.885-4.076 3.114-2.345.27-4.463-.099-6.626-1.107-1.068-.498-1.802-1.34-2.537-2.175-1.417.338-3.275-1.146-2.277-2.823 0 0 .312-.337.733-.718zm3.505-1.633c-.189.839.243 1.683.947 2.436.998 1.069 2.277 1.748 3.566 1.985.994.183 2.134.88 3.125.205 1.965-1.338 3.32-3.296 3.385-5.821.048-1.882-.767-3.765-2.383-4.63-3.634-1.947-8.35 1.186-8.64 5.825zm413.543-2.187c3.235.651 6.306 1.49 6.306 1.49s.395-4.77-1.239-8.17c-1.046.876-4.277 5.29-5.067 6.68zm-378.503-5.308c-.704.098-1.412.188-2.117.298-.281.043-1.23-.315-1.496-.211-.8.311-.59 4.915.576 4.521 2.858-.966 1.525-.433 4.823-1.648.734-.27 1.716-.638 1.717-1.462 0-.935-1.083-1.035-1.803-1.257-.541-.167-1.127-.166-1.7-.24zM366.801 68.55c-.447-.467.332-12.196.301-15.018-.058-5.563-4.49-10.086-6.669-13.408-3.967-6.054-16.164-14.24-18.445-15.014-1.185-.404-2.59 12.945-2.63 13.587-1.65 33.43 2.122 92.566 2.059 96.331-.074 4.438-.562 71.267-.875 73.86-.039.318-1.191 48.616 8.52 49.73 8.743 1.003 11.215-8.222 14.531-15.7 1.654-2.926 7.027-71.185 6.294-71.037-10.89.836-14.604 17.287-17.508 17.116-1.313-7.139-.358-27.69.248-28.233.872-1.444 10.762-2.638 17.572-4.332 3.675-.265 18.12-3.702 18.259-.929.171 3.437-1.333 49.648-1.671 52.886-.248 2.376-.736 64.586-2.947 64.977-10.882 1.923-12.106-18.688-12.106-18.688-1.016 3.031-2.95 20.78-10.322 26.118-5.96 2.649-8.438 3.906-20.761 5.267-1.684.186.124-7.769-.595-13.16-.532-3.996-4.577-9.17-6.877-12.247-3.139-4.196-17.497-9.803-17.517-10.024-4.13-46.639-2.465-83.832-2.472-87.994-.004-2.65 1.242-84.615.4-97.736-.6-3.167-3.892-35.717-2.19-50.02C311.673 12.59 320.678.587 324.304 0c24.644 5.485 38.523 14.387 39.927 16.767.102.375 4.597 19.146 6.062 19.32.301.036 1.502-15.182 1.979-14.974 1.196.522 14.246 6.453 14.324 6.716.158 2.851-2.748 40.01-3.624 44.186 0 0-11.829 1.057-16.171-3.466zm-87.485-9.927c-.082 16.478-2.973 89.398-6.567 104.603-1.31 5.55-27.209 8.169-29.828 8.5 3.314 2.598 31.464 9.54 30.592 18.848-.482 5.131-11.381 46.24-9.827 52.85.74 3.152 4.438 1.2 6.4.08.708-.402 10.906 7.442 10.923 8.262-.045.978-6.198 1.131-14.732 11.296-6.639 7.906-11.758 16.58-9.966 18.506 1.52 1.632-17.672-3.419-17.703-4.062-.113-2.394 3.83-21.52 3.366-25.73-.466-4.211 4.82-51.49 4.684-52.795-.404-3.853-5.341-12.286-10.693-10.956 0 0-.708 27.026-1.296 30.742-.61 3.837-3.156 29.542-2.567 31.522.516 1.74 1.297 25.614 1.213 25.706-.651.7-27.508-8.184-27.9-8.881-.297-.525 8.109-22.586 8.482-22.894 1.974-1.632 5.124-65.813 5.676-69.588.425-2.912 3.042-58.883 2.99-59.743-.2-3.352-1.458-61.672-1.445-63.553.01-1.83-2.062-25.553-4.065-26.78-.377-.23-8.91-10.255-8.65-12.068.048-.71 15.645-6.284 20.363-7.408.378-.09 12.45-2.79 12.813-2.884 39.372-10.04 37.763 51.36 37.737 56.427zM167.477 180.91c1.88-9.142 2.638-59.398 2.405-62.308-.274-3.439-6.857-76.29-6.79-76.624.1-.508-9.547-10.717-9.547-10.704 0-.673 19.58-9.44 19.58-9.44s22.733-8.797 24.823-8.784c.7.005 5.613 25.19 4.025 25.856-.992.404-10.054-5.583-10.416-5.685-1.877-.362-7.77 2.652-8.738 3.144-.14.072 3.641 37.791 6.206 68.078 1.914 22.61 2.037 50.12 1.745 52.24-.18 1.31 13.946-.433 14.932-.698 1.644-.445.512 21.449-1.838 21.038-3.232-.565-14.04-2.482-14.29-1.822-.473 1.237-2.187 26.327-12.003 63.7.184.706 9.312 2.901 11.332 3.696.698.275 8.545-7.922 11.51-7.62.676.07-5.85 31.338-6.591 31.166-.725-.17-17.5-5.676-19.34-6.323-1.758-.617-22.161-6.653-22.219-6.66-1.57-1.835 10.25-21.947 10.25-21.947.84-1.554 4.964-50.303 4.964-50.303zm284.38-16.114c-3.032.458-10.453 3.791-12.106 4.023-2.735.387-10.96-.121-12.334 1.62-1.01 1.283 3.865 53.88 3.928 57.73.35 4.488 10.235 21.572 8.707 24.055-.879 1.43-34.71 13.841-34.49 12.45.417-2.619 5.172-25.493 5.647-28.104.48-2.624-.605-60.998-.799-64.787-.164-3.296 2.568-75.914 1.86-79.134-.444-2.03-2.302-45.844-3.194-46.667-.395-.367-5.602-23.26-5.574-24.019-.002-1.567 45.505 13.61 46.551 14.843.041.159-8.575 15.79-8.557 16.087.325 6.021 4.164 16.765 6.157 22.531.462 1.336 11.005 46.854 12.212 50.652.577 1.82 7.042 30.174 7.759 34.408.534 3.16 9.755 43.354 13.047 52.565 1.188 3.32 12.532 14.254 15.199 18.818.898 1.538-45.908 18.044-46.368 17.264-.378-3.093 6.07-24.824 6.135-31.086.133-13.196-3.78-53.249-3.78-53.249zM125.079 49.468c-1.604-1.856-5.452-5.259-5.554-5.46 0 0 11.364-4.46 14.09-5.702 3.638-1.66 14.86-5.806 14.86-5.806-.116 3.176-3.277 8.765-2.867 11.64.365 2.01-1.74 56.425-1.697 58.958.068 3.909-1.477 40.514-1.682 42.538-.236 2.33-3.377 38.553-3.631 42.343-.246 3.671-9.075 41.009-9.075 41.009 2.897 1.344 5.398 1.992 8.363 2.869 3.547 1.05 4.127-4.736 4.665-4.663l7.77-2.446c-.103 2.59-1.611 27.999-2.743 27.587-1.526-.556-48.457-14.265-49.031-14.336-.065-4.271 13.736-13.057 13.873-14.192.6-3.814 6.488-36.71 6.846-40.502.262-2.778 2.762-34.853 3.007-37.367.155-1.585 3.622-60.02 3.23-63.445-.242-2.128.536-24.755.353-30.73.681.43 1.591.517 2.23.013 1.387-1.09.536-3.51-.095-4.193-.631-.68-2.798 1.666-2.798 1.666a2.262 2.262 0 00-.114.22zm-15.586 7.956c-1.316 4.564-5.736 30.339-6.082 33.67-.12 1.146-7.42 39.764-7.82 40.613-.707 1.507-3.468 22.273-3.699 23.398-.91 4.427-4.766 28.285-4.963 31.934-.13 2.413-1.779 31.982-1.56 34.687.095 1.178 4.751 12.082 4.953 15.093 0 0-38.525-11.208-38.656-12.22.698-1.772 9.643-5.663 11.285-7.465 1.023-1.805 4.282-17.629 5.095-20.457.23-.8 4.402-37.327 5.02-42.248.362-7.434-1.892-22.153-2.945-25.416-.887-2.745-6.657-36.465-7.445-40.043-.631-2.868-2.629-17.088-2.783-17.194-1.519-1.049-6.615-4.705-6.909-5.207-.417-.714 23.697-9.163 23.777-9.128.138.334-.949 5.839-.985 9.158 2.164 8.14 2.675 22.582 3.31 25.135.859 3.452 2.917 31.968 3.625 31.99.681.021 3.481-27.506 3.999-29.473 1.327-5.042 5.643-29.395 5.61-32.398.075-.645-6.9-6.82-6.347-7.367.195-.193 10.144-4.143 14.778-5.446 3.57-1.003 13.015-4.166 13.188-4.019.174.146-2.59 5.97-4.446 12.403zM518.1 188.087c3.453.172 8.653-34.726 8.816-35.55.619-3.151-6.296-19.84-5.437-20.793 1.437-1.594 12.171-4.212 18.763-5.007 1.786-.217-.704 18.17.026 21.37 1.58 6.917 16.69 34.444 17.872 34.68 2.125 0-2.361-30.783-2.559-33.145-.265-3.214-3.431-35.414-3.435-38.29 0-13.213-6.125-25.99-6.96-29.421-.695-2.845-10.249-18.332-10.19-19.596 11.483 3.995 42.31 14.474 42.31 14.474s-8.566 11.258-9.092 12.886c-.97 3.005 2.802 40.994 3.807 51.857.916 9.888 2.843 25.922 3.325 31.885.308 3.79 4.712 19.642 4.63 20.79-.23 3.228 8.192 10.628 7.89 12.987-.117.926-36.094 10.359-36.819 9.65-1.406-1.38-.672-10.539-1.304-12.476-1.254-3.84-2.333-7.817-5.239-13.918-4.842-10.168-7.657-18.497-8.447-18.497-.994 0-1.484 8.767-1.977 21.307-.132 3.35 5.217 22.346 6.372 25.372-.371 1.58-34.32 10.603-34.694 10.057-1.333-1.947 1.228-15.953.846-18.063-.412-2.268-11.2-39.433-11.782-43.11-.558-3.527-8.488-41.479-9.348-44.258-.933-3.007-7.33-46.556-8.33-51.294-.186-.89-8.199-24.798-9.03-31.616-.143-1.17 38.72 12.466 44.24 16.374 1.302-.354-8.999 17.49-8.484 18.962 1.421 4.073 2.97 47.989 3.479 50.738l10.751 61.645zM13.107 203.461c1.475-2.327.503-43.43.964-46.628.342-2.373 2.286-48.717 2.166-50.651-.12-1.937.963-13.265.505-12.852-1.8.452-7.516 2.24-10.403 3.114-.746.03-5.24 5.29-6.223 5.77-.435.211.465-19.497.845-19.777 2.036-.606 22.198-7.832 22.198-7.832s24.225-6.887 25.192-6.866c1.101.029 4.275 23.346 3.273 23.216-.901-.118-4.236-4.015-5.593-4.128-1.243-.356-10.452 2.486-10.452 2.486s-.495 17.9-.177 21.596c-.08 2.579-.937 18.258-1.147 20.27-.31 2.973-.927 16.665-1.236 18.912-.478 3.474.77 53.292.745 54.85-.017 1.11 6.51 13.36 5.986 16.47 0 0-33.584-10.59-33.393-12.78.23-.6 1.655-1.602 2.203-1.744 2.427-.626 4.547-3.426 4.547-3.426zm224.794-48.671c5.655.714 11.365-3.64 14.382-8.181 2.845-4.284 3.742-75.454 3.833-77.38.221-4.66.68-33.294-.523-36.719-1.17-3.337-8.043-13.618-22.068-9.27 0 0 4.6 28.239 4.604 31.24.004 2.944 1.55 53.141 1.547 57.716-.002 4.82-2.63 43.369-1.775 42.594zm186.766-5.242c2.32 1.347 11.24 2.078 13.415 1.284 1.79-.654 9.2-1.362 9.152-2.86-1.784-12.817-7.305-45.725-8.05-49.633-1.17-6.147-8.375-35.33-10.328-35.548-2.73-.302-4.234 68.139-3.583 70.056l-.606 16.701z"/>
    </g>
  </g>
</svg>
