<?xml version="1.0" encoding="UTF-8"?>
<svg xmlns="http://www.w3.org/2000/svg" xmlns:xlink="http://www.w3.org/1999/xlink" viewBox="0 0 600 860">
  <defs>
    <filter id="filter-2" width="100.2%" height="100.5%" x="-.1%" y="-.3%" filterUnits="objectBoundingBox">
      <feOffset dy="-1" in="SourceAlpha" result="shadowOffsetOuter1"/>
      <feColorMatrix in="shadowOffsetOuter1" values="0 0 0 0 0.160784314 0 0 0 0 0.160784314 0 0 0 0 0.160784314 0 0 0 0.153217876 0"/>
    </filter>
    <path id="path-1" d="M0 0h600v430H0z"/>
  </defs>
  <g id="post-image-realign-2020-logo-before-after-vertical" fill="none" fill-rule="evenodd" stroke="none" stroke-width="1">
    <path fill="#F8F8F8" d="M0 0h600v860H0z"/>
    <g id="before">
      <path id="Rectangle" fill="#F8F8F8" d="M0 0h600v430H0z"/>
      <path id="Before" fill="#292929" fill-rule="nonzero" d="M43.318 50.5c2.464 0 3.822-.994 3.822-2.954 0-1.372-.686-2.31-2.114-2.674 1.092-.406 1.708-1.246 1.708-2.408 0-1.68-1.218-2.464-3.458-2.464H40v10.5h3.318zm.28-5.978h-2.464V40.98h2.254c1.442 0 2.156.574 2.156 1.736 0 1.092-.77 1.806-1.946 1.806zm-.168 4.984h-2.296v-4.144h2.422c1.554 0 2.408.742 2.408 2.086 0 1.47-.868 2.058-2.534 2.058zm8.642 1.134c2.142 0 3.163-1.582 3.233-2.884h-1.12c-.111 1.148-.657 2.114-2.1 2.114-1.413 0-2.17-1.05-2.17-2.786v-.182h5.39c-.027-2.198-1.161-3.542-3.248-3.542-2.002 0-3.346 1.484-3.346 3.696 0 2.044 1.177 3.584 3.36 3.584zm2.03-4.256h-4.144c.168-1.512.938-2.254 2.114-2.254 1.47 0 2.03 1.12 2.03 2.254zm4.525 4.116v-6.132h1.512V43.5h-1.512v-1.82c0-.518.266-.784.728-.784h1.134V40h-1.596c-.84 0-1.33.42-1.33 1.358V43.5h-1.12v.868h1.12V50.5h1.064zm6.191.14c1.919 0 3.43-1.498 3.43-3.64 0-2.142-1.526-3.64-3.43-3.64-1.904 0-3.444 1.498-3.444 3.64 0 2.142 1.54 3.64 3.444 3.64zm.014-.728c-1.33 0-2.267-1.148-2.267-2.912 0-1.89.938-2.912 2.267-2.912 1.345 0 2.227 1.022 2.227 2.912 0 1.764-.882 2.912-2.227 2.912zm6.444.588v-3.864c.238-1.722.896-2.296 2.03-2.296.224 0 .476.028.742.07v-.994c-.266-.028-.518-.056-.756-.056-.616 0-1.106.14-1.414.56l-.602 1.652V43.5h-1.064v7h1.064zm7.088.14c2.141 0 3.163-1.582 3.233-2.884h-1.12c-.112 1.148-.657 2.114-2.1 2.114-1.413 0-2.17-1.05-2.17-2.786v-.182h5.39c-.027-2.198-1.161-3.542-3.247-3.542-2.002 0-3.346 1.484-3.346 3.696 0 2.044 1.175 3.584 3.36 3.584zm2.03-4.256h-4.145c.169-1.512.939-2.254 2.115-2.254 1.47 0 2.03 1.12 2.03 2.254z"/>
      <g id="logo-2018" fill="#292929" transform="translate(81 75)">
        <path id="Fill-1" d="M439 237.319c-1.022.297.662 10.027-1.749 11.528-.485.416-7.621 1.914-10.843-.572-1.598-2.024-2.58-8.47-2.521-10.829.042-1.692-.454-25.557-5.873-26.544 0 0 .94 17.4.887 19.045-.022.637.173 7.768.446 8.563.159.46 2.438 7.84 2.1 7.937-.373.108-11.544.34-11.425.01.195-.541 2.652-7.742 2.747-8.335.346-2.137-.047-26.174.052-27.457.027-.35-.711-27.065-.617-28.56.068-1.055-.447-14.391-.318-15.409.026-.21-3.15-5.205-3.184-5.57-.032-.31 13.014-4.97 15.103-3.154 1.26 1.094 3.78 6.602 4.324 9.944 1 6.159.406 34.572-.56 36.916-.822 1.992-3.638 2.786-4.81 2.931-.657.082 4.36.41 5.059 3.6.06.27.717 30.61 4.105 31.93 2.711 1.059 1.003-6.3 1.355-6.39.733-.186 4.871.328 5.722.416zm-262.95-19.42c-.04 2.779-.717 3.985-2.01 6.471-.993 1.912-6.506 2.204-7.68 2.349-.712.088 4.867.202 5.03 4.286.134 3.396-1.371 8.175.348 10.292.63.775.996 1.59 1.792.759.702-.73 2.084-6.007 2.007-7.2-.066-1.019 5.237 1.372 4.915 2.054-.217.457-1.19 9.64-4.692 10.674-.484.417-4.75 1.386-7.974-1.1-1.598-2.023-1.88-5.885-1.82-8.244.042-1.693.1-10.39-2.885-9.308 0 0-.774 9.356-.59 10.176.066.29 1.598 5.599 1.26 5.696-.373.108-8.73.323-8.611-.007.195-.542 2.795-5.832 2.891-6.425.346-2.137.09-8.617.189-9.901.026-.35.309-15.282.436-16.3.027-.21-1.719-6.115-1.636-7.335.022-.31 5.953.977 8.336 1.543 2.587.615 9.295 1.663 10.2 4.498.904 2.835.52 5.226.494 7.023zm147.527-12.363c-.931-1.955-1.129-3.8-1.473-4.54-.559-1.2-2.111-5.9-6.399-4.115-3.483 1.449-2.304 23.692-2.255 24.592.157 2.99.684 13.777 1.271 15.467.89 2.56 3.397 3.329 4.696 2.491 1.321-.85 1.006-3.731 1.03-5.91.023-2.286.205-5.456-.112-6.563-.124-.43-1.287.105-2.53.127-.045-1.104-1.503-3.93-1.041-4.123.52-.217 10.226-1.95 12.312-1.982.12-.002-.327 4.078-.575 5.022-.037.143-3.191.273-3.263.66-.283 1.534.49 8.815.803 20.388-2.55-.675-3.12-3.18-3.44-2.893-1.272 1.386-.93 3.113-6.514 3.183-6.303.076-7.292-8.294-7.257-10.572.076-5.174-.763-27.075-.564-30.604.1-1.764.502-9.36 2.502-13.22.242-.464 6.652-3.312 7.079-3.169 3.596.49 5.105 3.607 5.725 4.437.237.135 3.61-.032 3.628.327l-3.623 10.997zm56.211 41.48c-1.786.031-6.803-.295-8.854-.4 0 0-.662-5.994-.194-7.958.965.27 1.67.15 1.723-.542.107-1.389.248-13.981.38-18.22.018-.551.408-40.197.416-40.545.005-.188-1.548.453-2.216.56-.115-1.653-.091-6.32.307-6.533 3.85-2.05 13.43-6.007 14.534-5.93.308.276.754 7.124.473 8.972-.63-.192-2.346-.992-2.37-.983-1.414.095-3.844 1.862-5.612 2.428-.053.018.526 35.339.658 35.373.565.146 4.087-.494 4.956-.652.297-.054 1.633-1.622 1.853-1.728.105-.05.048 9.115-.1 9.116-.206-.007-1.249-.96-1.473-1.025-.215-.062-5.432.98-5.663 1.02-.218.038-1.119 18.89-.676 19.011 8.77.415 6.87-1.257 8.04-1.272.646-.084.335 9.113.286 9.13-1.135.086-4.728.178-6.468.179zm-109.021 0c-1.788.031-6.805-.295-8.856-.4 0 0-.296-4.61.173-6.574.964.27 1.67.15 1.722-.543.107-1.388.281-3.418.413-7.657.017-.55.031-12.589.12-14.08.045-1.27.211-3.72.22-4.069.004-.188-1.549.956-2.217 1.062-.115-1.653-.151-5.003.248-5.216 3.85-2.05 16.762-7.252 17.866-7.175.308.277.399 5.94.118 7.787-.806-.086-2.134-.77-2.37-.983-.17-.157-4.98 1.611-8.567 3.373-.313-.04-.088 14.067.055 14.127.565.147 4.416-.597 4.957-.651.295-.054 1.617-.929 1.835-1.034.107-.052.13 6.937-.017 6.938-.206-.007-1.25-.96-1.472-1.025-.216-.062-5.432.98-5.663 1.02-.22.038-.502 8.327-.06 8.448 8.771.415 6.872-1.257 8.043-1.272.643-.084.664 7.636.347 7.7-1.116.226-5.157.224-6.895.225zm72.188-65.465c.033.003.049.012.044.03-.104 1.494-.196 6.145-.476 6.628-.149.259-.896-.928-1.364-1.101l-1.983.683-.3 30.194c-.089 3.12-.053 21.858-.062 22.401.004.277.989.078 1.398.128.233-.016 1.21-.75 1.214-.602.025.768.22 6.88-.116 6.894-4.19.178-10.77.185-11.137.082-.23-.065-.205-5.994-.12-6.567.046-.324.553.465 1.258.375.622-.078 1.963.023 1.978-.159-.039-2.057-.284-24.957-.243-26.193.036-1.08-.154-23.489-.18-25.152 0 0-2.134.734-2.277.769h-.008c-.304.172-.94 1.637-1.339 1.708-.084-.546-.716-5.89-.496-5.901.631-.032 6.746-2.177 7.592-2.375 1.446-.337 5.954-1.832 6.589-1.843h.028zm-52.728 49.117c-.088 2.888.19 9.168.019 10.542-.085.926 1.891 4.203 2.05 5.505.022.178-9.33.391-9.33-.055 0-.92 1.86-5.298 2.035-6.013.705-2.893.562-32.925.565-35.386 0-.338-2.025-3.193-2.053-3.959-.008-.262 7.288-2.927 7.339-2.685.146.691-.409 4.247-.206 4.985.339 1.24 8.722 27.906 8.88 28.305.723-.255-1.133-17.606-1.095-19.24.047-2.042-.272-9.628-.402-10.996-.2-.499-2.179-3.908-2.036-4.214.114-.247 9.122-3.176 8.79-2.653-.272.425-1.552 4.984-1.712 6.543.219 1.848 1.2 36.538 1.226 39.142.022 2.062 1.851 4.671 2.066 6.078.038.246-10.237.534-10.414.079-.118-.715 2.223-5.556 1.956-6.289-.656-1.804-3.661-10.006-4.334-11.788-1.332-3.516-3.633-10.075-3.875-10.542l.53 12.641zm61.808 0c-.086 2.888.191 9.168.019 10.542-.085.926 1.891 4.203 2.052 5.505.02.178-9.33.391-9.33-.055 0-.92 1.859-5.298 2.033-6.013.705-2.893.74-53.372.744-55.832 0-.338-2.027-3.194-2.053-3.96-.01-.262 7.287-2.926 7.339-2.684.146.69-.408 4.247-.207 4.985.339 1.24 8.98 43.199 9.14 43.597.721-.255-1.067-23.597-.996-25.23.072-1.674-.382-15.39-.76-20.299-.2-.498-2.179-3.907-2.038-4.214.115-.247 8.729-3.192 8.394-2.67-.27.426-1.153 5.001-1.314 6.56.219 1.848 1.02 56.985 1.048 59.59.022 2.061 1.852 4.67 2.066 6.077.037.246-10.238.534-10.415.079-.118-.715 1.736-5.214 1.47-5.947-.657-1.805-3.625-15.506-3.993-17.375-1.602-8.13-2.752-24.652-4.36-24.306l1.161 31.65zm38.35 15.947s.176-5.648-.058-7.748c.965.27 1.628-.584 1.681-1.277.105-1.388.09-16.636.223-20.876.017-.55.61-43.893.619-44.24.004-.19-1.815.725-2.484.831-.115-1.653.425-6.773.575-6.805 3.529-.774 14.036-5.062 14.651-5.2.31.277.276 7.163.344 9.07-.514-.106-2.07-1.338-2.18-1.294-1.417.095-4.114.989-5.59 1.616-.051.022.123 39.33.255 39.365.565.146 3.603-.607 4.47-.765.298-.054 1.717-.723 1.936-.829.106-.051-.034 8.216-.183 8.217-.204-.007-1.385-.518-1.608-.583-.215-.062-4.811.652-5.042.691-.218.038-.964 21.546-.521 21.667 1.736.078 6.229.195 6.937-.019.097-.194 1.687-1.061 1.871-1.085.644-.084-.526 9.47-.574 9.488-1.137.085-6.124-.262-7.862-.261l-7.46.037zM67.957 230.75c.198-1.703.242-12.45-.811-13.615-2.624-2.905-6.53.31-8.765-1.581-7.709-6.519-5.8-22.185-5.69-24.62.007-.16-.04-14.392 8.2-14.172 8.373.223 9.49 6.837 9.696 8.627.192 2.292.998 13.136 1.018 15.422.008.927 1.317 3.58 1.143 4.051-.157.428-6.877.37-7.34-.054-.128-.555 1.167-2.601 1.231-3.904.082-1.643-1.108-10.54-1.184-12.18-.062-1.338-1.71-5.782-2.607-5.944-1.052-.19-2.925.452-3.537 2.816-.516 1.388-1.452 7.79-1.458 8.434-.035 3.855 1.828 12.668 2.785 14.421.846 3.388 8.526-.388 11.754 5.492.75.924 1.15 12.419 1.1 15.532-.02.796.454 16.455-10.163 16.482-7.894.02-11.869-8.924-11.825-11.858.033-2.244.085-6.03.833-8.826.69-2.579 5.44-4.86 7.49-5.182.362-.057 1.385-1.273 2.077-2.085.31-.365 1.561 8.288 1.109 7.996-1.18-.76-1.93-1.166-2.131-1.284-1.097-.644-2.289.101-2.763 1.097-.814 1.708-.677 3.703-.674 5.69.002 1.6 1.725 6.065 5.27 5.99 3.546-.074 4.732-2.365 5.242-6.745zm37.023-27.994c-1.459-1.595-2.33-5.633-2.674-6.373-.558-1.2-3.859-3.067-5.199-2.282-1.087.642-1.542 7.11-1.807 8.207-.33 1.363-.248 15.668-.42 16.553-.377 1.932.647 14.972 1.234 16.661.89 2.56 3.397 3.33 4.696 2.491 1.32-.85 1.006-3.731 1.029-5.91.024-2.286.024-7.675-.293-7.674-.447 0-1.633-.234-2.876-.098-.044-1.105-1.223-5.064-.957-5.146.561-.173 10.881.3 12.783.056.422.162-.39 4.259-.564 5.22-.038.207-3.242-.002-3.28.131-.432 1.5.465 20.419.262 21.04-3.255.189-1.906-2.59-3.254-1.38-1.401 1.256-1.393 1.67-6.18 1.67-6.304 0-7.292-8.294-7.258-10.572.077-5.173-.375-31.506-.175-35.035.165-2.922 1.445-14.502 8.373-13.56 3.597.49 5.457 3.107 6.619 3.643.98.453 3.776-.493 3.794-.134l-3.853 12.492zm39.298 42.843c-1.787.03-6.804-.296-8.855-.402 0 0-.296-4.61.173-6.573.965.27 1.67.15 1.723-.543.106-1.388.307-5.87.44-10.109.021-.698.113-5.213.11-5.42 0-.161-.309-12.535-.22-14.026.125-3.533.434-3.213-1.062-3.263-.114-1.653-.027-5.792.043-5.77 2.506.793 7.672 2.59 9.704 3.332 6.601 1.905 6.373 1.238 7.476 1.315.398.07-.927 5.928-1.208 7.776-.806-.086-.79-2.237-3.024-3.15-2.55-1.043-3.825-1.666-6.237-2.126-.313-.04-.252 16.098-.11 16.158.565.147 3.967.204 4.51.212 1.246.02 1.708-1.2 2.214-1.043.139.043.118 7.065-.03 7.066-.339.002-.896-.726-1.961-.95-1.288-.272-3.217-.05-5.093-.037-.222.002-.53 10.78-.087 10.9 8.771.415 6.872-1.257 8.042-1.272.644-.084.664 7.636.347 7.7-1.116.226-5.156.224-6.895.225zm-60.1-29.032c-.088 3.12-.364 20.94-.374 21.483.005.276 1.298.142 1.6.198.823.15.998-1.083 1.45-.846.026.768.227 7.972-.109 7.986-4.19.179-10.536.185-10.903.082-.231-.065-.26-6.913-.176-7.485.047-.324.554.464 1.26.375.622-.079 2.416.022 2.431-.16-.038-2.056-.2-20.252-.16-21.487.036-1.08-.299-16.572-.39-17.45-.195-1.886.176-10.09.15-11.753 0 0-.759-.331-1.29-.56-1.042-.3-2.97.225-3.223.151.227-.484.117-7.094.6-7.163.63-.031 5.864 1.686 7.734 2.495 1.486.643 5.952 1.653 5.872 2.809-.104 1.494-.285 6.506-.47 7.032-.267.755-1.421-1.954-2.103-2.31l-2-.71.1 27.313zm35.322 12.048c-.087 2.887-.626 9.056-.799 10.43-.084.925 1.674 4.95 1.832 6.252.022.178-8.601.426-8.601-.02 0-.92 1.903-5.436 2.078-6.151.705-2.893.76-39.434.763-41.895 0-.338-1.205-4.181-.864-5.42.07-.253 6.9 2.324 6.952 2.565.146.692-1.076 4.261-.874 5 .339 1.239 1.872 7.537 2.082 8.467.648 2.872 4.578 22.454 4.737 22.853.722-.255-.348-20.044-.31-21.679.047-2.041-.016-5.876-.145-7.244-.2-.499-1.079-5.576-1.067-6.335.115-.247 8.615 2.996 8.282 3.52-.272.425-2.66 3.043-2.819 4.602.218 1.848-.34 32.492-.312 35.096.021 2.062 1.839 5.04 2.054 6.447.037.245-9.106.58-9.283.125-.118-.715 2.224-5.555 1.957-6.289-.657-1.804-1.873-4.337-2.156-6.22-.321-2.135-3.827-22.97-4.07-23.437l.563 19.333zm-78.05 16.589c-1.787.03-8.214-.065-10.264-.17 0 0-.455-6.428.014-8.391.965.27.824-.07.84-1.557.106-1.388-.4-19.88-.2-20.565.203-.691-.304-24.233-.272-25.186.052-1.509.116-10.904.088-13.223-.003-.199-.711-.493-1.106-.543-.115-1.653-.083-8.443.222-8.363.762.204 9.123 2.91 11.155 3.651 6.601 1.905 7.564 2.6 8.741 3.09.175.073-1.607 11.692-1.972 10.868-.414-.234-1.76-3.378-2.358-3.65-2.53-1.092-6.437-2.993-8.85-3.452-.313-.04-.196 8.498-.13 9.819.13 2.563.68 16.148.758 17.25.141 1.995.033 8.982.175 9.042.566.147 4.473.303 5.017.312 3.637.144 2.542-.905 3.571-.942.14.043.1 7.967-.047 7.968-.749.004-.853-1.244-8.707-1.19-.222.002-.916 16.499-.473 16.62 9.388.415 9.157-1.141 10.327-1.156.645-.084.451 9.5.365 9.543-1.116.226-5.156.223-6.894.225zM8.73 161.455c1.783.478 5.479 1.513 7.243 2.047 2.064.624 3.952 2.505 4.908 4.376.957 1.874 1.41 3.803 1.863 5.8.417 1.842 1.85 25.365 1.505 27.898-.275 2.022-.823 22.26-.922 24.543-.143 3.288-1.545 14.943-5.386 17.244-4.08 2.445-12.5.758-15.015 1.406 0 0-.092-4.88 0-6.746.11-.835 2.23-.16 2.197-.825-.312-6.487-.79-33.08-.79-33.548 0-13.766.382-34.738.374-35.889-.005-.613-2.125-.396-2.125-.396s.066-6.768.485-6.79c.253 0 5.052.715 5.664.88zm8.748 18.593s.366-7.591-2.37-8.614c-2.536-.949-4.139-1.551-4.068-1.096.18 1.158.193 23.845.277 25.132.148 2.282-.224 16.01-.04 18.294.052.64.194 22.81.194 22.81 1.271.298 1.593-.073 3.489-.903 2.776-1.217 2.38-6.98 2.606-8.514.346-2.347.68-24.99.68-26.247 0-1.487-.532-15.824-.768-20.862zm145.792 41.475c.03.404 2.482 1.273 4.51.326 1.5-.701 3.502-1.132 3.702-5.964.155-3.753-7.204-4.128-7.89-3.858l-.322 9.496zM417.71 203.91c.03.405 2.07.396 4.098-.551 1.5-.701 1.117-16.885 1.337-19.667.132-1.664-.444-16.122-1.342-18.78-.36-1.063-3.093.854-4.776 1.07 0 0 .682 10.808.792 13.587l-.109 24.34z"/>
        <path id="Fill-2" d="M196.889 229.67c-9.908-5.905-5.243-19.248-.221-26.481 9.85-14.19 19.022-12.194 25.235-12.194 7.603 0 14.383 6.212 12.448 16.014-.317 1.608-8.51 7.106-14.976 9.753-1.93.79-5.443-8.203-4.461-8.363 5.56-.906 11.543-2.264 10.787-7.127-.21-1.335-9.45-4.956-17.508 1.873-1.746 1.48-14.804 12.021-1.05 23.85 1.31 1.126 2.38 1.499 4.426 1.753.301.182-.43 4.436-.39 4.427-4.092 1.526-8.992 4.956-15.144 10.066-8.664 7.197.913 28.801 20.714 28.137 22.244-.747 22.08-24.379 18.639-25.822-.132-.308-8.629-2.38-12.587-.552-.985.456-7.413 4.133-5.7 6.793 1.073 1.664 4.034-.298 5.056-.362 3.65-.228 1.6 5.407-1.025 7.9-1.463 1.393-8.392 1.098-9.89-.343-4.214-4.048.403-19.943 10.135-20.1 1.249-.02 12.406.674 13.642.635 7.84-.253 13.89-1.106 15.441-5.7 1.548-4.577.562-7.966-.864-8.587-2.059-1.053-8.053-2.893-9.435-2.07-4.03 2.396-3.242 6.79.778 5.238.264-.102 1.69 4.075 1.759 4.37.268 1.151-6.885 2.97-12.897-.446-1.197-.68 1.917-14.863 11.79-15.466 12.116-.74 13.486 4.833 15.042 7.43 3.337 5.57-.907 23.15-11.524 21.616-.033 1.999 3.754 8.993 2.265 20.237-.318 2.418-3.528 16.324-30.802 17.897-15.071.87-26.228-6.934-29.064-15.648-11.124-34.16 9.38-38.728 9.38-38.728zM55.58 278.05s-19.97-.22-21.241.047c-1.27.266-10.335-.165-14.537-.331-4.202-.167-14.454.52-14.454.52s-.646-19.329.837-23.368c0 0 4.802-.561 11.064-.106 5.653.411 22.928-.122 27.607.106 8.11.396 38.837-.147 45.914.41 6.196.49 34.713.077 37.982-.21 2.275-.2 25.456.068 25.456.068l12.144.01 10.777.418s.048 1.937.233 4.712c-.433-.193-.215 4.517.332 4.04.496 5.01 1.409 10.842 3.069 13.652.641 1.087-17.569-.987-25.878.176-4.756.666-19.524.328-23.84-.019-3.15-.253-24.471-.472-30.622-.162-6.15.311-17.667-.395-23.112.014-1.77.133-4.683.182-7.811.187.455-.585-13.92-.164-13.92-.164zm214.937-22.855c10.694-.182 26.755-.471 31.753-.645 7.714-.269 38.05.543 45.149.543 7.097 0 35.28.088 37.563.088 2.283 0 26.691-.316 26.691-.316l20.697.415s-.096 21.242.593 22.298c.585.897-22.418.225-22.418.225s-18.715-.244-24.785.161c-3.154.211-39.898-.492-43.379.145-3.479.637-25.708-.163-25.708-.163l-20.668.068-19.012.375-22.545-.833s6.158-13.631 6.026-22.194l7.199-.119c-.016.69.248 1.404.488 1.703.42.523 2.102-1.058 2.102-1.058a1.34 1.34 0 00.254-.693zm-127.58 7.576c.271 1.108-.914 1.394-1.473 2.121-.153.199-.449.267-.673.405-.483.298-1.386.18-1.426.82-.046.75.85 1.079 1.368 1.352 2.192 1.152.796 3.096 9.49 5.665.651.192-.014 2.48-.807 2.287-.697-.17-3.122-.56-3.773-.79-7.836-2.761-6.497-4.266-8.946-5.813-.347-.22-.784-.287-1.187-.392-1.17-.305-1.434-.199-1.482 1.119-.04 1.105-.721 1.523-1.332 2.102-.351.332-.666.157-1.002 0-.43-.199-.45-.563-.36-.977.54-2.438.19-4.981.755-7.413.144-.617.138-1.164-.105-1.769-.27-.673-.355-1.406.095-2.08.224-.334.445-.54.898-.449 1.575.313 3.153.39 4.75.064.974-.2 1.95.152 2.911.297 1.152.172 2.27 1.903 2.3 3.45zm150.642 12.343c-1.029.022-1.418-.392-1.059-1.389.69-1.912 1.111-3.914 1.776-5.83.595-1.71.403-2.462-.955-3.594a55.714 55.714 0 01-3.103-2.765c-.885-.855-.876-1.637-.088-2.387.819-.78 1.777-.745 2.381.233.432.698 1.023 1.098 1.652 1.471.55.327 1.119.669 1.472 1.197.536.804 1.002.555 1.545.095.827-.701 1.155-1.815 1.88-2.613.566-.623 1.173-1.11 1.965-1.234.673-.105 1.278.194 1.534.882.232.624-.238 1.058-.657 1.38-1.818 1.4-2.98 3.34-3.955 5.445-.946 2.04-1.606 4.16-1.868 6.444-.198 1.714-1.182 2.635-2.52 2.665zm123.385-13.323c.1 1.287.198 2.787.173 4.299-.01.565.271.803.72.88 1.616.276 1.616.441.104 1.751-.8.692.128 1.879.288 2.717.429 2.188 1.224 3.23-1.03 3.23-1.64 0-1.41-.589-1.524-1.528-.136-1.122-.09-3.621-.32-4.708-1.705-.593-1.554-.505-2.483-.607-.671-.073-1.814-.706-2.485-.718 0 0-2.025 2.405-2.69 4.201-.134.363-.134 1.14-.331 1.457-.24.386-3.216.384-3.591-.244-.386-.646.707-2.498.965-2.684.552-1.101 5.415-6.828 6.017-7.449.948-.975 2.027-2.204 2.675-3.445.822-1.578.643-1.162 1.59-1.12.99-.004 1.152.058 1.508 1.376.292.8.317 1.084.414 2.592zm-328.613-2.124c.46.02.837.165 1.131.525.995 1.22 2.397 1.689 3.702 2.34.314.158 1.3 1.19 1.52.996 1-.882 3.47-2.657 4.38-3.692.698-.793 1.329-.812 1.866-.215.482.537.337 1.584-.44 2.161-1.198.889-2.307 1.896-3.388 2.923-2.006 1.907-3.658 4.053-3.94 7.137-.107 1.174-.789 2.162-1.913 2.64-.473.201-.917.247-1.285-.185-.322-.379-.574-.806-.396-1.365.017-.053.026-.11.05-.158.836-1.696 1.068-3.666 2.115-5.276.893-1.375.845-1.895-.49-2.657-1.29-.735-2.37-1.787-3.656-2.505-.623-.349-1.172-.78-.89-1.7.273-.882 1.014-.829 1.634-.969zm182.44 4.885c-.459 1.53-1.79 4.49-2.625 5.82-.457.731-.913 1.466-1.097 2.382-.096.472-.26 1.162-.932 1.18l-1.738-1.184c-.265-1.112.444-2.32 1.038-2.983 1.53-1.707 2.104-3.858 2.658-6.016.348-1.354 1.206-2.33 1.912-3.405.689-1.048.689-1.048 2.336.552.38.518 2.829 5.57 3.4 6.939l1.441-2.414s1.969-4.56 2.45-5.984c.448-1.61.448-1.61 2.236-.774.886.524.886.524.436 1.557-.53 1.219-.928 2.495-1.498 3.626-.585 1.166-1.07 2.392-1.685 3.538-.604 1.125-2.12 5.345-2.188 5.916-.336 1.322.019 1.322-1.396 1.322-1.21.01-1.042-.464-1.197-1.084-.601-2.393-3.372-8.95-3.55-8.988zm-108.49 1.29c1.78 2.153 4.126 3.367 6.266 4.897 1.483.963 1.483.963.559 2.236-1.073 1.487-1.073 1.487-2.171.615-.14-.073-.297-.136-.404-.25-1.598-1.694-3.713-2.61-5.4-4.17a5.089 5.089 0 00-.886-.678c-1.28-.746-1.749-.533-2.03 1.048-.178 1.007-.544 1.918-.933 2.83-.517 1.364-.67 1.76-1.96 1.135-1.681-.755-1.374-.81-.557-2.33 1.016-1.95 1.508-4.123 2.443-6.11.852-1.814 2.008-3.522 2.063-5.707.016-.654.26-1.18 1.674-.645 1.35.514 1.068.922.81 1.538-.256.608-.62 1.163-.904 1.759-.166.352-.301.792.03 1.083.266.235.607.037.853-.173 1.23-1.053 2.731-1.593 4.04-2.494.527-.362.979-.74 1.532.018 1.136 1.432.325 1.282-.098 1.684-.493 1.175-1.638 1.336-2.487 1.871-.852.537-1.663 1.087-2.44 1.843zm-142.069 6.583c-1.346.012-1.339-.218-1.532-1.162-.234-1.15-1.279-1.547-1.881-2.362-.835-1.13-1.806-2.149-2.768-3.16-.507-.534-.794-.418-.952.329-.521 2.47-1.623 4.699-2.498 7.021-.302.804-1.076 1.125-1.643.831-.68-.351-.886-1.073-.532-1.95 1.009-2.499 1.966-5.01 2.657-7.644.216-.822.312-1.625.383-2.45.072-.82.273-1.635 1.045-1.873.831-.255 1.489.246 1.951 1.03 1.316 2.234 3.355 3.783 4.81 5.902.758 1.104 1.228 1.002 1.693-.365.688-2.023 2.101-3.557 2.918-5.48.265-.624.1-.891 1.504-.528.917.452.497.762.503 1.268.005.486-.23.845-.49 1.203-1.325 1.832-2.026 4.01-2.914 6.087-.208.487-.117.983-.156 1.479-.013 1.727-.013 1.727-2.098 1.824zm31.417-11.154c.072-.27 2.28-1.54 2.28-1.54.459.02 1.76 2.533 2.055 2.913.994 1.283 1.477 5.064 2.782 5.75.314.166 4.023-8.104 4.314-8.123 1.54-.104 3.056 6.816 3.998 7.11.957.3 5.784-6.5 6.243-7.049.698-.835 2.014.486 2.551 1.115.483.565-3.693 6.303-4.177 6.783-1.085 1.075-3.074 4.042-4.145 5.134-1.164 1.188-3.276-5.794-4.401-5.29-.473.211-2.913 6.395-4.496 5.794-1.395-.53-4.069-6.403-5.292-7.706-.503-.535-1.97-3.916-1.712-4.891zm319.955 12.625c-.573-.114-1.442-.252-2.295-.465-1-.249-1.548-.498-2.55-.295-.97.108-2.61-.633-2.483-2.463.143-2.076.338-1.108.917-1.23 2.688 1.85 4.764 3.154 8.836 1.776.551-.182 1.88-1.289 1.48-1.7-.41-.422-.957-1.866-1.486-2.145-.594-.314-2.096-.948-2.654-1.305-1.588-1.015-1.65-1.493-1.343-3.09.146-.75 1.71-2.16 2.653-2.305.94-.146 1.893-.466 5.787-.654.179-.003.743 1.485.597 1.614-.7.588-1.808.251-2.742.206-1.027-.051-3.106.621-3.939 1.285-1.117.89 1.166 1.968 3.323 2.636 1.556.379 2.227 2.84 2.135 4.197-.091 1.324-.543 2.76-1.837 3.127-1.338.38-2.697.763-4.399.811zm-334.811-9.043l7.704.048c.857.446-1.189 2.783-1.512 3.064-.327.284-6.74.06-6.717.336.001.602-1.037 2.03-.727 2.233.448.527 6.618-.058 6.785.527.04.144-1.312 2.562-1.23 2.582.481.117-7.79.393-9.043-.208-1.635-.725-1.336-.778-.541-2.24.987-1.873 1.466-3.962 2.374-5.872.829-1.742 1.709-2.64 1.76-4.74.017-.63.255-.734 1.722-.643 1.504.093 7.821.058 8.217.414.223.2.529 2.393-1.056 2.407-.526.004-5.54-.537-5.949-.339-.828.516-.969 1.674-1.787 2.43zm350.505 6.65c.3.9.17 1.249.034 1.469-.302.489-.723.78-1.31.6-.542-.168-.866-.601-.982-1.148a1.293 1.293 0 01.66-1.413c1.102-.59 1.168-.132 1.598.492zm39.011.067c.576.438.617.73.603.94-.032.47-.23.868-.734 1.041-.47.161-.879.037-1.182-.26-.313-.312-.335-.821-.065-1.249.585-.932.814-.666 1.378-.472zm-78 1.507c-.848.445-1.212.353-1.449.238-.527-.257-.877-.667-.781-1.32.088-.607.47-1.012.995-1.213.547-.21 1.151.007 1.491.512.742 1.102.299 1.235-.257 1.783zM330.801 260.8c.46-2.186.536-2.083 2.513-1.471.634.196.634.196.348 1.234-.226.814-.673 3.181-.916 3.967-.513 1.644-.047 3.12.621 4.5.747 1.542 2.813 1.358 3.682-.26 1.095-2.041 1.649-4.296 2.17-6.56.075-.324.132-.653.194-.98.415-1.933.415-1.933 2.068-1.522 1.674.416 1.476.5 1.18 2.09-.1.525-.182 1.124-.408 1.562-1.058 2.053-1.765 4.262-2.593 6.415-.862 2.243-3.662 4.055-5.747 3.432-1.184-.353-2.02-1.462-2.914-2.37-2.234-2.267-.532-8.446-.198-10.037zm-221.285 7.33c.006-.054.008-.107.008-.16.263-2.766 1.046-5.247 3.202-7.039.98-.814 1.995-1.261 3.274-1.172 1.737.12 3.416.266 4.735 1.703.916.999 1.444 2.145 1.476 3.575.05 2.227-.496 4.21-2.009 5.775-.867.897-1.5 2.085-2.946 2.251-1.695.195-3.226-.072-4.79-.8-.772-.36-1.302-.97-1.834-1.573-1.024.244-2.367-.829-1.645-2.04 0 0 .225-.244.53-.52zm2.534-1.18c-.137.606.176 1.216.684 1.76a4.74 4.74 0 002.578 1.436c.718.132 1.543.636 2.259.148 1.42-.967 2.4-2.383 2.447-4.209.034-1.36-.555-2.721-1.723-3.347-2.627-1.407-6.036.858-6.245 4.211zm298.92-1.581a78.49 78.49 0 014.559 1.076s.286-3.447-.896-5.906c-.756.633-3.092 3.824-3.663 4.83zM137.38 261.53c-.51.07-1.02.136-1.53.215-.204.032-.89-.227-1.082-.152-.578.225-.426 3.553.416 3.269 2.066-.699 1.103-.314 3.487-1.192.53-.195 1.24-.461 1.24-1.057.001-.676-.782-.748-1.303-.909-.39-.12-.814-.12-1.228-.174zM265.134 49.556c-.323-.337.24-8.816.218-10.857-.042-4.022-3.246-7.291-4.82-9.693-2.868-4.376-11.685-10.294-13.333-10.854-.857-.292-1.872 9.358-1.902 9.823-1.192 24.167 1.535 66.919 1.49 69.64-.054 3.209-.407 51.522-.633 53.397-.028.23-.861 35.146 6.159 35.951 6.319.725 8.105-5.944 10.503-11.35 1.195-2.116 5.08-51.462 4.549-51.355-7.872.604-10.556 12.497-12.655 12.373-.95-5.16-.259-20.018.179-20.41.63-1.044 7.78-1.907 12.702-3.132 2.656-.191 13.097-2.676 13.198-.671.124 2.484-.964 35.892-1.208 38.233-.18 1.717-.532 46.691-2.13 46.974-7.866 1.39-8.751-13.51-8.751-13.51-.734 2.19-2.132 15.022-7.461 18.881-4.308 1.915-6.1 2.824-15.007 3.808-1.217.134.09-5.617-.43-9.514-.384-2.89-3.308-6.63-4.97-8.854-2.27-3.033-12.648-7.087-12.662-7.246-2.986-33.717-1.782-60.605-1.787-63.614-.003-1.915.897-61.171.289-70.657-.433-2.29-2.813-25.82-1.583-36.16C225.286 9.1 231.795.424 234.416 0c17.814 3.965 27.846 10.4 28.86 12.121.074.272 3.323 13.842 4.382 13.967.218.027 1.086-10.975 1.43-10.824.865.376 10.298 4.665 10.355 4.855.114 2.06-1.986 28.924-2.62 31.943 0 0-8.55.764-11.689-2.506zm-63.236-7.176c-.06 11.912-2.15 64.628-4.747 75.621-.948 4.012-19.668 5.905-21.561 6.145 2.395 1.878 22.744 6.897 22.113 13.625-.348 3.71-8.226 33.429-7.103 38.207.535 2.28 3.208.868 4.626.059.511-.291 7.883 5.38 7.896 5.972-.033.707-4.48.818-10.65 8.166-4.798 5.716-8.499 11.987-7.203 13.38 1.098 1.179-12.774-2.473-12.796-2.937-.082-1.731 2.769-15.559 2.433-18.602-.337-3.044 3.484-37.223 3.385-38.167-.291-2.785-3.86-8.882-7.729-7.92 0 0-.511 19.538-.936 22.224-.441 2.774-2.281 21.357-1.856 22.788.373 1.258.938 18.517.877 18.584-.47.507-19.883-5.916-20.168-6.42-.213-.38 5.862-16.328 6.132-16.55 1.427-1.18 3.704-47.58 4.102-50.308.308-2.105 2.2-42.569 2.162-43.19-.144-2.424-1.054-44.586-1.045-45.945.008-1.323-1.49-18.474-2.938-19.36-.272-.167-6.44-7.414-6.252-8.725.035-.513 11.308-4.542 14.719-5.356.273-.064 9-2.017 9.261-2.084 28.46-7.258 27.297 37.13 27.278 40.793zm-80.84 88.405c1.358-6.609 1.906-42.94 1.738-45.044-.198-2.487-4.957-55.153-4.909-55.394.073-.368-6.9-7.748-6.9-7.739 0-.486 14.153-6.825 14.153-6.825s16.432-6.359 17.943-6.35c.505.004 4.057 18.21 2.91 18.693-.718.292-7.268-4.036-7.53-4.11-1.357-.262-5.616 1.917-6.316 2.273-.102.052 2.632 27.32 4.486 49.216 1.384 16.345 1.472 36.233 1.261 37.765-.13.948 10.08-.312 10.793-.504 1.188-.322.37 15.506-1.328 15.209-2.337-.409-10.148-1.794-10.33-1.317-.341.894-1.58 19.033-8.675 46.05.133.511 6.73 2.098 8.19 2.673.505.198 6.177-5.727 8.32-5.509.49.05-4.229 22.655-4.764 22.531-.524-.123-12.65-4.104-13.98-4.571-1.27-.447-16.018-4.81-16.06-4.815-1.135-1.327 7.41-15.866 7.41-15.866.607-1.124 3.587-36.366 3.587-36.366zm205.557-11.65c-2.192.332-7.555 2.742-8.75 2.91-1.977.279-7.923-.088-8.916 1.17-.73.928 2.794 38.952 2.84 41.736.252 3.244 7.398 15.594 6.294 17.39-.636 1.034-25.09 10.006-24.931 9 .301-1.893 3.738-18.43 4.082-20.317.347-1.897-.438-44.098-.577-46.837-.12-2.383 1.855-54.88 1.344-57.209-.322-1.467-1.664-33.142-2.31-33.737-.285-.265-4.048-16.816-4.028-17.364-.001-1.133 32.892 9.84 33.648 10.73.03.115-6.198 11.415-6.185 11.63.235 4.353 3.01 12.12 4.45 16.29.334.964 7.955 33.871 8.828 36.617.417 1.315 5.09 21.814 5.608 24.874.386 2.284 7.051 31.342 9.431 38.002.858 2.4 9.058 10.304 10.986 13.604.65 1.112-33.184 13.044-33.516 12.48-.273-2.235 4.388-17.946 4.435-22.473.095-9.54-2.733-38.495-2.733-38.495zM90.41 35.763c-1.159-1.342-3.94-3.802-4.014-3.948 0 0 8.214-3.224 10.185-4.122 2.63-1.199 10.741-4.197 10.741-4.197-.084 2.296-2.369 6.337-2.073 8.415.264 1.454-1.257 40.791-1.226 42.623.049 2.826-1.067 29.289-1.216 30.752-.17 1.684-2.44 27.871-2.625 30.611-.177 2.654-6.56 29.647-6.56 29.647 2.095.971 3.903 1.44 6.046 2.074 2.564.759 2.983-3.424 3.372-3.37l5.617-1.77c-.075 1.873-1.165 20.242-1.983 19.944-1.103-.402-35.027-10.312-35.442-10.364-.046-3.087 9.93-9.44 10.028-10.26.434-2.757 4.69-26.538 4.949-29.28.19-2.008 1.996-25.196 2.173-27.014.112-1.146 2.618-43.39 2.336-45.866-.176-1.538.387-17.896.254-22.216.104.172-.538-1.71-.562-1.659zm-11.265 5.751c-.952 3.3-4.146 21.934-4.397 24.342-.086.828-5.363 28.747-5.651 29.36-.512 1.09-2.508 16.102-2.675 16.915-.658 3.2-3.445 20.448-3.588 23.087-.094 1.744-1.285 23.12-1.127 25.076.069.852 3.434 8.735 3.58 10.911 0 0-27.847-8.102-27.942-8.833.505-1.282 6.971-4.095 8.158-5.397.74-1.305 3.095-12.745 3.683-14.79.166-.578 3.181-26.985 3.628-30.542.262-5.374-1.367-16.015-2.129-18.375-.64-1.984-4.812-26.36-5.38-28.948-.457-2.073-1.901-12.353-2.013-12.43-1.097-.758-4.781-3.401-4.994-3.764-.301-.516 17.13-6.624 17.187-6.599.1.242-.686 4.22-.712 6.62 1.564 5.886 1.933 16.326 2.392 18.172.621 2.495 2.109 23.11 2.62 23.126.493.015 2.517-19.885 2.891-21.307.96-3.645 4.08-21.25 4.056-23.421.054-.467-4.988-4.93-4.589-5.326.142-.14 7.333-2.995 10.683-3.937 2.58-.725 9.407-3.012 9.533-2.906.125.106-1.872 4.315-3.214 8.966zm295.353 94.461c2.496.125 6.254-25.104 6.372-25.7.447-2.278-4.55-14.343-3.93-15.032 1.039-1.152 8.798-3.045 13.562-3.62 1.291-.157-.508 13.136.019 15.45 1.142 5 12.064 24.9 12.919 25.07 1.535 0-1.707-22.253-1.85-23.961-.191-2.323-2.48-25.602-2.483-27.681 0-9.552-4.427-18.79-5.031-21.27-.502-2.056-7.408-13.252-7.365-14.166 8.3 2.888 30.582 10.464 30.582 10.464s-6.192 8.138-6.571 9.316c-.701 2.172 2.025 29.635 2.751 37.488.662 7.149 2.055 18.74 2.404 23.051.222 2.74 3.405 14.2 3.346 15.03-.166 2.333 5.922 7.684 5.704 9.389-.085.669-26.09 7.489-26.614 6.976-1.017-.997-.486-7.619-.943-9.02-.907-2.776-1.686-5.65-3.787-10.06-3.5-7.351-5.534-13.373-6.105-13.373-.719 0-1.073 6.338-1.43 15.403-.095 2.422 3.772 16.155 4.606 18.343-.268 1.142-24.808 7.665-25.078 7.27-.963-1.407.888-11.532.612-13.058-.298-1.64-8.096-28.507-8.517-31.166-.403-2.55-6.135-29.986-6.756-31.995-.675-2.174-5.3-33.657-6.021-37.082-.135-.644-5.927-17.928-6.528-22.856-.103-.847 27.988 9.011 31.978 11.837.941-.256-6.504 12.643-6.132 13.708 1.027 2.944 2.147 34.693 2.514 36.68l7.772 44.565zM9.474 147.09c1.066-1.682.364-31.397.697-33.71.247-1.715 1.652-35.218 1.565-36.617-.086-1.4.697-9.589.366-9.29-1.302.326-5.433 1.62-7.52 2.25-.539.022-3.787 3.826-4.498 4.172-.315.153.336-14.095.61-14.298 1.472-.438 16.046-5.662 16.046-5.662s17.51-4.979 18.21-4.963c.795.02 3.09 16.877 2.366 16.783-.652-.085-3.063-2.902-4.043-2.984-.899-.257-7.555 1.797-7.555 1.797s-.358 12.94-.128 15.612c-.058 1.865-.678 13.2-.83 14.655-.223 2.149-.67 12.047-.893 13.672-.345 2.511.557 38.526.539 39.652-.013.802 4.706 9.659 4.327 11.907 0 0-24.276-7.655-24.138-9.238.166-.435 1.197-1.16 1.593-1.261 1.754-.453 3.286-2.477 3.286-2.477zm162.487-35.186c4.089.516 8.216-2.631 10.397-5.915 2.056-3.097 2.704-54.548 2.77-55.94.16-3.369.491-24.07-.378-26.545-.846-2.413-5.814-9.845-15.951-6.703 0 0 3.324 20.416 3.327 22.585.003 2.128 1.12 38.418 1.119 41.725-.002 3.485-1.902 31.353-1.284 30.793zm135-3.79c1.678.974 8.125 1.503 9.697.928 1.294-.472 6.65-.984 6.616-2.067-1.29-9.266-5.28-33.056-5.819-35.881-.846-4.444-6.054-25.542-7.466-25.7-1.973-.218-3.06 49.26-2.59 50.647l-.437 12.074z"/>
      </g>
    </g>
    <g id="after" transform="translate(0 430)">
      <g id="Rectangle">
        <use fill="#000" filter="url(#filter-2)" xlink:href="#path-1"/>
        <use fill="#F8F8F8" xlink:href="#path-1"/>
      </g>
      <path id="After" fill="#292929" fill-rule="nonzero" d="M41.148 54l1.204-3.262h4.48L48.064 54h1.246l-4.046-10.5h-1.316L40 54h1.148zm5.306-4.256h-3.738l1.848-4.984 1.89 4.984zM52.057 54v-6.132h1.512V47h-1.512v-1.82c0-.518.267-.784.728-.784h1.135V43.5h-1.596c-.84 0-1.33.42-1.33 1.358V47h-1.12v.868h1.12V54h1.063zm6.472 0v-.896h-.868c-.462 0-.728-.266-.728-.784v-4.452h1.624V47h-1.624v-1.778h-1.064V47h-1.204v.868h1.204v4.774c0 .938.49 1.358 1.33 1.358h1.33zm4.875.14c2.142 0 3.164-1.582 3.234-2.884h-1.12c-.112 1.148-.657 2.114-2.1 2.114-1.413 0-2.17-1.05-2.17-2.786v-.182h5.39c-.028-2.198-1.162-3.542-3.248-3.542-2.002 0-3.346 1.484-3.346 3.696 0 2.044 1.177 3.584 3.36 3.584zm2.03-4.256h-4.143c.168-1.512.938-2.254 2.114-2.254 1.47 0 2.03 1.12 2.03 2.254zM69.666 54v-3.864c.238-1.722.896-2.296 2.03-2.296.224 0 .476.028.742.07v-.994c-.266-.028-.518-.056-.756-.056-.616 0-1.106.14-1.414.56l-.602 1.652V47h-1.064v7h1.064z"/>
      <g id="tyler-gaw-logo" fill="#292929" transform="translate(40 91)">
        <path id="ampersand" d="M246.746 195.754c-9.51-5.35-5.45-16.024-1.5-21.035.955-.855 7.663.138 9.917-1.235 5.621-3.421 11.827-9.505 12.97-9.505 5.98 0 11.537 8.899 10.014 15.685-.251 1.112-8.266 9.572-13.352 11.406-1.518.546-2.869-10.107-2.098-10.22 4.373-.626 9.179-1.766 8.583-5.133-.165-.924-9.399-3.729-15.735 1-1.373 1.024-15.164 5.987-.734 17.185 1.03.78 4.561-.252 6.17-.076.238.128-.126 3.81-.096 3.803-2.575 1.521-5.34 2.851-10.298 7.225-4.123 3.014-3.721 11.025-1.668 13.733.778 1.024 6.796 4.139 12.825 2.9 8.955-2.044 14.974-6.404 15.927-8.363.635-1.31.748-6.453-.572-6.94-.106-.212-6.902-.506-10.015.76-.775.316-5.789 2.286-4.44 4.129.843 1.152 4.686-1.138 5.49-1.181.727-.03.459 4.578 0 4.942-1.15.964-8.74 3.184-9.919 2.186-3.314-2.802-.095-12.927 7.791-14.882.984-.014 9.833-.584 10.805-.611 6.294-.477 11.083-2.81 12.302-5.99 1.218-3.17.359-5.843-.762-6.273-3.816-2.663-5.817-.287-7.488 1.283-2.43 1.758-.538 3.117 2.623 2.043.572.287 1.932 2.305 1.717 2.663.212.796-6.867 2.851-9.251 2.28-.94-.47-2.477-11.597 4.865-13.593 7.342-1.996 9.44-2.376 13.35 1.237 2.626 3.854-1.907 17.964-8.392 19.77-.024 1.386 4.556 6.046 3.385 13.831-.25 1.675-6.292 11.121-27.797 15.639-12.4 1.9-21.706-4.71-23.937-10.743-.596-1.613-.375-1.333-.763-2.756-.285-1.045 4.191-8.856 4.101-10.551 0-1.522-5.369-4.069-5.341-4.565 2.632-8.877 11.323-10.048 11.323-10.048"/>
        <path id="name" d="M119.352 11.16c1.887.749 1.171 23.3-.683 33.416l-.227 1.162c-2.11 10.305-9.865 37.928-10.53 39.868l-.035.096c-.555 1.175-17.69 83.444-18.523 89.467l-.03.272c-.103 1.919-15.093 39.682-14.92 41.834.077.937-50.772-1.476-50.876-2.281-1.913 0-5.525-8.454-4.208-9.889.818-1.435 35.307-6.876 35.958-9.129l.147-.379c1.154-2.838 8.575-20.105 9.035-23.752l.033-.42c.771-7.88 13.225-65.685 12.398-68.23l-.14-.501c-.815-3.106-4.354-18.235-7.519-31.863l-6.291-27.345c-2.026-8.922-6.518-28.582-6.707-28.903-.332-.566 27.096 1.113 27.16 1.14l.204.592c.635 1.904 2.5 7.817 2.475 10.057 1.693 6.33.324 17.236.734 19.625l.032.152c.686 2.747-.384 20.537 4.206 33.088.527.017 2.877-24.228 3.399-27.168l.045-.216c1.063-4.01-1.505-34.121-1.531-36.51.054-.475 7.604-2.107 11.683-3.17l.94-.253c2.859-.798 13.632-.876 13.77-.76zm-65.03 4.944c.881.023 8.069 47.436 7.268 47.333l-.481-.104c-4.173-.95-14.108-4.43-13.864-1.606-.065 2.053-2.271 10.728-2.44 12.327-.246 2.367 7.813 76.189 7.794 77.427-.013.86 9.491 6.728 9.577 9.315l-.013.192s-5.55 26.928-16.64 30.236l-1.366.397c-11.491 3.265-32.562 7.476-32.488 6.638l7.015-18.126c1.158-1.813 3.923-83.11 4.38-88.757l.062-.583c.244-2.637.22-13.257-3.424-16.516-1.442.361-13.558 17.874-14.345 18.256-4.59.855-5.612-64.036-5.308-64.259l.207-.068c2.311-.807 15.13-6.332 27.668-7.571l1.728-.162c10.008-1.015 23.92-4.387 24.67-4.37zm103.954-5.134l-.026.404c-.295 3.545-2.757 19.48-2.572 22.232l.016.167c.286 1.553-3.81 33.204-4.01 36.836l-.007.244c.053 3.013-5.974 28.721-6.499 31.789l-.033.224c-.103 1.013-3.63 10.678-6.804 19.233l-5.026 13.425c-1.148 2.851-1.801 13.184.574 13.88 2.839.834 12.623-32.626 14.918-31.201l16.64-2.852-.022.184c-.655 3.998-15.154 55.49-16.044 55.166-6.756 0-19.863 14.63-27.762 13.925l-.45-.058c-4.78-.855-20.75 8.177-26.3 12.742-1.146.57-4.091-.342-4.015-.572 1.434-8.747 9.262-26.463 9.372-27.367l.326-.961c2.74-8.252 8.456-29.554 10.384-38.591l.168-1.404c.584-4.595 2.433-17.9 3.069-22.79l.227-1.83c.447-2.961 7.746-42.257 7.44-44.92 2.295-2.49 7.606-20.144 7.459-24.896 1.435-1.997-6.229-21.995-6.312-22.154l2.208-.365c2.81-.443 7.787-1.155 11.85-1.347 8.894-1.995 21.231.857 21.231.857zm57.094-2.283c1.315-.373 23.492 2.946 25.72 3.132l.102.007c32.938 1.523 34.306 26.055 34.193 33.868l-.052 2.055s-4.583 48.115-7.46 58.474c-1.048 3.783-16.552 7.206-18.65 7.432 2.654 1.767 17.34 2.77 16.641 9.112l-.094.722c-.736 5.163-4.525 25.822-3.35 30.084l.132.428c.771 2.325 3.202 7.186 4.697 6.85l.146-.051c.519-.254-4.575 3.777-10.288 7.98l-1.57 1.147c-6.13 4.447-21.783 1.578-21.805 1.14-.088-1.58 6.1-8.126 6.136-11.139l-.015-.272c-.376-2.867 4.604-17.159 4.494-18.048l-.114-.902c-.368-2.735-1.218-6.755-5.051-5.943l-2.373 10.219c-.496 2.178-.915 4.073-1.069 4.898-.488 2.615-7.835 12.992-7.363 14.341.412 1.185-1.463 8.685-1.53 8.749-.257.233-13.293 1.71-17.598.378-10.435-7.045-21.446-7.938-21.613-8.175-.766-1.083-.955-5.895.191-6.277 6.507-1.869 18.927-1.382 19.127-1.522 1.557-1.091 10.745-26.297 11.448-29.529l.058-.335c.52-3.556 4.877-39.96 4.941-41.392l-1.227-17.29c-.984-13.48-2.275-30.276-2.76-32.638l-.028-.119c-.083-.33-4.227-26.147-4.016-27.384zm-7.173 1.14c.56.004 6.147 27.522 4.878 27.955.287.57-15.865-4.315-16.64-3.993l-.016.034c-.248.736-2.827 13.33-1.14 31.65l.157 1.607c1.532 14.729 2.379 8.685 2.146 10.065-.144.853 18.529-.967 19.317-1.142 1.317-.288-1.178 31.074-3.06 30.806-2.225-.316-12.94.193-16.741 1.008l-.196.044.01.163c.03 1.327-.882 5.537-4.591 17.023.148.463 5.554.339 7.174.857.19-1.997 12.736-9.419 15.11-9.222.541.045-9.353 32.723-9.945 32.613-.58-.11-9.07 5.07-17.98 5.798-1.407-.4-30.557 10.654-30.604 10.65-1.258-1.196 7.938-15.293 7.938-15.293.673-1.012 4.877-31.09 4.877-31.09 1.483-5.87 2.455-35.474 2.302-38.125l-.007-.097c-.219-2.238 3.438-54.53 3.489-54.747.081-.332-14.255-13.886-13.72-15.231-.164.409 8.987-2.662 15.11-2.852l.636-.013c7.005-.07 29.876 1.526 31.496 1.533zm133.41-7.432l.325.129c2.322.998 14.593 7.147 14.593 9.286.129 1.573-5.419 20.986-6.119 23.294l-.562.953c-1.949 3.24-8.456 13.519-11.393 11.407-.358-.257-4.854-7.377-4.878-8.937l-1.745-1.256c-1.1-.807-2.309-1.759-3.419-2.927-3.175-3.346-6.982 2.282-9.466 3.707-1.51 1.687-2.938 34.57-3.026 37.489l-.43 30.729c-.092 5.313-.184 9.384-.263 10.109l-.01.068.05-.106c.25-.425 1.536-1.675 7.79-1.18 6.997.554 6.334-5.756 8.99-9.887 1.322-1.617 9.003-22.52 8.414-22.44-8.716.462-10.297 8.65-12.622 8.558-1.051-3.945-.4-22.028.085-22.329.7-.798 8.809-2.978 14.259-3.914 2.943-.145 19.208-11.419 19.32-9.887l.004.222c0 3.6-2.418 38.73-2.682 40.471l-1.445 10.082c-1.804 12.287-4.794 31.414-6.015 31.563-4.017-1.52-12.05-9.697-12.05-9.697-.814 1.674-6.026 17.399-15.493 18.825-3.825 1.14-11.174-3.413-21.04-2.663-3.264.268-15.879 10.927-21.231 13.692 0 .38-2.287-9.835-2.294-9.889l.436-1.493c5.985-20.944 7.348-43.123 7.403-46.237l.002-.19c-.002-.758 4.439-16.205 5.165-31.375 1.72-3.994-3.118-28.456-3.443-31.946l-2.876-7.618c-2.915-7.79-6.287-17.406-5.731-20.717.219-1.266 18.71-5.192 21.613-5.515l2.325.35c17.769 2.624 22.035 2.003 23.115 3.264l.057.093c.748 1.156 8.575 12.366 9.696 12.457.242.02 4.21-16.66 4.59-16.545zm15.684 2.473c0-.547 11.08-2.679 19.43-1.585l1.365.186c7.918.987 21.633.607 23.196-.216.574 0-3.245 14.905-3.441 15.687-.862 3.424 4.717 14.024 6.312 17.97l.032.12c.587 2.647 6.224 43.38 6.999 47.839l.045.247c.427 2.162.328 12.806 2.964 19.11l.378.89c1.322 3.061 4.499 10.096 6.411 12.897.72 1.052-25.07 24.303-25.438 23.77-.111-.781-2.39-6.37-2.008-7.322l2.398-4.042c2.088-3.566 4.754-8.39 4.775-10.124.106-9.032-6.313-23.199-6.313-23.199-2.426.315-3.873 2.8-4.973 3.994-.808.877-4.545 17.901-4.494 20.535.28 3.073 3.806 12.563 2.581 14.262-.703.98-32.234 11.077-32.06 10.126.077-.424-1.436-4.849-1.076-5.205 4.376-6.133 9.894-15.537 10.184-16.9.374-1.749 1.256-13.975 1.162-17.026l-.015-.436c-.021-4.107 2.415-51.985 1.931-55.095l-.084-.441c-.593-3.572-3.739-29.451-4.488-30.784l-.035-.046c-.316-.25-5.76-14.693-5.738-15.212zM482.333.401l1.197 4.29c1.314 4.789 3.222 12.006 3.077 13.033l-.02.076c-.765 1.812 7.58 31.915 8.572 39.088l.178 1.483c.595 5.253.624 8.023.624 9.44-.186 1.973 5.546 3.804 5.93 6.085-.042.247-4.401 5.896-11.095 11.22-8.623 6.858-21.669 10.703-21.995 10.458-1.128-.843-2.556-7.944-3.061-9.127-1.005-2.348-4.531-6.275-5.166-6.275-.795 0-1.518 6.406-1.91 14.072-.108 2.047 2.103 2.091 1.721 3.993-.299.964-32.601 18.21-32.898 17.874-1.067-1.19-.077-15.444-.383-16.734-.332-1.387-5.846-13.155-6.312-15.402l-.097-.517c-.7-3.942-3.724-23.731-4.455-25.994l-.04-.111c-.745-1.838-2.915-30.917-3.714-33.814l-.086-.23c-.784-1.965-6.518-15.165-7.144-19.093-.115-.715 30.245-.214 34.663 2.173 1.04-.216-6.453 18.525-6.04 19.425 1.083 2.37 4.171 27.308 4.816 31.13l1.462 7.777 4.017 11.837c2.727.104.647-30.282.713-31.621l.004-.04c.495-1.926-5.278-9.83-4.59-10.41l1.095-.898c3.291-2.65 12.6-9.811 17.123-10.227 1.43-.133 2.285 16.87 2.869 18.825l.171.52c1.697 4.758 9.248 17.881 10.159 18.02 1.62 0 .887-10.335.812-12.821l-.006-.306c0-7.947-13.338-27.51-14.393-30.117l-.041-.112c-.558-1.737-8.607-8.985-9.469-9.84 5.831-6.524 33.429-8.474 33.712-7.13zM238.895 32.917l1.46 4.561c1.203 3.839 2.728 8.933 2.837 10.408l.006.361c-.03 3.488-.667 35.67 0 35.157 4.528.487 6.193 1.953 8.608-1.142 2.24-2.869 4.718-24.452 4.872-26.44l.006-.086c.177-3.174-2.48-15.068-3.443-17.4-.937-2.273-4.877-4.564-14.346-5.419zm146.32-3.328c-2.05-.194-2.062 23.13-1.937 27.218l.026.545.765 18.635c1.855.924 3.613-.217 5.354-.76 1.434-.447 6.16-4.204 6.121-5.228l-.826-4.992c-1.045-6.213-1.995-11.476-2.509-13.912l-.222-1c-1.136-4.89-5.263-20.363-6.772-20.506z"/>
        <path id="designer" d="M11.33 219.708c.069-.266 3.264-2.66 3.742-2.186l1.795 1.738c1.558 1.486 2.683 2.479 3.007 2.539 1.977.367 6.397.73 8.352 1.14 2.29.48 4.71 2.603 5.76 3.99 1.052 1.39 5.702 13.088 6.337 20.623.552 6.556-2.177 18.814-2.515 21.305l-.03.268c-.18 2.422-3.446 6.608-7.728 8.267-4.548 1.763-13.743 6.195-17.378 7.414l-.16-4.643c-.054-1.912-.09-3.826-.039-4.447l.013-.144c.105-1.94.001-21.025.005-21.357l.002-1.513c-.033-7.757-.749-18.176-1.086-22.683l-.174-2.233s-.092-7.113.096-8.078zm63.17 4.086c1.056.097-2.221 8.428-2.976 8.268-3.18-.643-15.45.127-18.48-.142-.055 1.758.205 3.926.289 4.705.16 1.507-.865 6.952-.767 7.6.18 1.175 13.764-4.282 14.446-4.275.76.095-.534 9.217-.72 9.217-.942.003-7.861 3.042-12.206 4.563-.279 0-.338 5.631.217 5.702 6.517-.571 9.508-4.268 10.98-4.278.81-.048 2.784 8.126 2.017 8.458-1.403.134-10.657 4.276-10.657 4.276-2.244.02-13.84 5.385-16.417 5.323l2.498-13.157c.784-4.225 1.447-7.947 1.44-8.415l-.008-.93c-.1-5.808-1.076-12.794-1.142-13.95l-.003-.134c.065-.89-1.615-6.338-2.112-6.37l-.246-1.801c-.252-1.96-.552-4.693-.282-4.66l.364.032c1.628.112 7.005.22 13.243-.127 6.3-.76 19.044-.193 20.521.095zm-48.517 12.954c-2.811-.724-4.86-2.013-4.786-1.678.188.829.514 11.612.613 13.115l.008.11c.145 1.626-.32 11.13-.177 13.286l.017.196c.052.47-.365 7.161-.365 7.161 1.408.232 3.93-2.696 5.508-4.09 1.16-1.025 4.641-7.268 4.641-12.83 0-5.842-2.426-14.492-5.459-15.27zm65.221-32.15c9.303.176 9.853 6.292 10.083 7.698.213 1.797 1.61 7.518 1.63 9.314.01.725-.479 5.52-.672 5.892-.173.333-7.549.33-8.063 0-.768-1.998 3-3.541 3.07-4.563.093-1.288-3.358-7.698-6.623-7.84-4.03-.238-5.855 4.705-5.76 7.08-.038 3.023 3.833 5.753 4.897 7.129 2.542 2.563 9.95-.144 13.535 4.464.834.725 1.009 6.32 0 13.875-1.15 7.414-10.39 12.355-17.952 14.635-11.312 2.24-15.125.722-15.17-.951l.018-8.471c.038-5.458.177-11.746.654-13.006.577-1.424 6.746-1.733 8.546-2.28.167-.14.95.549 2.112 1.616 1.146 1.053 1.943 2.765 1.93 2.913-.634 1.078-4.76 1.532-5.29 2.314-.904 1.338-.195 6.756-.191 8.315 11.903 5.274 15.09-11.393 13.92-12.308-4.44-3.844-9.688-5.87-12.289-7.34l-1.45-.845c-.634-.378-1.051-.69-1.623-1.414-.858-1.086 1.847-5.956 2.018-7.22l.072-.442c.51-2.858 3.239-15.853 4.056-16.19 2.3-.929 5.246-2.722 8.542-2.375zm36.579-14.446c-.115 1.307-2.288 7.904-2.496 8.365-.297.66-6.144 2.565-6.144 2.565l1.536 24.327-.011.586c-.017 2.91.466 8.113.778 8.156.914.133 4.298-2.96 4.8-2.753l.104 2.008c.169 2.735.635 7.436 2.153 9.56.126.175-.785 1.608-1.728 1.882l-.725.22c-7.169 2.241-22.118 8.88-22.46 8.803-.151-.032 1.535-3.37 2.688-6.224.672-1.663.802-4.83.84-5.036.053-.283 2.887-1.347 3.672-1.426.646-.065.322-1.692.29-2.037l-.023-1.865c-.019-2.788-.016-7.451.012-8.892l.009-.32c.035-.801-.745-8.722-1.044-11.573l-.107-.973c-.217-1.647.03-7.668 0-9.122l-2.468 1.347c-1.508.812-3.177 1.683-3.328 1.648-1.406-3.458-4.754-7.057-4.754-7.057l1.314-1.155c3.23-2.772 11.617-9.57 16.148-9.513 4.032.097 11.16-3.23 10.944-1.52zm19.585-10.977c1.089.45 1.997 11.383 2.017 11.737l-.578 10.2-2.159-.14c-1.584-.42-1.92-7.372-2.304-8.104-.62-1.186-3.839.9-5.328 1.676-1.152.606-.45 4.332-.64 5.613l-.033.165c-.368 1.349-.576 14.71-.768 15.584-.415 1.912-.267 5.171.386 6.842l.229.575c.92 2.262 1.893 3.99 3.226 3.227l.706-.413c1.4-.846 3.063-2.079 3.087-3.91l.016-.517c.113-2.374.742-6.326.415-6.325-.497 0-3.227 1.52-4.608 1.652v-.332c.048-1.523.59-5.74.863-5.815.627-.171 7.68-3.96 9.794-4.2.45.152 1.011 5.471.883 6.725l-.018.13c-.039.188-.334 1.707-.416 2.06l-.017.065c-.481 1.481.672 15.71-.337 19.624-3.615.185-4.452-3.667-5.952-2.472-1.554 1.243-5.184 10.265-14.401 12.165-.768.068-1.887-7.211-1.919-9.708l.015-2.33c.014-7.7-.191-28.236-.044-33.113l.067-1.668c.104-3.77.277-12.529 7.595-13.544l.55-.32c2.94-1.75 8.463-5.625 9.673-5.129zm35.138-13.012c-.301.461-3.71 10.55-3.889 12.235l.015.249c.105 3.545-1.855 33.24-1.886 36.739v.14c.024 2.23.195 5.12.432 6.64.042.268-9.812 6.574-10.007 6.084-.131-.773.655-5.657.359-6.45-.731-1.952-.405-4.167-.72-6.205l-.71-4.08c-1.06-5.93-2.905-15.887-3.107-16.265l.747 15.658-.013.77c-.02 3.263.331 8.56.154 9.93l-.022.413c-.05 1.552.055 5.734.214 6.999.024.193-9.29 4.048-9.29 3.565 0-.827 1.184-7.163 1.69-9.7l.207-.992c.783-3.126-2.883-36.3-2.88-38.963 0-.363-1.337-5.71-.959-7.049.079-.273 11.176-6.065 11.232-5.802.158.717.338 7.423.55 8.647l.184.768c.48 2.134 1.491 7.581 1.758 8.82l.03.137c.72 3.104 3.781 12.31 3.957 12.741.783-.269.048-10.335.05-12.497v-.158c.051-2.206-.624-9.925-.768-11.403l-.066-.212c-.384-1.387-1.867-8.319-1.855-9.08.091-.192 7.275-3.108 11.424-3.823.482-.373 3.276 1.982 3.17 2.144zm25.058 11.731c.024-.341 7.072 1.996 9.79 1.996 3.89 0 13.437-2.826 15.843-.57l1.268 1.14c1.621 1.474 3.34 3.373 3.34 7.032 0 7.223-5.447 12.188-8.161 14.636-1.77 1.599-9.185 1.692-10.487 1.852-.794.097 6.66.582 6.838 5.083.15 3.743-2.014 7.793-1.245 9.41l.29.64c.36.785.738 1.412 1.437.69.78-.805 5.268-8.946 5.183-10.264-.073-1.122 6.694 1.815 6.336 2.566l-1.073 2.6c-1.748 4.112-5.29 11.713-8.165 12.554-.537.461-5.278 1.53-8.858-1.21-1.776-2.23-3.283-6.688-3.215-9.288l.041-.833c.148-2.475.481-7.561-2.25-7.813l-1.383 6.628c-.532 2.624-1.05 5.296-1.21 6.484-.057.425-20.267 1.22-20.137.857.088-.24 2.784-3.517 3.457-3.707l.483-.122c2.736-.636 10.033-1.645 10.437-2.87.551-1.671 1.326-8.934 1.739-13.208l.277-3.044c.032-.384.434-9.568.576-10.69l-.008-.135c-.11-1.156-1.23-9.15-1.143-10.414zm-22.85-9.789c2.786.872 8.976 4.218 11.234 5.038 7.332 2.1 7.99 4.572 9.216 4.656.441.076-2.11 6.61-2.426 8.648-.893-.095-1.427-2.605-3.91-3.612-2.833-1.15-1.352-.918-4.033-1.424-2.112-.097-1.573 7.534-1.416 7.601.626.16 9.591 1.112 10.15 1.285.158.048-2.136 6.555-2.301 6.555l-.405-.02c-.753-.053-2.25-.208-3.195-.407l-.683-.157c-1.097-.272-2.045-.567-3.782-.556-.25.002-1.067 10.844-.576 10.977 9.745.457 9.166-6.731 10.465-6.747.717-.093 1.503 8.482 1.151 8.553-1.204.241-4.955 5.743-10.66 7.979l-.525.193c-3.718 1.295-9.193 4.296-11.472 4.182l-.016-.99c-.005-1.279.036-3.517.344-5.024l.057-.258c.199-.893.692-5.735.876-10.175l.42-9.972c-.002-.176 1.536-14.968 1.418-16.237l-.035-.693c-.106-2.803-.158-10.516.105-9.395zm43.875 20.528c.165-3.968-11.474-1.822-13.097-1.378l-.152.047-.144 8.126c.033.432 5.476.782 7.875-.139l.548-.233c1.744-.709 4.761-1.41 4.97-6.423z"/>
        <path id="engineer" d="M323.936 152.586c.4.439-.588 8.325-.955 11.255-1.052-.135-5.776-3.185-6.085-3.52-.224-.25-4.877-.275-9.564 2.519-.41-.06.24 16.646.43 16.741.738.234 8.588-5.438 12.164-6.01.14-.083 1.15 8.582.956 8.585-3.055 1.43-12.486 7.76-12.788 7.822-.287.061-.1 10.97.479 11.16 1.62 0 10.587-10.375 12.118-10.397.84-.135 1.272 12.681.86 12.782-1.46.357-23.76 15.336-28.248 15.691.43-3.003-1.914-7.533-2.004-8.252.413-1.204 1.158-1.934 1.146-1.955l1.2-.306c1.394-.37 2.664-.752 2.664-.789.477-3.246 3.675-14.07 2.864-17.457l-2.207-9.199c-.813-3.45-1.482-6.441-1.516-7.171V174c.057-2.014-1.587-6.745-1.575-7.298.005-.298-4.278 1.41-5.154 1.574-.149-2.617-4.623-7.15-4.102-7.488l4.883-3.251c4.321-2.85 10.234-6.607 13.248-7.716 2.721-1.004 20.328 2.692 21.186 2.765zm26.052-9.777c0 1.144 2.934 7.87 2.863 8.798l.02.323c.165 3.655-.478 25.959-.498 30.473l.002 1.43c-.012 2.65-.115 6.145.094 7.766.042.322-10.873 4.746-11.069 4.15-.132-.932 1.321-4.268-.286-9.396l-.31-.95c-1.714-5.164-5.74-16.22-5.988-16.79l.643 20.555.649 3.082c.363 1.78.762 3.835.854 4.716.024.23-10.449 5.162-10.449 4.578l-.017-.858c-.072-2.728-.343-10.275-.175-11.09.752-3.643 1.027-26.362 1.05-30.864v-.424c-.048-.143.7-6.439.67-7.439-.01-.341 8.435-9.569 8.491-9.254.161.903.348 12.488.572 13.451l.176.61c1.186 3.823 7.487 21.797 7.651 22.283.774-.324.187-8.46.188-10.9l.001-.213c.052-2.667-2.909-14.095-3.053-15.882-.221-.653-1.827-12.334-1.67-12.735 2.482-.19 9.52 4.293 9.591 4.58zm41.225-3.673l2.862 5.962.276.451c.41.69 1.1 1.915.726 1.79l-1.98.453 1.004 23.467-.027 1.045c-.091 4.28-.18 15.276-.188 15.766.004.274 2.642-.144 2.647 0l.002.681c-.017 1.676-.144 5.507-.456 5.519l-.768.127c-4.74.848-11.633 3.118-12.019 3.02-.255-.064.049-6.445.144-7.01.05-.32.319.04 1.097-.048.685-.076 1.748-.392 1.767-.572l-.041-4.217c-.014-2.435-.023-5.335-.02-7.33l.02-2.283c.04-1.066-.933-24.233-.963-25.874l-3.434.787c-.337.168-1.576-6.44-1.002-6.726.475-.43 5.44-2.576 5.44-2.576l1.204-.676c1.301-.717 3.252-1.749 3.709-1.756zm-22.473 6.82l2.556.281c2.156.252 3.181.462 3.694 1.007l.56.29c.933.499 2.67 1.472 2.685 1.714l-1.337 11.16-2.48-.858c-.384-.955-.193-2.211-.572-2.861l-.344-.601c-.726-1.2-2.203-2.84-6.624-.832-2.237.84-2.749 14.162-2.723 15.52l.003.076c.175 2.628-.218 9.102.43 10.59l.252.557c.95 2.018 2.156 3.694 3.47 3.019l.501-.261c1.368-.732 2.91-1.758 2.935-3.46.026-2.01 1.065-6.323.714-7.297-.137-.378-3.35-2.164-4.724-2.145-.047-.972-1.225-6.557-.716-6.725.574-.191 11.583 2.746 13.887 2.718.286-1.001 1.276 3.175 1.002 4.007l-.692 2.476-.065.301c-.369 2.004-1.584 12.502-2.822 22.261-2.817-.594-5.658-4.687-6.012-4.436l-.341.29c-1.158.954-1.893 1.086-7.531 1.142l-.564-.231c-2.562-1.096-6.57-3.381-6.863-4.38l-.017-.11c-1.002-5.01.638-27.23.858-30.334.113-1.55-2.003-6.725-1.574-7.583.267-.407 11.982-5.42 12.454-5.294zm53.916-19.698c-.298.322 3.041 11.553 2.863 12.735l.03.22c.348 2.836 2.306 26.37 2.4 28.992l.004.119c.024 1.563-.522 9.952-.286 11.018.041.187-12.115 8.931-12.31 8.584-.13-.54.008-4.308-.287-4.864-.648-1.225-1.645-5.538-2.14-7.447l-.368-1.355c-1.628-6.19-2.519-15.345-4.22-15.093l1.006 14.26c.048 1.002.462 9.797.282 10.78-.094.7.54 3.59.716 4.579.023.133-9.16 4.057-9.16 3.719l.015-.475c.07-1.585.36-6.185.533-7.016l.024-.092c.778-2.193-.434-33.333-.43-35.197-.286-.574-1.689-4.571-1.717-5.152-.01-.2 10.25-6.909 10.305-6.724.155.498.72 4.969.966 5.893l.135.412c1.001 3.15 8.324 28.46 8.49 28.75.78-.19-1.138-14.584-1.147-16.358l.002-.098c.08-1.268-.534-9.182-.953-12.904l-.071-.167c-.47-1.24-2.7-8.46-2.554-8.676l.373-.415c1.607-1.748 7.824-8.375 7.5-8.028zm28.581-16.025c.34.218 4.7 10.764 4.39 12.21-.696-.15-7.942 2.425-7.97 2.432-1.56.075-4.148 2.433-4.864 2.863-.06.014-.862 12.802-.716 12.828.624.115 11.972-5.068 12.215-5.15.116-.041.735 9.157.572 9.157-.227-.005-5.471 4.455-6.682 4.769-.237-.047-5.564 2.973-5.82 3.005-.24.029 1.372 9.492 1.86 9.588 3.435-.718 9.35-9.909 10.642-9.923.712-.064 1.198 12.387 1.146 12.4-1.255.068-11.643 8.539-11.643 8.539l-.548.166c-2.511.798-8.67 3.057-10.76 2.98l-.275-1.17c-.483-2.134-1.402-6.547-1.015-7.7 1.147-.572 1.851-3.414 1.91-3.958l.045-.604c.083-1.468.127-4.417.251-7.26l-.026-.596c-.196-3.712-1.424-23.341-1.416-23.59.005-.147-2.195-1.48-2.48-2.194-.127-1.294-2.875-6.988-2.435-7.155l.488-.195c4.995-2.092 21.954-11.5 23.131-11.442zm25.288-11.35c.34.199 5.752 9.258 5.44 10.588-.694-.137-4.697.136-4.724.142-1.56.069-8.303 3.85-9.017 4.245-.059.012 1.38 11.04 1.526 11.065.624.105 9.926-6.582 11.213-6.296.116-.036.738 8.585.574 8.587-.228-.007-10.34 7.552-10.595 7.583-.239.026.228 8.64.718 8.727 6.01-2.575 7.687-9.005 8.777-11.732.288-.716 1.947-1.522 2.483-1.527.713-.059 1.819 16.537 1.765 16.55-1.254.062-9.734 7.44-9.734 7.44-2.003.525-10.905 5.799-13.169 5.722l-.452-2.494c-.526-3.029-1.281-7.853-.933-8.806 1.147-.525 2.47-1.792 2.53-2.292.114-.954-.648-4.886-.586-7.895l.013-.404c.02-.395-1.44-19.351-1.432-19.6.007-.136-1.955-4.255-2.241-4.912-.127-1.189-2.35-5.096-1.91-5.249l.546-.202c4.806-1.888 18.038-9.294 19.208-9.24zm26.423-15.086c1.467.762 7.835 11.234 8.467 13.568 1.167 4.3 2.036 19.86.909 21.497-.925 1.342-7.286 3.383-8.28 4.041l-.08.06.292-.032c1.449-.137 6.89-.46 7.563 1.377.808 3.01-1.17 16.099 2.783 17.022 1.449.338 3.867.063 5.343.763.405.19-1.552 7.158-1.675 7.344-.565.291-7.545.497-11.303-1.24-1.815-1.374-3.419-13.703-3.438-15.872l.002-.353c-.046-1.284-1.047-3.954-7.037-4.607l.454 1.776c.427 1.726.997 4.19.957 4.913-.024.445 2.008 7.576 1.614 7.644l-.152.04c-1.39.404-11.07 3.62-10.938 3.4.226-.378 1.904-6.273 2.016-6.69.403-1.49-.42-11.426-.303-12.324l-.008-.117c-.134-1.39-1.911-14.363-1.805-15.36.078-.737-2.119-5.926-2.722-6.88.03-.148-3.793-6.72-3.831-6.977-.038-.217 18.733-14.263 21.172-12.993zm-9.819 15.085l.333.577c.672 1.21 2.166 4.147 2.628 7.077l1.335 8.085c.035.283 5.341-1.142 7.156-2.86 1.753-.491.933-7.104 1.188-9.046.154-1.163-4.147-4.838-5.196-6.694-3.025-1.148-6.031 2.096-7.444 2.86z"/>
      </g>
    </g>
  </g>
</svg>
